<svg xmlns="http://www.w3.org/2000/svg" viewBox="0 0 511.899 511.899"><path d="M153.55 272.966a8.533 8.533 0 0 0 8.533-8.533v-62.805a8.528 8.528 0 0 0-1.451-4.779 114.74 114.74 0 0 1-15.189-32 8.535 8.535 0 0 0-3.584-4.779 41.469 41.469 0 0 0-22.443-6.571c-23.564 0-42.667 19.102-42.667 42.667v273.067c0 23.564 19.103 42.667 42.667 42.667s42.667-19.102 42.667-42.667V298.566a8.533 8.533 0 0 0-17.066 0v170.667c0 14.138-11.461 25.6-25.6 25.6s-25.6-11.461-25.6-25.6V196.166c0-14.138 11.461-25.6 25.6-25.6a24.073 24.073 0 0 1 10.667 2.389 132.375 132.375 0 0 0 14.933 31.232v60.245a8.533 8.533 0 0 0 8.533 8.534z"/><path d="M221.816 332.699a8.533 8.533 0 0 0-8.533 8.533v128c0 14.138-11.462 25.6-25.6 25.6s-25.6-11.461-25.6-25.6V298.566a8.533 8.533 0 0 0-17.066 0v170.667c0 23.564 19.103 42.667 42.667 42.667s42.667-19.102 42.667-42.667v-128a8.536 8.536 0 0 0-8.535-8.534zM224.206 242.929a115.627 115.627 0 0 1-63.573-46.08 8.533 8.533 0 0 0-15.616 4.778v62.805a8.533 8.533 0 0 0 17.066 0v-39.168a132.77 132.77 0 0 0 51.2 32.085v41.216c0 4.713 3.82 8.533 8.533 8.533s8.533-3.82 8.533-8.533v-47.104a8.53 8.53 0 0 0-6.143-8.532z"/><path d="M290.083 324.166a8.533 8.533 0 0 0-8.533 8.533v136.533c0 14.138-11.462 25.6-25.6 25.6s-25.6-11.461-25.6-25.6V332.699a8.533 8.533 0 0 0-17.066 0v136.533c0 23.564 19.102 42.667 42.667 42.667s42.667-19.102 42.667-42.667V332.699a8.536 8.536 0 0 0-8.535-8.533zM298.28 248.381a8.534 8.534 0 0 0-10.586-5.794 116.475 116.475 0 0 1-63.573 0 8.533 8.533 0 0 0-10.838 8.533v38.912c0 4.713 3.82 8.533 8.533 8.533s8.533-3.82 8.533-8.533v-28.075c16.907 3.3 34.293 3.3 51.2 0v36.608c0 4.713 3.82 8.533 8.533 8.533s8.533-3.82 8.533-8.533V251.12a8.484 8.484 0 0 0-.335-2.739z"/><path d="M349.816 315.633v153.6c0 14.138-11.462 25.6-25.6 25.6-14.138 0-25.6-11.461-25.6-25.6V332.699H281.55v136.533c0 23.564 19.102 42.667 42.667 42.667 23.564 0 42.667-19.102 42.667-42.667v-153.6h-17.068zM363.109 194.184a8.532 8.532 0 0 0-11.842 2.323 115.63 115.63 0 0 1-63.573 46.08 8.534 8.534 0 0 0-6.144 8.533v47.445c0 4.713 3.82 8.533 8.533 8.533s8.533-3.82 8.533-8.533v-41.131a132.783 132.783 0 0 0 51.2-32.085v39.083a8.533 8.533 0 0 0 17.066 0v-63.147a8.53 8.53 0 0 0-3.773-7.101z"/><path d="M429.082 174.566c-12.113-20.213-38.318-26.779-58.53-14.666a8.533 8.533 0 0 0-3.669 4.864 114.354 114.354 0 0 1-15.616 32.085 8.544 8.544 0 0 0-1.451 4.779V255.9c0 4.713 3.82 8.533 8.533 8.533s8.533-3.82 8.533-8.533v-51.712a131.299 131.299 0 0 0 14.933-31.232 25.601 25.601 0 0 1 28.757 5.205 25.084 25.084 0 0 1 7.509 18.005v273.067c0 14.138-11.462 25.6-25.6 25.6-14.138 0-25.6-11.461-25.6-25.6V298.566c0-4.713-3.82-8.533-8.533-8.533s-8.533 3.82-8.533 8.533v170.667c0 23.564 19.102 42.667 42.667 42.667 23.564 0 42.667-19.102 42.667-42.667V196.166a42.651 42.651 0 0 0-6.067-21.6zM85.283 435.099H51.15c-4.713 0-8.533 3.82-8.533 8.533s3.82 8.533 8.533 8.533h34.133c4.713 0 8.533-3.82 8.533-8.533s-3.82-8.533-8.533-8.533z"/><path d="M460.75 400.966a8.533 8.533 0 0 0-8.533 8.533v17.067a8.533 8.533 0 0 1-8.533 8.533h-17.067c-4.713 0-8.533 3.82-8.533 8.533s3.82 8.533 8.533 8.533h17.067c14.138 0 25.6-11.461 25.6-25.6v-17.067a8.534 8.534 0 0 0-8.534-8.532zM303.31 124.059a69.742 69.742 0 0 0-14.421-18.603A51.2 51.2 0 0 1 273.7 68.848v-1.877c.158-4.515.904-8.99 2.219-13.312a8.533 8.533 0 0 0-12.288-9.984 68.863 68.863 0 0 0-35.413 55.296 7.762 7.762 0 0 0-4.693 1.195 56.322 56.322 0 0 0-27.21 48.116c-.054 31.105 25.118 56.363 56.223 56.417 23.851-.035 45.103-15.068 53.077-37.547a56.499 56.499 0 0 0-2.305-43.093zm-11.52 24.491c-.047 21.632-17.621 39.13-39.253 39.082a39.25 39.25 0 0 1-25.687-9.644c-16.33-14.214-18.064-38.959-3.894-55.312a46.51 46.51 0 0 0 19.256 22.29 8.545 8.545 0 1 0 11.606-12.544 51.97 51.97 0 0 1-1.024-55.552 53.78 53.78 0 0 1 3.925-5.632 68.264 68.264 0 0 0 20.139 46.165 54.613 54.613 0 0 1 11.093 13.909 38.822 38.822 0 0 1 3.84 17.067l-.001.171z"/><path d="M383.182 94.975C362.567 24.895 289.045-15.204 218.965 5.41S108.786 99.547 129.4 169.627a131.74 131.74 0 0 0 17.067 36.779 132.013 132.013 0 0 0 109.483 58.027 130.5 130.5 0 0 0 36.523-5.12 132.437 132.437 0 0 0 90.709-89.685 132.27 132.27 0 0 0 0-74.653zm-16.299 69.788a114.508 114.508 0 0 1-15.531 32.085c-27.958 41.239-79.259 59.831-127.147 46.08-49.475-14.144-83.57-59.385-83.535-110.842.044-63.623 51.656-115.165 115.279-115.121a115.258 115.258 0 0 1 32.84 4.679c61.086 17.957 96.05 82.033 78.094 143.119z"/></svg>