<svg xmlns="http://www.w3.org/2000/svg" viewBox="0 0 512 512"><path d="M324.255 257.28V68.267C324.255 30.564 293.691 0 255.989 0s-68.267 30.564-68.267 68.267V257.28c-42.161 24.387-68.138 69.386-68.172 118.092-.052 75.405 61.033 136.576 136.439 136.628 48.706-.034 93.706-26.011 118.092-68.172 37.755-65.273 15.447-148.793-49.826-186.548zm-12.544 223.895c-58.363 30.775-130.623 8.41-161.398-49.953s-8.41-130.623 49.953-161.398a8.535 8.535 0 0 0 4.523-7.509V68.267c0-28.277 22.923-51.2 51.2-51.2s51.2 22.923 51.2 51.2v194.048a8.531 8.531 0 0 0 4.523 7.509 119.47 119.47 0 0 1 49.953 49.953c30.774 58.363 8.409 130.623-49.954 161.398z"/><path d="M315.722 128h-51.2c-4.713 0-8.533 3.82-8.533 8.533s3.82 8.533 8.533 8.533h51.2c4.713 0 8.533-3.82 8.533-8.533s-3.82-8.533-8.533-8.533zM315.722 162.133h-51.2c-4.713 0-8.533 3.82-8.533 8.533s3.82 8.533 8.533 8.533h51.2c4.713 0 8.533-3.82 8.533-8.533s-3.82-8.533-8.533-8.533zM315.722 196.267h-51.2c-4.713 0-8.533 3.82-8.533 8.533s3.82 8.533 8.533 8.533h51.2a8.533 8.533 0 0 0 0-17.066zM315.722 230.4h-51.2c-4.713 0-8.533 3.82-8.533 8.533s3.82 8.533 8.533 8.533h51.2c4.713 0 8.533-3.82 8.533-8.533s-3.82-8.533-8.533-8.533zM379.027 379.806c-39.022-32.606-97.088-27.404-129.694 11.618a74.946 74.946 0 0 1-8.992 8.992c-31.67 26.704-78.992 22.678-105.695-8.992l-13.312 10.752A90.113 90.113 0 0 0 191.99 435.2a90.113 90.113 0 0 0 70.656-33.024 75.019 75.019 0 0 1 8.992-8.992c31.67-26.704 78.992-22.678 105.695 8.992l13.312-10.752a92.133 92.133 0 0 0-11.618-11.618zM255.989 34.133c-18.851 0-34.133 15.282-34.133 34.133 0 4.713 3.82 8.533 8.533 8.533s8.533-3.82 8.533-8.533c0-9.426 7.641-17.067 17.067-17.067a8.533 8.533 0 0 0 0-17.066z"/><path d="M219.806 288.327a8.534 8.534 0 0 0-11.604-3.314c-33.664 17.763-54.698 52.732-54.613 90.795v3.413a8.534 8.534 0 0 0 8.533 8.107l.427-.512a8.534 8.534 0 0 0 8.107-8.533v-2.816a85.333 85.333 0 0 1 45.483-75.349 8.535 8.535 0 0 0 3.667-11.791z"/></svg>