<svg xmlns="http://www.w3.org/2000/svg" viewBox="0 0 512.002 512.002"><path d="M153.604 34.133c-18.851 0-34.133 15.282-34.133 34.133a8.533 8.533 0 0 0 8.533 8.533 8.533 8.533 0 0 0 8.533-8.533c0-9.426 7.641-17.067 17.067-17.067 4.713 0 8.533-3.82 8.533-8.533s-3.82-8.533-8.533-8.533zM117.253 288.867a8.533 8.533 0 0 0-11.436-3.854c-33.691 17.777-54.73 52.786-54.613 90.88v3.328a8.534 8.534 0 0 0 8.533 8.107l.427-.512a8.534 8.534 0 0 0 8.107-8.533v-2.816a85.333 85.333 0 0 1 45.483-75.349 8.534 8.534 0 0 0 3.499-11.251z"/><path d="M217.604 349.867a90.027 90.027 0 0 0-70.656 33.024A73.043 73.043 0 0 1 89.604 409.6a73.389 73.389 0 0 1-57.771-26.368v-1.024l-6.229 6.229h-8.533a8.534 8.534 0 0 0 1.963 5.376 90.367 90.367 0 0 0 70.571 32.853 90.027 90.027 0 0 0 70.656-33.024 73.043 73.043 0 0 1 57.344-26.709 74.585 74.585 0 0 1 28.331 5.376l6.4-15.787a91.565 91.565 0 0 0-34.732-6.655z"/><path d="M256.004 375.467a104.792 104.792 0 0 1 1.621-18.517 110.944 110.944 0 0 1 14.933-39.936 8.534 8.534 0 0 0 0-8.533 135.338 135.338 0 0 0-50.688-51.2V68.267C221.871 30.564 191.307 0 153.604 0S85.337 30.564 85.337 68.267V257.28C43.11 281.66 17.09 326.707 17.07 375.467v4.693C19.292 453.864 79.868 512.358 153.604 512c49.34-.106 94.785-26.825 118.869-69.888a8.534 8.534 0 0 0 0-8.533 110.174 110.174 0 0 1-16.469-58.112zm-.768 62.634a119.469 119.469 0 0 1-97.72 56.713c-65.943 2.197-121.182-49.479-123.379-115.422v-3.925c.012-44.311 24.549-84.975 63.744-105.643a8.535 8.535 0 0 0 4.523-7.509V68.267c0-28.277 22.923-51.2 51.2-51.2 28.277 0 51.2 22.923 51.2 51.2v194.475a8.531 8.531 0 0 0 4.523 7.509 118.615 118.615 0 0 1 45.909 42.667 127.488 127.488 0 0 0-14.592 41.557 121.72 121.72 0 0 0-1.707 20.992 127.4 127.4 0 0 0 16.299 62.634z"/><path d="M213.337 128h-51.2c-4.713 0-8.533 3.82-8.533 8.533s3.82 8.533 8.533 8.533h51.2c4.713 0 8.533-3.82 8.533-8.533S218.05 128 213.337 128zM213.337 162.133h-51.2c-4.713 0-8.533 3.82-8.533 8.533s3.82 8.533 8.533 8.533h51.2c4.713 0 8.533-3.82 8.533-8.533s-3.82-8.533-8.533-8.533zM213.337 196.267h-51.2c-4.713 0-8.533 3.82-8.533 8.533s3.82 8.533 8.533 8.533h51.2a8.533 8.533 0 0 0 0-17.066zM213.337 230.4h-51.2c-4.713 0-8.533 3.82-8.533 8.533s3.82 8.533 8.533 8.533h51.2c4.713 0 8.533-3.82 8.533-8.533s-3.82-8.533-8.533-8.533zM387.903 249.2c-69.735-11.594-135.665 35.54-147.259 105.275a121.72 121.72 0 0 0-1.707 20.992 128.002 128.002 0 0 0 48.896 100.608 126.805 126.805 0 0 0 79.104 27.392c62.581-.013 115.977-45.274 126.241-107.008 11.594-69.736-35.54-135.666-105.275-147.259zm-20.966 237.2c-61.267 0-110.933-49.667-110.933-110.933a104.855 104.855 0 0 1 1.536-18.176c8.887-53.505 55.159-92.739 109.397-92.757 61.267 0 110.933 49.667 110.933 110.933S428.204 486.4 366.937 486.4z"/><path d="M398.721 324.656c-28.063-17.344-64.872-8.655-82.216 19.408a60.317 60.317 0 0 0-8.533 22.016 54.577 54.577 0 0 0-.768 9.387 58.976 58.976 0 0 0 8.533 31.147 61.35 61.35 0 0 0 14.336 15.787 59.219 59.219 0 0 0 36.864 12.8 59.733 59.733 0 0 0 51.192-28.328c17.344-28.064 8.655-64.873-19.408-82.217zm1.87 77.295c-14.627 18.474-41.462 21.593-59.936 6.966a44.136 44.136 0 0 1-10.155-11.349 41.891 41.891 0 0 1-6.229-22.101 37.574 37.574 0 0 1 .512-6.485 43.688 43.688 0 0 1 5.888-15.957 42.667 42.667 0 0 1 36.267-20.224 42.67 42.67 0 0 1 26.688 9.215c18.474 14.626 21.592 41.461 6.965 59.935z"/><path d="M366.937 281.6a8.533 8.533 0 0 0-8.533 8.533v34.133c0 4.713 3.82 8.533 8.533 8.533s8.533-3.82 8.533-8.533v-34.133a8.533 8.533 0 0 0-8.533-8.533zM366.937 418.133a8.533 8.533 0 0 0-8.533 8.533V460.8c0 4.713 3.82 8.533 8.533 8.533s8.533-3.82 8.533-8.533v-34.133a8.533 8.533 0 0 0-8.533-8.534zM336.729 333.312l-24.149-24.149a8.533 8.533 0 0 0-12.032 12.032l24.149 24.149a8.534 8.534 0 0 0 6.059 2.475l-.085.085a8.533 8.533 0 0 0 6.058-14.592zM433.241 429.824l-24.149-24.149a8.533 8.533 0 0 0-12.032 12.032l24.149 24.149a8.534 8.534 0 0 0 6.059 2.475l-.085.085a8.533 8.533 0 0 0 6.058-14.592zM315.737 366.933h-34.133c-4.713 0-8.533 3.82-8.533 8.533s3.82 8.533 8.533 8.533h34.133c4.713 0 8.533-3.82 8.533-8.533s-3.82-8.533-8.533-8.533zM452.271 366.933h-34.133c-4.713 0-8.533 3.82-8.533 8.533s3.82 8.533 8.533 8.533h34.133c4.713 0 8.533-3.82 8.533-8.533s-3.82-8.533-8.533-8.533zM336.729 406.52a8.533 8.533 0 0 0-12.032-.931l-24.149 24.149a8.534 8.534 0 0 0 6.059 14.592 8.53 8.53 0 0 0 5.973-2.56l24.149-24.149a8.533 8.533 0 0 0 0-11.101zM433.241 310.008a8.533 8.533 0 0 0-12.032-.931l-24.149 24.149a8.534 8.534 0 0 0 6.059 14.592 8.53 8.53 0 0 0 5.973-2.56l24.149-24.149a8.533 8.533 0 0 0 0-11.101z"/></svg>