<svg xmlns="http://www.w3.org/2000/svg" viewBox="0 0 512 512"><path d="M256 51.2C142.892 51.2 51.2 142.892 51.2 256c0 4.713 3.82 8.533 8.533 8.533s8.533-3.82 8.533-8.533c0-103.682 84.051-187.733 187.733-187.733 4.713 0 8.533-3.82 8.533-8.533S260.713 51.2 256 51.2zM308.651 58.027l-8.533-2.133a8.728 8.728 0 1 0-3.669 17.067l7.936 1.963a8.497 8.497 0 0 0 2.219 0l-.171.171a8.606 8.606 0 0 0 2.218-17.068zM346.368 90.368c-.077 0-.154-.011-.231-.013-.066.001-.13.013-.196.013h.427z"/><path d="M264.533 51.2H256c-4.713 0-8.533 3.82-8.533 8.533s3.82 8.533 8.533 8.533h8.533c4.713 0 8.533-3.82 8.533-8.533s-3.82-8.533-8.533-8.533zM349.867 74.24l-7.595-4.352a8.534 8.534 0 0 0-7.254 15.445l7.424 4.096a8.532 8.532 0 0 0 3.694.926 8.527 8.527 0 0 0 7.434-4.63 8.533 8.533 0 0 0-3.703-11.485zM451.84 237.397a8.545 8.545 0 0 0-8.107 8.96v8.533a8.533 8.533 0 0 0 8.533 8.533v-.853a8.533 8.533 0 0 0 8.533-8.533v-8.533a8.543 8.543 0 0 0-8.959-8.107zM449.024 220.416a8.533 8.533 0 0 0 6.485-10.155 156.386 156.386 0 0 0-2.133-8.533 8.54 8.54 0 0 0-10.496-5.973 8.54 8.54 0 0 0-5.973 10.496c.683 2.56 1.337 5.177 1.963 7.851a8.534 8.534 0 0 0 8.533 6.656l1.621-.342zM437.139 180.163a8.534 8.534 0 0 0 4.035-11.373 340.199 340.199 0 0 0-4.197-8.29 8.533 8.533 0 1 0-14.918 8.29 123.535 123.535 0 0 1 3.669 7.253 8.534 8.534 0 0 0 7.765 4.864v.085a8.548 8.548 0 0 0 3.646-.829zM412.501 123.989a8.539 8.539 0 0 0-13.056 11.008 137.427 137.427 0 0 1 5.12 6.315 8.531 8.531 0 0 0 6.741 3.328h.085a8.533 8.533 0 0 0 6.741-13.738c-1.876-2.305-3.753-4.609-5.631-6.913zM387.328 98.901l-6.997-5.547a8.55 8.55 0 0 0-10.41 13.568l6.4 5.12a8.532 8.532 0 0 0 5.461 1.963h.085a8.533 8.533 0 0 0 5.461-15.104zM256 102.4c-84.831 0-153.6 68.769-153.6 153.6S171.169 409.6 256 409.6 409.6 340.831 409.6 256 340.831 102.4 256 102.4zm0 290.133c-75.405 0-136.533-61.128-136.533-136.533S180.595 119.467 256 119.467 392.533 180.595 392.533 256 331.405 392.533 256 392.533z"/><path d="M256 187.733c-37.703 0-68.267 30.564-68.267 68.267s30.564 68.267 68.267 68.267 68.267-30.564 68.267-68.267-30.564-68.267-68.267-68.267zm0 119.467c-28.277 0-51.2-22.923-51.2-51.2s22.923-51.2 51.2-51.2 51.2 22.923 51.2 51.2-22.923 51.2-51.2 51.2z"/><path d="M256 153.6a8.533 8.533 0 0 0-8.533 8.533v34.133c0 4.713 3.82 8.533 8.533 8.533s8.533-3.82 8.533-8.533v-34.133A8.533 8.533 0 0 0 256 153.6zM256 102.4a8.533 8.533 0 0 0-8.533 8.533V128c0 4.713 3.82 8.533 8.533 8.533s8.533-3.82 8.533-8.533v-17.067A8.533 8.533 0 0 0 256 102.4zM256 375.467a8.533 8.533 0 0 0-8.533 8.533v17.067c0 4.713 3.82 8.533 8.533 8.533s8.533-3.82 8.533-8.533V384a8.533 8.533 0 0 0-8.533-8.533zM220.245 132.864l-5.803-16.043a8.533 8.533 0 0 0-16.042 5.803l5.803 16.043a8.534 8.534 0 0 0 8.021 5.632 8.533 8.533 0 0 0 8.021-11.435zM313.6 389.632l-5.803-16.043a8.534 8.534 0 0 0-16.043 5.803l5.803 16.043a8.534 8.534 0 0 0 8.021 5.632 8.533 8.533 0 0 0 8.022-11.435zM180.224 152.405l-11.008-13.056a8.539 8.539 0 0 0-13.056 11.008l11.008 13.056a8.535 8.535 0 0 0 6.571 3.072v-.085a8.535 8.535 0 0 0 6.485-13.995zM355.755 361.387l-11.008-13.056a8.539 8.539 0 0 0-13.056 11.008l11.008 13.056a8.535 8.535 0 0 0 6.571 3.072 8.534 8.534 0 0 0 6.485-14.08zM149.333 184.661l-14.763-8.533a8.534 8.534 0 1 0-8.534 14.763l14.763 8.533a8.53 8.53 0 0 0 4.267 1.109 8.532 8.532 0 0 0 4.267-15.872zM385.877 321.195l-14.763-8.533a8.534 8.534 0 0 0-8.534 14.762l14.763 8.533a8.527 8.527 0 0 0 4.267 1.109v.085a8.531 8.531 0 0 0 4.267-15.956zM131.499 225.28l-17.067-2.987a8.663 8.663 0 1 0-2.987 17.067l17.067 2.987h1.536a8.564 8.564 0 1 0 1.451-17.067zM400.384 273.067l-17.067-2.987a8.663 8.663 0 1 0-2.987 17.067l17.067 2.987h1.536a8.564 8.564 0 0 0 9.259-7.808 8.563 8.563 0 0 0-7.808-9.259zM138.795 277.12a8.663 8.663 0 0 0-10.027-7.04l-17.067 2.987a8.564 8.564 0 1 0 1.451 17.067h1.536l17.067-2.987a8.664 8.664 0 0 0 7.04-10.027zM407.68 229.333a8.663 8.663 0 0 0-10.027-7.04l-17.067 2.987a8.564 8.564 0 1 0 1.451 17.067h1.536l17.067-2.987a8.663 8.663 0 0 0 7.04-10.027zM152.402 316.182a8.534 8.534 0 0 0-11.517-3.606l-14.763 8.533a8.534 8.534 0 0 0 4.267 15.958 8.54 8.54 0 0 0 4.267-1.195l14.763-8.533a8.534 8.534 0 0 0 2.983-11.157zM389.209 178.666a8.532 8.532 0 0 0-11.779-2.623l-14.763 8.533a8.533 8.533 0 0 0 4.267 15.957 8.54 8.54 0 0 0 4.267-1.195l14.763-8.533a8.534 8.534 0 0 0 3.245-12.139zM179.285 347.392a8.539 8.539 0 0 0-12.032 1.024l-11.008 13.056a8.533 8.533 0 0 0 6.485 13.994 8.534 8.534 0 0 0 6.571-2.987l11.008-13.056a8.537 8.537 0 0 0-1.024-12.031zM354.816 138.411a8.539 8.539 0 0 0-12.032 1.024l-11.008 13.056a8.533 8.533 0 0 0 6.486 13.994 8.534 8.534 0 0 0 6.571-2.987l11.008-13.056a8.539 8.539 0 0 0-1.025-12.031zM215.27 368.779a8.533 8.533 0 0 0-11.068 4.811l-5.803 16.043a8.534 8.534 0 0 0 8.021 11.435 8.532 8.532 0 0 0 8.021-5.632l5.803-16.043a8.532 8.532 0 0 0-4.974-10.614zM308.625 112.01a8.532 8.532 0 0 0-11.067 4.811l-5.803 16.043a8.534 8.534 0 0 0 8.021 11.435 8.531 8.531 0 0 0 8.021-5.632l5.803-16.043a8.534 8.534 0 0 0-4.975-10.614z"/><path d="M469.333 0H42.667C19.103 0 0 19.103 0 42.667v426.667C0 492.898 19.103 512 42.667 512h426.667C492.898 512 512 492.898 512 469.333V42.667C512 19.103 492.898 0 469.333 0zm25.6 469.333c0 14.138-11.461 25.6-25.6 25.6H42.667c-14.138 0-25.6-11.461-25.6-25.6V42.667c0-14.138 11.462-25.6 25.6-25.6h426.667c14.138 0 25.6 11.462 25.6 25.6v426.666z"/><path d="M443.733 409.6c-18.851 0-34.133 15.282-34.133 34.133 0 18.851 15.282 34.133 34.133 34.133 18.851 0 34.133-15.282 34.133-34.133.001-18.851-15.281-34.133-34.133-34.133zm0 51.2c-9.426 0-17.067-7.641-17.067-17.067s7.641-17.067 17.067-17.067 17.067 7.641 17.067 17.067-7.641 17.067-17.067 17.067zM57.259 463.104l-1.365-1.024a4.761 4.761 0 0 0-1.451-.768 5.232 5.232 0 0 0-1.621-.512 7.252 7.252 0 0 0-3.328 0 5.374 5.374 0 0 0-1.536.683 6.494 6.494 0 0 0-1.536.768l-1.28 1.024a8.534 8.534 0 0 0-2.475 6.059 8.529 8.529 0 0 0 .683 3.413 9.8 9.8 0 0 0 1.792 2.816l1.28 1.024c.476.323.992.581 1.536.768l1.536.512H51.2l1.621-.171a5.277 5.277 0 0 0 1.621-.512 4.773 4.773 0 0 0 1.451-.768l1.365-1.024a9.8 9.8 0 0 0 1.792-2.816 8.55 8.55 0 0 0 .683-3.243 8.963 8.963 0 0 0-2.474-6.229zM187.733 460.8H76.8c-4.713 0-8.533 3.82-8.533 8.533s3.82 8.533 8.533 8.533h110.933c4.713 0 8.533-3.82 8.533-8.533s-3.82-8.533-8.533-8.533z"/></svg>