<svg xmlns="http://www.w3.org/2000/svg" viewBox="0 0 512 512"><path d="M488.099 367.393h-6.727v-97.364a7.34 7.34 0 1 0-14.682 0V440.715c0 12.107-9.85 21.956-21.956 21.956-12.107 0-21.955-9.849-21.955-21.956V71.284c0-12.107 9.849-21.956 21.955-21.956 12.107 0 21.956 9.849 21.956 21.956v163.753a7.34 7.34 0 1 0 14.682 0v-90.431h6.727c13.179 0 23.901-10.722 23.901-23.901s-10.723-23.901-23.901-23.901h-6.727v-25.52c0-20.202-16.435-36.637-36.638-36.637-11.964 0-22.606 5.766-29.296 14.664-6.691-8.898-17.332-14.664-29.296-14.664s-22.606 5.766-29.296 14.664c-6.691-8.898-17.332-14.664-29.296-14.664-11.965 0-22.607 5.766-29.297 14.664-6.69-8.898-17.332-14.664-29.296-14.664s-22.606 5.766-29.296 14.664c-6.691-8.898-17.332-14.664-29.296-14.664s-22.606 5.766-29.296 14.664c-6.691-8.898-17.333-14.664-29.297-14.664-20.201 0-36.637 16.436-36.637 36.637v25.521h-14.979V52.478c0-9.833-7.999-17.832-17.832-17.832h-64.49C7.999 34.646 0 42.646 0 52.478v331.128a7.34 7.34 0 1 0 14.682 0V52.478a3.154 3.154 0 0 1 3.15-3.15h64.49a3.153 3.153 0 0 1 3.15 3.15V459.519a3.154 3.154 0 0 1-3.15 3.15h-64.49a3.153 3.153 0 0 1-3.15-3.15v-40.964A7.34 7.34 0 1 0 0 418.558v40.964c0 9.833 7.999 17.832 17.832 17.832h64.49c9.833 0 17.832-7.999 17.832-17.832v-44.327h14.979v25.521c0 20.202 16.436 36.637 36.637 36.637 11.965 0 22.607-5.766 29.297-14.664 6.69 8.898 17.332 14.664 29.296 14.664 11.964 0 22.606-5.766 29.296-14.664 6.691 8.898 17.332 14.664 29.296 14.664s22.606-5.766 29.296-14.664c6.691 8.898 17.333 14.664 29.297 14.664s22.606-5.766 29.296-14.664c6.691 8.898 17.332 14.664 29.296 14.664s22.606-5.766 29.296-14.664c6.691 8.898 17.332 14.664 29.296 14.664 20.202 0 36.638-16.436 36.638-36.637v-25.521h6.727c13.179 0 23.901-10.722 23.901-23.901s-10.721-23.901-23.899-23.901zm-6.728-255.906h6.727c5.084 0 9.22 4.136 9.22 9.219 0 5.084-4.136 9.219-9.22 9.219h-6.727v-18.438zM115.133 400.513h-14.979v-18.439h14.979v18.439zm0-33.12h-14.979V144.607h14.979v222.786zm0-237.467h-14.979v-18.439h14.979v18.439zm58.593 310.79c0 12.107-9.85 21.956-21.956 21.956-12.107 0-21.955-9.849-21.955-21.956V71.284c0-12.107 9.849-21.956 21.955-21.956 12.107 0 21.956 9.849 21.956 21.956v369.432zm58.592 0c0 12.107-9.849 21.956-21.955 21.956-12.107 0-21.955-9.849-21.955-21.956V71.284c0-12.107 9.849-21.956 21.955-21.956 12.107 0 21.955 9.849 21.955 21.956v369.432zm36.638 21.956c-12.106 0-21.956-9.849-21.956-21.956V71.284c0-12.107 9.849-21.956 21.955-21.956 12.106 0 21.955 9.849 21.955 21.956v369.432h.001c0 12.107-9.849 21.956-21.955 21.956zm80.548-21.956c0 12.107-9.849 21.956-21.955 21.956-12.106 0-21.956-9.849-21.956-21.956V71.284c0-12.107 9.85-21.956 21.956-21.956s21.955 9.849 21.955 21.956v369.432zm58.592 0c0 12.107-9.849 21.956-21.955 21.956-12.107 0-21.955-9.849-21.955-21.956V71.284c0-12.107 9.849-21.956 21.955-21.956 12.107 0 21.955 9.849 21.955 21.956v369.432zm80.003-40.203h-6.727v-18.439h6.727c5.084 0 9.22 4.136 9.22 9.219s-4.136 9.22-9.22 9.22z"/><path d="M66.507 68.1h-32.86c-6.378 0-11.566 5.189-11.566 11.567v32.859c0 6.378 5.188 11.567 11.566 11.567h32.86c6.378 0 11.566-5.189 11.566-11.567V79.667c0-6.378-5.188-11.567-11.566-11.567zm-3.116 41.311H36.762v-26.63h26.629v26.63z"/></svg>