<svg xmlns="http://www.w3.org/2000/svg" viewBox="0 0 512 512"><path d="M453.364 0H58.636C26.304 0 0 26.304 0 58.636v175.828a7.287 7.287 0 1 0 14.574 0V58.636c0-24.296 19.767-44.062 44.063-44.062h394.728c24.296 0 44.063 19.766 44.063 44.062v394.729c0 24.296-19.767 44.062-44.063 44.062H58.636c-24.296 0-44.063-19.766-44.063-44.062V269.521a7.286 7.286 0 0 0-7.287-7.286A7.285 7.285 0 0 0 0 269.521v183.844C0 485.696 26.304 512 58.636 512h394.728C485.696 512 512 485.696 512 453.364V58.636C512 26.304 485.696 0 453.364 0z"/><path d="M446.994 37.412H65.006c-15.216 0-27.595 12.379-27.595 27.594v381.989c0 15.216 12.379 27.594 27.595 27.594h381.988c15.216 0 27.595-12.379 27.595-27.594V65.006c0-15.216-12.379-27.594-27.595-27.594zm13.022 409.583c0 7.18-5.842 13.021-13.022 13.021H65.006c-7.181 0-13.022-5.842-13.022-13.022V65.006c0-7.18 5.842-13.021 13.022-13.021h381.988c7.18 0 13.022 5.842 13.022 13.021v381.989z"/><path d="M256 67.684C152.162 67.684 67.683 152.162 67.683 256S152.161 444.316 256 444.316c103.838 0 188.317-84.478 188.317-188.316S359.838 67.684 256 67.684zm0 362.059c-95.802 0-173.743-77.941-173.743-173.743S160.198 82.257 256 82.257 429.744 160.198 429.744 256 351.802 429.743 256 429.743z"/><path d="M255.934 233.014c-12.504 0-22.676 10.172-22.676 22.676 0 12.504 10.172 22.676 22.676 22.676s22.676-10.172 22.676-22.676c0-12.504-10.172-22.676-22.676-22.676zm0 30.779c-4.468 0-8.103-3.635-8.103-8.103s3.634-8.103 8.103-8.103c4.468 0 8.103 3.635 8.103 8.103s-3.635 8.103-8.103 8.103z"/><path d="M391.801 287.488c-12.331-32.841-58.184-40.859-88.256-42.485a48.406 48.406 0 0 0-3.08-9.245c9.248-7.877 18.238-16.71 26.239-25.811a7.285 7.285 0 0 0-.662-10.283 7.285 7.285 0 0 0-10.283.662 244.059 244.059 0 0 1-23.236 23.053 48.325 48.325 0 0 0-26.762-15.498l-.025-.005a49.422 49.422 0 0 0-2.317-.415c-.174-.027-.35-.045-.525-.07a49.628 49.628 0 0 0-1.897-.242c-.384-.04-.772-.062-1.158-.092-.446-.035-.89-.079-1.339-.102a49.613 49.613 0 0 0-2.566-.068c-.904 0-1.801.029-2.693.078-.35.019-.697.053-1.046.08-.528.04-1.055.081-1.578.138-.449.048-.895.11-1.342.171-.403.055-.805.111-1.204.176a49.267 49.267 0 0 0-2.439.462 46.24 46.24 0 0 0-1.732.401c-.168.043-.333.09-.5.135a48.064 48.064 0 0 0-8.578 3.169l-.036.017c-.275.133-.555.251-.828.389-10.944-20.76-26.823-58.744-10.259-79.954 13.618-17.438 45.896-22.663 71.843-20.107 23.7 2.335 43.161 10.927 48.426 21.38 4.492 8.918 1.524 23.113-8.358 39.97a7.287 7.287 0 0 0 12.572 7.37c12.649-21.577 15.693-40.214 8.801-53.895-7.77-15.427-30.205-26.391-60.013-29.328-27.726-2.73-66.564 2.344-84.758 25.64-21.598 27.657-4.507 70.983 9.789 97.486a49.235 49.235 0 0 0-5.085 5.747c-25.276-9.496-52.72-15.095-74.485-15.095-23.608 0-39.812 6.217-48.163 18.479-9.724 14.277-8.432 39.214 3.456 66.707 11.058 25.575 34.331 57.076 63.527 61.688 2.306.361 4.663.546 7.006.546h.001c31.788 0 58.64-33.223 73.477-56.354a48.446 48.446 0 0 0 7.981 1.703c6.826 42.732 28.314 102.117 63.44 105.004.824.068 1.673.102 2.52.102h.009c21.373 0 43.61-21.1 57.292-40.846 15.421-22.256 28.464-55.185 18.824-80.858zm-223.543 56.675c-1.584 0-3.177-.124-4.733-.371-21.854-3.451-42.077-29.144-52.426-53.076-9.452-21.86-11.376-43.046-4.787-52.721 6.816-10.008 23.404-12.109 36.119-12.109 19.588 0 44.346 4.98 67.514 13.472-.058.164-.108.331-.164.496a48.267 48.267 0 0 0-1.471 5.204c-.027.119-.057.237-.082.356a46.693 46.693 0 0 0-.294 1.508c-.045.244-.09.487-.131.732a49.563 49.563 0 0 0-.328 2.327c-.046.394-.091.788-.128 1.185-.04.432-.07.865-.099 1.299-.02.31-.046.619-.06.931a48.677 48.677 0 0 0-.058 2.294c0 .953.035 1.898.089 2.837.014.234.036.466.053.7a47.178 47.178 0 0 0 .674 5.293l.044.248a48.545 48.545 0 0 0 7.917 18.795l.079.112a48.649 48.649 0 0 0 1.539 2.07l.309.394c.488.609.99 1.207 1.506 1.792.111.126.218.256.33.381.596.662 1.209 1.31 1.84 1.939.21.21.431.409.646.616.416.4.835.797 1.265 1.182.313.281.634.554.955.828.352.299.708.593 1.068.882.349.28.698.558 1.055.829.375.284.758.557 1.141.831.282.202.554.416.841.612-11.923 18.21-35.312 48.132-60.223 48.132zm87.775-54.246c-.034 0-.067.003-.1.003a34.028 34.028 0 0 1-14.405-3.189 33.826 33.826 0 0 1-1.951-.979c-.107-.058-.21-.123-.316-.182a33.911 33.911 0 0 1-1.551-.925c-.196-.124-.392-.248-.586-.376a34.412 34.412 0 0 1-1.672-1.168c-.125-.094-.244-.194-.368-.289-.454-.35-.898-.71-1.332-1.081-.167-.143-.334-.286-.499-.432a34.062 34.062 0 0 1-1.543-1.446l-.061-.064a34.004 34.004 0 0 1-1.473-1.59l-.231-.267a34.342 34.342 0 0 1-7.885-17.323 34.327 34.327 0 0 1-.238-2.159c-.013-.167-.027-.335-.038-.503a33.905 33.905 0 0 1-.083-2.26c.001-.676.026-1.355.066-2.032.01-.172.026-.342.039-.514a33.627 33.627 0 0 1 .214-2.055c.083-.611.18-1.22.296-1.826l.028-.158a34.302 34.302 0 0 1 1.059-4.054c.038-.115.078-.229.117-.344.18-.531.374-1.057.58-1.578.056-.142.11-.286.169-.427.247-.602.509-1.199.79-1.787.03-.063.062-.124.093-.187a34.474 34.474 0 0 1 12.142-13.726c.291-.19.58-.382.877-.563a34.86 34.86 0 0 1 2.633-1.444 34.88 34.88 0 0 1 1.108-.52 34.328 34.328 0 0 1 2.675-1.075c.344-.121.688-.241 1.037-.351a34.459 34.459 0 0 1 1.872-.535c.288-.073.581-.136.872-.202a34.253 34.253 0 0 1 1.623-.326c.218-.038.434-.083.653-.117a34.267 34.267 0 0 1 2.868-.315 34.76 34.76 0 0 1 2.421-.095c.675 0 1.345.026 2.012.064.238.014.474.035.711.054a34.488 34.488 0 0 1 2.141.234c.322.045.641.1.961.154.355.061.712.118 1.063.19l.028.006c8.28 1.705 15.476 6.412 20.401 12.927l.167.22c.268.361.528.728.783 1.1.123.18.241.363.361.546a33.992 33.992 0 0 1 5.463 15.712c.046.532.08 1.037.104 1.526.022.497.038.996.038 1.498 0 .588-.015 1.173-.045 1.754-.916 18.004-15.849 32.415-34.074 32.475l-.014.001zm104.963 70.128c-14.33 20.681-32.538 34.575-45.313 34.573h-.005c-.452 0-.899-.018-1.33-.053-22.441-1.845-42.661-47.193-49.931-90.814.188-.033.373-.076.56-.111.412-.078.823-.156 1.231-.244.288-.062.573-.132.859-.199.444-.104.889-.206 1.328-.322.053-.014.104-.031.157-.045a48.795 48.795 0 0 0 3.531-1.095c.069-.024.14-.046.209-.071a48.814 48.814 0 0 0 1.548-.589c.146-.058.292-.114.437-.173a46.875 46.875 0 0 0 1.899-.824 47.947 47.947 0 0 0 1.551-.742l.184-.094a49.069 49.069 0 0 0 17.735-15.236l.013-.018a48.764 48.764 0 0 0 4.795-8.342c.058-.129.118-.256.174-.385a47.012 47.012 0 0 0 .836-2.031c.173-.448.342-.898.502-1.353.085-.242.165-.486.247-.729.146-.436.292-.871.426-1.312.085-.28.16-.563.24-.845.182-.641.352-1.286.508-1.937.107-.446.216-.891.31-1.342.067-.321.123-.646.184-.97.08-.426.16-.852.23-1.282.051-.32.096-.642.141-.964a49.091 49.091 0 0 0 .267-2.273c.017-.187.042-.371.057-.558 23.421 1.488 64.119 7.747 73.58 32.944 6.312 16.811-.423 43.281-17.16 67.436zM418.246 56.997c-17.054 0-30.927 13.874-30.927 30.927 0 17.053 13.874 30.928 30.927 30.928 17.054 0 30.927-13.874 30.927-30.927S435.3 56.997 418.246 56.997zm0 47.281c-9.018 0-16.354-7.336-16.354-16.354s7.336-16.354 16.354-16.354S434.6 78.906 434.6 87.924s-7.336 16.354-16.354 16.354z"/></svg>