<svg xmlns="http://www.w3.org/2000/svg" viewBox="0 0 512.001 512.001"><path d="M281.585 363.219a25.883 25.883 0 0 1-7.219-17.983V56.358C274.366 25.282 249.084 0 218.008 0s-56.359 25.282-56.359 56.358v9.282a7.287 7.287 0 1 0 14.574 0v-9.282c0-23.04 18.745-41.785 41.786-41.785 23.04 0 41.785 18.745 41.785 41.785v288.878c0 10.505 3.999 20.47 11.261 28.058 13.132 13.722 20.364 31.735 20.364 50.723 0 2.701-.148 5.419-.438 8.079a7.287 7.287 0 0 0 14.486 1.586 89.07 89.07 0 0 0 .526-9.665c0-22.76-8.669-44.351-24.408-60.798z"/><path d="M290.91 459.42a7.286 7.286 0 0 0-10.004 2.473c-13.595 22.523-38.343 36.149-64.671 35.513-40.033-.941-72.168-34.313-71.632-74.392.25-18.579 7.462-36.218 20.31-49.669 7.292-7.635 11.308-17.618 11.308-28.11V100.252a7.287 7.287 0 1 0-14.574 0v244.984c0 6.725-2.583 13.133-7.274 18.044-15.399 16.122-24.045 37.267-24.343 59.54-.642 48.033 37.875 88.029 85.862 89.157.688.016 1.372.024 2.058.024 30.736-.001 59.497-16.178 75.431-42.576a7.286 7.286 0 0 0-2.471-10.005z"/><path d="M264.734 379.342c-8.828-9.223-13.69-21.335-13.69-34.107V118.548c.001-18.217-14.82-33.037-33.036-33.037s-33.037 14.82-33.037 33.037v226.687c0 12.752-4.877 24.881-13.731 34.152-11.316 11.846-17.669 27.381-17.888 43.743-.472 35.305 27.829 64.702 63.09 65.531.523.012 1.045.018 1.565.018h.032c17.262-.008 33.487-6.733 45.691-18.939 12.214-12.212 18.939-28.45 18.939-45.723 0-16.722-6.369-32.588-17.935-44.675zm-11.308 80.094c-9.747 9.749-22.802 14.97-36.642 14.657-27.307-.642-49.227-23.416-48.861-50.766.17-12.668 5.09-24.698 13.855-33.873 11.456-11.995 17.766-27.698 17.766-44.218V118.548c0-10.181 8.283-18.464 18.464-18.464s18.464 8.283 18.464 18.464v226.688c0 16.544 6.299 32.236 17.734 44.183 8.957 9.361 13.891 21.648 13.891 34.599 0 13.38-5.21 25.958-14.671 35.418zM364.265 31.495H309.13c-9.767 0-17.713 7.946-17.713 17.713 0 9.767 7.947 17.713 17.713 17.713h55.135c9.767 0 17.713-7.946 17.713-17.713 0-9.767-7.946-17.713-17.713-17.713zm0 20.852H309.13c-1.732 0-3.139-1.408-3.139-3.139s1.408-3.139 3.139-3.139h55.135c1.732 0 3.139 1.408 3.139 3.139s-1.408 3.139-3.139 3.139zM364.265 156.047H309.13c-9.767 0-17.713 7.946-17.713 17.713 0 9.767 7.946 17.713 17.713 17.713h55.135c9.767 0 17.713-7.946 17.713-17.713 0-9.767-7.946-17.713-17.713-17.713zm0 20.852H309.13a3.142 3.142 0 0 1-3.139-3.139 3.142 3.142 0 0 1 3.139-3.139h55.135a3.142 3.142 0 0 1 3.139 3.139 3.141 3.141 0 0 1-3.139 3.139zM364.265 280.598H309.13c-9.767 0-17.713 7.946-17.713 17.713 0 9.767 7.946 17.712 17.713 17.712h55.135c9.767 0 17.713-7.946 17.713-17.713 0-9.767-7.946-17.712-17.713-17.712zm0 20.852H309.13a3.142 3.142 0 0 1-3.139-3.139 3.142 3.142 0 0 1 3.139-3.139h55.135c1.732 0 3.139 1.408 3.139 3.139s-1.407 3.139-3.139 3.139zM341.316 93.771H309.13c-9.767 0-17.713 7.946-17.713 17.713 0 9.767 7.947 17.713 17.713 17.713h32.186c9.767 0 17.713-7.946 17.713-17.713 0-9.767-7.946-17.713-17.713-17.713zm0 20.852H309.13c-1.732 0-3.139-1.408-3.139-3.139s1.408-3.139 3.139-3.139h32.186c1.731 0 3.139 1.408 3.139 3.139s-1.408 3.139-3.139 3.139zM341.316 218.321H309.13c-9.767 0-17.713 7.946-17.713 17.713 0 9.767 7.947 17.713 17.713 17.713h32.186c9.767 0 17.713-7.946 17.713-17.713 0-9.767-7.946-17.713-17.713-17.713zm0 20.852H309.13a3.142 3.142 0 0 1-3.139-3.139 3.143 3.143 0 0 1 3.139-3.139h32.186c1.731 0 3.139 1.408 3.139 3.139s-1.408 3.139-3.139 3.139z"/></svg>