<svg xmlns="http://www.w3.org/2000/svg" viewBox="0 0 478.103 478.103"><path d="M271.513 4.723c-61.031-17.975-125.079 16.928-143.054 77.959a115.195 115.195 0 0 0 0 65.094l-.341.341a115.542 115.542 0 0 0 78.763 78.08 117.255 117.255 0 0 0 16.043 3.328 115.466 115.466 0 0 0 47.531-3.328l3.328-1.109c2.048-.683 4.181-1.28 6.229-2.048a115.792 115.792 0 0 0 48.384-35.072 133.206 133.206 0 0 0 5.973-8.021 114.233 114.233 0 0 0 12.288-23.637 87.995 87.995 0 0 0 2.816-8.533c17.975-61.031-16.929-125.078-77.96-143.054zm53.128 117.198h-11.349l9.643 14.507a8.534 8.534 0 1 1-14.165 9.472l-15.957-23.893h-33.536l28.501 29.269a8.539 8.539 0 1 1-12.203 11.947l-27.989-28.928v35.755l21.845 14.933a8.533 8.533 0 1 1-9.642 14.08l-12.288-8.533v10.24c0 4.713-3.82 8.533-8.533 8.533s-8.533-3.82-8.533-8.533V190.7l-12.288 8.533a8.534 8.534 0 0 1-9.643-14.08l22.016-15.104v-35.755l-27.989 28.757a8.539 8.539 0 1 1-12.203-11.947l28.501-29.269h-33.536l-15.957 23.893a8.533 8.533 0 1 1-14.165-9.472l9.643-14.507h-11.093c-4.713 0-8.533-3.82-8.533-8.533s3.82-8.533 8.533-8.533v.085h8.533l-6.827-10.24a8.534 8.534 0 1 1 14.165-9.472l13.141 19.627h36.352l-28.501-29.269a8.539 8.539 0 1 1 12.203-11.947L230.52 92.31V56.556l-21.845-14.933a8.533 8.533 0 1 1 9.557-14.08l12.288 8.533v-10.24c0-4.713 3.82-8.533 8.533-8.533s8.533 3.82 8.533 8.533v10.069l12.288-8.533c3.856-2.71 9.178-1.782 11.888 2.074a8.533 8.533 0 0 1-2.246 12.006l-21.931 15.104v35.755l27.989-28.757a8.539 8.539 0 1 1 12.203 11.947l-28.501 29.269h36.352l13.141-19.627a8.534 8.534 0 0 1 14.165 9.472l-6.827 10.24h8.533c4.713 0 8.533 3.82 8.533 8.533s-3.82 8.533-8.532 8.533z"/><path d="M443.851 384.236a8.533 8.533 0 0 0-8.533 8.533v17.067a8.533 8.533 0 0 1-8.533 8.533h-25.6V179.436a25.092 25.092 0 0 0-7.509-18.005 25.598 25.598 0 0 0-28.757-5.205c-.427 1.365-.939 2.645-1.451 3.925l-1.195 3.243c-.939 2.389-1.963 4.693-2.987 6.997l-.768 1.707a268.941 268.941 0 0 1-4.352 8.533l-1.451 2.389c-.939 1.536-1.792 3.072-2.731 4.523v60.16c0 4.713-3.82 8.533-8.533 8.533s-8.533-3.82-8.533-8.533V208.62l-1.451 1.365a108.701 108.701 0 0 1-8.533 7.509l-3.243 2.645a135.243 135.243 0 0 1-8.533 6.059l-2.901 1.963a132.704 132.704 0 0 1-11.947 6.571l-2.389 1.024a166.659 166.659 0 0 1-10.411 4.267l-1.877.768v41.045a8.533 8.533 0 0 1-17.066 0v-36.608h-1.792a94.151 94.151 0 0 1-8.96 1.28h-3.157c-3.84 0-7.765.597-11.691.597s-7.68 0-11.605-.597h-2.731a130.614 130.614 0 0 1-9.472-1.365h-1.792v36.693c0 4.713-3.82 8.533-8.533 8.533s-8.533-3.82-8.533-8.533V240.62l-1.877-.768a133.315 133.315 0 0 1-10.24-4.181l-2.56-1.109a132.592 132.592 0 0 1-11.947-6.571l-2.987-1.963a143.459 143.459 0 0 1-8.533-5.973l-3.328-2.645a198.336 198.336 0 0 1-8.533-7.424l-1.109-1.365v39.083a8.533 8.533 0 0 1-17.066 0v-60.245c-.939-1.451-1.792-2.987-2.731-4.523l-1.451-2.389a114.074 114.074 0 0 1-4.352-8.533l-.768-1.792c-1.024-2.304-2.048-4.608-2.987-6.997l-1.109-2.987-1.536-4.096a24.06 24.06 0 0 0-10.667-2.304c-14.138 0-25.6 11.461-25.6 25.6v238.933H34.251c-4.713 0-8.533 3.82-8.533 8.533s3.82 8.533 8.533 8.533h42.667v17.067c0 14.138 11.461 25.6 25.6 25.6s25.6-11.461 25.6-25.6V281.836a8.533 8.533 0 0 1 17.066 0v170.667c0 14.138 11.461 25.6 25.6 25.6s25.6-11.461 25.6-25.6V315.969a8.533 8.533 0 0 1 17.066 0v136.533c0 14.138 11.461 25.6 25.6 25.6s25.6-11.461 25.6-25.6V315.969a8.533 8.533 0 0 1 17.066 0v136.533c0 14.138 11.462 25.6 25.6 25.6 14.138 0 25.6-11.461 25.6-25.6V281.836c0-4.713 3.82-8.533 8.533-8.533s8.533 3.82 8.533 8.533v170.667c0 14.138 11.462 25.6 25.6 25.6 14.138 0 25.6-11.461 25.6-25.6v-17.067h25.6c14.138 0 25.6-11.461 25.6-25.6v-17.067a8.529 8.529 0 0 0-8.531-8.533z"/></svg>