<svg xmlns="http://www.w3.org/2000/svg" viewBox="0 0 478.103 478.103"><path d="M243.574 170.903h-9.045a4.011 4.011 0 0 0-4.011 4.011v9.045a4.011 4.011 0 0 0 4.011 4.011h9.045a4.011 4.011 0 0 0 4.011-4.011v-9.045a4.01 4.01 0 0 0-4.011-4.011zM222.155 42.903l6.144 76.8h21.59l4.864-60.416 1.28-16.64z"/><path d="M271.513 4.723c-61.031-17.975-125.079 16.928-143.054 77.959a115.195 115.195 0 0 0 0 65.094l-.341.341a115.542 115.542 0 0 0 78.763 78.08 117.286 117.286 0 0 0 16.043 3.328 115.466 115.466 0 0 0 47.531-3.328l3.328-1.109c2.048-.683 4.181-1.28 6.229-2.048a115.792 115.792 0 0 0 48.384-35.072 133.206 133.206 0 0 0 5.973-8.021 114.233 114.233 0 0 0 12.288-23.637 87.995 87.995 0 0 0 2.816-8.533c17.975-61.031-16.929-125.078-77.96-143.054zm-6.862 179.236c0 11.641-9.437 21.077-21.077 21.077h-9.045c-11.641 0-21.077-9.437-21.077-21.077v-9.045c0-11.641 9.437-21.077 21.077-21.077h9.045c11.641 0 21.077 9.437 21.077 21.077v9.045zm8.534-141.056l-6.4 79.957c-.962 8.044-7.857 14.054-15.957 13.909h-23.552c-8.247.124-15.2-6.122-15.957-14.336l-6.4-79.531a15.016 15.016 0 0 1 4.011-11.861 16.383 16.383 0 0 1 12.032-5.205h36.181a16.383 16.383 0 0 1 12.032 5.205 15.024 15.024 0 0 1 4.01 11.862z"/><path d="M443.851 384.236a8.533 8.533 0 0 0-8.533 8.533v17.067a8.533 8.533 0 0 1-8.533 8.533h-25.6V179.436a25.092 25.092 0 0 0-7.509-18.005 25.598 25.598 0 0 0-28.757-5.205c-.427 1.365-.939 2.645-1.451 3.925l-1.195 3.243c-.939 2.389-1.963 4.693-2.987 6.997l-.768 1.707a268.941 268.941 0 0 1-4.352 8.533l-1.451 2.389c-.939 1.536-1.792 3.072-2.731 4.523v60.16c0 4.713-3.82 8.533-8.533 8.533s-8.533-3.82-8.533-8.533V208.62l-1.451 1.365a108.701 108.701 0 0 1-8.533 7.509l-3.243 2.645a135.243 135.243 0 0 1-8.533 6.059l-2.901 1.963a132.704 132.704 0 0 1-11.947 6.571l-2.389 1.024a166.659 166.659 0 0 1-10.411 4.267l-1.877.768v41.045a8.533 8.533 0 0 1-17.066 0v-36.608h-1.792a94.151 94.151 0 0 1-8.96 1.28h-3.157c-3.84 0-7.765.597-11.691.597s-7.68 0-11.605-.597h-2.731a130.614 130.614 0 0 1-9.472-1.365h-1.792v36.693c0 4.713-3.82 8.533-8.533 8.533s-8.533-3.82-8.533-8.533V240.62l-1.877-.768a133.315 133.315 0 0 1-10.24-4.181l-2.56-1.109a132.592 132.592 0 0 1-11.947-6.571l-2.987-1.963a143.459 143.459 0 0 1-8.533-5.973l-3.328-2.645a198.336 198.336 0 0 1-8.533-7.424l-1.109-1.365v39.083a8.533 8.533 0 0 1-17.066 0v-60.245c-.939-1.451-1.792-2.987-2.731-4.523l-1.451-2.389a114.074 114.074 0 0 1-4.352-8.533l-.768-1.792c-1.024-2.304-2.048-4.608-2.987-6.997l-1.109-2.987-1.536-4.096a24.06 24.06 0 0 0-10.667-2.304c-14.138 0-25.6 11.461-25.6 25.6v238.933H34.251c-4.713 0-8.533 3.82-8.533 8.533s3.82 8.533 8.533 8.533h42.667v17.067c0 14.138 11.461 25.6 25.6 25.6s25.6-11.461 25.6-25.6V281.836a8.533 8.533 0 0 1 17.066 0v170.667c0 14.138 11.461 25.6 25.6 25.6s25.6-11.461 25.6-25.6V315.969a8.533 8.533 0 0 1 17.066 0v136.533c0 14.138 11.461 25.6 25.6 25.6s25.6-11.461 25.6-25.6V315.969a8.533 8.533 0 0 1 17.066 0v136.533c0 14.138 11.462 25.6 25.6 25.6 14.138 0 25.6-11.461 25.6-25.6V281.836c0-4.713 3.82-8.533 8.533-8.533s8.533 3.82 8.533 8.533v170.667c0 14.138 11.462 25.6 25.6 25.6 14.138 0 25.6-11.461 25.6-25.6v-17.067h25.6c14.138 0 25.6-11.461 25.6-25.6v-17.067a8.529 8.529 0 0 0-8.531-8.533z"/></svg>