<svg xmlns="http://www.w3.org/2000/svg" viewBox="0 0 511.99 511.99"><path d="M324.262 257.28V68.267C324.262 30.564 293.698 0 255.995 0s-68.267 30.564-68.267 68.267V257.28c-42.227 24.38-68.247 69.427-68.267 118.187a131.571 131.571 0 0 0 2.56 26.112 13.07 13.07 0 0 0 0 1.792c15.432 73.809 87.776 121.134 161.585 105.702 57.406-12.002 100.734-59.324 107.641-117.563a140.97 140.97 0 0 0 1.28-16.043c-.018-48.759-26.039-93.807-68.265-118.187zM307.195 128v17.067h-42.667c-4.713 0-8.533-3.82-8.533-8.533s3.82-8.533 8.533-8.533h42.667zm-42.667 85.333a8.533 8.533 0 0 1 0-17.066h42.667v17.067h-42.667zm42.667 17.067v17.067h-42.667c-4.713 0-8.533-3.82-8.533-8.533s3.82-8.533 8.533-8.533h42.667zm-42.667-51.2c-4.713 0-8.533-3.82-8.533-8.533s3.82-8.533 8.533-8.533h42.667V179.2h-42.667zm-8.533-145.067c4.713 0 8.533 3.82 8.533 8.533s-3.82 8.533-8.533 8.533c-9.426 0-17.067 7.641-17.067 17.067 0 4.713-3.82 8.533-8.533 8.533s-8.533-3.82-8.533-8.533c0-18.851 15.282-34.133 34.133-34.133zm-102.4 341.163c.073-37.91 21.085-72.677 54.613-90.368a8.533 8.533 0 0 1 11.604 3.314 8.533 8.533 0 0 1-3.668 11.79 85.333 85.333 0 0 0-45.483 75.435v2.816a8.532 8.532 0 0 1-8.107 8.533h-.427a8.532 8.532 0 0 1-8.533-8.107l.001-3.413zm219.819 22.443c-29.063-29.52-76.554-29.89-106.074-.827a74.881 74.881 0 0 0-4.859 5.264 90.198 90.198 0 0 1-70.485 33.024 92.41 92.41 0 0 1-45.397-11.691 118.666 118.666 0 0 1-8.533-28.075c28.884 29.629 76.319 30.233 105.948 1.349a74.923 74.923 0 0 0 4.985-5.359c31.548-37.738 87.112-44.186 126.464-14.677a121.804 121.804 0 0 1-2.049 20.992z"/></svg>