<svg xmlns="http://www.w3.org/2000/svg" viewBox="0 0 512.159 512.159"><path d="M445.624 274.602a127.996 127.996 0 0 0-78.422-27.135 126.632 126.632 0 0 0-101.376 50.091 134.392 134.392 0 0 0-43.691-40.277V68.267C222.135 30.564 191.571 0 153.869 0c-37.703 0-68.267 30.564-68.267 68.267V257.28c-42.304 24.302-68.353 69.399-68.267 118.187v4.693c0 2.816 0 5.547.597 8.533h-.597a8.535 8.535 0 0 0 .939 3.84c9.346 74.824 77.578 127.905 152.402 118.559a136.53 136.53 0 0 0 95.064-57.375 124.239 124.239 0 0 0 22.272 22.613c55.706 43.523 136.147 33.647 179.67-22.059 43.524-55.705 33.648-136.146-22.058-179.669zM205.069 128v17.067h-42.667c-4.713 0-8.533-3.82-8.533-8.533s3.82-8.533 8.533-8.533h42.667zm-42.667 85.333a8.533 8.533 0 0 1 0-17.066h42.667v17.067h-42.667zm42.667 17.067v17.067h-42.667c-4.713 0-8.533-3.82-8.533-8.533s3.82-8.533 8.533-8.533h42.667zm-42.667-51.2c-4.713 0-8.533-3.82-8.533-8.533s3.82-8.533 8.533-8.533h42.667V179.2h-42.667zm-8.533-145.067a8.533 8.533 0 0 1 0 17.066c-9.426 0-17.067 7.641-17.067 17.067 0 4.713-3.82 8.533-8.533 8.533s-8.533-3.82-8.533-8.533c-.001-18.851 15.281-34.133 34.133-34.133zm-102.4 341.163c.073-37.91 21.085-72.677 54.613-90.368a8.533 8.533 0 0 1 11.52 3.584 8.533 8.533 0 0 1-3.584 11.52 85.335 85.335 0 0 0-45.483 75.435v2.816a8.532 8.532 0 0 1-8.533 8.96 8.533 8.533 0 0 1-8.533-8.533v-3.414zm189.44-20.821a130.77 130.77 0 0 0-1.707 15.531 74.329 74.329 0 0 0-21.333-3.072 72.875 72.875 0 0 0-57.344 26.709 90.027 90.027 0 0 1-70.656 33.024 92.162 92.162 0 0 1-49.579-14.251 118.96 118.96 0 0 1-5.888-26.624A73.9 73.9 0 0 0 89.869 409.6a72.875 72.875 0 0 0 57.344-26.709 90.027 90.027 0 0 1 70.656-33.024 92.46 92.46 0 0 1 23.381 2.901c-.155.56-.269 1.13-.341 1.707zM452.535 384h-26.283a59.737 59.737 0 0 1-11.264 27.136l18.603 18.603a8.533 8.533 0 0 1 .049 12.068l-.049.049a8.534 8.534 0 0 1-6.059 2.475 8.533 8.533 0 0 1-6.059-2.475l-18.517-18.603a59.734 59.734 0 0 1-27.221 11.264V460.8c0 4.713-3.82 8.533-8.533 8.533s-8.533-3.82-8.533-8.533v-26.283a59.734 59.734 0 0 1-27.221-11.264l-18.517 18.603a8.534 8.534 0 0 1-6.059 2.475 8.533 8.533 0 0 1-6.108-14.543l.049-.049 18.773-18.688c-1.109-1.536-2.389-2.901-3.328-4.437a59.718 59.718 0 0 1-8.533-22.613h-25.856c-4.713 0-8.533-3.82-8.533-8.533s3.82-8.533 8.533-8.533h26.283a3.206 3.206 0 0 1 0-.853 60.589 60.589 0 0 1 7.851-22.016c.939-1.536 2.048-2.901 3.072-4.267l-18.603-18.603a8.568 8.568 0 0 1 12.117-12.117l18.517 18.517a57.855 57.855 0 0 1 27.563-11.179v-26.283c0-4.713 3.82-8.533 8.533-8.533s8.533 3.82 8.533 8.533v26.283a59.737 59.737 0 0 1 27.136 11.264l18.603-18.603a8.568 8.568 0 0 1 12.117 12.117l-18.603 18.603a59.737 59.737 0 0 1 11.264 27.136h26.283c4.713 0 8.533 3.82 8.533 8.533s-3.82 8.533-8.533 8.533z"/><path d="M367.202 332.8a42.667 42.667 0 0 0-36.267 20.224 42.666 42.666 0 0 0-5.888 15.957 37.774 37.774 0 0 0-.512 6.485 42.669 42.669 0 0 0 16.299 33.451c18.526 14.563 45.349 11.35 59.912-7.175a42.667 42.667 0 0 0 9.123-26.275c0-23.564-19.103-42.667-42.667-42.667z"/></svg>