<svg xmlns="http://www.w3.org/2000/svg" viewBox="0 0 512.159 512.159"><path d="M445.624 274.602a127.996 127.996 0 0 0-78.422-27.135 126.632 126.632 0 0 0-101.376 50.091 134.392 134.392 0 0 0-43.691-40.277V68.267C222.135 30.564 191.571 0 153.869 0c-37.703 0-68.267 30.564-68.267 68.267V257.28c-42.304 24.302-68.353 69.399-68.267 118.187v4.693c0 2.816 0 5.547.597 8.533h-.597a8.535 8.535 0 0 0 .939 3.84c9.346 74.824 77.578 127.905 152.402 118.559a136.53 136.53 0 0 0 95.064-57.375 124.239 124.239 0 0 0 22.272 22.613c55.706 43.523 136.147 33.647 179.67-22.059 43.524-55.705 33.648-136.146-22.058-179.669zM205.069 128v17.067h-42.667c-4.713 0-8.533-3.82-8.533-8.533s3.82-8.533 8.533-8.533h42.667zm-42.667 85.333a8.533 8.533 0 0 1 0-17.066h42.667v17.067h-42.667zm42.667 17.067v17.067h-42.667c-4.713 0-8.533-3.82-8.533-8.533s3.82-8.533 8.533-8.533h42.667zm-42.667-51.2c-4.713 0-8.533-3.82-8.533-8.533s3.82-8.533 8.533-8.533h42.667V179.2h-42.667zm-8.533-145.067a8.533 8.533 0 0 1 0 17.066c-9.426 0-17.067 7.641-17.067 17.067 0 4.713-3.82 8.533-8.533 8.533s-8.533-3.82-8.533-8.533c-.001-18.851 15.281-34.133 34.133-34.133zm-102.4 341.163c.073-37.91 21.085-72.677 54.613-90.368a8.533 8.533 0 0 1 11.52 3.584 8.533 8.533 0 0 1-3.584 11.52 85.335 85.335 0 0 0-45.483 75.435v2.816a8.532 8.532 0 0 1-8.533 8.96 8.533 8.533 0 0 1-8.533-8.533v-3.414zm189.44-20.821a130.77 130.77 0 0 0-1.707 15.531 74.329 74.329 0 0 0-21.333-3.072 72.875 72.875 0 0 0-57.344 26.709 90.027 90.027 0 0 1-70.656 33.024 92.162 92.162 0 0 1-49.579-14.251 118.96 118.96 0 0 1-5.888-26.624A73.9 73.9 0 0 0 89.869 409.6a72.875 72.875 0 0 0 57.344-26.709 90.027 90.027 0 0 1 70.656-33.024 92.46 92.46 0 0 1 23.381 2.901c-.155.56-.269 1.13-.341 1.707zM452.535 384h-9.643l8.533 12.373a8.533 8.533 0 0 1-2.389 11.776 8.023 8.023 0 0 1-5.035 1.451 8.534 8.534 0 0 1-7.083-3.84L422.327 384h-34.56l28.16 28.075a8.533 8.533 0 0 1 .049 12.068l-.049.049a8.533 8.533 0 0 1-12.068.049l-.049-.049-28.075-28.16v34.133l21.76 14.592a8.533 8.533 0 0 1-4.693 16.043 8.017 8.017 0 0 1-4.693-1.451l-12.373-8.533v9.984c0 4.713-3.82 8.533-8.533 8.533s-8.533-3.82-8.533-8.533v-9.643l-12.373 8.533a8.02 8.02 0 0 1-4.693 1.109 8.532 8.532 0 0 1-4.693-15.616l21.76-14.592v-34.133l-28.075 28.16a8.533 8.533 0 0 1-12.068.049l-.049-.049a8.533 8.533 0 0 1-.049-12.068l.049-.049L346.637 384h-34.56l-14.592 21.76a8.534 8.534 0 0 1-7.083 3.84 8.017 8.017 0 0 1-4.693-1.451 8.532 8.532 0 0 1-2.389-11.776L291.853 384h-9.984c-4.713 0-8.533-3.82-8.533-8.533s3.82-8.533 8.533-8.533h9.643l-8.533-12.373a8.534 8.534 0 1 1 14.165-9.388l14.933 21.76h34.56l-28.16-28.075a8.568 8.568 0 0 1 12.117-12.117l28.075 28.16v-34.133l-21.76-14.592a8.533 8.533 0 0 1-3.486-11.553 8.533 8.533 0 0 1 12.872-2.612l12.373 8.533v-10.411c0-4.713 3.82-8.533 8.533-8.533s8.533 3.82 8.533 8.533v9.643l12.373-8.533a8.534 8.534 0 1 1 9.388 14.165l-21.76 14.933v34.133l28.075-28.16a8.568 8.568 0 0 1 12.117 12.117l-28.16 28.501h34.56l14.592-21.76a8.533 8.533 0 0 1 14.166 9.387l-8.533 12.373h9.984a8.535 8.535 0 0 1-.001 17.068z"/></svg>