<svg xmlns="http://www.w3.org/2000/svg" viewBox="0 0 512 512"><path d="M469.333 0H42.667C19.103 0 0 19.103 0 42.667v426.667C0 492.898 19.103 512 42.667 512h426.667C492.898 512 512 492.898 512 469.333V42.667C512 19.103 492.898 0 469.333 0zm-8.544 245.493c.007.146.011.292.011.437v8.533a8.533 8.533 0 0 1-17.066 0v-8.533a8.533 8.533 0 0 1 17.055-.437zm-7.157-43.68l.256.256c.768 2.816 1.451 5.717 2.133 8.533a8.534 8.534 0 0 1-6.412 10.224l-.073.016h-1.877a8.533 8.533 0 0 1-8.533-6.656c-.597-2.645-1.28-5.291-1.963-7.851a8.54 8.54 0 1 1 16.469-4.522zm-27.904-44.629h.256a8.533 8.533 0 0 1 11.52 3.584c1.365 2.56 2.731 5.205 4.011 7.936a8.533 8.533 0 0 1-4.096 11.349 7.925 7.925 0 0 1-3.669.853 8.535 8.535 0 0 1-7.68-4.949c-1.195-2.389-2.389-4.864-3.669-7.253a8.532 8.532 0 0 1 3.327-11.52zm-25.352-34.212l.008-.007v.085a8.534 8.534 0 0 1 12.031.938l.001.001c1.963 2.304 3.84 4.608 5.632 6.997a8.533 8.533 0 0 1-1.536 11.947 8.534 8.534 0 0 1-11.979-1.467l-.054-.069c-1.621-2.219-3.328-4.267-5.12-6.4a8.534 8.534 0 0 1 1.017-12.025zM368.245 94.96l.054-.069v.085a8.534 8.534 0 0 1 11.947-1.621c2.389 1.792 4.693 3.669 6.997 5.632a8.539 8.539 0 0 1-11.008 13.056 78.874 78.874 0 0 0-6.4-5.12 8.534 8.534 0 0 1-1.59-11.963zm-37.37-20.449l.047-.1v.085a8.533 8.533 0 0 1 11.314-4.197l.035.016 8.021 4.011a8.534 8.534 0 0 1-4.01 16.042 8.527 8.527 0 0 1-3.925-.939 116.211 116.211 0 0 0-7.339-3.584 8.534 8.534 0 0 1-4.143-11.334zm-40.916-11.384a8.51 8.51 0 0 1 .175-.663 8.533 8.533 0 0 1 10.155-6.485l8.533 2.133a8.605 8.605 0 1 1-2.219 17.067c-.738.076-1.481.076-2.219 0-2.56-.683-5.205-1.365-7.936-1.877a8.533 8.533 0 0 1-6.489-10.175zM59.051 472.576a9.8 9.8 0 0 1-1.792 2.816l-1.365 1.024a4.761 4.761 0 0 1-1.451.768 5.112 5.112 0 0 1-1.621.512l-1.621.171h-1.707a5.375 5.375 0 0 1-1.536-.512 6.494 6.494 0 0 1-1.536-.768l-1.28-1.024a9.8 9.8 0 0 1-1.792-2.816 8.536 8.536 0 0 1-.683-3.413 8.533 8.533 0 0 1 2.475-6.059l1.28-1.024 1.536-.768a5.483 5.483 0 0 1 1.536-.683 7.335 7.335 0 0 1 3.328 0 5.112 5.112 0 0 1 1.621.512c.524.17 1.015.43 1.451.768l1.365 1.024a8.96 8.96 0 0 1 2.475 6.229 8.55 8.55 0 0 1-.683 3.243zm.682-208.043A8.533 8.533 0 0 1 51.2 256c0-113.108 91.692-204.8 204.8-204.8h8.533a8.533 8.533 0 0 1 0 17.066H256C152.318 68.267 68.267 152.318 68.267 256a8.533 8.533 0 0 1-8.534 8.533zm128 213.334H76.8c-4.713 0-8.533-3.82-8.533-8.533s3.82-8.533 8.533-8.533h110.933c4.713 0 8.533 3.82 8.533 8.533s-3.82 8.533-8.533 8.533zM407.04 281.856v.853c-.033.198-.033.4 0 .597a151.541 151.541 0 0 1-17.749 48.725c.036.255.036.513 0 .768a4.858 4.858 0 0 1-1.024 1.28 152.83 152.83 0 0 1-32.768 38.912 2.046 2.046 0 0 1-.512.683h-.512a153.618 153.618 0 0 1-44.971 25.6h-.683a2.137 2.137 0 0 1-1.024 0 150.018 150.018 0 0 1-103.083 0 2.137 2.137 0 0 1-1.024 0h-.683a153.618 153.618 0 0 1-44.971-25.6h-.512a2.046 2.046 0 0 1-.512-.683 152.83 152.83 0 0 1-32.768-38.912 4.858 4.858 0 0 1-1.024-1.28 2.744 2.744 0 0 1 0-.768 151.538 151.538 0 0 1-18.261-48.725c.033-.198.033-.4 0-.597v-.853a141.04 141.04 0 0 1 0-51.712v-1.45a152.322 152.322 0 0 1 17.749-48.725 2.744 2.744 0 0 1 0-.768s.512-.512.683-.768a153.59 153.59 0 0 1 33.109-39.424c.121-.261.295-.494.512-.683h.512a152.15 152.15 0 0 1 44.971-25.6l.683-.427h.939a150.532 150.532 0 0 1 103.253 0h.939l.683.427a152.15 152.15 0 0 1 44.971 25.6h.512c.217.189.391.422.512.683a153.57 153.57 0 0 1 33.109 39.424s.512 0 .683.768c.036.255.036.513 0 .768a152.305 152.305 0 0 1 18.261 48.725v1.45a141.04 141.04 0 0 1 0 51.712zm36.693 196.011c-18.851 0-34.133-15.282-34.133-34.133 0-18.851 15.282-34.133 34.133-34.133 18.851 0 34.133 15.282 34.133 34.133.001 18.851-15.281 34.133-34.133 34.133z"/><circle cx="256" cy="256" r="51.2"/><path d="M391.595 240.469l-8.021 1.707h-1.536a8.568 8.568 0 0 1-8.306-4.543 8.524 8.524 0 0 1-.983-4.141 8.571 8.571 0 0 1 6.133-8.063 8.665 8.665 0 0 1 1.705-.32l8.021-1.365a137.062 137.062 0 0 0-10.496-28.672l-6.997 4.096a8.523 8.523 0 0 1-3.225 1.077 8.568 8.568 0 0 1-9.484-9.932 8.59 8.59 0 0 1 2.161-4.392 8.546 8.546 0 0 1 2.016-1.603l7.083-4.096a138.118 138.118 0 0 0-19.797-22.955l-5.205 6.144a8.535 8.535 0 0 1-6.571 3.072 8.527 8.527 0 0 1-5.461-1.963 8.534 8.534 0 0 1-1.031-12.024l.007-.008 5.12-6.229a141.222 141.222 0 0 0-26.283-15.36l-2.816 7.765a8.534 8.534 0 0 1-8.021 5.632 7.081 7.081 0 0 1-2.901-.597 8.534 8.534 0 0 1-5.12-10.923l2.816-7.68a140.043 140.043 0 0 0-29.867-5.632V128c0 4.713-3.82 8.533-8.533 8.533s-8.533-3.82-8.533-8.533v-8.533a140.04 140.04 0 0 0-30.037 5.205l2.816 7.68a8.534 8.534 0 0 1-5.12 10.923 7.081 7.081 0 0 1-2.901.597 8.532 8.532 0 0 1-8.021-5.632l-2.816-7.765a141.222 141.222 0 0 0-26.283 15.36l5.12 6.229a8.532 8.532 0 0 1-1.024 12.458 8.534 8.534 0 0 1-5.461 1.963 8.536 8.536 0 0 1-6.571-3.072l-5.035-6.144a137.998 137.998 0 0 0-19.627 23.211l7.083 4.096a8.563 8.563 0 0 1 3.157 11.691 8.562 8.562 0 0 1-11.691 3.157l-6.997-4.096A137.062 137.062 0 0 0 123.566 224l8.021 1.365a8.564 8.564 0 1 1-1.451 17.067H128.6l-8.021-1.451a124.802 124.802 0 0 0 0 30.549l8.021-1.451a8.663 8.663 0 1 1 2.987 17.067l-8.021 1.365a137.062 137.062 0 0 0 10.496 28.672l6.997-4.096a8.564 8.564 0 0 1 8.534 14.848l-7.083 4.096a138.043 138.043 0 0 0 19.627 22.699l5.205-6.144a8.533 8.533 0 0 1 11.861-1.109 8.533 8.533 0 0 1 1.031 12.024l-.007.008-5.12 6.229a141.222 141.222 0 0 0 26.283 15.36l2.816-7.765a8.544 8.544 0 0 1 10.965-5.077 8.544 8.544 0 0 1 5.077 10.965l-2.816 7.68a140.008 140.008 0 0 0 30.037 5.632V384c0-4.713 3.82-8.533 8.533-8.533s8.533 3.82 8.533 8.533v8.533a140.04 140.04 0 0 0 30.037-5.205l-2.816-7.68a8.544 8.544 0 0 1 5.077-10.965 8.544 8.544 0 0 1 10.965 5.077l2.816 7.765a141.222 141.222 0 0 0 26.283-15.36l-5.12-6.229a8.532 8.532 0 0 1 1.024-12.458 8.532 8.532 0 0 1 12.018 1.093l.014.016 5.205 6.144a137.998 137.998 0 0 0 19.627-23.211l-7.083-4.096a8.562 8.562 0 0 1-3.157-11.691 8.563 8.563 0 0 1 11.691-3.157l6.997 4.096A137.062 137.062 0 0 0 388.609 288l-8.021-1.365a8.663 8.663 0 1 1 2.987-17.067v.256l8.021 1.451a124.81 124.81 0 0 0 .937-15.403 125.007 125.007 0 0 0-.938-15.403zm-68.39 24.532c-4.488 33.75-33.159 59.034-67.205 59.266-37.702-.257-68.057-31.029-67.799-68.731.232-34.046 25.516-62.717 59.266-67.205v-26.197c0-4.713 3.82-8.533 8.533-8.533s8.533 3.82 8.533 8.533v26.197c37.374 4.97 63.642 39.296 58.672 76.67z"/><circle cx="443.733" cy="443.733" r="17.067"/></svg>