<svg xmlns="http://www.w3.org/2000/svg" viewBox="0 0 512 512"><path d="M260.267 0h-8.533c-92.272 3.634-165.471 79.011-166.4 171.349a170.664 170.664 0 0 0 42.24 111.275c3.243 3.755 5.803 6.315 9.984 10.837s8.107 8.619 11.776 13.056a213.373 213.373 0 0 1 18.432 25.6 161.317 161.317 0 0 1 16.043 34.133 90.628 90.628 0 0 1 3.925 26.795c.277 9.225 7.837 16.559 17.067 16.555h102.4c9.229.004 16.79-7.33 17.067-16.555a90.656 90.656 0 0 1 3.925-26.709 161.025 161.025 0 0 1 16.043-34.133 212.094 212.094 0 0 1 18.432-25.6c3.243-4.523 8.363-9.472 11.776-13.056 3.413-3.584 6.741-7.083 9.984-10.837a170.667 170.667 0 0 0 42.24-111.36C425.737 79.011 352.538 3.634 260.267 0zm111.616 271.616c-3.072 3.584-5.461 5.888-9.472 10.325-4.011 4.437-8.533 8.96-12.544 13.909a228.179 228.179 0 0 0-20.309 27.819 177.251 177.251 0 0 0-17.664 37.461 106.142 106.142 0 0 0-4.693 31.403H204.8a107.327 107.327 0 0 0-4.779-31.488 177.471 177.471 0 0 0-17.664-37.461 229.626 229.626 0 0 0-19.883-27.819c-4.011-4.864-9.387-10.496-12.544-13.909s-6.4-6.741-9.472-10.325a153.602 153.602 0 0 1-38.059-100.181C103.405 86.826 171.482 18.446 256 17.067c84.518 1.38 152.595 69.759 153.6 154.283a153.605 153.605 0 0 1-37.717 100.266z"/><path d="M204.8 392.533v34.133c0 9.426 7.641 17.067 17.067 17.067h68.267c9.426 0 17.067-7.641 17.067-17.067v-34.133H204.8zm85.333 34.134h-68.267V409.6h68.267v17.067z"/><path d="M221.867 426.667V460.8c0 9.426 7.641 17.067 17.067 17.067h34.133c9.426 0 17.067-7.641 17.067-17.067v-34.133h-68.267zm51.2 34.133h-34.133v-17.067h34.133V460.8z"/><path d="M230.4 460.8v34.133c0 9.426 7.641 17.067 17.067 17.067h17.067c9.426 0 17.067-7.641 17.067-17.067V460.8H230.4zm34.133 34.133h-17.067v-17.067h17.067v17.067zM243.285 332.203c-.256-.085-21.419-13.483-21.419-30.549V281.6a8.533 8.533 0 0 0-17.066 0v19.712c0 21.504 17.067 36.693 25.6 42.667v48.555a8.533 8.533 0 0 0 17.066 0v-52.992a8.53 8.53 0 0 0-4.181-7.339zM298.667 273.067a8.533 8.533 0 0 0-8.533 8.533v19.883c0 17.579-21.419 30.635-21.419 30.635a8.532 8.532 0 0 0-4.181 7.339v53.077a8.533 8.533 0 0 0 17.066 0V344.32c8.533-6.229 25.6-21.333 25.6-42.667V281.6a8.533 8.533 0 0 0-8.533-8.533zM286.123 73.472a16.212 16.212 0 0 0-11.947-5.205h-36.267a16.213 16.213 0 0 0-12.032 5.547 15.19 15.19 0 0 0-4.011 11.52l6.4 79.616c.837 8.16 7.755 14.338 15.957 14.251h23.552c8.086.105 14.958-5.885 15.957-13.909l6.4-79.957a15.185 15.185 0 0 0-4.009-11.863zm-19.2 88.661h-21.675l-6.315-76.8h34.133l-6.143 76.8zM260.437 196.267h-8.96c-11.621.047-21.031 9.456-21.077 21.077v9.045c.047 11.621 9.456 21.031 21.077 21.077h9.045c11.654-.047 21.077-9.508 21.077-21.163v-8.96c-.046-11.653-9.507-21.076-21.162-21.076zm4.096 30.037a4.097 4.097 0 0 1-4.011 4.011h-8.96a4.097 4.097 0 0 1-4.011-4.011v-8.96a4.097 4.097 0 0 1 4.011-4.011h8.96a4.097 4.097 0 0 1 4.011 4.011v8.96z"/></svg>