<svg xmlns="http://www.w3.org/2000/svg" viewBox="0 0 512 512"><path d="M260.267 0h-8.533c-92.272 3.634-165.471 79.011-166.4 171.349a170.664 170.664 0 0 0 42.24 111.275c3.243 3.755 5.803 6.485 9.984 10.923s8.107 8.533 11.776 12.971a211.717 211.717 0 0 1 18.432 25.6 160.976 160.976 0 0 1 16.043 34.133 90.759 90.759 0 0 1 3.925 26.795c.277 9.225 7.837 16.559 17.067 16.555h102.4c9.229.004 16.79-7.33 17.067-16.555a90.675 90.675 0 0 1 3.499-26.539 161.268 161.268 0 0 1 16.043-34.133 212.094 212.094 0 0 1 18.432-25.6c3.669-4.523 8.448-9.472 11.776-13.056s6.741-7.168 9.984-10.923a170.673 170.673 0 0 0 42.667-111.445C425.737 79.011 352.538 3.634 260.267 0zm111.616 271.616c-3.072 3.499-5.461 5.888-9.472 10.325-4.011 4.437-8.533 8.96-12.544 13.909a228.836 228.836 0 0 0-20.309 27.819 177.35 177.35 0 0 0-17.664 37.461 105.608 105.608 0 0 0-4.693 31.403H204.8a107.045 107.045 0 0 0-4.693-31.488 176.985 176.985 0 0 0-17.664-37.461 229.25 229.25 0 0 0-19.883-27.819c-4.011-4.949-9.301-10.581-12.544-13.909s-6.485-6.741-9.557-10.325A153.602 153.602 0 0 1 102.4 171.35C103.405 86.826 171.482 18.446 256 17.067c84.518 1.38 152.595 69.759 153.6 154.283a153.605 153.605 0 0 1-37.717 100.266z"/><path d="M204.8 392.533v34.133c0 9.426 7.641 17.067 17.067 17.067h68.267c9.426 0 17.067-7.641 17.067-17.067v-34.133H204.8zm85.333 34.134h-68.267V409.6h68.267v17.067z"/><path d="M221.867 426.667V460.8c0 9.426 7.641 17.067 17.067 17.067h34.133c9.426 0 17.067-7.641 17.067-17.067v-34.133h-68.267zm51.2 34.133h-34.133v-17.067h34.133V460.8z"/><path d="M230.4 460.8v34.133c0 9.426 7.641 17.067 17.067 17.067h17.067c9.426 0 17.067-7.641 17.067-17.067V460.8H230.4zm34.133 34.133h-17.067v-17.067h17.067v17.067zM243.285 332.203c-.256-.085-21.419-13.483-21.419-30.549V281.6a8.533 8.533 0 0 0-17.066 0v19.712c0 21.504 17.067 36.693 25.6 42.667v48.555a8.533 8.533 0 0 0 17.066 0v-52.992a8.53 8.53 0 0 0-4.181-7.339zM298.667 273.067a8.533 8.533 0 0 0-8.533 8.533v19.883c0 17.579-21.419 30.635-21.419 30.635a8.532 8.532 0 0 0-4.181 7.339v53.077a8.533 8.533 0 0 0 17.066 0V344.32c8.533-6.229 25.6-21.333 25.6-42.667V281.6a8.533 8.533 0 0 0-8.533-8.533zM310.016 128a59.733 59.733 0 0 0-28.514-28.514C251.67 85.402 216.068 98.168 201.984 128a58.436 58.436 0 0 0-5.717 25.6 59.737 59.737 0 0 0 18.517 43.179 46.135 46.135 0 0 0 4.352 3.755 61.473 61.473 0 0 0 5.12 3.584l2.304 1.28a57.423 57.423 0 0 0 29.44 7.936 57.433 57.433 0 0 0 29.355-7.765l2.816-1.621c1.707-1.024 3.243-2.219 5.035-3.584a45.112 45.112 0 0 0 4.608-4.096c18.212-17.824 23.112-45.239 12.202-68.268zm-24.235 55.979a31.214 31.214 0 0 1-3.072 2.731l-3.413 2.475-2.475 1.451a41.982 41.982 0 0 1-41.728 0l-1.963-1.109-3.499-2.475a31.678 31.678 0 0 1-2.901-2.475 42.667 42.667 0 0 1-13.397-30.976 41.548 41.548 0 0 1 4.011-18.091A43.093 43.093 0 0 1 256 110.934a42.667 42.667 0 0 1 38.571 24.491 41.812 41.812 0 0 1 4.096 18.176 42.666 42.666 0 0 1-12.886 30.378z"/><path d="M256 128a8.533 8.533 0 0 0-8.533 8.533v34.133c0 4.713 3.82 8.533 8.533 8.533s8.533-3.82 8.533-8.533v-34.133A8.533 8.533 0 0 0 256 128z"/></svg>