<svg xmlns="http://www.w3.org/2000/svg" viewBox="0 0 512 512"><path d="M260.267 0h-8.533c-92.272 3.634-165.471 79.011-166.4 171.349a170.664 170.664 0 0 0 42.24 111.275c3.243 3.755 5.803 6.315 9.984 10.837s8.107 8.619 11.776 13.056a212.77 212.77 0 0 1 18.432 25.6 161.025 161.025 0 0 1 16.043 34.133 90.628 90.628 0 0 1 3.925 26.795c.277 9.225 7.837 16.559 17.067 16.555h102.4c9.229.004 16.79-7.33 17.067-16.555a90.524 90.524 0 0 1 3.925-26.709 160.856 160.856 0 0 1 16.043-34.133 212.094 212.094 0 0 1 18.432-25.6c3.243-4.523 8.363-9.472 11.776-13.056 3.413-3.584 6.741-7.083 9.984-10.837a170.667 170.667 0 0 0 42.24-111.36C425.737 79.011 352.538 3.634 260.267 0zm111.616 271.616c-3.072 3.584-5.461 5.888-9.472 10.325-4.011 4.437-8.533 8.96-12.544 13.909a228.758 228.758 0 0 0-20.309 27.819 177.495 177.495 0 0 0-17.664 37.461 106.142 106.142 0 0 0-4.693 31.403H204.8a107.427 107.427 0 0 0-4.779-31.488 177.715 177.715 0 0 0-17.664-37.461 229.626 229.626 0 0 0-19.883-27.819c-4.011-4.864-9.301-10.496-12.544-13.909s-6.4-6.827-9.472-10.325a153.602 153.602 0 0 1-38.059-100.181C103.45 86.845 171.501 18.491 256 17.067c84.499 1.424 152.55 69.778 153.6 154.283a153.605 153.605 0 0 1-37.717 100.266z"/><path d="M204.8 392.533v34.133c0 9.426 7.641 17.067 17.067 17.067h68.267c9.426 0 17.067-7.641 17.067-17.067v-34.133H204.8zm85.333 34.134h-68.267V409.6h68.267v17.067z"/><path d="M221.867 426.667V460.8c0 9.426 7.641 17.067 17.067 17.067h34.133c9.426 0 17.067-7.641 17.067-17.067v-34.133h-68.267zm51.2 34.133h-34.133v-17.067h34.133V460.8z"/><path d="M230.4 460.8v34.133c0 9.426 7.641 17.067 17.067 17.067h17.067c9.426 0 17.067-7.641 17.067-17.067V460.8H230.4zm34.133 34.133h-17.067v-17.067h17.067v17.067zM243.285 332.288c-.171-.171-21.419-13.141-21.419-30.635V281.6a8.533 8.533 0 0 0-17.066 0v19.712c0 21.504 17.067 36.693 25.6 42.667v48.555a8.533 8.533 0 0 0 17.066 0v-52.907a8.532 8.532 0 0 0-4.181-7.339zM298.667 273.067a8.533 8.533 0 0 0-8.533 8.533v19.883c0 17.579-21.419 30.635-21.419 30.635a8.532 8.532 0 0 0-4.181 7.339v53.077a8.533 8.533 0 0 0 17.066 0V344.32c8.533-6.229 25.6-21.333 25.6-42.667V281.6a8.533 8.533 0 0 0-8.533-8.533zM310.016 128a59.728 59.728 0 0 0-24.235-26.027 8.534 8.534 0 1 0-8.534 14.763 42.668 42.668 0 0 1 17.067 18.688c7.781 16.379 4.358 35.887-8.533 48.64a31.842 31.842 0 0 1-3.072 2.731l-3.413 2.475-2.475 1.365a41.982 41.982 0 0 1-41.728 0l-1.963-1.109c-1.365-.853-2.389-1.621-3.499-2.475a29.24 29.24 0 0 1-2.901-2.475 42.667 42.667 0 0 1-13.397-30.976 41.626 41.626 0 0 1 4.267-18.261 42.663 42.663 0 0 1 17.067-18.773 8.532 8.532 0 0 0 3.246-12.139 8.532 8.532 0 0 0-11.779-2.623 59.734 59.734 0 0 0-24.149 26.197 58.523 58.523 0 0 0-5.717 25.6 59.222 59.222 0 0 0 18.517 43.008 44.952 44.952 0 0 0 4.352 3.84 60.977 60.977 0 0 0 5.12 3.669l2.304 1.28a57.423 57.423 0 0 0 29.44 7.936 57.34 57.34 0 0 0 29.44-7.851l2.731-1.621c1.621-1.024 3.243-2.219 5.035-3.584a44.942 44.942 0 0 0 4.608-4.011c18.211-17.823 23.111-45.238 12.201-68.267z"/><path d="M256 85.333a8.533 8.533 0 0 0-8.533 8.533V128c0 4.713 3.82 8.533 8.533 8.533s8.533-3.82 8.533-8.533V93.867A8.533 8.533 0 0 0 256 85.333z"/></svg>