<svg xmlns="http://www.w3.org/2000/svg" viewBox="0 0 366.94 366.94"><path d="M336.855 147.883L288.641 11.35A17.067 17.067 0 0 0 272.513 0H94.508a17.07 17.07 0 0 0-16.214 11.35L30.081 147.883a17.055 17.055 0 0 0-.986 5.765c.026 9.426 7.688 17.045 17.114 17.019h274.603a17.075 17.075 0 0 0 5.68-.986c8.88-3.158 13.52-12.917 10.363-21.798zm-290.646 5.718L94.508 17.067h178.005L320.812 153.6H46.209zM131.884 246.87a8.554 8.554 0 0 0-9.131-7.936h-2.645a8.533 8.533 0 0 0-9.13 8.533 8.533 8.533 0 0 0 8.533 8.533h4.437a8.553 8.553 0 0 0 7.936-9.13zM238.977 238.934h-3.243a8.554 8.554 0 1 0-1.195 17.067h4.437a8.533 8.533 0 0 0 8.533-8.533 8.531 8.531 0 0 0-8.532-8.534z"/><path d="M236.502 238.934h-.768c-29.781-2.048-30.891-30.891-30.891-34.133a8.533 8.533 0 0 0-8.533-8.533h-34.133a8.533 8.533 0 0 0-8.533 8.533c0 1.28 0 32.085-30.805 34.133h-.768c-35.346.471-63.618 29.507-63.147 64.853.471 35.346 29.507 63.618 64.853 63.147H234.71c35.346.495 64.401-27.758 64.896-63.104.495-35.346-27.757-64.401-63.104-64.896zm-2.218 110.933H123.35c-25.921 0-46.933-21.013-46.933-46.933 0-25.921 21.013-46.933 46.933-46.933h1.792c23.292-1.503 42.163-19.475 44.8-42.667h17.749c2.637 23.192 21.508 41.164 44.8 42.667h1.792c25.921 0 46.933 21.013 46.933 46.933.001 25.92-21.012 46.933-46.932 46.933z"/><path d="M221.91 153.601h-85.333a8.533 8.533 0 0 0-8.533 8.533v25.6c0 14.138 11.462 25.6 25.6 25.6h51.2c14.138 0 25.6-11.462 25.6-25.6v-25.6a8.533 8.533 0 0 0-8.534-8.533zm-8.533 34.133a8.533 8.533 0 0 1-8.533 8.533h-51.2a8.533 8.533 0 0 1-8.533-8.533v-17.067h68.267v17.067zM123.521 273.067c-16.414.094-29.658 13.452-29.611 29.867a8.533 8.533 0 0 0 17.066 0 13.055 13.055 0 0 1 4.011-9.131 12.8 12.8 0 0 1 8.533-3.669c4.713 0 8.533-3.82 8.533-8.533s-3.819-8.534-8.532-8.534zM91.436 121.771l-1.28-1.024a6.494 6.494 0 0 0-1.536-.768 5.375 5.375 0 0 0-1.536-.512 8.528 8.528 0 0 0-4.949.683 9.8 9.8 0 0 0-2.816 1.792 8.536 8.536 0 0 0-2.475 6.059 8.513 8.513 0 0 0 .683 3.243 8.539 8.539 0 0 0 1.792 2.816 9.914 9.914 0 0 0 2.816 1.792 8.55 8.55 0 0 0 3.243.683h1.707l1.536-.683a6.494 6.494 0 0 0 1.536-.768l1.28-1.024a9.914 9.914 0 0 0 1.792-2.816 8.55 8.55 0 0 0 .683-3.243 8.966 8.966 0 0 0-2.476-6.23zM213.377 119.467H119.51a8.533 8.533 0 0 0 0 17.066h93.867a8.533 8.533 0 0 0 0-17.066z"/></svg>