<svg xmlns="http://www.w3.org/2000/svg" viewBox="0 0 477.45 477.45"><path d="M396.421 258.393L348.207 121.86a17.066 17.066 0 0 0-16.128-11.349H154.074a17.067 17.067 0 0 0-16.213 11.349L89.647 258.393a17.055 17.055 0 0 0-.986 5.765c.026 9.426 7.688 17.045 17.114 17.019h274.603a17.075 17.075 0 0 0 5.68-.986c8.88-3.157 13.52-12.917 10.363-21.798zm-290.646 5.718l48.299-136.533h178.005l48.299 136.533H105.775zM191.45 357.38a8.554 8.554 0 0 0-9.131-7.936h-2.645a8.533 8.533 0 0 0-9.13 8.533 8.533 8.533 0 0 0 8.533 8.533h4.437a8.553 8.553 0 0 0 7.936-9.13zM298.543 349.444H295.3a8.554 8.554 0 1 0-1.195 17.067h4.437a8.533 8.533 0 0 0 8.533-8.533 8.531 8.531 0 0 0-8.532-8.534z"/><path d="M296.069 349.444h-.768c-29.781-2.048-30.891-30.891-30.891-34.133a8.533 8.533 0 0 0-8.533-8.533h-34.133a8.533 8.533 0 0 0-8.533 8.533c0 1.28 0 32.085-30.805 34.133h-.768c-35.346.471-63.618 29.507-63.147 64.853.471 35.346 29.507 63.618 64.853 63.147h110.933c35.346.495 64.401-27.758 64.896-63.104.494-35.346-27.758-64.401-63.104-64.896zm-2.219 110.933H182.917c-25.921 0-46.933-21.013-46.933-46.933 0-25.921 21.013-46.933 46.933-46.933h1.792c23.292-1.503 42.163-19.475 44.8-42.667h17.749c2.637 23.192 21.508 41.164 44.8 42.667h1.792c25.921 0 46.933 21.013 46.933 46.933 0 25.921-21.012 46.933-46.933 46.933z"/><path d="M281.477 264.111h-85.333a8.533 8.533 0 0 0-8.533 8.533v25.6c0 14.138 11.462 25.6 25.6 25.6h51.2c14.138 0 25.6-11.462 25.6-25.6v-25.6a8.535 8.535 0 0 0-8.534-8.533zm-8.534 34.133a8.533 8.533 0 0 1-8.533 8.533h-51.2a8.533 8.533 0 0 1-8.533-8.533v-17.067h68.267v17.067zM202.117 70.404L133.85 2.137a8.533 8.533 0 0 0-12.032 12.032l68.267 68.267a8.536 8.536 0 0 0 6.059 2.475 8.533 8.533 0 0 0 5.973-14.507zM364.25 2.983a8.533 8.533 0 0 0-12.032-.931l-68.267 68.267a8.534 8.534 0 0 0 6.059 14.592 8.53 8.53 0 0 0 5.973-2.56l68.267-68.267a8.533 8.533 0 0 0 0-11.101zM150.917 301.65a8.533 8.533 0 0 0-12.032-.931l-68.267 68.267a8.534 8.534 0 0 0 6.059 14.592 8.53 8.53 0 0 0 5.973-2.56l68.267-68.267a8.535 8.535 0 0 0 0-11.101zM406.917 369.071l-68.267-68.267a8.533 8.533 0 0 0-12.032 12.032l68.267 68.267a8.534 8.534 0 0 0 6.059 2.475 8.533 8.533 0 0 0 5.973-14.507zM238.81 8.111a8.533 8.533 0 0 0-8.533 8.533v59.733c0 4.713 3.82 8.533 8.533 8.533s8.533-3.82 8.533-8.533V16.644a8.533 8.533 0 0 0-8.533-8.533zM183.087 383.577c-16.414.094-29.658 13.452-29.611 29.867a8.533 8.533 0 0 0 17.066 0 12.972 12.972 0 0 1 4.011-9.131 12.712 12.712 0 0 1 8.533-3.669c4.713 0 8.533-3.82 8.533-8.533s-3.819-8.534-8.532-8.534zM151.002 232.281a8.532 8.532 0 0 0-7.765-2.304 5.374 5.374 0 0 0-1.536.683 6.494 6.494 0 0 0-1.536.768l-1.28 1.024a9.8 9.8 0 0 0-1.792 2.816 8.55 8.55 0 0 0-.683 3.243 8.534 8.534 0 0 0 2.475 6.229l1.28 1.024c.476.323.992.581 1.536.768l1.536.512h1.707a8.535 8.535 0 0 0 6.058-14.763zM272.943 229.977h-93.867a8.533 8.533 0 0 0 0 17.066h93.867a8.533 8.533 0 0 0 0-17.066z"/></svg>