<svg xmlns="http://www.w3.org/2000/svg" viewBox="0 0 426.743 426.743"><path d="M213.337 29.905a8.533 8.533 0 0 0-8.533 8.533v102.4c0 4.713 3.82 8.533 8.533 8.533s8.533-3.82 8.533-8.533v-102.4a8.533 8.533 0 0 0-8.533-8.533zM418.819 311.505L246.275 187.174a19.536 19.536 0 0 0-11.435-3.669h-43.093a19.546 19.546 0 0 0-11.435 3.669L7.854 311.505a18.433 18.433 0 0 0-6.912 20.907 18.944 18.944 0 0 0 18.432 13.227h387.925a18.943 18.943 0 0 0 18.517-13.227 18.43 18.43 0 0 0-6.997-20.907zm-9.386 15.701a2.047 2.047 0 0 1-2.133 1.365H19.289a2.047 2.047 0 0 1-2.133-1.365 1.45 1.45 0 0 1 .683-1.792l172.459-124.416c.43-.285.935-.434 1.451-.427h43.179a2.562 2.562 0 0 1 1.451.427L408.75 325.414a1.45 1.45 0 0 1 .683 1.792z"/><path d="M238.937 328.571h-51.2a8.533 8.533 0 0 0-8.533 8.533v25.6c0 18.851 15.282 34.133 34.133 34.133 18.851 0 34.133-15.282 34.133-34.133v-25.6a8.533 8.533 0 0 0-8.533-8.533zm-8.534 34.134c0 9.426-7.641 17.067-17.067 17.067s-17.067-7.641-17.067-17.067v-17.067h34.133v17.067zM213.337 132.305c-18.851 0-34.133 15.282-34.133 34.133v25.6a8.533 8.533 0 0 0 8.533 8.533h51.2a8.533 8.533 0 0 0 8.533-8.533v-25.6c0-18.851-15.282-34.133-34.133-34.133zm17.066 51.2H196.27v-17.067c0-9.426 7.641-17.067 17.067-17.067s17.067 7.641 17.067 17.067v17.067zM230.403 217.638H196.27c-4.713 0-8.533 3.82-8.533 8.533s3.82 8.533 8.533 8.533h34.133c4.713 0 8.533-3.82 8.533-8.533s-3.82-8.533-8.533-8.533z"/></svg>