<svg xmlns="http://www.w3.org/2000/svg" viewBox="0 0 460.8 460.8"><path d="M230.365 0a8.533 8.533 0 0 0-8.533 8.533v102.4c0 4.713 3.82 8.533 8.533 8.533s8.533-3.82 8.533-8.533V8.533A8.532 8.532 0 0 0 230.365 0zM435.848 281.6L263.304 157.269a19.536 19.536 0 0 0-11.435-3.669h-43.093a19.546 19.546 0 0 0-11.435 3.669L24.883 281.6a18.433 18.433 0 0 0-6.912 20.907 18.944 18.944 0 0 0 18.432 13.227h387.925a18.943 18.943 0 0 0 18.517-13.227 18.43 18.43 0 0 0-6.997-20.907zm-9.387 15.701a2.047 2.047 0 0 1-2.133 1.365H36.317a2.047 2.047 0 0 1-2.133-1.365 1.45 1.45 0 0 1 .683-1.792l172.459-124.416c.43-.285.935-.434 1.451-.427h43.179a2.562 2.562 0 0 1 1.451.427L425.78 295.509c.645.341.937 1.108.681 1.792z"/><path d="M255.965 298.667h-51.2a8.533 8.533 0 0 0-8.533 8.533v25.6c0 18.851 15.282 34.133 34.133 34.133 18.851 0 34.133-15.282 34.133-34.133v-25.6a8.532 8.532 0 0 0-8.533-8.533zm-8.533 34.133c0 9.426-7.641 17.067-17.067 17.067s-17.067-7.641-17.067-17.067v-17.067h34.133V332.8zM185.139 370.339a8.533 8.533 0 0 0-12.032-.931l-68.267 68.267a8.534 8.534 0 0 0 6.059 14.592 8.53 8.53 0 0 0 5.973-2.56l68.267-68.267a8.533 8.533 0 0 0 0-11.101zM355.805 437.76l-68.267-68.267a8.533 8.533 0 0 0-12.032 12.032l68.267 68.267a8.534 8.534 0 0 0 6.059 2.475 8.534 8.534 0 0 0 5.973-14.507zM170.632 332.8h-59.733a8.533 8.533 0 0 0 0 17.066h59.733c4.713 0 8.533-3.82 8.533-8.533s-3.82-8.533-8.533-8.533zM341.299 332.8h-59.733a8.533 8.533 0 0 0 0 17.066h59.733c4.713 0 8.533-3.82 8.533-8.533s-3.82-8.533-8.533-8.533zM230.365 384a8.533 8.533 0 0 0-8.533 8.533v59.733a8.533 8.533 0 0 0 17.066 0v-59.733a8.533 8.533 0 0 0-8.533-8.533zM230.365 102.4c-18.851 0-34.133 15.282-34.133 34.133v25.6a8.533 8.533 0 0 0 8.533 8.533h51.2a8.533 8.533 0 0 0 8.533-8.533v-25.6c.001-18.851-15.281-34.133-34.133-34.133zm17.067 51.2h-34.133v-17.067c0-9.426 7.641-17.067 17.067-17.067s17.067 7.641 17.067 17.067V153.6zM247.432 187.733h-34.133c-4.713 0-8.533 3.82-8.533 8.533s3.82 8.533 8.533 8.533h34.133c4.713 0 8.533-3.82 8.533-8.533s-3.82-8.533-8.533-8.533z"/></svg>