<svg xmlns="http://www.w3.org/2000/svg" viewBox="0 0 512 512"><path d="M390.801 187.982a7.401 7.401 0 0 0-8.83-5.633 7.406 7.406 0 0 0-5.632 8.83 115.3 115.3 0 0 1 2.703 24.85c0 25.933-8.524 50.563-24.65 71.226-24.848 31.837-39.132 70.255-41.379 111.223h-13.361V382.81c0-4.384-2.728-8.136-6.572-9.668l13.848-103.011a8.905 8.905 0 0 0-3.453-8.278 8.826 8.826 0 0 0-5.362-1.797 8.82 8.82 0 0 0-3.56.744l-17.268 7.545-17.797-7.58c-2.411-1.024-5.24-.916-7.552.278l-14.755 7.6-19.973-7.949c-2.884-1.158-6.314-.674-8.777 1.244a8.93 8.93 0 0 0-3.343 8.196l5.568 41.416a7.407 7.407 0 1 0 14.681-1.974l-4.22-31.386 13.72 5.46a7.41 7.41 0 0 0 6.13-.297l15.281-7.871 18.174 7.74a7.407 7.407 0 0 0 5.867-.027l10.559-4.614-12.614 93.819H233.78l-3.724-27.703a7.406 7.406 0 1 0-14.681 1.973l3.559 26.472c-3.844 1.532-6.572 5.284-6.572 9.668v15.668h-13.34c-2.171-40.096-16.745-78.878-42.221-112.291-15.507-20.337-23.746-44.468-23.828-69.784-.208-65.147 54.585-118.523 122.143-118.983.296-.002.587-.003.882-.003 45.317 0 86.775 23.831 108.346 62.345a7.405 7.405 0 0 0 10.081 2.842 7.406 7.406 0 0 0 2.843-10.08c-24.193-43.195-70.592-69.919-121.269-69.919-.327 0-.656.001-.983.003-75.696.516-137.089 60.558-136.854 133.843.093 28.571 9.381 55.791 26.861 78.717 24.07 31.57 37.66 68.233 39.302 106.028.297 6.782 5.922 12.094 12.806 12.094h1.064v61.388c0 13.327 7.993 25.141 20.364 30.098A100.22 100.22 0 0 0 256.007 512c12.887 0 25.486-2.43 37.449-7.224 12.371-4.957 20.364-16.772 20.364-30.098V413.29h1.082c6.875 0 12.499-5.299 12.803-12.064 1.731-38.66 14.997-74.92 38.361-104.858 18.178-23.292 27.786-51.072 27.786-80.339a130.111 130.111 0 0 0-3.051-28.047zm-163.627 199.23h57.667v11.266h-57.667v-11.266zm-14.168 26.078h86.003v15.271h-86.003V413.29zm0 30.083h86.003v10.039h-86.003v-10.039zm86.004 31.305c-.001 7.239-4.343 13.657-11.063 16.35a85.49 85.49 0 0 1-31.939 6.161 85.49 85.49 0 0 1-31.939-6.161 17.532 17.532 0 0 1-11.062-16.35v-6.454h86.003v6.454zM488.178 232.178H441.81c-4.091 0-7.406 3.316-7.406 7.406s3.315 7.406 7.406 7.406h46.368a7.406 7.406 0 1 0 0-14.812zM70.191 232.178H23.822c-4.091 0-7.406 3.316-7.406 7.406s3.315 7.406 7.406 7.406h46.369c4.091 0 7.406-3.316 7.406-7.406s-3.315-7.406-7.406-7.406zM425.412 398.521l-32.788-32.787a7.407 7.407 0 0 0-10.474 10.473l32.788 32.787a7.384 7.384 0 0 0 5.237 2.169 7.406 7.406 0 0 0 5.237-12.642zM129.85 102.96L97.063 70.172a7.407 7.407 0 0 0-10.474 10.473l32.787 32.788a7.382 7.382 0 0 0 5.237 2.169 7.406 7.406 0 0 0 5.237-12.642zM425.412 70.173a7.406 7.406 0 0 0-10.474-.001L382.15 102.96a7.406 7.406 0 1 0 10.474 10.473l32.788-32.787a7.406 7.406 0 0 0 0-10.473zM129.85 365.734a7.407 7.407 0 0 0-10.474 0l-32.787 32.787a7.406 7.406 0 1 0 10.474 10.473l32.787-32.787a7.406 7.406 0 0 0 0-10.473zM256 0a7.406 7.406 0 0 0-7.406 7.406v46.368a7.407 7.407 0 0 0 14.812 0V7.406A7.406 7.406 0 0 0 256 0z"/></svg>