<svg xmlns="http://www.w3.org/2000/svg" viewBox="0 0 512 512"><path d="M266.667 162.133l6.4-76.8h-34.134l6.059 76.8z"/><path d="M260.267 0h-8.448C159.532 3.633 86.308 78.997 85.333 171.349a170.665 170.665 0 0 0 42.24 111.445c3.243 3.669 6.571 7.253 9.984 10.837 3.413 3.584 8.533 8.533 11.776 13.056a219.1 219.1 0 0 1 18.432 25.6 159.967 159.967 0 0 1 16.043 34.133 89.165 89.165 0 0 1 3.925 26.624c.277 9.225 7.837 16.559 17.067 16.555v17.067c0 9.426 7.641 17.067 17.067 17.067V460.8a17.067 17.067 0 0 0 8.533 14.677v19.456c0 9.426 7.641 17.067 17.067 17.067h17.067c9.426 0 17.067-7.641 17.067-17.067v-19.456a17.064 17.064 0 0 0 8.533-14.677v-17.067c9.426 0 17.067-7.641 17.067-17.067V409.6c9.229.004 16.79-7.33 17.067-16.555a89.185 89.185 0 0 1 3.925-26.795 159.847 159.847 0 0 1 16.043-34.133 218.984 218.984 0 0 1 18.432-25.6c3.669-4.437 7.595-8.533 11.776-13.056s6.741-7.168 9.984-10.837a170.664 170.664 0 0 0 42.24-111.275C425.694 79.028 352.519 3.677 260.267 0zm-34.304 73.472l.256-.171a15.958 15.958 0 0 1 11.691-5.035h36.181a15.958 15.958 0 0 1 11.947 5.205 15.018 15.018 0 0 1 4.096 11.861l-6.315 79.872c-1 8.072-7.91 14.1-16.043 13.995h-23.552c-8.187.047-15.082-6.11-15.957-14.251l-6.4-80.043a14.929 14.929 0 0 1 4.096-11.433zM281.6 217.344v9.045c-.047 11.621-9.456 21.031-21.077 21.077h-9.045c-11.621-.047-21.031-9.456-21.077-21.077v-9.045c.047-11.621 9.456-21.031 21.077-21.077h9.045c11.621.046 21.03 9.456 21.077 21.077zm-76.8 84.139V281.6a8.533 8.533 0 0 1 17.066 0v19.968c0 17.067 21.163 30.464 21.419 30.635a8.532 8.532 0 0 1 4.181 7.339v52.992H230.4v-48.555c-8.533-5.974-25.6-21.163-25.6-42.496zm59.733 193.45h-17.067v-17.067h17.067v17.067zm8.534-34.133h-34.133v-17.067h34.133V460.8zm17.066-34.133h-68.267V409.6h68.267v17.067zM307.2 301.483c0 21.333-17.067 36.523-25.6 42.667v48.384h-17.067v-53.077a8.536 8.536 0 0 1 4.181-7.339s21.419-13.056 21.419-30.635V281.6a8.533 8.533 0 0 1 17.066 0v19.883z"/><path d="M260.523 213.333h-9.046a4.011 4.011 0 0 0-4.011 4.011v9.045a4.011 4.011 0 0 0 4.011 4.011h9.045a4.011 4.011 0 0 0 4.011-4.011v-9.045a4.01 4.01 0 0 0-4.01-4.011z"/></svg>