<svg xmlns="http://www.w3.org/2000/svg" viewBox="0 0 512 512"><path d="M293.061 132.91c-.09-.162-.181-.322-.273-.482-10.912-19.161-34.9-27.007-55.195-17.466a42.664 42.664 0 0 0-20.462 20.462 41.905 41.905 0 0 0-4.011 18.176 42.667 42.667 0 0 0 13.397 30.976c.921.877 1.89 1.703 2.901 2.475 1.024.853 2.133 1.621 3.499 2.56l1.963 1.024a41.898 41.898 0 0 0 41.728 0l2.475-1.451a31.849 31.849 0 0 0 3.413-2.475 22.073 22.073 0 0 0 3.072-2.731 42.066 42.066 0 0 0 12.885-30.379 41.389 41.389 0 0 0-4.096-18.176 43.094 43.094 0 0 0-1.296-2.513zm-28.741 37.757c0 4.713-3.82 8.533-8.533 8.533s-8.533-3.82-8.533-8.533v-34.133c0-4.713 3.82-8.533 8.533-8.533s8.533 3.82 8.533 8.533v34.133z"/><path d="M260.053 0h-8.533C159.267 3.677 86.092 79.028 85.12 171.349a170.663 170.663 0 0 0 42.667 111.445c3.243 3.755 6.571 7.339 9.984 10.923s8.533 8.533 11.776 12.971a219.1 219.1 0 0 1 18.432 25.6 164.312 164.312 0 0 1 16.043 34.133 91.942 91.942 0 0 1 3.499 26.624c.277 9.225 7.837 16.559 17.067 16.555v17.067c0 9.426 7.641 17.067 17.067 17.067V460.8a17.067 17.067 0 0 0 8.533 14.677v19.456c0 9.426 7.641 17.067 17.067 17.067h17.067c9.426 0 17.067-7.641 17.067-17.067v-19.456a17.064 17.064 0 0 0 8.533-14.677v-17.067c9.426 0 17.067-7.641 17.067-17.067V409.6c9.229.004 16.79-7.33 17.067-16.555a89.185 89.185 0 0 1 3.925-26.795 155.825 155.825 0 0 1 16.043-34.133 209.504 209.504 0 0 1 18.432-25.6c3.669-4.437 7.595-8.533 11.776-13.056s6.741-7.083 9.984-10.837a170.673 170.673 0 0 0 42.667-111.445C425.807 78.765 352.408 3.452 260.053 0zm-55.466 301.483V281.6a8.533 8.533 0 0 1 17.066 0v19.968c0 17.067 21.163 30.464 21.419 30.635a8.532 8.532 0 0 1 4.181 7.339v52.992h-17.067v-48.555c-8.533-5.974-25.599-21.163-25.599-42.496zm59.733 193.45h-17.067v-17.067h17.067v17.067zm8.533-34.133H238.72v-17.067h34.133V460.8zm17.067-34.133h-68.267V409.6h68.267v17.067zm17.067-125.184c0 21.333-17.067 36.523-25.6 42.667v48.384H264.32v-53.077a8.536 8.536 0 0 1 4.181-7.339s21.419-13.056 21.419-30.635V281.6a8.533 8.533 0 0 1 17.066 0v19.883zM297.6 196.267a37.959 37.959 0 0 1-4.608 4.096c-1.792 1.365-3.328 2.475-5.035 3.584l-2.731 1.621a57.338 57.338 0 0 1-29.44 7.765 56.662 56.662 0 0 1-29.44-7.936l-2.304-1.28a61.473 61.473 0 0 1-5.12-3.584 38.788 38.788 0 0 1-4.437-3.84 59.736 59.736 0 0 1-18.432-43.093 57.524 57.524 0 0 1 5.717-25.6c14.084-29.832 49.686-42.598 79.518-28.514A59.733 59.733 0 0 1 309.802 128c10.911 23.029 6.011 50.444-12.202 68.267z"/></svg>