<svg xmlns="http://www.w3.org/2000/svg" viewBox="0 0 512 512"><path d="M260.267 0h-8.533C159.48 3.677 86.306 79.028 85.333 171.349a170.665 170.665 0 0 0 42.24 111.445c3.243 3.669 6.571 7.253 9.984 10.837 3.413 3.584 8.533 8.533 11.776 13.056a219.1 219.1 0 0 1 18.432 25.6 159.967 159.967 0 0 1 16.043 34.133 89.165 89.165 0 0 1 3.925 26.624c.277 9.225 7.837 16.559 17.067 16.555v17.067c0 9.426 7.641 17.067 17.067 17.067V460.8a17.067 17.067 0 0 0 8.533 14.677v19.456c0 9.426 7.641 17.067 17.067 17.067h17.067c9.426 0 17.067-7.641 17.067-17.067v-19.456a17.064 17.064 0 0 0 8.533-14.677v-17.067c9.426 0 17.067-7.641 17.067-17.067V409.6c9.229.004 16.79-7.33 17.067-16.555a88.137 88.137 0 0 1 3.925-26.709 158.43 158.43 0 0 1 16.043-34.133 218.984 218.984 0 0 1 18.432-25.6c3.669-4.437 7.595-8.533 11.776-13.056s6.741-7.168 9.984-10.837a170.667 170.667 0 0 0 42.24-111.36C425.694 79.028 352.519 3.677 260.267 0zM204.8 301.483V281.6a8.533 8.533 0 0 1 17.066 0v19.968c0 17.579 21.248 30.464 21.419 30.635a8.532 8.532 0 0 1 4.181 7.339v52.992H230.4v-48.555c-8.533-5.974-25.6-21.163-25.6-42.496zm59.733 193.45h-17.067v-17.067h17.067v17.067zm8.534-34.133h-34.133v-17.067h34.133V460.8zm17.066-34.133h-68.267V409.6h68.267v17.067zM307.2 301.483c0 21.333-17.067 36.523-25.6 42.667v48.384h-17.067v-53.077a8.536 8.536 0 0 1 4.181-7.339s21.419-13.056 21.419-30.635V281.6a8.533 8.533 0 0 1 17.066 0v19.883z"/></svg>