<svg xmlns="http://www.w3.org/2000/svg" viewBox="0 0 512 512"><path d="M260.267 0h-8.533C159.48 3.677 86.306 79.028 85.333 171.349a170.665 170.665 0 0 0 42.24 111.445c3.243 3.669 6.571 7.253 9.984 10.837 3.413 3.584 8.533 8.533 11.776 13.056a219.1 219.1 0 0 1 18.432 25.6 159.967 159.967 0 0 1 16.043 34.133 89.165 89.165 0 0 1 3.925 26.624c.277 9.225 7.837 16.559 17.067 16.555v17.067c0 9.426 7.641 17.067 17.067 17.067V460.8a17.067 17.067 0 0 0 8.533 14.677v19.456c0 9.426 7.641 17.067 17.067 17.067h17.067c9.426 0 17.067-7.641 17.067-17.067v-19.456a17.064 17.064 0 0 0 8.533-14.677v-17.067c9.426 0 17.067-7.641 17.067-17.067V409.6c9.229.004 16.79-7.33 17.067-16.555a88.137 88.137 0 0 1 3.925-26.709 158.43 158.43 0 0 1 16.043-34.133 218.984 218.984 0 0 1 18.432-25.6c3.669-4.437 7.595-8.533 11.776-13.056s6.741-7.168 9.984-10.837a170.667 170.667 0 0 0 42.24-111.36C425.694 79.028 352.519 3.677 260.267 0zm-12.8 93.867c0-4.713 3.82-8.533 8.533-8.533s8.533 3.82 8.533 8.533V128c0 4.713-3.82 8.533-8.533 8.533s-8.533-3.82-8.533-8.533V93.867zM204.8 301.483V281.6a8.533 8.533 0 0 1 17.066 0v19.968c0 17.579 21.248 30.464 21.419 30.635a8.532 8.532 0 0 1 4.181 7.339v52.992H230.4v-48.555c-8.533-5.974-25.6-21.163-25.6-42.496zm59.733 193.45h-17.067v-17.067h17.067v17.067zm8.534-34.133h-34.133v-17.067h34.133V460.8zm17.066-34.133h-68.267V409.6h68.267v17.067zM307.2 301.483c0 21.333-17.067 36.523-25.6 42.667v48.384h-17.067v-53.077a8.536 8.536 0 0 1 4.181-7.339s21.419-13.056 21.419-30.635V281.6a8.533 8.533 0 0 1 17.066 0v19.883zm.004-117.347a59.73 59.73 0 0 1-9.391 12.13 46.995 46.995 0 0 1-4.608 4.096c-1.792 1.365-3.328 2.475-5.035 3.584l-2.731 1.621a57.338 57.338 0 0 1-29.44 7.765 56.662 56.662 0 0 1-29.44-7.936l-2.304-1.28c-2.304-1.451-3.755-2.475-5.205-3.584a45.327 45.327 0 0 1-4.352-3.84 59.736 59.736 0 0 1-18.432-43.093 57.524 57.524 0 0 1 5.717-25.6 59.732 59.732 0 0 1 24.149-25.6 8.534 8.534 0 0 1 11.677 3.048l.014.024a8.533 8.533 0 0 1-3.106 11.661l-.051.029a42.669 42.669 0 0 0-17.067 18.773 41.907 41.907 0 0 0-4.267 17.664 42.667 42.667 0 0 0 13.397 30.976c.921.877 1.89 1.703 2.901 2.475l3.499 2.56 1.963 1.024a41.898 41.898 0 0 0 41.728 0l2.475-1.365 3.413-2.56a39.778 39.778 0 0 0 3.072-2.731 42.066 42.066 0 0 0 12.885-30.379 41.389 41.389 0 0 0-4.096-18.176 41.982 41.982 0 0 0-17.067-18.688 8.535 8.535 0 0 1-4.267-7.339c0-1.532.413-3.035 1.195-4.352a8.533 8.533 0 0 1 11.435-2.645c28.465 16.681 38.018 53.275 21.339 81.738z"/></svg>