<svg xmlns="http://www.w3.org/2000/svg" viewBox="0 0 367.006 367.006"><path d="M336.892 147.883h-.085L288.594 11.349A17.068 17.068 0 0 0 272.466 0H94.46a17.067 17.067 0 0 0-16.128 11.349L30.119 147.883c-3.158 8.881 1.482 18.64 10.363 21.798a17.07 17.07 0 0 0 5.68.986h81.835v17.067c-.013 13.716 10.787 25.006 24.491 25.6-2.527 14.557-15.009 25.287-29.781 25.6h-2.645a9.423 9.423 0 0 0-1.365 0c-35.346 1.39-62.873 31.171-61.483 66.517 1.39 35.346 31.171 62.873 66.517 61.483h110.933c35.346 1.673 65.356-25.624 67.029-60.971 1.673-35.346-25.624-65.356-60.971-67.029a8.519 8.519 0 0 0-1.792 0h-3.243c-14.798-.246-27.317-11.007-29.781-25.6 13.703-.594 24.504-11.884 24.491-25.6v-17.067h90.368c9.426.026 17.088-7.594 17.114-17.019a17.077 17.077 0 0 0-.987-5.765zM93.18 131.243v-.427a9.914 9.914 0 0 1-1.792 2.816l-1.28 1.024a6.494 6.494 0 0 1-1.536.768l-1.536 1.109H85.33a8.513 8.513 0 0 1-3.243-.683 9.914 9.914 0 0 1-2.816-1.792 8.539 8.539 0 0 1-1.792-2.816 8.55 8.55 0 0 1-.683-3.243 8.533 8.533 0 0 1 2.475-6.059 9.8 9.8 0 0 1 2.816-1.792 8.537 8.537 0 0 1 4.949-.683 5.375 5.375 0 0 1 1.536.512c.544.187 1.06.445 1.536.768l1.28 1.024a8.96 8.96 0 0 1 2.475 6.229 8.553 8.553 0 0 1-.683 3.245zm30.294 158.89h.085a12.797 12.797 0 0 0-8.533 3.669 13.055 13.055 0 0 0-4.096 9.131 8.533 8.533 0 0 1-17.066 0c-.047-16.415 13.196-29.773 29.611-29.867 4.713 0 8.533 3.82 8.533 8.533s-3.822 8.534-8.534 8.534zm89.856-102.4a8.533 8.533 0 0 1-8.533 8.533h-51.2a8.533 8.533 0 0 1-8.533-8.533v-17.067h68.267v17.067zm0-51.2h-93.867a8.533 8.533 0 0 1 0-17.066h93.867a8.533 8.533 0 0 1 0 17.066z"/></svg>