<svg xmlns="http://www.w3.org/2000/svg" viewBox="0 0 477.432 477.432"><path d="M202.445 70.319L134.179 2.052a8.533 8.533 0 0 0-12.032 12.032l68.267 68.267a8.533 8.533 0 0 0 12.031-12.032zM363.733 2.052a8.533 8.533 0 0 0-11.101 0l-68.267 68.267a8.533 8.533 0 0 0 5.973 14.506 8.533 8.533 0 0 0 6.059-2.475l68.267-68.267a8.531 8.531 0 0 0-.931-12.031zM151.331 300.633a8.533 8.533 0 0 0-12.032 0L71.032 368.9a8.533 8.533 0 1 0 12.032 12.032l68.267-68.267a8.534 8.534 0 0 0 0-12.032zM407.331 368.9l-68.267-68.267a8.533 8.533 0 0 0-12.032 12.032l68.267 68.267a8.533 8.533 0 0 0 12.032-12.032zM239.139 8.025a8.533 8.533 0 0 0-8.533 8.533v59.733c0 4.713 3.82 8.533 8.533 8.533s8.533-3.82 8.533-8.533V16.559a8.533 8.533 0 0 0-8.533-8.534z"/><path d="M396.835 258.308h-.085l-48.213-136.533a17.066 17.066 0 0 0-16.128-11.349H154.403a17.067 17.067 0 0 0-16.128 11.349L90.061 258.308c-3.158 8.881 1.482 18.64 10.363 21.798a17.07 17.07 0 0 0 5.68.986h81.835v17.067c-.013 13.716 10.787 25.006 24.491 25.6-2.527 14.557-15.009 25.287-29.781 25.6h-2.645a9.76 9.76 0 0 0-1.451 0c-35.346 1.39-62.873 31.171-61.483 66.517 1.39 35.346 31.171 62.873 66.517 61.483H294.52c35.346 1.673 65.356-25.624 67.029-60.971 1.673-35.346-25.624-65.356-60.971-67.029a8.541 8.541 0 0 0-1.707 0h-3.243c-14.798-.246-27.317-11.007-29.781-25.6 13.703-.594 24.504-11.884 24.491-25.6v-17.067h90.368c9.426.026 17.088-7.594 17.114-17.019a17.054 17.054 0 0 0-.985-5.765zM151.38 244.264l-.049.049v.171a8.964 8.964 0 0 1-6.059 2.475h-1.707l-1.536-.512a6.494 6.494 0 0 1-1.536-.768l-1.28-1.024a8.534 8.534 0 0 1-2.475-6.229 8.513 8.513 0 0 1 .683-3.243 9.8 9.8 0 0 1 1.792-2.816l1.28-1.024a6.494 6.494 0 0 1 1.536-.768 5.374 5.374 0 0 1 1.536-.683 8.532 8.532 0 0 1 7.765 2.304 8.533 8.533 0 0 1 .05 12.068zm32.036 156.295h.085a12.716 12.716 0 0 0-8.533 3.669 12.97 12.97 0 0 0-4.096 9.131 8.533 8.533 0 0 1-17.066 0c-.047-16.415 13.196-29.773 29.611-29.867a8.534 8.534 0 0 1-.001 17.067zm89.856-102.4a8.533 8.533 0 0 1-8.533 8.533h-51.2a8.533 8.533 0 0 1-8.533-8.533v-17.067h68.267v17.067zm0-51.2h-93.867a8.533 8.533 0 0 1 0-17.066h93.867a8.533 8.533 0 0 1 0 17.066z"/></svg>