<svg xmlns="http://www.w3.org/2000/svg" viewBox="0 0 460.8 460.8"><path d="M184.277 369.408a8.533 8.533 0 0 0-11.101 0l-68.267 68.267a8.533 8.533 0 1 0 12.032 12.032l68.267-68.267a8.533 8.533 0 0 0-.931-12.032zM355.96 437.675l-68.267-68.267a8.533 8.533 0 0 0-12.032 12.032l68.267 68.267a8.533 8.533 0 0 0 12.032-12.032zM170.701 332.8h-59.733a8.533 8.533 0 0 0 0 17.066h59.733c4.713 0 8.533-3.82 8.533-8.533s-3.82-8.533-8.533-8.533zM341.368 332.8h-59.733a8.533 8.533 0 0 0 0 17.066h59.733c4.713 0 8.533-3.82 8.533-8.533s-3.82-8.533-8.533-8.533zM230.435 384a8.533 8.533 0 0 0-8.533 8.533v59.733a8.533 8.533 0 0 0 17.066 0v-59.733a8.533 8.533 0 0 0-8.533-8.533z"/><path d="M435.917 281.6L264.568 158.123v-21.589c-.05-15.523-10.569-29.058-25.6-32.939V8.533c0-4.713-3.82-8.533-8.533-8.533s-8.533 3.82-8.533 8.533v95.061c-15.031 3.881-25.55 17.415-25.6 32.939v21.589L24.952 281.6a18.432 18.432 0 0 0-6.997 20.907 18.944 18.944 0 0 0 18.517 13.227h159.829V332.8c0 18.851 15.282 34.133 34.133 34.133 18.851 0 34.133-15.282 34.133-34.133v-17.067h159.829a18.944 18.944 0 0 0 18.432-13.227 18.428 18.428 0 0 0-6.911-20.906zM213.368 136.533c0-9.426 7.641-17.067 17.067-17.067s17.067 7.641 17.067 17.067V153.6h-34.133v-17.067zM247.501 332.8c0 9.426-7.641 17.067-17.067 17.067s-17.067-7.641-17.067-17.067v-17.067H247.5V332.8zm0-128h-34.133c-4.713 0-8.533-3.82-8.533-8.533s3.82-8.533 8.533-8.533h34.133c4.713 0 8.533 3.82 8.533 8.533s-3.82 8.533-8.533 8.533z"/></svg>