<svg xmlns="http://www.w3.org/2000/svg" viewBox="0 0 426.743 426.743"><path d="M418.889 311.505l-171.35-123.478v-21.589c-.05-15.523-10.569-29.058-25.6-32.939V38.438c0-4.713-3.82-8.533-8.533-8.533s-8.533 3.82-8.533 8.533v95.061c-15.031 3.881-25.55 17.415-25.6 32.939v21.589L7.923 311.505a18.432 18.432 0 0 0-6.997 20.907 18.944 18.944 0 0 0 18.517 13.227h159.829v17.067c0 18.851 15.282 34.133 34.133 34.133 18.851 0 34.133-15.282 34.133-34.133v-17.067h159.829a18.944 18.944 0 0 0 18.432-13.227 18.429 18.429 0 0 0-6.91-20.907zm-222.55-145.067c0-9.426 7.641-17.067 17.067-17.067s17.067 7.641 17.067 17.067v17.067H196.34v-17.067zm34.134 196.267c0 9.426-7.641 17.067-17.067 17.067s-17.067-7.641-17.067-17.067v-17.067h34.133v17.067zm0-128H196.34c-4.713 0-8.533-3.82-8.533-8.533s3.82-8.533 8.533-8.533h34.133c4.713 0 8.533 3.82 8.533 8.533s-3.82 8.533-8.533 8.533z"/></svg>