<svg xmlns="http://www.w3.org/2000/svg" viewBox="0 0 512 512"><path d="M273.089 128H59.755c-9.426 0-17.067 7.641-17.067 17.067v102.4c0 32.99 26.744 59.733 59.733 59.733h122.197a8.534 8.534 0 0 0 8.363-6.656 110.932 110.932 0 0 1 52.907-72.277 8.533 8.533 0 0 0 4.267-7.424v-75.776c0-9.426-7.641-17.067-17.066-17.067zm0 88.064a128 128 0 0 0-55.125 74.069H102.422c-23.564 0-42.667-19.103-42.667-42.667v-102.4h213.333v70.998z"/><path d="M119.489 0h-8.533c-14.138 0-25.6 11.461-25.6 25.6v110.933a8.533 8.533 0 0 0 8.533 8.533h42.667a8.533 8.533 0 0 0 8.533-8.533V25.6c0-14.139-11.462-25.6-25.6-25.6zm8.533 128h-25.6V25.6a8.533 8.533 0 0 1 8.533-8.533h8.533a8.533 8.533 0 0 1 8.533 8.533V128zM221.889 0h-8.533c-14.139 0-25.6 11.461-25.6 25.6v110.933a8.533 8.533 0 0 0 8.533 8.533h42.667a8.533 8.533 0 0 0 8.533-8.533V25.6c0-14.139-11.462-25.6-25.6-25.6zm8.533 128h-25.6V25.6a8.533 8.533 0 0 1 8.533-8.533h8.533a8.533 8.533 0 0 1 8.533 8.533V128zM179.222 384v-85.333c0-4.713-3.82-8.533-8.533-8.533s-8.533 3.82-8.533 8.533V384c0 1.365 0 34.133-34.133 34.133a49.387 49.387 0 0 0-3.651 0c-27.269 1.008-48.557 23.931-47.549 51.2v34.133c0 4.713 3.82 8.533 8.533 8.533s8.533-3.82 8.533-8.533v-34.133c0-1.365 0-34.133 34.133-34.133 1.217.045 2.435.045 3.651 0 27.269-1.008 48.557-23.931 47.549-51.2zM368.709 199.273c-69.051-15.147-137.306 28.551-152.453 97.602a129.741 129.741 0 0 0-2.901 27.392c0 70.692 57.307 128 128 128a126.807 126.807 0 0 0 79.104-27.392 128 128 0 0 0 45.852-73.149c15.147-69.052-28.551-137.307-97.602-152.453zM341.355 435.2c-61.267 0-110.933-49.667-110.933-110.933.007-8.004.865-15.985 2.56-23.808 11.182-50.888 56.271-87.137 108.373-87.125 61.267 0 110.933 49.667 110.933 110.933S402.622 435.2 341.355 435.2zM186.049 253.781l-30.891-40.448h24.064a8.533 8.533 0 0 0 8.021-11.605l-11.776-34.133a8.534 8.534 0 0 0-16.128 5.547l7.936 23.125h-29.44a8.533 8.533 0 0 0-6.826 13.995l41.387 54.187a8.533 8.533 0 0 0 6.827 3.328 8.536 8.536 0 0 0 6.826-13.996zM93.206 167.424a9.8 9.8 0 0 0-1.792-2.816 9.928 9.928 0 0 0-2.816-1.792 8.528 8.528 0 0 0-6.485 0 7.94 7.94 0 0 0-2.816 1.792 8.534 8.534 0 0 0-2.475 6.059 8.53 8.53 0 0 0 .597 3.243 12.79 12.79 0 0 0 1.877 2.816 8.539 8.539 0 0 0 2.816 1.792 7.176 7.176 0 0 0 3.243.683 8.535 8.535 0 0 0 7.851-11.777zM136.555 162.133h-25.6c-4.713 0-8.533 3.82-8.533 8.533s3.82 8.533 8.533 8.533h25.6c4.713 0 8.533-3.82 8.533-8.533s-3.82-8.533-8.533-8.533z"/><path d="M290.155 315.733h-17.067c-9.426 0-17.067 7.641-17.067 17.067v34.133a8.533 8.533 0 0 0 8.533 8.533h34.133a8.533 8.533 0 0 0 8.533-8.533V332.8c.002-9.426-7.639-17.067-17.065-17.067zm0 42.667h-17.067v-25.6h17.067v25.6zM349.889 290.133h-17.067c-9.426 0-17.067 7.641-17.067 17.067v59.733a8.533 8.533 0 0 0 8.533 8.533h34.133a8.533 8.533 0 0 0 8.533-8.533V307.2c.001-9.426-7.64-17.067-17.065-17.067zm0 68.267h-17.067v-51.2h17.067v51.2zM409.622 264.533h-17.067c-9.426 0-17.067 7.641-17.067 17.067v85.333a8.533 8.533 0 0 0 8.533 8.533h34.133a8.533 8.533 0 0 0 8.533-8.533V281.6c.002-9.426-7.639-17.067-17.065-17.067zm0 93.867h-17.067v-76.8h17.067v76.8z"/></svg>