<svg xmlns="http://www.w3.org/2000/svg" viewBox="0 0 512.222 512.222"><path d="M368.324 237.961c-48.623-7.05-86.816-45.244-93.867-93.867a8.533 8.533 0 0 0-8.533-7.339H34.244c-18.851 0-34.133 15.282-34.133 34.133v307.2c0 18.851 15.282 34.133 34.133 34.133H341.529c18.851 0 34.133-15.282 34.133-34.133V246.494a8.53 8.53 0 0 0-7.338-8.533zm-9.813 240.128c0 9.426-7.641 17.067-17.067 17.067h-307.2c-9.426 0-17.067-7.641-17.067-17.067v-307.2c0-9.426 7.641-17.067 17.067-17.067h224.512c10.273 50.228 49.526 89.481 99.755 99.755v224.512z"/><path d="M402.167 1.296c-69.986-9.972-134.804 38.679-144.776 108.665a132.808 132.808 0 0 0-1.28 18.261c-.01 6.113.447 12.218 1.365 18.261a126.634 126.634 0 0 0 47.531 82.347 128.6 128.6 0 0 0 60.757 26.027c6.072.92 12.205 1.377 18.347 1.365 70.692 0 128-57.308 128-128 .103-63.795-46.787-117.927-109.944-126.926zm-18.056 237.859a104.153 104.153 0 0 1-15.872-1.28c-48.623-7.05-86.816-45.244-93.867-93.867a103.774 103.774 0 0 1-1.195-15.787 116.4 116.4 0 0 1 1.109-15.872c8.095-54.468 54.758-94.858 109.824-95.061 61.267 0 110.933 49.667 110.933 110.933s-49.665 110.934-110.932 110.934zM51.311 179.422h-8.533c-4.713 0-8.533 3.82-8.533 8.533s3.82 8.533 8.533 8.533h8.533c4.713 0 8.533-3.82 8.533-8.533s-3.82-8.533-8.533-8.533zM187.844 179.422h-102.4c-4.713 0-8.533 3.82-8.533 8.533s3.82 8.533 8.533 8.533h102.4c4.713 0 8.533-3.82 8.533-8.533s-3.82-8.533-8.533-8.533z"/><path d="M438.127 102.622a59.733 59.733 0 0 0-28.514-28.514c-29.832-14.084-65.434-1.318-79.518 28.514a58.436 58.436 0 0 0-5.717 25.6 59.223 59.223 0 0 0 18.432 43.008 45.988 45.988 0 0 0 4.352 3.84 59.612 59.612 0 0 0 5.205 3.669l2.304 1.28a57.423 57.423 0 0 0 29.44 7.936 57.35 57.35 0 0 0 29.355-7.765l2.816-1.621c1.707-1.109 3.243-2.219 5.035-3.584a45.219 45.219 0 0 0 4.608-4.096c18.212-17.823 23.112-45.238 12.202-68.267zm-24.235 55.979a30.972 30.972 0 0 1-3.072 2.731l-3.413 2.475-2.475 1.451a41.982 41.982 0 0 1-41.728 0l-1.963-1.109c-1.365-.853-2.389-1.621-3.499-2.475a29.24 29.24 0 0 1-2.901-2.475 42.663 42.663 0 0 1-13.397-30.976 41.548 41.548 0 0 1 4.011-18.091 42.666 42.666 0 0 1 38.656-24.576 42.667 42.667 0 0 1 38.315 24.405c7.78 16.379 4.358 35.887-8.534 48.64z"/><path d="M384.111 102.622a8.533 8.533 0 0 0-8.533 8.533v34.133a8.533 8.533 0 0 0 17.066 0v-34.133a8.533 8.533 0 0 0-8.533-8.533zM187.844 213.556c-70.692 0-128 57.307-128 128s57.308 128 128 128 128-57.308 128-128-57.307-128-128-128zm0 238.933c-61.267 0-110.933-49.667-110.933-110.933s49.667-110.933 110.933-110.933 110.933 49.667 110.933 110.933-49.666 110.933-110.933 110.933z"/><path d="M132.378 315.955c-16.495 0-29.867 13.372-29.867 29.867s13.372 29.867 29.867 29.867 29.867-13.372 29.867-29.867c-.001-16.495-13.372-29.867-29.867-29.867zm0 42.667c-7.069 0-12.8-5.731-12.8-12.8 0-7.069 5.731-12.8 12.8-12.8 7.069 0 12.8 5.731 12.8 12.8 0 7.069-5.731 12.8-12.8 12.8zM243.311 315.955c-16.495 0-29.867 13.372-29.867 29.867s13.372 29.867 29.867 29.867 29.867-13.372 29.867-29.867-13.372-29.867-29.867-29.867zm0 42.667c-7.069 0-12.8-5.731-12.8-12.8 0-7.069 5.731-12.8 12.8-12.8s12.8 5.731 12.8 12.8c0 7.069-5.731 12.8-12.8 12.8z"/></svg>