<svg xmlns="http://www.w3.org/2000/svg" viewBox="0 0 512.222 512.222"><path d="M368.324 237.961c-48.623-7.05-86.816-45.244-93.867-93.867a8.533 8.533 0 0 0-8.533-7.339H34.244c-18.851 0-34.133 15.282-34.133 34.133v307.2c0 18.851 15.282 34.133 34.133 34.133H341.529c18.851 0 34.133-15.282 34.133-34.133V246.494a8.53 8.53 0 0 0-7.338-8.533zm-9.813 240.128c0 9.426-7.641 17.067-17.067 17.067h-307.2c-9.426 0-17.067-7.641-17.067-17.067v-307.2c0-9.426 7.641-17.067 17.067-17.067h224.512c10.273 50.228 49.526 89.481 99.755 99.755v224.512z"/><path d="M402.167 1.296c-69.986-9.972-134.804 38.679-144.776 108.665a132.808 132.808 0 0 0-1.28 18.261c-.01 6.113.447 12.218 1.365 18.261a126.634 126.634 0 0 0 47.531 82.347 128.6 128.6 0 0 0 60.757 26.027c6.072.92 12.205 1.377 18.347 1.365 70.692 0 128-57.308 128-128 .103-63.795-46.787-117.927-109.944-126.926zm-18.056 237.859a104.153 104.153 0 0 1-15.872-1.28c-48.623-7.05-86.816-45.244-93.867-93.867a103.774 103.774 0 0 1-1.195-15.787 116.4 116.4 0 0 1 1.109-15.872c8.095-54.468 54.758-94.858 109.824-95.061 61.267 0 110.933 49.667 110.933 110.933s-49.665 110.934-110.932 110.934zM51.311 179.422h-8.533c-4.713 0-8.533 3.82-8.533 8.533s3.82 8.533 8.533 8.533h8.533c4.713 0 8.533-3.82 8.533-8.533s-3.82-8.533-8.533-8.533zM187.844 179.422h-102.4c-4.713 0-8.533 3.82-8.533 8.533s3.82 8.533 8.533 8.533h102.4c4.713 0 8.533-3.82 8.533-8.533s-3.82-8.533-8.533-8.533z"/><path d="M438.127 102.622a59.734 59.734 0 0 0-24.235-26.112 8.534 8.534 0 0 0-8.534 14.762 42.668 42.668 0 0 1 17.067 18.688c7.781 16.379 4.358 35.887-8.533 48.64a30.972 30.972 0 0 1-3.072 2.731l-3.413 2.475-2.475 1.451a41.982 41.982 0 0 1-41.728 0l-1.963-1.109c-1.365-.853-2.389-1.621-3.499-2.475a29.24 29.24 0 0 1-2.901-2.475 42.663 42.663 0 0 1-13.397-30.976 41.555 41.555 0 0 1 4.267-18.091 43.088 43.088 0 0 1 17.067-18.773 8.534 8.534 0 1 0-8.533-14.763 59.722 59.722 0 0 0-24.149 26.027 58.436 58.436 0 0 0-5.717 25.6 59.223 59.223 0 0 0 18.432 43.008 45.988 45.988 0 0 0 4.352 3.84 59.612 59.612 0 0 0 5.205 3.669l2.304 1.28a57.423 57.423 0 0 0 29.44 7.936 57.35 57.35 0 0 0 29.355-7.765l2.816-1.621c1.707-1.109 3.243-2.219 5.035-3.584a45.219 45.219 0 0 0 4.608-4.096c18.211-17.823 23.112-45.238 12.201-68.267z"/><path d="M384.111 59.955a8.533 8.533 0 0 0-8.533 8.533v34.133c0 4.713 3.82 8.533 8.533 8.533s8.533-3.82 8.533-8.533V68.489a8.533 8.533 0 0 0-8.533-8.534zM273.178 290.355H102.511c-9.426 0-17.067 7.641-17.067 17.067v59.733c0 9.426 7.641 17.067 17.067 17.067h170.667c9.426 0 17.067-7.641 17.067-17.067v-59.733c-.001-9.426-7.642-17.067-17.067-17.067zm0 76.8H102.511v-59.733h170.667v59.733z"/><path d="M281.711 333.022H93.978a8.533 8.533 0 0 0 0 17.066h187.733c4.713 0 8.533-3.82 8.533-8.533s-3.82-8.533-8.533-8.533z"/><path d="M136.644 324.489a8.533 8.533 0 0 0-8.533 8.533v8.533c0 4.713 3.82 8.533 8.533 8.533s8.533-3.82 8.533-8.533v-8.533a8.532 8.532 0 0 0-8.533-8.533zM170.778 324.489a8.533 8.533 0 0 0-8.533 8.533v8.533c0 4.713 3.82 8.533 8.533 8.533s8.533-3.82 8.533-8.533v-8.533a8.533 8.533 0 0 0-8.533-8.533zM204.911 324.489a8.533 8.533 0 0 0-8.533 8.533v8.533c0 4.713 3.82 8.533 8.533 8.533s8.533-3.82 8.533-8.533v-8.533a8.533 8.533 0 0 0-8.533-8.533zM239.044 324.489a8.533 8.533 0 0 0-8.533 8.533v8.533c0 4.713 3.82 8.533 8.533 8.533s8.533-3.82 8.533-8.533v-8.533a8.532 8.532 0 0 0-8.533-8.533z"/></svg>