<svg xmlns="http://www.w3.org/2000/svg" viewBox="0 0 512 512"><path d="M511.866 371.671L479.73 117.128c-.52-4.115-4.286-7.025-8.392-6.51a7.512 7.512 0 0 0-6.511 8.392l32.058 253.91H15.115L56.349 46.338h399.303l4.638 36.736c.52 4.115 4.286 7.024 8.392 6.51a7.512 7.512 0 0 0 6.511-8.392l-4.788-37.918c-.846-6.705-6.765-11.957-13.477-11.957H55.073c-6.712 0-12.631 5.252-13.477 11.955L.133 371.672c-.565 4.487.683 8.844 3.424 11.954 2.452 2.781 5.827 4.313 9.503 4.313h205.557l-4.988 44.033h-67.275c-15.323 0-27.79 12.467-27.79 27.79v10.233c0 5.894 4.794 10.688 10.688 10.688h253.495c5.894 0 10.688-4.794 10.688-10.688v-10.233c0-15.324-12.467-27.79-27.79-27.79H298.37l-4.988-44.033H498.94c3.676 0 7.05-1.532 9.503-4.313 2.742-3.11 3.989-7.467 3.423-11.955zm-278.133 16.268h44.534l4.988 44.033h-54.51l4.988-44.033zm131.913 59.053c7.042 0 12.77 5.729 12.77 12.77v5.901H133.585v-5.901c0-7.042 5.728-12.77 12.77-12.77h219.291z"/><path d="M182.319 160.054a10.454 10.454 0 0 0-7.629-3.271H76.553c-5.624 0-10.524 4.504-11.154 10.254l-6.794 62.008c-.353 3.218.637 6.392 2.714 8.709a10.438 10.438 0 0 0 7.766 3.467h102.222c5.945 0 10.829-4.834 11.119-11.007l2.899-62.009c.141-3.03-.954-6.001-3.006-8.151zm-14.743 66.147H74.025l5.961-54.399h90.134l-2.544 54.399zM315.987 167.619c-.187-5.976-5.085-10.838-10.918-10.838h-98.136c-5.833 0-10.731 4.861-10.918 10.837l-1.947 62.01c-.098 3.114 1.059 6.152 3.173 8.333 2.037 2.102 4.753 3.26 7.649 3.26h102.222c2.895 0 5.612-1.158 7.649-3.26 2.114-2.182 3.271-5.219 3.173-8.334l-1.947-62.008zm-106.786 58.582l1.709-54.399h90.18l1.708 54.399h-93.597zM453.397 229.045l-6.794-62.01c-.631-5.749-5.531-10.253-11.154-10.253H337.31a10.458 10.458 0 0 0-7.629 3.271c-2.052 2.15-3.147 5.121-3.006 8.152l2.9 62.01c.291 6.172 5.174 11.006 11.12 11.006h102.222c2.961 0 5.791-1.263 7.766-3.467 2.077-2.318 3.067-5.492 2.714-8.709zm-108.973-2.844l-2.544-54.399h90.134l5.961 54.399h-93.551zM177.519 259.742c-2.037-2.135-4.767-3.311-7.686-3.311h-104c-5.735 0-10.743 4.697-11.4 10.693l-1.742 15.892a7.51 7.51 0 0 0 6.647 8.283 7.506 7.506 0 0 0 8.283-6.647l1.447-13.201h96.392l-2.953 63.137H62.149l1.499-13.688a7.51 7.51 0 0 0-6.647-8.284 7.5 7.5 0 0 0-8.282 6.647l-1.936 17.672c-.375 3.408.653 6.749 2.818 9.165a10.523 10.523 0 0 0 7.822 3.507h108.599c6.066 0 11.054-5.052 11.357-11.502l3.265-69.812c.15-3.197-.99-6.314-3.125-8.551zM319.129 267.706c-.199-6.322-5.086-11.275-11.128-11.275H204c-6.042 0-10.93 4.953-11.128 11.275l-2.192 69.813c-.104 3.305 1.103 6.508 3.313 8.788 2.062 2.128 4.799 3.3 7.708 3.3H310.3c2.908 0 5.645-1.172 7.707-3.3 2.21-2.28 3.417-5.483 3.313-8.788l-2.191-69.813zm-113.33 66.882l1.982-63.137h96.439l1.982 63.137H205.799zM465.218 336.936l-7.65-69.813c-.657-5.996-5.665-10.692-11.4-10.692h-104c-2.919 0-5.649 1.176-7.686 3.311-2.136 2.238-3.275 5.355-3.125 8.551l3.265 69.814c.303 6.449 5.291 11.5 11.357 11.5h108.599c2.974 0 5.824-1.278 7.822-3.507 2.165-2.416 3.193-5.757 2.818-9.164zm-115.724-2.348l-2.953-63.137h96.392l6.918 63.137H349.494zM186.606 71.006a10.515 10.515 0 0 0-7.575-3.235h-92.9c-5.526 0-10.33 4.341-10.938 9.884L69.118 133.1c-.335 3.062.621 6.098 2.624 8.332a10.364 10.364 0 0 0 7.711 3.428h96.552c5.841 0 10.631-4.654 10.908-10.592l2.592-55.442c.137-2.894-.92-5.745-2.899-7.82zm-14.523 58.834H84.584l5.156-47.049h84.544l-2.201 47.049zM313.179 78.236c-.182-5.77-4.996-10.465-10.73-10.465H209.55c-5.734 0-10.548 4.694-10.73 10.466l-1.741 55.443c-.094 2.96 1.019 5.86 3.052 7.958a10.493 10.493 0 0 0 7.593 3.222h96.552c2.883 0 5.579-1.144 7.592-3.222 2.033-2.098 3.146-4.998 3.052-7.957l-1.741-55.445zm-100.95 51.604l1.476-47.049h84.591l1.477 47.049h-87.544zM442.883 133.099l-6.075-55.445c-.608-5.542-5.412-9.882-10.938-9.882h-92.899a10.517 10.517 0 0 0-7.576 3.235c-1.979 2.075-3.036 4.925-2.9 7.818l2.593 55.441c.277 5.941 5.067 10.595 10.908 10.595h96.552v-.001c2.947 0 5.759-1.25 7.711-3.428 2.003-2.234 2.959-5.271 2.624-8.333zm-102.966-3.259l-2.2-47.049h84.544l5.155 47.049h-87.499z"/></svg>