<svg xmlns="http://www.w3.org/2000/svg" viewBox="0 0 512 512"><path d="M437.019 74.981a262.077 262.077 0 0 0-7.843-7.524 7.287 7.287 0 0 0-9.867 10.724c2.5 2.301 4.991 4.691 7.406 7.105 45.6 45.599 70.713 106.226 70.713 170.714 0 64.487-25.113 125.115-70.713 170.714-45.599 45.6-106.226 70.713-170.713 70.713-5.525 0-10.019-4.495-10.019-10.019V415.87h20.039v53.546a7.285 7.285 0 0 0 7.863 7.263c52.207-4.149 101.452-26.926 138.662-64.135 41.814-41.816 64.842-97.411 64.842-156.545 0-59.135-23.028-114.731-64.842-156.545C370.731 57.64 315.135 34.612 256 34.612S141.269 57.64 99.455 99.455C57.641 141.27 34.612 196.865 34.612 256c0 59.134 23.028 114.729 64.843 156.545 26.661 26.66 59.668 46.148 95.452 56.356 5.313 1.516 8.403 7.071 6.888 12.383-1.517 5.313-7.071 8.404-12.385 6.886-39.054-11.14-75.059-32.391-104.124-61.456-45.6-45.6-70.713-106.227-70.713-170.714 0-64.488 25.113-125.115 70.713-170.714C130.885 39.686 191.512 14.573 256 14.573c49.19 0 96.394 14.597 136.508 42.213a7.287 7.287 0 1 0 8.264-12.004C358.215 15.485 308.154 0 256 0 187.62 0 123.333 26.629 74.981 74.981S0 187.62 0 256s26.629 132.667 74.981 181.018c30.814 30.814 69 53.347 110.43 65.166 13.037 3.721 26.675-3.861 30.397-16.901a24.431 24.431 0 0 0-2.157-18.699 24.433 24.433 0 0 0-14.747-11.697c-33.407-9.53-64.233-27.735-89.146-52.647-39.062-39.064-60.574-91-60.574-146.241 0-55.242 21.512-107.178 60.574-146.241 39.062-39.063 91-60.573 146.242-60.573 55.243 0 107.178 21.512 146.24 60.574 39.063 39.062 60.575 90.998 60.575 146.241 0 55.241-21.512 107.177-60.574 146.241-32.886 32.885-75.828 53.703-121.648 59.134v-48.9c5.073-3.488 8.41-9.327 8.41-15.935 0-2.213 1.525-4.166 3.707-4.749 41.095-10.972 69.796-48.374 69.796-90.956v-53.922c6.689-1.64 11.673-7.669 11.673-14.857v-20.194c0-8.443-6.868-15.312-15.311-15.312h-9.733v-81.662c0-10.343-8.415-18.759-18.758-18.759h-8.184c-10.343 0-18.758 8.415-18.758 18.759v81.662h-94.867v-81.662c0-10.343-8.415-18.759-18.758-18.759h-8.184c-10.343 0-18.759 8.415-18.759 18.759v81.662h-9.733c-8.443 0-15.311 6.869-15.311 15.312v20.194c0 7.187 4.984 13.217 11.673 14.857v25.119a7.287 7.287 0 1 0 14.574 0v-24.664h183.866v53.467c0 35.992-24.254 67.605-58.982 76.877-8.549 2.283-14.521 10.025-14.521 18.829 0 2.237-1.557 4.105-3.64 4.611-.085.02-.168.043-.254.059a4.73 4.73 0 0 1-.864.087h-27.344c-.295 0-.582-.035-.863-.087-.087-.016-.172-.039-.258-.06-2.082-.507-3.638-2.375-3.638-4.611 0-8.804-5.971-16.546-14.521-18.829-32.842-8.768-56.469-37.441-58.793-71.348-.276-4.015-3.75-7.054-7.768-6.771a7.286 7.286 0 0 0-6.771 7.768c2.75 40.126 30.71 74.056 69.573 84.432 2.183.583 3.707 2.536 3.707 4.749 0 6.609 3.337 12.448 8.411 15.936v74.932C231.408 500.968 242.44 512 256 512c68.38 0 132.668-26.629 181.019-74.982C485.371 388.667 512 324.38 512 256c0-68.381-26.629-132.668-74.981-181.019zm-119.012 39.907a4.19 4.19 0 0 1 4.185-4.185h8.184a4.19 4.19 0 0 1 4.185 4.185v81.662h-16.554v-81.662zm-140.569 0h.001a4.19 4.19 0 0 1 4.185-4.185h8.184a4.19 4.19 0 0 1 4.185 4.185v81.662h-16.555v-81.662zM156.78 232.794h-3.648a.739.739 0 0 1-.738-.739v-20.194c0-.408.331-.739.738-.739h205.735c.407 0 .738.331.738.739v20.194a.739.739 0 0 1-.738.739H156.78z"/></svg>