<svg xmlns="http://www.w3.org/2000/svg" viewBox="0 0 512 512"><path d="M392.533 281.6H409.6v76.8h-17.067zM332.8 307.2h17.067v51.2H332.8z"/><path d="M341.333 196.267a127.998 127.998 0 0 0-51.2 10.752v-61.952c0-9.426-7.641-17.067-17.067-17.067h-25.6V25.6c0-14.138-11.461-25.6-25.6-25.6h-8.533c-14.139 0-25.6 11.461-25.6 25.6V128h-42.667V25.6c0-14.138-11.461-25.6-25.6-25.6h-8.533c-14.138 0-25.6 11.461-25.6 25.6V128h-25.6c-9.426 0-17.067 7.641-17.067 17.067v102.4c0 32.99 26.744 59.733 59.733 59.733h59.733V384c0 1.365 0 34.133-34.133 34.133-27.269-1.008-50.192 20.28-51.2 47.549a49.387 49.387 0 0 0 0 3.651v34.133c0 4.713 3.82 8.533 8.533 8.533s8.533-3.82 8.533-8.533v-34.133c0-1.365 0-34.133 34.133-34.133 27.269 1.008 50.192-20.28 51.2-47.549a49.387 49.387 0 0 0 0-3.651v-76.8h35.413a129.795 129.795 0 0 0-1.28 17.067c0 70.692 57.308 128 128 128s128-57.308 128-128-57.305-128-127.998-128zM91.392 176.725a8.536 8.536 0 0 1-6.059 2.475 7.166 7.166 0 0 1-3.243-.683 8.539 8.539 0 0 1-2.816-1.792 12.755 12.755 0 0 1-1.877-2.816 8.526 8.526 0 0 1-.597-3.243 8.533 8.533 0 0 1 2.475-6.059 7.94 7.94 0 0 1 2.816-1.792 8.528 8.528 0 0 1 6.485 0 9.914 9.914 0 0 1 2.816 1.792 9.8 9.8 0 0 1 1.792 2.816 8.535 8.535 0 0 1-1.792 9.302zM102.4 25.6a8.533 8.533 0 0 1 8.533-8.533h8.533a8.533 8.533 0 0 1 8.533 8.533V128h-25.6V25.6zm0 145.067a8.533 8.533 0 0 1 8.533-8.533h25.6c4.713 0 8.533 3.82 8.533 8.533s-3.82 8.533-8.533 8.533h-25.6a8.533 8.533 0 0 1-8.533-8.533zm82.743 95.497a8.534 8.534 0 0 1-12.685-1.631l-41.387-54.187a8.533 8.533 0 0 1 6.742-14.08h29.44l-7.936-23.125a8.533 8.533 0 0 1 16.128-5.547l11.776 34.133a8.532 8.532 0 0 1-8.021 11.605h-24.064l30.805 40.789a8.534 8.534 0 0 1-.798 12.043zM230.4 128h-25.6V25.6a8.533 8.533 0 0 1 8.533-8.533h8.533a8.533 8.533 0 0 1 8.533 8.533V128zm76.8 238.933a8.533 8.533 0 0 1-8.533 8.533h-34.133a8.533 8.533 0 0 1-8.533-8.533V332.8c0-9.426 7.641-17.067 17.067-17.067h17.067c9.426 0 17.067 7.641 17.067 17.067v34.133zm59.733 0a8.533 8.533 0 0 1-8.533 8.533h-34.133a8.533 8.533 0 0 1-8.533-8.533V307.2c0-9.426 7.641-17.067 17.067-17.067h17.067c9.426 0 17.067 7.641 17.067 17.067v59.733zm59.734 0a8.533 8.533 0 0 1-8.533 8.533H384a8.533 8.533 0 0 1-8.533-8.533V281.6c0-9.426 7.641-17.067 17.067-17.067H409.6c9.426 0 17.067 7.641 17.067 17.067v85.333z"/><path d="M273.067 332.8h17.067v25.6h-17.067z"/></svg>