<svg xmlns="http://www.w3.org/2000/svg" viewBox="0 0 512 512"><path d="M324.437 256l6.059 76.8h21.675l6.144-77.141zM345.856 384h-9.045a4.011 4.011 0 0 0-4.011 4.011v9.045a4.011 4.011 0 0 0 4.011 4.011h9.045a4.011 4.011 0 0 0 4.011-4.011v-9.045a4.011 4.011 0 0 0-4.011-4.011z"/><path d="M341.333 196.267a127.998 127.998 0 0 0-51.2 10.752v-61.952c0-9.426-7.641-17.067-17.067-17.067h-25.6V25.6c0-14.138-11.461-25.6-25.6-25.6h-8.533c-14.139 0-25.6 11.461-25.6 25.6V128h-42.667V25.6c0-14.138-11.461-25.6-25.6-25.6h-8.533c-14.138 0-25.6 11.461-25.6 25.6V128h-25.6c-9.426 0-17.067 7.641-17.067 17.067v102.4c0 32.99 26.744 59.733 59.733 59.733h59.733V384c0 1.365 0 34.133-34.133 34.133-27.269-1.008-50.192 20.28-51.2 47.549a49.387 49.387 0 0 0 0 3.651v34.133c0 4.713 3.82 8.533 8.533 8.533s8.533-3.82 8.533-8.533v-34.133c0-1.365 0-34.133 34.133-34.133 27.269 1.008 50.192-20.28 51.2-47.549a49.387 49.387 0 0 0 0-3.651v-76.8h35.413a129.795 129.795 0 0 0-1.28 17.067c0 70.692 57.308 128 128 128s128-57.308 128-128-57.305-128-127.998-128zM93.184 173.909a9.914 9.914 0 0 1-1.792 2.816 8.533 8.533 0 0 1-12.068.049l-.049-.049a9.928 9.928 0 0 1-1.792-2.816 8.02 8.02 0 0 1 0-6.485 7.68 7.68 0 0 1 4.608-4.608 8.537 8.537 0 0 1 6.485 0 9.914 9.914 0 0 1 2.816 1.792 9.8 9.8 0 0 1 1.792 2.816 8.02 8.02 0 0 1 0 6.485zM102.4 25.6a8.533 8.533 0 0 1 8.533-8.533h8.533a8.533 8.533 0 0 1 8.533 8.533V128h-25.6V25.6zm0 145.067a8.533 8.533 0 0 1 8.533-8.533h25.6c4.713 0 8.533 3.82 8.533 8.533s-3.82 8.533-8.533 8.533h-25.6a8.533 8.533 0 0 1-8.533-8.533zm82.743 95.497a8.534 8.534 0 0 1-12.685-1.631l-41.387-54.187a8.533 8.533 0 0 1 6.742-14.08h29.44l-7.936-23.125a8.533 8.533 0 0 1 16.128-5.547l11.776 34.133a8.532 8.532 0 0 1-8.021 11.605h-24.064l30.805 40.789a8.534 8.534 0 0 1-.798 12.043zM230.4 128h-25.6V25.6a8.533 8.533 0 0 1 8.533-8.533h8.533a8.533 8.533 0 0 1 8.533 8.533V128zm136.533 269.056c-.047 11.621-9.456 21.031-21.077 21.077h-9.045c-11.621-.047-21.031-9.456-21.077-21.077v-9.045c.047-11.621 9.456-21.031 21.077-21.077h8.96c11.655 0 21.116 9.423 21.163 21.077v9.045zM375.467 256l-6.4 79.616c-.837 8.16-7.755 14.338-15.957 14.251h-23.552c-8.202.087-15.12-6.091-15.957-14.251L307.2 256a15.19 15.19 0 0 1 4.011-11.52 16.212 16.212 0 0 1 11.947-5.205h36.267a16.216 16.216 0 0 1 11.947 5.205 15.199 15.199 0 0 1 4.095 11.52z"/></svg>