<svg xmlns="http://www.w3.org/2000/svg" viewBox="0 0 512 512"><path d="M102.4 307.2v25.6H128a8.533 8.533 0 0 1 17.066 0h17.067a8.533 8.533 0 0 1 17.066 0h17.067a8.533 8.533 0 0 1 17.066 0H230.4a8.533 8.533 0 0 1 17.066 0h25.6v-25.6H102.4zM102.4 349.867h170.667v17.067H102.4z"/><path d="M384 0c-63.554.241-117.4 46.871-126.72 109.739A132.808 132.808 0 0 0 256 128v8.533H34.133C15.282 136.533 0 151.815 0 170.667v307.2C0 496.718 15.282 512 34.133 512h307.2c18.851 0 34.133-15.282 34.133-34.133V256h8.533c70.692 0 128-57.308 128-128S454.692 0 384 0zM51.2 196.267h-8.533c-4.713 0-8.533-3.82-8.533-8.533s3.82-8.533 8.533-8.533H51.2c4.713 0 8.533 3.82 8.533 8.533s-3.82 8.533-8.533 8.533zm25.6-8.534a8.533 8.533 0 0 1 8.533-8.533h102.4c4.713 0 8.533 3.82 8.533 8.533s-3.82 8.533-8.533 8.533h-102.4a8.532 8.532 0 0 1-8.533-8.533zm213.333 179.2c0 9.426-7.641 17.067-17.067 17.067H102.4c-9.426 0-17.067-7.641-17.067-17.067V307.2c0-9.426 7.641-17.067 17.067-17.067h170.667c9.426 0 17.067 7.641 17.067 17.067v59.733zm135.68-196.266a45.219 45.219 0 0 1-4.608 4.096c-1.792 1.365-3.328 2.475-5.035 3.584l-2.816 1.621a58.967 58.967 0 0 1-58.88 0l-2.304-1.28a59.675 59.675 0 0 1-5.205-3.669 45.988 45.988 0 0 1-4.352-3.84A59.223 59.223 0 0 1 324.266 128a58.464 58.464 0 0 1 5.717-25.6c14.084-29.832 49.686-42.598 79.518-28.514a59.733 59.733 0 0 1 28.514 28.514c10.911 23.029 6.011 50.444-12.202 68.267z"/><path d="M422.315 109.739A42.666 42.666 0 0 0 384 85.334a42.666 42.666 0 0 0-38.656 24.576 41.57 41.57 0 0 0-4.011 18.091 42.667 42.667 0 0 0 13.397 30.976 29.24 29.24 0 0 0 2.901 2.475c1.109.853 2.133 1.621 3.499 2.475l1.963 1.109a41.982 41.982 0 0 0 41.728 0l2.475-1.451 3.413-2.475a30.846 30.846 0 0 0 3.072-2.731c12.892-12.753 16.314-32.261 8.534-48.64zm-29.782 35.328a8.533 8.533 0 0 1-17.066 0v-34.133c0-4.713 3.82-8.533 8.533-8.533s8.533 3.82 8.533 8.533v34.133z"/></svg>