<svg xmlns="http://www.w3.org/2000/svg" viewBox="0 0 512 512"><path d="M238.933 384h51.2v17.067h-51.2zM85.333 384h51.2v17.067h-51.2zM179.2 238.933h17.067v85.333H179.2zM422.571 109.824A42.666 42.666 0 0 0 384 85.333a43.093 43.093 0 0 0-38.656 24.576A41.57 41.57 0 0 0 341.333 128a42.667 42.667 0 0 0 13.397 30.976 32.109 32.109 0 0 0 2.901 2.475l3.499 2.475 1.963 1.109a41.982 41.982 0 0 0 41.728 0l2.475-1.451 3.413-2.475a31.085 31.085 0 0 0 3.072-2.731 42.664 42.664 0 0 0 12.885-30.379 41.795 41.795 0 0 0-4.095-18.175zm-30.038 35.243a8.533 8.533 0 0 1-17.066 0v-34.133c0-4.713 3.82-8.533 8.533-8.533s8.533 3.82 8.533 8.533v34.133z"/><path d="M384 0c-63.554.241-117.4 46.871-126.72 109.739A133.45 133.45 0 0 0 256 128v8.533H34.133C15.282 136.533 0 151.815 0 170.667v307.2C0 496.718 15.282 512 34.133 512h307.2c18.851 0 34.133-15.282 34.133-34.133V256h8.533c70.692 0 128-57.308 128-128S454.692 0 384 0zM85.333 179.2h102.4c4.713 0 8.533 3.82 8.533 8.533s-3.82 8.533-8.533 8.533h-102.4c-4.713 0-8.533-3.82-8.533-8.533s3.82-8.533 8.533-8.533zM51.2 196.267h-8.533c-4.713 0-8.533-3.82-8.533-8.533s3.82-8.533 8.533-8.533H51.2c4.713 0 8.533 3.82 8.533 8.533s-3.82 8.533-8.533 8.533zM153.6 409.6a8.533 8.533 0 0 1-8.533 8.533H76.8a8.533 8.533 0 0 1-8.533-8.533v-34.133a8.533 8.533 0 0 1 8.533-8.533h68.267a8.533 8.533 0 0 1 8.533 8.533V409.6zm59.733-76.8a8.533 8.533 0 0 1-8.533 8.533h-34.133a8.533 8.533 0 0 1-8.533-8.533V230.4a8.533 8.533 0 0 1 8.533-8.533H204.8a8.533 8.533 0 0 1 8.533 8.533v102.4zm93.867 76.8a8.533 8.533 0 0 1-8.533 8.533H230.4a8.533 8.533 0 0 1-8.533-8.533v-34.133a8.533 8.533 0 0 1 8.533-8.533h68.267a8.533 8.533 0 0 1 8.533 8.533V409.6zm118.613-238.933a45.112 45.112 0 0 1-4.608 4.096c-1.792 1.365-3.328 2.56-5.035 3.584l-2.816 1.621a58.967 58.967 0 0 1-58.88 0l-2.304-1.28a61.473 61.473 0 0 1-5.12-3.584 46.135 46.135 0 0 1-4.352-3.755A59.734 59.734 0 0 1 324.266 128a58.464 58.464 0 0 1 5.717-25.6c14.084-29.832 49.686-42.598 79.518-28.514a59.733 59.733 0 0 1 28.514 28.514c10.911 23.029 6.011 50.444-12.202 68.267z"/></svg>