<svg xmlns="http://www.w3.org/2000/svg" viewBox="0 0 512 512"><path d="M102.4 349.867h170.667v17.067H102.4zM102.4 307.2v25.6H128a8.533 8.533 0 0 1 17.066 0h17.067a8.533 8.533 0 0 1 17.066 0h17.067a8.533 8.533 0 0 1 17.066 0H230.4a8.533 8.533 0 0 1 17.066 0h25.6v-25.6H102.4z"/><path d="M384 0c-63.554.241-117.4 46.871-126.72 109.739A132.808 132.808 0 0 0 256 128v8.533H34.133C15.282 136.533 0 151.815 0 170.667v307.2C0 496.718 15.282 512 34.133 512h307.2c18.851 0 34.133-15.282 34.133-34.133V256h8.533c70.692 0 128-57.308 128-128S454.692 0 384 0zM51.2 196.267h-8.533c-4.713 0-8.533-3.82-8.533-8.533s3.82-8.533 8.533-8.533H51.2c4.713 0 8.533 3.82 8.533 8.533s-3.82 8.533-8.533 8.533zm25.6-8.534a8.533 8.533 0 0 1 8.533-8.533h102.4c4.713 0 8.533 3.82 8.533 8.533s-3.82 8.533-8.533 8.533h-102.4a8.532 8.532 0 0 1-8.533-8.533zm213.333 179.2c0 9.426-7.641 17.067-17.067 17.067H102.4c-9.426 0-17.067-7.641-17.067-17.067V307.2c0-9.426 7.641-17.067 17.067-17.067h170.667c9.426 0 17.067 7.641 17.067 17.067v59.733zm85.334-298.666c0-4.713 3.82-8.533 8.533-8.533s8.533 3.82 8.533 8.533V102.4c0 4.713-3.82 8.533-8.533 8.533s-8.533-3.82-8.533-8.533V68.267zm50.346 102.4a45.219 45.219 0 0 1-4.608 4.096c-1.792 1.365-3.328 2.475-5.035 3.584l-2.816 1.621a58.967 58.967 0 0 1-58.88 0l-2.304-1.28a59.675 59.675 0 0 1-5.205-3.669 45.988 45.988 0 0 1-4.352-3.84A59.223 59.223 0 0 1 324.266 128a58.464 58.464 0 0 1 5.717-25.6 59.74 59.74 0 0 1 24.149-26.027 8.533 8.533 0 0 1 11.779 2.624 8.533 8.533 0 0 1-3.246 12.139 43.093 43.093 0 0 0-17.067 18.773A41.555 41.555 0 0 0 341.331 128a42.667 42.667 0 0 0 13.397 30.976 29.24 29.24 0 0 0 2.901 2.475c1.109.853 2.133 1.621 3.499 2.475l1.963 1.109a41.982 41.982 0 0 0 41.728 0l2.475-1.451 3.413-2.475a30.846 30.846 0 0 0 3.072-2.731c12.891-12.753 16.314-32.261 8.533-48.64a42.668 42.668 0 0 0-17.067-18.688 8.532 8.532 0 0 1-2.623-11.779 8.533 8.533 0 0 1 11.157-2.983 59.74 59.74 0 0 1 24.235 26.112c10.912 23.029 6.012 50.444-12.201 68.267z"/></svg>