<svg xmlns="http://www.w3.org/2000/svg" viewBox="0 0 512 512"><path d="M337.323 0H174.677c-21.066 0-38.144 17.078-38.144 38.144v55.723h238.933V38.144C375.467 17.078 358.389 0 337.323 0zM358.4 76.8H153.6V38.144c0-11.641 9.437-21.077 21.077-21.077h162.645c11.641 0 21.077 9.437 21.077 21.077V76.8zM136.533 307.2v98.389c0 21.066 17.078 38.144 38.144 38.144h162.645c21.066 0 38.144-17.078 38.144-38.144V307.2H136.533zM358.4 405.589c0 11.641-9.437 21.077-21.077 21.077H174.677c-11.641 0-21.077-9.437-21.077-21.077v-81.323h204.8v81.323z"/><path d="M256 341.333c-18.851 0-34.133 15.282-34.133 34.133S237.149 409.6 256 409.6c18.851 0 34.133-15.282 34.133-34.133S274.851 341.333 256 341.333zm0 51.2c-9.426 0-17.067-7.641-17.067-17.067S246.574 358.4 256 358.4s17.067 7.641 17.067 17.067-7.641 17.066-17.067 17.066zM136.533 76.8v247.467h238.933V76.8H136.533zM358.4 307.2H153.6V93.867h204.8V307.2zM278.187 36.949h-44.373c-4.713 0-8.533 3.82-8.533 8.533s3.82 8.533 8.533 8.533h44.373a8.533 8.533 0 0 0 0-17.066z"/><path d="M452.267 332.8h-85.333v17.067h85.333c14.138 0 25.6 11.461 25.6 25.6v119.467H34.133V375.467c0-14.138 11.461-25.6 25.6-25.6h76.8V332.8h-76.8c-23.564 0-42.667 19.103-42.667 42.667v119.467c0 9.426 7.641 17.067 17.067 17.067h443.733c9.426 0 17.067-7.641 17.067-17.067V375.467c0-23.564-19.102-42.667-42.666-42.667z"/><path d="M213.333 460.8h-17.067c-4.713 0-8.533 3.82-8.533 8.533s3.82 8.533 8.533 8.533h17.067c4.713 0 8.533-3.82 8.533-8.533s-3.82-8.533-8.533-8.533zM264.533 460.8h-17.067c-4.713 0-8.533 3.82-8.533 8.533s3.82 8.533 8.533 8.533h17.067c4.713 0 8.533-3.82 8.533-8.533s-3.82-8.533-8.533-8.533zM315.733 460.8h-17.067c-4.713 0-8.533 3.82-8.533 8.533s3.82 8.533 8.533 8.533h17.067c4.713 0 8.533-3.82 8.533-8.533s-3.82-8.533-8.533-8.533zM298.667 170.667h-85.333c-9.426 0-17.067 7.641-17.067 17.067v34.133c0 14.138 11.462 25.6 25.6 25.6h68.267c14.138 0 25.6-11.461 25.6-25.6v-34.133c-.001-9.426-7.642-17.067-17.067-17.067zm0 51.2a8.533 8.533 0 0 1-8.533 8.533h-68.267a8.533 8.533 0 0 1-8.533-8.533v-34.133h85.333v34.133z"/><path d="M230.4 119.467a8.533 8.533 0 0 0-8.533 8.533v51.2c0 4.713 3.82 8.533 8.533 8.533s8.533-3.82 8.533-8.533V128a8.533 8.533 0 0 0-8.533-8.533zM281.6 119.467a8.533 8.533 0 0 0-8.533 8.533v51.2c0 4.713 3.82 8.533 8.533 8.533s8.533-3.82 8.533-8.533V128a8.533 8.533 0 0 0-8.533-8.533zM256 230.4a8.533 8.533 0 0 0-8.533 8.533V307.2c0 4.713 3.82 8.533 8.533 8.533s8.533-3.82 8.533-8.533v-68.267A8.533 8.533 0 0 0 256 230.4zM179.2 426.667h-59.733c-4.713 0-8.533 3.82-8.533 8.533s3.82 8.533 8.533 8.533H179.2c4.713 0 8.533-3.82 8.533-8.533s-3.82-8.533-8.533-8.533zM392.533 426.667H332.8a8.533 8.533 0 0 0 0 17.066h59.733c4.713 0 8.533-3.82 8.533-8.533s-3.82-8.533-8.533-8.533zM93.867 426.667h-8.533c-4.713 0-8.533 3.82-8.533 8.533s3.82 8.533 8.533 8.533h8.533c4.713 0 8.533-3.82 8.533-8.533s-3.82-8.533-8.533-8.533zM426.667 426.667h-8.533c-4.713 0-8.533 3.82-8.533 8.533s3.82 8.533 8.533 8.533h8.533c4.713 0 8.533-3.82 8.533-8.533s-3.82-8.533-8.533-8.533z"/></svg>