<svg xmlns="http://www.w3.org/2000/svg" viewBox="0 0 512.001 512.001"><path d="M291.67 212.907c-33.837-28.419-47.581-74.21-34.987-116.565a8.533 8.533 0 0 0-8.533-11.008H64.001c-23.564 0-42.667 19.103-42.667 42.667v341.333c0 23.564 19.102 42.667 42.667 42.667h187.733l.343.001c23.564-.001 42.666-19.104 42.665-42.668V219.477a8.533 8.533 0 0 0-3.072-6.57zm-14.336 256.426c0 14.138-11.462 25.6-25.6 25.6H64.001c-14.138 0-25.6-11.461-25.6-25.6V128c0-14.138 11.461-25.6 25.6-25.6h173.227c-9.063 44.569 6.205 90.599 40.107 120.917v246.016z"/><path d="M157.867 119.467c-32.99 0-59.733 26.744-59.733 59.733s26.744 59.733 59.733 59.733S217.6 212.189 217.6 179.2s-26.743-59.733-59.733-59.733zm0 102.4c-23.564 0-42.667-19.103-42.667-42.667s19.103-42.667 42.667-42.667 42.667 19.103 42.667 42.667-19.102 42.667-42.667 42.667zM157.867 264.533c-56.554 0-102.4 45.846-102.4 102.4s45.846 102.4 102.4 102.4 102.4-45.846 102.4-102.4-45.846-102.4-102.4-102.4zm0 187.734c-47.128 0-85.333-38.205-85.333-85.333s38.205-85.333 85.333-85.333 85.333 38.205 85.333 85.333-38.204 85.333-85.333 85.333z"/><path d="M157.867 332.8c-18.851 0-34.133 15.282-34.133 34.133s15.282 34.133 34.133 34.133S192 385.784 192 366.933 176.719 332.8 157.867 332.8zm0 51.2c-9.426 0-17.067-7.641-17.067-17.067s7.641-17.067 17.067-17.067 17.067 7.641 17.067 17.067S167.293 384 157.867 384zM163.926 173.141a9.8 9.8 0 0 0-2.816-1.792 8.534 8.534 0 0 0-9.301 1.792 8.964 8.964 0 0 0-2.475 6.059 8.513 8.513 0 0 0 .683 3.243 9.914 9.914 0 0 0 1.792 2.816 8.534 8.534 0 0 0 6.059 2.475 8.533 8.533 0 0 0 6.059-2.475 8.534 8.534 0 0 0 2.475-6.059 8.973 8.973 0 0 0-2.476-6.059zM362.667 0c-70.692 0-128 57.308-128 128s57.308 128 128 128 128-57.308 128-128-57.307-128-128-128zm0 238.933c-61.267 0-110.933-49.667-110.933-110.933S301.401 17.067 362.667 17.067 473.601 66.733 473.601 128s-49.667 110.933-110.934 110.933z"/><path d="M337.067 76.8H320c-9.426 0-17.067 7.641-17.067 17.067v68.267c0 9.426 7.641 17.067 17.067 17.067h17.067c9.426 0 17.067-7.641 17.067-17.067V93.867c0-9.426-7.641-17.067-17.067-17.067zm0 85.333H320V93.867h17.067v68.266zM405.334 76.8h-17.067c-9.426 0-17.067 7.641-17.067 17.067v68.267c0 9.426 7.641 17.067 17.067 17.067h17.067c9.426 0 17.067-7.641 17.067-17.067V93.867c0-9.426-7.641-17.067-17.067-17.067zm0 85.333h-17.067V93.867h17.067v68.266z"/></svg>