<svg xmlns="http://www.w3.org/2000/svg" viewBox="0 0 512.001 512.001"><path d="M291.67 212.907c-33.837-28.419-47.581-74.21-34.987-116.565a8.533 8.533 0 0 0-8.533-11.008H64.001c-23.564 0-42.667 19.103-42.667 42.667v341.333c0 23.564 19.102 42.667 42.667 42.667h187.733l.343.001c23.564-.001 42.666-19.104 42.665-42.668V219.477a8.533 8.533 0 0 0-3.072-6.57zm-14.336 256.426c0 14.138-11.462 25.6-25.6 25.6H64.001c-14.138 0-25.6-11.461-25.6-25.6V128c0-14.138 11.461-25.6 25.6-25.6h173.227c-9.063 44.569 6.205 90.599 40.107 120.917v246.016z"/><path d="M157.867 119.467c-32.99 0-59.733 26.744-59.733 59.733s26.744 59.733 59.733 59.733S217.6 212.189 217.6 179.2s-26.743-59.733-59.733-59.733zm0 102.4c-23.564 0-42.667-19.103-42.667-42.667s19.103-42.667 42.667-42.667 42.667 19.103 42.667 42.667-19.102 42.667-42.667 42.667zM157.867 264.533c-56.554 0-102.4 45.846-102.4 102.4s45.846 102.4 102.4 102.4 102.4-45.846 102.4-102.4-45.846-102.4-102.4-102.4zm0 187.734c-47.128 0-85.333-38.205-85.333-85.333s38.205-85.333 85.333-85.333 85.333 38.205 85.333 85.333-38.204 85.333-85.333 85.333z"/><path d="M157.867 332.8c-18.851 0-34.133 15.282-34.133 34.133s15.282 34.133 34.133 34.133S192 385.784 192 366.933 176.719 332.8 157.867 332.8zm0 51.2c-9.426 0-17.067-7.641-17.067-17.067s7.641-17.067 17.067-17.067 17.067 7.641 17.067 17.067S167.293 384 157.867 384zM163.926 173.141a8.534 8.534 0 0 0-9.301-1.792 8.539 8.539 0 0 0-2.816 1.792 8.534 8.534 0 0 0-2.475 6.059 8.513 8.513 0 0 0 .683 3.243 9.914 9.914 0 0 0 1.792 2.816 8.534 8.534 0 0 0 6.059 2.475 8.533 8.533 0 0 0 6.059-2.475 9.914 9.914 0 0 0 1.792-2.816 8.55 8.55 0 0 0 .683-3.243 8.973 8.973 0 0 0-2.476-6.059zM362.667 0c-70.692 0-128 57.308-128 128s57.308 128 128 128 128-57.308 128-128-57.307-128-128-128zm0 238.933c-61.267 0-110.933-49.667-110.933-110.933S301.401 17.067 362.667 17.067 473.601 66.733 473.601 128s-49.667 110.933-110.934 110.933z"/><path d="M362.667 53.675a13.652 13.652 0 0 0-14.421 1.963l-13.568 11.776-26.709 26.453h-25.09c-7.87.095-14.173 6.551-14.078 14.421v39.426c-.094 7.87 6.21 14.326 14.08 14.419h25.003l27.392 27.904 13.312 11.52a13.827 13.827 0 0 0 8.533 3.243 13.75 13.75 0 0 0 5.547-1.28 14.335 14.335 0 0 0 8.533-13.141V66.816a14.25 14.25 0 0 0-8.534-13.141zm-8.533 130.389l-7.339-6.4-29.184-30.037a8.535 8.535 0 0 0-6.144-2.56h-25.6v-34.133h25.6a8.527 8.527 0 0 0 5.973-2.475l28.757-28.501 7.936-6.827v110.933zM400.47 93.867a8.533 8.533 0 0 0-12.993 4.528 8.533 8.533 0 0 0 5.654 10.662 21.766 21.766 0 0 1 9.969 9.969c5.287 10.792.824 23.827-9.969 29.114a8.532 8.532 0 0 0 3.669 16.213 8.539 8.539 0 0 0 3.669-.512 38.833 38.833 0 0 0 18.151-18.151c9.299-19.323 1.173-42.525-18.15-51.823z"/><path d="M414.891 68.864a8.551 8.551 0 0 0-6.571 15.787A48.043 48.043 0 0 1 439.467 128a48.042 48.042 0 0 1-31.147 43.349 8.534 8.534 0 0 0 3.242 16.384 8.513 8.513 0 0 0 3.243-.683c24.58-9.422 41.054-32.735 41.728-59.051-.625-26.325-17.067-49.674-41.642-59.135z"/></svg>