<svg xmlns="http://www.w3.org/2000/svg" viewBox="0 0 512 512"><path d="M349.867 0H162.133c-23.564 0-42.667 19.103-42.667 42.667V102.4h273.067V42.667C392.533 19.103 373.431 0 349.867 0zm25.6 85.333H136.533V42.667c0-14.138 11.462-25.6 25.6-25.6h187.733c14.138 0 25.6 11.462 25.6 25.6v42.666zM119.467 358.4v110.933c0 23.564 19.103 42.667 42.667 42.667h187.733c23.564 0 42.667-19.102 42.667-42.667V358.4H119.467zm256 110.933c0 14.138-11.461 25.6-25.6 25.6H162.133c-14.138 0-25.6-11.461-25.6-25.6v-93.867h238.933v93.867z"/><path d="M256 392.533c-23.564 0-42.667 19.103-42.667 42.667s19.102 42.667 42.667 42.667 42.667-19.103 42.667-42.667-19.103-42.667-42.667-42.667zm0 68.267c-14.138 0-25.6-11.462-25.6-25.6s11.461-25.6 25.6-25.6 25.6 11.461 25.6 25.6-11.462 25.6-25.6 25.6zM119.467 85.333v290.133h273.067V85.333H119.467zm256 273.067H136.533v-256h238.933v256zM281.6 42.667h-51.2c-4.713 0-8.533 3.82-8.533 8.533s3.82 8.533 8.533 8.533h51.2c4.713 0 8.533-3.82 8.533-8.533s-3.82-8.533-8.533-8.533z"/><path d="M338.517 215.467l-76.8-68.267a8.534 8.534 0 0 0-11.349 0l-76.8 68.267a8.533 8.533 0 0 0 5.632 14.934h8.533v68.267a8.533 8.533 0 0 0 8.533 8.533h42.667a8.533 8.533 0 0 0 8.533-8.533v-34.133h17.067v34.133a8.533 8.533 0 0 0 8.533 8.533h42.667a8.533 8.533 0 0 0 8.533-8.533V230.4h8.533a8.532 8.532 0 0 0 5.718-14.933zm-31.317 6.4v68.267h-25.6V256a8.533 8.533 0 0 0-8.533-8.533h-34.133a8.533 8.533 0 0 0-8.533 8.533v34.133h-25.6v-68.267a8.53 8.53 0 0 0-4.352-7.424L256 165.035l55.552 49.408a8.53 8.53 0 0 0-4.352 7.424z"/></svg>