<svg xmlns="http://www.w3.org/2000/svg" viewBox="0 0 512 512"><path d="M338.517 160l-76.8-68.267a8.534 8.534 0 0 0-11.349 0L173.568 160a8.533 8.533 0 0 0 5.632 14.934h8.533V243.2a8.533 8.533 0 0 0 8.533 8.533h42.667a8.533 8.533 0 0 0 8.533-8.533v-34.133h17.067V243.2a8.533 8.533 0 0 0 8.533 8.533h42.667a8.533 8.533 0 0 0 8.533-8.533v-68.267h8.533A8.532 8.532 0 0 0 338.517 160zm-31.317 6.4v68.267h-25.6v-34.133a8.533 8.533 0 0 0-8.533-8.533h-34.133a8.533 8.533 0 0 0-8.533 8.533v34.133h-25.6V166.4a8.532 8.532 0 0 0-4.352-7.424L256 109.568l55.552 49.408a8.532 8.532 0 0 0-4.352 7.424z"/><path d="M469.333 21.333H42.667C19.103 21.333 0 40.436 0 64v238.933a8.533 8.533 0 0 0 8.533 8.533h494.933a8.533 8.533 0 0 0 8.533-8.533V64c.001-23.564-19.101-42.667-42.666-42.667zm25.6 273.067H17.067V64c0-14.138 11.462-25.6 25.6-25.6h426.667c14.138 0 25.6 11.461 25.6 25.6v230.4z"/><path d="M503.467 294.4H8.533A8.533 8.533 0 0 0 0 302.933v51.2C0 377.698 19.103 396.8 42.667 396.8h426.667c23.564 0 42.667-19.103 42.667-42.667v-51.2a8.535 8.535 0 0 0-8.534-8.533zm-8.534 59.733c0 14.138-11.461 25.6-25.6 25.6H42.667c-14.138 0-25.6-11.462-25.6-25.6v-42.667h477.867v42.667z"/><path d="M332.203 442.88a93.863 93.863 0 0 1-16.469-54.613 8.533 8.533 0 0 0-8.533-8.533H204.8a8.533 8.533 0 0 0-8.533 8.533 93.875 93.875 0 0 1-16.213 54.443 8.533 8.533 0 0 0 6.741 13.824h138.411a8.535 8.535 0 0 0 6.997-13.654zm-130.048-3.413a115.903 115.903 0 0 0 11.179-42.667h85.333a116.036 116.036 0 0 0 11.179 42.667H202.155z"/><path d="M426.667 439.467H85.333c-14.138 0-25.6 11.461-25.6 25.6s11.461 25.6 25.6 25.6h341.333c14.138 0 25.6-11.461 25.6-25.6s-11.461-25.6-25.599-25.6zm0 34.133H85.333c-4.713 0-8.533-3.82-8.533-8.533s3.82-8.533 8.533-8.533h341.333c4.713 0 8.533 3.82 8.533 8.533s-3.819 8.533-8.532 8.533zM51.2 55.467h-8.533c-4.713 0-8.533 3.82-8.533 8.533s3.82 8.533 8.533 8.533H51.2a8.533 8.533 0 0 0 0-17.066zM204.8 55.467H85.333c-4.713 0-8.533 3.82-8.533 8.533s3.82 8.533 8.533 8.533H204.8a8.533 8.533 0 0 0 0-17.066zM264.533 337.067h-17.067c-4.713 0-8.533 3.82-8.533 8.533s3.82 8.533 8.533 8.533h17.067c4.713 0 8.533-3.82 8.533-8.533s-3.82-8.533-8.533-8.533z"/></svg>