<svg xmlns="http://www.w3.org/2000/svg" viewBox="0 0 512.115 512.115"><path d="M477.924 128.085h-102.4a8.533 8.533 0 0 0-8.533 8.021 108.26 108.26 0 0 1-7.595 31.573 110.93 110.93 0 0 1-26.112 39.68 93.862 93.862 0 0 1-8.96 7.851 115.21 115.21 0 0 1-10.837 6.997l-2.731 1.536c-34.356 19.694-76.578 19.694-110.933 0l-2.304-1.28a114.49 114.49 0 0 1-10.411-7.253 94.513 94.513 0 0 1-8.96-7.851 110.935 110.935 0 0 1-26.027-39.595 108.342 108.342 0 0 1-6.997-31.659 8.532 8.532 0 0 0-8.533-8.021h-102.4c-18.851 0-34.133 15.282-34.133 34.133v281.6c0 18.851 15.282 34.133 34.133 34.133h443.733c18.851 0 34.133-15.282 34.133-34.133v-281.6c.001-18.85-15.281-34.132-34.133-34.132zm17.067 315.733c0 9.426-7.641 17.067-17.067 17.067H34.191c-9.426 0-17.067-7.641-17.067-17.067v-281.6c0-9.426 7.641-17.067 17.067-17.067h94.976a127.145 127.145 0 0 0 36.864 74.581 110.951 110.951 0 0 0 10.496 9.216 130.343 130.343 0 0 0 11.776 8.533l3.243 1.877c39.556 23.042 88.444 23.042 128 0a42.151 42.151 0 0 0 3.669-2.133 131.33 131.33 0 0 0 11.861-8.533 109.635 109.635 0 0 0 10.496-9.216 127.144 127.144 0 0 0 37.376-74.325h94.976c9.426 0 17.067 7.641 17.067 17.067v281.6z"/><path d="M230.458 469.418c0-4.713-3.82-8.533-8.533-8.533s-8.533 3.82-8.533 8.533c.047.876.047 1.755 0 2.631-.727 13.412-12.188 23.695-25.6 22.969-4.713 0-8.533 3.82-8.533 8.533s3.82 8.533 8.533 8.533c1.044.04 2.088.04 3.132 0 22.698-.864 40.399-19.966 39.534-42.666zM324.324 495.018c-.876.047-1.755.047-2.631 0-13.412-.727-23.695-12.188-22.969-25.6 0-4.713-3.82-8.533-8.533-8.533s-8.533 3.82-8.533 8.533a40.888 40.888 0 0 0 0 3.132c.865 22.699 19.967 40.4 42.667 39.535a8.534 8.534 0 0 0-.001-17.067zM460.858 162.218h-93.525a8.534 8.534 0 0 0-7.936 5.461 110.93 110.93 0 0 1-26.112 39.68 93.862 93.862 0 0 1-8.96 7.851 115.128 115.128 0 0 1-10.496 6.912l-2.731 1.536c-34.356 19.694-76.578 19.694-110.933 0l-2.304-1.28a114.49 114.49 0 0 1-10.411-7.253 94.513 94.513 0 0 1-8.96-7.851 110.924 110.924 0 0 1-26.112-39.595 8.534 8.534 0 0 0-7.936-5.461H51.258c-9.426 0-17.067 7.641-17.067 17.067v221.867c0 9.426 7.641 17.067 17.067 17.067h409.6c9.426 0 17.067-7.641 17.067-17.067V179.285c-.001-9.426-7.642-17.067-17.067-17.067zm0 238.934h-409.6V179.285h87.467a127.493 127.493 0 0 0 27.307 40.448 110.951 110.951 0 0 0 10.496 9.216 130.343 130.343 0 0 0 11.776 8.533l3.243 1.877c39.556 23.042 88.444 23.042 128 0a42.151 42.151 0 0 0 3.669-2.133 131.33 131.33 0 0 0 11.861-8.533 109.635 109.635 0 0 0 10.496-9.216 127.995 127.995 0 0 0 27.819-40.192h87.467v221.867z"/><path d="M392.591 495.018H119.524c-4.713 0-8.533 3.82-8.533 8.533s3.82 8.533 8.533 8.533h273.067c4.713 0 8.533-3.82 8.533-8.533s-3.82-8.533-8.533-8.533zM85.391 196.352h-8.533c-4.713 0-8.533 3.82-8.533 8.533s3.82 8.533 8.533 8.533h8.533a8.533 8.533 0 0 0 0-17.066zM162.191 196.352h-42.667c-4.713 0-8.533 3.82-8.533 8.533s3.82 8.533 8.533 8.533h42.667a8.533 8.533 0 0 0 0-17.066z"/><path d="M371.77 73.216a127.997 127.997 0 0 0-60.855-60.855c-63.882-30.273-140.211-3.027-170.484 60.855a126.37 126.37 0 0 0-12.373 54.869v9.045a125.51 125.51 0 0 0 8.533 36.693 127.494 127.494 0 0 0 29.867 45.568 111.093 111.093 0 0 0 10.496 9.216 130.343 130.343 0 0 0 11.776 8.533l3.243 1.877a126.547 126.547 0 0 0 64.085 17.067c22.205.14 44.05-5.602 63.317-16.64a42.151 42.151 0 0 0 3.669-2.133 131.33 131.33 0 0 0 11.861-8.533 109.635 109.635 0 0 0 10.496-9.216 128.007 128.007 0 0 0 30.123-45.739 125.093 125.093 0 0 0 8.533-36.437v-9.301a126.374 126.374 0 0 0-12.287-54.869zm-4.779 62.89a108.26 108.26 0 0 1-7.595 31.573 110.93 110.93 0 0 1-26.112 39.68 93.862 93.862 0 0 1-8.96 7.851 115.21 115.21 0 0 1-10.837 6.997l-2.731 1.536c-34.356 19.694-76.578 19.694-110.933 0l-2.304-1.28a114.49 114.49 0 0 1-10.411-7.253 94.513 94.513 0 0 1-8.96-7.851 110.935 110.935 0 0 1-26.027-39.595 108.762 108.762 0 0 1-6.997-31.915v-7.765a109.305 109.305 0 0 1 10.667-47.531c18.479-38.631 57.444-63.27 100.267-63.403 42.823.133 81.788 24.772 100.267 63.403a109.316 109.316 0 0 1 10.667 47.531l-.001 8.022z"/><path d="M310.074 102.485a59.733 59.733 0 0 0-28.514-28.514c-29.832-14.084-65.434-1.318-79.518 28.514a58.523 58.523 0 0 0-5.717 25.6 59.222 59.222 0 0 0 18.517 43.008 44.818 44.818 0 0 0 4.352 3.84 60.977 60.977 0 0 0 5.12 3.669l2.304 1.28a57.423 57.423 0 0 0 29.44 7.936 57.34 57.34 0 0 0 29.44-7.851l2.731-1.621c1.621-1.024 3.243-2.219 5.035-3.584a44.942 44.942 0 0 0 4.608-4.011c18.212-17.822 23.112-45.237 12.202-68.266zm-24.235 56.064a31.842 31.842 0 0 1-3.072 2.731l-3.413 2.475-2.475 1.365a41.982 41.982 0 0 1-41.728 0l-1.963-1.109c-1.365-.853-2.389-1.621-3.499-2.475a29.24 29.24 0 0 1-2.901-2.475 42.667 42.667 0 0 1-13.397-30.976 41.637 41.637 0 0 1 4.011-18.091 42.666 42.666 0 0 1 38.656-24.576 42.667 42.667 0 0 1 38.315 24.491c7.78 16.379 4.358 35.887-8.534 48.64z"/><path d="M256.058 102.485a8.533 8.533 0 0 0-8.533 8.533v34.133a8.533 8.533 0 0 0 17.066 0v-34.133a8.533 8.533 0 0 0-8.533-8.533z"/></svg>