<svg xmlns="http://www.w3.org/2000/svg" viewBox="0 0 512 512"><path d="M486.4 230.442H329.557a8.535 8.535 0 0 0-5.291 1.792 115.016 115.016 0 0 1-10.496 6.997l-2.731 1.536c-34.356 19.694-76.578 19.694-110.933 0l-2.304-1.28a114.018 114.018 0 0 1-10.325-7.253 8.535 8.535 0 0 0-5.291-1.792H25.6c-14.138 0-25.6 11.461-25.6 25.6v179.2c0 14.138 11.461 25.6 25.6 25.6h460.8c14.138 0 25.6-11.462 25.6-25.6v-179.2c0-14.138-11.461-25.6-25.6-25.6zm8.533 204.8a8.533 8.533 0 0 1-8.533 8.533H25.6a8.533 8.533 0 0 1-8.533-8.533v-179.2a8.533 8.533 0 0 1 8.533-8.533l153.429.341c2.987 2.219 6.144 4.352 9.387 6.4l3.243 1.877c39.556 23.042 88.444 23.042 128 0a42.151 42.151 0 0 0 3.669-2.133c3.328-2.048 6.4-4.181 9.472-6.485h153.6a8.533 8.533 0 0 1 8.533 8.533v179.2z"/><path d="M256 307.242c-23.564 0-42.667 19.103-42.667 42.667s19.102 42.667 42.667 42.667 42.667-19.103 42.667-42.667-19.103-42.667-42.667-42.667zm0 68.267c-14.138 0-25.6-11.461-25.6-25.6s11.461-25.6 25.6-25.6 25.6 11.461 25.6 25.6-11.462 25.6-25.6 25.6z"/><path d="M256 290.176a8.533 8.533 0 0 0-8.533 8.533v17.067a8.533 8.533 0 0 0 17.066 0v-17.067a8.533 8.533 0 0 0-8.533-8.533zM256 375.509a8.533 8.533 0 0 0-8.533 8.533v17.067c0 4.713 3.82 8.533 8.533 8.533s8.533-3.82 8.533-8.533v-17.067a8.533 8.533 0 0 0-8.533-8.533zM221.867 341.376H204.8c-4.713 0-8.533 3.82-8.533 8.533s3.82 8.533 8.533 8.533h17.067c4.713 0 8.533-3.82 8.533-8.533s-3.82-8.533-8.533-8.533zM307.2 341.376h-17.067c-4.713 0-8.533 3.82-8.533 8.533s3.82 8.533 8.533 8.533H307.2c4.713 0 8.533-3.82 8.533-8.533s-3.82-8.533-8.533-8.533zM64 324.309c-16.495 0-29.867 13.372-29.867 29.867S47.505 384.043 64 384.043s29.867-13.372 29.867-29.867S80.495 324.309 64 324.309zm0 42.667c-7.069 0-12.8-5.731-12.8-12.8 0-7.069 5.731-12.8 12.8-12.8 7.069 0 12.8 5.731 12.8 12.8 0 7.069-5.731 12.8-12.8 12.8zM140.8 324.309c-16.495 0-29.867 13.372-29.867 29.867s13.372 29.867 29.867 29.867 29.867-13.372 29.867-29.867-13.372-29.867-29.867-29.867zm0 42.667c-7.069 0-12.8-5.731-12.8-12.8 0-7.069 5.731-12.8 12.8-12.8 7.069 0 12.8 5.731 12.8 12.8 0 7.069-5.731 12.8-12.8 12.8zM397.653 343.082l-34.133-25.6a8.533 8.533 0 0 0-13.653 6.826v51.2a8.533 8.533 0 0 0 13.653 6.826l34.133-25.6a8.53 8.53 0 0 0 0-13.652zm-30.72 15.36v-17.067l11.349 8.533-11.349 8.534zM435.2 324.309a8.533 8.533 0 0 0-8.533 8.533v34.133c0 4.713 3.82 8.533 8.533 8.533s8.533-3.82 8.533-8.533v-34.133a8.533 8.533 0 0 0-8.533-8.533zM469.333 324.309a8.533 8.533 0 0 0-8.533 8.533v34.133c0 4.713 3.82 8.533 8.533 8.533s8.533-3.82 8.533-8.533v-34.133a8.533 8.533 0 0 0-8.533-8.533zM477.867 443.776h-435.2a8.533 8.533 0 0 0-8.533 8.533v17.067c0 14.138 11.461 25.6 25.6 25.6H460.8c14.138 0 25.6-11.461 25.6-25.6v-17.067a8.533 8.533 0 0 0-8.533-8.533zm-8.534 25.6a8.533 8.533 0 0 1-8.533 8.533H59.733a8.533 8.533 0 0 1-8.533-8.533v-8.533h418.133v8.533zM371.712 90.24a127.997 127.997 0 0 0-60.855-60.855C246.975-.888 170.646 26.357 140.373 90.24A126.37 126.37 0 0 0 128 145.109v9.045a125.51 125.51 0 0 0 8.533 36.693 127.494 127.494 0 0 0 29.867 45.568 110.951 110.951 0 0 0 10.496 9.216 130.343 130.343 0 0 0 11.776 8.533l3.243 1.877A126.547 126.547 0 0 0 256 273.108a125.787 125.787 0 0 0 63.317-16.64 42.151 42.151 0 0 0 3.669-2.133 131.33 131.33 0 0 0 11.861-8.533 109.635 109.635 0 0 0 10.496-9.216 128.007 128.007 0 0 0 30.123-45.739 125.093 125.093 0 0 0 8.533-36.437v-9.301a126.374 126.374 0 0 0-12.287-54.869zm-4.779 62.89a108.26 108.26 0 0 1-7.595 31.573 110.93 110.93 0 0 1-26.112 39.68 93.862 93.862 0 0 1-8.96 7.851 115.21 115.21 0 0 1-10.837 6.997l-2.731 1.536c-34.356 19.694-76.578 19.694-110.933 0l-2.304-1.28a114.49 114.49 0 0 1-10.411-7.253 94.513 94.513 0 0 1-8.96-7.851 110.935 110.935 0 0 1-26.027-39.595 108.762 108.762 0 0 1-6.997-31.915v-7.765a109.305 109.305 0 0 1 10.667-47.531C174.212 58.948 213.177 34.308 256 34.176c42.823.133 81.788 24.772 100.267 63.403a109.316 109.316 0 0 1 10.667 47.531l-.001 8.02z"/><path d="M256 102.442c-23.564 0-42.667 19.103-42.667 42.667s19.102 42.667 42.667 42.667 42.667-19.102 42.667-42.667-19.103-42.667-42.667-42.667zm0 68.267c-14.138 0-25.6-11.461-25.6-25.6s11.461-25.6 25.6-25.6 25.6 11.462 25.6 25.6-11.462 25.6-25.6 25.6z"/><path d="M256 52.778a8.533 8.533 0 0 0-8.533 8.533v49.664c0 4.713 3.82 8.533 8.533 8.533s8.533-3.82 8.533-8.533V61.312A8.533 8.533 0 0 0 256 52.778zM310.187 187.349l-22.613-22.613a8.533 8.533 0 0 0-12.032 12.032l22.613 22.613a8.534 8.534 0 0 0 6.059 2.475l-.085.085a8.534 8.534 0 0 0 6.058-14.592zM51.2 264.576h-8.533c-4.713 0-8.533 3.82-8.533 8.533s3.82 8.533 8.533 8.533H51.2c4.713 0 8.533-3.82 8.533-8.533s-3.82-8.533-8.533-8.533zM170.667 264.576H85.333c-4.713 0-8.533 3.82-8.533 8.533s3.82 8.533 8.533 8.533h85.333c4.713 0 8.533-3.82 8.533-8.533s-3.819-8.533-8.532-8.533zM109.269 446.379a8.539 8.539 0 0 0-12.075-.128l-34.901 34.133a8.533 8.533 0 0 0 5.973 14.592 8.534 8.534 0 0 0 5.973-2.389l34.901-34.133a8.538 8.538 0 0 0 .129-12.075zM152.875 446.379a8.539 8.539 0 0 0-12.075-.128l-34.901 34.133a8.533 8.533 0 0 0 5.973 14.592 8.534 8.534 0 0 0 5.973-2.389l34.901-34.133a8.539 8.539 0 0 0 .129-12.075zM196.462 444.723a8.534 8.534 0 0 0-11.971 1.527l-34.901 34.133a8.533 8.533 0 0 0 5.973 14.592 8.532 8.532 0 0 0 5.803-2.475l34.901-34.133a8.533 8.533 0 0 0 .195-13.644zM240.171 446.379a8.539 8.539 0 0 0-12.075-.128l-34.901 34.133a8.533 8.533 0 0 0 5.973 14.592 8.534 8.534 0 0 0 5.973-2.389l34.901-34.133a8.539 8.539 0 0 0 .129-12.075zM283.776 446.379a8.539 8.539 0 0 0-12.075-.128L236.8 480.384a8.533 8.533 0 0 0 5.973 14.592 8.534 8.534 0 0 0 5.973-2.389l34.901-34.133a8.538 8.538 0 0 0 .129-12.075zM327.467 446.379a8.539 8.539 0 0 0-12.075-.128l-34.901 34.133a8.533 8.533 0 0 0 5.973 14.592 8.534 8.534 0 0 0 5.973-2.389l34.901-34.133a8.539 8.539 0 0 0 .129-12.075zM371.072 446.379a8.539 8.539 0 0 0-12.075-.128l-34.901 34.133a8.533 8.533 0 0 0 5.973 14.592 8.534 8.534 0 0 0 5.973-2.389l34.901-34.133a8.538 8.538 0 0 0 .129-12.075zM414.763 446.379a8.539 8.539 0 0 0-12.075-.128l-34.901 34.133a8.533 8.533 0 0 0 5.973 14.592 8.534 8.534 0 0 0 5.973-2.389l34.901-34.133a8.539 8.539 0 0 0 .129-12.075zM458.368 446.379a8.539 8.539 0 0 0-12.075-.128l-34.901 34.133a8.533 8.533 0 0 0 5.973 14.592 8.534 8.534 0 0 0 5.973-2.389l34.901-34.133a8.538 8.538 0 0 0 .129-12.075z"/></svg>