<svg xmlns="http://www.w3.org/2000/svg" viewBox="0 0 512 512"><path d="M486.4 230.397H329.557a8.535 8.535 0 0 0-5.291 1.792 115.129 115.129 0 0 1-10.496 7.083l-2.731 1.536a111.613 111.613 0 0 1-110.933 0l-2.304-1.365a114.018 114.018 0 0 1-10.325-7.253 8.535 8.535 0 0 0-5.291-1.792H25.6c-14.138 0-25.6 11.461-25.6 25.6v179.2c0 14.138 11.461 25.6 25.6 25.6h460.8c14.138 0 25.6-11.462 25.6-25.6v-179.2c0-14.139-11.461-25.601-25.6-25.601zm8.533 204.8a8.533 8.533 0 0 1-8.533 8.533H25.6a8.533 8.533 0 0 1-8.533-8.533v-179.2a8.533 8.533 0 0 1 8.533-8.533l153.429.256c2.987 2.219 6.144 4.352 9.387 6.4l3.243 1.877c39.556 23.043 88.444 23.043 128 0a40.102 40.102 0 0 0 3.669-2.048c3.328-2.048 6.485-4.181 9.472-6.485h153.6a8.533 8.533 0 0 1 8.533 8.533v179.2z"/><path d="M256 307.197c-23.564 0-42.667 19.103-42.667 42.667s19.102 42.667 42.667 42.667 42.667-19.103 42.667-42.667-19.103-42.667-42.667-42.667zm0 68.267c-14.138 0-25.6-11.461-25.6-25.6s11.461-25.6 25.6-25.6 25.6 11.461 25.6 25.6-11.462 25.6-25.6 25.6z"/><path d="M256 290.131a8.533 8.533 0 0 0-8.533 8.533v17.067a8.533 8.533 0 0 0 17.066 0v-17.067a8.533 8.533 0 0 0-8.533-8.533zM256 375.464a8.533 8.533 0 0 0-8.533 8.533v17.067c0 4.713 3.82 8.533 8.533 8.533s8.533-3.82 8.533-8.533v-17.067a8.533 8.533 0 0 0-8.533-8.533zM221.867 341.331H204.8c-4.713 0-8.533 3.82-8.533 8.533s3.82 8.533 8.533 8.533h17.067c4.713 0 8.533-3.82 8.533-8.533s-3.82-8.533-8.533-8.533zM307.2 341.331h-17.067c-4.713 0-8.533 3.82-8.533 8.533s3.82 8.533 8.533 8.533H307.2c4.713 0 8.533-3.82 8.533-8.533s-3.82-8.533-8.533-8.533zM64 324.264c-16.495 0-29.867 13.372-29.867 29.867S47.505 383.997 64 383.997s29.867-13.372 29.867-29.867S80.495 324.264 64 324.264zm0 42.667c-7.069 0-12.8-5.731-12.8-12.8 0-7.069 5.731-12.8 12.8-12.8 7.069 0 12.8 5.731 12.8 12.8 0 7.069-5.731 12.8-12.8 12.8zM140.8 324.264c-16.495 0-29.867 13.372-29.867 29.867s13.372 29.867 29.867 29.867 29.867-13.372 29.867-29.867-13.372-29.867-29.867-29.867zm0 42.667c-7.069 0-12.8-5.731-12.8-12.8 0-7.069 5.731-12.8 12.8-12.8 7.069 0 12.8 5.731 12.8 12.8 0 7.069-5.731 12.8-12.8 12.8zM397.653 343.037l-34.133-25.6a8.533 8.533 0 0 0-13.653 6.826v51.2a8.533 8.533 0 0 0 13.653 6.826l34.133-25.6a8.53 8.53 0 0 0 0-13.652zm-30.72 15.36V341.33l11.349 8.533-11.349 8.534zM435.2 324.264a8.533 8.533 0 0 0-8.533 8.533v34.133c0 4.713 3.82 8.533 8.533 8.533s8.533-3.82 8.533-8.533v-34.133a8.533 8.533 0 0 0-8.533-8.533zM469.333 324.264a8.533 8.533 0 0 0-8.533 8.533v34.133c0 4.713 3.82 8.533 8.533 8.533s8.533-3.82 8.533-8.533v-34.133a8.533 8.533 0 0 0-8.533-8.533zM477.867 443.731h-435.2a8.533 8.533 0 0 0-8.533 8.533v17.067c0 14.138 11.461 25.6 25.6 25.6H460.8c14.138 0 25.6-11.461 25.6-25.6v-17.067a8.533 8.533 0 0 0-8.533-8.533zm-8.534 25.6a8.533 8.533 0 0 1-8.533 8.533H59.733a8.533 8.533 0 0 1-8.533-8.533v-8.533h418.133v8.533zM371.627 90.195a127.999 127.999 0 0 0-60.722-60.722C247.045-.85 170.696 26.336 140.373 90.195A126.282 126.282 0 0 0 128 145.064v9.045a125.605 125.605 0 0 0 8.533 36.693A127.494 127.494 0 0 0 166.4 236.37c3.3 3.291 6.806 6.369 10.496 9.216a130.485 130.485 0 0 0 11.776 8.533l3.243 1.877A126.547 126.547 0 0 0 256 273.063c22.27.14 44.178-5.632 63.488-16.725a40.102 40.102 0 0 0 3.669-2.048 131.9 131.9 0 0 0 11.776-8.533 110.42 110.42 0 0 0 10.496-9.216 128.003 128.003 0 0 0 30.037-45.739 125.093 125.093 0 0 0 8.533-36.437v-9.301a126.19 126.19 0 0 0-12.372-54.869zm-4.694 62.89a108.181 108.181 0 0 1-7.595 31.573 110.93 110.93 0 0 1-26.112 39.68 91.546 91.546 0 0 1-8.96 7.851 115.387 115.387 0 0 1-10.752 7.083l-2.731 1.536a111.613 111.613 0 0 1-110.933 0l-2.304-1.365a113.953 113.953 0 0 1-10.411-7.253 91.05 91.05 0 0 1-8.96-7.851 110.924 110.924 0 0 1-26.112-39.595 108.762 108.762 0 0 1-6.997-31.915v-7.765a109.305 109.305 0 0 1 10.667-47.531c18.479-38.63 57.444-63.27 100.267-63.402 42.823.133 81.788 24.772 100.267 63.403a109.242 109.242 0 0 1 10.667 47.531l-.001 8.02zM51.2 264.531h-8.533c-4.713 0-8.533 3.82-8.533 8.533s3.82 8.533 8.533 8.533H51.2c4.713 0 8.533-3.82 8.533-8.533s-3.82-8.533-8.533-8.533zM170.667 264.531H85.333c-4.713 0-8.533 3.82-8.533 8.533s3.82 8.533 8.533 8.533h85.333c4.713 0 8.533-3.82 8.533-8.533s-3.819-8.533-8.532-8.533z"/><path d="M109.269 446.333a8.539 8.539 0 0 0-12.075-.128l-34.901 34.133a8.533 8.533 0 0 0 5.973 14.592 8.534 8.534 0 0 0 5.973-2.389l34.901-34.133a8.538 8.538 0 0 0 .129-12.075zM152.875 446.333a8.539 8.539 0 0 0-12.075-.128l-34.901 34.133a8.533 8.533 0 0 0 5.973 14.592 8.534 8.534 0 0 0 5.973-2.389l34.901-34.133a8.539 8.539 0 0 0 .129-12.075zM196.462 444.678a8.534 8.534 0 0 0-11.971 1.527l-34.901 34.133a8.533 8.533 0 0 0 5.973 14.592 8.532 8.532 0 0 0 5.803-2.475l34.901-34.133a8.533 8.533 0 0 0 .195-13.644zM240.171 446.333a8.539 8.539 0 0 0-12.075-.128l-34.901 34.133a8.533 8.533 0 0 0 5.973 14.592 8.534 8.534 0 0 0 5.973-2.389l34.901-34.133a8.539 8.539 0 0 0 .129-12.075zM283.776 446.333a8.539 8.539 0 0 0-12.075-.128L236.8 480.339a8.533 8.533 0 0 0 5.973 14.592 8.534 8.534 0 0 0 5.973-2.389l34.901-34.133a8.539 8.539 0 0 0 .129-12.076zM327.467 446.333a8.539 8.539 0 0 0-12.075-.128l-34.901 34.133a8.533 8.533 0 0 0 5.973 14.592 8.534 8.534 0 0 0 5.973-2.389l34.901-34.133a8.539 8.539 0 0 0 .129-12.075zM371.072 446.333a8.539 8.539 0 0 0-12.075-.128l-34.901 34.133a8.533 8.533 0 0 0 5.973 14.592 8.534 8.534 0 0 0 5.973-2.389l34.901-34.133a8.538 8.538 0 0 0 .129-12.075zM414.763 446.333a8.539 8.539 0 0 0-12.075-.128l-34.901 34.133a8.533 8.533 0 0 0 5.973 14.592 8.534 8.534 0 0 0 5.973-2.389l34.901-34.133a8.539 8.539 0 0 0 .129-12.075zM458.368 446.333a8.539 8.539 0 0 0-12.075-.128l-34.901 34.133a8.533 8.533 0 0 0 5.973 14.592 8.534 8.534 0 0 0 5.973-2.389l34.901-34.133a8.538 8.538 0 0 0 .129-12.075zM221.867 93.864c-14.138 0-25.6 11.461-25.6 25.6v51.2c0 14.138 11.462 25.6 25.6 25.6s25.6-11.462 25.6-25.6v-51.2c0-14.138-11.462-25.6-25.6-25.6zm8.533 76.8c0 4.713-3.82 8.533-8.533 8.533s-8.533-3.82-8.533-8.533v-51.2c0-4.713 3.82-8.533 8.533-8.533s8.533 3.82 8.533 8.533v51.2zM290.133 93.864c-14.138 0-25.6 11.461-25.6 25.6v51.2c0 14.138 11.462 25.6 25.6 25.6s25.6-11.462 25.6-25.6v-51.2c0-14.138-11.461-25.6-25.6-25.6zm8.534 76.8c0 4.713-3.82 8.533-8.533 8.533s-8.533-3.82-8.533-8.533v-51.2c0-4.713 3.82-8.533 8.533-8.533s8.533 3.82 8.533 8.533v51.2z"/></svg>