<svg xmlns="http://www.w3.org/2000/svg" viewBox="0 0 512.025 512.025"><path d="M477.879 127.995h-102.4a8.533 8.533 0 0 0-8.533 8.021 108.118 108.118 0 0 1-7.595 31.573 110.93 110.93 0 0 1-26.112 39.68 93.862 93.862 0 0 1-8.96 7.851 115.945 115.945 0 0 1-10.752 6.997l-2.731 1.536c-34.356 19.694-76.578 19.694-110.933 0l-2.304-1.28a115.72 115.72 0 0 1-10.411-7.253 93.862 93.862 0 0 1-8.96-7.851 110.924 110.924 0 0 1-26.112-39.595 108.207 108.207 0 0 1-6.997-31.659 8.532 8.532 0 0 0-8.533-8.021h-102.4c-18.851 0-34.133 15.282-34.133 34.133v281.6c0 18.851 15.282 34.133 34.133 34.133h443.733c18.851 0 34.133-15.282 34.133-34.133v-281.6c.001-18.85-15.281-34.132-34.133-34.132zm17.067 315.733c0 9.426-7.641 17.067-17.067 17.067H34.146c-9.426 0-17.067-7.641-17.067-17.067v-281.6c0-9.426 7.641-17.067 17.067-17.067h94.976a127.145 127.145 0 0 0 36.949 74.581c3.3 3.291 6.806 6.369 10.496 9.216a131.161 131.161 0 0 0 11.776 8.533l3.243 1.877c39.556 23.042 88.444 23.042 128 0a42.151 42.151 0 0 0 3.669-2.133 131.7 131.7 0 0 0 11.776-8.533 110.28 110.28 0 0 0 10.496-9.216 127.236 127.236 0 0 0 37.376-74.325h94.976c9.426 0 17.067 7.641 17.067 17.067v281.6z"/><path d="M230.413 469.328c0-4.713-3.82-8.533-8.533-8.533s-8.533 3.82-8.533 8.533c.047.876.047 1.755 0 2.631-.727 13.412-12.188 23.695-25.6 22.969-4.713 0-8.533 3.82-8.533 8.533s3.82 8.533 8.533 8.533c1.044.04 2.088.04 3.132 0 22.698-.864 40.398-19.966 39.534-42.666zM324.279 494.928c-.876.047-1.755.047-2.631 0-13.412-.727-23.695-12.188-22.969-25.6 0-4.713-3.82-8.533-8.533-8.533s-8.533 3.82-8.533 8.533a40.888 40.888 0 0 0 0 3.132c.865 22.699 19.967 40.4 42.667 39.535a8.534 8.534 0 0 0-.001-17.067zM460.813 162.128h-93.525a8.534 8.534 0 0 0-7.936 5.461 110.93 110.93 0 0 1-26.112 39.68 93.862 93.862 0 0 1-8.96 7.851 116.041 116.041 0 0 1-10.496 6.912l-2.731 1.536c-34.356 19.694-76.578 19.694-110.933 0l-2.304-1.28a115.72 115.72 0 0 1-10.411-7.253 93.723 93.723 0 0 1-8.96-7.851 110.924 110.924 0 0 1-26.112-39.595 8.534 8.534 0 0 0-7.936-5.461H51.213c-9.426 0-17.067 7.641-17.067 17.067v221.867c0 9.426 7.641 17.067 17.067 17.067h409.6c9.426 0 17.067-7.641 17.067-17.067V179.195c-.001-9.426-7.642-17.067-17.067-17.067zm0 238.934h-409.6V179.195h87.467a127.485 127.485 0 0 0 27.392 40.448c3.3 3.291 6.806 6.369 10.496 9.216a131.161 131.161 0 0 0 11.776 8.533l3.243 1.877c39.556 23.042 88.444 23.042 128 0a42.151 42.151 0 0 0 3.669-2.133 131.7 131.7 0 0 0 11.776-8.533 110.28 110.28 0 0 0 10.496-9.216 127.508 127.508 0 0 0 27.819-40.192h87.467v221.867z"/><path d="M392.546 494.928H119.479c-4.713 0-8.533 3.82-8.533 8.533s3.82 8.533 8.533 8.533h273.067c4.713 0 8.533-3.82 8.533-8.533s-3.82-8.533-8.533-8.533zM85.346 196.262h-8.533c-4.713 0-8.533 3.82-8.533 8.533s3.82 8.533 8.533 8.533h8.533a8.533 8.533 0 0 0 0-17.066zM162.146 196.262h-42.667c-4.713 0-8.533 3.82-8.533 8.533s3.82 8.533 8.533 8.533h42.667a8.533 8.533 0 0 0 0-17.066z"/><path d="M371.639 73.126a127.999 127.999 0 0 0-60.722-60.722c-63.859-30.323-140.208-3.136-170.531 60.722a126.208 126.208 0 0 0-12.373 54.869v9.045a125.605 125.605 0 0 0 8.533 36.693 127.494 127.494 0 0 0 29.867 45.568c3.3 3.291 6.806 6.369 10.496 9.216a131.161 131.161 0 0 0 11.776 8.533l3.243 1.877a126.547 126.547 0 0 0 64.085 17.067 125.86 125.86 0 0 0 63.488-16.64 42.151 42.151 0 0 0 3.669-2.133 131.7 131.7 0 0 0 11.776-8.533 110.28 110.28 0 0 0 10.496-9.216 127.994 127.994 0 0 0 30.037-45.739 124.996 124.996 0 0 0 8.533-36.437v-9.301a126.19 126.19 0 0 0-12.373-54.869zm-4.693 62.89a108.118 108.118 0 0 1-7.595 31.573 110.93 110.93 0 0 1-26.112 39.68 93.862 93.862 0 0 1-8.96 7.851 115.945 115.945 0 0 1-10.752 6.997l-2.731 1.536c-34.356 19.694-76.578 19.694-110.933 0l-2.304-1.28a115.72 115.72 0 0 1-10.411-7.253 93.862 93.862 0 0 1-8.96-7.851 110.924 110.924 0 0 1-26.112-39.595 108.762 108.762 0 0 1-6.997-31.915v-7.765a109.305 109.305 0 0 1 10.667-47.531c18.479-38.631 57.444-63.27 100.267-63.403 42.823.133 81.788 24.772 100.267 63.403a109.316 109.316 0 0 1 10.667 47.531l-.001 8.022z"/><path d="M310.029 102.395a59.728 59.728 0 0 0-24.235-26.027 8.533 8.533 0 1 0-8.534 14.763 42.668 42.668 0 0 1 17.067 18.688c7.781 16.379 4.358 35.887-8.533 48.64a31.1 31.1 0 0 1-3.072 2.731l-3.413 2.475-2.475 1.365a41.982 41.982 0 0 1-41.728 0l-1.963-1.109c-1.365-.853-2.389-1.621-3.499-2.475a30.41 30.41 0 0 1-2.901-2.475 42.667 42.667 0 0 1-13.397-30.976 41.643 41.643 0 0 1 4.267-18.091 42.663 42.663 0 0 1 17.067-18.773 8.534 8.534 0 0 0-8.534-14.763 59.722 59.722 0 0 0-24.149 26.027 58.436 58.436 0 0 0-5.717 25.6 59.225 59.225 0 0 0 18.517 43.179 46.135 46.135 0 0 0 4.352 3.755 61.951 61.951 0 0 0 5.12 3.584l2.304 1.28a57.423 57.423 0 0 0 29.44 7.936 57.34 57.34 0 0 0 29.44-7.851l2.731-1.621c1.621-1.024 3.243-2.219 5.035-3.584a46.73 46.73 0 0 0 4.608-4.011c18.212-17.823 23.112-45.238 12.202-68.267z"/><path d="M256.013 59.728a8.533 8.533 0 0 0-8.533 8.533v34.133c0 4.713 3.82 8.533 8.533 8.533s8.533-3.82 8.533-8.533V68.262a8.533 8.533 0 0 0-8.533-8.534z"/></svg>