<svg xmlns="http://www.w3.org/2000/svg" viewBox="0 0 511.999 511.999"><path d="M382.446 0H129.552c-21.948 0-39.804 17.856-39.804 39.804v432.39c0 21.949 17.856 39.805 39.804 39.805h252.894c21.949 0 39.805-17.856 39.805-39.805V39.804C422.251 17.856 404.394 0 382.446 0zm0 496.939H129.552c-13.643 0-24.743-11.1-24.743-24.744V39.804c0-13.644 11.1-24.743 24.743-24.743h252.894c13.644 0 24.744 11.1 24.744 24.743v432.391c0 13.644-11.1 24.744-24.744 24.744z"/><path d="M177.132 295.599h-30.024c-13.2 0-23.938 10.739-23.938 23.938v20.249c0 13.2 10.739 23.938 23.938 23.938h30.024c13.2 0 23.938-10.739 23.938-23.938v-20.249c0-13.199-10.738-23.938-23.938-23.938zm8.878 44.187c0 4.895-3.982 8.878-8.878 8.878h-30.024c-4.895 0-8.878-3.983-8.878-8.878v-20.249c0-4.895 3.982-8.878 8.878-8.878h30.024c4.895 0 8.878 3.983 8.878 8.878v20.249zM271.011 295.599h-30.024c-13.2 0-23.939 10.739-23.939 23.938v20.249c0 13.2 10.739 23.938 23.939 23.938h30.024c13.2 0 23.939-10.739 23.939-23.938v-20.249c0-13.199-10.74-23.938-23.939-23.938zm8.878 44.187c0 4.895-3.983 8.878-8.878 8.878h-30.024c-4.895 0-8.878-3.983-8.878-8.878v-20.249c0-4.895 3.983-8.878 8.878-8.878h30.024c4.895 0 8.878 3.983 8.878 8.878v20.249zM364.89 295.599h-30.024c-13.2 0-23.939 10.739-23.939 23.938v20.249c0 13.2 10.739 23.938 23.939 23.938h30.024c13.2 0 23.938-10.739 23.938-23.938v-20.249c0-13.199-10.739-23.938-23.938-23.938zm8.877 44.187c0 4.895-3.982 8.878-8.878 8.878h-30.024c-4.895 0-8.878-3.983-8.878-8.878v-20.249c0-4.895 3.983-8.878 8.878-8.878h30.024c4.895 0 8.878 3.983 8.878 8.878v20.249zM341.217 136.344L261.767 67.2a8.79 8.79 0 0 0-11.537.002l-79.449 69.143c-2.8 2.44-3.768 6.263-2.467 9.74 1.301 3.477 4.541 5.723 8.255 5.723h10.802v70.903c0 6.14 4.995 11.135 11.134 11.135h114.988c6.139 0 11.134-4.995 11.134-11.135v-70.903h10.802c3.713 0 6.953-2.246 8.256-5.724 1.302-3.477.334-7.3-2.468-9.74zm-68.159 82.442h-35.811v-54.07h35.811v54.07zm44.038-82.039a7.53 7.53 0 0 0-7.53 7.53v74.508h-21.447v-61.6a7.53 7.53 0 0 0-7.53-7.53h-50.872a7.53 7.53 0 0 0-7.53 7.53v61.6h-19.755v-74.508a7.53 7.53 0 0 0-7.53-7.53h-1.642l62.738-54.602 62.74 54.602h-1.642zM177.132 385.425h-30.024c-13.2 0-23.938 10.74-23.938 23.939v20.248c0 13.2 10.739 23.939 23.938 23.939h30.024c13.2 0 23.938-10.74 23.938-23.939v-20.248c0-13.199-10.738-23.939-23.938-23.939zm8.878 44.188c0 4.896-3.982 8.879-8.878 8.879h-30.024c-4.895 0-8.878-3.983-8.878-8.879v-20.248c0-4.896 3.982-8.879 8.878-8.879h30.024c4.895 0 8.878 3.983 8.878 8.879v20.248zM271.011 385.425h-30.024c-13.2 0-23.939 10.74-23.939 23.939v20.248c0 13.2 10.739 23.939 23.939 23.939h30.024c13.2 0 23.939-10.74 23.939-23.939v-20.248c0-13.199-10.74-23.939-23.939-23.939zm8.878 44.188c0 4.896-3.983 8.879-8.878 8.879h-30.024c-4.895 0-8.878-3.983-8.878-8.879v-20.248c0-4.896 3.983-8.879 8.878-8.879h30.024c4.895 0 8.878 3.983 8.878 8.879v20.248zM364.89 385.425h-30.024c-13.2 0-23.939 10.74-23.939 23.939v20.248c0 13.2 10.739 23.939 23.939 23.939h30.024c13.2 0 23.938-10.74 23.938-23.939v-20.248c0-13.199-10.739-23.939-23.938-23.939zm8.877 44.188c0 4.896-3.982 8.879-8.878 8.879h-30.024c-4.895 0-8.878-3.983-8.878-8.879v-20.248c0-4.896 3.983-8.879 8.878-8.879h30.024c4.895 0 8.878 3.983 8.878 8.879v20.248z"/><path d="M365.168 32.726H146.829c-10.898 0-19.763 8.866-19.763 19.762v191.16c.001 10.897 8.866 19.763 19.763 19.763h218.339c10.898 0 19.763-8.866 19.763-19.763V52.488c0-10.897-8.865-19.762-19.763-19.762zm4.702 210.922a4.708 4.708 0 0 1-4.702 4.703H146.829a4.708 4.708 0 0 1-4.702-4.703V52.488a4.708 4.708 0 0 1 4.702-4.702h218.339a4.708 4.708 0 0 1 4.702 4.702v191.16z"/></svg>