<svg xmlns="http://www.w3.org/2000/svg" viewBox="0 0 512 512"><path d="M473.082 332.263H95.211a7.287 7.287 0 1 0 0 14.574h377.871c13.424 0 24.345 10.921 24.345 24.345v75.723c0 13.424-10.921 24.345-24.345 24.345H34.083c-10.758 0-19.509-8.751-19.509-19.509v-85.394c0-10.758 8.752-19.51 19.509-19.51h26.136a7.287 7.287 0 1 0 0-14.574H34.083C15.289 332.263 0 347.552 0 366.346v85.394c0 18.793 15.289 34.083 34.083 34.083h438.999c21.459 0 38.918-17.458 38.918-38.918v-75.723c0-21.461-17.459-38.919-38.918-38.919z"/><path d="M96.032 369.737c-21.674 0-39.307 17.633-39.307 39.306 0 21.674 17.633 39.307 39.307 39.307 21.674 0 39.307-17.633 39.307-39.307s-17.633-39.306-39.307-39.306zm0 64.039c-13.639 0-24.734-11.096-24.734-24.734 0-13.637 11.096-24.733 24.734-24.733 13.639 0 24.734 11.096 24.734 24.733 0 13.639-11.095 24.734-24.734 24.734zM435.926 379.438H202.167c-10.669 0-19.35 8.68-19.35 19.349v20.512c0 10.67 8.68 19.35 19.35 19.35h233.759c10.669 0 19.349-8.68 19.349-19.35v-20.512c0-10.669-8.68-19.349-19.349-19.349zm4.777 39.861a4.782 4.782 0 0 1-4.776 4.777h-233.76a4.782 4.782 0 0 1-4.776-4.777v-20.512a4.782 4.782 0 0 1 4.777-4.776h233.759a4.78 4.78 0 0 1 4.776 4.776v20.512zM399.194 177.31c-38.249-38.248-89.103-59.312-143.195-59.312s-104.946 21.065-143.195 59.313c-11.872 11.873-11.872 31.193 0 43.066 5.751 5.751 13.398 8.918 21.533 8.918 8.134 0 15.781-3.167 21.533-8.918 26.745-26.746 62.305-41.475 100.129-41.475 37.824 0 73.385 14.73 100.13 41.475 5.751 5.751 13.399 8.918 21.533 8.918 8.133 0 15.78-3.167 21.533-8.919 11.872-11.873 11.872-31.193-.001-43.066zm-10.303 32.761a15.78 15.78 0 0 1-11.229 4.651c-4.242 0-8.23-1.652-11.228-4.651-29.498-29.497-68.718-45.743-110.435-45.743s-80.935 16.246-110.433 45.743a15.776 15.776 0 0 1-11.228 4.651 15.78 15.78 0 0 1-11.228-4.65c-6.191-6.192-6.191-16.267 0-22.457C158.606 152.119 205.8 132.57 256 132.57s97.394 19.548 132.89 55.044c6.191 6.192 6.191 16.267.001 22.457z"/><path d="M456.164 109.086c-23.525-23.524-50.528-42.508-80.262-56.424a7.288 7.288 0 0 0-6.179 13.199c28.196 13.196 53.811 31.206 76.135 53.53 6.192 6.191 6.192 16.265 0 22.455a15.773 15.773 0 0 1-11.228 4.651 15.776 15.776 0 0 1-11.228-4.651C378.688 97.132 319.236 72.506 256 72.506s-122.687 24.626-167.403 69.34c-6.19 6.192-16.265 6.194-22.457 0-6.191-6.191-6.191-16.265 0-22.455C116.853 68.677 184.28 40.749 256 40.749c28.162 0 55.856 4.301 82.31 12.783a7.284 7.284 0 0 0 9.163-4.713 7.285 7.285 0 0 0-4.714-9.163c-27.895-8.944-57.085-13.479-86.76-13.479-75.613 0-146.699 29.445-200.164 82.91-11.873 11.874-11.873 31.193 0 43.066 11.876 11.873 31.195 11.872 43.067-.001C140.865 110.189 196.657 87.079 256 87.079s115.136 23.11 157.099 65.073c5.752 5.751 13.399 8.918 21.532 8.918 8.135 0 15.782-3.167 21.533-8.918 11.873-11.874 11.873-31.193 0-43.066zM345.233 245.342c-23.799-23.798-55.489-36.905-89.232-36.905-33.744 0-65.434 13.108-89.233 36.905-5.751 5.752-8.919 13.399-8.919 21.533 0 8.134 3.168 15.781 8.919 21.533 5.751 5.751 13.398 8.918 21.533 8.918 8.134 0 15.781-3.167 21.533-8.918 12.31-12.309 28.706-19.088 46.167-19.088 17.462 0 33.857 6.779 46.166 19.088 5.752 5.751 13.399 8.919 21.533 8.919 8.135 0 15.782-3.168 21.533-8.919 11.873-11.874 11.873-31.193 0-43.066zm-10.306 32.762a15.774 15.774 0 0 1-11.228 4.651 15.773 15.773 0 0 1-11.228-4.652c-15.062-15.062-35.117-23.356-56.471-23.356s-41.409 8.294-56.472 23.356a15.776 15.776 0 0 1-11.228 4.651 15.776 15.776 0 0 1-11.228-4.651c-6.191-6.191-6.191-16.265 0-22.455 21.047-21.046 49.077-32.638 78.928-32.638s57.881 11.591 78.927 32.638c6.192 6.191 6.192 16.265 0 22.456z"/></svg>