<svg xmlns="http://www.w3.org/2000/svg" viewBox="0 0 512 512"><path d="M319.721 268.772c-16.648-16.648-38.67-26.054-62.011-26.486a88.85 88.85 0 0 0-1.71-.016c-24.414 0-47.281 9.597-64.388 27.024-17.103 17.423-26.272 40.474-25.819 64.909.433 23.341 9.839 45.364 26.486 62.011 16.648 16.647 38.67 26.054 62.011 26.486a88.85 88.85 0 0 0 1.71.016c24.415 0 47.282-9.598 64.389-27.025 17.102-17.423 26.272-40.474 25.819-64.908-.433-23.341-9.84-45.364-26.487-62.011zm-9.732 116.71c-14.681 14.956-34.395 23.056-55.428 22.647-40.168-.745-73.453-34.03-74.198-74.198-.38-20.491 7.309-39.821 21.649-54.429 14.344-14.611 33.517-22.659 53.988-22.659.481 0 .956.004 1.439.013 40.168.744 73.453 34.029 74.198 74.197.38 20.491-7.308 39.821-21.648 54.429z"/><path d="M256 270.391c-34.244 0-62.103 27.859-62.103 62.102 0 34.244 27.859 62.103 62.103 62.103s62.103-27.859 62.103-62.103c0-34.243-27.859-62.102-62.103-62.102zm0 109.632c-26.208 0-47.53-21.322-47.53-47.53 0-26.207 21.322-47.529 47.53-47.529s47.53 21.322 47.53 47.529c0 26.208-21.322 47.53-47.53 47.53zM314.704 142.399c-.985-30.859-25.929-55.802-56.788-56.787-16.808-.539-32.5 5.86-44.109 17.845-11.16 11.522-17.024 26.714-16.511 42.775.985 30.859 25.929 55.803 56.787 56.788.642.02 1.278.031 1.917.031 16.043 0 31.027-6.348 42.192-17.875 11.161-11.523 17.025-26.714 16.512-42.777zm-26.98 32.637c-8.732 9.015-20.526 13.825-33.176 13.418-23.196-.741-41.947-19.491-42.687-42.687-.385-12.083 4.023-23.508 12.415-32.171 8.395-8.668 19.662-13.442 31.724-13.442.483 0 .964.008 1.451.023 23.196.741 41.947 19.491 42.687 42.686.386 12.083-4.023 23.509-12.414 32.173z"/><path d="M256 109.371c-19.268 0-34.945 15.676-34.945 34.945S236.732 179.26 256 179.26s34.945-15.676 34.945-34.945-15.677-34.944-34.945-34.944zm0 55.316c-11.233 0-20.372-9.139-20.372-20.371 0-11.233 9.139-20.372 20.372-20.372s20.372 9.139 20.372 20.372-9.139 20.371-20.372 20.371zM364.224 125.085a7.287 7.287 0 0 0-7.287 7.287v307.817c0 6.757-5.497 12.254-12.254 12.254H167.316c-6.757 0-12.254-5.497-12.254-12.254v-35.061a7.287 7.287 0 1 0-14.574 0v35.061c0 14.793 12.035 26.827 26.827 26.827h177.368c14.792 0 26.827-12.035 26.827-26.827V132.372a7.286 7.286 0 0 0-7.286-7.287z"/><path d="M344.684 44.984H167.316c-14.792 0-26.827 12.035-26.827 26.827V370.46a7.287 7.287 0 1 0 14.574 0V71.811c0-6.757 5.497-12.254 12.254-12.254h177.368c6.757 0 12.254 5.497 12.254 12.254V97.76a7.287 7.287 0 1 0 14.574 0V71.811c-.002-14.792-12.037-26.827-26.829-26.827zM465.181 142.796a22.127 22.127 0 0 0-15.751-6.526 22.127 22.127 0 0 0-15.751 6.525c-8.685 8.685-8.685 22.817 0 31.502 45.051 45.051 45.051 118.354 0 163.405-8.685 8.685-8.685 22.817 0 31.501a22.127 22.127 0 0 0 15.751 6.525 22.123 22.123 0 0 0 15.751-6.525C495.372 339.013 512 298.809 512 256s-16.628-83.013-46.819-113.204zM454.875 358.9c-1.454 1.454-3.389 2.256-5.446 2.256s-3.991-.801-5.446-2.256c-3.003-3.003-3.003-7.889 0-10.893 50.733-50.733 50.733-133.281 0-184.014-3.003-3.003-3.003-7.889.001-10.893 1.454-1.455 3.388-2.256 5.445-2.256s3.991.801 5.446 2.257c27.44 27.439 42.551 63.983 42.551 102.9s-15.111 75.46-42.551 102.899z"/><path d="M426.002 172.256c-4.207-4.208-9.801-6.525-15.751-6.525s-11.545 2.317-15.751 6.525c-8.684 8.685-8.684 22.817 0 31.502 28.806 28.806 28.806 75.677 0 104.484-8.684 8.685-8.684 22.817 0 31.502 4.207 4.208 9.801 6.525 15.751 6.525s11.545-2.317 15.751-6.524c22.335-22.335 34.636-52.076 34.636-83.744s-12.301-61.41-34.636-83.745zM415.697 329.44a7.65 7.65 0 0 1-5.446 2.255 7.648 7.648 0 0 1-5.446-2.256c-3.003-3.003-3.003-7.89 0-10.893 34.488-34.488 34.488-90.605 0-125.093-3.003-3.003-3.003-7.89 0-10.894 1.454-1.454 3.389-2.256 5.446-2.256s3.991.801 5.446 2.256c19.583 19.583 30.368 45.664 30.368 73.44s-10.785 53.858-30.368 73.441zM78.322 174.297c8.685-8.685 8.685-22.817 0-31.501a22.127 22.127 0 0 0-15.751-6.526 22.129 22.129 0 0 0-15.751 6.525C16.628 172.987 0 213.191 0 256s16.628 83.013 46.819 113.204c4.207 4.208 9.801 6.525 15.751 6.525s11.545-2.317 15.751-6.525c8.685-8.685 8.685-22.817 0-31.502-45.05-45.05-45.05-118.354.001-163.405zM68.017 358.9c-1.454 1.454-3.389 2.256-5.446 2.256s-3.991-.801-5.446-2.256c-27.44-27.439-42.551-63.983-42.551-102.9s15.111-75.461 42.552-102.9c1.454-1.455 3.389-2.256 5.446-2.256s3.991.801 5.446 2.257c3.003 3.003 3.003 7.889 0 10.893-50.733 50.733-50.733 133.281 0 184.014 3.002 3.002 3.002 7.889-.001 10.892z"/><path d="M117.5 203.759c8.685-8.686 8.685-22.818 0-31.503a22.127 22.127 0 0 0-15.751-6.525 22.123 22.123 0 0 0-15.751 6.525C63.663 194.591 51.362 224.332 51.362 256s12.301 61.409 34.636 83.744a22.127 22.127 0 0 0 15.751 6.525 22.126 22.126 0 0 0 15.751-6.524c8.684-8.685 8.684-22.817 0-31.502-28.806-28.806-28.806-75.677 0-104.484zm-10.305 125.682a7.65 7.65 0 0 1-5.446 2.255 7.648 7.648 0 0 1-5.446-2.256C76.72 309.857 65.935 283.776 65.935 256s10.785-53.857 30.368-73.44a7.654 7.654 0 0 1 5.446-2.256c2.057 0 3.991.801 5.446 2.256 3.003 3.004 3.003 7.89 0 10.894-34.488 34.488-34.488 90.605 0 125.093 3.003 3.003 3.003 7.89 0 10.894z"/></svg>