<svg xmlns="http://www.w3.org/2000/svg" viewBox="0 0 512 512"><path d="M228.701 237.667c-.077-5.233-4.399-9.491-9.633-9.491h-27.247a9.688 9.688 0 0 0-6.909 2.92 9.69 9.69 0 0 0-2.721 6.991l.826 28.695a9.587 9.587 0 0 0 9.63 9.358h26.85a9.561 9.561 0 0 0 6.863-2.873 9.564 9.564 0 0 0 2.77-6.906l-.429-28.694zm-31.255 23.901l-.542-18.818h17.299l.282 18.818h-17.039zM276.461 231.022a9.567 9.567 0 0 0-6.836-2.845h-27.249a9.567 9.567 0 0 0-6.836 2.845 9.564 9.564 0 0 0-2.798 6.856l.198 28.695c.037 5.275 4.359 9.567 9.634 9.567h26.852c5.276 0 9.597-4.292 9.634-9.568l.199-28.694a9.57 9.57 0 0 0-2.798-6.856zm-11.94 30.545h-17.043l-.13-18.818h17.303l-.13 18.818zM327.089 231.096a9.687 9.687 0 0 0-6.909-2.92h-27.247c-5.234 0-9.556 4.258-9.633 9.491l-.429 28.695a9.561 9.561 0 0 0 2.77 6.905 9.561 9.561 0 0 0 6.863 2.873h26.851c5.25 0 9.48-4.11 9.63-9.358l.825-28.695a9.692 9.692 0 0 0-2.721-6.991zm-12.534 30.471h-17.039l.282-18.818h17.299l-.542 18.818zM229.461 294.448c-.079-5.232-4.401-9.49-9.634-9.49h-26.545a9.692 9.692 0 0 0-6.91 2.92 9.687 9.687 0 0 0-2.721 6.991l.785 27.255a9.587 9.587 0 0 0 9.631 9.359h26.168a9.565 9.565 0 0 0 6.864-2.874 9.561 9.561 0 0 0 2.769-6.905l-.407-27.256zm-30.595 22.462l-.5-17.379h16.597l.26 17.379h-16.357zM276.108 287.803a9.57 9.57 0 0 0-6.835-2.844h-26.546a9.57 9.57 0 0 0-6.835 2.844 9.573 9.573 0 0 0-2.8 6.857l.189 27.253c.035 5.277 4.357 9.57 9.634 9.57h26.17c5.278 0 9.599-4.293 9.634-9.568l.189-27.258a9.567 9.567 0 0 0-2.8-6.854zM264.18 316.91h-16.36l-.12-17.379h16.602l-.122 17.379zM325.628 287.878a9.688 9.688 0 0 0-6.91-2.92h-26.545c-5.233 0-9.555 4.257-9.634 9.491l-.408 27.253c-.04 2.601.944 5.054 2.769 6.907s4.263 2.874 6.864 2.874h26.168c5.25 0 9.48-4.11 9.631-9.358l.786-27.256a9.688 9.688 0 0 0-2.721-6.991zm-12.493 29.032h-16.357l.26-17.379h16.598l-.501 17.379zM230.187 351.051c-.077-5.233-4.399-9.491-9.633-9.491H194.68a9.688 9.688 0 0 0-6.909 2.92 9.69 9.69 0 0 0-2.721 6.991l.746 25.907a9.587 9.587 0 0 0 9.63 9.359h25.516a9.561 9.561 0 0 0 6.863-2.873 9.565 9.565 0 0 0 2.77-6.906l-.388-25.907zm-29.962 21.113l-.462-16.03h15.926l.24 16.03h-15.704zM275.773 344.406a9.563 9.563 0 0 0-6.836-2.845h-25.875a9.567 9.567 0 0 0-6.836 2.845 9.564 9.564 0 0 0-2.798 6.856l.179 25.905c.035 5.277 4.357 9.57 9.634 9.57h25.517c5.277 0 9.599-4.293 9.634-9.568l.179-25.907a9.57 9.57 0 0 0-2.798-6.856zm-11.919 27.758h-15.708l-.111-16.03h15.93l-.111 16.03zM324.228 344.481a9.684 9.684 0 0 0-6.909-2.92h-25.874c-5.234 0-9.556 4.257-9.633 9.49l-.388 25.909a9.563 9.563 0 0 0 2.77 6.905 9.563 9.563 0 0 0 6.863 2.873h25.516c5.25 0 9.48-4.11 9.63-9.358l.746-25.908a9.692 9.692 0 0 0-2.721-6.991zm-12.453 27.683h-15.704l.24-16.03h15.926l-.462 16.03zM329.28 109.677a13.933 13.933 0 0 0-10.078-4.263H192.797c-3.831 0-7.41 1.514-10.078 4.263a13.936 13.936 0 0 0-3.961 10.199l1.757 59.044a13.978 13.978 0 0 0 14.039 13.627h122.891a13.978 13.978 0 0 0 14.039-13.627l1.757-59.044a13.93 13.93 0 0 0-3.961-10.199zm-12.347 68.296H195.067l-1.726-57.987h125.318l-1.726 57.987zM340.321 451.433H171.679c-7.509 0-13.619 6.109-13.619 13.619v7.333c0 7.509 6.109 13.619 13.619 13.619h168.642c7.509 0 13.619-6.109 13.619-13.619v-7.333c0-7.509-6.109-13.619-13.619-13.619zm-.955 19.998H172.633v-5.424h166.733v5.424z"/><path d="M431.227 484.133l-28.426-77.98c-4.02-11.027-16.331-18.437-30.632-18.437h-14.656l6.186-213.603a7.287 7.287 0 0 0-7.073-7.494c-4.059-.094-7.378 3.051-7.495 7.073l-6.403 221.098v.003l-.499 17.236a11.18 11.18 0 0 1-11.231 10.91H181a11.18 11.18 0 0 1-11.23-10.909l-9.185-317.12a6.66 6.66 0 0 1 1.895-4.879 6.664 6.664 0 0 1 4.822-2.04h177.397c1.833 0 3.545.724 4.822 2.04a6.661 6.661 0 0 1 1.894 4.885l-1.259 43.471a7.287 7.287 0 0 0 7.073 7.494 7.264 7.264 0 0 0 7.495-7.073l1.259-43.464c.173-5.805-1.959-11.296-6.004-15.464-4.045-4.167-9.471-6.462-15.279-6.462H220.752l-2.259-61.29A12.599 12.599 0 0 0 205.869 0h-18.221a12.604 12.604 0 0 0-12.624 12.151l-2.258 61.268h-5.464c-5.808 0-11.234 2.295-15.279 6.462-4.045 4.168-6.177 9.659-6.004 15.457l8.468 292.378h-14.656c-14.302 0-26.611 7.41-30.631 18.438l-8.324 22.835a7.285 7.285 0 0 0 4.35 9.341 7.285 7.285 0 0 0 9.342-4.35l8.324-22.835c1.87-5.131 8.995-8.856 16.94-8.856h15.078l.294 10.161c.407 14.053 11.738 25.061 25.797 25.061H331c14.059 0 25.39-11.008 25.798-25.061l.294-10.161h15.078c7.945 0 15.069 3.725 16.94 8.856l28.426 77.979c.295.81.552 2.08-.618 3.752-1.469 2.1-5.198 4.551-10.87 4.551H105.953c-5.672 0-9.401-2.452-10.87-4.551-1.17-1.673-.913-2.942-.618-3.752l8.102-22.225a7.286 7.286 0 0 0-4.35-9.341 7.284 7.284 0 0 0-9.342 4.35l-8.102 22.225c-2.089 5.73-1.225 11.961 2.37 17.099C87.861 507.974 96.389 512 105.953 512h300.095c9.564 0 18.091-4.026 22.81-10.768 3.594-5.138 4.458-11.37 2.369-17.099zM189.518 14.573H204l2.169 58.845h-18.82l2.169-58.845z"/></svg>