<svg xmlns="http://www.w3.org/2000/svg" viewBox="0 0 511.999 511.999"><path d="M399.929 266.014a7.327 7.327 0 0 0-7.327 7.327v91.283c0 15.352-12.431 27.852-27.755 27.973-.098 0-.194.002-.304.006H147.455c-.101-.003-.2-.004-.304-.006-15.324-.122-27.754-12.621-27.754-27.973V273.26a7.327 7.327 0 0 0-14.654 0v91.363c0 22.531 17.572 41.024 39.729 42.523 10.948 8.984 17.428 26.32 17.428 46.946v33.466c0 13.477 10.964 24.441 24.441 24.441h139.317c13.477 0 24.441-10.964 24.441-24.441v-33.466c0-20.626 6.481-37.962 17.429-46.946 22.157-1.5 39.729-19.993 39.729-42.523V273.34a7.328 7.328 0 0 0-7.328-7.326zm-64.485 188.079v33.466c0 5.397-4.39 9.787-9.787 9.787H186.341c-5.397 0-9.787-4.39-9.787-9.787v-33.466c0-18.294-4.538-34.721-12.59-46.836h184.07c-8.052 12.115-12.59 28.542-12.59 46.836zM367.563 104.856c-10.963-8.978-17.465-26.306-17.465-46.949V24.441C350.098 10.964 339.134 0 325.657 0H186.341C172.864 0 161.9 10.964 161.9 24.441v33.466c0 20.627-6.481 37.962-17.428 46.946-22.157 1.499-39.729 19.993-39.729 42.523v91.201a7.327 7.327 0 0 0 14.654 0v-91.201c0-15.352 12.431-27.852 27.755-27.973.098 0 .195-.002.304-.006h217.088c.101.003.201.005.304.006 15.324.122 27.754 12.621 27.754 27.973v90.917a7.327 7.327 0 0 0 14.654 0v-90.917c0-22.518-17.553-41.003-39.693-42.52zm-203.599-.113c8.052-12.115 12.59-28.542 12.59-46.836V24.441c0-5.397 4.39-9.787 9.787-9.787h139.317c5.397 0 9.787 4.39 9.787 9.787v33.466c0 18.294 4.538 34.721 12.59 46.836H163.964z"/><path d="M349.915 242.888L262 166.379a9.141 9.141 0 0 0-12.001-.001l-87.915 76.511c-2.904 2.528-3.908 6.492-2.558 10.098 1.35 3.606 4.71 5.936 8.56 5.936h17.878v80.474c0 5.039 4.1 9.139 9.14 9.139h41.914a7.327 7.327 0 0 0 7.327-7.327v-66.56h23.309v66.56a7.326 7.326 0 0 0 7.327 7.327h41.914c5.04 0 9.14-4.1 9.14-9.139v-80.474h17.879c3.85 0 7.21-2.33 8.56-5.936 1.35-3.606.345-7.569-2.559-10.099zm-31.208 1.38a7.327 7.327 0 0 0-7.327 7.327v82.287h-29.072v-63.319c0-2.823-1.099-5.477-3.095-7.473a10.498 10.498 0 0 0-7.471-3.095h-31.484c-5.827 0-10.568 4.741-10.568 10.569v63.319h-29.071v-82.287a7.327 7.327 0 0 0-7.327-7.327h-10.469l73.176-63.686 73.177 63.685h-10.469z"/><path d="M378.078 133.921a18.907 18.907 0 0 0-13.455-5.578H147.375a18.906 18.906 0 0 0-13.455 5.579 18.909 18.909 0 0 0-5.578 13.455v217.246c0 5.079 1.981 9.858 5.578 13.456 3.598 3.598 8.376 5.579 13.455 5.578h217.248c5.079 0 9.857-1.981 13.455-5.578 3.598-3.598 5.579-8.376 5.578-13.455V147.377c0-5.079-1.981-9.858-5.578-13.456zm-9.076 230.703a4.349 4.349 0 0 1-1.286 3.092 4.348 4.348 0 0 1-3.093 1.287H147.375a4.344 4.344 0 0 1-3.092-1.287 4.347 4.347 0 0 1-1.286-3.093V147.376c0-1.164.457-2.263 1.286-3.092a4.348 4.348 0 0 1 3.093-1.287h217.247c1.165 0 2.263.457 3.093 1.287a4.345 4.345 0 0 1 1.286 3.093v217.247z"/></svg>