<svg xmlns="http://www.w3.org/2000/svg" viewBox="0 0 512 512"><path d="M401.727 246.608a7.286 7.286 0 0 0-7.287 7.287v231.029c0 6.894-5.609 12.503-12.504 12.503H130.062c-6.895 0-12.504-5.609-12.504-12.503V253.895a7.287 7.287 0 1 0-14.574 0v231.029c0 14.93 12.147 27.076 27.077 27.076h251.875c14.93 0 27.077-12.147 27.077-27.076V253.895a7.286 7.286 0 0 0-7.286-7.287zM381.936 0H130.062c-14.93 0-27.077 12.147-27.077 27.076v192.005a7.287 7.287 0 1 0 14.574 0V27.076c0-6.894 5.609-12.503 12.504-12.503h251.875c6.895 0 12.504 5.609 12.504 12.503v192.213a7.287 7.287 0 1 0 14.574 0V27.076C409.013 12.147 396.866 0 381.936 0z"/><path d="M361.182 43.911H150.816c-9.463 0-17.162 7.699-17.162 17.163v357.624c0 9.463 7.699 17.163 17.162 17.163h210.366c9.463 0 17.162-7.699 17.162-17.163V61.074c0-9.464-7.699-17.163-17.162-17.163zM148.227 61.074a2.592 2.592 0 0 1 2.589-2.59h210.366a2.592 2.592 0 0 1 2.589 2.59v23.231H148.227V61.074zm215.545 357.625a2.592 2.592 0 0 1-2.589 2.59H150.816a2.594 2.594 0 0 1-2.589-2.591V98.878h215.545v319.821zM255.999 443.964c-13.333 0-24.18 10.848-24.18 24.18 0 13.333 10.847 24.18 24.18 24.18s24.18-10.847 24.18-24.18-10.847-24.18-24.18-24.18zm0 33.787c-5.297 0-9.607-4.31-9.607-9.607s4.31-9.607 9.607-9.607 9.607 4.31 9.607 9.607-4.31 9.607-9.607 9.607z"/><path d="M347.494 228.484a8.087 8.087 0 0 0-2.907-6.198l-83.3-69.718a8.364 8.364 0 0 0-10.739.004l-83.145 69.797a8.066 8.066 0 0 0-2.898 6.191v23.416c0 4.478 3.69 8.122 8.225 8.122 1.94 0 3.826-.685 5.313-1.93l9.608-8.056v70.066c0 7.151 5.818 12.969 12.969 12.969h28.818c7.151 0 12.968-5.818 12.968-12.969v-48.121h27.188v48.121c0 7.151 5.817 12.969 12.968 12.969h28.822c7.151 0 12.969-5.818 12.969-12.969l-.004-70.019 9.614 8.049a8.285 8.285 0 0 0 5.306 1.926h.001a8.308 8.308 0 0 0 5.33-1.932 8.06 8.06 0 0 0 2.895-6.19l-.001-23.528zm-63.328 90.09v-47.749c0-7.356-5.985-13.341-13.342-13.341h-29.651c-7.357 0-13.342 5.985-13.342 13.341v47.749h-25.608v-80.68l53.698-45.021 53.851 45.084.005 80.617h-25.611zm48.753-80.244l-11.177-9.357-.005-.005-32.239-26.991-28.215-23.622a8.428 8.428 0 0 0-1.112-.781c-.028-.016-.054-.036-.082-.052-.053-.03-.109-.055-.162-.084a8.376 8.376 0 0 0-1.294-.57 8.374 8.374 0 0 0-2.712-.458 8.379 8.379 0 0 0-5.368 1.949l-60.296 50.552-.005.004-11.174 9.368v-6.686l76.849-64.512 76.992 64.44v6.805z"/></svg>