<svg xmlns="http://www.w3.org/2000/svg" viewBox="0 0 477.867 477.867"><path d="M196.267 170.667V204.8a8.533 8.533 0 0 0 8.533 8.533h68.267a8.533 8.533 0 0 0 8.533-8.533v-34.133h-85.333zM435.2 332.8h-76.8v55.723A37.885 37.885 0 0 1 352 409.6h23.467a8.533 8.533 0 0 1 0 17.066H102.4c-4.713 0-8.533-3.82-8.533-8.533s3.82-8.533 8.533-8.533h23.467a37.887 37.887 0 0 1-6.4-21.077V332.8h-76.8c-14.138 0-25.6 11.461-25.6 25.6v119.467H460.8V358.4c0-14.138-11.461-25.6-25.6-25.6zM76.8 426.667h-8.533c-4.713 0-8.533-3.82-8.533-8.533s3.82-8.533 8.533-8.533H76.8c4.713 0 8.533 3.82 8.533 8.533s-3.82 8.533-8.533 8.533zM196.267 460.8H179.2c-4.713 0-8.533-3.82-8.533-8.533s3.82-8.533 8.533-8.533h17.067a8.533 8.533 0 0 1 0 17.066zm51.2 0H230.4c-4.713 0-8.533-3.82-8.533-8.533s3.82-8.533 8.533-8.533h17.067c4.713 0 8.533 3.82 8.533 8.533s-3.82 8.533-8.533 8.533zm51.2 0H281.6c-4.713 0-8.533-3.82-8.533-8.533s3.82-8.533 8.533-8.533h17.067c4.713 0 8.533 3.82 8.533 8.533s-3.82 8.533-8.533 8.533zM409.6 426.667h-8.533c-4.713 0-8.533-3.82-8.533-8.533s3.82-8.533 8.533-8.533h8.533c4.713 0 8.533 3.82 8.533 8.533s-3.82 8.533-8.533 8.533zM320.256 0H157.611c-11.621.047-21.031 9.456-21.077 21.077v38.656h204.8V21.077C341.287 9.456 331.877.047 320.256 0zM261.12 36.949h-44.373c-4.713 0-8.533-3.82-8.533-8.533s3.82-8.533 8.533-8.533h44.373c4.713 0 8.533 3.82 8.533 8.533s-3.82 8.533-8.533 8.533z"/><path d="M136.533 307.2v81.323c.047 11.621 9.456 21.031 21.077 21.077h162.645c11.621-.047 21.031-9.456 21.077-21.077V307.2H136.533zm102.4 85.333c-18.851 0-34.133-15.282-34.133-34.133s15.282-34.133 34.133-34.133c18.851 0 34.133 15.282 34.133 34.133s-15.281 34.133-34.133 34.133z"/><circle cx="238.933" cy="358.4" r="17.067"/><path d="M136.533 76.8v213.333H230.4V230.4h-25.6c-14.138 0-25.6-11.461-25.6-25.6v-34.133c0-9.426 7.641-17.067 17.067-17.067h8.533v-42.667c0-4.713 3.82-8.533 8.533-8.533s8.533 3.82 8.533 8.533V153.6H256v-42.667c0-4.713 3.82-8.533 8.533-8.533s8.533 3.82 8.533 8.533V153.6h8.533c9.426 0 17.067 7.641 17.067 17.067V204.8c0 14.138-11.461 25.6-25.6 25.6h-25.6v59.733h93.867V76.8h-204.8z"/></svg>