<svg xmlns="http://www.w3.org/2000/svg" viewBox="0 0 512.001 512.001"><path d="M157.667 221.867c23.564 0 42.667-19.103 42.667-42.667s-19.103-42.667-42.667-42.667S115 155.636 115 179.201s19.103 42.666 42.667 42.666zm-6.059-48.725a8.528 8.528 0 0 1 2.816-1.792 8.534 8.534 0 0 1 9.301 1.792 8.964 8.964 0 0 1 2.475 6.059 8.513 8.513 0 0 1-.683 3.243 9.782 9.782 0 0 1-1.792 2.816 8.533 8.533 0 0 1-12.068.049l-.049-.049a9.844 9.844 0 0 1-1.792-2.816 8.55 8.55 0 0 1-.683-3.243 8.964 8.964 0 0 1 2.475-6.059zM157.667 281.601c-47.128 0-85.333 38.205-85.333 85.333s38.205 85.333 85.333 85.333S243 414.062 243 366.934s-38.205-85.333-85.333-85.333zm0 119.466c-18.851 0-34.133-15.282-34.133-34.133s15.282-34.133 34.133-34.133 34.133 15.282 34.133 34.133-15.282 34.133-34.133 34.133z"/><path d="M431.502 19.967A128 128 0 0 0 362.467 0c-54.141.246-102.338 34.356-120.576 85.333H63.8c-23.564 0-42.667 19.103-42.667 42.667v341.333C21.133 492.897 40.235 512 63.8 512h187.733c23.564 0 42.667-19.102 42.667-42.667v-233.3c59.665 37.915 138.769 20.283 176.684-39.382s20.283-138.769-39.382-176.684zm-273.835 99.5c32.99 0 59.733 26.744 59.733 59.733s-26.744 59.733-59.733 59.733-59.733-26.744-59.733-59.733 26.743-59.733 59.733-59.733zm0 349.867c-56.554 0-102.4-45.846-102.4-102.4s45.846-102.4 102.4-102.4 102.4 45.846 102.4 102.4-45.846 102.4-102.4 102.4zM371 190.379a14.335 14.335 0 0 1-8.533 13.141 14.075 14.075 0 0 1-5.888 1.28 13.82 13.82 0 0 1-8.533-3.243l-13.312-11.435-27.051-27.989H282.68c-7.87-.094-14.174-6.549-14.08-14.419v-39.426c-.095-7.87 6.208-14.327 14.078-14.421h25.09l26.624-26.453 13.653-11.776a13.738 13.738 0 0 1 14.421-1.963 14.164 14.164 0 0 1 8.533 13.056v123.648zm25.6-26.026a8.535 8.535 0 0 1-7.68-4.949 8.533 8.533 0 0 1 4.011-11.349c10.792-5.287 15.256-18.322 9.969-29.114a21.766 21.766 0 0 0-9.969-9.969 8.533 8.533 0 0 1 7.339-15.104c19.323 9.406 27.361 32.696 17.955 52.018a38.916 38.916 0 0 1-17.955 17.955 8.543 8.543 0 0 1-3.67.512zm18.005 22.698a7.163 7.163 0 0 1-3.243.683 8.533 8.533 0 0 1-3.242-16.384 48.043 48.043 0 0 0 31.147-43.349 48.042 48.042 0 0 0-31.147-43.349 8.533 8.533 0 0 1 6.485-15.701c24.58 9.422 41.054 32.735 41.728 59.051-.674 26.314-17.148 49.627-41.728 59.049z"/><circle cx="157.667" cy="366.934" r="17.067"/><path d="M317.24 108.459a8.538 8.538 0 0 1-5.973 2.475h-25.6v34.133h25.6a8.535 8.535 0 0 1 6.144 2.56l29.184 30.037 7.339 6.4V73.131l-7.936 6.827-28.758 28.501z"/></svg>