<svg xmlns="http://www.w3.org/2000/svg" viewBox="0 0 512.001 512.001"><path d="M157.667 221.867c23.564 0 42.667-19.103 42.667-42.667s-19.103-42.667-42.667-42.667S115 155.636 115 179.201s19.103 42.666 42.667 42.666zm-6.059-48.725l1.28-1.024 1.536-.768a5.232 5.232 0 0 1 1.621-.512 6.917 6.917 0 0 1 3.243 0 5.215 5.215 0 0 1 1.621.512c.524.17 1.015.43 1.451.768a8.52 8.52 0 0 1 1.365 1.024 8.964 8.964 0 0 1 2.475 6.059 8.513 8.513 0 0 1-.683 3.243 9.782 9.782 0 0 1-1.792 2.816 8.533 8.533 0 0 1-12.068.049l-.049-.049a9.844 9.844 0 0 1-1.792-2.816 8.55 8.55 0 0 1-.683-3.243 8.964 8.964 0 0 1 2.475-6.059z"/><circle cx="157.667" cy="366.934" r="17.067"/><path d="M431.502 19.967A128 128 0 0 0 362.467 0c-54.141.246-102.338 34.356-120.576 85.333H63.8c-23.564 0-42.667 19.103-42.667 42.667v341.333C21.133 492.897 40.235 512 63.8 512h187.733c23.564 0 42.667-19.102 42.667-42.667v-233.3c59.665 37.915 138.769 20.283 176.684-39.382s20.283-138.769-39.382-176.684zm-273.835 99.5c32.99 0 59.733 26.744 59.733 59.733s-26.744 59.733-59.733 59.733-59.733-26.744-59.733-59.733 26.743-59.733 59.733-59.733zm0 349.867c-56.554 0-102.4-45.846-102.4-102.4s45.846-102.4 102.4-102.4 102.4 45.846 102.4 102.4-45.846 102.4-102.4 102.4zm271.786-351.829a17.069 17.069 0 0 1-15.787 10.496H396.6v68.267c0 9.426-7.641 17.067-17.067 17.067H345.4c-9.426 0-17.067-7.641-17.067-17.067v-68.267h-17.067c-9.426-.04-17.034-7.713-16.995-17.138a17.067 17.067 0 0 1 4.963-11.96l51.2-51.2c6.657-6.617 17.407-6.617 24.064 0l51.2 51.2a17.063 17.063 0 0 1 3.755 18.602z"/><path d="M157.667 281.601c-47.128 0-85.333 38.205-85.333 85.333s38.205 85.333 85.333 85.333S243 414.062 243 366.934s-38.205-85.333-85.333-85.333zm0 119.466c-18.851 0-34.133-15.282-34.133-34.133s15.282-34.133 34.133-34.133 34.133 15.282 34.133 34.133-15.282 34.133-34.133 34.133zM311.267 110.934h17.067c9.426 0 17.067 7.641 17.067 17.067v68.267h34.133v-68.267c0-9.426 7.641-17.067 17.067-17.067h17.067l-51.2-51.2-51.201 51.2z"/></svg>