<svg xmlns="http://www.w3.org/2000/svg" viewBox="0 0 512.001 512.001"><path d="M157.667 281.601c-47.128 0-85.333 38.205-85.333 85.333s38.205 85.333 85.333 85.333S243 414.062 243 366.934s-38.205-85.333-85.333-85.333zm0 119.466c-18.851 0-34.133-15.282-34.133-34.133s15.282-34.133 34.133-34.133 34.133 15.282 34.133 34.133-15.282 34.133-34.133 34.133zM157.667 221.867c23.564 0 42.667-19.103 42.667-42.667s-19.103-42.667-42.667-42.667S115 155.636 115 179.201s19.103 42.666 42.667 42.666zm-7.186-47.256a8.52 8.52 0 0 1 7.186-3.943 8.533 8.533 0 0 1 8.533 8.533 7.166 7.166 0 0 1-.683 3.243 9.782 9.782 0 0 1-1.792 2.816 8.533 8.533 0 0 1-12.068.049l-.049-.049a9.844 9.844 0 0 1-1.792-2.816 8.55 8.55 0 0 1-.683-3.243 8.95 8.95 0 0 1 1.348-4.59zM353.933 158.038l32.939-33.28-32.939-33.28z"/><path d="M431.502 19.967A128 128 0 0 0 362.467 0c-54.15.221-102.359 34.34-120.576 85.333H63.8c-23.564 0-42.667 19.103-42.667 42.667v341.333C21.133 492.897 40.235 512 63.8 512h187.733c23.564 0 42.667-19.102 42.667-42.667v-233.3c59.665 37.915 138.769 20.283 176.684-39.382s20.283-138.769-39.382-176.684zm-273.835 99.5c32.99 0 59.733 26.744 59.733 59.733s-26.744 59.733-59.733 59.733-59.733-26.744-59.733-59.733 26.743-59.733 59.733-59.733zm0 349.867c-56.554 0-102.4-45.846-102.4-102.4s45.846-102.4 102.4-102.4 102.4 45.846 102.4 102.4-45.846 102.4-102.4 102.4zm243.285-334.507l-39.765 40.107c-5.454 5.608-14.422 5.734-20.031.279a14.165 14.165 0 0 1-4.289-10.263V84.566c.008-7.87 6.395-14.244 14.265-14.236a14.25 14.25 0 0 1 10.055 4.167l39.851 40.277a13.822 13.822 0 0 1 4.096 9.984 14.169 14.169 0 0 1-4.182 10.069z"/><circle cx="157.667" cy="366.934" r="17.067"/></svg>