<svg xmlns="http://www.w3.org/2000/svg" viewBox="0 0 512.001 512.001"><path d="M157.667 221.867c23.564 0 42.667-19.103 42.667-42.667s-19.103-42.667-42.667-42.667S115 155.636 115 179.201s19.103 42.666 42.667 42.666zm-6.059-48.725a8.534 8.534 0 0 1 9.301-1.792 9.8 9.8 0 0 1 2.816 1.792 8.964 8.964 0 0 1 2.475 6.059 8.533 8.533 0 0 1-14.543 6.108l-.049-.049a9.8 9.8 0 0 1-1.792-2.816 8.55 8.55 0 0 1-.683-3.243 8.964 8.964 0 0 1 2.475-6.059z"/><circle cx="157.667" cy="366.934" r="17.067"/><path d="M319.8 93.867h17.067v68.267H319.8z"/><path d="M431.502 19.967A128 128 0 0 0 362.467 0c-54.15.221-102.359 34.34-120.576 85.333H63.8c-23.564 0-42.667 19.103-42.667 42.667v341.333C21.133 492.897 40.235 512 63.8 512h187.733c23.564 0 42.667-19.102 42.667-42.667v-233.3c59.665 37.915 138.769 20.283 176.684-39.382s20.283-138.769-39.382-176.684zm-273.835 99.5c32.99 0 59.733 26.744 59.733 59.733s-26.744 59.733-59.733 59.733-59.733-26.744-59.733-59.733 26.743-59.733 59.733-59.733zm0 349.867c-56.554 0-102.4-45.846-102.4-102.4s45.846-102.4 102.4-102.4 102.4 45.846 102.4 102.4-45.846 102.4-102.4 102.4zm196.266-307.2c0 9.426-7.641 17.067-17.067 17.067H319.8c-9.426 0-17.067-7.641-17.067-17.067V93.867c0-9.426 7.641-17.067 17.067-17.067h17.067c9.426 0 17.067 7.641 17.067 17.067v68.267zm68.267 0c0 9.426-7.641 17.067-17.067 17.067h-17.067c-9.426 0-17.067-7.641-17.067-17.067V93.867c0-9.426 7.641-17.067 17.067-17.067h17.067c9.426 0 17.067 7.641 17.067 17.067v68.267z"/><path d="M157.667 281.601c-47.128 0-85.333 38.205-85.333 85.333s38.205 85.333 85.333 85.333S243 414.062 243 366.934s-38.205-85.333-85.333-85.333zm0 119.466c-18.851 0-34.133-15.282-34.133-34.133s15.282-34.133 34.133-34.133 34.133 15.282 34.133 34.133-15.282 34.133-34.133 34.133zM388.067 93.867h17.067v68.267h-17.067z"/></svg>