<svg xmlns="http://www.w3.org/2000/svg" viewBox="0 0 512 512"><path d="M256 165.035l-55.552 49.408a8.53 8.53 0 0 1 4.352 7.424v68.267h25.6V256a8.533 8.533 0 0 1 8.533-8.533h34.133a8.533 8.533 0 0 1 8.533 8.533v34.133h25.6v-68.267a8.53 8.53 0 0 1 4.352-7.424L256 165.035z"/><path d="M349.867 0H162.133c-23.564 0-42.667 19.103-42.667 42.667v426.667c0 23.564 19.103 42.667 42.667 42.667h187.733c23.564 0 42.667-19.102 42.667-42.667V42.667C392.533 19.103 373.431 0 349.867 0zM230.4 42.667h51.2c4.713 0 8.533 3.82 8.533 8.533s-3.82 8.533-8.533 8.533h-51.2c-4.713 0-8.533-3.82-8.533-8.533s3.82-8.533 8.533-8.533zm25.6 435.2c-23.564 0-42.667-19.103-42.667-42.667s19.102-42.667 42.667-42.667 42.667 19.103 42.667 42.667-19.103 42.667-42.667 42.667zm84.736-252.928a8.534 8.534 0 0 1-7.936 5.461h-8.533v68.267a8.533 8.533 0 0 1-8.533 8.533h-42.667a8.533 8.533 0 0 1-8.533-8.533v-34.133h-17.067v34.133a8.533 8.533 0 0 1-8.533 8.533h-42.667a8.533 8.533 0 0 1-8.533-8.533V230.4H179.2a8.533 8.533 0 0 1-5.632-14.934l76.8-68.267a8.534 8.534 0 0 1 11.349 0l76.8 68.267a8.535 8.535 0 0 1 2.219 9.473z"/><circle cx="256" cy="435.2" r="25.6"/></svg>