<svg xmlns="http://www.w3.org/2000/svg" viewBox="0 0 512 512"><path d="M469.333 21.333H42.667C19.103 21.333 0 40.436 0 64v290.133C0 377.698 19.103 396.8 42.667 396.8h153.6a89.69 89.69 0 0 1-13.824 42.667h-97.11c-14.138 0-25.6 11.461-25.6 25.6s11.461 25.6 25.6 25.6h341.333c14.138 0 25.6-11.461 25.6-25.6s-11.461-25.6-25.6-25.6h-96.939a89.695 89.695 0 0 1-13.995-42.667h153.6c23.564 0 42.667-19.103 42.667-42.667V64c.001-23.564-19.101-42.667-42.666-42.667zM51.2 72.533h-8.533a8.533 8.533 0 0 1 0-17.066H51.2c4.713 0 8.533 3.82 8.533 8.533s-3.82 8.533-8.533 8.533zM76.8 64a8.533 8.533 0 0 1 8.533-8.533H204.8a8.533 8.533 0 0 1 0 17.066H85.333A8.533 8.533 0 0 1 76.8 64zm187.733 290.133h-17.067c-4.713 0-8.533-3.82-8.533-8.533s3.82-8.533 8.533-8.533h17.067c4.713 0 8.533 3.82 8.533 8.533s-3.82 8.533-8.533 8.533zm76.203-184.661a8.534 8.534 0 0 1-7.936 5.461h-8.533V243.2a8.533 8.533 0 0 1-8.533 8.533h-42.667a8.533 8.533 0 0 1-8.533-8.533v-34.133h-17.067V243.2a8.533 8.533 0 0 1-8.533 8.533h-42.667a8.533 8.533 0 0 1-8.533-8.533v-68.267H179.2a8.534 8.534 0 0 1-7.936-5.461 8.535 8.535 0 0 1 2.304-9.472l76.8-68.267a8.533 8.533 0 0 1 11.264 0l76.8 68.267a8.535 8.535 0 0 1 2.304 9.472z"/><path d="M200.448 158.976a8.532 8.532 0 0 1 4.352 7.424v68.267h25.6v-34.133a8.533 8.533 0 0 1 8.533-8.533h34.133a8.533 8.533 0 0 1 8.533 8.533v34.133h25.6V166.4a8.532 8.532 0 0 1 4.352-7.424L256 109.568l-55.552 49.408z"/></svg>