<svg xmlns="http://www.w3.org/2000/svg" viewBox="0 0 512 512"><circle cx="140.8" cy="354.131" r="12.8"/><path d="M221.867 110.931a8.533 8.533 0 0 0-8.533 8.533v51.2c0 4.713 3.82 8.533 8.533 8.533s8.533-3.82 8.533-8.533v-51.2a8.533 8.533 0 0 0-8.533-8.533z"/><circle cx="256" cy="349.864" r="25.6"/><path d="M486.4 230.398H351.147a127.312 127.312 0 0 0 24.32-39.595A125.093 125.093 0 0 0 384 154.366v-9.301a126.205 126.205 0 0 0-12.373-54.869C341.304 26.336 264.955-.85 201.096 29.472a127.999 127.999 0 0 0-60.722 60.722 126.282 126.282 0 0 0-12.373 54.869v9.045a125.605 125.605 0 0 0 8.533 36.693 127.244 127.244 0 0 0 24.32 39.595H25.6c-14.138 0-25.6 11.461-25.6 25.6v179.2c0 14.138 11.461 25.6 25.6 25.6h8.533v8.533c0 14.138 11.461 25.6 25.6 25.6H460.8c14.138 0 25.6-11.461 25.6-25.6v-8.533c14.138 0 25.6-11.462 25.6-25.6v-179.2c0-14.137-11.461-25.598-25.6-25.598zM264.533 119.464c0-14.138 11.462-25.6 25.6-25.6s25.6 11.461 25.6 25.6v51.2c0 14.138-11.461 25.6-25.6 25.6s-25.6-11.462-25.6-25.6v-51.2zm-68.266 0c0-14.138 11.462-25.6 25.6-25.6s25.6 11.461 25.6 25.6v51.2c0 14.138-11.461 25.6-25.6 25.6s-25.6-11.462-25.6-25.6v-51.2zm-153.6 145.067H51.2c4.713 0 8.533 3.82 8.533 8.533s-3.82 8.533-8.533 8.533h-8.533c-4.713 0-8.533-3.82-8.533-8.533s3.82-8.533 8.533-8.533zm22.101 213.333h-5.035a8.533 8.533 0 0 1-8.533-8.533v-8.533h31.061l-17.493 17.066zM64 383.998c-16.495 0-29.867-13.372-29.867-29.867S47.505 324.264 64 324.264s29.867 13.372 29.867 29.867S80.495 383.998 64 383.998zm44.459 93.866H89.173l17.067-17.067h19.2l-16.981 17.067zm43.605 0h-19.2l17.067-17.067h19.2l-17.067 17.067zM140.8 383.998c-16.495 0-29.867-13.372-29.867-29.867s13.372-29.867 29.867-29.867 29.867 13.372 29.867 29.867-13.372 29.867-29.867 29.867zm-55.467-102.4c-4.713 0-8.533-3.82-8.533-8.533s3.82-8.533 8.533-8.533h85.333c4.713 0 8.533 3.82 8.533 8.533s-3.82 8.533-8.533 8.533H85.333zm110.336 196.266h-19.2l17.067-17.067h19.797l-17.664 17.067zm43.264 0h-18.859l17.067-17.067h19.2l-17.408 17.067zM256 409.598a8.533 8.533 0 0 1-8.533-8.533v-9.387a42.666 42.666 0 0 1-33.28-33.28H204.8c-4.713 0-8.533-3.82-8.533-8.533s3.82-8.533 8.533-8.533h9.387a42.665 42.665 0 0 1 33.28-33.28v-9.387c0-4.713 3.82-8.533 8.533-8.533s8.533 3.82 8.533 8.533v9.387a42.666 42.666 0 0 1 33.28 33.28h9.387c4.713 0 8.533 3.82 8.533 8.533s-3.82 8.533-8.533 8.533h-9.387a42.665 42.665 0 0 1-33.28 33.28v9.387a8.533 8.533 0 0 1-8.533 8.533zm26.539 68.266h-18.773l17.067-17.067h19.2l-17.494 17.067zm44.117 0H307.2l17.067-17.067h19.2l-16.811 17.067zm23.211-153.6a8.533 8.533 0 0 1 13.653-6.826l34.133 25.6a8.535 8.535 0 0 1 0 13.654l-34.133 25.6a8.533 8.533 0 0 1-13.654-6.827v-51.201zm20.394 153.6h-19.285l17.067-17.067h19.2l-16.982 17.067zm43.606 0h-19.2l17.067-17.067h19.2l-17.067 17.067zm12.8-110.933v-34.133c0-4.713 3.82-8.533 8.533-8.533s8.533 3.82 8.533 8.533v34.133c0 4.713-3.82 8.533-8.533 8.533s-8.533-3.82-8.533-8.533zm42.666 102.4a8.533 8.533 0 0 1-8.533 8.533h-22.528l17.067-17.067h13.995v8.534zm8.534-102.4c0 4.713-3.82 8.533-8.533 8.533s-8.533-3.82-8.533-8.533v-34.133c0-4.713 3.82-8.533 8.533-8.533s8.533 3.82 8.533 8.533v34.133z"/><circle cx="64" cy="354.131" r="12.8"/><path d="M290.133 110.931a8.533 8.533 0 0 0-8.533 8.533v51.2c0 4.713 3.82 8.533 8.533 8.533s8.533-3.82 8.533-8.533v-51.2a8.532 8.532 0 0 0-8.533-8.533zM366.933 341.331v17.067l11.35-8.534z"/></svg>