<svg xmlns="http://www.w3.org/2000/svg" viewBox="0 0 512.085 512.085"><path d="M85.376 196.352h-8.533c-4.713 0-8.533 3.82-8.533 8.533s3.82 8.533 8.533 8.533h8.533a8.533 8.533 0 0 0 0-17.066z"/><path d="M477.909 128.085h-93.867a126.37 126.37 0 0 0-12.373-54.869C341.396 9.333 265.068-17.912 201.186 12.361a127.997 127.997 0 0 0-60.855 60.855 126.39 126.39 0 0 0-12.288 54.869H34.176c-18.851 0-34.133 15.282-34.133 34.133v281.6c0 18.851 15.282 34.133 34.133 34.133h177.835c-2.799 10.863-13.064 18.091-24.235 17.067h-68.267c-4.713 0-8.533 3.82-8.533 8.533s3.82 8.533 8.533 8.533h273.067a8.533 8.533 0 0 0 0-17.066h-68.267c-11.171 1.025-21.435-6.204-24.235-17.067h177.835c18.851 0 34.133-15.282 34.133-34.133v-281.6c.001-18.851-15.281-34.133-34.133-34.133zM232.188 92.63a42.659 42.659 0 0 1 15.321-6.358V44.288a8.533 8.533 0 0 1 17.066 0v41.984c23.084 4.734 37.959 27.285 33.225 50.369a42.666 42.666 0 0 1-6.174 14.911l18.688 18.688a8.533 8.533 0 1 1-12.032 12.032l-18.688-18.688c-19.593 13.091-46.089 7.82-59.18-11.774-13.09-19.593-7.819-46.089 11.774-59.18zm-9.596 402.388a46.685 46.685 0 0 0 6.997-17.067h52.907a46.685 46.685 0 0 0 6.997 17.067h-66.901zm238.251-93.866h-409.6V179.285h87.467c.597 1.365 1.365 2.645 1.963 3.925.597 1.28 1.621 3.328 2.475 4.949s2.56 4.523 3.925 6.741l.853 1.451H119.51c-4.713 0-8.533 3.82-8.533 8.533s3.82 8.533 8.533 8.533h41.387c1.792 2.048 3.669 4.096 5.632 6.059a111.093 111.093 0 0 0 10.496 9.216 130.343 130.343 0 0 0 11.776 8.533l3.243 1.877c39.556 23.042 88.444 23.042 128 0a42.151 42.151 0 0 0 3.669-2.133 131.33 131.33 0 0 0 11.861-8.533 109.635 109.635 0 0 0 10.496-9.216c3.002-3.072 5.85-6.29 8.533-9.643.939-1.109 1.792-2.389 2.731-3.499.939-1.109 3.499-4.523 5.12-6.912 1.621-2.389 1.792-2.901 2.731-4.437.939-1.536 2.731-4.523 4.011-6.827 1.28-2.304 1.621-3.243 2.389-4.864s1.365-2.645 1.963-4.011h87.296v222.125z"/><circle cx="256.043" cy="128.085" r="25.6"/></svg>