<svg xmlns="http://www.w3.org/2000/svg" viewBox="0 0 512.085 512.085"><path d="M85.376 196.352h-8.533c-4.713 0-8.533 3.82-8.533 8.533s3.82 8.533 8.533 8.533h8.533a8.533 8.533 0 0 0 0-17.066z"/><path d="M477.909 128.085h-93.867a126.37 126.37 0 0 0-12.373-54.869C341.396 9.333 265.068-17.912 201.186 12.361a127.997 127.997 0 0 0-60.855 60.855 126.39 126.39 0 0 0-12.288 54.869H34.176c-18.851 0-34.133 15.282-34.133 34.133v281.6c0 18.851 15.282 34.133 34.133 34.133h177.835c-2.799 10.863-13.064 18.091-24.235 17.067h-68.267c-4.713 0-8.533 3.82-8.533 8.533s3.82 8.533 8.533 8.533h273.067a8.533 8.533 0 0 0 0-17.066h-68.267c-11.171 1.025-21.435-6.204-24.235-17.067h177.835c18.851 0 34.133-15.282 34.133-34.133v-281.6c.001-18.851-15.281-34.133-34.133-34.133zm-275.882-25.6c14.084-29.832 49.686-42.599 79.518-28.514a59.733 59.733 0 0 1 28.514 28.514c10.91 23.029 6.01 50.443-12.203 68.267a44.942 44.942 0 0 1-4.608 4.011c-1.792 1.365-3.413 2.56-5.035 3.584l-2.731 1.621a58.967 58.967 0 0 1-58.88 0l-2.304-1.28a60.977 60.977 0 0 1-5.12-3.669 44.818 44.818 0 0 1-4.352-3.84 59.22 59.22 0 0 1-18.517-43.093 58.54 58.54 0 0 1 5.718-25.601zm20.65 392.533a46.685 46.685 0 0 0 6.997-17.067h52.821a46.685 46.685 0 0 0 6.997 17.067h-66.815zm238.166-93.866h-409.6V179.285h87.467c.597 1.365 1.365 2.645 1.963 3.925.597 1.28 1.621 3.328 2.475 4.949s2.56 4.523 3.925 6.741l.853 1.451H119.51c-4.713 0-8.533 3.82-8.533 8.533s3.82 8.533 8.533 8.533h41.387c1.792 2.048 3.669 4.096 5.632 6.059a111.093 111.093 0 0 0 10.496 9.216 130.343 130.343 0 0 0 11.776 8.533l3.243 1.877c39.556 23.042 88.444 23.042 128 0a42.151 42.151 0 0 0 3.669-2.133 131.33 131.33 0 0 0 11.861-8.533 109.635 109.635 0 0 0 10.496-9.216c3.002-3.072 5.85-6.29 8.533-9.643.939-1.109 1.792-2.389 2.731-3.499.939-1.109 3.499-4.523 5.12-6.912 1.621-2.389 1.792-2.901 2.731-4.437.939-1.536 2.731-4.523 4.011-6.827 1.28-2.304 1.621-3.243 2.389-4.864s1.365-2.645 1.963-4.011h87.296v222.125z"/><path d="M294.357 109.909c-10.024-21.326-35.439-30.487-56.764-20.462a42.664 42.664 0 0 0-20.462 20.462 41.652 41.652 0 0 0-3.755 18.176 42.667 42.667 0 0 0 13.397 30.976 29.24 29.24 0 0 0 2.901 2.475c1.109.853 2.133 1.621 3.499 2.475l1.963 1.109a41.982 41.982 0 0 0 41.728 0l2.475-1.365 3.413-2.475a31.708 31.708 0 0 0 3.072-2.731c12.891-12.753 16.314-32.261 8.533-48.64zm-29.781 35.243a8.533 8.533 0 0 1-17.066 0v-34.133c0-4.713 3.82-8.533 8.533-8.533s8.533 3.82 8.533 8.533v34.133z"/></svg>