<svg xmlns="http://www.w3.org/2000/svg" viewBox="0 0 512 512"><path d="M366.933 341.376v17.067l11.35-8.534z"/><circle cx="140.8" cy="354.176" r="12.8"/><circle cx="256" cy="145.109" r="25.6"/><circle cx="64" cy="354.176" r="12.8"/><path d="M486.4 230.443H351.147a127.221 127.221 0 0 0 24.32-39.595A125.093 125.093 0 0 0 384 154.411v-9.301a126.37 126.37 0 0 0-12.373-54.869C341.354 26.357 265.025-.888 201.143 29.385a127.997 127.997 0 0 0-60.855 60.855A126.39 126.39 0 0 0 128 145.109v9.045a125.51 125.51 0 0 0 8.533 36.693 127.323 127.323 0 0 0 24.32 39.595H25.6c-14.138 0-25.6 11.461-25.6 25.6v179.2c0 14.138 11.461 25.6 25.6 25.6h8.533v8.533c0 14.138 11.461 25.6 25.6 25.6H460.8c14.138 0 25.6-11.461 25.6-25.6v-8.533c14.138 0 25.6-11.462 25.6-25.6v-179.2c0-14.138-11.461-25.599-25.6-25.599zM232.146 109.654a42.659 42.659 0 0 1 15.321-6.358V61.312c0-4.713 3.82-8.533 8.533-8.533s8.533 3.82 8.533 8.533v41.984c23.084 4.734 37.959 27.285 33.225 50.369a42.666 42.666 0 0 1-6.174 14.911l18.688 18.688a8.533 8.533 0 1 1-12.032 12.032l-18.688-18.688c-19.593 13.091-46.089 7.82-59.18-11.774-13.091-19.593-7.82-46.089 11.774-59.18zM42.667 264.576H51.2c4.713 0 8.533 3.82 8.533 8.533s-3.82 8.533-8.533 8.533h-8.533c-4.713 0-8.533-3.82-8.533-8.533s3.82-8.533 8.533-8.533zm22.101 213.333h-5.035a8.533 8.533 0 0 1-8.533-8.533v-8.533h31.061l-17.493 17.066zM64 384.043c-16.495 0-29.867-13.372-29.867-29.867S47.505 324.309 64 324.309s29.867 13.372 29.867 29.867S80.495 384.043 64 384.043zm44.459 93.866H89.173l17.067-17.067h19.2l-16.981 17.067zm43.605 0h-19.2l17.067-17.067h19.2l-17.067 17.067zM140.8 384.043c-16.495 0-29.867-13.372-29.867-29.867s13.372-29.867 29.867-29.867 29.867 13.372 29.867 29.867-13.372 29.867-29.867 29.867zm-55.467-102.4c-4.713 0-8.533-3.82-8.533-8.533s3.82-8.533 8.533-8.533h85.333c4.713 0 8.533 3.82 8.533 8.533s-3.82 8.533-8.533 8.533H85.333zm110.336 196.266h-19.2l17.067-17.067h19.797l-17.664 17.067zm43.264 0h-18.859l17.067-17.067h19.2l-17.408 17.067zM256 409.643a8.533 8.533 0 0 1-8.533-8.533v-9.387a42.666 42.666 0 0 1-33.28-33.28H204.8c-4.713 0-8.533-3.82-8.533-8.533s3.82-8.533 8.533-8.533h9.387a42.665 42.665 0 0 1 33.28-33.28v-9.387c0-4.713 3.82-8.533 8.533-8.533s8.533 3.82 8.533 8.533v9.387a42.666 42.666 0 0 1 33.28 33.28h9.387c4.713 0 8.533 3.82 8.533 8.533s-3.82 8.533-8.533 8.533h-9.387a42.665 42.665 0 0 1-33.28 33.28v9.387a8.533 8.533 0 0 1-8.533 8.533zm26.539 68.266h-18.773l17.067-17.067h19.2l-17.494 17.067zm44.117 0H307.2l17.067-17.067h19.2l-16.811 17.067zm23.211-153.6a8.533 8.533 0 0 1 13.653-6.826l34.133 25.6a8.535 8.535 0 0 1 0 13.654l-34.133 25.6a8.533 8.533 0 0 1-13.654-6.827v-51.201zm20.394 153.6h-19.285l17.067-17.067h19.2l-16.982 17.067zm43.606 0h-19.2l17.067-17.067h19.2l-17.067 17.067zm12.8-110.933v-34.133c0-4.713 3.82-8.533 8.533-8.533s8.533 3.82 8.533 8.533v34.133c0 4.713-3.82 8.533-8.533 8.533s-8.533-3.82-8.533-8.533zm42.666 102.4a8.533 8.533 0 0 1-8.533 8.533h-22.528l17.067-17.067h13.995v8.534zm8.534-102.4c0 4.713-3.82 8.533-8.533 8.533s-8.533-3.82-8.533-8.533v-34.133c0-4.713 3.82-8.533 8.533-8.533s8.533 3.82 8.533 8.533v34.133z"/><circle cx="256" cy="349.909" r="25.6"/></svg>