<svg xmlns="http://www.w3.org/2000/svg" viewBox="0 0 512 512"><path d="M85.333 196.264H76.8c-4.713 0-8.533 3.82-8.533 8.533s3.82 8.533 8.533 8.533h8.533a8.533 8.533 0 0 0 0-17.066z"/><path d="M477.867 127.998H384a126.205 126.205 0 0 0-12.373-54.869c-30.323-63.86-106.672-91.046-170.531-60.723a127.999 127.999 0 0 0-60.722 60.722 126.208 126.208 0 0 0-12.373 54.869H34.133C15.282 127.998 0 143.28 0 162.131v281.6c0 18.851 15.282 34.133 34.133 34.133h177.835c-2.799 10.863-13.064 18.091-24.235 17.067h-68.267c-4.713 0-8.533 3.82-8.533 8.533s3.82 8.533 8.533 8.533h273.067a8.533 8.533 0 0 0 0-17.066h-68.267c-11.171 1.025-21.435-6.204-24.235-17.067h177.835c18.851 0 34.133-15.282 34.133-34.133v-281.6c.001-18.851-15.281-34.133-34.132-34.133zm-230.4-59.734c0-4.713 3.82-8.533 8.533-8.533s8.533 3.82 8.533 8.533v34.133c0 4.713-3.82 8.533-8.533 8.533s-8.533-3.82-8.533-8.533V68.264zm-45.483 34.134a59.74 59.74 0 0 1 24.149-26.027 8.533 8.533 0 0 1 8.534 14.763 42.669 42.669 0 0 0-17.067 18.773 41.643 41.643 0 0 0-4.267 18.091 42.667 42.667 0 0 0 13.397 30.976 30.806 30.806 0 0 0 2.901 2.475c1.109.853 2.133 1.621 3.499 2.475l1.963 1.109a41.982 41.982 0 0 0 41.728 0l2.475-1.365 3.413-2.475a30.846 30.846 0 0 0 3.072-2.731c12.891-12.753 16.314-32.261 8.533-48.64a42.668 42.668 0 0 0-17.067-18.688 8.534 8.534 0 1 1 8.534-14.763 59.74 59.74 0 0 1 24.235 26.027c10.91 23.029 6.01 50.443-12.203 68.267a46.73 46.73 0 0 1-4.608 4.011c-1.792 1.365-3.413 2.56-5.035 3.584l-2.731 1.621a58.967 58.967 0 0 1-58.88 0l-2.304-1.28a61.951 61.951 0 0 1-5.12-3.584 46.135 46.135 0 0 1-4.352-3.755 59.221 59.221 0 0 1-18.517-43.264 58.448 58.448 0 0 1 5.718-25.6zm20.651 392.533a46.685 46.685 0 0 0 6.997-17.067h52.821a46.685 46.685 0 0 0 6.997 17.067h-66.815zM460.8 401.064H51.2V179.198h87.467l.597 1.28c.853 1.963 1.792 3.84 2.731 5.717.939 1.877 2.56 4.864 4.011 7.168a32.309 32.309 0 0 0 1.707 2.901h-28.245c-4.713 0-8.533 3.82-8.533 8.533s3.82 8.533 8.533 8.533h41.216l.939 1.109c1.536 1.707 3.157 3.328 4.779 4.949a124.615 124.615 0 0 0 10.496 9.216 241.12 241.12 0 0 0 11.776 8.533c1.04.693 2.123 1.32 3.243 1.877 39.551 23.06 88.449 23.06 128 0a37.272 37.272 0 0 0 3.669-2.048 137.015 137.015 0 0 0 11.776-8.533 102.551 102.551 0 0 0 10.496-9.216l4.352-4.437c.149-.191.321-.363.512-.512l3.925-4.523.597-.683.939-1.28a50.204 50.204 0 0 0 3.243-4.181c1.536-1.963 2.901-4.011 4.267-6.059a64.46 64.46 0 0 0 3.243-5.376c1.024-1.877 2.133-3.755 3.157-5.632v-.512c.939-1.877 1.877-3.755 2.731-5.717.163-.442.363-.871.597-1.28H460.8v222.039z"/></svg>