<svg xmlns="http://www.w3.org/2000/svg" viewBox="0 0 512 512"><path d="M366.933 341.376v17.067l11.35-8.534z"/><circle cx="256" cy="349.909" r="25.6"/><circle cx="64" cy="354.176" r="12.8"/><circle cx="140.8" cy="354.176" r="12.8"/><path d="M486.4 230.443H351.147a127.221 127.221 0 0 0 24.32-39.595A125.093 125.093 0 0 0 384 154.411v-9.301a126.37 126.37 0 0 0-12.373-54.869C341.354 26.357 265.025-.888 201.143 29.385a127.997 127.997 0 0 0-60.855 60.855A126.39 126.39 0 0 0 128 145.109v9.045a125.51 125.51 0 0 0 8.533 36.693 127.244 127.244 0 0 0 24.32 39.595H25.6c-14.138 0-25.6 11.461-25.6 25.6v179.2c0 14.138 11.461 25.6 25.6 25.6h8.533v8.533c0 14.138 11.461 25.6 25.6 25.6H460.8c14.138 0 25.6-11.461 25.6-25.6v-8.533c14.138 0 25.6-11.462 25.6-25.6v-179.2c0-14.138-11.461-25.599-25.6-25.599zm-290.133-82.432v-2.645a58.973 58.973 0 0 1 5.717-25.856c14.084-29.832 49.686-42.598 79.518-28.514a59.733 59.733 0 0 1 28.514 28.514 58.79 58.79 0 0 1 5.717 25.6v4.864a57.42 57.42 0 0 1-3.755 16.64 59.743 59.743 0 0 1-14.251 21.163 47.429 47.429 0 0 1-4.523 4.011c-1.792 1.365-3.328 2.475-5.035 3.584l-.939.512-1.792 1.024a58.965 58.965 0 0 1-58.965 0l-2.219-1.28a60.262 60.262 0 0 1-5.205-3.669 44.528 44.528 0 0 1-4.437-3.84 60.683 60.683 0 0 1-14.507-21.845 56.925 56.925 0 0 1-3.84-16.469v-1.794zm-153.6 116.565H51.2c4.713 0 8.533 3.82 8.533 8.533s-3.82 8.533-8.533 8.533h-8.533c-4.713 0-8.533-3.82-8.533-8.533s3.82-8.533 8.533-8.533zm22.101 213.333h-5.035a8.533 8.533 0 0 1-8.533-8.533v-8.533h31.061l-17.493 17.066zM64 384.043c-16.495 0-29.867-13.372-29.867-29.867S47.505 324.309 64 324.309s29.867 13.372 29.867 29.867S80.495 384.043 64 384.043zm44.459 93.866H89.173l17.067-17.067h19.2l-16.981 17.067zm43.605 0h-19.2l17.067-17.067h19.2l-17.067 17.067zM140.8 384.043c-16.495 0-29.867-13.372-29.867-29.867s13.372-29.867 29.867-29.867 29.867 13.372 29.867 29.867-13.372 29.867-29.867 29.867zm-55.467-102.4c-4.713 0-8.533-3.82-8.533-8.533s3.82-8.533 8.533-8.533h85.333c4.713 0 8.533 3.82 8.533 8.533s-3.82 8.533-8.533 8.533H85.333zm110.336 196.266h-19.2l17.067-17.067h19.797l-17.664 17.067zm43.264 0h-18.859l17.067-17.067h19.2l-17.408 17.067zM256 409.643a8.533 8.533 0 0 1-8.533-8.533v-9.387a42.666 42.666 0 0 1-33.28-33.28H204.8c-4.713 0-8.533-3.82-8.533-8.533s3.82-8.533 8.533-8.533h9.387a42.665 42.665 0 0 1 33.28-33.28v-9.387c0-4.713 3.82-8.533 8.533-8.533s8.533 3.82 8.533 8.533v9.387a42.666 42.666 0 0 1 33.28 33.28h9.387c4.713 0 8.533 3.82 8.533 8.533s-3.82 8.533-8.533 8.533h-9.387a42.665 42.665 0 0 1-33.28 33.28v9.387a8.533 8.533 0 0 1-8.533 8.533zm26.539 68.266h-18.773l17.067-17.067h19.2l-17.494 17.067zm44.117 0H307.2l17.067-17.067h19.2l-16.811 17.067zm23.211-153.6a8.533 8.533 0 0 1 13.653-6.826l34.133 25.6a8.535 8.535 0 0 1 0 13.654l-34.133 25.6a8.533 8.533 0 0 1-13.654-6.827v-51.201zm20.394 153.6h-19.285l17.067-17.067h19.2l-16.982 17.067zm43.606 0h-19.2l17.067-17.067h19.2l-17.067 17.067zm12.8-110.933v-34.133c0-4.713 3.82-8.533 8.533-8.533s8.533 3.82 8.533 8.533v34.133c0 4.713-3.82 8.533-8.533 8.533s-8.533-3.82-8.533-8.533zm42.666 102.4a8.533 8.533 0 0 1-8.533 8.533h-22.528l17.067-17.067h13.995v8.534zm8.534-102.4c0 4.713-3.82 8.533-8.533 8.533s-8.533-3.82-8.533-8.533v-34.133c0-4.713 3.82-8.533 8.533-8.533s8.533 3.82 8.533 8.533v34.133z"/><path d="M294.571 126.507c-10.024-21.326-35.439-30.487-56.764-20.462a42.664 42.664 0 0 0-20.462 20.462 41.638 41.638 0 0 0-4.011 18.603v3.499a40.507 40.507 0 0 0 2.56 11.605 44.041 44.041 0 0 0 10.581 15.787 29.5 29.5 0 0 0 2.901 2.56c1.109.853 2.133 1.621 3.584 2.475l1.963 1.109a41.898 41.898 0 0 0 41.728 0l1.963-1.195 3.413-2.475a31.962 31.962 0 0 0 3.072-2.731 42.665 42.665 0 0 0 10.069-15.189 40.223 40.223 0 0 0 3.499-11.861v-1.963a11.85 11.85 0 0 0 0-1.621 42.676 42.676 0 0 0-4.096-18.603zm-30.891 21.845a9.8 9.8 0 0 1-1.792 2.816 8.963 8.963 0 0 1-5.888 2.475 8.533 8.533 0 0 1-6.059-2.475 9.8 9.8 0 0 1-1.792-2.816 8.02 8.02 0 0 1 0-6.485h-.171a8.539 8.539 0 0 1 1.792-2.816 8.533 8.533 0 0 1 12.068-.049l.049.049a8.539 8.539 0 0 1 1.792 2.816 8.015 8.015 0 0 1 .001 6.485z"/></svg>