<svg viewBox="0 0 32 32" xmlns="http://www.w3.org/2000/svg"><path d="M16 6c5.514 0 10 4.486 10 10 0 1.422-.3 2.774-.837 4H24v-1a1 1 0 0 0-1-1h-3a2 2 0 0 0-2 2v6a2 2 0 0 0 2 2h3a1 1 0 0 0 1-1v-1h2a1 1 0 0 0 1-1v-4c0-.056-.023-.104-.032-.157A11.934 11.934 0 0 0 28 16c0-6.627-5.372-12-12-12C9.373 4 4 9.373 4 16c0 1.726.376 3.36 1.031 4.843-.008.053-.031.101-.031.157v4a1 1 0 0 0 1 1h2v1a1 1 0 0 0 1 1h3a2 2 0 0 0 2-2v-6a2 2 0 0 0-2-2H9a1 1 0 0 0-1 1v1H6.837A9.944 9.944 0 0 1 6 16c0-5.514 4.486-10 10-10" fill-rule="evenodd"/></svg>