<svg viewBox="0 0 32 32" xmlns="http://www.w3.org/2000/svg"><path d="M17.125 8.138a.233.233 0 1 1 .014-.417l1.65-.747.32-1.782a.236.236 0 0 1 .164-.183.237.237 0 0 1 .237.067l1.22 1.338 1.792-.246a.248.248 0 0 1 .225.1.23.23 0 0 1 .01.247l-.896 1.572.788 1.63a.228.228 0 0 1-.025.244.235.235 0 0 1-.23.086l-1.774-.365-1.307 1.254a.231.231 0 0 1-.16.064.272.272 0 0 1-.08-.013.236.236 0 0 1-.152-.194l-.2-1.801-1.596-.854zm9.838 4.596a.225.225 0 0 1 .01.238l-.58 1.02.51 1.053a.219.219 0 0 1-.025.235.23.23 0 0 1-.224.083l-1.146-.236-.846.81a.22.22 0 0 1-.23.05.223.223 0 0 1-.148-.188l-.13-1.164-1.033-.552a.223.223 0 0 1-.119-.205.228.228 0 0 1 .132-.199l1.067-.483.208-1.153a.224.224 0 0 1 .16-.176.223.223 0 0 1 .228.064l.79.866 1.16-.16a.237.237 0 0 1 .216.097zm-5 4.142a.225.225 0 0 1 .01.238l-.58 1.02.51 1.053a.219.219 0 0 1-.025.235.228.228 0 0 1-.224.083l-1.146-.236-.846.81a.225.225 0 0 1-.23.05.223.223 0 0 1-.148-.188l-.13-1.164-1.033-.552a.224.224 0 0 1-.119-.206.227.227 0 0 1 .132-.198l1.067-.484.208-1.152a.227.227 0 0 1 .16-.176.224.224 0 0 1 .228.065l.79.865 1.16-.16a.237.237 0 0 1 .216.097zm.64 6.092a.403.403 0 0 1 .28.686c-2.372 2.449-5.863 3.798-9.644 3.209-4.767-.744-8.551-4.68-9.15-9.49-.777-6.243 3.637-11.611 9.49-12.37.342-.044.592.336.395.62-2.99 4.31-2.573 10.282 1.253 14.127a10.918 10.918 0 0 0 7.377 3.218z" fill-rule="evenodd"/></svg>