<svg viewBox="0 0 32 32" xmlns="http://www.w3.org/2000/svg"><path d="M22 14h-5a1 1 0 0 1-.769-1.64L19.865 8H17a1 1 0 1 1 0-2h5a1 1 0 0 1 .769 1.641l-3.634 4.36H22a1 1 0 1 1 0 2zm5 7h-3a1.001 1.001 0 0 1-.8-1.6L25 17h-1a1 1 0 1 1 0-2h3a1.001 1.001 0 0 1 .8 1.6L26 19h1a1 1 0 1 1 0 2zm-10.752-.909a11.906 11.906 0 0 0 8.047 3.51.44.44 0 0 1 .305.748c-2.587 2.673-6.397 4.144-10.523 3.501-5.199-.811-9.327-5.106-9.98-10.351-.848-6.812 3.967-12.668 10.352-13.495.373-.049.647.365.432.676-3.263 4.701-2.808 11.216 1.367 15.411z" fill-rule="evenodd"/></svg>