<svg viewBox="0 0 32 32" xmlns="http://www.w3.org/2000/svg"><path d="M18.248 20.164a17.385 17.385 0 0 0 1.754 1.646 7.119 7.119 0 0 0 2.412 1.29 7.317 7.317 0 0 0 5.421-.427 7.41 7.41 0 0 0 3.687-4.073 7.391 7.391 0 0 0-.132-5.516c-.74-1.741-2.185-3.131-3.897-3.858-1.729-.704-3.682-.739-5.39-.101a6.384 6.384 0 0 0-1.217.605 7.58 7.58 0 0 0-1.046.812 15.96 15.96 0 0 0-.83.808V8a1 1 0 1 0-2 0v6a1 1 0 0 0 1 1h6a1 1 0 1 0 0-2h-3.634c.301-.237.6-.468.896-.679.281-.195.56-.372.8-.479.274-.127.557-.225.84-.31a4.773 4.773 0 0 1 3.41.322c1.038.488 1.853 1.382 2.288 2.414a4.64 4.64 0 0 1 .07 3.284 4.658 4.658 0 0 1-2.173 2.494 4.83 4.83 0 0 1-3.348.421 4.395 4.395 0 0 1-1.585-.731 16.604 16.604 0 0 1-1.234-.992 9.966 9.966 0 0 1-.75-.716l-5.846-6.179a17.16 17.16 0 0 0-1.754-1.646 7.136 7.136 0 0 0-2.412-1.29 7.317 7.317 0 0 0-5.42.427A7.406 7.406 0 0 0 .47 13.413a7.391 7.391 0 0 0 .132 5.516c.74 1.741 2.185 3.131 3.897 3.858 1.73.703 3.682.739 5.392.101a6.321 6.321 0 0 0 1.215-.606c.415-.26.74-.538 1.046-.81.294-.265.568-.535.831-.809v3.35a1 1 0 0 0 2 0v-6a1 1 0 0 0-1-1h-6a1 1 0 1 0 0 2h3.633c-.3.237-.599.467-.896.678a5.194 5.194 0 0 1-.8.48 6.152 6.152 0 0 1-.84.309 4.767 4.767 0 0 1-3.409-.321c-1.039-.487-1.854-1.383-2.289-2.413a4.642 4.642 0 0 1-.07-3.285 4.655 4.655 0 0 1 2.173-2.494 4.818 4.818 0 0 1 3.348-.421 4.395 4.395 0 0 1 1.585.731c.407.286.82.635 1.234.992.263.225.514.464.751.715l5.845 6.18z" fill-rule="evenodd"/></svg>