<?xml version="1.0" encoding="UTF-8" standalone="no"?>
<!DOCTYPE svg PUBLIC "-//W3C//DTD SVG 1.1//EN" "http://www.w3.org/Graphics/SVG/1.1/DTD/svg11.dtd">
<svg width="136px" height="132px" version="1.1" xmlns="http://www.w3.org/2000/svg" xmlns:xlink="http://www.w3.org/1999/xlink" xml:space="preserve" xmlns:serif="http://www.serif.com/" style="fill-rule:evenodd;clip-rule:evenodd;stroke-linejoin:round;stroke-miterlimit:1.41421;">
    <path d="M97.115,92.584C97.115,92.584 101.605,88.812 105.696,84.101C111.88,76.981 118.015,67.068 118.015,55.358C118.015,41.366 111.475,29.2 100.526,22.356C93.682,18.25 84.101,15.969 73.303,15.969C41.214,15.969 18.706,37.26 18.706,67.372C18.706,96.572 38.933,115.734 69.501,115.734C77.409,115.734 85.774,114.517 92.769,112.388C98.701,110.563 102.503,108.738 109.803,104.328L119.08,117.711C110.867,122.577 107.217,124.402 100.069,126.531C89.728,129.725 78.778,131.398 67.828,131.398C46.385,131.398 29.656,125.315 17.641,113.3C6.235,102.046 0,85.926 0,68.284C0,49.426 6.387,33.154 18.554,20.835C32.545,6.844 50.947,0 74.52,0C109.955,0 135.2,22.812 135.2,54.597C135.2,68.893 130.029,81.972 120.752,91.249C112.844,99.157 102.503,103.719 92.313,103.719C86.382,103.719 82.281,101.65 80,98C79.292,96.868 78.657,94.952 78.725,92.722M78.725,92.722L78.521,74.609L64.321,74.609L64.321,93.03L45.861,93.03L45.861,59.873L34.501,59.873L46.334,47.592L46.334,27.636L60.534,27.636L60.534,32.855L70.001,23.03L105.501,59.873L96.981,59.873L97.115,92.584" style="fill-rule:nonzero;"/>
</svg>
