<svg xmlns="http://www.w3.org/2000/svg" viewBox="0 0 512 512"><path d="M421.644 232.321H158.09v-76.876c0-26.214 10.268-50.859 28.913-69.397 18.506-18.4 42.987-28.512 68.994-28.512l.576.002c53.672.307 97.337 44.748 97.337 99.065v9.972c0 15.862 12.905 28.767 28.767 28.767s28.768-12.905 28.768-28.767v-9.695c0-33.228-10.236-65.029-29.601-91.963a7.28 7.28 0 0 0-11.822 8.498c17.574 24.442 26.863 53.304 26.863 83.464v9.695c0 7.833-6.374 14.207-14.208 14.207-7.833 0-14.207-6.374-14.207-14.207v-9.972c0-62.299-50.159-113.271-111.813-113.624-30.094-.188-58.508 11.456-79.919 32.745-21.414 21.291-33.207 49.603-33.207 79.722v76.876h-28.415v-76.876c0-37.642 14.722-73.053 41.453-99.711C183.205 29.172 218.5 14.56 255.998 14.56l.403.001c33.272.093 65.541 12.165 90.863 33.992a7.28 7.28 0 0 0 9.506-11.028C328.817 13.431 293.186.104 256.441.001L255.996 0c-41.377 0-80.325 16.123-109.708 45.424-29.491 29.408-45.732 68.482-45.732 110.02v76.876h-10.2c-13.125 0-23.803 10.678-23.803 23.804v232.072c0 13.126 10.678 23.804 23.803 23.804h331.289c13.125 0 23.803-10.678 23.803-23.804V256.124c-.001-13.125-10.679-23.803-23.804-23.803zm9.244 255.875h-.001c0 5.097-4.146 9.244-9.243 9.244H90.356c-5.097 0-9.243-4.147-9.243-9.244V256.124c0-5.097 4.146-9.244 9.243-9.244h331.289c5.097 0 9.243 4.147 9.243 9.244v232.072z"/><path d="M365.324 282.626H209.707c-4.021 0-7.28 3.259-7.28 7.28s3.259 7.28 7.28 7.28h155.618c4.598 0 8.339 3.74 8.339 8.338s-3.74 8.339-8.339 8.339h-218.65c-4.598 0-8.339-3.74-8.339-8.339 0-4.597 3.74-8.338 8.339-8.338h28.471c4.021 0 7.28-3.259 7.28-7.28s-3.259-7.28-7.28-7.28h-28.471c-12.626 0-22.898 10.271-22.898 22.897 0 12.626 10.272 22.898 22.898 22.898h218.65c12.626 0 22.898-10.272 22.898-22.898s-10.273-22.897-22.899-22.897zM365.324 349.262h-218.65c-12.626 0-22.898 10.272-22.898 22.898s10.272 22.897 22.898 22.897h218.65c12.626 0 22.898-10.271 22.898-22.897.001-12.625-10.272-22.898-22.898-22.898zm0 31.236h-218.65c-4.598 0-8.339-3.74-8.339-8.338s3.74-8.339 8.339-8.339h218.65c4.598 0 8.339 3.74 8.339 8.339 0 4.598-3.74 8.338-8.339 8.338zM365.324 415.9h-218.65c-12.626 0-22.898 10.271-22.898 22.897 0 12.626 10.272 22.897 22.898 22.897h218.65c12.626 0 22.898-10.271 22.898-22.897.001-12.626-10.272-22.897-22.898-22.897zm0 31.235h-218.65c-4.598 0-8.339-3.74-8.339-8.338s3.74-8.338 8.339-8.338h218.65c4.598 0 8.339 3.74 8.339 8.338s-3.74 8.338-8.339 8.338z"/></svg>