<svg xmlns="http://www.w3.org/2000/svg" viewBox="0 0 512 512"><path d="M421.636 232.31h-10.188v-76.861c0-32.785-10.129-64.16-29.292-90.733a7.29 7.29 0 0 0-10.178-1.649 7.29 7.29 0 0 0-1.649 10.178c17.361 24.074 26.537 52.5 26.537 82.203v76.861h-28.39v-76.861c0-62.019-50.457-112.475-112.476-112.475S143.524 93.429 143.524 155.448v76.861h-28.39v-76.861c0-77.674 63.192-140.866 140.866-140.866 33.312 0 65.656 11.893 91.077 33.488a7.29 7.29 0 1 0 9.441-11.113C328.465 13.125 292.767 0 256 0c-85.714 0-155.448 69.734-155.448 155.448v76.861H90.363c-13.131 0-23.814 10.684-23.814 23.815v232.061c0 13.131 10.683 23.815 23.814 23.815h331.273c13.131 0 23.815-10.684 23.815-23.815V256.124c0-13.131-10.684-23.814-23.815-23.814zm-263.529-76.862c0-53.978 43.915-97.892 97.893-97.892 53.979 0 97.893 43.914 97.893 97.892v76.861H158.107v-76.861zm272.761 332.737c0 5.091-4.141 9.232-9.232 9.232H90.363c-5.09 0-9.231-4.141-9.231-9.232V256.124c0-5.091 4.141-9.232 9.231-9.232h331.273c5.091 0 9.232 4.141 9.232 9.232v232.061z"/><path d="M365.32 282.613H210.243c-4.027 0-7.291 3.264-7.291 7.291s3.264 7.291 7.291 7.291H365.32c4.591 0 8.326 3.735 8.326 8.326s-3.735 8.326-8.326 8.326H146.679c-4.591 0-8.326-3.735-8.326-8.326s3.735-8.326 8.326-8.326h28.362c4.027 0 7.291-3.264 7.291-7.291s-3.264-7.291-7.291-7.291h-28.362c-12.632 0-22.908 10.277-22.908 22.909s10.277 22.909 22.908 22.909H365.32c12.632 0 22.909-10.277 22.909-22.909s-10.277-22.909-22.909-22.909zM365.32 349.246H146.679c-12.632 0-22.908 10.277-22.908 22.909s10.277 22.909 22.908 22.909H365.32c12.632 0 22.909-10.277 22.909-22.909s-10.277-22.909-22.909-22.909zm0 31.235H146.679c-4.591 0-8.326-3.735-8.326-8.326s3.735-8.326 8.326-8.326H365.32c4.591 0 8.326 3.735 8.326 8.326s-3.735 8.326-8.326 8.326zM365.32 415.879H146.679c-12.632 0-22.908 10.277-22.908 22.909s10.277 22.909 22.908 22.909H365.32c12.632 0 22.909-10.277 22.909-22.909s-10.277-22.909-22.909-22.909zm0 31.235H146.679c-4.591 0-8.326-3.735-8.326-8.326s3.735-8.326 8.326-8.326H365.32c4.591 0 8.326 3.735 8.326 8.326s-3.735 8.326-8.326 8.326z"/></svg>