<svg xmlns="http://www.w3.org/2000/svg" viewBox="0 0 511.816 511.816"><path d="M442.965 141.81L75.435 44.104l-.039-.01c-9.111-2.413-18.454 3.016-20.868 12.128l-21.931 82.432-.01.039c-2.414 9.111 3.016 18.454 12.128 20.868l345.771 91.904c1.419.386 2.882.586 4.352.597a17.068 17.068 0 0 0 14.848-8.533l43.691-76.8a17.063 17.063 0 0 0 1.646-4.008c2.443-9.105-2.954-18.466-12.058-20.911zm-48.128 93.184L49.067 143.09l21.504-82.432 367.957 97.536-43.691 76.8z"/><path d="M370.176 228.509l-308.224-81.92a8.533 8.533 0 0 0-10.752 8.533l2.048 47.275a17.066 17.066 0 0 0 12.629 15.701l269.312 71.595a16.54 16.54 0 0 0 4.352.597 17.068 17.068 0 0 0 15.275-9.728l20.651-40.107a8.533 8.533 0 0 0-5.291-11.946zm-30.891 44.715L69.973 201.629l-1.707-35.669 286.805 76.117-15.786 31.147zM140.459 387.229a8.533 8.533 0 0 0-7.424-12.8H49.067a8.533 8.533 0 0 0-8.533 11.094 48.706 48.706 0 0 1 2.133 14.507 48.906 48.906 0 0 1-2.56 14.507 8.533 8.533 0 0 0 8.533 11.093H133.035a8.533 8.533 0 0 0 7.424-12.8 25.602 25.602 0 0 1 0-25.601zm-20.139 21.333H59.221c.347-2.831.518-5.681.512-8.533a68.948 68.948 0 0 0-.512-8.533h61.099a42.068 42.068 0 0 0 0 17.066z"/><path d="M196.267 374.429a42.667 42.667 0 0 0-34.133-17.067 35.895 35.895 0 0 0-5.717 0c-23.564 1.579-41.387 21.961-39.808 45.525 1.579 23.564 21.961 41.387 45.525 39.808a42.665 42.665 0 0 0 25.6-8.533c18.851-14.138 22.671-40.882 8.533-59.733zm-21.215 47.583c-12.206 7.135-27.885 3.023-35.02-9.183a25.6 25.6 0 0 1-3.499-12.8c-.099-12.992 9.549-23.998 22.443-25.6a18.698 18.698 0 0 1 3.157 0c14.138 0 25.6 11.462 25.6 25.6a25.598 25.598 0 0 1-12.681 21.983zM246.955 254.877a8.532 8.532 0 0 0-6.315-7.765l-63.232-17.067a8.533 8.533 0 0 0-9.472 3.755 42.075 42.075 0 0 0-4.693 11.008A40.788 40.788 0 0 0 174.422 285a37.07 37.07 0 0 0 8.021 6.4 43.553 43.553 0 0 0 11.264 4.779 44.468 44.468 0 0 0 11.093 1.451h1.195c18.44-.534 34.449-12.859 39.68-30.549a39.003 39.003 0 0 0 1.28-12.204zm-17.494 7.851a24.49 24.49 0 0 1-17.92 17.067 25.593 25.593 0 0 1-13.227 0 26.796 26.796 0 0 1-6.827-2.901 21.508 21.508 0 0 1-4.693-3.84 23.978 23.978 0 0 1-6.741-23.637v-.939l49.408 13.397v.853z"/><path d="M221.867 285.597a8.534 8.534 0 0 0-10.581-5.803 25.593 25.593 0 0 1-13.227 0 26.796 26.796 0 0 1-6.827-2.901 20.244 20.244 0 0 1-4.437-3.499 8.535 8.535 0 0 0-14.422 3.669l-23.04 86.784a8.533 8.533 0 0 0 9.642 10.581 24.491 24.491 0 0 1 23.552 10.069 8.533 8.533 0 0 0 6.827 3.413l1.621-.171a8.533 8.533 0 0 0 6.656-6.144l24.235-91.221a8.52 8.52 0 0 0 .001-4.777zm-37.12 77.739a42.657 42.657 0 0 0-16.128-5.973l16.981-64.085a42.687 42.687 0 0 0 8.107 2.987 46.487 46.487 0 0 0 8.533 1.365l-17.493 65.706zM56.832 380.573a75.263 75.263 0 0 0-45.141-48.213A8.533 8.533 0 0 0 0 340.296v119.467a8.533 8.533 0 0 0 8.533 8.533 8.528 8.528 0 0 0 3.157-.597 75.179 75.179 0 0 0 45.056-48.043 65.55 65.55 0 0 0 2.987-19.627 65.36 65.36 0 0 0-2.901-19.456zm-16.384 34.048a56.324 56.324 0 0 1-23.381 30.976V354.29a56.578 56.578 0 0 1 23.467 31.232 48.706 48.706 0 0 1 2.133 14.507 48.89 48.89 0 0 1-2.219 14.592zM451.499 223.986l-37.205-9.899a8.533 8.533 0 0 0-9.643 4.011l-9.813 17.067-25.003-6.656a8.532 8.532 0 0 0-9.813 4.437l-11.776 23.381a8.534 8.534 0 0 0 5.462 12.118l80.213 21.333a8.585 8.585 0 0 0 2.219 0l-.256.427a8.532 8.532 0 0 0 8.533-6.315l13.141-49.493a8.534 8.534 0 0 0-6.059-10.411zm-21.76 46.848l-61.867-16.469 4.352-7.936 18.176 5.035a17.067 17.067 0 0 0 19.2-8.021l6.059-11.605 22.613 5.973-8.533 33.023z"/><path d="M499.115 209.736l-24.747-6.571-.008-.002c-13.666-3.626-27.683 4.513-31.309 18.178l-17.493 65.963-.002.008c-3.626 13.666 4.513 27.683 18.178 31.309l24.832 6.571c1.416.385 2.876.583 4.343.594a17.065 17.065 0 0 0 16.393-12.711l21.931-82.432.01-.039c2.413-9.112-3.017-18.455-12.128-20.868zm-26.112 98.901l-24.747-6.571a8.534 8.534 0 0 1-6.059-10.411l17.237-65.963a8.534 8.534 0 0 1 8.533-6.315 8.55 8.55 0 0 1 2.219.256l24.747 6.571-21.93 82.433zM473.003 325.789l-.094-.003c-.026 0-.051.003-.077.003h.171z"/></svg>