<svg xmlns="http://www.w3.org/2000/svg" viewBox="0 0 511.976 511.976"><path d="M272.021 1.006c-70.144-8.787-134.13 40.953-142.917 111.098a130.578 130.578 0 0 0-1.024 15.872 127.144 127.144 0 0 0 48.811 100.352 125.548 125.548 0 0 0 29.952 17.579l1.195.512a129.281 129.281 0 0 0 30.976 8.533h.853a123.787 123.787 0 0 0 16.213 1.024 126.804 126.804 0 0 0 79.104-27.307 128.002 128.002 0 0 0 47.935-84.746c8.787-70.144-40.953-134.13-111.098-142.917zm86.884 168.404c-23.082 56.753-87.8 84.048-144.553 60.966h-.256a111.616 111.616 0 0 1-26.283-15.275 110.169 110.169 0 0 1-42.667-87.125c.012-4.765.325-9.525.939-14.251a110.9 110.9 0 0 1 7.301-27.902c23.082-56.753 87.8-84.048 144.553-60.966s84.048 87.8 60.966 144.553z"/><path d="M286.203 47.848a16.212 16.212 0 0 0-11.947-5.205h-36.267a16.213 16.213 0 0 0-12.032 5.547 15.274 15.274 0 0 0-4.011 11.52l6.4 79.616c.837 8.16 7.755 14.338 15.957 14.251h23.552c8.086.105 14.958-5.885 15.957-13.909l6.4-79.957a15.27 15.27 0 0 0-4.009-11.863zm-19.2 88.661h-21.675l-6.315-76.8h34.133l-6.143 76.8zM260.517 170.642h-8.96c-11.654.047-21.077 9.508-21.077 21.163v9.045c.093 11.588 9.489 20.946 21.077 20.992h9.045c11.621-.047 21.031-9.456 21.077-21.077v-8.96c.001-11.688-9.474-21.163-21.162-21.163zm4.096 30.038a4.011 4.011 0 0 1-4.011 4.011h-8.96a4.011 4.011 0 0 1-4.011-4.011v-8.96a4.097 4.097 0 0 1 4.011-4.011l8.96.085a4.097 4.097 0 0 1 4.011 4.011v8.875zM214.096 230.376a111.616 111.616 0 0 1-26.283-15.275 110.169 110.169 0 0 1-42.667-87.125c.034-4.594.347-9.182.939-13.739a8.533 8.533 0 0 0-6.315-9.301L75.429 87.869l-.098-.026c-9.123-2.369-18.439 3.105-20.809 12.228l-21.931 82.432c-2.385 9.093 3.033 18.403 12.117 20.821l163.925 44.117a8.497 8.497 0 0 0 2.219 0 8.687 8.687 0 0 0 10.155-6.912c.897-4.711-2.198-9.258-6.911-10.153zm-164.949-43.52l21.931-82.432 57.003 15.019v8.533a126.977 126.977 0 0 0 36.523 89.6l-115.457-30.72z"/><path d="M442.96 185.49l-74.411-19.797a8.533 8.533 0 0 0-10.069 4.949 111.624 111.624 0 0 1-34.133 44.544 110.083 110.083 0 0 1-82.603 22.528c-4.713-.919-9.278 2.156-10.197 6.869s2.156 9.278 6.869 10.197l152.149 40.448c1.474.401 2.995.602 4.523.597a17.069 17.069 0 0 0 14.592-8.533l43.691-76.8a17.063 17.063 0 0 0 1.7-4.125c2.421-9.108-3.001-18.456-12.111-20.877zm-48.043 93.184l-103.595-27.563a128.005 128.005 0 0 0 43.691-22.613 128.944 128.944 0 0 0 36.011-44.544l67.499 17.92-43.606 76.8z"/><path d="M370.171 272.018l-127.317-34.133h-1.536a110.909 110.909 0 0 1-26.624-7.083l-1.28-.427-151.382-40.021a8.533 8.533 0 0 0-10.752 8.533l2.048 47.36a17.066 17.066 0 0 0 12.629 15.701l269.312 71.595c1.446.393 2.938.594 4.437.597a17.066 17.066 0 0 0 15.36-9.387l20.48-40.533a8.533 8.533 0 0 0-5.375-12.202zm-30.464 44.971L70.053 245.394l-1.707-35.669 139.776 37.035a124.651 124.651 0 0 0 30.123 8.021l117.163 31.147-15.701 31.061zM140.539 430.909a8.533 8.533 0 0 0-7.424-12.8H49.147a8.533 8.533 0 0 0-8.533 11.094 48.706 48.706 0 0 1 2.133 14.507 48.71 48.71 0 0 1-2.56 14.507 8.533 8.533 0 0 0 8.533 11.093H133.115a8.533 8.533 0 0 0 7.424-12.8 25.602 25.602 0 0 1 0-25.601zM120.4 452.242H59.301c.347-2.831.518-5.681.512-8.533a68.948 68.948 0 0 0-.512-8.533H120.4a42.068 42.068 0 0 0 0 17.066z"/><path d="M196.347 418.109a42.667 42.667 0 0 0-34.133-17.067 35.895 35.895 0 0 0-5.717 0c-23.564 1.579-41.387 21.961-39.808 45.525 1.579 23.564 21.961 41.387 45.525 39.808a42.665 42.665 0 0 0 25.6-8.533c18.851-14.138 22.671-40.882 8.533-59.733zm-12.194 38.656c-7.211 12.162-22.915 16.175-35.076 8.965-12.162-7.211-16.175-22.915-8.965-35.076a25.602 25.602 0 0 1 18.944-12.544 18.698 18.698 0 0 1 3.157 0 25.595 25.595 0 0 1 12.975 3.579c12.162 7.21 16.176 22.914 8.965 35.076zM246.949 298.557a8.532 8.532 0 0 0-6.315-7.765l-63.232-17.067a8.533 8.533 0 0 0-9.472 3.755 42.64 42.64 0 0 0-4.693 11.008 40.872 40.872 0 0 0 11.179 40.192 36.688 36.688 0 0 0 8.021 6.4 43.387 43.387 0 0 0 11.264 4.779 43.891 43.891 0 0 0 11.179 1.451h1.195c18.408-.57 34.373-12.888 39.595-30.549a39.273 39.273 0 0 0 1.279-12.204zm-17.322 8.021a24.49 24.49 0 0 1-17.92 17.067c-1.898.482-3.845.74-5.803.768a26.324 26.324 0 0 1-7.424-.939 26.784 26.784 0 0 1-6.912-2.901 21.423 21.423 0 0 1-4.693-3.755 23.978 23.978 0 0 1-6.741-23.637v-.939l49.493 13.397v.939z"/><path d="M221.91 329.6a8.533 8.533 0 0 0-10.544-5.869 25.02 25.02 0 0 1-5.803.768 26.324 26.324 0 0 1-7.424-.939 26.784 26.784 0 0 1-6.912-2.901 20.223 20.223 0 0 1-4.352-3.499 8.535 8.535 0 0 0-14.422 3.669l-23.125 86.699a8.531 8.531 0 0 0 1.963 7.936 8.532 8.532 0 0 0 7.765 2.645 24.49 24.49 0 0 1 23.552 10.155 8.533 8.533 0 0 0 6.827 3.413l1.621-.171a8.533 8.533 0 0 0 6.656-6.144l24.235-91.221a8.536 8.536 0 0 0-.037-4.541zm-37.083 77.928a42.657 42.657 0 0 0-16.128-5.973l17.067-64.597a42.165 42.165 0 0 0 8.021 2.987 45.286 45.286 0 0 0 8.533 1.365l-17.493 66.218zM56.912 424.253a75.263 75.263 0 0 0-45.141-48.213A8.533 8.533 0 0 0 .08 383.976v119.467a8.533 8.533 0 0 0 8.533 8.533 8.528 8.528 0 0 0 3.157-.597 75.179 75.179 0 0 0 45.056-48.043 65.55 65.55 0 0 0 2.987-19.627 65.36 65.36 0 0 0-2.901-19.456zm-16.384 34.133a56.324 56.324 0 0 1-23.381 30.976v-91.307a56.577 56.577 0 0 1 23.467 31.147 48.706 48.706 0 0 1 2.133 14.507 48.923 48.923 0 0 1-2.219 14.677zM451.579 267.752l-37.205-9.899a8.533 8.533 0 0 0-9.643 4.011l-9.813 17.067-25.003-6.656a8.532 8.532 0 0 0-9.813 4.437l-11.776 23.381a8.534 8.534 0 0 0 5.462 12.118L434 333.544a8.497 8.497 0 0 0 2.219 0l-.256.427a8.532 8.532 0 0 0 8.533-6.315l13.141-49.493a8.532 8.532 0 0 0-6.058-10.411zm-21.76 46.848l-61.867-16.469 4.352-8.021 18.176 5.12a17.067 17.067 0 0 0 19.2-8.021l6.059-11.605 22.613 5.973-8.533 33.023zM473.083 369.554l-.094-.003c-.026 0-.051.003-.077.003h.171z"/><path d="M499.195 253.501l-24.747-6.571-.008-.002c-13.666-3.626-27.683 4.513-31.309 18.178l-17.493 65.963-.002.008c-3.626 13.666 4.513 27.683 18.178 31.309l24.832 6.571c1.416.385 2.876.583 4.343.594a17.065 17.065 0 0 0 16.393-12.711l21.931-82.432.01-.039c2.413-9.112-3.017-18.455-12.128-20.868zm-26.112 98.987l-24.661-6.656a8.534 8.534 0 0 1-6.059-10.411l17.493-65.963a8.534 8.534 0 0 1 10.411-6.059l24.747 6.571-21.931 82.518z"/></svg>