<svg xmlns="http://www.w3.org/2000/svg" viewBox="0 0 512 512"><path d="M256 0C114.615 0 0 114.615 0 256s114.615 256 256 256 256-114.615 256-256S397.385 0 256 0zm0 494.933C124.041 494.933 17.067 387.959 17.067 256S124.041 17.067 256 17.067 494.933 124.041 494.933 256 387.959 494.933 256 494.933z"/><path d="M247.467 59.733l-.006-.069a8.532 8.532 0 0 0-9.295-7.696c-99.153 8.456-177.787 87.126-186.197 186.283a8.533 8.533 0 0 0 7.765 9.216h.768a8.532 8.532 0 0 0 8.533-7.851c7.735-90.86 79.806-162.932 170.667-170.667a8.533 8.533 0 0 0 7.765-9.216z"/><path d="M247.509 93.909a8.58 8.58 0 0 0-9.429-7.637C158.119 94.973 94.973 158.119 86.272 238.08l-.001.009a8.534 8.534 0 0 0 7.596 9.378h.939a8.533 8.533 0 0 0 8.533-7.595c7.857-71.9 64.633-128.676 136.533-136.533a8.58 8.58 0 0 0 7.637-9.43z"/><path d="M247.509 128.043a8.61 8.61 0 0 0-9.685-7.381C176.8 128.856 128.811 176.88 120.661 237.91a8.533 8.533 0 0 0 7.339 9.557h1.109a8.534 8.534 0 0 0 8.619-7.339c7.198-53.289 49.111-95.202 102.4-102.4a8.61 8.61 0 0 0 7.381-9.685zM460.8 237.483C452.383 138.297 373.703 59.617 274.517 51.2a8.534 8.534 0 0 0-9.216 7.851 8.533 8.533 0 0 0 7.765 9.216c90.86 7.735 162.932 79.806 170.667 170.667a8.533 8.533 0 0 0 8.533 7.765h.768a8.533 8.533 0 0 0 7.766-9.216z"/><path d="M426.667 237.312c-8.626-80.027-71.791-143.263-151.808-151.979a8.579 8.579 0 0 0-9.429 7.637 8.58 8.58 0 0 0 7.637 9.429c71.928 7.865 128.713 64.686 136.533 136.619a8.534 8.534 0 0 0 8.533 7.68h.939l.009-.001a8.532 8.532 0 0 0 7.586-9.385z"/><path d="M392.021 237.056c-7.953-61-55.717-109.147-116.651-117.589a8.61 8.61 0 0 0-2.304 17.066c53.289 7.198 95.202 49.111 102.4 102.4a8.533 8.533 0 0 0 8.533 7.765l.683-.085a8.532 8.532 0 0 0 7.339-9.557zM239.616 442.965c-90.86-7.735-162.932-79.806-170.667-170.667a8.533 8.533 0 0 0-9.216-7.765l-.069.006a8.532 8.532 0 0 0-7.696 9.295c8.45 99.123 87.074 177.747 186.197 186.197h.768a8.54 8.54 0 0 0 .683-17.066z"/><path d="M239.872 408.661c-71.9-7.857-128.676-64.633-136.533-136.533a8.58 8.58 0 0 0-9.429-7.637 8.58 8.58 0 0 0-7.637 9.429c8.663 79.994 71.819 143.185 151.808 151.893h.853l.085-.085a8.544 8.544 0 1 0 .853-17.067z"/><path d="M240.128 374.272c-53.289-7.198-95.202-49.111-102.4-102.4-.636-4.713-4.973-8.018-9.685-7.381s-8.018 4.973-7.381 9.685c8.149 61.03 56.139 109.054 117.163 117.248h1.109l.085-.085a8.551 8.551 0 1 0 1.109-17.067zM452.949 265.301a8.533 8.533 0 0 0-9.216 7.765c-7.735 90.86-79.806 162.932-170.667 170.667a8.54 8.54 0 1 0 .683 17.067h.768c99.186-8.417 177.866-87.097 186.283-186.283l.004-.054a8.534 8.534 0 0 0-7.855-9.162z"/><path d="M419.029 265.429a8.58 8.58 0 0 0-9.429 7.637c-7.873 71.957-64.738 128.751-136.704 136.533a8.545 8.545 0 0 0 .853 17.067h.939c80.027-8.626 143.263-71.791 151.979-151.808a8.58 8.58 0 0 0-7.638-9.429z"/><path d="M385.152 265.685a8.61 8.61 0 0 0-9.685 7.381c-7.198 53.289-49.111 95.202-102.4 102.4a8.54 8.54 0 1 0 .683 17.067l1.195-.427c61.027-7.962 109.183-55.769 117.589-116.736a8.612 8.612 0 0 0-7.382-9.685zM214.016 311.125c-.048 0-.095-.008-.143-.009-.038.001-.075.009-.113.009h.256z"/><path d="M219.733 261.632l2.133-2.816a50.09 50.09 0 0 0 7.936-13.653 40.614 40.614 0 0 0 .597-25.6 36.524 36.524 0 0 0-10.667-16.384 8.558 8.558 0 0 0-11.264 12.886 19.533 19.533 0 0 1 5.376 8.533 23.725 23.725 0 0 1-.512 14.763 32.425 32.425 0 0 1-4.864 9.216l-1.877 2.475a55.539 55.539 0 0 0-6.315 9.387 45.225 45.225 0 0 0 6.827 47.104 8.53 8.53 0 0 0 6.769 3.575 8.521 8.521 0 0 0 4.797-1.573 8.534 8.534 0 0 0 2.002-11.901 29.61 29.61 0 0 1-5.461-29.525 41.768 41.768 0 0 1 4.523-6.487zM256.683 311.125c-.048 0-.095-.008-.143-.009-.038.001-.075.009-.113.009h.256z"/><path d="M262.4 261.632l2.133-2.816a50.09 50.09 0 0 0 7.936-13.653 40.614 40.614 0 0 0 .597-25.6 36.524 36.524 0 0 0-10.667-16.384 8.558 8.558 0 0 0-11.264 12.886 19.533 19.533 0 0 1 5.376 8.533 23.725 23.725 0 0 1-.512 14.763 32.425 32.425 0 0 1-4.864 9.216l-1.877 2.475a55.539 55.539 0 0 0-6.315 9.387 45.225 45.225 0 0 0 6.827 47.104 8.53 8.53 0 0 0 6.769 3.575 8.521 8.521 0 0 0 4.797-1.573 8.534 8.534 0 0 0 2.002-11.901 29.61 29.61 0 0 1-5.461-29.525 41.7 41.7 0 0 1 4.523-6.487zM303.872 261.803l2.133-2.731a49.757 49.757 0 0 0 7.339-13.995 40.614 40.614 0 0 0 .597-25.6 36.605 36.605 0 0 0-10.411-16.555 8.558 8.558 0 0 0-11.264 12.886 19.539 19.539 0 0 1 5.376 8.533 23.722 23.722 0 0 1-.512 14.677 32.262 32.262 0 0 1-4.779 9.216l-1.877 2.475a56.759 56.759 0 0 0-6.315 9.387 45.225 45.225 0 0 0 6.827 47.104 8.533 8.533 0 0 0 6.997 3.925l-.085.171a8.534 8.534 0 0 0 6.912-13.483 29.61 29.61 0 0 1-5.461-29.525 42.697 42.697 0 0 1 4.523-6.485z"/></svg>