<svg xmlns="http://www.w3.org/2000/svg" viewBox="0 0 512.023 512.023"><path d="M187.745 215.148a110.169 110.169 0 0 1-42.667-87.125 8.533 8.533 0 0 0-8.533-8.533H25.611c-14.138 0-25.6 11.461-25.6 25.6v59.733c0 14.138 11.461 25.6 25.6 25.6h156.587a8.534 8.534 0 0 0 5.547-15.275zm-162.134-1.792a8.533 8.533 0 0 1-8.533-8.533V145.09a8.533 8.533 0 0 1 8.533-8.533h102.4a126.809 126.809 0 0 0 32.597 76.8H25.611zM486.411 119.489H375.478a8.533 8.533 0 0 0-8.533 8.533 110.163 110.163 0 0 1-42.667 87.125 8.534 8.534 0 0 0 5.547 15.275h156.587c14.138 0 25.6-11.462 25.6-25.6v-59.733c-.001-14.138-11.462-25.6-25.601-25.6zm8.534 85.334a8.533 8.533 0 0 1-8.533 8.533H351.414a126.803 126.803 0 0 0 32.597-76.8h102.4a8.533 8.533 0 0 1 8.533 8.533v59.734z"/><path d="M486.411 213.356H329.825a8.535 8.535 0 0 0-5.291 1.792c-40.22 31.591-96.825 31.591-137.045 0a8.535 8.535 0 0 0-5.291-1.792H25.611a8.533 8.533 0 0 0-8.533 8.533v51.2c0 131.959 106.974 238.933 238.933 238.933s238.933-106.974 238.933-238.933v-51.2a8.533 8.533 0 0 0-8.533-8.533zm-8.533 59.733c0 122.534-99.333 221.867-221.867 221.867S34.145 395.623 34.145 273.089v-42.667h145.067c45.511 34.133 108.089 34.133 153.6 0h145.067v42.667z"/><path d="M256.011 298.689c-47.128 0-85.333 38.205-85.333 85.333s38.205 85.333 85.333 85.333 85.333-38.205 85.333-85.333-38.204-85.333-85.333-85.333zm0 153.6c-37.703 0-68.267-30.564-68.267-68.267s30.564-68.267 68.267-68.267 68.267 30.564 68.267 68.267-30.564 68.267-68.267 68.267z"/><path d="M256.011 332.823c-28.277 0-51.2 22.923-51.2 51.2s22.923 51.2 51.2 51.2 51.2-22.923 51.2-51.2-22.923-51.2-51.2-51.2zm0 85.333c-18.851 0-34.133-15.282-34.133-34.133 0-18.851 15.282-34.133 34.133-34.133 18.851 0 34.133 15.282 34.133 34.133.001 18.851-15.281 34.133-34.133 34.133z"/><circle cx="59.745" cy="256.023" r="8.533"/><path d="M162.145 247.489h-76.8a8.533 8.533 0 0 0-8.533 8.533 8.533 8.533 0 0 0 8.533 8.533h76.8a8.533 8.533 0 0 0 0-17.066zM255.989 0c-70.692.013-127.99 57.33-127.977 128.023 0 70.692 57.308 128 128 128a126.805 126.805 0 0 0 79.104-27.392 128.001 128.001 0 0 0 48.896-100.654C383.999 57.285 326.681-.013 255.989 0zm87.463 195.975c-37.703 48.292-107.416 56.876-155.707 19.173a110.932 110.932 0 0 1-42.265-86.725c-.221-61.266 49.265-111.112 110.532-111.334 61.267 0 110.933 49.667 110.933 110.933a110.934 110.934 0 0 1-23.493 67.953z"/><path d="M339.382 119.916c-22.272-31.317-52.053-48.384-83.712-48.384s-61.44 17.152-83.712 48.384a8.536 8.536 0 0 0 0 9.387c21.76 35.413 51.2 55.296 82.944 55.296h.597c31.915 0 61.867-19.627 83.883-55.125a8.536 8.536 0 0 0 0-9.558zm-83.797 47.616h-.512c-24.282-.596-47.287-15.485-65.364-42.54 18.491-23.586 41.973-36.734 66.388-36.734 24.491 0 47.872 12.971 66.389 36.608-18.859 27.733-42.411 42.666-66.901 42.666z"/><path d="M281.611 76.823a8.585 8.585 0 0 0-12.885 11.349c5.689 6.451 5.689 16.126 0 22.577-6.234 7.069-17.019 7.746-24.089 1.511-7.069-6.234-7.746-17.019-1.511-24.089a8.533 8.533 0 0 0-12.715-11.349 34.133 34.133 0 0 0-8.341 22.166c-.106 18.851 15.09 34.219 33.941 34.324v.427a34.131 34.131 0 0 0 22.969-8.717c14.037-12.583 15.215-34.163 2.631-48.199z"/></svg>