<svg xmlns="http://www.w3.org/2000/svg" viewBox="0 0 512 512"><path d="M486.4 59.733H25.6c-14.138 0-25.6 11.461-25.6 25.6v59.733c0 14.138 11.461 25.6 25.6 25.6h460.8c14.138 0 25.6-11.462 25.6-25.6V85.333c0-14.138-11.461-25.6-25.6-25.6zm8.533 85.334a8.533 8.533 0 0 1-8.533 8.533H25.6a8.533 8.533 0 0 1-8.533-8.533V85.333A8.533 8.533 0 0 1 25.6 76.8h460.8a8.533 8.533 0 0 1 8.533 8.533v59.734z"/><path d="M486.4 153.6H25.6a8.533 8.533 0 0 0-8.533 8.533v51.2c0 131.959 106.974 238.933 238.933 238.933s238.933-106.974 238.933-238.933v-51.2a8.533 8.533 0 0 0-8.533-8.533zm-8.533 59.733C477.867 335.867 378.534 435.2 256 435.2S34.133 335.867 34.133 213.333v-42.667h443.733v42.667z"/><path d="M256 238.933c-47.128 0-85.333 38.205-85.333 85.333S208.872 409.6 256 409.6s85.333-38.205 85.333-85.333-38.205-85.334-85.333-85.334zm0 153.6c-37.703 0-68.267-30.564-68.267-68.267S218.297 256 256 256s68.267 30.564 68.267 68.267-30.564 68.266-68.267 68.266z"/><path d="M256 273.067c-28.277 0-51.2 22.923-51.2 51.2s22.923 51.2 51.2 51.2 51.2-22.923 51.2-51.2-22.923-51.2-51.2-51.2zm0 85.333c-18.851 0-34.133-15.282-34.133-34.133 0-18.851 15.282-34.133 34.133-34.133 18.851 0 34.133 15.282 34.133 34.133 0 18.851-15.282 34.133-34.133 34.133z"/><circle cx="59.733" cy="196.267" r="8.533"/><path d="M162.133 187.733h-76.8c-4.713 0-8.533 3.82-8.533 8.533s3.82 8.533 8.533 8.533h76.8c4.713 0 8.533-3.82 8.533-8.533s-3.82-8.533-8.533-8.533z"/></svg>