<svg xmlns="http://www.w3.org/2000/svg" viewBox="0 0 512 512"><path d="M511.635 126.169a14.89 14.89 0 0 0-10.812-11.197L224.317 42.828a7.284 7.284 0 0 0-8.89 5.211 7.286 7.286 0 0 0 5.211 8.89l276.506 72.144c.119.031.221.057.27.279.049.222-.031.289-.125.368l-14.311 11.948c-6.634 5.538-14.558 9.106-22.871 10.52-.401.068-.805.123-1.208.18-.439.063-.878.124-1.318.175a50.035 50.035 0 0 1-4.154.303c-.136.004-.273.003-.409.006a48.556 48.556 0 0 1-11.417-1.125l-.051-.009c-.548-.122-1.098-.235-1.644-.376l-.07-.017-66.6-17.376c-17.667-4.61-36.061-1.224-50.743 9.021l-.198.138a62.022 62.022 0 0 0-4.266 3.287c-.16.135-.32.27-.479.407a63.552 63.552 0 0 0-1.957 1.744l-.025.022a47.663 47.663 0 0 1-2 1.753c-.223.186-.449.366-.676.547-.483.388-.973.765-1.469 1.132-.256.189-.509.381-.769.565-.584.415-1.178.813-1.778 1.2-.397.255-.8.499-1.204.742-.414.25-.829.497-1.249.733a45.048 45.048 0 0 1-2.165 1.135c-.495.244-.989.487-1.492.713l-.072.031a46.694 46.694 0 0 1-6.085 2.234l-.062.018a47.18 47.18 0 0 1-24.969.32L92.965 113.09l-.009-.002-7.06-1.842a8.863 8.863 0 0 1-5.444-4.121 8.858 8.858 0 0 1-.936-6.764l16.098-61.697c.936-3.59 3.215-6.6 6.416-8.476a13.813 13.813 0 0 1 10.53-1.457l74.166 19.351a7.284 7.284 0 0 0 8.89-5.211 7.286 7.286 0 0 0-5.211-8.89l-74.166-19.35c-7.357-1.921-15.02-.859-21.579 2.985-6.559 3.845-11.228 10.013-13.147 17.37L65.415 96.681c-3.271 12.535 4.267 25.394 16.802 28.665l.019.005-8.9 34.11c-1.784 6.836-.799 13.957 2.774 20.052 3.572 6.095 9.305 10.434 16.14 12.217l70.542 18.405c-2.186 13.684 6.362 27.094 20.041 30.662l1.748.456-44.26 87.02c-32.743 12.284-65.379 24.485-87.939 32.695v-34.294c0-14.185-11.541-25.726-25.727-25.726H7.287A7.286 7.286 0 0 0 0 308.235v182.781a7.287 7.287 0 0 0 7.287 7.287h19.368c14.186 0 25.727-11.541 25.727-25.726v-60.79c8.442-2.992 23.618-8.6 51.048-18.852a7.287 7.287 0 0 0-5.103-13.651c-22.754 8.505-37.014 13.791-45.946 17.022v-19.834c23.212-8.392 59.568-21.988 95.71-35.549a7.288 7.288 0 0 0 3.935-3.519l46.99-92.384 20.153 5.258L165.9 351.085c-.037.069-.073.14-.107.211a9.2 9.2 0 0 1-5.054 4.598 90081.157 90081.157 0 0 1-29.622 11.113 7.285 7.285 0 0 0-4.265 9.38 7.287 7.287 0 0 0 9.38 4.265 71668.25 71668.25 0 0 0 29.628-11.115 23.704 23.704 0 0 0 12.974-11.739l54.82-103.741 12.057 3.146c2.258.589 4.578.888 6.896.888h.003c11.497 0 21.65-7.223 25.558-17.853l122.939 32.076a17.85 17.85 0 0 0 4.508.58h.002c6.797 0 12.868-3.864 15.862-9.739 24.783-4.484 46.167-25.157 53.266-52.368 4.12-15.784 3.083-32.299-2.708-46.614a62.756 62.756 0 0 0 20.281-11.318l14.311-11.948a14.891 14.891 0 0 0 5.006-14.738zM37.809 371.351v101.226h-.001c0 6.15-5.004 11.153-11.154 11.153H14.573V315.522h12.082c6.15 0 11.154 5.003 11.154 11.153v44.676zm214.8-127.833c-1.079 0-2.161-.14-3.219-.416l-62.878-16.406c-5.891-1.537-9.738-6.993-9.476-12.844l69.168 18.046 17.73 4.626a12.683 12.683 0 0 1-11.325 6.994zm154.838 11.337a7.266 7.266 0 0 0-.134 2.975 3.23 3.23 0 0 1-1.698.491c-.276 0-.555-.036-.829-.108L95.929 177.63a11.803 11.803 0 0 1-7.248-5.486 11.806 11.806 0 0 1-1.246-9.003l8.9-34.11 171.562 44.762a62.075 62.075 0 0 0 15.691 2.023c14.443 0 28.501-5.094 39.762-14.668a62.798 62.798 0 0 0 2.19-1.951 47.001 47.001 0 0 1 2.027-1.777c.223-.185.449-.365.674-.546.481-.387.969-.762 1.463-1.128.259-.192.517-.387.78-.573a47.242 47.242 0 0 1 1.731-1.168c.424-.273.854-.535 1.286-.794.397-.239.794-.476 1.197-.702a44.799 44.799 0 0 1 2.155-1.13 46.83 46.83 0 0 1 7.695-2.997l.01-.003a47.15 47.15 0 0 1 13.116-1.853c4.004 0 8.002.513 11.882 1.526l36.586 9.545 24.98 6.518-23.675 90.74zm53.197-47.746c-4.95 18.972-18.335 33.945-34.475 39.764l20.775-79.624c3.508.282 7.019.265 10.498-.038l.052-.003c5.55 11.946 6.718 26.224 3.15 39.901z"/></svg>