<svg xmlns="http://www.w3.org/2000/svg" viewBox="0 0 512.002 512.002"><path d="M209.086 66.237c-93.14 0-168.915 75.775-168.915 168.916s75.775 168.915 168.915 168.915 168.916-75.775 168.916-168.915S302.227 66.237 209.086 66.237zm0 323.256c-85.104 0-154.34-69.237-154.34-154.34s69.237-154.341 154.34-154.341 154.34 69.237 154.34 154.341-69.236 154.34-154.34 154.34z"/><path d="M208.09 179.943c-30.443 0-55.21 24.767-55.21 55.21s24.767 55.21 55.21 55.21 55.21-24.767 55.21-55.21-24.767-55.21-55.21-55.21zm0 95.845c-22.406 0-40.635-18.228-40.635-40.635s18.229-40.635 40.635-40.635 40.635 18.229 40.635 40.635-18.229 40.635-40.635 40.635z"/><path d="M477.473 168.785c-19.04 0-34.53 15.49-34.53 34.53 0 11.486 5.643 21.674 14.296 27.955l-8.944 152.21c-1.016 17.361-15.435 30.96-32.826 30.96h-11.292v-3.334c0-6.754-5.495-12.248-12.248-12.248h-15.674v-10.837c0-7.401-4.681-13.712-11.23-16.177 32.403-37.098 50.455-84.007 51.153-133.709a7.287 7.287 0 0 0-7.184-7.389l-.104-.001a7.288 7.288 0 0 0-7.285 7.185c-1.455 103.532-85.582 188.064-188.569 190.694l-.029.001a191.359 191.359 0 0 1-9.832 0l-.054-.002C100.155 425.98 16.04 341.462 14.575 237.949a7.287 7.287 0 0 0-7.285-7.185l-.105.001a7.287 7.287 0 0 0-7.184 7.39c.703 49.695 18.755 96.596 51.153 133.689-6.549 2.465-11.23 8.777-11.23 16.177v77.839c0 10.531 8.568 19.099 19.099 19.099h298.131c10.475 0 19-8.479 19.09-18.933h15.682c6.754 0 12.248-5.495 12.248-12.248v-1.418h11.292c37.445 0 68.492-29.282 70.68-66.66l9.002-152.738c10.086-6.037 16.854-17.065 16.854-29.647 0-19.04-15.49-34.53-34.529-34.53zM361.68 458.738v7.122a4.528 4.528 0 0 1-4.523 4.523H59.025a4.528 4.528 0 0 1-4.524-4.523v-77.839a2.725 2.725 0 0 1 2.722-2.722h6.78c.076.073.154.143.23.215 1.044.999 2.096 1.986 3.157 2.961.186.171.371.342.558.512a212.96 212.96 0 0 0 3.184 2.847c.201.176.401.352.602.526 1.061.923 2.13 1.834 3.207 2.733l.652.542a210.027 210.027 0 0 0 15.221 11.481c.3.205.6.408.901.612a202.4 202.4 0 0 0 3.225 2.142c.321.209.644.415.966.623 1.067.685 2.138 1.362 3.216 2.027.346.213.693.423 1.04.635 1.061.646 2.127 1.284 3.198 1.91.372.217.745.431 1.118.645 1.056.608 2.116 1.21 3.182 1.799.394.218.79.431 1.185.646 1.051.572 2.105 1.137 3.165 1.69.422.22.846.436 1.27.653 1.04.533 2.082 1.061 3.131 1.577.451.222.904.438 1.357.656 1.031.497 2.064.99 3.102 1.47.475.219.952.433 1.429.648 1.023.463 2.048.923 3.078 1.369.502.218 1.007.428 1.511.642 1.011.429 2.024.854 3.042 1.267.532.215 1.066.423 1.599.634.999.395 1.998.788 3.003 1.167.56.211 1.123.414 1.685.62.985.362 1.971.723 2.961 1.07.588.206 1.18.402 1.77.603.973.331 1.946.661 2.925.978.614.199 1.232.387 1.848.58.959.3 1.918.601 2.883.887.645.192 1.294.372 1.941.557.944.27 1.887.542 2.836.799.671.182 1.347.352 2.02.527.93.242 1.858.486 2.792.715.701.172 1.406.331 2.11.496.913.214 1.825.431 2.742.633.729.16 1.462.307 2.193.459.897.187 1.793.379 2.694.554.76.148 1.524.281 2.287.421.876.16 1.751.326 2.631.476.794.135 1.592.254 2.388.38.855.135 1.708.276 2.566.401.824.12 1.653.223 2.479.333.834.111 1.666.229 2.503.33.868.105 1.74.192 2.61.286.8.086 1.598.181 2.4.258.914.088 1.831.157 2.748.233.764.064 1.526.136 2.292.191.978.071 1.96.121 2.94.178.708.041 1.413.092 2.122.126 1.105.053 2.213.085 3.32.121.589.019 1.177.049 1.767.063a211.64 211.64 0 0 0 10.212 0c.589-.014 1.175-.044 1.763-.063 1.109-.036 2.219-.068 3.326-.121.699-.034 1.394-.084 2.091-.125.991-.058 1.983-.109 2.972-.18.767-.055 1.531-.128 2.297-.192.913-.076 1.827-.145 2.738-.233.812-.078 1.621-.174 2.431-.262.86-.093 1.722-.179 2.581-.283.843-.102 1.681-.221 2.522-.332.82-.109 1.641-.211 2.459-.33.865-.126 1.726-.268 2.589-.404.789-.125 1.579-.243 2.366-.376.885-.15 1.766-.317 2.648-.479.757-.139 1.516-.271 2.27-.418.908-.177 1.812-.37 2.716-.559.723-.151 1.447-.295 2.168-.454.926-.204 1.847-.423 2.768-.639.695-.163 1.391-.32 2.084-.49.941-.231 1.878-.477 2.815-.721.665-.173 1.333-.341 1.996-.521.957-.259 1.91-.534 2.863-.807.638-.183 1.277-.36 1.913-.549.974-.289 1.942-.593 2.911-.896.606-.19 1.214-.375 1.819-.571.99-.32 1.974-.655 2.959-.989.578-.197 1.157-.389 1.733-.59a209.48 209.48 0 0 0 2.996-1.082c.551-.203 1.103-.401 1.652-.608 1.015-.383 2.024-.78 3.033-1.178.523-.207 1.047-.41 1.568-.621a216.26 216.26 0 0 0 3.073-1.279c.494-.209.989-.416 1.481-.629 1.04-.45 2.074-.914 3.107-1.382.466-.211.934-.42 1.398-.635 1.05-.485 2.095-.984 3.137-1.487.44-.212.881-.422 1.32-.638a203.27 203.27 0 0 0 3.163-1.593c.414-.212.828-.423 1.241-.638a202.666 202.666 0 0 0 3.187-1.702c.388-.211.778-.421 1.165-.635a201.942 201.942 0 0 0 3.202-1.81c.366-.211.732-.42 1.096-.633 1.079-.63 2.151-1.272 3.219-1.923.34-.207.681-.414 1.02-.623a205.88 205.88 0 0 0 3.232-2.037c.317-.204.635-.407.951-.613a215.889 215.889 0 0 0 3.236-2.149c.297-.201.595-.402.891-.606a204.001 204.001 0 0 0 3.236-2.263l.827-.592a211.407 211.407 0 0 0 11.826-9.181 209.186 209.186 0 0 0 3.184-2.713l.626-.547a209.233 209.233 0 0 0 6.867-6.291c.082-.079.166-.154.248-.233h6.78a2.724 2.724 0 0 1 2.721 2.722v18.125h.002v52.593zm27.922-37.01v29.723h-13.347v-38.018h13.347v8.295zm81.996-36.884c-1.738 29.686-26.393 52.94-56.13 52.94h-11.292v-8.768h11.292c25.1 0 45.91-19.627 47.377-44.682l8.639-147.015c.045.008.092.012.137.02.641.11 1.286.204 1.939.278.049.005.097.013.145.018.706.077 1.418.135 2.137.168.062.003.125.002.187.005.479.02.959.037 1.444.037.121 0 .239-.008.36-.009.227-.002.453-.011.68-.017a34.47 34.47 0 0 0 1.331-.064c.142-.01.285-.009.426-.021l-8.672 147.11zm5.875-161.575a20.12 20.12 0 0 1-1.88-.095c-.085-.008-.17-.014-.254-.023a19.847 19.847 0 0 1-1.822-.279l-.147-.032a19.8 19.8 0 0 1-3.536-1.098l-.216-.09c-7.108-3.056-12.099-10.123-12.099-18.337 0-11.003 8.952-19.955 19.955-19.955s19.954 8.952 19.954 19.955c-.001 11.002-8.953 19.954-19.955 19.954z"/><path d="M413.644 202.456c-7.643-48.418-32.407-92.805-69.73-124.983-37.72-32.52-85.957-50.43-135.824-50.43-49.863 0-98.096 17.907-135.814 50.422C34.954 109.638 10.188 154.018 2.54 202.43a7.288 7.288 0 0 0 14.397 2.275C31.866 110.206 112.258 41.619 208.09 41.619c95.846 0 176.239 68.598 191.158 163.11a7.288 7.288 0 1 0 14.396-2.273z"/></svg>