<svg xmlns="http://www.w3.org/2000/svg" viewBox="0 0 512.25 512.25"><path d="M294.557 333.092h17.067v25.6h-17.067zM354.291 307.492h17.067v51.2h-17.067z"/><path d="M427.933 214.393a104.192 104.192 0 0 0-8.533-73.728 467.47 467.47 0 0 0-26.368-42.155l-1.707-2.475c-9.387-13.568-18.261-27.477-26.795-41.557L336.029 8.825C330.581.059 319.058-2.63 310.292 2.818a18.694 18.694 0 0 0-6.007 6.007l-28.501 45.653c-8.533 13.739-17.067 27.989-26.709 41.728-4.352 6.4-8.533 12.971-13.056 19.627-3.499-5.632-7.083-11.264-10.496-17.067L208.456 71.46c-6.901-11.358-21.703-14.971-33.061-8.07a24.068 24.068 0 0 0-8.07 8.07l-50.176 80.725c-11.264 18.091-22.869 36.779-34.901 54.699l-3.413 5.12a698.15 698.15 0 0 0-39.68 63.915 159.314 159.314 0 0 0-17.664 73.045 162.136 162.136 0 0 0 13.056 63.659 165.462 165.462 0 0 0 88.661 86.784 169.305 169.305 0 0 0 129.365 0 160.256 160.256 0 0 0 69.205-53.845 125.58 125.58 0 0 0 41.045 6.997c70.692-.035 127.971-57.372 127.936-128.064-.022-45.222-23.905-87.076-62.826-110.102zM106.37 440.037l-.058.063a8.533 8.533 0 0 1-12.068.049l-.049-.049a130.469 130.469 0 0 1-28.331-41.045 126.46 126.46 0 0 1-10.24-50.091 124.93 124.93 0 0 1 13.824-57.259 8.57 8.57 0 0 1 15.19 7.936 106.332 106.332 0 0 0-11.947 49.323 109.49 109.49 0 0 0 8.533 43.349 113.586 113.586 0 0 0 24.576 35.669 8.534 8.534 0 0 1 .57 12.055zm222.321-72.812a8.533 8.533 0 0 1-8.533 8.533h-34.133a8.533 8.533 0 0 1-8.533-8.533v-34.133c0-9.426 7.641-17.067 17.067-17.067h17.067c9.426 0 17.067 7.641 17.067 17.067v34.133zm59.733 0a8.533 8.533 0 0 1-8.533 8.533h-34.133a8.533 8.533 0 0 1-8.533-8.533v-59.733c0-9.426 7.641-17.067 17.067-17.067h17.067c9.426 0 17.067 7.641 17.067 17.067v59.733zm-1.365-168.106l-6.4-1.024-7.936-.853h-19.967c-3.584 0-7.168.768-10.667 1.28l-3.925.683c-3.755.768-7.509 1.621-11.264 2.645l-2.731.853c-4.011 1.28-7.936 2.645-11.691 4.267l-1.536.683a123.302 123.302 0 0 0-12.117 5.973 128.07 128.07 0 0 0-11.52 7.595l-1.792 1.28a96.034 96.034 0 0 0-7.851 6.485 57.245 57.245 0 0 1-12.629-18.091 55.639 55.639 0 0 1-4.608-21.845 52.823 52.823 0 0 1 5.973-24.576c1.707-3.243 3.584-6.485 5.632-9.813l.512-.853a8.534 8.534 0 0 0-2.731-11.691 8.534 8.534 0 0 0-11.761 2.706l-.015.025-.512.768c-2.219 3.669-4.352 7.253-6.229 10.923a70.135 70.135 0 0 0-7.936 32.512 71.605 71.605 0 0 0 5.888 28.501 75.366 75.366 0 0 0 16.299 23.467l-1.195 1.365-.768.939c-2.731 3.413-5.376 6.912-7.765 10.581a7.41 7.41 0 0 0-.597.853l-1.792-1.707a93.01 93.01 0 0 1-20.053-28.757 89.607 89.607 0 0 1-7.083-35.243 87.814 87.814 0 0 1 9.813-40.363c2.219-4.096 4.437-8.533 6.997-12.032 6.144-10.411 13.141-20.565 20.053-30.72 9.387-13.824 18.347-28.16 26.965-42.069l28.501-45.397a1.622 1.622 0 0 1 2.731 0l28.672 45.056c8.533 13.909 17.579 28.245 26.965 42.069l1.707 2.475a446.779 446.779 0 0 1 25.6 40.533 87.466 87.466 0 0 1 9.728 40.448 91.229 91.229 0 0 1-1.707 17.067l-1.707-.512c-3.669-1.451-7.339-2.816-11.093-3.925l-3.925-1.024c-2.816-.343-5.632-1.025-8.533-1.537zm61.098 168.106a8.533 8.533 0 0 1-8.533 8.533h-34.133a8.533 8.533 0 0 1-8.533-8.533v-85.333c0-9.426 7.641-17.067 17.067-17.067h17.067c9.426 0 17.067 7.641 17.067 17.067v85.333z"/><path d="M414.024 281.892h17.067v76.8h-17.067z"/></svg>