<svg xmlns="http://www.w3.org/2000/svg" viewBox="0 0 511.93 511.93"><path d="M509.697 217.725a17.065 17.065 0 0 0-10.411-7.936l-24.747-6.571c-13.664-3.63-27.685 4.504-31.315 18.168l-.002.008-18.176-4.864 28.331-49.749c4.658-8.194 1.792-18.613-6.402-23.271a17.053 17.053 0 0 0-4.009-1.646L75.35 44.157c-9.106-2.435-18.461 2.973-20.896 12.078l-.01.039-21.845 82.432c-2.435 9.106 2.973 18.461 12.078 20.896l.039.01 6.485 1.536 1.963 41.131a17.066 17.066 0 0 0 12.629 15.701l97.707 25.6v.853a40.874 40.874 0 0 0 7.936 36.608l-20.565 77.312a42.667 42.667 0 0 0-22.869 16.128H54.614a75.857 75.857 0 0 0-42.667-42.069A8.533 8.533 0 0 0 0 340.347v119.467a8.533 8.533 0 0 0 11.691 7.936 75.865 75.865 0 0 0 42.923-42.069h73.387c14.814 18.325 41.679 21.171 60.004 6.356 16.12-13.032 20.541-35.763 10.481-53.887l22.101-83.2a41.047 41.047 0 0 0 25.088-27.819v-1.024l89.259 23.723c1.418.391 2.881.592 4.352.597a17.067 17.067 0 0 0 15.531-9.813l5.547-11.008 65.365 17.067c-4.005 13.56 3.741 27.798 17.3 31.803.234.069.469.135.705.197l24.747 6.571c1.446.393 2.938.594 4.437.597a17.066 17.066 0 0 0 16.469-12.715l21.931-82.432a17.062 17.062 0 0 0-1.621-12.969zM40.449 414.759a56.324 56.324 0 0 1-23.381 30.891v-91.307a56.577 56.577 0 0 1 23.467 31.147 48.716 48.716 0 0 1 2.133 14.592 48.923 48.923 0 0 1-2.219 14.677zm121.685 10.923a25.6 25.6 0 0 1-22.101-38.4 25.6 25.6 0 0 1 18.944-12.8 18.698 18.698 0 0 1 3.157 0 25.6 25.6 0 0 1 16.299 5.803 26.01 26.01 0 0 1 4.096 4.267 25.597 25.597 0 0 1 5.205 15.531c0 14.138-11.461 25.599-25.6 25.599zm49.237-145.92a25.593 25.593 0 0 1-13.227 0 26.796 26.796 0 0 1-6.827-2.901c-1.565-.913-3-2.033-4.267-3.328l-.512-.427a23.978 23.978 0 0 1-6.741-23.637v-.939l49.408 13.141.085 1.024a24.486 24.486 0 0 1-17.919 17.067z"/></svg>