<svg xmlns="http://www.w3.org/2000/svg" viewBox="0 0 511.872 511.872"><path d="M244.992 136.326h21.675l6.4-76.8h-34.134z"/><path d="M509.696 261.254l-.171-.085a17.065 17.065 0 0 0-10.411-7.936l-24.747-6.571c-13.664-3.63-27.685 4.504-31.315 18.168l-.002.008-18.176-4.864 28.331-49.664c4.74-8.147 1.978-18.594-6.169-23.334a17.053 17.053 0 0 0-4.242-1.754l-65.451-17.067a126.832 126.832 0 0 0 6.656-40.363C383.842 57.1 326.406-.079 255.714.079c-60.607.136-112.811 42.758-125.068 102.113L75.349 87.686c-9.106-2.435-18.461 2.973-20.896 12.078l-.01.039-21.931 82.432c-2.435 9.106 2.973 18.461 12.078 20.896l.039.01 6.571 1.451 1.963 41.216a17.065 17.065 0 0 0 12.715 15.957l97.707 25.6a8.667 8.667 0 0 0 0 .853 40.874 40.874 0 0 0 7.936 36.608l-20.565 77.312a43.175 43.175 0 0 0-22.955 15.787H54.613a75.69 75.69 0 0 0-42.667-42.069 8.533 8.533 0 0 0-7.936.853 8.536 8.536 0 0 0-4.011 7.083v119.467a8.535 8.535 0 0 0 3.755 7.083 8.544 8.544 0 0 0 4.779 1.451 8.017 8.017 0 0 0 3.157-.597 75.693 75.693 0 0 0 42.923-42.069H128a42.153 42.153 0 0 0 24.149 15.787 35.578 35.578 0 0 0 9.131 1.28h.853c23.564-.089 42.594-19.264 42.505-42.828a42.659 42.659 0 0 0-6.068-21.769l22.101-83.2a41.216 41.216 0 0 0 25.088-27.819v-1.024l89.259 23.808c1.453.361 2.941.561 4.437.597a17.066 17.066 0 0 0 15.189-9.387l5.632-11.008 65.28 17.067a25.599 25.599 0 0 0 2.56 19.456 25.595 25.595 0 0 0 15.616 12.117l24.747 6.571a15.25 15.25 0 0 0 4.352.597 17.066 17.066 0 0 0 16.469-12.715l21.931-82.432a17.061 17.061 0 0 0-1.535-12.971zM40.448 458.203l-.256-.085a55.81 55.81 0 0 1-23.125 31.061v-91.307a56.409 56.409 0 0 1 23.467 31.147 51.2 51.2 0 0 1 2.133 14.507 50.187 50.187 0 0 1-2.219 14.677zm121.685 10.923a28.453 28.453 0 0 1-6.656-.853c-13.645-3.701-21.707-17.764-18.005-31.409a25.602 25.602 0 0 1 2.56-6.138 24.95 24.95 0 0 1 1.621-2.475 25.601 25.601 0 0 1 17.067-10.069 13.123 13.123 0 0 1 3.413-.256 25.005 25.005 0 0 1 16.299 5.888 27.903 27.903 0 0 1 4.011 4.352 24.917 24.917 0 0 1 5.291 15.36c-.001 14.138-11.462 25.6-25.601 25.6zm67.158-162.987a24.664 24.664 0 0 1-18.005 17.067 27.289 27.289 0 0 1-5.803.768 25.61 25.61 0 0 1-7.424-.939 29.334 29.334 0 0 1-6.827-2.901 20.506 20.506 0 0 1-4.267-3.328v-.512a24.065 24.065 0 0 1-6.827-23.637 6.688 6.688 0 0 1 0-.939l49.408 13.141a3.595 3.595 0 0 0-.255 1.28zM281.6 200.667c-.093 11.588-9.489 20.946-21.077 20.992h-9.045c-11.588-.046-20.984-9.404-21.077-20.992v-9.045c0-11.655 9.423-21.116 21.077-21.163h9.045c11.654.047 21.077 9.508 21.077 21.163v9.045zm8.533-141.141l-6.4 79.616c-.876 8.141-7.77 14.298-15.957 14.251h-23.552c-8.187.047-15.082-6.11-15.957-14.251l-6.4-79.616a14.935 14.935 0 0 1 4.011-11.435 15.955 15.955 0 0 1 12.032-5.632h36.181a15.958 15.958 0 0 1 11.947 5.205 14.936 14.936 0 0 1 4.095 11.862z"/><path d="M260.609 187.527l-.086-.001h-9.046a4.011 4.011 0 0 0-4.011 4.011v9.045a4.011 4.011 0 0 0 4.011 4.011h9.045a4.011 4.011 0 0 0 4.011-4.011v-8.96a4.01 4.01 0 0 0-3.924-4.095z"/></svg>