<svg xmlns="http://www.w3.org/2000/svg" viewBox="0 0 454.208 454.208"><path d="M307.777 119.456l6.059 76.8h21.674l6.144-77.141zM329.196 247.456h-9.045a4.011 4.011 0 0 0-4.011 4.011v9.045a4.011 4.011 0 0 0 4.011 4.011h9.045a4.011 4.011 0 0 0 4.011-4.011v-9.045a4.012 4.012 0 0 0-4.011-4.011z"/><path d="M344.775 61.071a127.916 127.916 0 0 0-20.102-1.347A127.996 127.996 0 0 0 216.3 119.456a366.95 366.95 0 0 0-76.8-91.392 151.775 151.775 0 0 0-13.653-9.899 79.82 79.82 0 0 0-13.653-7.083 8.534 8.534 0 0 0-11.691 9.728l1.024 4.523c1.109 4.864 2.219 9.728 3.072 14.763a151.95 151.95 0 0 1 2.475 22.613v5.973a160.68 160.68 0 0 1-51.2 117.077 187.752 187.752 0 0 0-40.619 49.323A140.29 140.29 0 0 0 8.94 347.978c19.856 51.418 65.996 88.056 120.576 95.744h1.28a8.629 8.629 0 0 0 2.56-17.066 67.412 67.412 0 0 1-43.093-40.021 61.78 61.78 0 0 1 2.731-49.493 91.4 91.4 0 0 1 19.029-22.784 98.216 98.216 0 0 0 31.317-71.851v-3.669-5.12a86.72 86.72 0 0 1 17.067 19.029 80.214 80.214 0 0 1 12.885 42.667v.939a80.558 80.558 0 0 1-14.592 46.336 8.533 8.533 0 0 0 2.816 12.288 29.268 29.268 0 0 0 29.525 1.28 50.175 50.175 0 0 0 21.333-27.477 59.734 59.734 0 0 1 12.715 36.011c-.326 28.403-18.889 53.373-45.995 61.867a8.533 8.533 0 0 0 4.267 16.47c65.56-10.291 116.304-62.882 124.245-128.768 69.943 10.264 134.964-38.116 145.228-108.059 10.264-69.946-38.115-134.967-108.059-145.23zm5.498 199.442c-.047 11.621-9.456 21.031-21.077 21.077h-9.045c-11.621-.047-21.031-9.456-21.077-21.077v-9.045c.047-11.621 9.456-21.031 21.077-21.077h8.96c11.655 0 21.116 9.423 21.163 21.077v9.045zm8.533-141.057l-6.4 79.616c-.837 8.16-7.755 14.338-15.957 14.251h-23.552c-8.202.087-15.12-6.091-15.957-14.251l-6.4-79.616a15.19 15.19 0 0 1 4.011-11.52 16.212 16.212 0 0 1 11.947-5.205h36.267a16.216 16.216 0 0 1 11.947 5.205 15.194 15.194 0 0 1 4.094 11.52z"/></svg>