<svg xmlns="http://www.w3.org/2000/svg" viewBox="0 0 454.208 454.208"><path d="M256.406 196.256h17.067v25.6h-17.067zM316.14 170.657h17.067v51.2H316.14z"/><path d="M344.775 61.071a127.916 127.916 0 0 0-20.102-1.347A127.996 127.996 0 0 0 216.3 119.456a366.95 366.95 0 0 0-76.8-91.392 151.775 151.775 0 0 0-13.653-9.899 79.82 79.82 0 0 0-13.653-7.083 8.534 8.534 0 0 0-11.691 9.728l1.024 4.523c1.109 4.864 2.219 9.728 3.072 14.763a151.95 151.95 0 0 1 2.475 22.613v5.973a160.68 160.68 0 0 1-51.2 117.077 187.752 187.752 0 0 0-40.619 49.323A140.29 140.29 0 0 0 8.94 347.978c19.856 51.418 65.996 88.056 120.576 95.744h1.28a8.629 8.629 0 0 0 2.56-17.066 67.412 67.412 0 0 1-43.093-40.021 61.78 61.78 0 0 1 2.731-49.493 91.4 91.4 0 0 1 19.029-22.784 98.216 98.216 0 0 0 31.317-71.851v-3.669-5.12a86.72 86.72 0 0 1 17.067 19.029 80.214 80.214 0 0 1 12.885 42.667v.939a80.558 80.558 0 0 1-14.592 46.336 8.533 8.533 0 0 0 2.816 12.288 29.183 29.183 0 0 0 29.525 1.28 50.175 50.175 0 0 0 21.333-27.477 59.734 59.734 0 0 1 12.715 36.011c-.326 28.403-18.889 53.373-45.995 61.867a8.533 8.533 0 0 0 4.267 16.47c65.56-10.291 116.304-62.882 124.245-128.768 69.943 10.264 134.964-38.116 145.228-108.059 10.264-69.946-38.115-134.967-108.059-145.23zM290.54 230.39a8.533 8.533 0 0 1-8.533 8.533h-34.133a8.533 8.533 0 0 1-8.533-8.533v-34.133c0-9.426 7.641-17.067 17.067-17.067h17.067c9.426 0 17.067 7.641 17.067 17.067v34.133zm59.733 0a8.533 8.533 0 0 1-8.533 8.533h-34.133a8.533 8.533 0 0 1-8.533-8.533v-59.733c0-9.426 7.641-17.067 17.067-17.067h17.067c9.426 0 17.067 7.641 17.067 17.067v59.733zm59.733 0a8.533 8.533 0 0 1-8.533 8.533H367.34a8.533 8.533 0 0 1-8.533-8.533v-85.333c0-9.426 7.641-17.067 17.067-17.067h17.067c9.426 0 17.067 7.641 17.067 17.067v85.333z"/><path d="M375.873 145.057h17.067v76.8h-17.067z"/></svg>