<svg xmlns="http://www.w3.org/2000/svg" viewBox="0 0 512 512"><path d="M291.413 255.317a54.119 54.119 0 0 0-11.008-13.824 68.264 68.264 0 0 1-20.053-46.08 53.78 53.78 0 0 0-3.925 5.632 51.968 51.968 0 0 0 .768 54.955 8.533 8.533 0 0 1-11.435 12.032 46.418 46.418 0 0 1-19.285-21.931c-14.422 16.186-12.991 40.999 3.195 55.421a39.252 39.252 0 0 0 26.33 9.945c21.632.047 39.206-17.451 39.253-39.083v-.171a38.82 38.82 0 0 0-3.84-16.896z"/><path d="M256 0C114.615 0 0 114.615 0 256s114.615 256 256 256 256-114.615 256-256S397.385 0 256 0zm9.301 59.051a8.534 8.534 0 0 1 9.162-7.855l.054.004c99.186 8.417 177.866 87.097 186.283 186.283a8.533 8.533 0 0 1-7.765 9.216h-.768a8.533 8.533 0 0 1-8.533-7.765c-7.735-90.86-79.806-162.932-170.667-170.667a8.534 8.534 0 0 1-7.766-9.216zm153.686 187.733h-.853a8.532 8.532 0 0 1-8.533-7.68c-7.783-71.966-64.577-128.831-136.533-136.704a8.58 8.58 0 0 1 1.792-17.066c80.017 8.716 143.182 71.951 151.808 151.979a8.533 8.533 0 0 1-7.765 9.386l.084.085zm-43.52 26.283a8.61 8.61 0 0 1 9.685-7.381 8.61 8.61 0 0 1 7.381 9.685c-8.407 60.967-56.563 108.774-117.589 116.736h-1.109a8.533 8.533 0 0 1-.768-16.64c53.289-7.198 95.202-49.111 102.4-102.4zm-102.4-136.534c-4.713-.636-8.018-4.972-7.381-9.685s4.972-8.018 9.685-7.381c60.934 8.442 108.697 56.59 116.651 117.589a8.533 8.533 0 0 1-7.339 9.557H384a8.532 8.532 0 0 1-8.533-7.68c-7.198-53.289-49.111-95.202-102.4-102.4zm-135.51 103.51a8.533 8.533 0 0 1-8.533 7.424H128a8.534 8.534 0 0 1-7.339-9.557c8.149-61.03 56.139-109.054 117.163-117.248a8.61 8.61 0 0 1 2.304 17.066c-53.328 7.118-95.319 49.004-102.571 102.315zm102.315-136.704l.085.171c-71.9 7.857-128.676 64.633-136.533 136.533a8.534 8.534 0 0 1-8.533 7.68h-1.024a8.534 8.534 0 0 1-7.596-9.378l.001-.009c8.589-80.06 71.762-143.341 151.808-152.064a8.582 8.582 0 0 1 1.792 17.067zm0 305.322a8.533 8.533 0 0 1 7.606 9.369l-.011.103a8.534 8.534 0 0 1-8.533 7.68h-.853c-79.989-8.708-143.145-71.899-151.808-151.893a8.58 8.58 0 0 1 17.066-1.792c7.857 71.9 64.633 128.676 136.533 136.533zM51.968 238.165c8.45-99.123 87.074-177.747 186.197-186.197a8.533 8.533 0 0 1 9.301 7.765 8.533 8.533 0 0 1-7.765 9.216c-90.86 7.735-162.932 79.806-170.667 170.667a8.533 8.533 0 0 1-8.533 7.765h-.768a8.533 8.533 0 0 1-7.765-9.216zm187.051 221.952l-.085-.085h-.768c-99.123-8.45-177.747-87.074-186.197-186.197a8.564 8.564 0 1 1 17.067-1.451c7.735 90.86 79.806 162.932 170.667 170.667a8.54 8.54 0 0 1-.684 17.066zm9.088-76.757a8.551 8.551 0 0 1-9.088 7.979l-.085.085h-1.109c-61.024-8.194-109.013-56.218-117.163-117.248a8.61 8.61 0 0 1 17.066-2.304c7.198 53.289 49.111 95.202 102.4 102.4a8.551 8.551 0 0 1 7.979 9.088zm-10.938-58.549c-22.296-7.909-37.271-28.908-37.488-52.562a56.573 56.573 0 0 1 27.306-48.163 7.851 7.851 0 0 1 4.693-1.195 68.863 68.863 0 0 1 35.413-55.296 8.534 8.534 0 0 1 12.288 9.984 52.518 52.518 0 0 0-2.219 13.312v1.877a51.2 51.2 0 0 0 15.189 36.608 69.46 69.46 0 0 1 14.421 18.091 56.489 56.489 0 0 1 2.304 43.093c-10.397 29.315-42.592 44.65-71.907 34.251zm35.727 84.789h.171c71.9-7.857 128.676-64.633 136.533-136.533a8.58 8.58 0 0 1 17.066 1.792c-8.716 80.017-71.951 143.182-151.979 151.808h-.939a8.544 8.544 0 1 1-.852-17.067zm187.908-135.137l-.004.054c-8.417 99.186-87.097 177.866-186.283 186.283h-.768a8.54 8.54 0 0 1-.683-17.067c90.86-7.735 162.932-79.806 170.667-170.667a8.533 8.533 0 0 1 9.216-7.765 8.534 8.534 0 0 1 7.855 9.162z"/></svg>