<svg xmlns="http://www.w3.org/2000/svg" viewBox="0 0 512 512"><path d="M256 0C114.615 0 0 114.615 0 256s114.615 256 256 256 256-114.615 256-256S397.385 0 256 0zm9.301 59.051a8.534 8.534 0 0 1 9.162-7.855l.054.004c99.186 8.417 177.866 87.097 186.283 186.283a8.533 8.533 0 0 1-7.765 9.216h-.768a8.533 8.533 0 0 1-8.533-7.765c-7.735-90.86-79.806-162.932-170.667-170.667a8.534 8.534 0 0 1-7.766-9.216zm153.686 187.733h-.853a8.532 8.532 0 0 1-8.533-7.68c-7.783-71.966-64.577-128.831-136.533-136.704a8.58 8.58 0 0 1 1.792-17.066c80.017 8.716 143.182 71.951 151.808 151.979a8.533 8.533 0 0 1-7.765 9.386l.084.085zM284.16 260.437a56.738 56.738 0 0 1 6.315-9.387l1.877-2.475a32.262 32.262 0 0 0 4.779-9.216 23.722 23.722 0 0 0 .512-14.677 19.533 19.533 0 0 0-5.376-8.533 8.558 8.558 0 0 1 11.264-12.886 36.608 36.608 0 0 1 10.411 16.555 40.62 40.62 0 0 1-.597 25.6 49.73 49.73 0 0 1-7.339 13.995l-2.133 2.731a42.697 42.697 0 0 0-4.523 6.485 29.612 29.612 0 0 0 5.461 29.525 8.533 8.533 0 0 1-13.824 9.045 45.225 45.225 0 0 1-6.827-46.762zm-11.093-123.904c-4.713-.636-8.018-4.972-7.381-9.685s4.972-8.018 9.685-7.381c60.934 8.442 108.697 56.59 116.651 117.589a8.533 8.533 0 0 1-7.339 9.557H384a8.532 8.532 0 0 1-8.533-7.68c-7.198-53.289-49.111-95.202-102.4-102.4zm102.4 136.534a8.61 8.61 0 0 1 9.685-7.381 8.61 8.61 0 0 1 7.381 9.685c-8.407 60.967-56.563 108.774-117.589 116.736h-1.109a8.533 8.533 0 0 1-.768-16.64c53.289-7.198 95.202-49.111 102.4-102.4zm-145.92-28.246a50.088 50.088 0 0 1-7.68 13.995l-2.133 2.816a41.778 41.778 0 0 0-4.523 6.485 29.612 29.612 0 0 0 5.461 29.525 8.533 8.533 0 0 1-13.568 9.558 45.227 45.227 0 0 1-6.827-47.104 55.42 55.42 0 0 1 6.315-9.387l1.877-2.475a32.414 32.414 0 0 0 4.864-8.875 23.725 23.725 0 0 0 .512-14.763 19.533 19.533 0 0 0-5.376-8.533 8.558 8.558 0 0 1 11.264-12.886 36.533 36.533 0 0 1 10.667 16.384 40.617 40.617 0 0 1-.939 25.259h.086zm-91.99-4.778h.085a8.533 8.533 0 0 1-8.533 7.424H128a8.534 8.534 0 0 1-7.339-9.557c8.149-61.03 56.139-109.054 117.163-117.248a8.61 8.61 0 0 1 2.304 17.066c-53.328 7.118-95.319 49.004-102.571 102.315zm102.315-136.704l.171.171c-71.9 7.857-128.676 64.633-136.533 136.533a8.534 8.534 0 0 1-8.533 7.68h-1.109a8.534 8.534 0 0 1-7.596-9.378l.001-.009c8.589-80.06 71.762-143.341 151.808-152.064 4.713-.495 8.935 2.925 9.429 7.637s-2.925 8.935-7.638 9.43zm0 305.322a8.533 8.533 0 0 1 7.606 9.369l-.011.103a8.534 8.534 0 0 1-8.533 7.68h-.853c-79.989-8.708-143.145-71.899-151.808-151.893a8.58 8.58 0 0 1 17.066-1.792c7.857 71.9 64.633 128.676 136.533 136.533zM51.968 238.165c8.45-99.123 87.074-177.747 186.197-186.197a8.533 8.533 0 0 1 9.301 7.765 8.533 8.533 0 0 1-7.765 9.216c-90.86 7.735-162.932 79.806-170.667 170.667a8.533 8.533 0 0 1-8.533 7.765h-.768a8.533 8.533 0 0 1-7.765-9.216zm186.965 221.867h-.768c-99.123-8.45-177.747-87.074-186.197-186.197a8.533 8.533 0 0 1 7.696-9.295l.069-.006a8.533 8.533 0 0 1 9.216 7.765c7.735 90.86 79.806 162.932 170.667 170.667a8.54 8.54 0 0 1-.683 17.066zm9.174-76.672a8.551 8.551 0 0 1-9.088 7.979l-.085.085h-1.109c-61.024-8.194-109.013-56.218-117.163-117.248a8.61 8.61 0 0 1 17.066-2.304c7.198 53.289 49.111 95.202 102.4 102.4a8.551 8.551 0 0 1 7.979 9.088zm13.525-73.856a8.534 8.534 0 0 1-11.915-1.918l-.032-.045a45.227 45.227 0 0 1-6.827-47.104 55.42 55.42 0 0 1 6.315-9.387l1.877-2.475a32.411 32.411 0 0 0 4.949-9.216 23.725 23.725 0 0 0 .512-14.763 19.533 19.533 0 0 0-5.376-8.533 8.558 8.558 0 0 1 11.264-12.886 36.533 36.533 0 0 1 10.667 16.384 40.62 40.62 0 0 1-.597 25.6 50.09 50.09 0 0 1-7.936 13.653l-2.133 2.816a41.778 41.778 0 0 0-4.523 6.485 29.612 29.612 0 0 0 5.461 29.525 8.535 8.535 0 0 1-1.706 11.864zM272.896 409.6h.171c71.9-7.857 128.676-64.633 136.533-136.533a8.58 8.58 0 0 1 17.066 1.792c-8.716 80.017-71.951 143.182-151.979 151.808h-.939a8.544 8.544 0 1 1-.852-17.067zm187.908-135.137l-.004.054c-8.417 99.186-87.097 177.866-186.283 186.283h-.768a8.54 8.54 0 0 1-.683-17.067c90.86-7.735 162.932-79.806 170.667-170.667a8.533 8.533 0 0 1 9.216-7.765 8.534 8.534 0 0 1 7.855 9.162z"/></svg>