<svg xmlns="http://www.w3.org/2000/svg" viewBox="0 0 512 512"><circle cx="256" cy="383.049" r="34.133"/><path d="M290.133 96.244v1.963c0 18.851-15.282 34.133-34.133 34.133-18.851 0-34.133-15.282-34.133-34.133v-1.963a101.717 101.717 0 0 0-32.512 27.904c18.347 27.221 41.045 42.155 65.621 42.411h.512c24.491 0 48.043-14.933 66.901-42.667a101.61 101.61 0 0 0-32.256-27.648z"/><path d="M270.421 89.246a63.568 63.568 0 0 0-28.843 0c-4.949 8.022-2.457 18.537 5.565 23.486a17.064 17.064 0 0 0 8.856 2.541c9.425-.057 17.02-7.745 16.962-17.17a17.057 17.057 0 0 0-2.54-8.857zM256 314.782c-37.703 0-68.267 30.564-68.267 68.267s30.564 68.267 68.267 68.267 68.267-30.564 68.267-68.267-30.564-68.267-68.267-68.267zm0 119.467c-28.277 0-51.2-22.923-51.2-51.2s22.923-51.2 51.2-51.2 51.2 22.923 51.2 51.2-22.923 51.2-51.2 51.2z"/><path d="M486.4 118.516H383.573C377.806 48.059 316.014-4.383 245.558 1.385c-62.45 5.112-112.019 54.681-117.131 117.131H25.6c-14.138 0-25.6 11.461-25.6 25.6v59.733a25.6 25.6 0 0 0 17.067 24.064v44.203c0 131.959 106.974 238.933 238.933 238.933s238.933-106.974 238.933-238.933v-44.203A25.6 25.6 0 0 0 512 203.849v-59.733c0-14.139-11.461-25.6-25.6-25.6zm-314.112 0a112.131 112.131 0 0 1 60.928-45.312 8.533 8.533 0 0 1 4.011-.853 80.042 80.042 0 0 1 37.547 0 8.53 8.53 0 0 1 4.096.853 112.13 112.13 0 0 1 60.843 45.312 8.534 8.534 0 0 1 0 9.557c-22.613 35.584-52.651 55.125-84.565 55.125h-.597c-31.744 0-61.184-19.883-82.944-55.296a8.53 8.53 0 0 1 .681-9.386zM59.733 263.582c-4.713 0-8.533-3.82-8.533-8.533s3.82-8.533 8.533-8.533 8.533 3.82 8.533 8.533-3.82 8.533-8.533 8.533zm102.4 0h-76.8c-4.713 0-8.533-3.82-8.533-8.533s3.82-8.533 8.533-8.533h76.8c4.713 0 8.533 3.82 8.533 8.533s-3.82 8.533-8.533 8.533zM256 468.382c-47.128 0-85.333-38.205-85.333-85.333s38.205-85.333 85.333-85.333 85.333 38.205 85.333 85.333-38.205 85.333-85.333 85.333z"/></svg>