<svg xmlns="http://www.w3.org/2000/svg" viewBox="0 0 512 512"><path d="M256 314.782c-37.703 0-68.267 30.564-68.267 68.267s30.564 68.267 68.267 68.267 68.267-30.564 68.267-68.267-30.564-68.267-68.267-68.267zm0 119.467c-28.277 0-51.2-22.923-51.2-51.2s22.923-51.2 51.2-51.2 51.2 22.923 51.2 51.2-22.923 51.2-51.2 51.2zM239.104 58.782l6.059 76.8h21.674l6.144-77.141z"/><circle cx="256" cy="383.049" r="34.133"/><path d="M486.4 118.516H383.573C377.806 48.059 316.014-4.383 245.558 1.385c-62.45 5.112-112.019 54.681-117.131 117.131H25.6c-14.138 0-25.6 11.461-25.6 25.6v59.733a25.6 25.6 0 0 0 17.067 24.064v44.203c0 131.959 106.974 238.933 238.933 238.933s238.933-106.974 238.933-238.933v-44.203A25.6 25.6 0 0 0 512 203.849v-59.733c0-14.139-11.461-25.6-25.6-25.6zM225.963 46.921a16.296 16.296 0 0 1 11.947-5.205h36.267a16.296 16.296 0 0 1 11.947 5.205 15.278 15.278 0 0 1 4.011 11.861l-6.4 79.957c-.999 8.024-7.872 14.015-15.957 13.909h-23.552c-8.232.083-15.161-6.142-15.957-14.336l-6.4-79.531a15.26 15.26 0 0 1 4.094-11.86zM281.6 190.793v8.96c0 11.655-9.423 21.116-21.077 21.163h-9.045c-11.621-.047-21.031-9.456-21.077-21.077v-9.045c.047-11.621 9.456-21.031 21.077-21.077h8.96c11.654-.002 21.115 9.421 21.162 21.076zM59.733 263.582c-4.713 0-8.533-3.82-8.533-8.533s3.82-8.533 8.533-8.533 8.533 3.82 8.533 8.533-3.82 8.533-8.533 8.533zm102.4 0h-76.8c-4.713 0-8.533-3.82-8.533-8.533s3.82-8.533 8.533-8.533h76.8c4.713 0 8.533 3.82 8.533 8.533s-3.82 8.533-8.533 8.533zM256 468.382c-47.128 0-85.333-38.205-85.333-85.333s38.205-85.333 85.333-85.333 85.333 38.205 85.333 85.333-38.205 85.333-85.333 85.333z"/><path d="M260.523 186.782h-9.045a4.011 4.011 0 0 0-4.011 4.011v9.045a4.011 4.011 0 0 0 4.011 4.011h9.045a4.011 4.011 0 0 0 4.011-4.011v-9.045a4.012 4.012 0 0 0-4.011-4.011z"/></svg>