<svg xmlns="http://www.w3.org/2000/svg" viewBox="0 0 512 512"><circle cx="256" cy="324.267" r="34.133"/><path d="M256 256c-37.703 0-68.267 30.564-68.267 68.267s30.564 68.267 68.267 68.267 68.267-30.564 68.267-68.267S293.703 256 256 256zm0 119.467c-28.277 0-51.2-22.923-51.2-51.2s22.923-51.2 51.2-51.2 51.2 22.923 51.2 51.2-22.923 51.2-51.2 51.2z"/><path d="M486.4 59.733H25.6c-14.138 0-25.6 11.461-25.6 25.6v59.733a25.6 25.6 0 0 0 17.067 24.064v44.203c0 131.959 106.974 238.933 238.933 238.933s238.933-106.974 238.933-238.933V169.13A25.6 25.6 0 0 0 512 145.066V85.333c0-14.138-11.461-25.6-25.6-25.6zM59.733 204.8c-4.713 0-8.533-3.82-8.533-8.533s3.82-8.533 8.533-8.533 8.533 3.82 8.533 8.533-3.82 8.533-8.533 8.533zm102.4 0h-76.8c-4.713 0-8.533-3.82-8.533-8.533s3.82-8.533 8.533-8.533h76.8c4.713 0 8.533 3.82 8.533 8.533s-3.82 8.533-8.533 8.533zM256 409.6c-47.128 0-85.333-38.205-85.333-85.333s38.205-85.333 85.333-85.333 85.333 38.205 85.333 85.333S303.128 409.6 256 409.6z"/></svg>