<?xml version="1.0" standalone="no"?>
<!DOCTYPE svg PUBLIC "-//W3C//DTD SVG 20010904//EN"
 "http://www.w3.org/TR/2001/REC-SVG-20010904/DTD/svg10.dtd">
<svg version="1.0" xmlns="http://www.w3.org/2000/svg"
 width="512.000000pt" height="512.000000pt" viewBox="0 0 512.000000 512.000000"
 preserveAspectRatio="xMidYMid meet">
<metadata>
Created by potrace 1.11, written by Peter Selinger 2001-2013
</metadata>
<g transform="translate(0.000000,512.000000) scale(0.100000,-0.100000)"
fill="#000000" stroke="none">
<path d="M2509 4866 c-2 -2 -34 -7 -71 -10 -37 -4 -75 -8 -85 -10 -10 -2 -40
-7 -68 -10 -204 -27 -516 -124 -732 -227 -335 -161 -629 -395 -855 -680 -126
-160 -282 -444 -348 -633 -39 -112 -88 -303 -96 -370 -4 -28 -8 -53 -10 -57
-17 -30 -26 -477 -12 -609 29 -259 94 -504 191 -715 67 -146 85 -179 166 -299
108 -162 263 -334 401 -446 30 -24 57 -48 58 -52 2 -5 8 -8 14 -8 5 0 28 -15
51 -33 52 -42 204 -137 218 -137 6 0 7 -4 4 -10 -4 -6 1 -7 11 -3 12 4 15 3
10 -5 -4 -7 -2 -10 6 -7 8 3 23 -2 33 -12 11 -10 28 -19 38 -21 10 -2 34 -12
53 -22 19 -11 34 -17 34 -13 0 3 9 -2 20 -12 11 -10 20 -14 20 -10 0 4 10 0
22 -11 13 -12 18 -13 13 -4 -8 13 -6 13 15 -1 14 -8 46 -21 73 -29 26 -7 47
-17 47 -22 0 -5 4 -7 9 -3 5 3 12 1 16 -5 4 -6 11 -8 16 -4 5 3 21 -2 36 -11
14 -9 23 -12 19 -7 -4 7 5 6 23 -1 17 -6 27 -16 23 -21 -3 -6 1 -5 10 1 8 7
18 10 22 6 3 -4 14 -8 24 -9 54 -8 82 -16 82 -23 0 -5 11 -6 25 -3 14 2 25 0
25 -6 0 -6 13 -8 29 -6 20 3 30 0 34 -11 4 -8 12 -15 19 -15 9 0 8 3 -2 10
-12 8 -9 10 13 10 15 0 27 -3 27 -7 0 -5 19 -8 43 -9 23 -1 65 -4 92 -8 74
-11 151 -17 230 -19 39 -1 73 -6 77 -12 5 -6 8 -4 8 5 1 11 4 10 15 -4 15 -20
15 -20 16 0 0 10 3 13 6 6 2 -6 10 -9 16 -5 15 9 146 10 140 1 -2 -5 1 -8 7
-8 6 0 9 -4 6 -8 -3 -5 1 -9 9 -9 11 0 12 4 4 14 -6 7 -8 13 -3 14 5 0 21 2
37 4 16 2 27 -1 27 -8 0 -8 3 -8 8 -2 4 6 23 11 43 12 35 2 36 0 34 -28 -1
-17 0 -27 4 -24 3 4 7 15 7 26 3 37 4 40 14 34 6 -4 8 -10 6 -14 -3 -4 1 -8 9
-8 8 0 12 4 10 8 -5 8 19 19 41 19 9 0 12 -5 8 -11 -4 -8 -1 -8 12 -1 11 5 36
12 57 15 30 4 37 2 33 -9 -3 -7 0 -16 6 -20 6 -4 8 -3 5 2 -12 20 12 37 59 39
27 2 49 4 49 5 0 1 17 3 38 6 21 2 45 8 54 13 12 6 21 4 32 -8 9 -9 13 -12 8
-5 -10 16 22 27 38 14 10 -8 15 -8 21 1 4 8 3 9 -4 5 -7 -4 -12 -3 -12 2 0 5
11 12 25 14 13 3 22 1 19 -3 -3 -5 0 -9 5 -9 6 0 11 5 11 11 0 6 9 9 20 6 12
-3 18 -1 14 5 -4 6 7 8 30 5 21 -3 35 -2 32 1 -3 3 0 12 6 21 8 10 4 9 -10 -3
-12 -11 -23 -15 -23 -10 -5 35 -3 82 3 96 5 11 5 18 -1 18 -5 0 -8 9 -6 20 6
30 15 41 27 34 7 -4 8 -2 4 4 -4 6 -14 8 -23 5 -12 -5 -14 -3 -8 8 5 7 9 30 8
51 -1 32 1 36 19 33 11 -3 17 -1 14 3 -4 4 -13 7 -19 7 -14 0 -17 47 -3 64 6
9 7 12 1 9 -7 -5 -11 22 -10 78 0 76 7 104 17 72 3 -8 7 -6 11 5 4 10 2 16 -6
14 -11 -2 -14 16 -16 128 -1 18 -12 42 -28 60 -18 18 -21 26 -10 22 9 -3 18
-3 21 1 3 4 -3 9 -12 10 -9 1 -26 3 -37 6 -11 2 -25 0 -30 -5 -14 -11 -45 -5
-54 10 -6 10 -10 9 -14 -3 -4 -10 -15 -13 -34 -10 -15 3 -25 2 -21 -1 11 -11
43 -13 56 -2 8 6 12 6 12 -2 0 -10 -13 -15 -32 -12 -5 0 -8 -4 -8 -10 0 -6
-15 0 -34 14 l-33 26 3 -25 c2 -21 -4 -28 -33 -40 -19 -9 -38 -13 -40 -10 -3
3 -14 1 -23 -4 -10 -5 -33 -12 -51 -14 -19 -2 -41 -7 -49 -10 -8 -3 -35 -8
-60 -11 -25 -3 -61 -8 -80 -11 -19 -2 -66 -7 -105 -10 -38 -3 -83 -6 -100 -8
-16 -1 -38 4 -48 13 -16 13 -18 13 -15 1 2 -10 -6 -15 -25 -16 -22 -1 -27 3
-22 15 5 14 4 14 -7 0 -14 -16 -68 -21 -68 -6 0 6 -5 6 -12 0 -12 -8 -25 -9
-45 -3 -5 1 -23 1 -42 0 -24 -1 -31 2 -26 10 6 10 3 10 -11 2 -13 -7 -25 -7
-37 0 -15 8 -18 7 -12 -3 5 -7 4 -10 -1 -6 -6 3 -28 8 -49 11 -22 3 -60 8 -85
12 -25 3 -52 8 -60 11 -8 4 -21 5 -29 4 -7 -1 -10 2 -7 7 3 6 -2 8 -14 5 -11
-3 -28 -2 -37 2 -10 5 -27 10 -38 12 -11 2 -37 10 -57 18 -21 8 -38 12 -38 9
0 -4 -6 -2 -12 3 -7 5 -32 15 -55 23 -23 7 -40 17 -36 23 3 6 1 7 -5 3 -16
-10 -133 44 -125 57 3 6 1 7 -5 3 -14 -8 -72 20 -72 35 0 6 -4 8 -8 5 -12 -7
-94 49 -85 58 5 4 -1 6 -12 4 -12 -2 -19 2 -18 9 2 7 -3 12 -10 10 -6 -1 -11
3 -10 10 2 7 -3 10 -10 8 -14 -6 -103 73 -99 87 1 5 -2 7 -6 4 -8 -5 -84 71
-132 131 -47 58 -46 57 -30 49 8 -4 4 1 -9 12 -15 12 -21 24 -16 32 6 9 4 11
-4 6 -8 -5 -14 0 -18 13 -3 12 -10 21 -15 21 -6 0 -8 11 -6 25 4 20 3 23 -8
14 -11 -9 -14 -8 -14 5 0 9 1 18 3 21 1 2 -7 11 -18 20 -17 14 -18 16 -2 11
11 -3 16 -2 12 4 -3 6 -12 10 -20 10 -8 0 -20 18 -26 40 -7 22 -16 40 -21 40
-4 0 -8 5 -8 10 0 18 17 10 28 -12 6 -13 11 -17 11 -10 1 6 -8 21 -19 32 -25
25 -25 31 -2 24 13 -5 14 -4 3 4 -8 6 -20 8 -28 5 -9 -3 -11 0 -7 10 3 8 1 18
-5 21 -6 4 -8 13 -4 21 3 8 0 15 -6 15 -6 0 -11 5 -11 11 0 5 5 7 10 4 17 -11
11 7 -7 21 -17 13 -17 15 0 28 23 18 22 29 -1 17 -13 -7 -19 -6 -20 2 0 7 -3
24 -5 40 -2 15 0 30 5 33 5 3 6 14 3 24 -3 10 -1 22 6 25 8 6 8 10 -2 16 -7 4
-10 11 -6 15 3 4 13 1 21 -5 10 -8 16 -9 21 -1 4 6 1 9 -6 8 -6 -2 -14 3 -17
11 -2 8 0 11 5 8 5 -3 9 5 9 18 0 13 -3 22 -7 19 -5 -2 -13 5 -19 16 -9 16 -8
25 1 36 14 17 -6 48 -28 40 -7 -3 -13 0 -13 6 0 6 -3 9 -6 6 -3 -4 0 -16 6
-28 9 -17 14 -19 26 -9 9 7 14 8 14 1 0 -6 -7 -15 -16 -20 -11 -6 -13 -11 -5
-16 6 -4 11 -12 11 -18 0 -6 -7 -5 -18 3 -15 12 -16 12 -6 -1 6 -8 10 -25 9
-37 -1 -18 1 -20 12 -11 10 8 11 13 2 18 -7 5 -7 10 -1 14 5 3 15 0 21 -8 9
-11 6 -18 -13 -34 -14 -10 -22 -23 -18 -26 10 -10 11 -66 2 -66 -4 0 -7 14 -6
30 1 17 -1 30 -6 30 -4 0 -6 14 -4 30 2 17 0 30 -4 30 -3 0 -6 10 -5 22 1 13
-2 29 -8 36 -7 9 -5 11 9 5 17 -6 18 -5 5 11 -11 13 -15 50 -16 145 0 121 1
127 19 126 11 -1 22 -7 24 -13 2 -7 -5 -9 -18 -7 -17 3 -19 1 -11 -9 7 -9 7
-16 -1 -24 -9 -9 -9 -12 0 -12 7 0 12 -5 12 -11 0 -5 -5 -7 -12 -3 -7 4 -8 3
-4 -5 4 -6 12 -8 18 -5 6 4 8 1 6 -7 -3 -8 -10 -13 -15 -12 -5 1 -10 -4 -10
-12 0 -8 4 -12 8 -9 4 2 7 -5 6 -16 -1 -11 -5 -20 -10 -20 -5 0 -4 -6 2 -14 6
-7 9 -21 5 -30 -3 -9 -1 -16 4 -16 6 0 9 13 7 29 -3 22 0 28 13 27 9 0 16 5
14 12 -2 11 10 16 30 13 4 0 5 6 2 13 -5 12 -9 12 -24 -2 -11 -8 -17 -19 -14
-24 3 -4 1 -8 -5 -8 -17 0 -20 14 -7 32 7 10 17 14 22 10 4 -4 2 1 -5 11 -11
14 -11 20 -1 32 9 10 9 15 1 15 -6 0 -11 -6 -11 -12 0 -9 -4 -8 -10 2 -16 25
-12 29 27 25 26 -3 32 -1 18 4 -19 8 -19 8 0 19 11 6 15 12 8 12 -6 0 -15 -4
-18 -10 -3 -5 -12 -10 -18 -10 -7 1 -1 10 13 22 24 20 24 20 3 14 -14 -5 -23
-3 -23 3 0 10 14 15 32 12 13 -2 9 17 -4 21 -13 5 -2 28 13 28 6 0 8 -4 5 -8
-2 -4 0 -14 5 -22 7 -12 8 -10 6 7 -4 31 -14 38 -32 23 -10 -8 -15 -9 -15 -1
0 6 11 18 25 27 14 9 23 19 20 22 -3 3 -16 -5 -30 -18 -14 -13 -27 -21 -30
-18 -3 3 10 19 29 36 l36 31 -30 -4 c-17 -2 -30 1 -30 6 0 6 -5 7 -11 3 -8 -4
-7 -9 2 -15 12 -8 12 -10 0 -18 -8 -5 -10 -14 -6 -21 5 -9 4 -11 -3 -6 -7 4
-12 2 -12 -3 0 -6 5 -11 10 -11 6 0 9 -6 8 -12 -2 -7 2 -12 9 -11 6 1 14 -4
17 -12 6 -17 1 -19 -23 -6 -13 7 -18 6 -18 -4 0 -7 5 -12 11 -11 6 2 8 1 4 -1
-17 -10 -23 5 -23 54 0 28 4 49 8 46 5 -3 6 4 2 16 -6 20 2 26 28 22 4 0 7 5
7 11 0 9 3 9 9 -1 8 -12 12 -11 27 4 17 17 17 17 -6 10 -22 -7 -23 -6 -12 8 8
9 19 14 27 11 18 -7 30 15 15 29 -10 9 -12 8 -6 -6 4 -12 2 -17 -6 -15 -23 8
-19 27 10 42 38 19 37 48 -3 82 -16 14 -22 23 -13 20 20 -6 51 20 45 38 -3 6
-11 9 -18 7 -8 -2 -20 -4 -27 -4 -6 0 -11 -7 -10 -15 2 -8 -3 -17 -11 -20 -10
-3 -12 0 -7 14 5 11 9 26 11 34 2 8 4 16 5 18 3 3 7 19 9 32 0 6 7 10 14 10 8
0 14 7 14 15 0 8 -4 15 -9 15 -5 0 -3 7 6 15 8 9 13 22 10 30 -7 17 4 19 24 6
11 -6 10 -10 -4 -15 -16 -6 -16 -8 2 -22 18 -14 18 -15 -6 -9 -19 5 -22 4 -10
-4 13 -10 13 -11 0 -11 -12 -1 -11 -3 2 -11 12 -7 24 -6 38 1 26 14 26 6 0
-20 -12 -12 -20 -15 -20 -7 0 8 -4 7 -10 -3 -9 -13 -14 -7 -11 12 0 4 -6 5
-15 1 -11 -4 -12 -8 -4 -13 9 -6 9 -9 0 -12 -8 -2 -14 -12 -16 -21 -1 -9 2
-15 7 -11 5 3 7 10 4 15 -8 12 2 11 25 -1 16 -8 18 -7 14 4 -4 12 2 14 33 11
34 -4 35 -3 13 6 -23 9 -23 11 -7 20 9 6 17 14 17 20 0 5 9 19 20 31 11 12 20
26 20 30 0 5 -10 -3 -23 -17 -15 -18 -28 -24 -39 -20 -10 4 -16 11 -13 16 3 4
12 6 20 3 14 -6 53 42 42 52 -3 3 -8 -4 -12 -15 -3 -12 -11 -19 -16 -16 -5 4
-4 15 3 28 6 12 10 23 9 25 -2 2 0 6 3 10 3 3 6 0 6 -7 0 -8 6 -11 16 -7 9 4
23 1 30 -5 8 -6 14 -7 14 -3 0 5 -9 15 -20 22 -13 8 -20 8 -20 1 0 -5 -5 -7
-11 -3 -8 5 -6 10 5 16 9 5 21 6 26 3 6 -3 7 1 4 10 -5 11 -10 13 -19 5 -7 -6
-16 -7 -18 -3 -3 5 8 16 24 26 30 17 30 17 24 -6 -4 -16 -4 -18 3 -8 5 7 14
11 19 8 5 -3 15 -1 23 5 13 8 12 9 -2 5 -9 -3 -22 1 -28 8 -7 8 -16 12 -21 9
-5 -3 -9 0 -9 5 0 12 23 15 34 4 12 -12 46 -13 46 -1 0 6 -3 8 -7 5 -3 -4 -12
1 -19 11 -19 25 -17 38 4 20 26 -23 42 -30 42 -20 0 5 -10 12 -22 15 -21 6
-21 7 -4 26 14 15 15 24 7 40 -15 27 -14 31 7 25 13 -4 12 -2 -3 7 -27 18 -52
22 -36 6 16 -16 14 -30 -5 -23 -10 4 -13 2 -8 -6 5 -7 3 -8 -6 -3 -9 6 -11 4
-5 -5 5 -9 4 -11 -3 -6 -8 5 -10 1 -5 -10 5 -13 3 -16 -10 -11 -10 4 -16 2
-14 -6 1 -7 -4 -11 -11 -9 -8 1 -11 -2 -7 -8 3 -6 10 -8 15 -5 5 3 12 0 16 -6
4 -8 9 -7 16 2 8 11 9 11 5 -1 -2 -8 -12 -15 -23 -15 -10 -1 -18 -6 -17 -13 2
-6 -4 -9 -15 -6 -9 3 -6 -2 8 -11 21 -13 22 -15 4 -10 -13 3 -26 -1 -34 -10
-7 -8 -17 -12 -23 -8 -6 4 -7 1 -2 -7 6 -9 4 -11 -4 -6 -9 6 -8 13 5 27 9 10
13 19 9 19 -5 0 1 10 13 23 11 12 21 27 21 32 1 6 9 19 18 30 10 11 18 23 18
27 0 4 8 16 17 27 9 11 13 22 10 26 -4 4 0 5 8 3 8 -1 15 3 16 10 1 6 2 18 3
25 1 8 4 7 11 -3 8 -13 10 -12 10 3 0 10 7 20 15 23 8 4 12 10 9 15 -3 5 0 9
6 9 6 0 8 4 5 10 -3 6 1 7 10 4 11 -5 14 -2 9 12 -5 16 -4 16 5 4 8 -11 11
-11 12 -2 1 6 2 16 3 20 2 14 86 94 86 82 0 -6 5 -8 10 -5 6 4 8 11 5 16 -4 5
2 6 12 2 16 -6 17 -5 3 13 -8 10 -11 16 -6 12 5 -4 17 4 28 17 11 14 24 23 29
19 5 -3 13 5 18 18 6 13 10 17 10 10 1 -7 6 -10 13 -6 7 4 8 3 4 -5 -4 -6 -3
-18 4 -26 7 -8 7 -15 1 -19 -7 -5 -8 -41 -1 -41 1 0 3 -19 3 -43 1 -23 -1 -42
-5 -42 -5 0 -8 5 -8 12 0 6 -3 8 -6 5 -4 -4 -1 -13 5 -21 10 -12 8 -17 -8 -25
-13 -7 -22 -8 -26 -1 -3 5 2 10 11 10 10 0 15 3 11 6 -3 3 -15 3 -27 -1 -20
-6 -20 -7 -3 -20 12 -9 23 -10 35 -4 25 13 32 11 18 -6 -10 -12 -10 -15 1 -15
12 0 12 -2 0 -9 -8 -5 -9 -11 -3 -15 12 -7 7 -53 -9 -72 -10 -12 -9 -13 3 -9
11 4 14 -2 12 -24 -1 -16 -5 -34 -9 -40 -3 -6 -1 -11 6 -11 8 0 8 -4 -1 -15
-7 -8 -9 -15 -4 -15 5 0 9 -40 8 -90 -1 -86 -2 -90 -35 -129 -19 -22 -42 -42
-51 -46 -10 -3 -17 -9 -15 -13 1 -4 -54 -64 -123 -133 -69 -70 -144 -147 -168
-171 l-43 -45 32 5 c24 3 30 1 24 -8 -5 -9 -2 -10 11 -3 23 10 95 10 112 -1 7
-4 12 -2 12 6 0 8 3 9 8 3 9 -13 55 -13 64 -1 4 6 12 6 20 0 16 -11 38 -11 57
0 10 6 12 5 7 -3 -9 -15 25 -11 36 3 4 6 12 5 21 -2 7 -7 16 -10 18 -7 3 2 5
-20 4 -50 0 -30 3 -55 8 -55 4 0 6 -4 2 -10 -6 -10 -38 17 -49 41 -3 8 -4 4
-2 -9 3 -13 -2 -26 -12 -32 -10 -5 -12 -10 -5 -10 6 0 15 5 18 10 3 6 11 10
16 10 6 0 8 -4 5 -9 -3 -5 1 -12 10 -15 10 -4 14 -14 11 -25 -2 -10 -1 -25 4
-32 4 -7 5 -18 1 -23 -9 -15 -8 -147 1 -153 4 -2 5 -9 2 -14 -12 -18 -8 -611
3 -618 6 -4 41 -6 77 -6 36 0 65 -4 65 -9 0 -4 6 -3 13 3 8 6 16 9 19 6 2 -2
30 -6 61 -7 46 -2 56 -6 52 -18 -2 -8 -1 -21 4 -28 6 -10 14 -8 35 9 28 22 28
22 22 2 -4 -13 0 -25 11 -34 15 -11 16 -11 6 1 -16 18 -17 38 -2 23 9 -9 17
-6 32 8 11 10 26 19 33 19 17 0 45 -41 37 -53 -3 -6 -1 -7 5 -3 5 3 12 3 15
-1 2 -5 3 -3 2 2 -1 6 6 19 16 29 16 16 19 17 24 4 8 -21 36 -19 61 4 22 19
43 21 57 3 5 -5 5 1 1 15 -6 22 -5 23 9 12 9 -8 13 -21 10 -30 -4 -13 -3 -14
5 -3 5 7 16 18 23 23 11 7 9 8 -6 6 -16 -2 -20 3 -21 30 0 31 15 40 24 12 3
-7 0 -10 -5 -7 -5 3 -10 0 -10 -8 0 -8 4 -12 8 -9 4 2 15 -3 23 -12 9 -8 16
-10 16 -4 0 6 -7 13 -15 16 -18 7 -10 24 11 24 8 0 13 -4 10 -8 -2 -4 0 -14 5
-22 7 -11 8 -9 6 10 -3 16 -12 26 -28 30 -18 5 -24 12 -23 33 0 22 -2 24 -15
14 -14 -10 -14 -10 -4 4 10 12 10 18 0 28 -7 7 -8 14 -2 19 12 8 13 82 2 99
-4 6 -2 15 4 19 8 4 7 9 -2 15 -8 5 -9 9 -3 9 11 0 13 49 2 66 -4 6 -4 14 -1
18 11 11 10 116 0 116 -6 0 -6 5 0 13 5 6 9 56 8 109 0 95 0 97 22 96 13 -2
23 -6 23 -11 0 -5 -7 -7 -15 -4 -8 4 -17 1 -21 -5 -5 -7 -2 -8 6 -3 9 6 11 4
5 -5 -5 -9 -4 -11 3 -6 8 5 10 1 5 -9 -5 -14 -8 -14 -15 -3 -8 10 -9 10 -5 -2
2 -8 10 -14 17 -12 6 1 10 -3 7 -10 -2 -7 -10 -12 -17 -10 -11 3 -11 0 0 -12
9 -11 9 -16 1 -16 -9 0 -9 -5 0 -21 6 -12 7 -19 2 -16 -5 4 -10 0 -10 -7 0
-10 7 -10 28 3 19 10 24 18 16 23 -9 5 -8 8 3 8 9 1 6 6 -9 14 -14 8 -19 16
-13 20 6 3 13 2 17 -4 3 -5 11 -10 18 -10 6 0 3 6 -7 13 -15 11 -16 17 -7 35
6 11 8 29 4 39 -5 14 -3 16 7 6 10 -9 17 -9 32 0 15 10 20 9 28 -3 6 -9 5 -17
-3 -22 -8 -5 -8 -8 -1 -8 19 0 24 12 12 33 -8 17 -8 19 5 14 11 -4 14 -2 11 8
-5 12 3 13 34 6 2 -1 -4 -8 -12 -17 -9 -8 -16 -21 -16 -27 0 -6 7 -1 16 11 12
18 19 20 37 12 22 -10 22 -10 0 6 -13 9 -23 21 -23 26 0 5 13 0 29 -11 l30
-21 6 20 c4 11 11 18 16 15 5 -4 6 2 2 11 -6 15 -1 14 25 -5 37 -26 40 -37 12
-44 -11 -3 -20 -11 -19 -19 0 -10 2 -10 6 0 2 6 10 12 17 12 7 0 21 9 31 20
10 11 14 20 10 20 -5 0 0 6 10 14 18 13 21 11 41 -22 11 -21 20 -38 19 -40 -5
-6 -34 11 -30 17 5 9 -32 7 -41 -2 -4 -3 1 -13 9 -22 20 -19 33 -20 17 0 -7 8
-9 15 -4 15 15 0 35 -16 33 -26 -4 -20 2 -32 18 -38 16 -6 16 -6 0 12 -18 20
-7 42 22 42 11 0 10 -4 -5 -16 -10 -8 -14 -13 -9 -10 6 2 12 -6 13 -20 1 -13
-3 -24 -8 -24 -6 0 -10 -5 -10 -11 0 -5 5 -7 10 -4 6 3 10 -5 10 -19 0 -13 -6
-27 -12 -29 -10 -4 -10 -6 0 -6 6 -1 12 -12 12 -25 0 -13 -6 -27 -12 -29 -10
-4 -10 -6 0 -6 8 -1 12 -19 12 -56 0 -37 -4 -55 -12 -55 -9 0 -10 -3 -2 -8 14
-9 13 -135 -1 -144 -7 -5 -7 -8 0 -8 12 0 14 -115 2 -126 -4 -4 -2 -13 4 -21
9 -10 8 -13 -2 -13 -9 0 -10 -3 -3 -8 11 -7 28 -42 26 -53 -1 -4 6 -5 16 -3
13 3 25 -12 46 -59 17 -34 35 -67 40 -74 30 -34 36 -43 30 -43 -4 0 5 -9 20
-21 14 -11 24 -24 21 -29 -3 -4 2 -11 11 -14 8 -3 12 -11 8 -17 -4 -7 -3 -9 3
-6 6 4 23 -5 39 -19 16 -14 42 -32 57 -40 15 -8 25 -20 21 -25 -4 -7 1 -9 13
-5 12 4 25 1 33 -9 7 -8 21 -15 31 -15 11 0 19 -4 19 -9 0 -5 -7 -8 -16 -7 -9
0 -18 -5 -20 -12 -1 -7 0 -8 3 -2 2 5 9 10 14 10 6 0 7 -5 3 -11 -3 -6 5 -3
20 6 15 10 26 13 26 6 0 -6 11 -11 25 -11 14 0 25 -5 25 -12 0 -6 3 -8 7 -5 3
4 12 -2 20 -13 8 -11 21 -20 29 -20 8 0 13 -4 10 -9 -3 -5 5 -16 19 -25 14 -9
25 -12 25 -6 0 5 -5 10 -11 10 -5 0 -7 4 -4 10 4 6 -1 7 -11 3 -12 -4 -15 -3
-10 5 4 8 -3 16 -18 22 -14 5 -26 12 -26 15 0 12 45 0 58 -15 10 -13 11 -12 6
5 -3 12 -2 16 3 9 4 -6 19 -11 33 -12 69 -2 90 -6 90 -14 0 -4 5 -8 11 -8 5 0
8 3 6 8 -3 4 14 7 38 7 24 0 41 -3 39 -7 -6 -10 10 -10 20 -1 10 10 76 11 76
1 0 -4 5 -8 11 -8 5 0 7 4 4 10 -3 5 0 10 7 11 7 1 25 2 41 3 31 3 35 -5 10
-25 -15 -12 -16 -12 -11 3 4 10 2 15 -7 14 -8 -1 -16 -4 -17 -7 -2 -2 -1 -3 1
-2 2 2 9 -5 16 -14 11 -14 14 -13 33 7 12 13 19 26 17 30 -2 4 9 6 25 5 17 -1
30 2 30 8 0 5 6 7 14 4 7 -3 19 0 25 6 6 6 11 8 11 5 0 -6 36 2 74 18 15 6 18
4 12 -7 -4 -8 -1 -6 7 4 19 23 30 22 17 -2 -13 -25 -13 -41 1 -41 5 0 8 4 4 9
-18 30 50 92 74 68 9 -9 11 -7 5 8 -4 11 -4 17 1 13 4 -4 20 1 35 12 32 23 44
25 35 8 -4 -7 1 -4 10 7 14 17 17 18 25 5 14 -22 12 -30 -5 -24 -8 4 -15 2
-15 -4 0 -6 8 -9 18 -7 9 1 23 -2 31 -9 7 -6 4 5 -8 24 -26 44 -26 44 5 58 14
7 23 8 20 3 -3 -5 1 -11 9 -15 8 -3 17 0 21 6 4 7 3 8 -4 4 -8 -5 -12 0 -12
12 0 22 23 35 58 35 12 0 22 4 22 9 0 6 -7 8 -15 4 -8 -3 -15 -1 -15 3 0 9 30
25 43 23 4 -1 7 2 7 6 0 5 7 17 15 28 15 18 15 18 8 0 -4 -13 -3 -17 5 -12 7
4 12 13 12 20 0 18 67 79 78 72 6 -3 14 -1 18 5 5 8 3 9 -6 4 -8 -5 -11 -3 -8
6 3 8 10 14 16 14 5 0 14 4 19 9 5 5 3 6 -4 2 -7 -4 -13 -5 -13 -2 0 5 84 122
96 135 2 3 10 -3 17 -13 12 -16 13 -16 13 3 0 11 -3 19 -6 18 -11 -4 -11 9 1
36 7 15 16 27 21 27 4 0 8 7 8 15 0 8 5 15 12 15 6 0 8 3 5 7 -4 3 2 20 13 38
11 18 16 36 12 40 -4 5 1 5 10 2 12 -4 16 -1 13 14 -2 10 0 19 4 19 4 0 8 6 9
13 3 32 10 51 20 55 6 2 8 11 5 19 -5 12 -2 15 10 10 9 -3 19 -2 22 4 4 5 1 8
-7 7 -8 -2 -12 5 -10 17 2 11 4 26 4 33 1 7 7 11 13 8 6 -2 12 2 12 10 0 7 -5
11 -10 7 -5 -3 -4 4 2 16 7 11 9 21 5 21 -3 0 -1 7 6 15 7 8 10 15 7 15 -3 0
1 25 9 55 8 31 12 60 9 65 -3 6 -2 10 4 10 6 0 8 7 5 15 -4 8 -2 15 3 15 5 0
9 10 10 23 1 69 3 78 16 71 9 -6 9 -5 0 8 -7 8 -11 17 -9 19 2 2 6 32 9 66 3
34 8 67 12 73 3 5 2 10 -4 10 -6 0 -7 11 -2 28 4 15 6 33 4 40 -3 7 1 20 9 29
7 10 8 14 1 10 -8 -5 -11 11 -11 55 0 60 -9 185 -16 238 -2 14 -7 50 -10 80
-4 30 -16 93 -27 140 -11 47 -22 94 -25 104 -14 68 -83 250 -137 361 -190 390
-490 691 -877 883 -63 31 -134 65 -157 74 -88 36 -277 95 -363 112 -93 19
-131 26 -170 31 -19 3 -51 8 -70 11 -40 7 -535 15 -541 10z m14 -789 c7 4 29
8 51 9 21 1 33 -2 26 -6 -6 -4 -12 -11 -13 -16 -1 -5 -5 -8 -9 -6 -5 1 -8 -3
-8 -9 0 -6 -7 -9 -15 -6 -8 4 -17 2 -20 -4 -4 -5 -11 -6 -17 -3 -7 4 -5 10 6
16 9 5 22 6 29 2 8 -5 7 -2 -2 9 -11 14 -17 15 -28 5 -18 -15 -61 -19 -69 -6
-3 4 -10 8 -16 8 -6 0 -8 -3 -5 -7 4 -3 2 -12 -4 -19 -7 -9 -1 -18 22 -35 18
-13 29 -18 25 -11 -11 19 5 14 20 -5 13 -17 14 -17 8 0 -4 10 -1 17 6 17 6 0
9 4 5 9 -3 6 4 8 15 6 13 -3 18 0 14 7 -5 7 -2 8 6 3 9 -6 -2 -21 -39 -57 -28
-26 -51 -53 -51 -59 0 -5 -4 -7 -10 -4 -5 3 -10 -2 -11 -12 0 -10 -3 -13 -6
-5 -6 16 -20 16 -20 -1 0 -17 -33 -67 -45 -67 -5 0 -7 4 -4 9 7 11 -20 8 -31
-3 -4 -4 -3 -7 2 -6 22 5 27 -1 15 -15 -7 -8 -16 -13 -20 -10 -4 3 -7 -3 -6
-13 1 -12 -6 -16 -24 -14 -19 1 -21 0 -10 -7 8 -6 11 -13 7 -17 -4 -4 -13 -2
-19 4 -7 7 -16 12 -22 12 -5 0 -1 -6 10 -14 22 -17 13 -30 -26 -39 -22 -5 -26
-3 -28 19 -1 15 2 23 8 19 6 -4 8 -9 6 -13 -2 -4 7 -8 20 -8 13 -1 21 2 18 7
-3 5 -10 9 -15 9 -21 0 -37 27 -42 71 -2 24 -8 52 -12 62 -4 10 -3 17 5 17 7
0 6 6 -4 16 -23 23 -20 33 9 28 18 -3 25 0 25 11 0 8 5 15 11 15 5 0 8 -4 5
-9 -3 -4 3 -16 14 -26 19 -18 28 -41 12 -31 -5 3 -16 -4 -25 -15 -9 -10 -12
-19 -7 -19 6 0 13 7 16 15 4 8 10 13 14 10 15 -9 22 15 9 31 -6 8 -8 18 -4 22
4 4 10 1 12 -5 3 -7 9 -13 15 -13 7 0 6 5 -1 14 -10 11 -6 17 20 30 25 12 30
13 26 2 -8 -19 17 -51 32 -42 9 6 9 11 0 22 -10 12 -8 14 11 11 13 -2 29 -12
37 -23 11 -15 16 -16 22 -6 15 25 7 57 -13 54 -10 -2 -15 1 -12 7 4 5 1 13 -5
16 -5 4 -8 14 -5 22 3 8 2 12 -2 9 -4 -2 -8 3 -8 13 0 14 9 17 48 16 28 -1 48
3 49 9 0 6 3 5 6 -2 2 -6 10 -9 16 -5z m163 -6 c-5 -13 -3 -12 8 2 10 14 15
15 19 5 4 -10 8 -10 16 2 8 11 11 12 11 2 0 -8 5 -10 13 -5 17 11 37 13 37 4
0 -4 18 -7 40 -6 30 1 37 -1 30 -10 -6 -7 -24 -11 -40 -10 -18 2 -27 -1 -23
-8 3 -6 1 -7 -6 -3 -6 4 -9 11 -6 16 3 5 -3 8 -14 7 -11 0 -18 -4 -15 -9 5 -8
-31 -2 -48 8 -7 5 -8 3 -3 -6 6 -9 4 -11 -5 -5 -9 6 -11 4 -5 -5 6 -9 4 -11
-5 -5 -9 5 -11 4 -6 -4 4 -6 11 -9 16 -6 4 3 13 -1 19 -9 9 -11 9 -15 -1 -20
-7 -3 -3 -3 10 0 13 3 22 1 22 -6 0 -6 -5 -8 -11 -4 -8 4 -8 0 0 -15 8 -14 8
-21 1 -21 -5 0 -10 6 -10 14 0 8 -7 17 -16 20 -8 3 -12 10 -9 16 6 9 -8 14
-27 11 -5 0 -7 3 -5 8 1 5 -10 19 -25 32 l-27 24 35 1 c28 1 34 -2 30 -15z
m-351 -11 c-3 -5 -2 -10 4 -10 5 0 12 4 15 9 10 15 41 5 40 -12 -3 -35 -4 -38
-14 -32 -7 4 -6 14 1 28 10 21 10 21 -5 3 -12 -14 -16 -16 -16 -5 0 9 -3 10
-8 3 -4 -6 -17 -10 -29 -9 -12 1 -19 -3 -16 -8 3 -6 2 -7 -3 -4 -6 3 -10 -4
-11 -16 0 -12 1 -16 4 -8 5 11 7 11 15 0 7 -11 8 -9 4 4 -4 12 -2 17 6 15 18
-6 16 -33 -2 -33 -8 0 -23 -8 -32 -17 -19 -19 -43 -25 -33 -9 10 16 -18 25
-29 9 -6 -8 -19 -14 -28 -12 -23 3 -31 -11 -20 -33 12 -24 4 -52 -9 -32 -8 12
-11 11 -19 -1 -5 -8 -10 -13 -11 -10 0 3 -2 13 -4 22 -2 10 1 20 6 24 5 3 9 0
9 -6 0 -6 5 -8 11 -4 8 4 7 9 -2 15 -12 8 -11 11 1 19 12 8 12 10 1 10 -11 0
-11 3 -1 15 7 8 17 15 22 15 7 0 6 -5 -1 -13 -8 -10 -7 -14 3 -14 23 0 11 32
-12 33 -12 1 -19 -3 -15 -9 4 -6 1 -7 -7 -2 -9 6 -11 4 -5 -5 6 -9 4 -11 -5
-5 -9 6 -11 4 -4 -6 6 -11 2 -10 -16 2 -14 9 -31 14 -39 11 -10 -3 -10 -6 -1
-12 8 -5 7 -9 -5 -13 -10 -5 -14 -3 -9 5 5 7 3 8 -6 3 -9 -6 -11 -4 -5 5 5 9
4 11 -4 6 -6 -4 -9 -12 -6 -17 4 -5 1 -9 -4 -9 -6 0 -11 7 -11 15 0 13 13 20
23 13 2 -2 11 3 21 11 9 8 19 11 23 7 3 -3 16 0 27 8 12 7 31 11 44 10 16 -3
21 0 16 8 -4 6 -3 8 4 4 6 -3 13 -2 17 3 3 5 14 8 25 6 11 -2 22 1 26 6 3 6
12 5 22 -3 13 -11 15 -10 9 5 -4 11 -3 16 3 12 5 -3 18 -1 27 4 23 13 26 13
18 1z m615 -1 c0 -4 13 -5 29 -4 24 2 29 -1 26 -17 -5 -24 4 -48 17 -48 6 0 6
6 -2 14 -9 11 -9 19 0 33 8 12 10 13 7 3 -3 -9 1 -24 9 -35 21 -28 17 -33 -23
-30 -50 3 -59 -1 -60 -28 l-1 -22 10 23 c12 24 23 28 33 12 4 -7 13 -7 26 0
23 13 25 2 2 -15 -13 -9 -13 -14 -3 -20 8 -5 11 -4 7 2 -4 6 0 13 8 17 8 3 15
1 15 -4 0 -6 5 -10 11 -10 8 0 8 4 0 14 -12 15 -4 49 10 41 4 -3 6 -12 3 -19
-3 -8 -1 -17 5 -21 7 -4 9 1 5 12 -4 12 2 9 18 -9 18 -21 27 -25 38 -17 13 9
12 10 -2 5 -18 -5 -21 16 -5 40 4 7 0 17 -8 24 -11 9 -15 9 -15 1 0 -7 -5 -9
-12 -5 -9 6 -9 9 0 12 7 2 9 9 5 15 -5 9 -3 9 8 1 8 -6 21 -10 31 -9 12 2 15
-3 12 -22 -3 -15 -1 -22 6 -18 5 3 10 13 10 22 0 15 2 14 18 0 10 -10 22 -14
25 -10 4 3 7 1 7 -6 0 -7 5 -9 10 -6 6 4 17 1 25 -5 8 -7 15 -9 15 -4 0 5 7 0
15 -10 8 -11 15 -17 15 -13 0 4 10 2 23 -5 12 -7 25 -12 29 -13 4 0 16 -8 28
-17 11 -10 20 -15 20 -11 0 15 21 -15 25 -36 3 -18 1 -21 -15 -16 -13 4 -20 2
-20 -6 0 -7 3 -10 6 -6 4 3 20 -1 36 -9 28 -15 29 -16 11 -30 -17 -15 -17 -15
1 -6 11 5 20 22 22 38 1 16 0 23 -3 17 -2 -7 -12 -13 -21 -13 -15 0 -15 2 -2
10 8 5 10 10 4 10 -6 0 -11 7 -11 16 0 14 2 14 14 -2 7 -10 13 -14 13 -8 0 5
7 0 16 -11 8 -11 18 -19 22 -18 13 4 102 -79 95 -90 -4 -6 0 -8 10 -4 10 3 17
3 17 -1 0 -4 21 -29 48 -56 26 -27 42 -47 37 -43 -6 3 -17 -3 -24 -15 -10 -16
-10 -19 1 -12 21 13 48 15 48 3 0 -5 -4 -8 -9 -4 -5 3 -13 0 -17 -6 -4 -7 -3
-9 4 -5 6 3 17 -1 24 -9 7 -9 20 -24 29 -33 9 -9 33 -46 53 -82 29 -49 36 -68
28 -81 -7 -11 -6 -16 4 -16 7 0 10 5 7 11 -4 8 -2 8 6 0 7 -6 13 -21 14 -33 1
-11 5 -21 9 -21 4 0 8 -5 8 -11 0 -5 -6 -7 -12 -4 -7 4 -4 -2 7 -12 18 -17 24
-28 29 -58 1 -5 6 -16 10 -24 7 -11 6 -12 -5 -6 -12 7 -12 6 -1 -7 7 -9 15
-24 17 -34 2 -11 9 -37 14 -58 5 -22 8 -44 5 -48 -3 -4 0 -8 5 -8 6 0 11 -7
11 -15 0 -8 -6 -15 -12 -15 -9 0 -9 -3 1 -9 8 -5 16 -18 17 -28 1 -10 5 -49 9
-88 4 -38 9 -77 10 -85 1 -8 -3 -21 -9 -29 -8 -11 -8 -13 1 -8 8 5 11 -5 9
-35 -1 -24 2 -49 7 -55 5 -8 6 -13 0 -13 -5 0 -8 -38 -8 -85 1 -47 -2 -85 -5
-85 -3 0 -5 -12 -4 -27 1 -16 -3 -34 -9 -40 -6 -8 -6 -13 0 -13 5 0 8 -14 5
-30 -4 -26 -7 -29 -21 -18 -14 11 -14 10 1 -7 18 -22 14 -80 -6 -68 -6 4 -5 0
2 -9 9 -11 10 -18 2 -23 -6 -3 -8 -10 -5 -15 8 -14 -6 -40 -19 -33 -8 4 -8 3
0 -6 14 -15 -6 -93 -26 -99 -7 -3 -8 -7 -2 -11 18 -11 -56 -148 -108 -202 -27
-28 -54 -48 -59 -44 -7 4 -8 -1 -4 -11 4 -12 3 -15 -5 -10 -7 4 -12 2 -12 -4
0 -6 -4 -9 -9 -5 -5 3 -12 1 -16 -5 -4 -6 -22 -9 -41 -7 -24 3 -37 0 -44 -12
-4 -9 -12 -13 -16 -9 -4 4 -1 14 6 23 7 8 8 15 3 15 -6 0 -15 -10 -21 -22 -6
-13 -11 -17 -11 -10 -1 7 -5 11 -10 7 -5 -3 -12 -1 -16 5 -5 9 7 14 27 11 4 0
4 7 1 16 -4 11 -8 13 -11 5 -2 -7 -8 -12 -13 -12 -4 0 -6 7 -3 15 4 8 1 15 -5
15 -6 0 -9 13 -7 30 2 17 -1 33 -6 36 -6 4 -5 10 3 15 12 8 12 11 -1 18 -12 9
-12 11 3 17 17 6 17 7 0 21 -10 8 -13 12 -8 9 6 -2 17 5 25 17 12 19 11 21 -2
10 -8 -7 -17 -10 -21 -7 -8 8 26 42 37 36 5 -3 6 1 1 8 -6 10 -11 9 -22 -5
-11 -17 -13 -13 -13 31 0 28 6 56 13 63 10 11 10 13 0 7 -9 -5 -13 0 -14 16 0
13 -2 33 -3 45 -1 12 1 20 5 18 14 -9 17 24 3 36 -12 10 -12 14 -2 21 11 6 10
10 -1 17 -11 7 -10 11 5 20 11 6 14 11 7 11 -9 0 -12 19 -10 63 2 62 12 91 26
83 4 -3 8 1 8 9 0 8 -4 15 -9 15 -4 0 -8 -4 -8 -10 0 -5 -4 -10 -8 -10 -5 0
-9 7 -9 15 0 19 26 28 43 14 9 -7 14 -8 14 -1 0 6 -6 13 -12 15 -10 4 -9 8 2
16 12 8 11 10 -7 8 -12 0 -21 -5 -20 -10 1 -5 -4 -12 -10 -14 -15 -6 -17 13
-3 22 6 3 10 14 10 23 0 15 -2 15 -10 2 -6 -9 -10 -10 -10 -3 0 6 5 15 11 19
8 4 7 9 -2 15 -11 6 -11 11 -2 20 6 6 10 17 9 23 -2 6 -1 8 1 3 3 -4 10 -4 16
0 17 11 87 11 87 1 0 -5 6 -6 13 -1 6 4 29 8 49 9 29 1 36 -3 35 -17 -1 -16
-37 -24 -37 -9 0 4 -7 7 -15 7 -8 0 -11 -5 -8 -11 3 -6 3 -8 -2 -4 -4 4 -15 2
-23 -5 -12 -9 -14 -9 -9 0 5 7 -1 17 -14 23 -12 7 -19 8 -16 3 4 -5 1 -10 -6
-11 -29 -2 -48 -9 -59 -20 -9 -9 -9 -12 3 -12 12 0 12 -2 -1 -10 -11 -7 -11
-10 -2 -10 7 0 11 -4 8 -8 -2 -4 6 -9 20 -10 13 -1 24 3 24 9 0 5 5 7 11 4 7
-5 5 -13 -5 -24 -9 -10 -16 -24 -15 -32 0 -11 2 -11 6 1 8 20 29 40 36 34 3
-3 3 -12 0 -20 -3 -8 0 -14 6 -14 6 0 10 6 8 13 -1 6 3 11 10 10 7 -2 10 3 7
11 -4 10 0 13 13 11 10 -2 22 -4 26 -4 5 -1 5 -5 2 -11 -4 -6 1 -7 11 -3 14 5
12 8 -10 20 -14 7 -26 18 -26 23 0 6 9 5 20 -2 14 -9 23 -10 28 -3 13 19 56
11 60 -10 2 -16 1 -17 -7 -5 -5 8 -12 12 -15 10 -2 -3 2 -13 9 -23 13 -18 14
-17 20 3 4 11 2 27 -4 34 -8 10 -4 13 19 13 17 0 36 5 43 12 9 10 6 10 -16 2
-38 -15 -39 -14 -27 12 10 20 10 20 -3 5 -18 -22 -31 -23 -23 -2 3 9 2 12 -5
9 -6 -4 -8 -14 -5 -22 4 -9 1 -13 -6 -11 -6 2 -12 13 -13 24 -1 17 4 20 29 20
17 -1 37 -5 45 -10 10 -7 12 -6 6 3 -5 9 3 12 31 11 22 -1 42 -1 47 0 16 5 28
8 40 9 8 0 14 8 14 15 0 8 -4 14 -7 13 -12 -3 -60 45 -512 504 -614 625 -668
681 -668 696 0 7 -3 12 -7 12 -26 -4 -32 3 -29 34 3 25 -1 36 -22 53 l-27 22
37 -2 c20 0 39 -4 43 -8 4 -3 -5 -5 -19 -4 -14 2 -23 -1 -20 -6 3 -5 13 -7 21
-4 11 5 13 2 9 -9 -3 -9 -2 -13 4 -10 6 3 10 1 10 -4 0 -6 -4 -11 -10 -11 -5
0 -10 -5 -10 -11 0 -8 5 -8 15 1 12 10 18 10 30 0 8 -7 13 -15 11 -19 -2 -3 8
-7 22 -8 24 -1 25 0 7 10 -11 6 -31 21 -45 34 -23 22 -24 24 -7 40 17 17 18
17 15 -2 -2 -11 0 -21 4 -23 4 -2 21 -16 39 -33 17 -16 36 -29 42 -29 7 0 -3
10 -20 23 -32 21 -42 37 -25 37 5 0 17 -9 27 -20 10 -11 23 -20 29 -20 6 0 -2
11 -18 23 -18 14 -25 26 -19 30 6 4 13 0 17 -8 3 -9 12 -12 22 -8 10 4 15 2
11 -3 -3 -6 -2 -15 2 -22 5 -9 13 -7 29 8 22 21 37 27 27 10 -3 -5 -1 -10 4
-10 14 0 14 6 1 30 -6 12 -18 17 -30 15 -11 -2 -18 0 -15 4 3 5 -2 12 -10 15
-13 4 -13 2 -5 -14 12 -22 13 -41 1 -22 -4 7 -14 14 -22 15 -8 2 -20 6 -27 11
-8 4 -11 3 -10 -5 2 -6 -3 -14 -11 -17 -8 -3 -11 0 -7 7 10 16 0 14 -18 -5 -9
-8 -16 -12 -16 -7 0 11 20 40 20 30 0 -4 9 -3 20 3 15 8 26 7 43 -1 19 -11 20
-10 10 2 -10 13 -8 15 12 15 14 0 25 -3 25 -7z m-447 -22 c-2 -4 -3 -11 -3
-15 0 -4 -9 -8 -19 -8 -11 0 -17 5 -14 10 4 5 -1 7 -10 3 -16 -6 -31 5 -21 16
8 8 70 2 67 -6z m561 -8 c21 3 28 -1 23 -13 -7 -19 12 -36 32 -28 13 5 14 3 4
-10 -7 -8 -12 -17 -10 -19 1 -2 -8 6 -21 18 -13 13 -20 29 -17 36 4 6 0 4 -7
-5 -13 -15 -15 -15 -24 0 -6 9 -9 23 -6 31 3 10 6 10 12 1 4 -6 10 -11 14 -11z
m-684 -30 c11 -13 18 -17 17 -9 -1 8 3 16 8 18 6 1 11 -2 11 -8 1 -5 2 -15 3
-21 1 -8 5 -8 15 1 12 9 15 8 13 -9 -2 -24 -10 -27 -26 -7 -6 7 -21 12 -34 11
-31 -3 -31 -3 -17 -20 9 -10 9 -15 1 -15 -10 0 -15 14 -12 34 1 4 -5 19 -13
31 -14 21 -14 23 1 21 8 -1 23 -13 33 -27z m583 9 c-9 -10 -20 -18 -25 -18 -4
0 -3 8 3 18 7 10 18 19 25 19 11 0 10 -5 -3 -19z m-831 -52 c15 2 16 -1 6 -19
-7 -12 -11 -25 -10 -29 1 -5 -3 -8 -9 -8 -5 0 -7 -6 -3 -12 5 -10 4 -10 -6 -1
-11 10 -10 16 2 35 15 22 14 24 -5 26 -13 0 -17 -2 -10 -6 9 -6 7 -11 -7 -20
-11 -7 -20 -8 -20 -4 0 5 -18 8 -39 8 -29 0 -37 -3 -30 -12 5 -6 27 -10 49 -9
55 3 51 -12 -4 -16 -24 -2 -42 -1 -39 4 2 4 -1 7 -6 7 -6 0 -11 -5 -11 -11 0
-8 -4 -9 -13 0 -8 6 -17 8 -20 4 -4 -3 -30 -7 -58 -8 -36 -2 -47 0 -35 7 9 5
21 6 28 2 7 -5 9 -2 5 9 -4 11 -2 14 7 11 7 -3 18 2 25 10 7 8 20 12 28 9 12
-5 14 -3 8 7 -5 8 -4 11 3 6 6 -3 13 -2 17 4 4 6 11 8 16 5 5 -4 9 0 9 7 0 8
5 6 11 -5 15 -26 87 -10 73 16 -3 7 0 5 8 -4 7 -9 21 -15 30 -13z m118 -250
c0 -3 -4 -8 -10 -11 -5 -3 -10 -1 -10 4 0 6 5 11 10 11 6 0 10 -2 10 -4z
m-877 -333 c-4 -11 -3 -14 5 -9 18 11 14 -3 -5 -22 -16 -16 -16 -16 -10 0 3
10 2 20 -4 23 -5 4 -9 3 -8 -2 3 -20 -2 -29 -21 -30 -17 -1 -15 3 11 28 34 33
41 36 32 12z m-13 -84 c0 -6 -4 -7 -10 -4 -5 3 -10 11 -10 16 0 6 5 7 10 4 6
-3 10 -11 10 -16z m-82 -40 c-9 -5 -15 -16 -12 -23 3 -8 -5 -21 -18 -30 -15
-10 -17 -16 -8 -16 9 0 11 -3 5 -8 -16 -11 -17 -34 -3 -45 10 -7 9 -8 -3 -4
-9 3 -23 0 -30 -6 -11 -10 -11 -9 0 6 7 9 10 17 7 17 -4 0 -2 9 4 20 6 11 7
20 3 19 -4 -1 -15 -1 -23 0 -12 1 -12 3 2 12 11 6 15 16 11 26 -5 12 -2 15 9
10 9 -3 23 2 34 14 9 10 22 19 28 19 6 0 3 -5 -6 -11z m-68 -89 c0 -5 -4 -10
-10 -10 -5 0 -10 5 -10 10 0 6 5 10 10 10 6 0 10 -4 10 -10z m10 -80 c-8 -5
-19 -10 -25 -10 -5 0 -3 5 5 10 8 5 20 10 25 10 6 0 3 -5 -5 -10z m-53 -117
c-16 -16 -17 -16 -17 0 0 10 5 15 10 12 6 -3 10 -1 10 6 0 7 3 9 7 5 4 -3 -1
-14 -10 -23z m-19 -43 c34 -28 34 -52 0 -73 -18 -10 -28 -24 -25 -31 6 -16
-17 -39 -48 -50 -17 -5 -16 -3 4 12 13 11 21 24 17 31 -11 18 -16 53 -8 65 3
6 7 17 8 24 7 46 18 50 52 22z m-58 -121 c0 -5 -4 -9 -8 -9 -5 0 -9 7 -9 15 0
8 4 12 9 9 4 -3 8 -9 8 -15z m6 -97 c-17 -16 -18 -16 -5 5 7 12 15 20 18 17 3
-2 -3 -12 -13 -22z m2547 -58 c-4 -12 -8 -12 -21 -2 -12 10 -14 10 -8 1 5 -9
2 -11 -11 -7 -14 5 -15 4 -4 -4 16 -12 6 -33 -12 -26 -7 2 -13 14 -14 24 -1
11 2 18 6 16 4 -3 12 -1 19 3 22 13 51 11 45 -5z m97 -3 c2 0 -1 -6 -8 -13 -8
-8 -15 -8 -26 1 -16 14 -32 -2 -20 -21 4 -7 3 -8 -5 -4 -6 4 -14 0 -17 -9 -6
-14 -8 -14 -25 1 -26 23 -24 33 6 30 13 -2 24 0 23 3 -1 15 4 18 35 16 17 -2
34 -3 37 -4z m25 -1 c3 -5 1 -10 -4 -10 -6 0 -11 5 -11 10 0 6 2 10 4 10 3 0
8 -4 11 -10z m-1371 -181 c4 6 13 8 19 4 17 -11 37 -13 37 -4 0 10 76 8 86 -1
3 -4 16 -3 27 3 14 8 18 8 13 0 -4 -6 -2 -11 3 -11 13 0 10 -22 -4 -32 -5 -4
0 -6 13 -5 21 1 33 17 13 17 -5 0 -8 8 -7 17 3 17 36 28 36 12 0 -5 5 -9 11
-9 5 0 7 6 3 13 -6 9 -4 9 8 -1 10 -8 19 -9 22 -3 7 10 24 10 43 -2 6 -4 14
-3 18 2 3 6 15 7 28 2 12 -4 28 -6 35 -4 6 3 12 0 12 -7 0 -6 -4 -8 -10 -5 -5
3 -10 2 -10 -3 0 -6 7 -13 16 -16 9 -4 12 -11 7 -18 -4 -7 -6 -21 -5 -30 2
-10 -1 -18 -7 -18 -12 0 -46 60 -34 60 5 0 2 4 -6 9 -16 11 -64 -16 -55 -30
12 -20 -16 -7 -30 13 -9 12 -16 19 -16 14 0 -5 -7 -3 -15 4 -12 10 -17 7 -26
-14 -14 -30 -18 -31 -44 -12 -14 10 -25 11 -37 5 -10 -5 -18 -7 -18 -3 0 4 -9
-1 -19 -10 -11 -10 -24 -15 -29 -12 -6 3 -13 -1 -16 -10 -6 -16 -26 -11 -26 7
0 6 4 8 9 4 5 -3 13 0 17 6 4 8 3 9 -4 5 -7 -4 -12 -5 -12 -2 0 3 12 12 28 21
20 12 22 15 7 13 -11 -2 -26 -10 -33 -18 -10 -11 -12 -11 -6 -1 5 10 3 12 -6
6 -9 -6 -11 -4 -5 6 8 12 6 12 -8 0 -9 -7 -17 -19 -17 -25 0 -6 4 -5 9 3 6 9
11 10 15 2 4 -6 2 -11 -4 -11 -6 0 -9 -4 -6 -9 5 -8 -15 -8 -34 -1 -3 1 -9 2
-13 1 -5 -1 -6 3 -2 9 3 6 11 8 16 5 16 -11 9 7 -8 21 -11 8 -13 13 -5 14 6 0
12 5 12 11 0 5 -4 7 -10 4 -6 -3 -7 1 -3 10 4 12 8 13 13 5 6 -9 9 -9 14 -1z
m-1304 -113 c0 -3 -4 -8 -10 -11 -5 -3 -10 -1 -10 4 0 6 5 11 10 11 6 0 10 -2
10 -4z m1321 -23 c-12 -20 -14 -14 -5 12 4 9 9 14 11 11 3 -2 0 -13 -6 -23z
m-4 -78 c0 -8 -4 -15 -9 -15 -4 0 -8 7 -8 15 0 8 4 15 8 15 5 0 9 -7 9 -15z
m-343 -586 c-4 -8 0 -8 15 0 13 7 21 8 21 2 0 -9 -31 -31 -44 -31 -3 0 -6 7
-6 16 0 10 -6 13 -17 10 -10 -3 -25 -1 -33 4 -11 7 -3 10 28 10 29 0 41 -4 36
-11z m186 -1 c0 -4 -5 -8 -12 -8 -6 0 -9 -2 -6 -5 8 -8 39 6 33 15 -2 4 9 7
25 8 17 0 30 -3 30 -8 0 -5 -6 -7 -13 -4 -7 2 -24 -4 -36 -15 -18 -16 -28 -18
-42 -10 -11 5 -17 14 -15 18 3 4 -1 8 -9 8 -8 0 -12 -3 -10 -7 3 -4 -3 -14
-13 -22 -15 -12 -20 -11 -43 13 l-25 26 68 0 c37 -1 68 -5 68 -9z m-240 -18
c0 -5 -7 -10 -15 -10 -8 0 -15 5 -15 10 0 6 7 10 15 10 8 0 15 -4 15 -10z
m1392 -585 c0 -5 -5 -11 -10 -13 -5 -1 -9 4 -9 13 0 9 4 14 9 13 5 -2 10 -8
10 -13z"/>
<path d="M2554 4072 c4 -3 14 -7 22 -8 9 -1 13 0 10 4 -4 3 -14 7 -22 8 -9 1
-13 0 -10 -4z"/>
<path d="M2519 4003 c-13 -16 -12 -17 4 -4 9 7 17 15 17 17 0 8 -8 3 -21 -13z"/>
<path d="M2470 3969 c0 -5 5 -7 10 -4 6 3 10 8 10 11 0 2 -4 4 -10 4 -5 0 -10
-5 -10 -11z"/>
<path d="M2315 3950 c3 -5 8 -10 11 -10 2 0 4 5 4 10 0 6 -5 10 -11 10 -5 0
-7 -4 -4 -10z"/>
<path d="M2219 3911 c10 -11 19 -13 23 -7 13 18 9 24 -16 24 -22 0 -22 -2 -7
-17z"/>
<path d="M2330 3920 c0 -5 5 -10 10 -10 6 0 10 5 10 10 0 6 -4 10 -10 10 -5 0
-10 -4 -10 -10z"/>
<path d="M2390 3920 c0 -5 7 -7 15 -4 8 4 15 8 15 10 0 2 -7 4 -15 4 -8 0 -15
-4 -15 -10z"/>
<path d="M2310 3911 c0 -6 4 -13 10 -16 6 -3 7 1 4 9 -7 18 -14 21 -14 7z"/>
<path d="M2355 3890 c3 -5 8 -10 11 -10 2 0 4 5 4 10 0 6 -5 10 -11 10 -5 0
-7 -4 -4 -10z"/>
<path d="M2290 3880 c0 -5 5 -10 10 -10 6 0 10 5 10 10 0 6 -4 10 -10 10 -5 0
-10 -4 -10 -10z"/>
<path d="M2320 3876 c0 -2 7 -7 16 -10 8 -3 12 -2 9 4 -6 10 -25 14 -25 6z"/>
<path d="M2375 3870 c-3 -6 1 -7 9 -4 18 7 21 14 7 14 -6 0 -13 -4 -16 -10z"/>
<path d="M2220 3852 c6 -12 8 -28 4 -34 -4 -7 -3 -8 4 -4 16 10 15 18 -4 42
-14 18 -15 18 -4 -4z"/>
<path d="M2273 3830 c-1 -11 2 -20 7 -20 4 0 7 7 6 15 -3 23 -12 26 -13 5z"/>
<path d="M2230 3790 c-13 -8 -12 -10 3 -10 9 0 17 5 17 10 0 12 -1 12 -20 0z"/>
<path d="M2650 4075 c0 -2 6 -8 13 -14 10 -8 14 -7 14 2 0 8 -6 14 -14 14 -7
0 -13 -1 -13 -2z"/>
<path d="M2256 4031 c-3 -5 -14 -8 -24 -6 -28 4 -43 -13 -29 -36 12 -19 12
-18 29 3 15 20 18 20 18 6 0 -10 5 -18 10 -18 6 0 13 -1 17 -2 3 -2 7 7 8 20
2 25 -19 49 -29 33z m19 -33 c2 -20 1 -20 -11 -3 -7 10 -11 22 -8 27 8 13 17
2 19 -24z m-46 5 c-6 -7 -15 -10 -20 -7 -13 8 -3 21 15 21 12 0 13 -4 5 -14z"/>
<path d="M2126 3995 c-11 -8 -15 -15 -9 -15 6 0 16 7 23 15 16 19 11 19 -14 0z"/>
<path d="M3170 3975 c-7 -8 -16 -12 -21 -9 -5 3 -9 0 -9 -5 0 -6 7 -11 16 -11
9 0 14 -6 11 -13 -8 -20 8 -40 34 -42 14 -1 23 5 27 17 2 10 9 18 14 18 5 0 6
-5 3 -10 -4 -6 -3 -10 2 -9 21 4 34 -2 27 -13 -4 -6 -3 -8 4 -4 5 3 19 -6 30
-21 l20 -28 26 24 c32 30 34 17 4 -17 l-23 -25 23 14 c12 8 22 17 22 21 0 4 7
5 15 2 10 -4 15 0 14 12 0 11 -3 14 -6 6 -3 -8 -11 -5 -24 12 -19 24 -33 26
-72 11 -13 -6 -16 -3 -11 9 3 9 11 13 17 9 5 -3 7 -1 4 5 -8 11 -25 11 -43 -1
-12 -7 -24 1 -24 15 0 5 4 7 9 3 5 -3 13 0 17 7 4 7 4 10 -1 6 -4 -4 -14 -3
-22 4 -19 15 -29 1 -32 -47 -1 -11 -40 -15 -42 -5 0 3 -2 18 -4 33 -3 24 -2
27 11 16 12 -10 17 -10 27 0 9 10 8 11 -7 5 -13 -5 -17 -4 -12 4 10 17 -10 23
-24 7z m180 -97 c-18 -15 -25 -16 -31 -6 -14 21 -10 31 6 18 12 -10 16 -9 21
4 3 9 11 13 17 9 6 -4 1 -14 -13 -25z"/>
<path d="M2790 3963 c0 -5 5 -15 10 -23 7 -12 9 -10 7 8 -1 19 -17 33 -17 15z"/>
<path d="M2979 3948 c-6 -22 -5 -39 3 -45 7 -4 8 -1 3 7 -6 10 -3 12 11 7 18
-7 18 -6 2 6 -10 8 -15 17 -11 20 3 4 3 7 0 7 -4 0 -7 -1 -8 -2z"/>
<path d="M2824 3924 c-18 -14 -18 -15 4 -4 12 6 22 13 22 15 0 8 -5 6 -26 -11z"/>
<path d="M2861 3918 c-13 -20 -12 -22 1 -11 8 7 18 10 22 6 4 -4 4 0 0 10 -8
21 -6 21 -23 -5z"/>
<path d="M2906 3923 c-6 -14 -5 -15 5 -6 7 7 10 15 7 18 -3 3 -9 -2 -12 -12z"/>
<path d="M3190 3930 c0 -5 5 -10 10 -10 6 0 10 5 10 10 0 6 -4 10 -10 10 -5 0
-10 -4 -10 -10z"/>
<path d="M2933 3915 c0 -7 6 -11 14 -8 7 3 13 6 13 8 0 2 -6 5 -13 8 -8 3 -14
-1 -14 -8z"/>
<path d="M3080 3919 c0 -5 5 -7 10 -4 6 3 10 8 10 11 0 2 -4 4 -10 4 -5 0 -10
-5 -10 -11z"/>
<path d="M3113 3895 c0 -8 4 -12 9 -9 4 3 8 9 8 15 0 5 -4 9 -8 9 -5 0 -9 -7
-9 -15z"/>
<path d="M2895 3889 c-4 -6 -5 -12 -2 -15 2 -3 7 2 10 11 7 17 1 20 -8 4z"/>
<path d="M3010 3897 c0 -2 6 -10 14 -16 11 -9 16 -9 22 1 4 7 4 10 -1 6 -4 -4
-14 -3 -22 3 -7 6 -13 9 -13 6z"/>
<path d="M3251 3884 c0 -11 3 -14 6 -6 3 7 2 16 -1 19 -3 4 -6 -2 -5 -13z"/>
<path d="M2836 3878 c3 -5 10 -6 15 -3 13 9 11 12 -6 12 -8 0 -12 -4 -9 -9z"/>
<path d="M3150 3879 c0 -5 5 -7 10 -4 6 3 10 8 10 11 0 2 -4 4 -10 4 -5 0 -10
-5 -10 -11z"/>
<path d="M3175 3869 c-4 -6 -5 -12 -2 -15 2 -3 7 2 10 11 7 17 1 20 -8 4z"/>
<path d="M3197 3867 c-3 -8 1 -14 8 -14 7 0 11 6 8 14 -3 7 -6 13 -8 13 -2 0
-5 -6 -8 -13z"/>
<path d="M3270 3870 c0 -5 5 -10 10 -10 6 0 10 5 10 10 0 6 -4 10 -10 10 -5 0
-10 -4 -10 -10z"/>
<path d="M2910 3856 c0 -2 8 -10 18 -17 15 -13 16 -12 3 4 -13 16 -21 21 -21
13z"/>
<path d="M3237 3850 c7 -8 20 -15 29 -16 9 -1 13 1 9 4 -4 4 -10 7 -13 7 -4 0
-14 4 -22 9 -12 7 -13 6 -3 -4z"/>
<path d="M3290 3842 c0 -4 10 -9 22 -9 18 -2 20 0 8 7 -18 12 -30 13 -30 2z"/>
<path d="M3175 3820 c-3 -5 -1 -10 4 -10 6 0 11 5 11 10 0 6 -2 10 -4 10 -3 0
-8 -4 -11 -10z"/>
<path d="M3355 3819 c-4 -6 -4 -13 -1 -16 3 -4 6 -1 6 5 0 7 5 12 11 12 5 0 7
-5 3 -12 -4 -7 -3 -8 5 -4 12 8 6 26 -9 26 -5 0 -12 -5 -15 -11z"/>
<path d="M3480 3810 c7 -13 6 -20 -3 -23 -6 -2 -8 -8 -4 -13 11 -12 26 16 19
35 -5 14 -3 14 11 2 9 -7 14 -18 10 -24 -3 -6 -1 -7 5 -3 7 4 12 3 12 -3 0 -5
-6 -11 -12 -14 -7 -2 -2 -2 11 0 21 4 23 2 12 -11 -11 -13 -9 -17 14 -26 23
-9 25 -13 15 -25 -11 -13 -10 -14 4 -9 21 8 16 26 -12 40 -12 6 -19 14 -16 17
4 3 16 2 28 -4 11 -6 -1 9 -28 32 -54 47 -82 60 -66 29z"/>
<path d="M3401 3815 c0 -5 3 -16 8 -23 7 -11 9 -10 14 3 4 9 3 14 -2 10 -5 -3
-12 1 -14 7 -3 7 -6 9 -6 3z"/>
<path d="M3290 3779 c0 -5 5 -7 10 -4 6 3 10 8 10 11 0 2 -4 4 -10 4 -5 0 -10
-5 -10 -11z"/>
<path d="M3453 3755 c0 -8 4 -12 9 -9 5 3 6 10 3 15 -9 13 -12 11 -12 -6z"/>
<path d="M3481 3753 c-1 -17 16 -25 25 -12 4 7 3 9 -4 5 -5 -3 -13 0 -15 6 -4
9 -6 10 -6 1z"/>
<path d="M3436 3718 c3 -5 10 -6 15 -3 13 9 11 12 -6 12 -8 0 -12 -4 -9 -9z"/>
<path d="M3510 3726 c0 -2 7 -7 16 -10 8 -3 12 -2 9 4 -6 10 -25 14 -25 6z"/>
<path d="M3600 3697 c-12 -21 -12 -21 6 -7 10 8 20 15 22 16 2 1 -1 4 -5 7 -5
3 -15 -4 -23 -16z"/>
<path d="M3615 3680 c-3 -5 -2 -10 4 -10 5 0 13 5 16 10 3 6 2 10 -4 10 -5 0
-13 -4 -16 -10z"/>
<path d="M3635 3664 c-19 -14 -19 -15 2 -11 26 4 38 13 26 20 -4 3 -17 -1 -28
-9z"/>
<path d="M3516 3658 c3 -4 11 -5 19 -1 21 7 19 12 -4 10 -11 0 -18 -5 -15 -9z"/>
<path d="M3665 3639 c-4 -6 -5 -12 -2 -15 2 -3 7 2 10 11 7 17 1 20 -8 4z"/>
<path d="M3627 3619 c7 -7 15 -10 18 -7 3 3 -2 9 -12 12 -14 6 -15 5 -6 -5z"/>
<path d="M3653 3585 c0 -8 4 -12 9 -9 5 3 6 10 3 15 -9 13 -12 11 -12 -6z"/>
<path d="M3710 3576 c0 -2 8 -10 18 -17 15 -13 16 -12 3 4 -13 16 -21 21 -21
13z"/>
<path d="M3696 3538 c3 -5 10 -6 15 -3 13 9 11 12 -6 12 -8 0 -12 -4 -9 -9z"/>
<path d="M3776 3478 c3 -5 10 -6 15 -3 13 9 11 12 -6 12 -8 0 -12 -4 -9 -9z"/>
<path d="M3552 2656 c-16 -20 -16 -20 2 -6 10 8 25 15 33 16 24 4 27 13 4 11
-12 -1 -30 -10 -39 -21z"/>
<path d="M3913 2635 c0 -8 4 -12 9 -9 5 3 6 10 3 15 -9 13 -12 11 -12 -6z"/>
<path d="M3955 2640 c3 -5 8 -10 11 -10 2 0 4 5 4 10 0 6 -5 10 -11 10 -5 0
-7 -4 -4 -10z"/>
<path d="M3835 2619 c-4 -6 -4 -13 -1 -17 11 -10 36 -11 36 0 0 6 -7 7 -16 4
-12 -4 -15 -2 -10 9 6 17 0 20 -9 4z"/>
<path d="M3752 2600 c3 -8 1 -27 -3 -43 -5 -16 -4 -25 2 -22 5 4 9 15 9 26 0
14 4 18 13 13 7 -5 7 -1 -3 12 -22 29 -23 30 -18 14z"/>
<path d="M3880 2605 c0 -2 6 -8 13 -14 10 -8 14 -7 14 2 0 8 -6 14 -14 14 -7
0 -13 -1 -13 -2z"/>
<path d="M3950 2606 c0 -2 7 -7 16 -10 8 -3 12 -2 9 4 -6 10 -25 14 -25 6z"/>
<path d="M3819 2588 c-1 -2 -3 -13 -4 -25 -2 -15 2 -20 13 -15 9 3 13 1 9 -5
-3 -5 1 -10 10 -10 13 0 12 4 -5 18 -23 18 -30 35 -10 23 7 -4 8 -3 4 4 -7 11
-14 15 -17 10z"/>
<path d="M3691 2564 c0 -11 3 -14 6 -6 3 7 2 16 -1 19 -3 4 -6 -2 -5 -13z"/>
<path d="M3873 2565 c0 -8 3 -13 5 -10 3 3 10 0 17 -5 8 -7 12 -5 12 5 0 8 -3
13 -5 10 -3 -3 -10 0 -17 5 -8 7 -12 5 -12 -5z"/>
<path d="M3693 2523 c1 -18 4 -20 17 -10 25 19 26 20 8 14 -9 -3 -19 -1 -21 6
-3 7 -4 2 -4 -10z"/>
<path d="M3630 2525 c0 -5 5 -17 10 -25 5 -8 10 -10 10 -5 0 6 -5 17 -10 25
-5 8 -10 11 -10 5z"/>
<path d="M3793 2510 c1 -21 10 -18 13 5 1 8 -2 15 -6 15 -5 0 -8 -9 -7 -20z"/>
<path d="M3886 2522 c-3 -5 1 -9 9 -9 8 0 12 4 9 9 -3 4 -7 8 -9 8 -2 0 -6 -4
-9 -8z"/>
<path d="M3590 2511 c0 -6 4 -13 10 -16 6 -3 7 1 4 9 -7 18 -14 21 -14 7z"/>
<path d="M3945 2500 c-3 -6 1 -7 9 -4 18 7 21 14 7 14 -6 0 -13 -4 -16 -10z"/>
<path d="M3550 2483 c0 -5 14 -9 31 -9 35 -2 33 5 -5 12 -14 2 -26 1 -26 -3z"/>
<path d="M3727 2479 c7 -7 15 -10 18 -7 3 3 -2 9 -12 12 -14 6 -15 5 -6 -5z"/>
<path d="M3561 2444 c0 -11 3 -14 6 -6 3 7 2 16 -1 19 -3 4 -6 -2 -5 -13z"/>
<path d="M3895 2440 c-3 -5 -1 -10 4 -10 6 0 11 5 11 10 0 6 -2 10 -4 10 -3 0
-8 -4 -11 -10z"/>
<path d="M3594 2389 c-1 -21 2 -39 6 -39 7 0 7 66 0 74 -3 2 -6 -13 -6 -35z"/>
<path d="M3555 2339 c-4 -6 -4 -13 -1 -16 3 -4 6 -1 6 6 0 7 5 9 12 5 7 -4 8
-3 4 4 -9 15 -13 15 -21 1z"/>
<path d="M3550 2300 c0 -5 5 -10 10 -10 6 0 10 5 10 10 0 6 -4 10 -10 10 -5 0
-10 -4 -10 -10z"/>
<path d="M3552 2238 c2 -6 10 -13 16 -14 7 -1 8 0 2 3 -5 2 -8 9 -4 14 3 5 0
9 -6 9 -7 0 -10 -5 -8 -12z"/>
<path d="M3555 2200 c-3 -5 -1 -10 4 -10 6 0 11 5 11 10 0 6 -2 10 -4 10 -3 0
-8 -4 -11 -10z"/>
<path d="M3596 2187 c3 -10 9 -15 12 -12 3 3 0 11 -7 18 -10 9 -11 8 -5 -6z"/>
<path d="M3573 2165 c0 -8 4 -12 9 -9 5 3 6 10 3 15 -9 13 -12 11 -12 -6z"/>
<path d="M3561 2120 c-13 -11 -18 -20 -13 -20 6 0 14 5 17 10 4 6 10 8 14 6 4
-3 8 1 8 9 0 8 -1 15 -1 15 -1 -1 -12 -10 -25 -20z"/>
<path d="M3593 2085 c0 -8 4 -12 9 -9 5 3 6 10 3 15 -9 13 -12 11 -12 -6z"/>
<path d="M3574 2040 c0 -13 4 -16 10 -10 7 7 7 13 0 20 -6 6 -10 3 -10 -10z"/>
<path d="M3560 1980 c-8 -5 -12 -12 -9 -15 4 -3 12 1 19 10 14 17 11 19 -10 5z"/>
<path d="M3566 1923 c-4 -9 -3 -20 1 -24 4 -4 9 3 9 17 2 28 -1 31 -10 7z"/>
<path d="M3046 4018 c3 -5 10 -6 15 -3 13 9 11 12 -6 12 -8 0 -12 -4 -9 -9z"/>
<path d="M2356 4007 c3 -10 9 -15 12 -12 3 3 0 11 -7 18 -10 9 -11 8 -5 -6z"/>
<path d="M1974 3929 c-11 -12 -20 -16 -24 -9 -4 7 -13 4 -23 -8 -14 -15 -14
-19 -2 -19 8 0 12 4 9 9 -3 5 9 6 26 3 26 -5 30 -2 28 12 -2 13 3 18 20 17 12
-1 20 1 17 4 -13 13 -35 9 -51 -9z"/>
<path d="M1225 3211 c3 -2 -1 -11 -8 -19 -9 -11 -4 -11 16 2 32 22 32 22 7 22
-10 0 -17 -2 -15 -5z"/>
<path d="M1118 2921 c11 -7 10 -9 -3 -15 -9 -3 -14 -10 -10 -15 3 -5 1 -12 -5
-16 -10 -6 -9 -40 1 -50 3 -3 14 4 25 16 12 13 14 19 5 17 -7 -2 -16 3 -19 11
-3 10 0 11 9 5 11 -6 10 -3 -1 11 -14 17 -13 18 3 12 10 -4 21 -7 23 -7 3 0 3
-4 -1 -9 -3 -5 -1 -12 4 -16 13 -8 5 33 -10 51 -6 8 -17 14 -23 14 -7 0 -6 -4
2 -9z m-3 -70 c3 -5 2 -12 -3 -15 -5 -3 -9 1 -9 9 0 17 3 19 12 6z"/>
<path d="M2391 2442 c-13 -25 2 -38 19 -16 9 10 10 18 3 25 -8 8 -14 5 -22 -9z
m10 -15 c-10 -9 -11 -8 -5 6 3 10 9 15 12 12 3 -3 0 -11 -7 -18z"/>
<path d="M2453 2447 c-2 -4 -9 -5 -14 -2 -5 4 -9 1 -9 -5 0 -6 12 -8 29 -5 35
6 50 -9 24 -24 -10 -5 -15 -12 -12 -15 3 -3 14 2 25 12 10 10 31 17 45 17 15
-1 26 4 26 12 0 7 -4 13 -9 13 -4 0 -8 -6 -8 -12 0 -9 -3 -8 -10 2 -10 16 -78
22 -87 7z m77 -7 c0 -4 -7 -7 -15 -6 -23 3 -26 12 -5 13 11 1 20 -2 20 -7z"/>
<path d="M2607 2445 c3 -8 9 -12 14 -9 12 7 11 11 -5 17 -10 4 -13 1 -9 -8z"/>
<path d="M2674 2449 c-3 -5 0 -17 5 -26 7 -13 10 -14 11 -4 0 8 3 11 6 8 4 -3
16 -1 28 5 11 7 25 11 29 10 5 -1 6 2 2 8 -5 8 -11 8 -19 1 -7 -6 -16 -8 -20
-4 -11 11 -35 12 -42 2z"/>
<path d="M2773 2430 c1 -10 5 -16 11 -13 5 4 7 0 4 -9 -4 -8 -2 -21 4 -29 8
-11 9 -11 5 2 -3 9 -2 20 2 25 5 5 0 17 -10 26 -17 16 -18 16 -16 -2z"/>
<path d="M2156 1651 c-4 -5 -2 -12 3 -15 5 -4 12 -2 15 3 4 5 2 12 -3 15 -5 4
-12 2 -15 -3z"/>
<path d="M1642 3728 c-7 -7 -12 -8 -12 -4 0 5 -7 3 -15 -4 -8 -7 -12 -16 -9
-21 3 -5 1 -9 -4 -9 -5 0 -9 -7 -9 -16 0 -14 2 -14 14 2 7 10 13 14 13 8 0
-12 -11 -26 -34 -44 -18 -14 -19 -13 -13 4 7 17 6 17 -9 5 -10 -8 -20 -13 -23
-13 -3 1 -20 -11 -37 -26 -28 -24 -29 -28 -15 -39 9 -6 11 -9 4 -6 -12 6 -62
-40 -90 -82 -8 -13 -20 -20 -27 -16 -6 3 -8 3 -4 -2 4 -4 3 -13 -2 -20 -7 -8
-5 -12 5 -13 8 -1 22 -3 30 -4 20 -2 28 -28 10 -34 -8 -4 -12 -10 -9 -16 3 -5
12 -1 19 9 13 17 14 17 20 1 4 -10 12 -18 17 -18 6 0 6 6 -1 14 -10 12 -8 17
8 26 12 6 21 7 21 3 0 -4 5 -2 11 4 8 8 8 16 0 30 -10 16 -11 15 -5 -7 3 -14
3 -22 -1 -17 -5 4 -18 1 -31 -7 -21 -15 -34 -12 -34 6 0 5 5 6 10 3 6 -3 10
-1 10 5 0 6 5 8 13 4 9 -6 9 -4 -1 8 -9 11 -10 18 -2 23 5 3 10 0 10 -7 0 -8
4 -7 11 4 5 9 16 15 23 12 17 -7 30 12 19 29 -14 23 -11 35 13 46 28 12 32 4
7 -14 -19 -14 -10 -35 17 -35 13 0 17 -6 14 -22 -4 -21 -4 -21 5 -3 11 25 5
35 -20 35 -10 0 -19 5 -19 11 0 6 6 9 13 6 8 -3 14 4 15 19 1 13 -3 24 -9 24
-5 0 -7 5 -4 10 4 6 10 8 14 5 5 -2 17 2 27 10 25 19 34 19 34 0 0 -8 5 -15
11 -15 5 0 8 4 4 9 -3 6 3 14 13 20 15 8 23 45 12 59 -7 7 -5 28 2 38 12 17
-15 37 -30 22z m17 -24 c-6 -8 -8 -14 -3 -14 5 0 0 -8 -11 -17 -16 -12 -16
-14 -3 -10 10 3 20 2 23 -3 5 -9 -6 -14 -26 -12 -3 1 -6 -6 -6 -13 0 -11 4
-12 13 -4 7 6 14 6 18 1 7 -12 -19 -23 -38 -16 -8 3 -17 0 -21 -5 -3 -6 -11
-9 -16 -5 -18 11 -59 12 -52 1 4 -6 1 -7 -7 -2 -9 5 -11 4 -6 -3 5 -9 13 -9
26 -2 13 7 21 7 26 -2 4 -6 3 -8 -4 -4 -6 3 -14 1 -17 -5 -4 -5 -14 -8 -24 -5
-12 5 -11 2 3 -9 19 -14 12 -21 -16 -16 -8 1 -12 -15 -9 -31 1 -10 -12 -10
-24 0 -6 4 -9 5 -7 3 1 -2 -5 -12 -13 -21 -14 -15 -14 -18 -1 -23 10 -4 13 -1
10 7 -3 9 3 13 17 12 12 0 24 -7 27 -15 3 -9 0 -11 -7 -7 -7 4 -18 2 -26 -4
-8 -7 -15 -9 -15 -5 0 4 -6 2 -14 -4 -9 -7 -17 -8 -20 -2 -3 5 -1 11 6 13 8 3
9 6 1 11 -17 11 -24 -21 -8 -37 11 -11 12 -15 2 -19 -6 -2 -18 3 -25 12 -10
13 -11 14 -9 1 2 -8 2 -12 0 -7 -3 4 -10 4 -16 0 -14 -8 13 26 62 79 19 20 38
35 42 32 4 -2 10 0 13 5 4 5 1 13 -5 16 -18 12 41 66 60 56 10 -5 25 -2 41 8
29 19 35 37 19 57 -6 8 -9 15 -5 15 3 1 10 2 15 3 5 0 13 4 17 8 13 13 25 -3
13 -18z"/>
<path d="M1645 3710 c-4 -6 -11 -8 -16 -5 -16 10 -10 -2 9 -16 9 -7 14 -9 10
-5 -4 5 -3 15 3 23 6 7 9 13 6 13 -3 0 -9 -5 -12 -10z"/>
<path d="M1599 3623 c-13 -16 -12 -17 4 -4 9 7 17 15 17 17 0 8 -8 3 -21 -13z"/>
<path d="M1506 3591 c-3 -5 2 -15 12 -22 15 -12 16 -12 5 2 -7 9 -10 19 -6 22
3 4 4 7 0 7 -3 0 -8 -4 -11 -9z"/>
<path d="M1449 3513 c-13 -16 -12 -17 4 -4 9 7 17 15 17 17 0 8 -8 3 -21 -13z"/>
<path d="M1596 3574 c-11 -7 -18 -16 -15 -18 2 -2 13 2 23 10 11 7 18 16 15
18 -2 2 -13 -2 -23 -10z"/>
<path d="M1588 3533 c6 -2 9 -10 6 -15 -4 -7 -2 -8 4 -4 18 11 14 26 -5 25
-11 0 -13 -3 -5 -6z"/>
<path d="M1593 3465 c0 -8 10 -23 21 -32 21 -18 21 -18 4 2 -9 11 -17 24 -16
28 0 5 -2 11 -4 13 -3 2 -5 -3 -5 -11z"/>
<path d="M1520 3458 c-12 -8 -12 -9 2 -5 9 3 19 1 22 -6 3 -9 5 -9 5 0 1 18
-13 23 -29 11z"/>
<path d="M1632 3451 c7 -9 13 -18 15 -20 1 -2 1 5 0 16 0 11 -7 20 -14 20 -10
0 -10 -4 -1 -16z"/>
<path d="M1560 3446 c0 -2 8 -10 18 -17 15 -13 16 -12 3 4 -13 16 -21 21 -21
13z"/>
<path d="M1329 3403 c-12 -16 -12 -17 2 -6 9 7 20 9 24 5 5 -4 5 -1 1 6 -9 16
-11 15 -27 -5z"/>
<path d="M1510 3405 c-7 -9 -11 -17 -9 -20 3 -2 10 5 17 15 14 24 10 26 -8 5z"/>
<path d="M1535 3400 c-2 -3 5 -7 16 -7 10 -1 19 2 19 6 0 9 -29 10 -35 1z"/>
<path d="M1590 3396 c7 -7 13 -7 20 0 6 6 3 10 -10 10 -13 0 -16 -4 -10 -10z"/>
<path d="M1430 3365 c0 -8 4 -15 10 -15 5 0 7 7 4 15 -4 8 -8 15 -10 15 -2 0
-4 -7 -4 -15z"/>
<path d="M1495 3361 c-3 -5 -2 -12 3 -15 5 -3 9 1 9 9 0 17 -3 19 -12 6z"/>
<path d="M1399 3333 c-13 -16 -12 -17 4 -4 15 12 17 11 18 -10 1 -19 2 -20 6
-5 7 27 -11 40 -28 19z"/>
<path d="M1459 3348 c0 -2 -2 -13 -3 -24 -2 -19 0 -20 16 -10 16 9 16 12 3 14
-8 2 -13 8 -10 13 4 5 4 9 1 9 -3 0 -6 -1 -7 -2z"/>
<path d="M1265 3300 c-10 -11 -15 -20 -10 -20 4 0 1 -8 -6 -17 -13 -16 -12
-17 3 -4 10 7 15 17 13 22 -3 4 3 12 12 18 10 5 15 12 12 15 -3 4 -14 -3 -24
-14z"/>
<path d="M1480 3300 c-9 -6 -10 -10 -3 -10 6 0 15 5 18 10 8 12 4 12 -15 0z"/>
<path d="M1426 3278 c3 -4 9 -8 15 -8 5 0 9 4 9 8 0 5 -7 9 -15 9 -8 0 -12 -4
-9 -9z"/>
<path d="M1396 3262 c-3 -5 1 -9 9 -9 8 0 12 4 9 9 -3 4 -7 8 -9 8 -2 0 -6 -4
-9 -8z"/>
<path d="M1470 3259 c0 -5 5 -7 10 -4 6 3 10 8 10 11 0 2 -4 4 -10 4 -5 0 -10
-5 -10 -11z"/>
<path d="M1337 3223 c-4 -3 -7 -11 -7 -17 0 -6 5 -5 12 2 6 6 9 14 7 17 -3 3
-9 2 -12 -2z"/>
<path d="M1371 3193 c0 -11 3 -13 6 -5 2 6 10 9 15 6 7 -4 8 -2 4 4 -11 18
-26 14 -25 -5z"/>
<path d="M1340 3171 c0 -6 4 -13 10 -16 6 -3 7 1 4 9 -7 18 -14 21 -14 7z"/>
<path d="M1290 3160 c0 -5 5 -10 10 -10 6 0 10 5 10 10 0 6 -4 10 -10 10 -5 0
-10 -4 -10 -10z"/>
<path d="M1311 3124 c0 -11 3 -14 6 -6 3 7 2 16 -1 19 -3 4 -6 -2 -5 -13z"/>
<path d="M1376 3127 c3 -10 9 -15 12 -12 3 3 0 11 -7 18 -10 9 -11 8 -5 -6z"/>
<path d="M1292 3105 c4 -4 0 -14 -10 -21 -9 -7 -15 -14 -12 -17 3 -2 13 4 23
13 15 14 16 20 5 26 -7 4 -10 4 -6 -1z"/>
<path d="M1416 3102 c-3 -4 4 -9 15 -9 23 -2 25 3 4 10 -8 4 -16 3 -19 -1z"/>
<path d="M1331 3084 c0 -11 3 -14 6 -6 3 7 2 16 -1 19 -3 4 -6 -2 -5 -13z"/>
<path d="M1264 3038 c10 -6 22 -6 26 -2 5 5 -3 10 -18 11 -22 1 -24 0 -8 -9z"/>
<path d="M1206 2994 c-5 -14 -4 -15 9 -4 17 14 19 20 6 20 -5 0 -12 -7 -15
-16z"/>
<path d="M1240 2995 c-19 -22 -8 -25 13 -3 9 10 13 18 8 18 -5 0 -14 -7 -21
-15z"/>
<path d="M1246 2963 c-6 -14 -5 -15 5 -6 7 7 10 15 7 18 -3 3 -9 -2 -12 -12z"/>
<path d="M1195 2960 c-3 -5 -2 -10 4 -10 5 0 13 5 16 10 3 6 2 10 -4 10 -5 0
-13 -4 -16 -10z"/>
<path d="M1275 2962 c3 -3 -1 -12 -7 -21 -8 -10 -4 -9 10 3 26 23 26 23 7 23
-8 0 -13 -3 -10 -5z"/>
<path d="M1210 2932 c-8 -12 -13 -14 -16 -4 -3 6 -11 12 -17 12 -6 0 -3 -8 6
-17 17 -16 19 -17 30 -2 7 9 18 14 25 12 17 -6 15 4 -3 11 -8 3 -19 -3 -25
-12z"/>
<path d="M1211 2891 c-8 -14 -7 -20 2 -24 7 -3 12 5 12 19 0 29 -1 29 -14 5z"/>
<path d="M1186 2845 c-11 -8 -15 -15 -9 -15 6 0 16 7 23 15 16 19 11 19 -14 0z"/>
<path d="M1216 2833 c-6 -14 -5 -15 5 -6 7 7 10 15 7 18 -3 3 -9 -2 -12 -12z"/>
<path d="M1250 2819 c0 -5 5 -7 10 -4 6 3 10 8 10 11 0 2 -4 4 -10 4 -5 0 -10
-5 -10 -11z"/>
<path d="M1191 2813 c4 -21 -2 -34 -13 -27 -6 4 -8 3 -5 -4 8 -12 32 -10 44 3
5 4 2 5 -6 0 -11 -6 -13 -4 -8 8 3 9 2 19 -4 22 -5 4 -9 3 -8 -2z"/>
<path d="M1233 2795 c0 -8 4 -12 9 -9 5 3 6 10 3 15 -9 13 -12 11 -12 -6z"/>
<path d="M1150 2760 c-9 -6 -10 -10 -3 -10 6 0 15 5 18 10 8 12 4 12 -15 0z"/>
<path d="M1163 2735 c-3 -9 -3 -18 -1 -21 3 -3 8 4 11 16 6 23 -1 27 -10 5z"/>
<path d="M1168 2693 c-10 -2 -18 -9 -18 -15 0 -6 3 -8 7 -5 3 4 11 3 17 -3 8
-6 12 -3 12 11 0 10 0 18 -1 18 0 -1 -8 -3 -17 -6z"/>
<path d="M1514 2666 c-5 -14 -9 -15 -16 -4 -8 10 -9 9 -5 -3 3 -9 -1 -26 -9
-37 -10 -15 -11 -23 -3 -28 7 -4 9 -3 5 4 -3 6 0 14 8 19 8 4 15 12 15 18 0 5
4 11 9 13 6 2 9 -5 8 -14 -2 -10 -8 -20 -14 -22 -7 -2 -12 -8 -12 -14 0 -7 5
-6 14 1 10 9 15 8 20 -4 3 -10 0 -15 -11 -15 -9 0 -14 -3 -10 -6 3 -4 13 -4
22 0 13 5 14 10 5 27 -10 19 -9 20 8 15 11 -4 23 -2 27 4 3 5 11 10 17 10 6 0
6 -6 -2 -15 -7 -9 -10 -18 -6 -22 3 -3 6 -1 6 7 0 10 3 10 15 0 10 -9 15 -9
15 -1 0 6 -5 11 -12 11 -16 0 -1 13 18 16 9 2 19 -6 21 -17 8 -31 20 -22 19
14 -2 41 -14 61 -29 49 -7 -5 -29 -8 -49 -7 -42 3 -43 2 -28 -26 6 -11 7 -19
1 -19 -8 0 -23 24 -25 42 -2 17 -16 19 -22 4z m141 -28 c2 -20 1 -20 -12 -3
-7 11 -13 14 -13 8 0 -12 -18 -12 -37 0 -6 4 -13 2 -15 -5 -3 -8 -6 -6 -10 4
-7 17 7 19 30 5 7 -5 12 -3 12 3 0 6 4 9 9 5 5 -3 13 0 16 6 9 14 18 4 20 -23z"/>
<path d="M1405 2659 c-4 -6 -5 -12 -2 -15 2 -3 7 2 10 11 7 17 1 20 -8 4z"/>
<path d="M1464 2654 c4 -10 -3 -23 -16 -35 l-23 -20 27 16 c25 15 36 55 15 55
-5 0 -6 -7 -3 -16z"/>
<path d="M1434 2651 c4 -5 1 -12 -4 -14 -6 -3 -5 -4 2 -3 15 3 23 26 8 26 -6
0 -9 -4 -6 -9z"/>
<path d="M1166 2638 c3 -5 10 -6 15 -3 13 9 11 12 -6 12 -8 0 -12 -4 -9 -9z"/>
<path d="M1479 2578 c-6 -21 -5 -37 2 -32 5 3 7 9 4 14 -3 4 1 11 7 13 10 4
10 6 1 6 -7 1 -13 0 -14 -1z"/>
<path d="M1577 2573 c-4 -3 -7 -11 -7 -17 0 -7 3 -7 8 0 4 7 16 14 27 17 19 5
19 5 -1 6 -11 0 -24 -2 -27 -6z"/>
<path d="M1150 2562 c0 -5 7 -9 15 -9 8 0 12 4 9 9 -3 4 -9 8 -15 8 -5 0 -9
-4 -9 -8z"/>
<path d="M1190 2561 c0 -6 4 -13 10 -16 6 -3 7 1 4 9 -7 18 -14 21 -14 7z"/>
<path d="M1550 2543 c7 -3 8 -9 1 -17 -8 -9 -7 -13 3 -13 17 0 14 30 -3 33 -7
2 -7 0 -1 -3z"/>
<path d="M1626 2524 c-5 -14 -4 -15 9 -4 17 14 19 20 6 20 -5 0 -12 -7 -15
-16z"/>
<path d="M1150 2516 c7 -7 13 -7 20 0 6 6 3 10 -10 10 -13 0 -16 -4 -10 -10z"/>
<path d="M1656 2513 c-6 -14 -5 -15 5 -6 7 7 10 15 7 18 -3 3 -9 -2 -12 -12z"/>
<path d="M1595 2509 c-4 -6 -5 -12 -2 -15 2 -3 7 2 10 11 7 17 1 20 -8 4z"/>
<path d="M1616 2467 c3 -10 9 -15 12 -12 3 3 0 11 -7 18 -10 9 -11 8 -5 -6z"/>
<path d="M1149 2443 c-13 -16 -12 -17 4 -4 9 7 17 15 17 17 0 8 -8 3 -21 -13z"/>
<path d="M1110 2405 c0 -8 4 -15 10 -15 5 0 7 7 4 15 -4 8 -8 15 -10 15 -2 0
-4 -7 -4 -15z"/>
<path d="M2735 2400 c-3 -5 -1 -10 4 -10 6 0 11 5 11 10 0 6 -2 10 -4 10 -3 0
-8 -4 -11 -10z"/>
<path d="M2650 2391 c0 -6 -6 -10 -12 -8 -7 1 -14 -8 -16 -19 -2 -16 -8 -20
-21 -17 -23 6 -33 -8 -19 -27 8 -12 9 -11 4 3 -5 14 -1 18 17 15 16 -2 23 3
25 20 2 12 7 20 11 18 4 -3 13 -1 20 3 9 6 10 11 2 15 -6 4 -11 2 -11 -3z"/>
<path d="M1090 2381 c0 -5 7 -15 17 -22 15 -13 15 -12 4 9 -12 23 -21 28 -21
13z"/>
<path d="M4893 2369 c-2 -23 3 -25 10 -4 4 8 3 16 -1 19 -4 3 -9 -4 -9 -15z"/>
<path d="M1133 2363 c1 -17 4 -19 14 -11 15 12 18 22 4 14 -5 -4 -11 0 -14 6
-3 7 -4 3 -4 -9z"/>
<path d="M2465 2349 c-4 -6 -5 -12 -2 -15 2 -3 7 2 10 11 7 17 1 20 -8 4z"/>
<path d="M2550 2349 c0 -5 5 -7 10 -4 6 3 10 8 10 11 0 2 -4 4 -10 4 -5 0 -10
-5 -10 -11z"/>
<path d="M1170 2341 c0 -6 4 -13 10 -16 6 -3 7 1 4 9 -7 18 -14 21 -14 7z"/>
<path d="M2670 2340 c0 -5 6 -7 14 -4 11 4 13 -1 10 -18 -4 -21 -3 -21 5 -3 4
11 7 23 4 28 -6 10 -33 9 -33 -3z"/>
<path d="M2441 2333 c0 -6 -4 -20 -7 -30 -5 -14 -4 -15 5 -7 7 7 11 20 8 30
-3 11 -5 14 -6 7z"/>
<path d="M1126 2317 c3 -10 9 -15 12 -12 3 3 0 11 -7 18 -10 9 -11 8 -5 -6z"/>
<path d="M2500 2320 c-9 -6 -10 -10 -3 -10 6 0 15 5 18 10 8 12 4 12 -15 0z"/>
<path d="M4870 2321 c0 -6 4 -13 10 -16 6 -3 7 1 4 9 -7 18 -14 21 -14 7z"/>
<path d="M2470 2311 c0 -6 4 -13 10 -16 6 -3 7 1 4 9 -7 18 -14 21 -14 7z"/>
<path d="M2714 2300 c0 -13 4 -16 10 -10 7 7 7 13 0 20 -6 6 -10 3 -10 -10z"/>
<path d="M2548 2303 c7 -3 16 -2 19 1 4 3 -2 6 -13 5 -11 0 -14 -3 -6 -6z"/>
<path d="M1150 2296 c0 -2 8 -10 18 -17 15 -13 16 -12 3 4 -13 16 -21 21 -21
13z"/>
<path d="M2575 2290 c-4 -6 -10 -8 -15 -5 -4 3 -14 -3 -21 -13 -12 -15 -12
-16 2 -5 9 7 18 11 21 8 3 -3 11 1 18 10 7 8 10 15 7 15 -3 0 -9 -5 -12 -10z"/>
<path d="M2625 2280 c10 -11 20 -20 23 -20 3 0 -3 9 -13 20 -10 11 -20 20 -23
20 -3 0 3 -9 13 -20z"/>
<path d="M2450 2280 c0 -5 5 -10 10 -10 6 0 10 5 10 10 0 6 -4 10 -10 10 -5 0
-10 -4 -10 -10z"/>
<path d="M2740 2275 c-19 -22 -8 -25 13 -3 9 10 13 18 8 18 -5 0 -14 -7 -21
-15z"/>
<path d="M2480 2276 c0 -2 7 -7 16 -10 8 -3 12 -2 9 4 -6 10 -25 14 -25 6z"/>
<path d="M2474 2245 c1 -8 6 -18 11 -22 4 -4 5 -3 2 4 -4 6 -2 13 5 15 8 3 6
6 -4 10 -10 4 -15 2 -14 -7z"/>
<path d="M2756 2247 c3 -10 9 -15 12 -12 3 3 0 11 -7 18 -10 9 -11 8 -5 -6z"/>
<path d="M2420 2210 c-11 -11 -22 -20 -25 -20 -3 0 -9 0 -13 0 -5 0 -8 -13 -8
-29 0 -21 6 -32 23 -40 14 -7 23 -7 23 -1 0 6 -7 10 -15 10 -8 0 -15 5 -15 11
0 5 3 8 8 6 4 -3 21 6 37 19 l30 25 -27 -12 c-16 -7 -28 -15 -28 -19 0 -4 -7
-7 -15 -7 -22 0 -18 12 10 27 13 7 22 17 18 23 -3 5 3 6 15 3 11 -4 23 -2 27
3 4 7 -1 8 -11 4 -12 -4 -15 -3 -10 5 11 19 -2 14 -24 -8z"/>
<path d="M2510 2219 c0 -5 5 -7 10 -4 6 3 10 8 10 11 0 2 -4 4 -10 4 -5 0 -10
-5 -10 -11z"/>
<path d="M2573 2215 c0 -8 4 -12 9 -9 5 3 6 10 3 15 -9 13 -12 11 -12 -6z"/>
<path d="M2695 2221 c-3 -5 -2 -12 3 -15 5 -3 9 1 9 9 0 17 -3 19 -12 6z"/>
<path d="M1146 2176 c6 -15 4 -17 -6 -11 -9 6 -11 4 -5 -4 5 -9 10 -10 18 -2
8 8 7 14 -2 24 -10 10 -11 8 -5 -7z"/>
<path d="M4850 2180 c0 -5 5 -10 11 -10 5 0 7 5 4 10 -3 6 -8 10 -11 10 -2 0
-4 -4 -4 -10z"/>
<path d="M1113 2146 c0 -26 20 -36 32 -16 4 6 -1 7 -11 3 -10 -4 -15 -2 -11 3
3 6 2 16 -2 23 -6 9 -8 4 -8 -13z"/>
<path d="M1186 2158 c3 -5 10 -6 15 -3 13 9 11 12 -6 12 -8 0 -12 -4 -9 -9z"/>
<path d="M2430 2140 c0 -5 5 -10 10 -10 6 0 10 5 10 10 0 6 -4 10 -10 10 -5 0
-10 -4 -10 -10z"/>
<path d="M2486 2138 c3 -5 10 -6 15 -3 13 9 11 12 -6 12 -8 0 -12 -4 -9 -9z"/>
<path d="M1094 2100 c0 -13 4 -16 10 -10 7 7 7 13 0 20 -6 6 -10 3 -10 -10z"/>
<path d="M2430 2110 c0 -5 5 -10 11 -10 5 0 7 5 4 10 -3 6 -8 10 -11 10 -2 0
-4 -4 -4 -10z"/>
<path d="M1138 2098 c5 -5 16 -8 23 -6 8 3 3 7 -10 11 -17 4 -21 3 -13 -5z"/>
<path d="M2390 2100 c0 -6 -4 -9 -8 -6 -4 2 -8 -4 -8 -14 0 -10 4 -16 8 -14
14 9 9 -9 -8 -27 -12 -13 -12 -19 -3 -25 8 -5 10 -3 4 6 -6 10 -4 12 8 7 11
-4 14 -2 11 8 -6 14 12 15 34 2 6 -5 12 -5 12 0 0 4 5 1 11 -7 9 -13 10 -13 6
0 -2 8 -9 15 -15 15 -7 0 -12 5 -11 10 0 6 8 8 17 7 19 -4 19 -4 -25 27 -18
12 -33 17 -33 11z m28 -19 c10 -6 10 -10 -3 -21 -8 -7 -15 -10 -15 -7 0 3 -3
12 -6 21 -7 17 3 20 24 7z"/>
<path d="M2490 2099 c0 -5 5 -7 10 -4 6 3 10 8 10 11 0 2 -4 4 -10 4 -5 0 -10
-5 -10 -11z"/>
<path d="M4833 2085 c0 -8 4 -15 9 -15 4 0 8 4 8 9 0 6 -4 12 -8 15 -5 3 -9
-1 -9 -9z"/>
<path d="M1109 2072 c-11 -14 -11 -15 0 -5 7 6 20 9 27 6 8 -3 14 -3 14 0 0
14 -30 14 -41 -1z"/>
<path d="M2473 2075 c0 -8 4 -12 9 -9 5 3 6 10 3 15 -9 13 -12 11 -12 -6z"/>
<path d="M1153 2055 c-3 -9 -3 -18 -1 -21 3 -3 8 4 11 16 6 23 -1 27 -10 5z"/>
<path d="M1116 2019 c3 -5 9 -7 14 -4 5 3 11 -3 14 -12 4 -15 5 -15 3 1 -1 11
-10 20 -20 22 -9 1 -15 -2 -11 -7z"/>
<path d="M2410 2023 c0 -4 5 -15 10 -23 8 -13 10 -13 10 2 0 9 -4 20 -10 23
-5 3 -10 3 -10 -2z"/>
<path d="M2379 1992 c-13 -15 -12 -16 3 -4 15 12 17 11 15 -6 0 -11 -6 -18
-12 -15 -7 2 -12 -2 -12 -10 0 -9 7 -12 17 -10 11 3 18 14 18 29 0 32 -12 38
-29 16z"/>
<path d="M4815 1991 c-3 -5 -2 -12 3 -15 5 -3 9 1 9 9 0 17 -3 19 -12 6z"/>
<path d="M1155 1980 c-16 -7 -17 -9 -3 -9 9 -1 20 4 23 9 7 11 7 11 -20 0z"/>
<path d="M2435 1980 c-16 -7 -17 -9 -3 -9 9 -1 20 4 23 9 7 11 7 11 -20 0z"/>
<path d="M4774 1960 c0 -13 4 -16 10 -10 7 7 7 13 0 20 -6 6 -10 3 -10 -10z"/>
<path d="M2473 1955 c0 -8 4 -12 9 -9 5 3 6 10 3 15 -9 13 -12 11 -12 -6z"/>
<path d="M1155 1939 c-4 -6 -4 -13 -1 -16 3 -4 6 -1 6 6 0 7 5 9 12 5 7 -4 8
-3 4 4 -9 15 -13 15 -21 1z"/>
<path d="M2420 1946 c0 -2 7 -6 15 -10 8 -3 15 -1 15 4 0 6 -7 10 -15 10 -8 0
-15 -2 -15 -4z"/>
<path d="M2389 1933 c-1 -5 -1 -12 0 -17 1 -5 -6 -5 -16 -2 -9 4 -14 4 -10 -1
5 -4 23 -8 40 -9 18 -1 26 1 20 3 -7 3 -13 11 -13 19 0 14 -19 20 -21 7z"/>
<path d="M1180 1920 c-9 -6 -10 -10 -3 -10 6 0 15 5 18 10 8 12 4 12 -15 0z"/>
<path d="M2456 1907 c3 -10 9 -15 12 -12 3 3 0 11 -7 18 -10 9 -11 8 -5 -6z"/>
<path d="M2430 1890 c-8 -5 -12 -12 -9 -15 4 -3 12 1 19 10 14 17 11 19 -10 5z"/>
<path d="M4728 1893 c-21 -5 -23 -19 -5 -29 6 -4 9 -4 5 1 -4 4 0 14 10 21 18
14 17 14 -10 7z"/>
<path d="M2380 1873 c-13 -15 -12 -16 4 -10 10 4 20 7 22 7 2 0 4 5 4 10 0 15
-13 12 -30 -7z"/>
<path d="M1190 1865 c0 -7 30 -13 34 -7 3 4 -4 9 -15 9 -10 1 -19 0 -19 -2z"/>
<path d="M2467 1859 c7 -7 15 -10 18 -7 3 3 -2 9 -12 12 -14 6 -15 5 -6 -5z"/>
<path d="M2410 1846 c0 -8 -5 -18 -12 -22 -7 -5 -9 -2 -6 8 4 8 1 15 -6 15 -7
0 -13 -6 -13 -14 0 -7 4 -13 8 -13 5 0 6 -7 3 -15 -4 -8 -11 -12 -18 -9 -6 3
-2 -3 10 -13 11 -10 19 -28 19 -40 -2 -24 20 -21 29 4 6 14 4 14 -10 2 -13
-11 -15 -11 -13 2 1 7 -1 22 -6 33 -4 10 -4 21 2 25 17 10 35 51 23 51 -5 0
-10 -6 -10 -14z"/>
<path d="M2453 1835 c0 -8 4 -12 9 -9 5 3 6 10 3 15 -9 13 -12 11 -12 -6z"/>
<path d="M4693 1835 c0 -8 4 -12 9 -9 4 3 8 9 8 15 0 5 -4 9 -8 9 -5 0 -9 -7
-9 -15z"/>
<path d="M1216 1813 c-6 -14 -5 -15 5 -6 7 7 10 15 7 18 -3 3 -9 -2 -12 -12z"/>
<path d="M4720 1815 c-11 -13 -11 -18 0 -28 10 -9 11 -9 6 1 -4 7 -2 19 4 27
7 8 10 15 7 15 -2 0 -10 -7 -17 -15z"/>
<path d="M4775 1821 c-3 -5 -2 -12 3 -15 5 -3 9 1 9 9 0 17 -3 19 -12 6z"/>
<path d="M2400 1796 c0 -2 7 -9 15 -16 9 -7 15 -8 15 -2 0 5 -7 12 -15 16 -8
3 -15 4 -15 2z"/>
<path d="M4650 1786 c0 -2 7 -7 16 -10 8 -3 12 -2 9 4 -6 10 -25 14 -25 6z"/>
<path d="M1236 1767 c3 -10 9 -15 12 -12 3 3 0 11 -7 18 -10 9 -11 8 -5 -6z"/>
<path d="M4693 1765 c0 -8 4 -12 9 -9 5 3 6 10 3 15 -9 13 -12 11 -12 -6z"/>
<path d="M2476 1762 c-3 -5 1 -9 9 -9 8 0 12 4 9 9 -3 4 -7 8 -9 8 -2 0 -6 -4
-9 -8z"/>
<path d="M2436 1734 c-3 -9 -2 -22 2 -31 6 -10 9 -5 9 16 0 35 -2 38 -11 15z"/>
<path d="M2515 1720 c3 -5 8 -10 11 -10 2 0 4 5 4 10 0 6 -5 10 -11 10 -5 0
-7 -4 -4 -10z"/>
<path d="M4610 1720 c0 -5 9 -8 20 -7 21 1 18 10 -5 13 -8 1 -15 -2 -15 -6z"/>
<path d="M4690 1699 c0 -5 5 -7 10 -4 6 3 10 8 10 11 0 2 -4 4 -10 4 -5 0 -10
-5 -10 -11z"/>
<path d="M4659 1698 c-5 -9 -5 -48 -1 -43 6 6 11 45 5 45 -2 0 -4 -1 -4 -2z"/>
<path d="M4585 1680 c3 -5 8 -10 11 -10 2 0 4 5 4 10 0 6 -5 10 -11 10 -5 0
-7 -4 -4 -10z"/>
<path d="M1282 1664 c10 -10 20 -16 22 -13 3 3 -5 11 -17 18 -21 13 -21 12 -5
-5z"/>
<path d="M1857 1659 c7 -7 15 -10 18 -7 3 3 -2 9 -12 12 -14 6 -15 5 -6 -5z"/>
<path d="M4696 1658 c3 -5 10 -6 15 -3 13 9 11 12 -6 12 -8 0 -12 -4 -9 -9z"/>
<path d="M1895 1651 c3 -5 -4 -13 -16 -16 -11 -4 -18 -9 -16 -12 8 -7 47 16
47 27 0 6 -5 10 -11 10 -5 0 -8 -4 -4 -9z"/>
<path d="M2456 1647 c3 -10 9 -15 12 -12 3 3 0 11 -7 18 -10 9 -11 8 -5 -6z"/>
<path d="M1931 1628 c6 -10 14 -16 20 -13 16 11 10 -7 -8 -22 -16 -13 -16 -13
5 -3 23 11 25 37 3 33 -15 -4 -14 14 2 20 6 3 2 4 -10 4 -18 -1 -20 -4 -12
-19z"/>
<path d="M4550 1646 c0 -2 9 -6 20 -9 11 -3 18 -1 14 4 -5 9 -34 13 -34 5z"/>
<path d="M2390 1631 c0 -7 -5 -9 -12 -5 -7 5 -8 3 -3 -5 5 -9 10 -10 18 -2 6
6 8 14 4 18 -4 3 -7 1 -7 -6z"/>
<path d="M2431 1627 c-8 -10 -7 -14 2 -14 8 0 14 6 14 14 0 7 -1 13 -2 13 -2
0 -8 -6 -14 -13z"/>
<path d="M4653 1625 c0 -8 4 -12 9 -9 5 3 6 10 3 15 -9 13 -12 11 -12 -6z"/>
<path d="M1910 1621 c0 -6 4 -13 10 -16 6 -3 7 1 4 9 -7 18 -14 21 -14 7z"/>
<path d="M2100 1620 c0 -5 7 -7 15 -4 8 4 15 8 15 10 0 2 -7 4 -15 4 -8 0 -15
-4 -15 -10z"/>
<path d="M2295 1620 c3 -5 16 -10 28 -9 21 0 21 1 2 9 -28 12 -37 12 -30 0z"/>
<path d="M2080 1611 c0 -10 19 -25 25 -20 1 2 -3 10 -11 17 -8 7 -14 8 -14 3z"/>
<path d="M2200 1611 c0 -6 4 -13 10 -16 6 -3 7 1 4 9 -7 18 -14 21 -14 7z"/>
<path d="M1850 1605 c0 -5 5 -17 10 -25 5 -8 10 -10 10 -5 0 6 -5 17 -10 25
-5 8 -10 11 -10 5z"/>
<path d="M2000 1600 c0 -6 4 -9 9 -6 5 4 12 1 14 -4 3 -6 4 -5 3 2 -3 15 -26
23 -26 8z"/>
<path d="M2272 1598 c2 -6 10 -13 16 -14 7 -1 8 0 2 3 -5 2 -8 9 -4 14 3 5 0
9 -6 9 -7 0 -10 -5 -8 -12z"/>
<path d="M2350 1600 c0 -5 5 -10 10 -10 6 0 10 5 10 10 0 6 -4 10 -10 10 -5 0
-10 -4 -10 -10z"/>
<path d="M2227 1587 c-3 -7 5 -12 19 -12 29 0 29 1 5 14 -14 8 -20 7 -24 -2z"/>
<path d="M1887 1579 c7 -7 15 -10 18 -7 3 3 -2 9 -12 12 -14 6 -15 5 -6 -5z"/>
<path d="M2073 1575 c0 -8 4 -12 9 -9 5 3 6 10 3 15 -9 13 -12 11 -12 -6z"/>
<path d="M2135 1581 c6 -10 2 -12 -16 -7 -13 3 -18 3 -11 0 6 -3 9 -11 5 -17
-3 -7 -3 -9 2 -5 4 4 13 3 20 -2 8 -7 11 -4 10 10 -1 11 -5 23 -10 27 -4 5 -5
2 0 -6z"/>
<path d="M2190 1581 c0 -6 4 -13 10 -16 6 -3 7 1 4 9 -7 18 -14 21 -14 7z"/>
<path d="M2324 1579 c-3 -6 1 -17 10 -25 9 -8 11 -9 6 -2 -14 16 -13 31 2 22
7 -4 8 -3 4 4 -9 15 -13 15 -22 1z"/>
<path d="M2386 1577 c3 -10 9 -15 12 -12 3 3 0 11 -7 18 -10 9 -11 8 -5 -6z"/>
<path d="M1995 1569 c-4 -6 -5 -12 -2 -15 2 -3 7 2 10 11 7 17 1 20 -8 4z"/>
<path d="M2415 1569 c-4 -6 -5 -12 -2 -15 2 -3 7 2 10 11 7 17 1 20 -8 4z"/>
<path d="M2033 1551 c0 -11 5 -18 9 -15 4 3 5 11 1 19 -7 21 -12 19 -10 -4z"/>
<path d="M2240 1566 c0 -2 8 -10 18 -17 15 -13 16 -12 3 4 -13 16 -21 21 -21
13z"/>
<path d="M2285 1560 c-3 -6 1 -7 9 -4 18 7 21 14 7 14 -6 0 -13 -4 -16 -10z"/>
<path d="M4490 1566 c0 -2 7 -7 16 -10 8 -3 12 -2 9 4 -6 10 -25 14 -25 6z"/>
<path d="M2190 1536 c7 -7 13 -7 20 0 6 6 3 10 -10 10 -13 0 -16 -4 -10 -10z"/>
<path d="M2456 1542 c-3 -5 1 -9 9 -9 8 0 12 4 9 9 -3 4 -7 8 -9 8 -2 0 -6 -4
-9 -8z"/>
<path d="M4468 1543 c7 -3 16 -2 19 1 4 3 -2 6 -13 5 -11 0 -14 -3 -6 -6z"/>
<path d="M4490 1530 c-9 -6 -10 -10 -3 -10 6 0 15 5 18 10 8 12 4 12 -15 0z"/>
<path d="M2240 1520 c-9 -6 -10 -10 -3 -10 6 0 15 5 18 10 8 12 4 12 -15 0z"/>
<path d="M4445 1520 c-3 -6 1 -7 9 -4 18 7 21 14 7 14 -6 0 -13 -4 -16 -10z"/>
<path d="M4530 1521 c0 -6 4 -13 10 -16 6 -3 7 1 4 9 -7 18 -14 21 -14 7z"/>
<path d="M2373 1505 c0 -8 4 -12 9 -9 5 3 6 10 3 15 -9 13 -12 11 -12 -6z"/>
<path d="M2080 1500 c-12 -7 -10 -9 7 -7 12 0 19 5 17 9 -6 10 -6 10 -24 -2z"/>
<path d="M2166 1498 c3 -5 10 -6 15 -3 13 9 11 12 -6 12 -8 0 -12 -4 -9 -9z"/>
<path d="M2290 1499 c0 -5 5 -7 10 -4 6 3 10 8 10 11 0 2 -4 4 -10 4 -5 0 -10
-5 -10 -11z"/>
<path d="M4470 1502 c0 -5 7 -9 15 -9 8 0 12 4 9 9 -3 4 -9 8 -15 8 -5 0 -9
-4 -9 -8z"/>
<path d="M4450 1486 c0 -8 4 -17 9 -20 5 -4 7 3 4 14 -6 23 -13 26 -13 6z"/>
<path d="M4400 1469 c0 -6 -7 -8 -16 -5 -8 3 -12 2 -9 -3 9 -15 44 -9 38 6 -6
16 -13 17 -13 2z"/>
<path d="M4486 1438 c3 -5 10 -6 15 -3 13 9 11 12 -6 12 -8 0 -12 -4 -9 -9z"/>
<path d="M4373 1417 c-3 -6 -1 -7 5 -3 16 10 15 -6 0 -24 -11 -12 -10 -12 5
-1 14 11 20 11 35 0 16 -13 16 -13 -1 7 -9 11 -15 23 -12 26 3 2 -2 5 -10 5
-9 0 -19 -5 -22 -10z"/>
<path d="M4428 1423 c7 -3 16 -2 19 1 4 3 -2 6 -13 5 -11 0 -14 -3 -6 -6z"/>
<path d="M4310 1410 c-13 -8 -12 -10 3 -10 9 0 17 5 17 10 0 12 -1 12 -20 0z"/>
<path d="M4351 1404 c0 -11 3 -14 6 -6 3 7 2 16 -1 19 -3 4 -6 -2 -5 -13z"/>
<path d="M4354 1371 c4 -6 3 -18 -3 -25 -8 -9 -7 -13 2 -13 16 0 20 34 5 43
-7 4 -8 2 -4 -5z"/>
<path d="M4250 1360 c0 -5 5 -10 10 -10 6 0 10 5 10 10 0 6 -4 10 -10 10 -5 0
-10 -4 -10 -10z"/>
<path d="M4310 1358 c0 -4 4 -8 9 -8 6 0 12 4 15 8 3 5 -1 9 -9 9 -8 0 -15 -4
-15 -9z"/>
<path d="M3053 1345 c0 -8 4 -12 9 -9 5 3 6 10 3 15 -9 13 -12 11 -12 -6z"/>
<path d="M4270 1331 c0 -6 4 -12 8 -15 5 -3 9 1 9 9 0 8 -4 15 -9 15 -4 0 -8
-4 -8 -9z"/>
<path d="M4170 1321 c0 -7 -4 -9 -10 -6 -6 4 -7 -1 -3 -11 6 -15 7 -15 15 1 6
9 7 19 4 22 -3 4 -6 1 -6 -6z"/>
<path d="M4133 1286 c-9 -11 -9 -15 0 -19 7 -3 14 3 14 14 2 22 2 22 -14 5z"/>
<path d="M4201 1284 c0 -11 3 -14 6 -6 3 7 2 16 -1 19 -3 4 -6 -2 -5 -13z"/>
<path d="M3153 1274 c0 -9 4 -11 12 -4 7 5 14 9 16 7 2 -1 3 0 1 2 -7 11 -29
7 -29 -5z"/>
<path d="M4094 1274 c5 -12 2 -15 -9 -10 -9 3 -13 2 -10 -4 3 -6 1 -10 -6 -10
-7 0 -10 -3 -6 -6 9 -9 40 12 43 30 1 9 -2 16 -8 16 -6 0 -7 -7 -4 -16z"/>
<path d="M4231 1267 c-8 -10 -7 -14 2 -14 8 0 14 6 14 14 0 7 -1 13 -2 13 -2
0 -8 -6 -14 -13z"/>
<path d="M4156 1254 c-8 -20 -8 -24 2 -24 4 0 8 9 9 20 2 24 -3 26 -11 4z"/>
<path d="M4114 1249 c-3 -6 2 -18 12 -27 17 -16 17 -16 5 0 -7 9 -10 22 -6 28
3 5 4 10 1 10 -3 0 -8 -5 -12 -11z"/>
<path d="M3258 1238 c6 -6 18 -8 28 -6 14 3 12 5 -9 10 -19 3 -25 2 -19 -4z"/>
<path d="M3977 1239 c-9 -6 -17 -7 -17 -3 0 3 -7 1 -15 -6 -8 -7 -15 -20 -14
-29 0 -12 2 -11 9 4 5 11 9 17 9 12 1 -4 13 1 28 10 26 17 27 17 20 0 -4 -10
-7 -21 -7 -23 0 -3 -5 -2 -12 2 -7 5 -8 3 -3 -6 6 -10 11 -9 22 5 23 32 11 51
-20 34z"/>
<path d="M4315 1240 c3 -5 8 -10 11 -10 2 0 4 5 4 10 0 6 -5 10 -11 10 -5 0
-7 -4 -4 -10z"/>
<path d="M3233 1225 c0 -8 4 -15 9 -15 4 0 8 4 8 9 0 6 -4 12 -8 15 -5 3 -9
-1 -9 -9z"/>
<path d="M3915 1229 c-4 -6 -5 -12 -2 -15 2 -3 7 2 10 11 7 17 1 20 -8 4z"/>
<path d="M4190 1218 c0 -4 4 -8 9 -8 6 0 12 4 15 8 3 5 -1 9 -9 9 -8 0 -15 -4
-15 -9z"/>
<path d="M3301 1212 c-1 -7 -5 -11 -10 -7 -5 3 -13 0 -17 -6 -4 -7 -3 -9 4 -5
5 3 13 0 15 -6 4 -10 6 -10 6 0 1 7 5 11 10 7 5 -3 13 0 17 6 4 7 3 9 -4 5 -5
-3 -13 0 -15 6 -4 10 -6 10 -6 0z"/>
<path d="M3426 1201 c-3 -4 -1 -13 3 -20 6 -10 10 -9 14 3 4 10 13 13 24 9 10
-3 15 -3 12 1 -9 10 -48 16 -53 7z"/>
<path d="M3857 1193 c6 -16 5 -16 -10 -4 -9 7 -17 9 -17 3 0 -12 26 -23 34
-15 10 10 7 33 -4 33 -5 0 -6 -8 -3 -17z"/>
<path d="M3890 1200 c8 -5 20 -10 25 -10 6 0 3 5 -5 10 -8 5 -19 10 -25 10 -5
0 -3 -5 5 -10z"/>
<path d="M4010 1202 c0 -5 7 -9 15 -9 8 0 12 4 9 9 -3 4 -9 8 -15 8 -5 0 -9
-4 -9 -8z"/>
<path d="M4050 1202 c0 -4 10 -9 22 -9 18 -2 20 0 8 7 -18 12 -30 13 -30 2z"/>
<path d="M3510 1190 c0 -5 5 -12 10 -15 6 -4 8 -11 5 -16 -9 -13 -25 -11 -22
3 1 6 -7 13 -18 15 -18 3 -18 2 -2 -5 10 -4 19 -12 20 -17 1 -6 8 -9 15 -9 6
1 12 -2 12 -7 0 -5 5 -9 11 -9 8 0 8 5 -1 15 -14 17 0 21 17 4 8 -8 15 -4 27
13 16 21 18 22 27 6 5 -10 14 -18 20 -18 5 0 0 10 -11 22 l-21 23 -18 -23 -17
-23 -27 25 c-15 14 -27 21 -27 16z"/>
<path d="M3561 1191 c-8 -5 -9 -11 -3 -15 5 -3 12 1 16 9 6 17 6 18 -13 6z"/>
<path d="M3695 1180 c3 -5 14 -10 23 -10 15 0 15 2 2 10 -20 13 -33 13 -25 0z"/>
<path d="M3879 1180 c-3 -20 -4 -25 -12 -37 -5 -9 -3 -11 6 -7 8 3 15 16 15
30 0 23 -7 34 -9 14z"/>
<path d="M3950 1180 c0 -5 5 -10 10 -10 6 0 10 5 10 10 0 6 -4 10 -10 10 -5 0
-10 -4 -10 -10z"/>
<path d="M3450 1173 c0 -7 5 -15 10 -18 6 -4 7 -12 4 -18 -4 -7 -3 -8 1 -4 5
4 14 -2 20 -14 11 -20 12 -20 19 -3 4 10 4 15 0 11 -4 -4 -18 8 -31 25 -12 18
-23 27 -23 21z"/>
<path d="M3638 1173 c7 -3 16 -2 19 1 4 3 -2 6 -13 5 -11 0 -14 -3 -6 -6z"/>
<path d="M3741 1174 c-1 -6 5 -17 12 -23 10 -8 14 -7 14 4 0 8 -4 12 -8 9 -4
-2 -10 2 -12 8 -4 8 -6 9 -6 2z"/>
<path d="M3662 1162 c-8 -6 -2 -9 18 -9 20 0 26 3 18 9 -7 4 -15 8 -18 8 -3 0
-11 -4 -18 -8z"/>
<path d="M3795 1160 c-16 -7 -17 -9 -3 -9 9 -1 20 4 23 9 7 11 7 11 -20 0z"/>
<path d="M3904 1151 c0 -10 5 -18 11 -18 7 0 12 6 12 13 0 7 -5 15 -12 17 -6
3 -11 -3 -11 -12z"/>
<path d="M3387 1129 c4 -13 8 -18 11 -10 2 7 -1 18 -6 23 -8 8 -9 4 -5 -13z"/>
<path d="M3434 1126 c0 -14 6 -22 14 -19 9 4 9 9 2 18 -5 6 -7 15 -3 18 3 4 2
7 -4 7 -6 0 -10 -11 -9 -24z"/>
<path d="M3590 1140 c0 -5 5 -10 10 -10 6 0 10 5 10 10 0 6 -4 10 -10 10 -5 0
-10 -4 -10 -10z"/>
<path d="M3717 1143 c-7 -7 11 -33 23 -33 3 0 7 6 7 14 0 8 -6 12 -15 8 -10
-3 -13 -1 -8 6 8 13 3 16 -7 5z"/>
<path d="M3827 1135 c3 -8 9 -12 14 -9 12 7 11 11 -5 17 -10 4 -13 1 -9 -8z"/>
<path d="M3630 1130 c-9 -6 -10 -10 -3 -10 6 0 15 5 18 10 8 12 4 12 -15 0z"/>
<path d="M3666 1124 c-5 -14 -4 -15 9 -4 17 14 19 20 6 20 -5 0 -12 -7 -15
-16z"/>
<path d="M3556 1114 c-5 -14 -4 -15 9 -4 17 14 19 20 6 20 -5 0 -12 -7 -15
-16z"/>
<path d="M4026 1122 c-3 -5 1 -9 9 -9 8 0 12 4 9 9 -3 4 -7 8 -9 8 -2 0 -6 -4
-9 -8z"/>
<path d="M3515 1111 c-3 -5 0 -13 6 -17 7 -4 9 -3 5 4 -3 5 0 13 6 15 9 4 10
6 1 6 -6 1 -14 -3 -18 -8z"/>
<path d="M3700 1106 c0 -2 8 -10 18 -17 15 -13 16 -12 3 4 -13 16 -21 21 -21
13z"/>
<path d="M3646 1091 c-17 -6 -17 -8 -4 -14 10 -3 19 0 22 9 3 8 4 14 3 13 -1
0 -11 -4 -21 -8z"/>
<path d="M3813 1065 c0 -8 4 -12 9 -9 5 3 6 10 3 15 -9 13 -12 11 -12 -6z"/>
<path d="M3296 1061 c-3 -5 2 -15 12 -22 15 -12 16 -12 5 2 -7 9 -10 19 -6 22
3 4 4 7 0 7 -3 0 -8 -4 -11 -9z"/>
<path d="M3615 1060 c-3 -6 1 -7 9 -4 18 7 21 14 7 14 -6 0 -13 -4 -16 -10z"/>
<path d="M3846 1058 c3 -5 10 -6 15 -3 13 9 11 12 -6 12 -8 0 -12 -4 -9 -9z"/>
<path d="M3955 1040 c3 -5 8 -10 11 -10 2 0 4 5 4 10 0 6 -5 10 -11 10 -5 0
-7 -4 -4 -10z"/>
<path d="M3646 898 c3 -5 10 -6 15 -3 13 9 11 12 -6 12 -8 0 -12 -4 -9 -9z"/>
<path d="M3669 823 c-13 -16 -12 -17 4 -4 9 7 17 15 17 17 0 8 -8 3 -21 -13z"/>
<path d="M3646 682 l-19 -27 24 22 c12 12 21 24 18 27 -2 2 -13 -8 -23 -22z"/>
<path d="M3656 647 c3 -10 9 -15 12 -12 3 3 0 11 -7 18 -10 9 -11 8 -5 -6z"/>
<path d="M3634 569 c3 -17 33 -20 33 -3 0 10 -4 11 -13 3 -8 -7 -14 -6 -17 1
-3 6 -5 6 -3 -1z"/>
<path d="M3631 484 c0 -11 3 -14 6 -6 3 7 2 16 -1 19 -3 4 -6 -2 -5 -13z"/>
<path d="M3640 440 c-12 -7 -10 -9 7 -7 12 0 19 5 17 9 -6 10 -6 10 -24 -2z"/>
<path d="M3653 395 c0 -8 4 -12 9 -9 4 3 8 9 8 15 0 5 -4 9 -8 9 -5 0 -9 -7
-9 -15z"/>
<path d="M3695 400 c3 -5 8 -10 11 -10 2 0 4 5 4 10 0 6 -5 10 -11 10 -5 0 -7
-4 -4 -10z"/>
<path d="M1673 375 c0 -8 4 -12 9 -9 5 3 6 10 3 15 -9 13 -12 11 -12 -6z"/>
<path d="M1895 300 c-3 -5 -1 -10 4 -10 6 0 11 5 11 10 0 6 -2 10 -4 10 -3 0
-8 -4 -11 -10z"/>
<path d="M1950 285 c0 -5 5 -17 10 -25 5 -8 10 -10 10 -5 0 6 -5 17 -10 25 -5
8 -10 11 -10 5z"/>
<path d="M3396 282 c-3 -5 1 -9 9 -9 8 0 15 4 15 9 0 4 -4 8 -9 8 -6 0 -12 -4
-15 -8z"/>
<path d="M3610 260 c0 -5 5 -10 11 -10 5 0 7 5 4 10 -3 6 -8 10 -11 10 -2 0
-4 -4 -4 -10z"/>
<path d="M3240 251 c0 -10 19 -25 25 -20 1 2 -3 10 -11 17 -8 7 -14 8 -14 3z"/>
<path d="M3308 253 c6 -2 9 -10 6 -15 -4 -7 -2 -8 5 -4 13 9 5 26 -12 25 -9 0
-8 -2 1 -6z"/>
<path d="M3456 247 c3 -10 9 -15 12 -12 3 3 0 11 -7 18 -10 9 -11 8 -5 -6z"/>
<path d="M2145 240 c-3 -6 1 -7 9 -4 18 7 21 14 7 14 -6 0 -13 -4 -16 -10z"/>
<path d="M2326 238 c3 -5 9 -7 12 -4 3 3 12 0 21 -6 13 -10 14 -10 4 2 -15 16
-46 23 -37 8z"/>
<path d="M3144 230 c0 -13 4 -16 10 -10 7 7 7 13 0 20 -6 6 -10 3 -10 -10z"/>
<path d="M3110 230 c-13 -8 -12 -10 3 -10 9 0 17 5 17 10 0 12 -1 12 -20 0z"/>
<path d="M3355 231 c-3 -5 -2 -12 3 -15 5 -3 9 1 9 9 0 17 -3 19 -12 6z"/>
<path d="M3535 231 c-3 -5 -2 -12 3 -15 5 -3 9 1 9 9 0 17 -3 19 -12 6z"/>
<path d="M2487 219 c7 -7 15 -10 18 -7 3 3 -2 9 -12 12 -14 6 -15 5 -6 -5z"/>
<path d="M3075 221 c-3 -5 -2 -12 3 -15 5 -3 9 1 9 9 0 17 -3 19 -12 6z"/>
<path d="M2155 211 c-3 -5 -2 -12 3 -15 5 -3 9 1 9 9 0 17 -3 19 -12 6z"/>
<path d="M2419 218 c-5 -9 -5 -48 -1 -43 6 6 11 45 5 45 -2 0 -4 -1 -4 -2z"/>
<path d="M2615 210 c-4 -6 -12 -7 -18 -4 -7 4 -8 3 -4 -1 13 -15 34 -14 34 1
0 17 -4 18 -12 4z"/>
<path d="M2771 207 c-8 -10 -7 -14 2 -14 8 0 14 6 14 14 0 7 -1 13 -2 13 -2 0
-8 -6 -14 -13z"/>
<path d="M3470 216 c0 -2 8 -10 18 -17 15 -13 16 -12 3 4 -13 16 -21 21 -21
13z"/>
<path d="M2653 195 c0 -8 4 -12 9 -9 5 3 6 10 3 15 -9 13 -12 11 -12 -6z"/>
<path d="M2710 201 c0 -6 4 -13 10 -16 6 -3 7 1 4 9 -7 18 -14 21 -14 7z"/>
<path d="M3166 198 c3 -5 10 -6 15 -3 13 9 11 12 -6 12 -8 0 -12 -4 -9 -9z"/>
<path d="M2455 180 c3 -5 8 -10 11 -10 2 0 4 5 4 10 0 6 -5 10 -11 10 -5 0 -7
-4 -4 -10z"/>
<path d="M2747 179 c7 -7 15 -10 18 -7 3 3 -2 9 -12 12 -14 6 -15 5 -6 -5z"/>
<path d="M2795 181 c-3 -5 -2 -12 3 -15 5 -3 9 1 9 9 0 17 -3 19 -12 6z"/>
<path d="M3290 179 c0 -5 5 -7 10 -4 6 3 10 8 10 11 0 2 -4 4 -10 4 -5 0 -10
-5 -10 -11z"/>
<path d="M2656 162 c-3 -5 1 -9 9 -9 8 0 12 4 9 9 -3 4 -7 8 -9 8 -2 0 -6 -4
-9 -8z"/>
<path d="M2696 158 c3 -5 10 -6 15 -3 13 9 11 12 -6 12 -8 0 -12 -4 -9 -9z"/>
<path d="M2746 142 c-3 -5 1 -9 9 -9 8 0 12 4 9 9 -3 4 -7 8 -9 8 -2 0 -6 -4
-9 -8z"/>
<path d="M2795 140 c-3 -5 -1 -10 4 -10 6 0 11 5 11 10 0 6 -2 10 -4 10 -3 0
-8 -4 -11 -10z"/>
<path d="M2850 145 c0 -7 30 -13 34 -7 3 4 -4 9 -15 9 -10 1 -19 0 -19 -2z"/>
<path d="M3035 140 c-3 -5 -1 -10 4 -10 6 0 11 5 11 10 0 6 -2 10 -4 10 -3 0
-8 -4 -11 -10z"/>
</g>
</svg>
