<svg xmlns="http://www.w3.org/2000/svg" viewBox="0 0 512 512"><path d="M494.933 89.671H359.424a8.533 8.533 0 0 0-7.424 12.8 109.315 109.315 0 0 1 14.933 55.467v7.936a110.93 110.93 0 0 1-42.667 79.189 113.14 113.14 0 0 1-9.813 7.253 108.145 108.145 0 0 1-26.624 11.861 110.078 110.078 0 0 1-63.317 0 108.194 108.194 0 0 1-26.453-11.861 113.34 113.34 0 0 1-10.325-7.253 110.931 110.931 0 0 1-42.667-79.36v-7.765A109.403 109.403 0 0 1 160 102.471a8.533 8.533 0 0 0-7.424-12.8H17.067C7.641 89.671 0 97.312 0 106.738v358.4c0 9.426 7.641 17.067 17.067 17.067h477.867c9.426 0 17.067-7.641 17.067-17.067v-358.4c-.001-9.426-7.642-17.067-17.068-17.067zm0 375.467H17.067v-358.4h121.685a125.612 125.612 0 0 0-10.752 51.2v9.131a128.002 128.002 0 0 0 49.237 91.392 132.35 132.35 0 0 0 11.861 8.533 124.704 124.704 0 0 0 30.549 13.739 127.313 127.313 0 0 0 73.216 0 124.586 124.586 0 0 0 30.72-13.739 132.406 132.406 0 0 0 11.861-8.533 128.002 128.002 0 0 0 48.555-91.221v-9.301a125.439 125.439 0 0 0-10.752-51.2h121.685v358.399z"/><path d="M256 268.871a8.533 8.533 0 0 0-8.533 8.533v196.267c0 4.713 3.82 8.533 8.533 8.533s8.533-3.82 8.533-8.533V277.405a8.533 8.533 0 0 0-8.533-8.534zM224.512 264.178a108.194 108.194 0 0 1-26.453-11.861 113.34 113.34 0 0 1-10.325-7.253 110.931 110.931 0 0 1-42.667-79.36v-7.765a112.45 112.45 0 0 1 2.731-23.808 8.532 8.532 0 0 0-8.533-10.325H51.2c-9.426 0-17.067 7.641-17.067 17.067v290.133c0 9.426 7.641 17.067 17.067 17.067h162.133l.258.002c9.426-.001 17.066-7.643 17.065-17.069V272.711a8.534 8.534 0 0 0-6.144-8.533zm-11.179 166.827H51.2V140.871h77.909A129.527 129.527 0 0 0 128 157.938v9.131a127.996 127.996 0 0 0 48.896 91.221 132.35 132.35 0 0 0 11.861 8.533 125.11 125.11 0 0 0 24.576 11.776v152.406zM460.8 123.805h-87.893a8.533 8.533 0 0 0-8.533 10.326 112.498 112.498 0 0 1 2.56 23.808v7.936a110.93 110.93 0 0 1-42.667 79.189 113.391 113.391 0 0 1-10.069 6.912 108.12 108.12 0 0 1-26.453 11.861 8.534 8.534 0 0 0-6.144 8.533v158.635c0 9.426 7.641 17.067 17.067 17.067H460.8c9.426 0 17.067-7.641 17.067-17.067V140.871c0-9.425-7.641-17.066-17.067-17.066zm0 307.2H298.667V278.599a125.446 125.446 0 0 0 24.917-11.605 132.406 132.406 0 0 0 11.861-8.533A128.002 128.002 0 0 0 384 167.24v-9.301a129.71 129.71 0 0 0-1.109-17.067H460.8v290.133z"/><path d="M329.387 296.178l-34.133-25.6c-3.77-2.828-9.119-2.064-11.947 1.707s-2.064 9.119 1.707 11.947l34.133 25.6a8.533 8.533 0 0 0 11.947-1.706 8.536 8.536 0 0 0-1.707-11.948zM82.859 160.413a8.534 8.534 0 0 0-9.301-1.792 9.8 9.8 0 0 0-2.816 1.792 8.539 8.539 0 0 0-1.792 2.816 8.534 8.534 0 0 0 7.851 11.776 7.166 7.166 0 0 0 3.243-.683 9.8 9.8 0 0 0 2.816-1.792 8.534 8.534 0 0 0 2.475-6.059 8.969 8.969 0 0 0-2.476-6.058zM136.533 157.938h-25.6c-4.713 0-8.533 3.82-8.533 8.533s3.82 8.533 8.533 8.533h25.6c4.713 0 8.533-3.82 8.533-8.533s-3.82-8.533-8.533-8.533z"/><path d="M366.933 93.938c-22.869-39.728-65.236-64.193-111.076-64.142-70.692.078-127.936 57.45-127.857 128.142v9.131a127.996 127.996 0 0 0 48.896 91.221 132.35 132.35 0 0 0 11.861 8.533A128.772 128.772 0 0 0 256 285.938a128.852 128.852 0 0 0 67.584-18.944 132.406 132.406 0 0 0 11.861-8.533A128.002 128.002 0 0 0 384 167.24v-9.301a126.38 126.38 0 0 0-17.067-64.001zm0 71.936a110.93 110.93 0 0 1-42.667 79.189 113.14 113.14 0 0 1-9.813 7.253 108.145 108.145 0 0 1-26.624 11.861 110.078 110.078 0 0 1-63.317 0 108.194 108.194 0 0 1-26.453-11.861 113.34 113.34 0 0 1-10.325-7.253 110.931 110.931 0 0 1-42.667-79.36v-7.765A109.403 109.403 0 0 1 160 102.471c19.804-34.301 56.393-55.441 96-55.467 39.607.025 76.196 21.166 96 55.467a109.315 109.315 0 0 1 14.933 55.467v7.936z"/><path d="M307.2 123.805H204.8c-14.138 0-25.6 11.461-25.6 25.6v51.2c0 14.138 11.461 25.6 25.6 25.6h102.4c14.138 0 25.6-11.461 25.6-25.6v-51.2c0-14.139-11.461-25.6-25.6-25.6zm8.533 76.8a8.533 8.533 0 0 1-8.533 8.533H204.8a8.533 8.533 0 0 1-8.533-8.533v-51.2a8.533 8.533 0 0 1 8.533-8.533h102.4a8.533 8.533 0 0 1 8.533 8.533v51.2z"/><path d="M296.619 126.706l-.683-.683a8.534 8.534 0 0 0-4.437-2.219H230.4v-8.533a25.6 25.6 0 0 1 6.519-17.186c9.426-10.538 25.61-11.44 36.148-2.014a8.533 8.533 0 0 0 11.179-12.8 42.667 42.667 0 0 0-28.267-10.688c-23.564.012-42.657 19.124-42.645 42.688v17.067a8.533 8.533 0 0 0 8.533 8.533h68.267a8.536 8.536 0 0 0 4.523-1.536 8.535 8.535 0 0 0 1.963-1.707 8.535 8.535 0 0 0-.001-10.922zM256 157.938a8.533 8.533 0 0 0-8.533 8.533v17.067a8.533 8.533 0 0 0 17.066 0v-17.067a8.533 8.533 0 0 0-8.533-8.533z"/><path d="M264.533 157.938h-17.067c-4.713 0-8.533 3.82-8.533 8.533s3.82 8.533 8.533 8.533h17.067c4.713 0 8.533-3.82 8.533-8.533s-3.82-8.533-8.533-8.533z"/></svg>