<svg xmlns="http://www.w3.org/2000/svg" viewBox="0 0 512 512"><path d="M494.933 59.733H17.067C7.641 59.733 0 67.374 0 76.8v358.4c0 9.426 7.641 17.067 17.067 17.067h477.867c9.426 0 17.067-7.641 17.067-17.067V76.8c-.001-9.426-7.642-17.067-17.068-17.067zm0 375.467H17.067V76.8h477.867v358.4z"/><path d="M256 59.733a8.533 8.533 0 0 0-8.533 8.533v375.467c0 4.713 3.82 8.533 8.533 8.533s8.533-3.82 8.533-8.533V68.267A8.533 8.533 0 0 0 256 59.733zM213.333 93.867H51.2c-9.426 0-17.067 7.641-17.067 17.067v290.133c0 9.426 7.641 17.067 17.067 17.067h162.133c9.426 0 17.067-7.641 17.067-17.067V110.933c0-9.425-7.641-17.066-17.067-17.066zm0 307.2H51.2V110.933h162.133v290.134zM460.8 93.867H298.667c-9.426 0-17.067 7.641-17.067 17.067v290.133c0 9.426 7.641 17.067 17.067 17.067H460.8c9.426 0 17.067-7.641 17.067-17.067V110.933c0-9.425-7.641-17.066-17.067-17.066zm0 307.2H298.667V110.933H460.8v290.134z"/><path d="M329.387 266.24l-34.133-25.6c-3.77-2.828-9.119-2.064-11.947 1.707s-2.064 9.119 1.707 11.947l34.133 25.6a8.533 8.533 0 0 0 11.947-1.706 8.536 8.536 0 0 0-1.707-11.948zM84.651 133.291a8.539 8.539 0 0 0-1.792-2.816l-.049-.049a8.533 8.533 0 0 0-12.068.049 8.539 8.539 0 0 0-1.792 2.816 8.534 8.534 0 0 0 7.851 11.776 8.534 8.534 0 0 0 7.85-11.776zM162.133 128h-51.2c-4.713 0-8.533 3.82-8.533 8.533s3.82 8.533 8.533 8.533h51.2c4.713 0 8.533-3.82 8.533-8.533s-3.82-8.533-8.533-8.533zM297.984 133.291a9.8 9.8 0 0 0-1.792-2.816l-.049-.049a8.533 8.533 0 0 0-12.068.049 9.8 9.8 0 0 0-1.792 2.816 7.082 7.082 0 0 0-.683 3.243 8.533 8.533 0 0 0 8.533 8.533 8.53 8.53 0 0 0 3.243-.597 12.458 12.458 0 0 0 2.816-1.877 8.536 8.536 0 0 0 1.792-9.302zM375.467 128h-51.2c-4.713 0-8.533 3.82-8.533 8.533s3.82 8.533 8.533 8.533h51.2c4.713 0 8.533-3.82 8.533-8.533S380.18 128 375.467 128z"/></svg>