<svg xmlns="http://www.w3.org/2000/svg" viewBox="0 0 512 512"><path d="M494.933 29.867H17.067C7.641 29.867 0 37.508 0 46.933v358.4c0 9.426 7.641 17.067 17.067 17.067H358.4v-17.067H17.067v-358.4h477.867v358.4H435.2V422.4h59.733c9.426 0 17.067-7.641 17.067-17.067v-358.4c0-9.425-7.641-17.066-17.067-17.066z"/><path d="M256 29.867a8.533 8.533 0 0 0-8.533 8.533v375.467c0 4.713 3.82 8.533 8.533 8.533s8.533-3.82 8.533-8.533V38.4A8.533 8.533 0 0 0 256 29.867zM213.333 64H51.2c-9.426 0-17.067 7.641-17.067 17.067V371.2c0 9.426 7.641 17.067 17.067 17.067h162.133c9.426 0 17.067-7.641 17.067-17.067V81.067c0-9.426-7.641-17.067-17.067-17.067zm0 307.2H51.2V81.067h162.133V371.2zM475.59 66.758a8.533 8.533 0 0 0-12.059-.454L355.755 166.4a17.065 17.065 0 0 0-5.888 12.459v286.208c0 9.426 7.641 17.067 17.067 17.067a17.659 17.659 0 0 0 11.008-4.352l93.867-88.917a17.067 17.067 0 0 0 6.059-13.056V72.533a8.54 8.54 0 0 0-2.278-5.775zM460.8 376.149l-93.867 88.917V178.603L460.8 92.075v284.074z"/><path d="M84.651 103.424a9.8 9.8 0 0 0-1.792-2.816l-.049-.049a8.533 8.533 0 0 0-12.068.049 9.8 9.8 0 0 0-1.792 2.816 8.02 8.02 0 0 0 0 6.485 9.914 9.914 0 0 0 1.792 2.816 8.539 8.539 0 0 0 2.816 1.792 8.55 8.55 0 0 0 3.243.683 8.534 8.534 0 0 0 7.85-11.776zM162.133 98.133h-51.2c-4.713 0-8.533 3.82-8.533 8.533s3.82 8.533 8.533 8.533h51.2c4.713 0 8.533-3.82 8.533-8.533s-3.82-8.533-8.533-8.533zM366.251 196.864a8.539 8.539 0 0 0-1.792-2.816 15.478 15.478 0 0 0-2.816-1.877h-1.621a8.534 8.534 0 0 0-7.68 2.304 8.534 8.534 0 0 0-2.475 6.059 8.533 8.533 0 0 0 2.475 6.059 8.539 8.539 0 0 0 2.816 1.792 8.55 8.55 0 0 0 3.243.683 8.537 8.537 0 0 0 6.059-2.901 9.914 9.914 0 0 0 1.792-2.816 8.028 8.028 0 0 0-.001-6.487z"/><path d="M469.333 64H298.667c-9.426 0-17.067 7.641-17.067 17.067V371.2c0 9.426 7.641 17.067 17.067 17.067H358.4c4.713 0 8.533-3.82 8.533-8.533s-3.82-8.533-8.533-8.533h-59.733V81.067h170.667A8.534 8.534 0 0 0 469.333 64z"/><path d="M450.304 152.405a8.543 8.543 0 0 0-12.032-1.109l-51.2 42.667a8.534 8.534 0 0 0 5.461 15.104 8.527 8.527 0 0 0 5.461-1.963l51.2-42.667a8.543 8.543 0 0 0 1.11-12.032zM396.288 303.787l-34.133-17.067a8.534 8.534 0 0 0-7.595 15.275l34.133 17.067a8.535 8.535 0 0 0 3.84.939 8.532 8.532 0 0 0 3.755-16.214z"/></svg>