<svg xmlns="http://www.w3.org/2000/svg" viewBox="0 0 512 512"><path d="M494.933 89.682H359.424a8.533 8.533 0 0 0-7.424 12.8 109.393 109.393 0 0 1 14.933 55.467v7.936a110.93 110.93 0 0 1-42.667 79.189 114.23 114.23 0 0 1-9.813 7.253 107.963 107.963 0 0 1-26.624 11.861 110.078 110.078 0 0 1-63.317 0 107.936 107.936 0 0 1-26.453-11.861 113.678 113.678 0 0 1-10.325-7.253 110.931 110.931 0 0 1-42.667-79.36v-7.765A109.233 109.233 0 0 1 160 102.482a8.533 8.533 0 0 0-7.424-12.8H17.067C7.641 89.682 0 97.323 0 106.749v358.4c0 9.426 7.641 17.067 17.067 17.067h477.867c9.426 0 17.067-7.641 17.067-17.067v-358.4c-.001-9.426-7.642-17.067-17.068-17.067zm0 375.467H17.067v-358.4h121.6a125.535 125.535 0 0 0-10.667 51.2v9.131a128.002 128.002 0 0 0 49.237 91.392 130.271 130.271 0 0 0 11.861 8.533 124.52 124.52 0 0 0 30.549 13.739 127.313 127.313 0 0 0 73.216 0 124.48 124.48 0 0 0 30.72-13.739c4.11-2.621 8.07-5.47 11.861-8.533a128.002 128.002 0 0 0 48.555-91.221v-9.301a125.778 125.778 0 0 0-10.667-51.2h121.6v358.399z"/><path d="M256 268.882a8.533 8.533 0 0 0-8.533 8.533v196.267c0 4.713 3.82 8.533 8.533 8.533s8.533-3.82 8.533-8.533V277.415a8.533 8.533 0 0 0-8.533-8.533zM224.512 264.189a107.936 107.936 0 0 1-26.453-11.861 113.678 113.678 0 0 1-10.325-7.253 110.931 110.931 0 0 1-42.667-79.36v-7.765a112.72 112.72 0 0 1 2.731-23.808 8.532 8.532 0 0 0-8.533-10.325H51.2c-9.426 0-17.067 7.641-17.067 17.067v290.133c0 9.426 7.641 17.067 17.067 17.067h162.133l.258.002c9.426-.001 17.066-7.643 17.065-17.069V272.722a8.534 8.534 0 0 0-6.144-8.533zm-11.179 166.826H51.2V140.882h77.909A129.698 129.698 0 0 0 128 157.949v9.131a127.996 127.996 0 0 0 48.896 91.221 130.271 130.271 0 0 0 11.861 8.533 124.886 124.886 0 0 0 24.576 11.776v152.405zM460.8 123.815h-87.893a8.533 8.533 0 0 0-8.533 10.326 112.767 112.767 0 0 1 2.56 23.808v7.936a110.93 110.93 0 0 1-42.667 79.189 114.329 114.329 0 0 1-10.069 6.912 107.86 107.86 0 0 1-26.453 11.861 8.534 8.534 0 0 0-6.144 8.533v158.635c0 9.426 7.641 17.067 17.067 17.067H460.8c9.426 0 17.067-7.641 17.067-17.067V140.882c0-9.426-7.641-17.067-17.067-17.067zm0 307.2H298.667V278.61a124.783 124.783 0 0 0 24.917-11.605c4.11-2.621 8.07-5.47 11.861-8.533A128.002 128.002 0 0 0 384 167.251v-9.301a129.881 129.881 0 0 0-1.109-17.067H460.8v290.132z"/><path d="M329.387 296.189l-34.133-25.6c-3.77-2.828-9.119-2.064-11.947 1.707s-2.064 9.119 1.707 11.947l34.133 25.6a8.533 8.533 0 0 0 11.947-1.706c2.827-3.772 2.063-9.121-1.707-11.948zM82.809 160.374a8.533 8.533 0 0 0-12.068.05 9.8 9.8 0 0 0-1.792 2.816 8.55 8.55 0 0 0-.683 3.243 8.533 8.533 0 0 0 2.475 6.059 9.8 9.8 0 0 0 2.816 1.792 8.55 8.55 0 0 0 3.243.683 8.513 8.513 0 0 0 3.243-.683 7.68 7.68 0 0 0 4.608-4.608 8.55 8.55 0 0 0 .683-3.243 8.533 8.533 0 0 0-2.525-6.109zM136.533 157.949h-25.6c-4.713 0-8.533 3.82-8.533 8.533s3.82 8.533 8.533 8.533h25.6c4.713 0 8.533-3.82 8.533-8.533s-3.82-8.533-8.533-8.533zM290.133 157.949c-4.713 0-8.533 3.82-8.533 8.533s3.82 8.533 8.533 8.533a8.533 8.533 0 0 0 6.059-2.475 9.914 9.914 0 0 0 1.792-2.816 8.55 8.55 0 0 0 .683-3.243 8.533 8.533 0 0 0-8.534-8.532z"/><path d="M319.858 46.873c-61.267-35.268-139.523-14.191-174.791 47.076a126.38 126.38 0 0 0-17.067 64v9.131a127.996 127.996 0 0 0 48.896 91.221 130.271 130.271 0 0 0 11.861 8.533A128.772 128.772 0 0 0 256 285.949a128.77 128.77 0 0 0 67.584-18.944c4.11-2.621 8.07-5.47 11.861-8.533A128.002 128.002 0 0 0 384 167.251v-9.301c.051-45.841-24.415-88.208-64.142-111.077zm47.075 119.012a110.93 110.93 0 0 1-42.667 79.189 114.23 114.23 0 0 1-9.813 7.253 107.963 107.963 0 0 1-26.624 11.861 110.078 110.078 0 0 1-63.317 0 107.936 107.936 0 0 1-26.453-11.861 113.678 113.678 0 0 1-10.325-7.253 110.931 110.931 0 0 1-42.667-79.36v-7.765A109.233 109.233 0 0 1 160 102.482c19.804-34.301 56.393-55.441 96-55.467 39.607.025 76.196 21.166 96 55.467a109.393 109.393 0 0 1 14.933 55.467v7.936z"/><path d="M307.2 123.815H204.8c-14.138 0-25.6 11.461-25.6 25.6v51.2c0 14.138 11.461 25.6 25.6 25.6h102.4c14.138 0 25.6-11.461 25.6-25.6v-51.2c0-14.138-11.461-25.6-25.6-25.6zm8.533 76.8a8.533 8.533 0 0 1-8.533 8.533H204.8a8.533 8.533 0 0 1-8.533-8.533v-51.2a8.533 8.533 0 0 1 8.533-8.533h102.4a8.533 8.533 0 0 1 8.533 8.533v51.2z"/><path d="M256 72.615c-23.564 0-42.667 19.102-42.667 42.667v17.067a8.533 8.533 0 0 0 8.533 8.533h68.267v-.171a8.533 8.533 0 0 0 8.533-8.533v-16.896c.001-23.564-19.102-42.667-42.666-42.667zm25.6 47.702v3.499h-51.2v-8.533c0-14.138 11.461-25.6 25.6-25.6s25.6 11.461 25.6 25.6v5.034zM256 157.949a8.533 8.533 0 0 0-8.533 8.533v17.067a8.533 8.533 0 0 0 17.066 0v-17.067a8.533 8.533 0 0 0-8.533-8.533z"/><path d="M264.533 157.949h-17.067c-4.713 0-8.533 3.82-8.533 8.533s3.82 8.533 8.533 8.533h17.067c4.713 0 8.533-3.82 8.533-8.533s-3.82-8.533-8.533-8.533z"/></svg>