<svg xmlns="http://www.w3.org/2000/svg" viewBox="0 0 512 512"><path d="M465.247 0H46.755c-7.433 0-13.48 6.047-13.48 13.48v333.966a7.286 7.286 0 0 0 7.287 7.286 7.286 7.286 0 0 0 7.287-7.287V14.573h416.304v48.9a7.286 7.286 0 0 0 7.287 7.287 7.286 7.286 0 0 0 7.287-7.287V13.48c0-7.433-6.047-13.48-13.48-13.48z"/><path d="M495.222 459.598h-16.497V98.49a7.286 7.286 0 0 0-7.287-7.287 7.286 7.286 0 0 0-7.287 7.287v361.108h-17.39V44.973c0-7.175-5.837-13.011-13.011-13.011H78.25c-7.175 0-13.011 5.837-13.011 13.011V459.596h-17.39V382.3a7.286 7.286 0 0 0-7.287-7.287 7.286 7.286 0 0 0-7.287 7.287v77.298H16.778c-7.116 0-12.904 5.788-12.904 12.904v26.594c0 7.116 5.788 12.904 12.904 12.904h478.444c7.116 0 12.904-5.788 12.904-12.904v-26.594c0-7.116-5.788-12.904-12.904-12.904zM407.103 46.535h25.085v31.941h-25.085V46.535zm0 46.514h25.085v31.942h-25.085V93.049zm0 46.516h25.085v31.941h-25.085v-31.941zm0 46.514h25.085v31.941h-25.085v-31.941zm-.001 46.514H432.188v31.941h-25.086v-31.941zm-26.745 39.228V46.535h12.173v294.591a4.635 4.635 0 0 1-4.629 4.629h-2.915a4.635 4.635 0 0 1-4.629-4.629v-69.305zm4.629 88.508h2.915c10.588 0 19.203-8.614 19.203-19.202v-62.02h2.736v161.806H273.97V279.107h91.814v62.02c0 10.588 8.614 19.202 19.202 19.202zM79.811 46.535h285.973v31.941H79.811V46.535zm0 46.514h285.973v31.942H79.811V93.049zm0 46.516h285.973v31.941H79.811v-31.941zm0 46.514h285.973v31.941H79.811v-31.941zm0 46.514h285.973v31.941H79.811v-31.941zm158.219 46.514v161.806H102.16V279.107h135.87zm-158.219 0h7.776v162.881c0 7.442 6.055 13.497 13.497 13.497h138.022c7.442 0 13.497-6.055 13.497-13.497V279.107h6.793v162.881c0 7.442 6.055 13.497 13.497 13.497h138.022c7.442 0 13.497-6.055 13.497-13.497V279.107h7.776v180.491H79.811V279.107zm413.743 218.32H18.447v-23.256h475.107v23.256z"/></svg>