<svg xmlns="http://www.w3.org/2000/svg" viewBox="0 0 512 512"><path d="M234.717 60.141H107.418c-7.72 0-14.001 6.281-14.001 14.001V233.13c0 7.72 6.281 14.001 14.001 14.001h127.299c7.72 0 14.001-6.281 14.001-14.001V74.142c0-7.72-6.281-14.001-14.001-14.001zm-.572 172.416H107.99V74.714h126.155v157.843zM234.717 263.639H107.418c-7.72 0-14.001 6.281-14.001 14.001v158.987c0 7.721 6.281 14.001 14.001 14.001h127.299c7.72 0 14.001-6.281 14.001-14.001V277.64c0-7.72-6.281-14.001-14.001-14.001zm-.572 172.417H107.99V278.213h126.155v157.843zM404.582 60.141H277.284c-7.721 0-14.002 6.281-14.002 14.001V233.13c0 7.72 6.281 14.001 14.002 14.001h127.298c7.721 0 14.002-6.281 14.002-14.001V74.142c-.001-7.72-6.281-14.001-14.002-14.001zm-.572 172.416H277.855V74.714H404.01v157.843zM404.582 263.639H277.284c-7.721 0-14.002 6.281-14.002 14.001v158.987c0 7.721 6.281 14.001 14.002 14.001h127.298c7.721 0 14.002-6.281 14.002-14.001V277.64c-.001-7.72-6.281-14.001-14.002-14.001zm-.572 172.417H277.855V278.213H404.01v157.843z"/><path d="M493.522 459.598h-14.797v-349.51a7.287 7.287 0 1 0-14.574 0v349.51h-17.39V47.671c0-8.662-7.047-15.709-15.709-15.709H80.947c-8.662 0-15.709 7.047-15.709 15.709v411.927h-17.39v-71.842a7.287 7.287 0 1 0-14.574 0v71.842H18.478c-8.053 0-14.604 6.552-14.604 14.604v23.194c0 8.053 6.552 14.604 14.604 14.604h475.044c8.053 0 14.604-6.552 14.604-14.604v-23.194c0-8.053-6.551-14.604-14.604-14.604zM79.811 47.671c0-.626.509-1.136 1.136-1.136h350.106c.626 0 1.136.509 1.136 1.136v411.927H79.811V47.671zm413.725 449.755l-.014.001-475.075-.031.031-23.225 475.075.031-.017 23.224z"/><path d="M464.976 0H47.024c-7.581 0-13.749 6.167-13.749 13.749v339.416a7.287 7.287 0 0 0 14.574-.001V14.573h416.304v60.842a7.287 7.287 0 1 0 14.574 0V13.749C478.725 6.167 472.557 0 464.976 0z"/></svg>