<svg xmlns="http://www.w3.org/2000/svg" viewBox="0 0 512 512"><path d="M298.667 110.933V243.2l30.72 23.04a8.532 8.532 0 0 1 1.717 11.945 8.532 8.532 0 0 1-11.945 1.717l-.012-.009-20.48-15.36v136.533H460.8V110.933H298.667zm76.8 34.134h-51.2c-4.713 0-8.533-3.82-8.533-8.533s3.82-8.533 8.533-8.533h51.2c4.713 0 8.533 3.82 8.533 8.533s-3.82 8.533-8.533 8.533zM51.2 110.933v290.133h162.133V110.933H51.2zm28.817 33.5a8.534 8.534 0 0 1-9.275-1.841 8.534 8.534 0 0 1-2.475-6.059 8.513 8.513 0 0 1 .683-3.243 8.539 8.539 0 0 1 1.792-2.816 8.533 8.533 0 0 1 12.068-.049l.049.049a8.539 8.539 0 0 1 1.792 2.816 8.534 8.534 0 0 1-4.634 11.143zm82.116.634h-51.2c-4.713 0-8.533-3.82-8.533-8.533s3.82-8.533 8.533-8.533h51.2c4.713 0 8.533 3.82 8.533 8.533s-3.82 8.533-8.533 8.533z"/><path d="M494.933 59.733H17.067C7.641 59.733 0 67.374 0 76.8v358.4c0 9.426 7.641 17.067 17.067 17.067h477.867c9.426 0 17.067-7.641 17.067-17.067V76.8c-.001-9.426-7.642-17.067-17.068-17.067zM230.4 401.067c0 9.426-7.641 17.067-17.067 17.067H51.2c-9.426 0-17.067-7.641-17.067-17.067V110.933c0-9.426 7.641-17.067 17.067-17.067h162.133c9.426 0 17.067 7.641 17.067 17.067v290.134zm247.467 0c0 9.426-7.641 17.067-17.067 17.067H298.667c-9.426 0-17.067-7.641-17.067-17.067V110.933c0-9.426 7.641-17.067 17.067-17.067H460.8c9.426 0 17.067 7.641 17.067 17.067v290.134z"/></svg>