<svg xmlns="http://www.w3.org/2000/svg" viewBox="0 0 512 512"><path d="M382.635 140.613a126.537 126.537 0 0 1 1.195 17.067v11.264a128 128 0 0 1-48.384 89.259c-3.328 3.157-7.68 5.888-11.861 8.533a115.894 115.894 0 0 1-19.797 9.899l25.6 19.456a8.535 8.535 0 0 1-5.12 15.36 8.533 8.533 0 0 1-5.12-1.707l-20.48-15.36v136.533H460.8V140.784l-78.165-.171zM188.757 266.736c-4.181-2.645-8.533-5.376-11.861-8.533a128.684 128.684 0 0 1-47.787-83.285h-18.176c-4.713 0-8.533-3.82-8.533-8.533s3.82-8.533 8.533-8.533H128a126.56 126.56 0 0 1 1.195-17.067H51.2v290.133h162.133V278.427a117.855 117.855 0 0 1-24.576-11.691zM82.859 172.443a8.533 8.533 0 0 1-13.909-9.301 8.539 8.539 0 0 1 1.792-2.816 8.533 8.533 0 0 1 12.068-.049l.049.049a8.528 8.528 0 0 1 1.792 2.816 8.534 8.534 0 0 1-1.792 9.301z"/><path d="M494.933 89.584h-130.73c.939 1.365 1.792 2.816 2.645 4.267a128.941 128.941 0 0 1 12.544 29.867H460.8c9.426 0 17.067 7.641 17.067 17.067v290.133c0 9.426-7.641 17.067-17.067 17.067H298.667c-9.426 0-17.067-7.641-17.067-17.067V283.205a125.197 125.197 0 0 1-51.2 0v147.712c0 9.426-7.641 17.067-17.067 17.067H51.2c-9.426 0-17.067-7.641-17.067-17.067V140.784c0-9.426 7.641-17.067 17.067-17.067h81.493a127.173 127.173 0 0 1 12.373-29.867c.853-1.451 1.707-2.901 2.645-4.267H17.067C7.641 89.584 0 97.225 0 106.651v358.4c0 9.426 7.641 17.067 17.067 17.067h477.867c9.426 0 17.067-7.641 17.067-17.067v-358.4c-.001-9.426-7.642-17.067-17.068-17.067z"/><path d="M307.2 140.784H204.8a8.533 8.533 0 0 0-8.533 8.533v51.2a8.533 8.533 0 0 0 8.533 8.533h102.4a8.533 8.533 0 0 0 8.533-8.533v-51.2a8.533 8.533 0 0 0-8.533-8.533zm-42.667 34.133v8.533a8.533 8.533 0 0 1-17.066 0v-8.533c-4.713 0-8.533-3.82-8.533-8.533s3.82-8.533 8.533-8.533h17.067a8.533 8.533 0 0 1-.001 17.066z"/><path d="M382.805 140.784c0-3.499-1.024-6.997-1.707-10.411-.683-3.413-1.109-4.437-1.707-6.656a128.93 128.93 0 0 0-12.459-29.867c-.853-1.451-1.707-2.901-2.645-4.267-37.729-59.782-116.778-77.66-176.56-39.93a127.983 127.983 0 0 0-39.93 39.93c-.939 1.365-1.792 2.816-2.645 4.267a127.146 127.146 0 0 0-12.459 29.867 86.713 86.713 0 0 0-1.792 6.741c-.512 2.304-1.28 6.827-1.707 10.325a126.537 126.537 0 0 0-1.195 17.067v9.131c0 2.901.427 5.291.768 7.936a128.682 128.682 0 0 0 47.787 83.541c3.755 2.901 7.68 5.632 11.861 8.533a117.854 117.854 0 0 0 24.917 11.435 72.097 72.097 0 0 0 6.059 2.048 94.023 94.023 0 0 0 11.008 2.731 125.197 125.197 0 0 0 51.2 0 96.983 96.983 0 0 0 10.923-2.731 103.893 103.893 0 0 0 10.923-3.84c6.9-2.66 13.529-5.975 19.797-9.899 4.181-2.645 8.533-5.376 11.861-8.533a128 128 0 0 0 48.384-89.259v-2.048-2.475-6.741a126.11 126.11 0 0 0-.682-16.895zM332.8 200.517c0 14.138-11.461 25.6-25.6 25.6H204.8c-14.138 0-25.6-11.461-25.6-25.6v-51.2c0-14.138 11.461-25.6 25.6-25.6h8.533v-8.533c-.012-23.564 19.081-42.676 42.645-42.688a42.667 42.667 0 0 1 28.267 10.688 8.533 8.533 0 1 1-11.178 12.8l-1.792-1.451-1.707-1.109a24.15 24.15 0 0 0-11.008-3.84H256c-14.138 0-25.6 11.461-25.6 25.6v8.533h76.8c14.138 0 25.6 11.461 25.6 25.6v51.2z"/></svg>