<svg xmlns="http://www.w3.org/2000/svg" viewBox="0 0 512 512"><path d="M51.2 385.638h162.133V95.504H51.2v290.134zm59.733-273.067h51.2c4.713 0 8.533 3.82 8.533 8.533s-3.82 8.533-8.533 8.533h-51.2a8.533 8.533 0 0 1 0-17.066zm-41.984 5.291a9.8 9.8 0 0 1 1.792-2.816 8.533 8.533 0 0 1 12.068-.049l.049.049a9.8 9.8 0 0 1 1.792 2.816c.123.292.21.591.298.889 1.154 4.139-.968 8.57-5.049 10.204a8.533 8.533 0 0 1-5.481.289c-.289-.087-.579-.17-.861-.289a8.502 8.502 0 0 1-2.816-1.792 9.787 9.787 0 0 1-1.792-2.816 8.03 8.03 0 0 1 0-6.485z"/><path d="M494.933 44.304H17.067C7.641 44.304 0 51.945 0 61.371v358.4c0 9.426 7.641 17.067 17.067 17.067h332.8v-34.133h-51.2c-9.426 0-17.067-7.641-17.067-17.067V95.504c0-9.426 7.641-17.067 17.067-17.067h170.667a8.534 8.534 0 0 1 5.632 2.133l.768.768a8.04 8.04 0 0 1 1.451 2.304c.209.498.38 1.012.512 1.536.099.593.156 1.191.171 1.792v303.275a17.067 17.067 0 0 1-6.059 12.971l-17.067 16.555-17.92 17.067h58.112c9.426 0 17.067-7.641 17.067-17.067v-358.4c-.001-9.426-7.642-17.067-17.068-17.067zM230.4 385.638c0 9.426-7.641 17.067-17.067 17.067H51.2c-9.426 0-17.067-7.641-17.067-17.067V95.504c0-9.426 7.641-17.067 17.067-17.067h162.133c9.426 0 17.067 7.641 17.067 17.067v290.134z"/><path d="M366.933 193.04v110.592l29.44 14.677a8.534 8.534 0 0 1 3.755 11.435 8.53 8.53 0 0 1-7.595 4.693 7.932 7.932 0 0 1-3.84-.939l-21.76-10.837v136.533a8.533 8.533 0 0 0 14.422 6.144l30.464-28.501 20.821-19.797 28.16-26.453V106.512l-93.867 86.528zm82.262-14.165h-.341l-51.2 42.667a8.53 8.53 0 0 1-5.12 1.963 8.532 8.532 0 0 1-5.478-15.09l.016-.014 51.2-42.667a8.544 8.544 0 0 1 10.923 13.141z"/></svg>