<svg xmlns="http://www.w3.org/2000/svg" viewBox="0 0 511.829 511.829"><path d="M287.783 205.397a111.783 111.783 0 0 1-11.861-14.336 59.273 59.273 0 0 1-3.413-5.12 110.153 110.153 0 0 1-16.469-58.112c-.023-6.12.491-12.231 1.536-18.261a110.923 110.923 0 0 1 14.763-39.765c1.28-1.963 2.56-4.011 3.925-5.973a8.533 8.533 0 0 0-1.451-11.435 42.667 42.667 0 0 0-27.307-9.899H59.772c-23.564 0-42.667 19.102-42.667 42.667V435.03c0 23.564 19.103 42.667 42.667 42.667h187.733c23.564 0 42.667-19.103 42.667-42.667V211.285a8.533 8.533 0 0 0-2.389-5.888zm-14.678 229.632c0 14.138-11.462 25.6-25.6 25.6H59.772c-14.138 0-25.6-11.462-25.6-25.6V85.163c0-14.138 11.461-25.6 25.6-25.6h187.733a25.6 25.6 0 0 1 10.24 2.048 128.002 128.002 0 0 0-17.067 45.227 121.82 121.82 0 0 0-1.707 20.992 127.4 127.4 0 0 0 19.115 67.243c1.28 2.048 2.56 4.096 3.925 5.888a123.873 123.873 0 0 0 11.093 13.824v220.244z"/><path d="M102.439 460.629H59.772a8.533 8.533 0 0 0-8.533 8.533v17.067c0 14.138 11.461 25.6 25.6 25.6h8.533c14.138 0 25.6-11.461 25.6-25.6v-17.067a8.533 8.533 0 0 0-8.533-8.533zm-8.534 25.6a8.533 8.533 0 0 1-8.533 8.533h-8.533a8.533 8.533 0 0 1-8.533-8.533v-8.533h25.6v8.533zM247.505 460.629h-42.667a8.533 8.533 0 0 0-8.533 8.533v17.067c0 14.138 11.462 25.6 25.6 25.6h8.533c14.138 0 25.6-11.461 25.6-25.6v-17.067a8.533 8.533 0 0 0-8.533-8.533zm-8.533 25.6a8.533 8.533 0 0 1-8.533 8.533h-8.533a8.533 8.533 0 0 1-8.533-8.533v-8.533h25.6v8.533zM269.009 187.563H25.639c-4.713 0-8.533 3.82-8.533 8.533s3.82 8.533 8.533 8.533H269.01a8.533 8.533 0 0 0-.001-17.066zM59.772 221.696a8.533 8.533 0 0 0-8.533 8.533v51.2c0 4.713 3.82 8.533 8.533 8.533s8.533-3.82 8.533-8.533v-51.2a8.533 8.533 0 0 0-8.533-8.533zM59.772 102.229a8.533 8.533 0 0 0-8.533 8.533v51.2c0 4.713 3.82 8.533 8.533 8.533s8.533-3.82 8.533-8.533v-51.2a8.533 8.533 0 0 0-8.533-8.533z"/><path d="M440.708 23.565c-57.684-40.866-137.574-27.233-178.44 30.451-1.536 2.219-2.987 4.437-4.523 6.827a128.003 128.003 0 0 0-17.067 45.995 121.82 121.82 0 0 0-1.707 20.992A127.414 127.414 0 0 0 258 195.073c1.28 2.048 2.56 4.096 3.925 5.888a128.013 128.013 0 0 0 13.568 16.384 120.492 120.492 0 0 0 12.373 11.093 126.805 126.805 0 0 0 79.104 27.392 126.72 126.72 0 0 0 79.104-27.392 128.016 128.016 0 0 0 25.083-26.433c40.868-57.684 27.234-137.574-30.449-178.44zm13.705 172.216c-37.703 48.292-107.415 56.876-155.707 19.173a101.958 101.958 0 0 1-10.923-9.557 111.783 111.783 0 0 1-11.861-14.336 59.273 59.273 0 0 1-3.413-5.12 110.153 110.153 0 0 1-16.469-58.112 104.7 104.7 0 0 1 1.621-18.176 110.923 110.923 0 0 1 14.763-39.765c1.28-1.963 2.56-4.011 3.925-5.973a110.935 110.935 0 0 1 90.624-47.019c61.267 0 110.933 49.667 110.933 110.933a110.935 110.935 0 0 1-23.493 67.952z"/><path d="M366.972 33.963a8.533 8.533 0 0 0-8.533 8.533v170.667a8.533 8.533 0 0 0 17.066 0V42.496a8.533 8.533 0 0 0-8.533-8.533z"/><path d="M371.751 61.013l-25.6-17.067a8.533 8.533 0 0 0-9.472 14.165l25.6 17.067a8.534 8.534 0 0 0 4.693 1.451 8.533 8.533 0 0 0 4.779-15.616z"/><path d="M399.482 46.95a8.533 8.533 0 0 0-11.688-3.003l-25.6 17.067a8.533 8.533 0 0 0 4.778 15.616 8.532 8.532 0 0 0 4.693-1.451l25.6-17.067a8.533 8.533 0 0 0 2.217-11.162zM374.142 182.17a8.534 8.534 0 0 0-11.949-1.69l-25.6 17.067a8.533 8.533 0 0 0 4.778 15.616 8.532 8.532 0 0 0 4.693-1.451l25.6-17.067a8.532 8.532 0 0 0 2.478-12.475z"/><path d="M397.351 197.547l-25.6-17.067a8.533 8.533 0 0 0-9.472 14.165l25.6 17.067a8.534 8.534 0 0 0 4.693 1.451 8.533 8.533 0 0 0 4.779-15.616zM452.305 119.296H281.639c-4.713 0-8.533 3.82-8.533 8.533s3.82 8.533 8.533 8.533h170.667a8.533 8.533 0 0 0-.001-17.066z"/><path d="M312.105 121.446a8.534 8.534 0 0 0-11.949 1.69l-17.067 25.6a8.533 8.533 0 0 0 7.082 13.226 8.535 8.535 0 0 0 7.083-3.755l17.067-25.6a8.531 8.531 0 0 0-2.216-11.161z"/><path d="M314.321 123.051l-17.067-25.6a8.533 8.533 0 0 0-14.165 9.472l17.067 25.6a8.534 8.534 0 0 0 7.083 3.84 8.532 8.532 0 0 0 7.082-13.312zM450.855 148.651l-17.067-25.6a8.533 8.533 0 0 0-14.165 9.472l17.067 25.6a8.534 8.534 0 0 0 7.083 3.84 8.534 8.534 0 0 0 7.082-13.312z"/><path d="M448.638 95.846a8.534 8.534 0 0 0-11.949 1.69l-17.067 25.6a8.533 8.533 0 0 0 7.083 13.226 8.535 8.535 0 0 0 7.083-3.755l17.067-25.6a8.531 8.531 0 0 0-2.217-11.161zM415.612 164.523L330.279 79.19a8.533 8.533 0 0 0-12.032 12.032l85.333 85.333a8.534 8.534 0 0 0 6.059 2.475 8.534 8.534 0 0 0 5.973-14.507z"/><path d="M415.612 80.035a8.533 8.533 0 0 0-12.032-.931l-85.333 85.333a8.534 8.534 0 0 0 6.059 14.592 8.53 8.53 0 0 0 5.973-2.56l85.333-85.333a8.533 8.533 0 0 0 0-11.101z"/></svg>