<svg xmlns="http://www.w3.org/2000/svg" viewBox="0 0 512.016 512.016"><path d="M341.348 460.816H17.081c-9.426 0-17.067 7.641-17.067 17.067v25.6a8.533 8.533 0 0 0 8.533 8.533H349.88a8.533 8.533 0 0 0 8.533-8.533v-25.6c.002-9.426-7.64-17.067-17.065-17.067zm0 34.134H17.081v-17.067h324.267v17.067zM170.681 8.55h17.067v42.667h-17.067z"/><path d="M179.215 42.683c-32.939 0-59.733 30.635-59.733 68.267a8.533 8.533 0 0 0 8.533 8.533h102.4a8.533 8.533 0 0 0 8.533-8.533c0-37.632-26.795-68.267-59.733-68.267zm-42.07 59.733c3.413-24.149 20.992-42.667 42.069-42.667s38.656 18.517 42.069 42.667h-84.138zM162.148 136.549a8.533 8.533 0 0 0-8.533 8.533v8.533a8.533 8.533 0 0 0 17.066 0v-8.533a8.533 8.533 0 0 0-8.533-8.533zM162.148 179.216a8.533 8.533 0 0 0-8.533 8.533v8.533c0 4.713 3.82 8.533 8.533 8.533s8.533-3.82 8.533-8.533v-8.533a8.533 8.533 0 0 0-8.533-8.533zM162.148 221.883a8.533 8.533 0 0 0-8.533 8.533v8.533c0 4.713 3.82 8.533 8.533 8.533s8.533-3.82 8.533-8.533v-8.533a8.533 8.533 0 0 0-8.533-8.533zM162.148 264.549a8.533 8.533 0 0 0-8.533 8.533v8.533c0 4.713 3.82 8.533 8.533 8.533s8.533-3.82 8.533-8.533v-8.533a8.533 8.533 0 0 0-8.533-8.533zM128.015 136.549a8.533 8.533 0 0 0-8.533 8.533v8.533a8.533 8.533 0 0 0 17.066 0v-8.533a8.534 8.534 0 0 0-8.533-8.533zM128.015 179.216a8.533 8.533 0 0 0-8.533 8.533v8.533c0 4.713 3.82 8.533 8.533 8.533s8.533-3.82 8.533-8.533v-8.533a8.534 8.534 0 0 0-8.533-8.533zM128.015 221.883a8.533 8.533 0 0 0-8.533 8.533v8.533c0 4.713 3.82 8.533 8.533 8.533s8.533-3.82 8.533-8.533v-8.533a8.533 8.533 0 0 0-8.533-8.533zM128.015 264.549a8.533 8.533 0 0 0-8.533 8.533v8.533c0 4.713 3.82 8.533 8.533 8.533s8.533-3.82 8.533-8.533v-8.533a8.534 8.534 0 0 0-8.533-8.533zM196.281 136.549a8.533 8.533 0 0 0-8.533 8.533v8.533a8.533 8.533 0 0 0 17.066 0v-8.533a8.533 8.533 0 0 0-8.533-8.533zM196.281 179.216a8.533 8.533 0 0 0-8.533 8.533v8.533c0 4.713 3.82 8.533 8.533 8.533s8.533-3.82 8.533-8.533v-8.533a8.533 8.533 0 0 0-8.533-8.533zM196.281 221.883a8.533 8.533 0 0 0-8.533 8.533v8.533c0 4.713 3.82 8.533 8.533 8.533s8.533-3.82 8.533-8.533v-8.533a8.532 8.532 0 0 0-8.533-8.533zM196.281 264.549a8.533 8.533 0 0 0-8.533 8.533v8.533c0 4.713 3.82 8.533 8.533 8.533s8.533-3.82 8.533-8.533v-8.533a8.533 8.533 0 0 0-8.533-8.533zM230.415 136.549a8.533 8.533 0 0 0-8.533 8.533v8.533a8.533 8.533 0 0 0 17.066 0v-8.533a8.534 8.534 0 0 0-8.533-8.533zM230.415 179.216a8.533 8.533 0 0 0-8.533 8.533v8.533c0 4.713 3.82 8.533 8.533 8.533s8.533-3.82 8.533-8.533v-8.533a8.534 8.534 0 0 0-8.533-8.533zM230.415 221.883a8.533 8.533 0 0 0-8.533 8.533v8.533c0 4.713 3.82 8.533 8.533 8.533s8.533-3.82 8.533-8.533v-8.533a8.533 8.533 0 0 0-8.533-8.533zM230.415 264.549a8.533 8.533 0 0 0-8.533 8.533v8.533c0 4.713 3.82 8.533 8.533 8.533s8.533-3.82 8.533-8.533v-8.533a8.534 8.534 0 0 0-8.533-8.533z"/><path d="M307.215.016h-256c-9.426 0-17.067 7.641-17.067 17.067v418.133c0 4.713 3.82 8.533 8.533 8.533s8.533-3.82 8.533-8.533V17.083h256v12.971c0 4.713 3.82 8.533 8.533 8.533s8.533-3.82 8.533-8.533V17.083c.001-9.426-7.64-17.067-17.065-17.067zM315.748 217.445a8.533 8.533 0 0 0-8.533 8.533v209.237c0 4.713 3.82 8.533 8.533 8.533s8.533-3.82 8.533-8.533V225.979a8.533 8.533 0 0 0-8.533-8.534z"/><path d="M324.281 426.683H34.148c-9.426 0-17.067 7.641-17.067 17.067v25.6c0 4.713 3.82 8.533 8.533 8.533s8.533-3.82 8.533-8.533v-25.6H324.28v25.6a8.533 8.533 0 0 0 17.066 0v-25.6c.002-9.426-7.639-17.067-17.065-17.067zM76.815 204.816H42.681v17.067h25.6v25.6h-25.6v17.067h34.133a8.533 8.533 0 0 0 8.533-8.533V213.35a8.533 8.533 0 0 0-8.532-8.534zM402.247 1.326C332.278-8.76 267.38 39.786 257.295 109.755a133.45 133.45 0 0 0-1.28 18.261 120.41 120.41 0 0 0 1.365 18.261 126.633 126.633 0 0 0 47.445 82.261c1.963 1.536 4.096 3.072 6.059 4.437a128.683 128.683 0 0 0 54.784 21.675 120.764 120.764 0 0 0 18.347 1.365 126.72 126.72 0 0 0 79.104-27.392 127.997 127.997 0 0 0 47.557-82.346c10.085-69.968-38.46-134.865-108.429-144.951zM384.015 238.95c-5.23-.033-10.45-.461-15.616-1.28a111.45 111.45 0 0 1-47.531-18.773c-1.707-1.109-3.413-2.389-5.12-3.755a109.821 109.821 0 0 1-41.472-71.339 104.03 104.03 0 0 1-1.195-15.787c.006-5.31.377-10.613 1.109-15.872 7.89-54.58 54.676-95.077 109.824-95.061 61.267 0 110.933 49.667 110.933 110.933S445.281 238.95 384.015 238.95z"/><path d="M438.031 102.416a59.733 59.733 0 0 0-28.514-28.514c-29.832-14.084-65.434-1.318-79.518 28.514a58.436 58.436 0 0 0-5.717 25.6 59.737 59.737 0 0 0 18.517 43.179 46.135 46.135 0 0 0 4.352 3.755 61.473 61.473 0 0 0 5.12 3.584l2.304 1.28a57.423 57.423 0 0 0 29.44 7.936 57.433 57.433 0 0 0 29.355-7.765l2.816-1.621c1.707-1.024 3.243-2.219 5.035-3.584a45.112 45.112 0 0 0 4.608-4.096c18.212-17.824 23.112-45.239 12.202-68.268zm-24.235 55.979a31.214 31.214 0 0 1-3.072 2.731l-3.413 2.475-2.475 1.451a41.982 41.982 0 0 1-41.728 0l-1.963-1.109-3.499-2.475a31.678 31.678 0 0 1-2.901-2.475 42.663 42.663 0 0 1-13.397-30.976 41.548 41.548 0 0 1 4.011-18.091 43.093 43.093 0 0 1 38.656-24.576 42.667 42.667 0 0 1 38.571 24.491 41.815 41.815 0 0 1 4.096 18.176 42.673 42.673 0 0 1-12.886 30.378z"/><path d="M384.015 102.416a8.533 8.533 0 0 0-8.533 8.533v34.133a8.533 8.533 0 0 0 17.066 0V110.95a8.534 8.534 0 0 0-8.533-8.534z"/></svg>