<svg xmlns="http://www.w3.org/2000/svg" viewBox="0 0 512.768 512.768"><path d="M402.824 1.569C332.838-8.403 268.02 40.248 258.048 110.234a132.808 132.808 0 0 0-1.28 18.261 120.668 120.668 0 0 0 1.365 18.261 126.721 126.721 0 0 0 47.531 82.347 128.6 128.6 0 0 0 60.757 26.027 120.636 120.636 0 0 0 18.347 1.365c70.692 0 128-57.308 128-128C512.871 64.7 465.981 10.568 402.824 1.569zm-18.056 237.859a103.99 103.99 0 0 1-15.872-1.195 109.012 109.012 0 0 1-31.659-9.557 110.932 110.932 0 0 1-62.208-84.395 105.343 105.343 0 0 1-1.195-15.787 116.4 116.4 0 0 1 1.109-15.872c8.095-54.468 54.758-94.858 109.824-95.061 61.267 0 110.933 49.667 110.933 110.933s-49.665 110.934-110.932 110.934z"/><path d="M438.016 102.895a59.734 59.734 0 0 0-24.235-26.112 8.534 8.534 0 0 0-8.534 14.762 42.668 42.668 0 0 1 17.067 18.688c7.781 16.379 4.358 35.887-8.533 48.64a30.972 30.972 0 0 1-3.072 2.731l-3.413 2.475-2.475 1.451a41.982 41.982 0 0 1-41.728 0l-1.963-1.109c-1.365-.853-2.389-1.621-3.499-2.475a29.24 29.24 0 0 1-2.901-2.475 42.663 42.663 0 0 1-13.397-30.976 41.555 41.555 0 0 1 4.267-18.091 43.088 43.088 0 0 1 17.067-18.773 8.534 8.534 0 1 0-8.533-14.763 59.722 59.722 0 0 0-24.149 26.027 58.436 58.436 0 0 0-5.717 25.6 59.223 59.223 0 0 0 18.432 43.008 45.988 45.988 0 0 0 4.352 3.84 59.612 59.612 0 0 0 5.205 3.669l2.304 1.28a57.423 57.423 0 0 0 29.44 7.936 57.35 57.35 0 0 0 29.355-7.765l2.816-1.621c1.707-1.109 3.243-2.219 5.035-3.584a45.219 45.219 0 0 0 4.608-4.096c18.211-17.823 23.111-45.238 12.201-68.267z"/><path d="M384 60.228a8.533 8.533 0 0 0-8.533 8.533v34.133c0 4.713 3.82 8.533 8.533 8.533s8.533-3.82 8.533-8.533V68.762A8.533 8.533 0 0 0 384 60.228zM299.435 461.295h-256a8.533 8.533 0 0 0-8.533 8.533v25.6c0 9.426 7.641 17.067 17.067 17.067h238.933c9.426 0 17.067-7.641 17.067-17.067v-25.6a8.535 8.535 0 0 0-8.534-8.533zm-8.534 34.133H51.968v-17.067h238.933v17.067zM264.533 192.58a108.286 108.286 0 0 0-51.541-46.933c.09-1.478.09-2.96 0-4.437v-.003c-.001-20.595-16.697-37.29-37.292-37.289-20.595.001-37.29 16.697-37.289 37.292v1.365a108.54 108.54 0 0 0-59.733 50.005 8.533 8.533 0 0 0 7.424 12.715h170.667a8.535 8.535 0 0 0 7.764-12.715zM102.4 188.228a90.276 90.276 0 0 1 47.616-31.232 8.533 8.533 0 0 0 6.144-10.325 22.102 22.102 0 0 1-.768-5.376v-.003c.001-11.169 9.056-20.223 20.226-20.222 11.169.001 20.223 9.056 20.222 20.226a22.03 22.03 0 0 1-1.28 6.997 8.533 8.533 0 0 0 5.291 10.752 90.452 90.452 0 0 1 40.96 29.184H102.4zM347.648 305.733c-9.131-47.189-69.547-65.536-72.107-66.304a8.71 8.71 0 1 0-4.864 16.726c.512.171 53.077 16.213 60.245 53.163 7.424 38.315-6.4 61.44-39.68 104.107a8.534 8.534 0 0 0 6.741 13.739 8.534 8.534 0 0 0 6.997-3.669c32.343-42.072 51.799-70.573 42.668-117.762z"/><path d="M274.773 233.285a17.067 17.067 0 0 0-15.957-10.923H82.261a17.065 17.065 0 0 0-15.189 9.899 303.547 303.547 0 0 0-20.139 59.733 584.177 584.177 0 0 0-12.8 144.299c.322 9.192 7.869 16.475 17.067 16.469h238.933c9.426 0 17.067-7.641 17.067-17.067-1.109-112.043-25.088-183.21-32.427-202.41zM51.2 435.695a566.015 566.015 0 0 1 12.032-139.776 283.446 283.446 0 0 1 19.029-56.491h176.64c6.997 18.432 30.123 87.211 31.232 196.267H51.2z"/><path d="M222.635 435.695h-102.4a8.533 8.533 0 0 0-8.533 8.533v25.6a8.533 8.533 0 0 0 8.533 8.533h102.4a8.533 8.533 0 0 0 8.533-8.533v-25.6a8.533 8.533 0 0 0-8.533-8.533zm-8.534 25.6h-85.333v-8.533h85.333v8.533zM171.435 247.962c-24.32 0-42.667 34.816-42.667 81.067 0 46.251 18.347 81.067 42.667 81.067s42.667-34.816 42.667-81.067c-.001-46.251-18.347-81.067-42.667-81.067zm0 145.066c-10.667 0-25.6-24.32-25.6-64s14.933-64 25.6-64c10.752 0 25.6 24.32 25.6 64 0 39.681-14.934 64-25.6 64zM82.261 222.362H8.533A8.533 8.533 0 0 0 0 230.895c1.144 32.123 21.774 60.295 52.053 71.083a8.52 8.52 0 0 0 2.901.512h.085a8.534 8.534 0 0 0 2.901-16.555 60.245 60.245 0 0 1-39.765-46.507H82.26c4.713 0 8.533-3.82 8.533-8.533s-3.819-8.533-8.532-8.533z"/></svg>