<svg xmlns="http://www.w3.org/2000/svg" viewBox="0 0 512.222 512.222"><path d="M402.167 1.296c-69.986-9.972-134.804 38.679-144.776 108.665a133.45 133.45 0 0 0-1.28 18.261 120.41 120.41 0 0 0 1.365 18.261 126.721 126.721 0 0 0 47.531 82.347 128.6 128.6 0 0 0 60.757 26.027 120.764 120.764 0 0 0 18.347 1.365c70.692 0 128-57.308 128-128 .103-63.795-46.787-117.927-109.944-126.926zm-18.056 237.859a104.026 104.026 0 0 1-15.872-1.28c-48.623-7.05-86.816-45.244-93.867-93.867a104.03 104.03 0 0 1-1.195-15.787c.006-5.31.377-10.613 1.109-15.872 8.095-54.468 54.758-94.858 109.824-95.061 61.267 0 110.933 49.667 110.933 110.933s-49.665 110.934-110.932 110.934z"/><path d="M438.127 102.622a59.733 59.733 0 0 0-28.514-28.514c-29.832-14.084-65.434-1.318-79.518 28.514a58.436 58.436 0 0 0-5.717 25.6 59.737 59.737 0 0 0 18.517 43.179 46.135 46.135 0 0 0 4.352 3.755 61.473 61.473 0 0 0 5.12 3.584l2.304 1.28a57.423 57.423 0 0 0 29.44 7.936 57.35 57.35 0 0 0 29.355-7.765l2.816-1.621c1.707-1.109 3.243-2.219 5.035-3.584a45.219 45.219 0 0 0 4.608-4.096c18.212-17.824 23.112-45.239 12.202-68.268zm-24.235 55.979a30.972 30.972 0 0 1-3.072 2.731l-3.413 2.475-2.475 1.451a41.982 41.982 0 0 1-41.728 0l-1.963-1.109-3.499-2.475a31.678 31.678 0 0 1-2.901-2.475 42.663 42.663 0 0 1-13.397-30.976 41.548 41.548 0 0 1 4.011-18.091 43.093 43.093 0 0 1 38.656-24.576 42.667 42.667 0 0 1 38.315 24.405c7.78 16.379 4.358 35.887-8.534 48.64z"/><path d="M384.111 102.622a8.533 8.533 0 0 0-8.533 8.533v34.133a8.533 8.533 0 0 0 17.066 0v-34.133a8.533 8.533 0 0 0-8.533-8.533zM299.46 461.022h-256a8.533 8.533 0 0 0-8.533 8.533v25.6c0 9.426 7.641 17.067 17.067 17.067h238.933c9.426 0 17.067-7.641 17.067-17.067v-25.6a8.534 8.534 0 0 0-8.534-8.533zm-8.533 34.133H51.994v-17.067h238.933v17.067zM264.644 192.307a108.374 108.374 0 0 0-51.626-46.933 35.7 35.7 0 0 0 0-4.437v-.003c-.001-20.595-16.697-37.29-37.292-37.289-20.595.001-37.29 16.697-37.289 37.292v1.365a108.626 108.626 0 0 0-59.733 50.005 8.533 8.533 0 0 0 7.424 12.715h170.667a8.534 8.534 0 0 0 7.849-12.715zm-162.133-4.352a90.283 90.283 0 0 1 47.531-31.232 8.533 8.533 0 0 0 6.144-10.325 22.298 22.298 0 0 1-.768-5.376v-.003c.001-11.169 9.056-20.223 20.226-20.222 11.169.001 20.223 9.056 20.222 20.226a22.09 22.09 0 0 1-1.28 6.997 8.533 8.533 0 0 0 5.291 10.752 90.544 90.544 0 0 1 40.96 29.184H102.511zM347.674 305.46c-9.131-47.189-69.547-65.536-72.107-66.304a8.71 8.71 0 0 0-4.864 16.726c.512.171 53.077 16.213 60.245 53.163 7.424 38.315-6.4 61.44-39.68 104.107a8.534 8.534 0 0 0 6.741 13.739 8.534 8.534 0 0 0 6.997-3.669c32.342-42.072 51.798-70.573 42.668-117.762z"/><path d="M274.799 233.012a17.067 17.067 0 0 0-15.957-10.923H82.287a17.067 17.067 0 0 0-15.104 9.899 303.853 303.853 0 0 0-20.139 59.733 583.597 583.597 0 0 0-12.8 144.299c.322 9.192 7.869 16.475 17.067 16.469h238.933c9.426 0 17.067-7.641 17.067-17.067-1.195-112.128-25.173-183.21-32.512-202.41zM51.311 435.422a566.134 566.134 0 0 1 11.947-139.776 283.17 283.17 0 0 1 19.029-56.491h176.725c6.997 18.432 30.123 87.125 31.232 196.267H51.311z"/><path d="M222.66 435.422h-102.4a8.533 8.533 0 0 0-8.533 8.533v25.6a8.533 8.533 0 0 0 8.533 8.533h102.4a8.533 8.533 0 0 0 8.533-8.533v-25.6a8.533 8.533 0 0 0-8.533-8.533zm-8.533 25.6h-85.333v-8.533h85.333v8.533zM171.46 247.689c-24.32 0-42.667 34.816-42.667 81.067 0 46.251 18.347 81.067 42.667 81.067s42.667-34.816 42.667-81.067c0-46.251-18.347-81.067-42.667-81.067zm0 145.066c-10.667 0-25.6-24.32-25.6-64s14.933-64 25.6-64c10.752 0 25.6 24.32 25.6 64 0 39.681-14.933 64-25.6 64zM82.287 222.089H8.644a8.533 8.533 0 0 0-8.533 8.533c1.13 32.101 21.722 60.267 51.968 71.083a8.52 8.52 0 0 0 2.901.512h.085a8.534 8.534 0 0 0 2.901-16.555 60.245 60.245 0 0 1-39.765-46.507h64.085c4.713 0 8.533-3.82 8.533-8.533s-3.819-8.533-8.532-8.533z"/></svg>