<svg xmlns="http://www.w3.org/2000/svg" viewBox="0 0 512.48 512.48"><path d="M418.373 119.947h-42.667a8.533 8.533 0 0 0-8.533 8.533 110.928 110.928 0 0 1-21.163 65.536c-34.19 46.651-98.484 59.205-147.712 28.843a114.703 114.703 0 0 1-10.325-7.253 112.633 112.633 0 0 1-21.163-21.504 110.934 110.934 0 0 1-21.504-65.621 8.533 8.533 0 0 0-8.533-8.533H94.107c-14.139 0-25.6 11.461-25.6 25.6V486.88c0 14.138 11.461 25.6 25.6 25.6h324.267c14.138 0 25.6-11.461 25.6-25.6V145.547c-.001-14.139-11.462-25.6-25.601-25.6zm8.534 366.933a8.533 8.533 0 0 1-8.533 8.533H94.107a8.533 8.533 0 0 1-8.533-8.533V145.547a8.533 8.533 0 0 1 8.533-8.533h34.133a128 128 0 0 0 25.088 66.987 129.694 129.694 0 0 0 24.064 24.832 132.35 132.35 0 0 0 11.861 8.533c41.217 25.447 93.268 25.447 134.485 0a130.035 130.035 0 0 0 36.011-33.195 128.004 128.004 0 0 0 24.491-67.157h34.133a8.533 8.533 0 0 1 8.533 8.533V486.88z"/><path d="M77.04 239.413h349.867v17.067H77.04zM77.04 444.213h349.867v17.067H77.04zM167.152 194.101a110.182 110.182 0 0 1-17.067-33.451 8.534 8.534 0 0 0-6.485-5.888 34.176 34.176 0 0 0-6.827-.683c-18.851 0-34.133 15.282-34.133 34.133s15.282 34.133 34.133 34.133a34.134 34.134 0 0 0 31.232-19.712 8.53 8.53 0 0 0-.853-8.532zm-30.379 11.179c-9.426.33-17.334-7.044-17.664-16.469s7.044-17.334 16.469-17.664a127.03 127.03 0 0 0 14.08 28.245 17.062 17.062 0 0 1-12.885 5.888zM375.707 154.08a34.169 34.169 0 0 0-6.4.853 8.533 8.533 0 0 0-6.485 5.888 110.17 110.17 0 0 1-17.067 33.451 8.531 8.531 0 0 0-.853 8.533 34.132 34.132 0 0 0 30.805 19.541c18.851 0 34.133-15.282 34.133-34.133s-15.282-34.133-34.133-34.133zm0 51.2a17.065 17.065 0 0 1-12.885-5.888 127.05 127.05 0 0 0 14.08-28.245c9.426.33 16.799 8.238 16.469 17.664s-8.239 16.799-17.664 16.469zM150.617 93.97a8.533 8.533 0 0 0-8.894-8.156h-22.016c-14.138 0-25.6 11.462-25.6 25.6v17.067a8.533 8.533 0 0 0 8.533 8.533h34.133a8.533 8.533 0 0 0 8.533-8.533 110.447 110.447 0 0 1 4.949-31.659 8.5 8.5 0 0 0 .362-2.852zm-22.377 25.977h-17.067v-8.533a8.533 8.533 0 0 1 8.533-8.533h10.837a128.184 128.184 0 0 0-2.303 17.066zM392.773 85.813h-21.675a8.534 8.534 0 0 0-8.534 11.008 110.41 110.41 0 0 1 4.608 31.659 8.533 8.533 0 0 0 8.533 8.533h34.133a8.533 8.533 0 0 0 8.533-8.533v-17.067c.002-14.138-11.459-25.6-25.598-25.6zm8.534 34.134H384.24a127.99 127.99 0 0 0-2.56-17.067h11.093a8.533 8.533 0 0 1 8.533 8.533v8.534zM392.773 273.547H119.707c-9.426 0-17.067 7.641-17.067 17.067V410.08c0 9.426 7.641 17.067 17.067 17.067h273.067c9.426 0 17.067-7.641 17.067-17.067V290.613c-.001-9.425-7.642-17.066-17.068-17.066zm0 136.533H119.707V290.613h273.067V410.08z"/><path d="M232.005 354.955l1.28-2.048a42.11 42.11 0 0 0 4.437-10.667 37.983 37.983 0 0 0 0-18.944 30.462 30.462 0 0 0-6.571-12.971 8.548 8.548 0 0 0-12.63 11.52 13.47 13.47 0 0 1 2.645 5.632 20.904 20.904 0 0 1 0 10.411 24.744 24.744 0 0 1-2.645 6.4l-1.109 1.792a44.76 44.76 0 0 0-3.84 7.168 40.702 40.702 0 0 0 4.267 35.499 8.533 8.533 0 0 0 7.424 4.267 8.538 8.538 0 0 0 4.181-1.365 8.533 8.533 0 0 0 3.157-11.605 24.92 24.92 0 0 1-3.072-20.651 30.764 30.764 0 0 1 2.476-4.438zM300.272 354.955l1.28-2.048a42.11 42.11 0 0 0 4.437-10.667 37.983 37.983 0 0 0 0-18.944 30.462 30.462 0 0 0-6.571-12.971 8.548 8.548 0 0 0-12.63 11.52 13.47 13.47 0 0 1 2.645 5.632 20.904 20.904 0 0 1 0 10.411 24.744 24.744 0 0 1-2.645 6.4l-1.109 1.792a44.76 44.76 0 0 0-3.84 7.168 40.702 40.702 0 0 0 4.267 35.499 8.533 8.533 0 0 0 7.424 4.267 8.538 8.538 0 0 0 4.181-1.365 8.533 8.533 0 0 0 3.157-11.605 24.92 24.92 0 0 1-3.072-20.651 30.764 30.764 0 0 1 2.476-4.438zM266.139 354.955l1.28-2.048a42.11 42.11 0 0 0 4.437-10.667 37.983 37.983 0 0 0 0-18.944 30.462 30.462 0 0 0-6.571-12.971 8.548 8.548 0 0 0-12.63 11.52 13.47 13.47 0 0 1 2.645 5.632 20.904 20.904 0 0 1 0 10.411 24.744 24.744 0 0 1-2.645 6.4l-1.109 1.792a44.76 44.76 0 0 0-3.84 7.168 40.702 40.702 0 0 0 4.267 35.499 8.533 8.533 0 0 0 7.424 4.267 8.538 8.538 0 0 0 4.181-1.365 8.533 8.533 0 0 0 3.157-11.605 24.92 24.92 0 0 1-3.072-20.651 30.668 30.668 0 0 1 2.476-4.438zM292.658 5.323C224.887-14.79 153.643 23.845 133.53 91.616A128.003 128.003 0 0 0 153.071 204a129.694 129.694 0 0 0 24.064 24.832 132.35 132.35 0 0 0 11.861 8.533 127.231 127.231 0 0 0 67.243 19.115 127.145 127.145 0 0 0 67.243-19.115 130.035 130.035 0 0 0 36.011-33.195 128 128 0 0 0 24.747-75.691c.198-56.83-37.099-106.986-91.582-123.156zm53.353 188.693c-34.19 46.651-98.484 59.205-147.712 28.843a114.703 114.703 0 0 1-10.325-7.253 112.633 112.633 0 0 1-21.163-21.504 110.934 110.934 0 0 1-21.504-65.621c0-61.267 49.667-110.933 110.933-110.933 49.167-.016 92.553 32.143 106.837 79.189a110.933 110.933 0 0 1-17.066 97.279z"/><path d="M303.344 124.384a68.261 68.261 0 0 0-14.08-18.261 51.2 51.2 0 0 1-15.189-36.608v-1.877c.156-4.515.902-8.99 2.219-13.312a8.533 8.533 0 0 0-12.288-9.984 69.202 69.202 0 0 0-25.6 24.405 68.271 68.271 0 0 0-9.899 30.805 7.681 7.681 0 0 0-4.693 1.195 56.322 56.322 0 0 0-27.21 48.116c-.054 31.105 25.118 56.363 56.223 56.417 23.832-.156 44.986-15.295 52.821-37.803a56.32 56.32 0 0 0-2.304-43.093zm-20.743 50.253c-14.207 16.375-38.998 18.133-55.374 3.926-16.353-14.188-18.126-38.93-3.982-55.306a46.42 46.42 0 0 0 19.256 22.289 8.603 8.603 0 0 0 12.16-.384 8.603 8.603 0 0 0-.384-12.16 51.97 51.97 0 0 1-1.024-55.552 52.632 52.632 0 0 1 3.925-5.632 68.273 68.273 0 0 0 19.968 45.995 54.613 54.613 0 0 1 11.093 13.909 39.253 39.253 0 0 1-5.638 42.915z"/></svg>