<svg xmlns="http://www.w3.org/2000/svg" viewBox="0 0 512.478 512.478"><path d="M418.372 119.944h-42.667a8.533 8.533 0 0 0-8.533 8.533 110.928 110.928 0 0 1-21.163 65.536c-34.19 46.651-98.484 59.205-147.712 28.843a115.807 115.807 0 0 1-10.325-7.253 112.604 112.604 0 0 1-21.163-21.504 110.934 110.934 0 0 1-21.504-65.621 8.533 8.533 0 0 0-8.533-8.533H94.105c-14.139 0-25.6 11.461-25.6 25.6v341.333c0 14.138 11.461 25.6 25.6 25.6h324.267c14.138 0 25.6-11.462 25.6-25.6V145.544c0-14.138-11.461-25.6-25.6-25.6zm8.533 366.934a8.533 8.533 0 0 1-8.533 8.533H94.105a8.533 8.533 0 0 1-8.533-8.533V145.544a8.533 8.533 0 0 1 8.533-8.533h34.133a128 128 0 0 0 25.088 66.987 129.607 129.607 0 0 0 24.064 24.832 131.134 131.134 0 0 0 11.861 8.533c41.217 25.447 93.268 25.447 134.485 0a129.701 129.701 0 0 0 36.011-33.195 128.004 128.004 0 0 0 24.491-67.157h34.133a8.533 8.533 0 0 1 8.533 8.533v341.334z"/><path d="M77.039 239.411h349.867v17.067H77.039zM77.039 444.211h349.867v17.067H77.039zM167.151 194.099a110.069 110.069 0 0 1-17.067-33.451 8.534 8.534 0 0 0-6.485-5.888 34.158 34.158 0 0 0-6.758-.683c-18.851-.019-34.149 15.248-34.168 34.099s15.248 34.149 34.099 34.168a34.134 34.134 0 0 0 31.232-19.712 8.533 8.533 0 0 0-.853-8.533zm-30.379 11.179c-9.426.33-17.334-7.044-17.664-16.469s7.044-17.334 16.469-17.664a127.244 127.244 0 0 0 14.08 28.245 17.072 17.072 0 0 1-12.885 5.888zM410.032 180.71c-4.151-18.389-22.423-29.931-40.812-25.78a8.533 8.533 0 0 0-6.485 5.888 110.092 110.092 0 0 1-17.067 33.451 8.531 8.531 0 0 0-.853 8.533 34.133 34.133 0 0 0 30.891 19.541 34.16 34.16 0 0 0 8.547-.822c18.388-4.15 29.93-22.422 25.779-40.811zm-34.327 24.568a17.065 17.065 0 0 1-12.885-5.888 127.244 127.244 0 0 0 14.08-28.245c9.426.33 16.799 8.238 16.469 17.664s-8.238 16.798-17.664 16.469zM150.616 93.967a8.533 8.533 0 0 0-8.894-8.156h-22.016c-14.138 0-25.6 11.462-25.6 25.6v17.067a8.533 8.533 0 0 0 8.533 8.533h34.133a8.533 8.533 0 0 0 8.533-8.533 110.268 110.268 0 0 1 4.949-31.659 8.497 8.497 0 0 0 .362-2.852zm-22.377 25.977h-17.067v-8.533a8.533 8.533 0 0 1 8.533-8.533h10.837a128.184 128.184 0 0 0-2.303 17.066zM392.772 85.811h-21.675a8.534 8.534 0 0 0-8.534 11.008 110.27 110.27 0 0 1 4.608 31.659 8.533 8.533 0 0 0 8.533 8.533h34.133a8.533 8.533 0 0 0 8.533-8.533v-17.067c.002-14.139-11.459-25.6-25.598-25.6zm8.533 34.133h-17.067a127.99 127.99 0 0 0-2.56-17.067h11.093a8.533 8.533 0 0 1 8.533 8.533v8.534zM392.772 273.544H119.705c-9.426 0-17.067 7.641-17.067 17.067v119.467c0 9.426 7.641 17.067 17.067 17.067h273.067c9.426 0 17.067-7.641 17.067-17.067V290.611c0-9.426-7.641-17.067-17.067-17.067zm0 136.534H119.705V290.611h273.067v119.467z"/><path d="M232.004 355.208l1.28-2.133a41.778 41.778 0 0 0 4.437-10.667 37.709 37.709 0 0 0 0-18.944 30.462 30.462 0 0 0-6.571-12.971 8.534 8.534 0 0 0-12.629 11.435 13.641 13.641 0 0 1 2.645 5.632 20.654 20.654 0 0 1 0 10.411 24.415 24.415 0 0 1-2.645 6.315l-1.109 1.792a44.962 44.962 0 0 0-3.84 7.168 40.62 40.62 0 0 0 4.267 35.499 8.533 8.533 0 0 0 7.424 4.267 8.529 8.529 0 0 0 4.181-1.024 8.533 8.533 0 0 0 3.157-11.605 25.002 25.002 0 0 1-3.072-20.736 30.052 30.052 0 0 1 2.475-4.439zM300.271 355.208l1.28-2.133a41.778 41.778 0 0 0 4.437-10.667 37.709 37.709 0 0 0 0-18.944 30.462 30.462 0 0 0-6.571-12.971 8.533 8.533 0 0 0-12.745-.632 8.533 8.533 0 0 0 .116 12.067 13.641 13.641 0 0 1 2.645 5.632 20.654 20.654 0 0 1 0 10.411 24.415 24.415 0 0 1-2.645 6.315l-1.109 1.792a44.962 44.962 0 0 0-3.84 7.168 40.62 40.62 0 0 0 4.267 35.499 8.533 8.533 0 0 0 7.424 4.267 8.529 8.529 0 0 0 4.181-1.024 8.533 8.533 0 0 0 3.157-11.605 25.002 25.002 0 0 1-3.072-20.736 29.962 29.962 0 0 1 2.475-4.439zM266.137 355.208l1.28-2.133a41.778 41.778 0 0 0 4.437-10.667 37.709 37.709 0 0 0 0-18.944 30.462 30.462 0 0 0-6.571-12.971 8.534 8.534 0 0 0-12.629 11.435 13.641 13.641 0 0 1 2.645 5.632 20.654 20.654 0 0 1 0 10.411 24.415 24.415 0 0 1-2.645 6.315l-1.109 1.792a44.962 44.962 0 0 0-3.84 7.168 40.62 40.62 0 0 0 4.267 35.499 8.533 8.533 0 0 0 7.424 4.267 8.529 8.529 0 0 0 4.181-1.024 8.533 8.533 0 0 0 3.157-11.605 25.002 25.002 0 0 1-3.072-20.736 30.144 30.144 0 0 1 2.475-4.439zM378.948 91.614a128 128 0 0 0-86.289-86.289c-67.77-20.114-139.015 18.519-159.129 86.289a128.003 128.003 0 0 0 19.541 112.384 129.607 129.607 0 0 0 24.064 24.832 131.134 131.134 0 0 0 11.861 8.533 127.231 127.231 0 0 0 67.243 19.115 127.145 127.145 0 0 0 67.243-19.115 129.701 129.701 0 0 0 36.011-33.195 128 128 0 0 0 19.455-112.554zm-32.939 102.4c-34.19 46.651-98.484 59.205-147.712 28.843a115.807 115.807 0 0 1-10.325-7.253 112.604 112.604 0 0 1-21.163-21.504 110.934 110.934 0 0 1-21.504-65.621c0-61.267 49.667-110.933 110.933-110.933 49.167-.016 92.553 32.143 106.837 79.189a110.927 110.927 0 0 1-17.066 97.279z"/><path d="M256.239 85.811c-23.564 0-42.667 19.103-42.667 42.667s19.102 42.667 42.667 42.667 42.667-19.103 42.667-42.667-19.103-42.667-42.667-42.667zm0 68.267c-14.138 0-25.6-11.462-25.6-25.6s11.461-25.6 25.6-25.6c14.138 0 25.6 11.461 25.6 25.6s-11.462 25.6-25.6 25.6z"/><path d="M256.239 36.147a8.533 8.533 0 0 0-8.533 8.533v49.664a8.533 8.533 0 0 0 8.533 8.533 8.533 8.533 0 0 0 8.533-8.533V44.68a8.533 8.533 0 0 0-8.533-8.533zM310.425 170.718l-22.613-22.613a8.533 8.533 0 0 0-12.032 12.032l22.613 22.613a8.534 8.534 0 0 0 6.059 2.475l-.085.085a8.533 8.533 0 0 0 6.058-14.592z"/></svg>