<svg xmlns="http://www.w3.org/2000/svg" viewBox="0 0 469.333 469.333"><path d="M452.267 225.579h-76.8a127.989 127.989 0 0 0-25.6-25.6c-56.554-42.415-136.785-30.954-179.2 25.6H128c-70.571 0-128 53.589-128 119.467v25.6c0 9.426 7.641 17.067 17.067 17.067h51.2c9.426 0 17.067-7.641 17.067-17.067v-25.6c0-18.859 19.115-34.133 42.667-34.133h17.067c4.499 67.34 60.51 119.617 128 119.467 67.49.15 123.501-52.127 128-119.467h51.2c9.426 0 17.067-7.641 17.067-17.067v-51.2c-.002-9.427-7.643-17.067-17.068-17.067zm0 68.266h-59.733a8.533 8.533 0 0 0-8.533 8.533c0 61.267-49.667 110.933-110.933 110.933s-110.933-49.667-110.933-110.933a8.533 8.533 0 0 0-8.533-8.533H128c-32.939 0-59.733 22.955-59.733 51.2v25.6h-51.2v-25.6c0-56.491 49.749-102.4 110.933-102.4h47.104a8.534 8.534 0 0 0 6.997-3.669 110.928 110.928 0 0 1 27.471-27.471c50.239-35.067 119.393-22.768 154.46 27.471a8.533 8.533 0 0 0 6.997 3.669h81.237v51.2z"/><path d="M307.2 140.245h-76.8a8.533 8.533 0 0 0-8.533 8.533v42.667h17.067v-34.133h59.733v34.133h17.067v-42.667a8.535 8.535 0 0 0-8.534-8.533zM268.8 38.954c-16.495 0-29.867 13.372-29.867 29.867v71.424H256V68.821c0-7.069 5.731-12.8 12.8-12.8 7.069 0 12.8 5.731 12.8 12.8v71.424h17.067V68.821c0-16.495-13.372-29.867-29.867-29.867zM273.067 208.512a8.533 8.533 0 0 0-8.533 8.533v170.667c0 4.713 3.82 8.533 8.533 8.533s8.533-3.82 8.533-8.533V217.045a8.533 8.533 0 0 0-8.533-8.533z"/><path d="M277.845 235.563l-25.6-17.067a8.533 8.533 0 1 0-9.472 14.165l25.6 17.067a8.534 8.534 0 0 0 4.693 1.451 8.532 8.532 0 0 0 4.779-15.616z"/><path d="M305.837 220.186a8.534 8.534 0 0 0-11.949-1.69l-25.6 17.067a8.533 8.533 0 0 0 4.778 15.616 8.532 8.532 0 0 0 4.693-1.451l25.6-17.067a8.533 8.533 0 0 0 2.478-12.475zM279.976 358.032a8.533 8.533 0 0 0-11.688-3.003l-25.6 17.067a8.533 8.533 0 0 0 4.778 15.616 8.532 8.532 0 0 0 4.693-1.451l25.6-17.067a8.531 8.531 0 0 0 2.217-11.162z"/><path d="M303.445 372.096l-25.6-17.067a8.533 8.533 0 1 0-9.472 14.165l25.6 17.067a8.534 8.534 0 0 0 4.693 1.451 8.532 8.532 0 0 0 4.779-15.616zM358.4 293.845H187.733c-4.713 0-8.533 3.82-8.533 8.533s3.82 8.533 8.533 8.533H358.4c4.713 0 8.533-3.82 8.533-8.533s-3.82-8.533-8.533-8.533z"/><path d="M217.939 294.682a8.533 8.533 0 0 0-11.688 3.003l-17.067 25.6a8.533 8.533 0 0 0 7.082 13.226 8.535 8.535 0 0 0 7.083-3.755l17.067-25.6a8.533 8.533 0 0 0-2.477-12.474z"/><path d="M220.416 297.6L203.349 272a8.534 8.534 0 1 0-14.165 9.472l17.067 25.6a8.534 8.534 0 0 0 7.083 3.84 8.534 8.534 0 0 0 7.082-13.312zM356.949 323.2l-17.067-25.6a8.534 8.534 0 1 0-14.165 9.472l17.067 25.6a8.534 8.534 0 0 0 7.083 3.84 8.532 8.532 0 0 0 7.082-13.312z"/><path d="M354.472 269.082a8.533 8.533 0 0 0-11.688 3.003l-17.067 25.6a8.533 8.533 0 0 0 7.082 13.226 8.535 8.535 0 0 0 7.083-3.755l17.067-25.6c.19-.252.365-.515.526-.787 2.399-4.055 1.054-9.288-3.003-11.687zM321.707 339.072l-85.333-85.333a8.533 8.533 0 0 0-12.032 12.032l85.333 85.333a8.534 8.534 0 0 0 6.059 2.475 8.533 8.533 0 0 0 5.973-14.507z"/><path d="M321.707 254.584a8.533 8.533 0 0 0-12.032-.931l-85.333 85.333a8.534 8.534 0 0 0 6.059 14.592 8.53 8.53 0 0 0 5.973-2.56l85.333-85.333a8.533 8.533 0 0 0 0-11.101zM247.467 71.979h-34.133a63.658 63.658 0 0 0-42.667-17.067C147.103 54.912 128 74.014 128 97.579s19.103 42.667 42.667 42.667a63.66 63.66 0 0 0 42.667-17.067h34.133a8.533 8.533 0 0 0 8.533-8.533V80.512a8.533 8.533 0 0 0-8.533-8.533zm-8.534 34.133H208.81a8.533 8.533 0 0 0-7.424 4.267c-3.755 6.315-19.2 12.8-30.72 12.8-14.139 0-25.6-11.461-25.6-25.6s11.461-25.6 25.6-25.6c11.52 0 26.965 6.485 30.635 12.8a8.533 8.533 0 0 0 7.424 4.267h30.208v17.066zM366.933 54.912a63.66 63.66 0 0 0-42.667 17.067h-34.133a8.533 8.533 0 0 0-8.533 8.533v34.133a8.533 8.533 0 0 0 8.533 8.533h34.133a63.658 63.658 0 0 0 42.667 17.067c23.564 0 42.667-19.103 42.667-42.667s-19.102-42.666-42.667-42.666zm.086 68.266c-11.52 0-27.051-6.485-30.72-12.8a8.533 8.533 0 0 0-7.424-4.267h-30.208V89.045h30.208a8.533 8.533 0 0 0 7.424-4.267c3.755-6.315 19.2-12.8 30.72-12.8 14.138 0 25.6 11.461 25.6 25.6s-11.462 25.6-25.6 25.6z"/></svg>