<svg xmlns="http://www.w3.org/2000/svg" viewBox="0 0 512.454 512.454"><path d="M508.083 395.504a8.637 8.637 0 0 0-11.776 3.243 276.664 276.664 0 0 1-83.2 93.867 8.534 8.534 0 0 0 4.95 15.531 8.532 8.532 0 0 0 4.864-1.536 293.804 293.804 0 0 0 88.405-99.328 8.639 8.639 0 0 0-3.243-11.777zM480.733 372.507a8.547 8.547 0 0 0-11.477 3.797 240.824 240.824 0 0 1-89.429 97.707 8.534 8.534 0 0 0 4.096 15.445 8.534 8.534 0 0 0 4.779-1.28 257.96 257.96 0 0 0 95.829-104.192 8.548 8.548 0 0 0-3.798-11.477zM99.507 492.613a276.646 276.646 0 0 1-83.2-93.867 8.638 8.638 0 0 0-15.019 8.533 293.809 293.809 0 0 0 88.32 99.328 8.534 8.534 0 0 0 4.949 1.536 8.533 8.533 0 0 0 4.95-15.53zM132.701 474.011a240.805 240.805 0 0 1-90.112-97.707 8.534 8.534 0 1 0-14.934 7.68 257.881 257.881 0 0 0 95.829 104.192 8.54 8.54 0 0 0 4.437 1.28 8.53 8.53 0 0 0 6.693-3.53 8.53 8.53 0 0 0-1.913-11.915z"/><path d="M256.067 4.31C114.682 4.277.041 118.866.008 260.251a17.068 17.068 0 0 0 4.693 12.288 17.065 17.065 0 0 0 12.288 5.205h17.067c4.588 119.189 102.59 213.422 221.867 213.333 119.366.31 217.497-94.047 221.867-213.333h17.067a17.068 17.068 0 0 0 12.459-5.205 17.064 17.064 0 0 0 4.693-12.288C511.975 118.912 397.406 4.343 256.067 4.31zm221.722 256.367c-9.229-.004-16.79 7.33-17.067 16.555-3.797 91.025-67.03 168.704-155.392 190.891a207.945 207.945 0 0 1-98.133 0c-88.632-21.929-152.193-99.669-156.075-190.891-.277-9.225-7.837-16.559-17.067-16.555H16.989c0-131.959 106.974-238.933 238.933-238.933s238.933 106.974 238.933 238.933h-17.066z"/><path d="M315.656 474.011c0-32.99-26.744-59.733-59.733-59.733s-59.733 26.744-59.733 59.733a30.544 30.544 0 0 0 .085 3.328 8.533 8.533 0 0 0 6.485 7.339 224.123 224.123 0 0 0 53.163 6.4 224.1 224.1 0 0 0 53.248-6.4 8.533 8.533 0 0 0 6.485-7.339c.062-1.109.062-2.22 0-3.328zm-102.4-4.352c2.027-20.194 17.998-36.165 38.192-38.192 23.446-2.353 44.361 14.746 46.715 38.192a208.037 208.037 0 0 1-84.907 0zM457.992 176.88l-1.195-2.645A221.869 221.869 0 0 0 351.191 68.629C240.44 16.202 108.158 63.483 55.731 174.235l-1.195 2.645a17.068 17.068 0 0 0-1.5 7.047c.027 9.426 7.691 17.044 17.116 17.017h19.029a17.065 17.065 0 0 0 15.104-9.301 170.665 170.665 0 0 1 74.454-74.454c83.959-42.839 186.749-9.505 229.588 74.454a17.067 17.067 0 0 0 15.104 9.301h18.944a17.064 17.064 0 0 0 7.047-1.5c8.598-3.865 12.435-13.967 8.57-22.564zm-34.475 6.997a187.735 187.735 0 0 0-81.736-81.736c-92.324-47.183-205.417-10.589-252.6 81.736H70.067l1.109-2.389c34.068-71.196 105.821-116.667 184.747-117.077 79.153.133 151.23 45.608 185.429 116.992l1.109 2.475h-18.944z"/><path d="M372.061 214.427a127.999 127.999 0 0 0-60.722-60.722c-63.859-30.323-140.208-3.136-170.531 60.722a126.282 126.282 0 0 0-12.373 54.869v9.045a125.618 125.618 0 0 0 8.021 36.608 127.494 127.494 0 0 0 29.867 45.568c3.3 3.291 6.806 6.369 10.496 9.216a131.557 131.557 0 0 0 11.776 8.533l3.243 1.877a126.547 126.547 0 0 0 64.085 17.067 125.87 125.87 0 0 0 64-16.725c1.28-.597 2.56-1.365 3.669-2.048a131.9 131.9 0 0 0 11.776-8.533 110.42 110.42 0 0 0 10.496-9.216 127.994 127.994 0 0 0 30.037-45.739 125.16 125.16 0 0 0 8.021-36.437v-9.301a126.177 126.177 0 0 0-11.861-54.784zm-5.205 62.805a108.215 108.215 0 0 1-8.021 31.403 110.93 110.93 0 0 1-26.112 39.68 93.862 93.862 0 0 1-8.96 7.851 113.818 113.818 0 0 1-10.325 7.253l-2.731 1.536a111.613 111.613 0 0 1-110.933 0l-2.304-1.365a113.953 113.953 0 0 1-10.411-7.253 91.05 91.05 0 0 1-8.96-7.851 110.924 110.924 0 0 1-26.112-39.595 108.762 108.762 0 0 1-6.997-31.915v-7.765a109.305 109.305 0 0 1 10.667-47.531c18.479-38.631 57.444-63.27 100.267-63.403 42.823.133 81.788 24.772 100.267 63.403a109.242 109.242 0 0 1 10.667 47.531c-.002 2.645-.002 5.205-.002 8.021zM255.923 448.411a8.533 8.533 0 0 0-8.533 8.533v25.6a8.533 8.533 0 0 0 8.533 8.533 8.533 8.533 0 0 0 8.533-8.533v-25.6a8.533 8.533 0 0 0-8.533-8.533z"/><path d="M321.033 219.556a8.533 8.533 0 0 0-11.948 1.697l-62.976 78.677-36.011-28.843a8.534 8.534 0 0 0-10.667 13.312l42.667 34.133a8.53 8.53 0 0 0 5.291 1.877 8.533 8.533 0 0 0 6.741-3.157l68.267-85.333a8.532 8.532 0 0 0-1.364-12.363z"/></svg>