<svg xmlns="http://www.w3.org/2000/svg" viewBox="0 0 512.637 512.637"><path d="M508.265 395.66a8.637 8.637 0 0 0-11.776 3.243 276.664 276.664 0 0 1-83.2 93.867 8.534 8.534 0 0 0 4.95 15.531 8.536 8.536 0 0 0 4.523-1.536 293.902 293.902 0 0 0 88.747-99.328 8.64 8.64 0 0 0-3.244-11.777zM480.916 372.663a8.547 8.547 0 0 0-11.477 3.797 240.735 240.735 0 0 1-89.771 97.707 8.533 8.533 0 0 0 4.437 15.445 8.537 8.537 0 0 0 4.437-1.28 257.798 257.798 0 0 0 96.171-104.192 8.547 8.547 0 0 0-3.797-11.477zM99.348 492.769a276.646 276.646 0 0 1-83.2-93.867 8.638 8.638 0 0 0-15.019 8.533 293.891 293.891 0 0 0 87.893 99.328 8.534 8.534 0 0 0 4.949 1.536 8.532 8.532 0 0 0 5.377-15.53zM132.542 474.167a240.723 240.723 0 0 1-89.771-97.707c-2.121-4.218-7.259-5.918-11.477-3.797s-5.918 7.259-3.797 11.477a257.798 257.798 0 0 0 96.171 104.192 8.54 8.54 0 0 0 4.437 1.28 8.532 8.532 0 0 0 4.437-15.445z"/><path d="M256.105 4.321c-141.385 0-256 114.615-256 256a17.064 17.064 0 0 0 4.779 12.373 17.065 17.065 0 0 0 12.288 5.205h17.067c4.588 119.189 102.59 213.422 221.867 213.333 119.366.31 217.497-94.047 221.867-213.333h17.067a17.066 17.066 0 0 0 12.288-5.291 17.066 17.066 0 0 0 4.779-12.288C512.105 118.936 397.49 4.321 256.105 4.321zm221.867 256.512c-9.229-.004-16.79 7.33-17.067 16.555-3.839 91.123-67.237 168.833-155.733 190.891a208.126 208.126 0 0 1-98.133 0c-88.497-22.058-151.894-99.767-155.733-190.891-.277-9.225-7.837-16.559-17.067-16.555H17.172C17.172 128.874 124.146 21.9 256.105 21.9s238.933 106.974 238.933 238.933h-17.066z"/><path d="M315.838 474.167c0-32.99-26.744-59.733-59.733-59.733s-59.733 26.744-59.733 59.733a30.544 30.544 0 0 0 .085 3.328 8.533 8.533 0 0 0 6.485 7.339 224.02 224.02 0 0 0 53.163 6.4 223.996 223.996 0 0 0 53.248-6.4 8.533 8.533 0 0 0 6.485-7.339c.061-1.109.061-2.22 0-3.328zm-102.4-4.352c2.027-20.194 17.998-36.165 38.192-38.192 23.446-2.353 44.361 14.746 46.715 38.192a208.071 208.071 0 0 1-84.907 0zM457.833 177.121l-1.195-2.645A221.869 221.869 0 0 0 351.032 68.87c-110.751-52.427-243.033-5.146-295.46 105.606l-1.195 2.56a17.068 17.068 0 0 0-1.5 7.047c.028 9.426 7.691 17.044 17.116 17.017h19.029a17.067 17.067 0 0 0 15.104-9.301 170.665 170.665 0 0 1 74.454-74.454c83.959-42.839 186.749-9.505 229.588 74.454a17.065 17.065 0 0 0 15.104 9.301h18.944a17.076 17.076 0 0 0 6.924-1.462c8.619-3.818 12.51-13.899 8.693-22.517zm-34.475 6.912a187.735 187.735 0 0 0-81.736-81.736c-92.324-47.183-205.417-10.589-252.6 81.736H69.908l1.109-2.389c34.121-71.307 106.039-116.798 185.088-117.077 79.036.243 150.958 45.704 185.088 116.992l1.109 2.475h-18.944z"/><path d="M371.817 214.497a127.997 127.997 0 0 0-60.855-60.855c-63.882-30.273-140.211-3.027-170.484 60.855a126.37 126.37 0 0 0-12.373 54.869v9.045a125.51 125.51 0 0 0 8.533 36.693 127.989 127.989 0 0 0 29.867 45.568 110.951 110.951 0 0 0 10.496 9.216 129.815 129.815 0 0 0 11.776 8.533l3.243 1.877a126.547 126.547 0 0 0 64.085 17.067 125.783 125.783 0 0 0 63.488-16.725c1.28-.597 2.56-1.365 3.669-2.048a127.983 127.983 0 0 0 11.776-8.533 110.951 110.951 0 0 0 10.496-9.216 127.994 127.994 0 0 0 30.037-45.739 124.996 124.996 0 0 0 8.533-36.437v-9.301a126.374 126.374 0 0 0-12.287-54.869zm-4.779 62.891a108.356 108.356 0 0 1-7.595 31.573 110.93 110.93 0 0 1-26.112 39.68 93.341 93.341 0 0 1-8.96 7.851 114.856 114.856 0 0 1-10.752 7.083l-2.731 1.536a111.613 111.613 0 0 1-110.933 0l-2.304-1.365a116.625 116.625 0 0 1-10.411-7.253 93.066 93.066 0 0 1-8.96-7.851 110.924 110.924 0 0 1-26.112-39.595 108.897 108.897 0 0 1-6.997-31.915v-7.765a109.394 109.394 0 0 1 10.667-47.531c18.479-38.631 57.444-63.27 100.267-63.403 42.823.133 81.788 24.772 100.267 63.403a109.394 109.394 0 0 1 10.667 47.531l-.001 8.021zM256.105 448.567a8.533 8.533 0 0 0-8.533 8.533v25.6a8.533 8.533 0 0 0 8.533 8.533 8.533 8.533 0 0 0 8.533-8.533v-25.6a8.533 8.533 0 0 0-8.533-8.533z"/><path d="M310.121 243.767a59.734 59.734 0 0 0-24.235-26.112 8.534 8.534 0 1 0-8.534 14.763 42.668 42.668 0 0 1 17.067 18.688c7.781 16.379 4.358 35.887-8.533 48.64a30.972 30.972 0 0 1-3.072 2.731l-3.413 2.475-2.475 1.451a41.982 41.982 0 0 1-41.728 0l-1.963-1.109c-1.365-.853-2.389-1.621-3.499-2.475a29.24 29.24 0 0 1-2.901-2.475 42.667 42.667 0 0 1-13.397-30.976 41.55 41.55 0 0 1 4.267-18.261 43.088 43.088 0 0 1 17.067-18.773 8.532 8.532 0 0 0 3.246-12.139 8.532 8.532 0 0 0-11.779-2.623 59.734 59.734 0 0 0-24.149 26.197 58.436 58.436 0 0 0-5.717 25.6 59.223 59.223 0 0 0 18.432 43.008 45.988 45.988 0 0 0 4.352 3.84 59.612 59.612 0 0 0 5.205 3.669l2.304 1.28a57.423 57.423 0 0 0 29.44 7.936 57.35 57.35 0 0 0 29.355-7.765l2.816-1.621c1.707-1.109 3.243-2.219 5.035-3.584a45.219 45.219 0 0 0 4.608-4.096c18.211-17.826 23.111-45.241 12.201-68.269z"/><path d="M256.105 201.1a8.533 8.533 0 0 0-8.533 8.533v34.133a8.533 8.533 0 0 0 8.533 8.533 8.533 8.533 0 0 0 8.533-8.533v-34.133a8.533 8.533 0 0 0-8.533-8.533z"/></svg>