<svg xmlns="http://www.w3.org/2000/svg" viewBox="0 0 512.284 512.284"><path d="M507.838 395.488a8.637 8.637 0 0 0-11.776 3.243 276.664 276.664 0 0 1-83.2 93.867 8.534 8.534 0 0 0 4.95 15.531 8.532 8.532 0 0 0 4.949-1.536 293.809 293.809 0 0 0 88.32-99.328 8.638 8.638 0 0 0-3.243-11.777zM481.086 372.491a8.547 8.547 0 0 0-11.477 3.797 240.818 240.818 0 0 1-89.941 97.707 8.533 8.533 0 0 0 4.608 15.445 8.532 8.532 0 0 0 4.267-1.28 257.96 257.96 0 0 0 96.341-104.192 8.549 8.549 0 0 0-3.798-11.477zM99.348 492.597a276.646 276.646 0 0 1-83.2-93.867 8.638 8.638 0 0 0-15.019 8.533 293.802 293.802 0 0 0 88.064 99.328 8.534 8.534 0 0 0 4.949 1.536 8.532 8.532 0 0 0 5.206-15.53zM132.542 473.995a240.803 240.803 0 0 1-89.6-97.707 8.626 8.626 0 0 0-15.446 7.68 257.881 257.881 0 0 0 96.341 104.192 8.54 8.54 0 0 0 4.437 1.28 8.532 8.532 0 0 0 4.268-15.445z"/><path d="M256.276 4.149c-141.385 0-256 114.615-256 256a17.064 17.064 0 0 0 4.779 12.373 17.065 17.065 0 0 0 12.288 5.205H34.41C38.998 396.916 137 491.149 256.277 491.06c119.366.31 217.497-94.047 221.867-213.333h17.067a17.063 17.063 0 0 0 12.373-5.291 17.064 17.064 0 0 0 4.693-12.288C512.276 118.764 397.661 4.149 256.276 4.149zm221.866 256.512c-9.229-.004-16.79 7.33-17.067 16.555-3.861 91.172-67.34 168.897-155.904 190.891a208.126 208.126 0 0 1-98.133 0C118.609 445.984 55.294 368.29 51.476 277.216c-.277-9.225-7.837-16.559-17.067-16.555H17.342c0-131.959 106.974-238.933 238.933-238.933s238.933 106.974 238.933 238.933h-17.066z"/><path d="M316.009 473.995c0-32.99-26.744-59.733-59.733-59.733s-59.733 26.744-59.733 59.733a30.049 30.049 0 0 0 .085 3.328 8.533 8.533 0 0 0 6.485 7.339 224.123 224.123 0 0 0 53.163 6.4 224.1 224.1 0 0 0 53.248-6.4 8.533 8.533 0 0 0 6.485-7.339c.062-1.109.062-2.22 0-3.328zm-102.4-4.352c2.027-20.194 17.998-36.165 38.192-38.192 23.446-2.353 44.361 14.746 46.715 38.192a208.071 208.071 0 0 1-84.907 0zM457.833 176.864l-1.195-2.645A221.869 221.869 0 0 0 351.032 68.613c-110.751-52.427-243.033-5.146-295.46 105.606l-1.195 2.645a17.068 17.068 0 0 0-1.5 7.047c.028 9.426 7.691 17.044 17.116 17.017h19.029a17.065 17.065 0 0 0 15.104-9.301 170.665 170.665 0 0 1 74.454-74.454c83.959-42.839 186.749-9.505 229.588 74.454a17.065 17.065 0 0 0 15.104 9.301h18.944a17.064 17.064 0 0 0 7.047-1.5c8.598-3.865 12.435-13.967 8.57-22.564zm-34.475 6.997a187.735 187.735 0 0 0-81.736-81.736c-92.324-47.183-205.417-10.589-252.6 81.736H69.908l1.109-2.389C105.165 110.11 177.164 64.609 256.276 64.395c78.968.329 150.798 45.774 184.917 116.992l1.109 2.475h-18.944z"/><path d="M371.902 214.325a127.999 127.999 0 0 0-60.722-60.722c-63.859-30.323-140.208-3.136-170.531 60.722a126.282 126.282 0 0 0-12.373 54.869v9.045a125.605 125.605 0 0 0 8.533 36.693A127.495 127.495 0 0 0 166.59 360.5c3.3 3.291 6.806 6.369 10.496 9.216a131.81 131.81 0 0 0 11.861 8.533l3.243 1.877a126.547 126.547 0 0 0 64.085 17.067c22.27.14 44.178-5.632 63.488-16.725 1.28-.597 2.56-1.365 3.669-2.048a131.9 131.9 0 0 0 11.776-8.533 110.42 110.42 0 0 0 10.496-9.216 127.994 127.994 0 0 0 30.037-45.739 125.172 125.172 0 0 0 8.533-36.437v-9.301a126.179 126.179 0 0 0-12.372-54.869zm-5.29 62.806a108.214 108.214 0 0 1-6.997 31.659 110.93 110.93 0 0 1-26.112 39.68 91.546 91.546 0 0 1-8.96 7.851 113.556 113.556 0 0 1-10.752 6.997l-2.731 1.536a111.613 111.613 0 0 1-110.933 0l-2.304-1.365a113.953 113.953 0 0 1-10.411-7.253 91.05 91.05 0 0 1-8.96-7.851 110.924 110.924 0 0 1-26.112-39.595 108.603 108.603 0 0 1-6.997-31.829v-7.765a109.305 109.305 0 0 1 10.667-47.531c18.479-38.631 57.444-63.27 100.267-63.403 42.587.345 81.26 24.913 99.669 63.317a109.242 109.242 0 0 1 10.667 47.531l-.001 8.021zM256.276 448.395a8.533 8.533 0 0 0-8.533 8.533v25.6a8.533 8.533 0 0 0 8.533 8.533 8.533 8.533 0 0 0 8.533-8.533v-25.6a8.533 8.533 0 0 0-8.533-8.533z"/><path d="M211.134 200.928v23.467a59.732 59.732 0 0 0 37.035 52.736l1.536.597h13.141l1.536-.597a59.735 59.735 0 0 0 37.035-52.736v-23.467h-90.283zm73.216 23.467a42.668 42.668 0 0 1-24.917 36.267h-6.229a42.667 42.667 0 0 1-25.003-36.267v-6.4h56.149v6.4z"/><path d="M307.476 200.928h-14.592a8.533 8.533 0 0 0 0 17.066h14.592a8.533 8.533 0 0 0 0-17.066zM264.382 261.259l-1.536-.597h-13.141l-1.536.597a59.735 59.735 0 0 0-37.035 52.736v23.467h90.283v-23.467a59.731 59.731 0 0 0-37.035-52.736zm19.968 59.136h-56.064l-.085-6.4a42.668 42.668 0 0 1 24.917-36.267h6.229a42.667 42.667 0 0 1 25.003 36.267v6.4z"/><path d="M307.476 320.395h-14.592a8.533 8.533 0 0 0 0 17.066h14.592a8.533 8.533 0 0 0 0-17.066zM219.668 200.928h-14.592a8.533 8.533 0 0 0 0 17.066h14.592a8.533 8.533 0 0 0 0-17.066zM219.668 320.395h-14.592a8.533 8.533 0 0 0 0 17.066h14.592a8.533 8.533 0 0 0 0-17.066z"/></svg>