<svg xmlns="http://www.w3.org/2000/svg" viewBox="0 0 512 512"><path d="M409.6 0H102.4C83.549 0 68.267 15.282 68.267 34.133v409.6c0 18.851 15.282 34.133 34.133 34.133h307.2c18.851 0 34.133-15.282 34.133-34.133v-409.6C443.733 15.282 428.451 0 409.6 0zm17.067 443.733c0 9.426-7.641 17.067-17.067 17.067H102.4c-9.426 0-17.067-7.641-17.067-17.067v-409.6c0-9.426 7.641-17.067 17.067-17.067h307.2c9.426 0 17.067 7.641 17.067 17.067v409.6z"/><path d="M430.933 110.933H81.067c-4.713 0-8.533 3.82-8.533 8.533S76.354 128 81.067 128h349.867a8.534 8.534 0 0 0-.001-17.067zM379.733 34.133c-16.495 0-29.867 13.372-29.867 29.867s13.372 29.867 29.867 29.867S409.6 80.495 409.6 64s-13.372-29.867-29.867-29.867zm0 42.667c-7.069 0-12.8-5.731-12.8-12.8 0-7.069 5.731-12.8 12.8-12.8 7.069 0 12.8 5.731 12.8 12.8 0 7.069-5.73 12.8-12.8 12.8zM132.267 34.133C115.772 34.133 102.4 47.505 102.4 64s13.372 29.867 29.867 29.867S162.134 80.495 162.134 64c-.001-16.495-13.372-29.867-29.867-29.867zm0 42.667c-7.069 0-12.8-5.731-12.8-12.8 0-7.069 5.731-12.8 12.8-12.8 7.069 0 12.8 5.731 12.8 12.8 0 7.069-5.731 12.8-12.8 12.8z"/><path d="M187.733 0a8.533 8.533 0 0 0-8.533 8.533v110.933c0 4.713 3.82 8.533 8.533 8.533s8.533-3.82 8.533-8.533V8.533A8.532 8.532 0 0 0 187.733 0zM324.267 0a8.533 8.533 0 0 0-8.533 8.533v110.933c0 4.713 3.82 8.533 8.533 8.533s8.533-3.82 8.533-8.533V8.533A8.533 8.533 0 0 0 324.267 0zM179.2 460.8h-68.267a8.533 8.533 0 0 0-8.533 8.533V486.4c0 14.138 11.461 25.6 25.6 25.6h34.133c14.138 0 25.6-11.461 25.6-25.6v-17.067a8.533 8.533 0 0 0-8.533-8.533zm-8.533 25.6a8.533 8.533 0 0 1-8.533 8.533H128a8.533 8.533 0 0 1-8.533-8.533v-8.533h51.2v8.533zM401.067 460.8H332.8a8.533 8.533 0 0 0-8.533 8.533V486.4c0 14.138 11.462 25.6 25.6 25.6H384c14.138 0 25.6-11.461 25.6-25.6v-17.067a8.533 8.533 0 0 0-8.533-8.533zm-8.534 25.6a8.533 8.533 0 0 1-8.533 8.533h-34.133a8.533 8.533 0 0 1-8.533-8.533v-8.533h51.2v8.533zM285.867 51.2h-59.733c-4.713 0-8.533 3.82-8.533 8.533s3.82 8.533 8.533 8.533h59.733c4.713 0 8.533-3.82 8.533-8.533s-3.82-8.533-8.533-8.533zM219.996 185.779c57.916-19.983 121.066 10.768 141.049 68.685a8.533 8.533 0 1 0 16.127-5.461c-17.627-51.946-66.394-86.886-121.25-86.869-70.692.021-127.983 57.346-127.962 128.038S185.308 418.155 256 418.133c51.385.168 97.89-30.409 118.101-77.653a8.543 8.543 0 0 0-4.48-11.221 8.543 8.543 0 0 0-11.221 4.48 110.931 110.931 0 0 1-66.039 61.774c-57.916 19.983-121.066-10.768-141.049-68.685-19.983-57.916 10.768-121.066 68.684-141.049z"/><path d="M392.533 243.2H358.4c-14.138 0-25.6 11.461-25.6 25.6V320c0 14.138 11.462 25.6 25.6 25.6h34.133c9.426 0 17.067-7.641 17.067-17.067v-68.267c0-9.425-7.641-17.066-17.067-17.066zm0 85.333H358.4a8.533 8.533 0 0 1-8.533-8.533v-51.2a8.533 8.533 0 0 1 8.533-8.533h34.133v68.266zM119.467 426.667h-8.533c-4.713 0-8.533 3.82-8.533 8.533s3.82 8.533 8.533 8.533h8.533a8.533 8.533 0 0 0 0-17.066zM196.267 426.667H153.6a8.533 8.533 0 0 0 0 17.066h42.667a8.533 8.533 0 0 0 0-17.066zM310.016 264.533a59.733 59.733 0 0 0-28.514-28.514c-29.832-14.084-65.434-1.318-79.518 28.514a58.436 58.436 0 0 0-5.717 25.6 59.226 59.226 0 0 0 18.517 43.179 46.135 46.135 0 0 0 4.352 3.755 61.951 61.951 0 0 0 5.12 3.584l2.304 1.28a57.423 57.423 0 0 0 29.44 7.936 57.34 57.34 0 0 0 29.44-7.851l2.731-1.621c1.621-1.024 3.243-2.219 5.035-3.584a46.73 46.73 0 0 0 4.608-4.011c18.212-17.823 23.112-45.238 12.202-68.267zm-24.235 56.064a31.1 31.1 0 0 1-3.072 2.731l-3.413 2.475-2.475 1.365a41.982 41.982 0 0 1-41.728 0l-1.963-1.109c-1.365-.853-2.389-1.621-3.499-2.475a30.41 30.41 0 0 1-2.901-2.475 42.667 42.667 0 0 1-13.397-30.976 41.637 41.637 0 0 1 4.011-18.091A42.666 42.666 0 0 1 256 247.466a42.667 42.667 0 0 1 38.315 24.491c7.78 16.38 4.358 35.888-8.534 48.64z"/><path d="M256 264.533a8.533 8.533 0 0 0-8.533 8.533V307.2c0 4.713 3.82 8.533 8.533 8.533s8.533-3.82 8.533-8.533v-34.133a8.533 8.533 0 0 0-8.533-8.534z"/></svg>