<svg xmlns="http://www.w3.org/2000/svg" viewBox="0 0 512 512"><path d="M409.6 0H102.4C83.549 0 68.267 15.282 68.267 34.133v409.6c0 18.851 15.282 34.133 34.133 34.133h307.2c18.851 0 34.133-15.282 34.133-34.133v-409.6C443.733 15.282 428.451 0 409.6 0zm17.067 443.733c0 9.426-7.641 17.067-17.067 17.067H102.4c-9.426 0-17.067-7.641-17.067-17.067v-409.6c0-9.426 7.641-17.067 17.067-17.067h307.2c9.426 0 17.067 7.641 17.067 17.067v409.6z"/><path d="M430.933 110.933H81.067c-4.713 0-8.533 3.82-8.533 8.533S76.354 128 81.067 128h349.867a8.534 8.534 0 0 0-.001-17.067zM379.733 34.133c-16.495 0-29.867 13.372-29.867 29.867s13.372 29.867 29.867 29.867S409.6 80.495 409.6 64s-13.372-29.867-29.867-29.867zm0 42.667c-7.069 0-12.8-5.731-12.8-12.8 0-7.069 5.731-12.8 12.8-12.8 7.069 0 12.8 5.731 12.8 12.8 0 7.069-5.73 12.8-12.8 12.8zM132.267 34.133C115.772 34.133 102.4 47.505 102.4 64s13.372 29.867 29.867 29.867S162.134 80.495 162.134 64c-.001-16.495-13.372-29.867-29.867-29.867zm0 42.667c-7.069 0-12.8-5.731-12.8-12.8 0-7.069 5.731-12.8 12.8-12.8 7.069 0 12.8 5.731 12.8 12.8 0 7.069-5.731 12.8-12.8 12.8z"/><path d="M187.733 0a8.533 8.533 0 0 0-8.533 8.533v110.933c0 4.713 3.82 8.533 8.533 8.533s8.533-3.82 8.533-8.533V8.533A8.532 8.532 0 0 0 187.733 0zM324.267 0a8.533 8.533 0 0 0-8.533 8.533v110.933c0 4.713 3.82 8.533 8.533 8.533s8.533-3.82 8.533-8.533V8.533A8.533 8.533 0 0 0 324.267 0zM179.2 460.8h-68.267a8.533 8.533 0 0 0-8.533 8.533V486.4c0 14.138 11.461 25.6 25.6 25.6h34.133c14.138 0 25.6-11.461 25.6-25.6v-17.067a8.533 8.533 0 0 0-8.533-8.533zm-8.533 25.6a8.533 8.533 0 0 1-8.533 8.533H128a8.533 8.533 0 0 1-8.533-8.533v-8.533h51.2v8.533zM401.067 460.8H332.8a8.533 8.533 0 0 0-8.533 8.533V486.4c0 14.138 11.462 25.6 25.6 25.6H384c14.138 0 25.6-11.461 25.6-25.6v-17.067a8.533 8.533 0 0 0-8.533-8.533zm-8.534 25.6a8.533 8.533 0 0 1-8.533 8.533h-34.133a8.533 8.533 0 0 1-8.533-8.533v-8.533h51.2v8.533zM285.867 51.2h-59.733c-4.713 0-8.533 3.82-8.533 8.533s3.82 8.533 8.533 8.533h59.733c4.713 0 8.533-3.82 8.533-8.533s-3.82-8.533-8.533-8.533zM219.996 185.779c57.916-19.983 121.066 10.768 141.049 68.685a8.533 8.533 0 1 0 16.127-5.461c-17.627-51.946-66.394-86.886-121.25-86.869-70.692.021-127.983 57.346-127.962 128.038S185.308 418.155 256 418.133c51.385.168 97.89-30.409 118.101-77.653a8.543 8.543 0 0 0-4.48-11.221 8.543 8.543 0 0 0-11.221 4.48 110.931 110.931 0 0 1-66.039 61.774c-57.916 19.983-121.066-10.768-141.049-68.685-19.983-57.916 10.768-121.066 68.684-141.049z"/><path d="M392.533 243.2H358.4c-14.138 0-25.6 11.461-25.6 25.6V320c0 14.138 11.462 25.6 25.6 25.6h34.133c9.426 0 17.067-7.641 17.067-17.067v-68.267c0-9.425-7.641-17.066-17.067-17.066zm0 85.333H358.4a8.533 8.533 0 0 1-8.533-8.533v-51.2a8.533 8.533 0 0 1 8.533-8.533h34.133v68.266zM119.467 426.667h-8.533c-4.713 0-8.533 3.82-8.533 8.533s3.82 8.533 8.533 8.533h8.533a8.533 8.533 0 0 0 0-17.066zM196.267 426.667H153.6a8.533 8.533 0 0 0 0 17.066h42.667a8.533 8.533 0 0 0 0-17.066zM260.523 332.8h-9.045c-11.641 0-21.077 9.437-21.077 21.077v9.045c0 11.641 9.437 21.077 21.077 21.077h9.045c11.641 0 21.077-9.437 21.077-21.077v-9.045c0-11.64-9.437-21.077-21.077-21.077zm4.01 30.123a4.011 4.011 0 0 1-4.011 4.011h-9.045a4.011 4.011 0 0 1-4.011-4.011v-9.045a4.011 4.011 0 0 1 4.011-4.011h9.045a4.011 4.011 0 0 1 4.011 4.011v9.045zM286.123 210.005a16.383 16.383 0 0 0-12.032-5.205H237.91a16.383 16.383 0 0 0-12.032 5.547 15.02 15.02 0 0 0-4.011 11.52l6.4 79.531c.757 8.214 7.71 14.46 15.957 14.336h23.552c8.1.145 14.995-5.865 15.957-13.909l6.4-79.957a15.02 15.02 0 0 0-4.01-11.863zm-14.422 28.246l-4.864 60.416h-21.589l-6.315-76.8h34.133l-1.365 16.384z"/></svg>