<svg xmlns="http://www.w3.org/2000/svg" viewBox="0 0 511.995 511.995"><path d="M152.83 207.184c-33.808-33.081-42.922-83.961-22.699-126.72a8.533 8.533 0 0 0-7.68-12.202H93.864c-18.851 0-34.133 15.282-34.133 34.133v85.333c0 18.851 15.282 34.133 34.133 34.133h52.992a8.534 8.534 0 0 0 5.974-14.677zm-58.966-2.389c-9.426 0-17.067-7.641-17.067-17.067v-85.333c0-9.426 7.641-17.067 17.067-17.067h15.787a128 128 0 0 0 18.347 119.467H93.864zM366.931 68.262h-28.587a8.534 8.534 0 0 0-7.68 12.203c20.224 42.759 11.11 93.639-22.699 126.72a8.534 8.534 0 0 0 5.974 14.678h52.992c18.851 0 34.133-15.282 34.133-34.133v-85.333c0-18.853-15.282-34.135-34.133-34.135zm17.067 119.466c0 9.426-7.641 17.067-17.067 17.067h-34.133a128 128 0 0 0 18.347-119.467h15.787c9.426 0 17.067 7.641 17.067 17.067v85.333zM366.931 426.662H93.864c-18.851 0-34.133 15.282-34.133 34.133v17.067c0 18.851 15.282 34.133 34.133 34.133h273.067c18.851 0 34.133-15.282 34.133-34.133v-17.067c0-18.851-15.282-34.133-34.133-34.133zm17.067 51.2c0 9.426-7.641 17.067-17.067 17.067H93.864c-9.426 0-17.067-7.641-17.067-17.067v-17.067c0-9.426 7.641-17.067 17.067-17.067h273.067c9.426 0 17.067 7.641 17.067 17.067v17.067z"/><path d="M332.798 307.195h25.6a8.533 8.533 0 0 0 8.533-8.533v-85.333a8.533 8.533 0 0 0-8.533-8.533h-44.715a8.533 8.533 0 0 0-6.059 2.475 93.862 93.862 0 0 1-8.96 7.851 115.874 115.874 0 0 1-10.837 6.997l-2.731 1.536c-34.356 19.694-76.578 19.694-110.933 0l-2.304-1.28a115.72 115.72 0 0 1-10.411-7.253 93.492 93.492 0 0 1-8.533-7.851 8.534 8.534 0 0 0-6.059-2.475h-44.459a8.533 8.533 0 0 0-8.533 8.533v221.867a8.533 8.533 0 0 0 8.533 8.533h256a8.533 8.533 0 0 0 8.533-8.533v-102.4a8.533 8.533 0 0 0-8.533-8.533h-25.6a8.533 8.533 0 0 1-8.533-8.533 8.534 8.534 0 0 1 2.645-6.059 8.534 8.534 0 0 1 5.889-2.476zm0 34.133h17.067v85.333H110.931V222.118h32.085c2.475 2.304 5.12 4.523 7.936 6.741a131.161 131.161 0 0 0 11.776 8.533l3.243 1.877c39.556 23.042 88.444 23.042 128 0a42.151 42.151 0 0 0 3.669-2.133 131.7 131.7 0 0 0 11.776-8.533c2.816-2.219 5.461-4.437 7.936-6.741h32.512v68.267h-17.067c-14.138 0-25.6 11.461-25.6 25.6s11.462 25.599 25.601 25.599z"/><path d="M297.642 226.983a8.533 8.533 0 0 0-11.692-2.988 111.954 111.954 0 0 1-110.933 0 8.533 8.533 0 0 0-12.885 7.339v41.728c0 14.138 11.461 25.6 25.6 25.6h85.333l.171.001c14.139 0 25.6-11.462 25.599-25.601v-41.728a8.54 8.54 0 0 0-1.193-4.351zm-16.044 46.079a8.533 8.533 0 0 1-8.533 8.533h-85.333a8.533 8.533 0 0 1-8.533-8.533v-27.819a129.19 129.19 0 0 0 102.4 0v27.819z"/><path d="M264.531 281.595h-68.267a8.533 8.533 0 0 0-8.533 8.533v42.667a8.533 8.533 0 0 0 8.533 8.533h68.267a8.533 8.533 0 0 0 8.533-8.533v-42.667a8.533 8.533 0 0 0-8.533-8.533zm-8.533 42.667h-51.2v-25.6h51.2v25.6z"/><path d="M315.731 307.195h-51.2c-4.713 0-8.533 3.82-8.533 8.533s3.82 8.533 8.533 8.533h51.2c4.713 0 8.533-3.82 8.533-8.533s-3.82-8.533-8.533-8.533z"/><path d="M426.664 290.128h-93.867c-14.138 0-25.6 11.461-25.6 25.6s11.462 25.6 25.6 25.6h93.867c14.138 0 25.6-11.462 25.6-25.6s-11.461-25.6-25.6-25.6zm5.888 31.659a8.535 8.535 0 0 1-5.888 2.475h-93.867a8.533 8.533 0 0 1-8.533-8.533 8.534 8.534 0 0 1 2.645-6.059 8.535 8.535 0 0 1 5.888-2.475h93.867a8.533 8.533 0 0 1 8.533 8.533 8.53 8.53 0 0 1-2.645 6.059zM296.616 358.395H164.179a17.07 17.07 0 0 0-5.998 1.048c-8.847 3.252-13.382 13.06-10.13 21.907a72.106 72.106 0 0 0 31.147 36.011v17.835a8.533 8.533 0 0 0 8.533 8.533h85.333a8.533 8.533 0 0 0 8.533-8.533V417.36a72.104 72.104 0 0 0 31.061-36.011 17.06 17.06 0 0 0 1.048-5.912c-.012-9.425-7.664-17.055-17.09-17.042zm-27.733 46.592a8.53 8.53 0 0 0-4.352 7.424v14.251h-68.267v-14.251a8.53 8.53 0 0 0-4.352-7.424 57.084 57.084 0 0 1-27.733-29.525h132.523a57.263 57.263 0 0 1-27.819 29.525zM346.024 73.126a127.999 127.999 0 0 0-60.722-60.722c-63.859-30.323-140.208-3.136-170.531 60.722-23.357 49.294-12.909 107.974 26.027 146.176 3.3 3.291 6.806 6.369 10.496 9.216a131.161 131.161 0 0 0 11.776 8.533l3.243 1.877a126.547 126.547 0 0 0 64.085 17.067 125.864 125.864 0 0 0 63.573-16.64 42.151 42.151 0 0 0 3.669-2.133 131.7 131.7 0 0 0 11.776-8.533 110.28 110.28 0 0 0 10.496-9.216c39.042-38.212 49.53-96.991 26.112-146.347zm-38.4 134.144a93.862 93.862 0 0 1-8.96 7.851 116.041 116.041 0 0 1-10.496 6.912l-2.731 1.536c-34.356 19.694-76.578 19.694-110.933 0l-2.304-1.28a115.72 115.72 0 0 1-10.411-7.253 93.862 93.862 0 0 1-8.96-7.851c-33.808-33.081-42.922-83.961-22.699-126.72 18.479-38.631 57.444-63.27 100.267-63.403 42.823.133 81.788 24.772 100.267 63.403 20.179 42.852 10.924 93.79-23.04 126.805zM110.931 460.795h-8.533c-4.713 0-8.533 3.82-8.533 8.533s3.82 8.533 8.533 8.533h8.533c4.713 0 8.533-3.82 8.533-8.533s-3.82-8.533-8.533-8.533zM247.464 460.795h-102.4c-4.713 0-8.533 3.82-8.533 8.533s3.82 8.533 8.533 8.533h102.4c4.713 0 8.533-3.82 8.533-8.533s-3.82-8.533-8.533-8.533z"/><path d="M295.591 79.004a8.534 8.534 0 0 0-12.031.948l-62.976 78.677-36.011-28.757a8.535 8.535 0 0 0-10.667 13.312l42.667 34.133a8.53 8.53 0 0 0 12.032-1.366l68.267-85.333a8.532 8.532 0 0 0-1.281-11.614z"/></svg>