<svg xmlns="http://www.w3.org/2000/svg" viewBox="0 0 512.222 512.222"><path d="M350.967 1.296c-69.986-9.972-134.804 38.679-144.776 108.665a132.652 132.652 0 0 0-1.28 18.261 127.148 127.148 0 0 0 48.896 100.523 128.682 128.682 0 0 0 79.104 27.477c70.692 0 128-57.308 128-128 .103-63.795-46.787-117.927-109.944-126.926zm-18.056 237.859c-61.267 0-110.933-49.667-110.933-110.933.006-5.31.377-10.613 1.109-15.872 8.095-54.468 54.758-94.858 109.824-95.061 61.267 0 110.933 49.667 110.933 110.933s-49.666 110.933-110.933 110.933z"/><path d="M281.711 227.55a8.533 8.533 0 0 0-8.533 8.533v250.539a8.533 8.533 0 0 1-8.533 8.533H76.911a8.533 8.533 0 0 1-8.533-8.533v-358.4a8.533 8.533 0 0 1 8.533-8.533h137.728c4.713 0 8.533-3.82 8.533-8.533s-3.82-8.533-8.533-8.533H76.911c-14.138 0-25.6 11.461-25.6 25.6v358.4c0 14.138 11.461 25.6 25.6 25.6h187.733c14.138 0 25.6-11.462 25.6-25.6v-250.54a8.533 8.533 0 0 0-8.533-8.533z"/><path d="M162.244 187.955a8.958 8.958 0 0 0-2.475-6.059 9.928 9.928 0 0 0-2.816-1.792 8.534 8.534 0 0 0-9.301 1.792 8.534 8.534 0 0 0-2.475 6.059 11.86 11.86 0 0 0 0 1.707c.148.544.378 1.062.683 1.536a6.31 6.31 0 0 0 .768 1.536c.317.446.659.873 1.024 1.28a8.964 8.964 0 0 0 6.059 2.475 8.529 8.529 0 0 0 3.413-.683 9.972 9.972 0 0 0 2.816-1.792l1.024-1.28c.321-.477.579-.993.768-1.536a5.314 5.314 0 0 0 .512-1.536c.046-.568.046-1.139 0-1.707zM145.178 222.089a8.96 8.96 0 0 0-2.645-6.059l-.049-.049a8.533 8.533 0 0 0-12.068.049c-.367.405-.709.833-1.024 1.28a6.31 6.31 0 0 0-.768 1.536 5.556 5.556 0 0 0-.512 1.536 6.255 6.255 0 0 0 0 1.707 5.882 5.882 0 0 0 0 1.707c.148.544.378 1.062.683 1.536.167.526.427 1.017.768 1.451a8.52 8.52 0 0 0 1.024 1.365 8.528 8.528 0 0 0 2.816 1.792 8.55 8.55 0 0 0 3.243.683 8.534 8.534 0 0 0 6.229-2.475l1.024-1.365c.338-.436.598-.926.768-1.451a5.314 5.314 0 0 0 .512-1.536 10.93 10.93 0 0 0-.001-1.707zM178.628 218.846a7.68 7.68 0 0 0-4.608-4.608 8.534 8.534 0 0 0-9.301 1.792 9.8 9.8 0 0 0-1.792 2.816 8.02 8.02 0 0 0 0 6.485 8.539 8.539 0 0 0 1.792 2.816 8.964 8.964 0 0 0 6.059 2.475 8.513 8.513 0 0 0 3.243-.683 9.972 9.972 0 0 0 2.816-1.792 8.528 8.528 0 0 0 1.792-2.816 8.024 8.024 0 0 0-.001-6.485zM210.97 216.03l-1.365-1.024a4.761 4.761 0 0 0-1.451-.768 5.223 5.223 0 0 0-1.621-.512 8.534 8.534 0 0 0-7.68 2.304 8.534 8.534 0 0 0-2.475 6.059 11.86 11.86 0 0 0 0 1.707c.148.544.378 1.062.683 1.536a6.31 6.31 0 0 0 .768 1.536c.317.446.659.873 1.024 1.28a8.964 8.964 0 0 0 6.059 2.475l1.621-.171a5.277 5.277 0 0 0 1.621-.512 4.773 4.773 0 0 0 1.451-.768l1.365-1.024a8.534 8.534 0 0 0 2.475-6.059 8.964 8.964 0 0 0-2.475-6.059zM195.695 184.713a8.539 8.539 0 0 0-1.792-2.816l-.049-.049a8.533 8.533 0 0 0-12.068.049 8.528 8.528 0 0 0-1.792 2.816 8.02 8.02 0 0 0 0 6.485 8.539 8.539 0 0 0 1.792 2.816 8.964 8.964 0 0 0 6.059 2.475 8.958 8.958 0 0 0 6.059-2.475 8.528 8.528 0 0 0 1.792-2.816 8.024 8.024 0 0 0-.001-6.485zM162.244 256.222a8.958 8.958 0 0 0-2.475-6.059 9.928 9.928 0 0 0-2.816-1.792 8.534 8.534 0 0 0-9.301 1.792 8.534 8.534 0 0 0-2.475 6.059 11.86 11.86 0 0 0 0 1.707c.148.544.378 1.062.683 1.536.167.526.427 1.017.768 1.451a8.52 8.52 0 0 0 1.024 1.365 8.964 8.964 0 0 0 6.059 2.475 8.529 8.529 0 0 0 3.413-.683 9.972 9.972 0 0 0 2.816-1.792l1.024-1.365c.338-.436.598-.926.768-1.451a5.314 5.314 0 0 0 .512-1.536c.046-.568.046-1.139 0-1.707zM196.036 254.515a5.314 5.314 0 0 0-.512-1.536 4.874 4.874 0 0 0-.768-1.451l-1.024-1.365-.049-.049a8.533 8.533 0 0 0-12.068.049c-.386.42-.729.877-1.024 1.365a4.707 4.707 0 0 0-.768 1.451 5.556 5.556 0 0 0-.512 1.536 11.86 11.86 0 0 0 0 1.707 7.082 7.082 0 0 0 .683 3.243 9.8 9.8 0 0 0 1.792 2.816 8.964 8.964 0 0 0 6.059 2.475 8.953 8.953 0 0 0 5.717-2.475 9.8 9.8 0 0 0 1.792-2.816 8.55 8.55 0 0 0 .683-3.243 10.69 10.69 0 0 0-.001-1.707zM247.578 307.422h-153.6c-4.713 0-8.533 3.82-8.533 8.533s3.82 8.533 8.533 8.533h153.6a8.533 8.533 0 0 0 0-17.066zM170.778 350.089c-32.99 0-59.733 26.744-59.733 59.733s26.744 59.733 59.733 59.733 59.733-26.744 59.733-59.733-26.744-59.733-59.733-59.733zm0 102.4c-23.564 0-42.667-19.102-42.667-42.667s19.103-42.667 42.667-42.667 42.667 19.103 42.667 42.667-19.103 42.667-42.667 42.667z"/><path d="M170.778 384.222a8.533 8.533 0 0 0 0 17.066c4.713 0 8.533 3.82 8.533 8.533s3.82 8.533 8.533 8.533 8.533-3.82 8.533-8.533c.001-14.137-11.461-25.599-25.599-25.599zM416.282 123.273c-22.272-31.317-52.053-48.384-83.712-48.384s-61.44 17.152-83.712 48.384a8.536 8.536 0 0 0 0 9.387c21.76 35.413 51.2 55.296 82.944 55.296h.597c31.915 0 61.867-19.541 83.883-55.125a8.536 8.536 0 0 0 0-9.558zm-83.883 47.616h-.512c-24.576 0-47.275-15.189-65.365-42.667h-.085c18.517-23.296 41.984-36.608 66.475-36.608s47.872 12.971 66.389 36.608c-18.859 27.733-42.411 42.667-66.902 42.667z"/><path d="M358.511 79.838a8.614 8.614 0 1 0-12.885 11.435c5.689 6.451 5.689 16.126 0 22.577-6.234 7.069-17.019 7.746-24.089 1.511s-7.746-17.019-1.511-24.089a8.533 8.533 0 1 0-12.714-11.35 34.13 34.13 0 0 0-8.641 22.807c.06 18.851 15.39 34.085 34.241 34.025a34.131 34.131 0 0 0 22.969-8.717c14.036-12.582 15.214-34.162 2.63-48.199z"/></svg>