<svg xmlns="http://www.w3.org/2000/svg" viewBox="0 0 512.222 512.222"><path d="M350.967 1.296c-69.986-9.972-134.804 38.679-144.776 108.665a132.652 132.652 0 0 0-1.28 18.261 127.148 127.148 0 0 0 48.896 100.523 128.682 128.682 0 0 0 79.104 27.477c70.692 0 128-57.308 128-128 .103-63.795-46.787-117.927-109.944-126.926zm-18.056 237.859c-61.267 0-110.933-49.667-110.933-110.933.006-5.31.377-10.613 1.109-15.872 8.095-54.468 54.758-94.858 109.824-95.061 61.267 0 110.933 49.667 110.933 110.933s-49.666 110.933-110.933 110.933z"/><path d="M281.711 227.55a8.533 8.533 0 0 0-8.533 8.533v250.539a8.533 8.533 0 0 1-8.533 8.533H76.911a8.533 8.533 0 0 1-8.533-8.533v-358.4a8.533 8.533 0 0 1 8.533-8.533h137.728c4.713 0 8.533-3.82 8.533-8.533s-3.82-8.533-8.533-8.533H76.911c-14.138 0-25.6 11.461-25.6 25.6v358.4c0 14.138 11.461 25.6 25.6 25.6h187.733c14.138 0 25.6-11.462 25.6-25.6v-250.54a8.533 8.533 0 0 0-8.533-8.533z"/><path d="M161.562 184.713a9.8 9.8 0 0 0-1.792-2.816l-.049-.049a8.533 8.533 0 0 0-12.068.049 9.8 9.8 0 0 0-1.792 2.816 8.55 8.55 0 0 0-.683 3.243c0 4.713 3.82 8.533 8.533 8.533s8.533-3.82 8.533-8.533a8.527 8.527 0 0 0-.682-3.243zM144.495 218.846a9.8 9.8 0 0 0-1.792-2.816l-.049-.049a8.533 8.533 0 0 0-12.068.049 9.8 9.8 0 0 0-1.792 2.816 7.082 7.082 0 0 0-.683 3.243c0 4.713 3.82 8.533 8.533 8.533s8.533-3.82 8.533-8.533a8.53 8.53 0 0 0-.682-3.243zM176.836 215.859a9.928 9.928 0 0 0-2.816-1.792 8.527 8.527 0 0 0-4.949-.512 5.374 5.374 0 0 0-1.536.683 6.494 6.494 0 0 0-1.536.768c-.448.314-.875.656-1.28 1.024a7.94 7.94 0 0 0-1.792 2.816 8.55 8.55 0 0 0-.683 3.243 8.534 8.534 0 0 0 2.475 6.229l1.28 1.024c.476.323.992.581 1.536.768l1.536.512h1.707a8.535 8.535 0 0 0 6.058-14.763zM210.97 216.03l-1.365-1.024a4.761 4.761 0 0 0-1.451-.768 5.223 5.223 0 0 0-1.621-.512 8.534 8.534 0 0 0-7.68 2.304 8.534 8.534 0 0 0 6.059 14.592l1.621-.171a5.277 5.277 0 0 0 1.621-.512 4.773 4.773 0 0 0 1.451-.768l1.365-1.024.049-.049a8.533 8.533 0 0 0-.049-12.068zM193.903 181.726a8.532 8.532 0 0 0-7.765-2.304 5.395 5.395 0 0 0-1.536.853 6.494 6.494 0 0 0-1.536.768l-1.28 1.024-.049.049a8.533 8.533 0 0 0 .049 12.068l1.28 1.024c.476.323.992.581 1.536.768l1.536.512h1.707a8.534 8.534 0 0 0 6.059-2.645l.049-.049a8.534 8.534 0 0 0-.05-12.068zM159.77 250.262a8.533 8.533 0 1 0-12.117 12.019 8.536 8.536 0 0 0 6.059 2.475 8.533 8.533 0 0 0 6.059-2.475 8.536 8.536 0 0 0-.001-12.019zM195.695 252.809a9.8 9.8 0 0 0-1.792-2.816 8.532 8.532 0 0 0-7.765-2.304 5.395 5.395 0 0 0-1.536.853 6.494 6.494 0 0 0-1.536.768l-1.28 1.024a9.8 9.8 0 0 0-1.792 2.816 8.02 8.02 0 0 0 0 6.485 8.539 8.539 0 0 0 1.792 2.816l1.28 1.024c.476.323.992.581 1.536.768l1.536.512h1.707a8.533 8.533 0 0 0 8.533-8.533 7.253 7.253 0 0 0-.683-3.413zM247.578 307.422h-153.6c-4.713 0-8.533 3.82-8.533 8.533s3.82 8.533 8.533 8.533h153.6a8.533 8.533 0 0 0 0-17.066zM170.778 350.089c-32.99 0-59.733 26.744-59.733 59.733s26.744 59.733 59.733 59.733 59.733-26.744 59.733-59.733-26.744-59.733-59.733-59.733zm0 102.4c-23.564 0-42.667-19.102-42.667-42.667s19.103-42.667 42.667-42.667 42.667 19.103 42.667 42.667-19.103 42.667-42.667 42.667z"/><path d="M170.778 384.222a8.533 8.533 0 0 0 0 17.066c4.713 0 8.533 3.82 8.533 8.533s3.82 8.533 8.533 8.533 8.533-3.82 8.533-8.533c.001-14.137-11.461-25.599-25.599-25.599zM363.034 48.094a16.296 16.296 0 0 0-11.947-5.205H314.82a16.3 16.3 0 0 0-12.032 5.547 15.274 15.274 0 0 0-4.011 11.52l6.4 79.616c.837 8.16 7.755 14.338 15.957 14.251h23.552c8.086.105 14.958-5.885 15.957-13.909l6.4-79.957a15.27 15.27 0 0 0-4.009-11.863zm-19.2 88.661h-21.675l-6.315-76.8h34.133l-6.143 76.8zM337.348 170.889h-8.96c-11.621.047-21.031 9.456-21.077 21.077v9.045c.047 11.621 9.456 21.031 21.077 21.077h9.045c11.654-.047 21.077-9.508 21.077-21.163v-8.96c-.046-11.653-9.507-21.076-21.162-21.076zm4.096 30.037a4.097 4.097 0 0 1-4.011 4.011h-8.96a4.097 4.097 0 0 1-4.011-4.011v-8.96a4.097 4.097 0 0 1 4.011-4.011h8.96a4.097 4.097 0 0 1 4.011 4.011v8.96z"/></svg>