<svg xmlns="http://www.w3.org/2000/svg" viewBox="0 0 512 512"><path d="M497.582 242.209c7.95-.001 14.418-6.469 14.418-14.419v-40.567c0-7.951-6.468-14.418-14.418-14.418h-11.541v-10.017a7.286 7.286 0 0 0-7.287-7.287 7.286 7.286 0 0 0-7.287 7.287V371.513h-61.853V141.194c0-17.053 13.874-30.927 30.927-30.927 12.944 0 24.622 8.164 29.06 20.316a7.286 7.286 0 0 0 9.344 4.344 7.286 7.286 0 0 0 4.344-9.344c-6.53-17.878-23.71-29.889-42.75-29.889-25.089 0-45.5 20.411-45.5 45.5v31.612h-32.027v-31.612c0-25.089-20.411-45.5-45.5-45.5s-45.5 20.411-45.5 45.5v31.612h-32.028v-31.612c0-25.089-20.411-45.5-45.5-45.5s-45.5 20.411-45.5 45.5v31.612h-32.028v-31.612c0-25.089-20.411-45.5-45.5-45.5s-45.5 20.411-45.5 45.5v31.612H14.418C6.468 172.804 0 179.271 0 187.222v40.567c0 7.951 6.468 14.418 14.418 14.418h11.541v33.412H14.418C6.468 275.619 0 282.087 0 290.038v40.567c0 7.951 6.468 14.418 14.418 14.418h11.541v26.488H13.732C6.16 371.511 0 377.672 0 385.244v17.329c0 7.573 6.16 13.733 13.732 13.733h29.421a7.287 7.287 0 1 0 0-14.574h-28.58v-15.649H497.427v15.649H77.642a7.287 7.287 0 1 0 0 14.574h420.625c7.572 0 13.732-6.16 13.732-13.733v-17.329c0-7.572-6.16-13.732-13.732-13.732H486.04v-26.488h11.541c7.95 0 14.418-6.468 14.418-14.418v-40.567c0-7.951-6.468-14.418-14.418-14.418H486.04v-33.412h11.542zm-11.541-54.832h11.386v40.258h-11.386v-40.258zM25.959 330.451H14.573v-40.258h11.386v40.258zm0-102.816H14.573v-40.258h11.386v40.258zm76.427 7.286v136.59H40.532V141.192c0-17.053 13.874-30.927 30.927-30.927 17.053 0 30.926 13.874 30.926 30.927v38.898h.001v54.831zm46.6 136.59h-32.028v-26.488h32.028v26.488zm0-41.06h-32.028v-40.258h32.028v40.258zm0-54.832h-32.028v-33.412h32.028v33.412zm0-47.984h-32.028v-40.258h32.028v40.258zm76.427-47.545v191.421h-61.854V141.192c0-17.053 13.874-30.927 30.927-30.927 17.053 0 30.927 13.874 30.927 30.927v38.898zm46.601 191.421h-32.028v-26.488h32.028v26.488zm0-41.06h-32.028v-40.258h32.028v40.258zm0-54.832h-32.028v-33.412h32.028v33.412zm0-47.984h-32.028v-40.258h32.028v40.258zm76.427-47.545v191.421h-61.854V141.192c0-17.053 13.874-30.927 30.927-30.927 17.053 0 30.927 13.874 30.927 30.927v38.898zm46.6 191.421h-32.027v-26.488h32.027v26.488zm0-41.06h-32.027v-40.258h32.027v40.258zm0-54.832h-32.027v-33.412h32.027v33.412zm0-47.984h-32.027v-40.258h32.027v40.258zm91 62.558h11.386v40.258h-11.386v-40.258z"/></svg>