<svg xmlns="http://www.w3.org/2000/svg" viewBox="0 0 512 512"><path d="M423.588 0H88.412C71.93 0 58.519 13.409 58.519 29.893v312.634A7.48 7.48 0 0 0 66 350.008a7.48 7.48 0 0 0 7.481-7.481V29.893c0-8.233 6.699-14.931 14.931-14.931h335.176c8.233 0 14.931 6.699 14.931 14.931v452.216c0 8.233-6.699 14.931-14.931 14.931H88.412c-8.233 0-14.931-6.699-14.931-14.931V379.181A7.48 7.48 0 0 0 66 371.7a7.48 7.48 0 0 0-7.481 7.481v102.926c0 16.483 13.41 29.893 29.893 29.893h335.176c16.482 0 29.893-13.409 29.893-29.893V29.893C453.48 13.409 440.071 0 423.588 0z"/><path d="M388.036 31.503h-41.105c-4.132 0-7.481 3.348-7.481 7.481s3.348 7.481 7.481 7.481h41.105c.937 0 1.7.763 1.7 1.7v93.433c0 .937-.763 1.699-1.7 1.699H123.963c-.937 0-1.7-.762-1.7-1.699V48.163c0-.937.763-1.7 1.7-1.7h187.726c4.132 0 7.481-3.348 7.481-7.481s-3.348-7.481-7.481-7.481H123.963c-9.187 0-16.661 7.474-16.661 16.661v93.433c0 9.186 7.474 16.66 16.661 16.66h264.073c9.187 0 16.661-7.474 16.661-16.66V48.163c0-9.187-7.474-16.66-16.661-16.66zM222.859 172.637h-20.946c-8.067 0-14.629 6.562-14.629 14.629v20.946c0 8.067 6.562 14.629 14.629 14.629h20.946c8.067 0 14.629-6.562 14.629-14.629v-20.946c0-8.067-6.562-14.629-14.629-14.629zm-.332 35.242h-20.282v-20.282h20.282v20.282zM145.611 172.637h-20.946c-8.066 0-14.628 6.562-14.628 14.629v20.946c0 8.067 6.562 14.629 14.628 14.629h20.946c8.067 0 14.629-6.562 14.629-14.629v-20.946c0-8.067-6.562-14.629-14.629-14.629zm-.332 35.242h-20.281v-20.282h20.281v20.282zM310.087 172.637h-20.946c-8.067 0-14.629 6.562-14.629 14.629v20.946c0 8.067 6.562 14.629 14.629 14.629h20.946c8.067 0 14.629-6.562 14.629-14.629v-20.946c0-8.067-6.562-14.629-14.629-14.629zm-.332 35.242h-20.282v-20.282h20.282v20.282zM387.334 172.637h-20.946c-8.067 0-14.629 6.562-14.629 14.629v20.946c0 8.067 6.562 14.629 14.629 14.629h20.946c8.066 0 14.628-6.562 14.628-14.629v-20.946c0-8.067-6.562-14.629-14.628-14.629zm-.333 35.242H366.72v-20.282h20.281v20.282zM378.099 327.899a7.516 7.516 0 0 0-.282-1.04 125.848 125.848 0 0 0-14.175-32.241 7.512 7.512 0 0 0-.835-1.337 127.523 127.523 0 0 0-29.577-32.404 7.527 7.527 0 0 0-1.384-1.062c-21.147-15.892-47.414-25.321-75.845-25.321-28.433 0-54.704 9.432-75.852 25.328a7.4 7.4 0 0 0-1.364 1.047 127.537 127.537 0 0 0-29.54 32.334 7.563 7.563 0 0 0-.928 1.484c-11.923 19.293-18.815 42.008-18.815 66.307 0 11.098 1.442 21.865 4.139 32.129.061.308.146.608.244.904 6.806 25.134 21.181 47.185 40.52 63.549.429.462.913.87 1.445 1.212 21.836 17.929 49.757 28.705 80.15 28.705 30.68 0 58.84-10.982 80.766-29.215l.038-.032a127.473 127.473 0 0 0 26.57-30.45c.079-.115.149-.234.221-.354a125.853 125.853 0 0 0 14.5-33.342c.116-.335.212-.679.28-1.034a126.281 126.281 0 0 0 4.123-32.071 126.19 126.19 0 0 0-4.399-33.096zM256 249.455c15.827 0 30.892 3.32 44.544 9.291h-89.087c13.651-5.971 28.715-9.291 44.543-9.291zm-69.358 24.252h138.715a112.472 112.472 0 0 1 16.941 16.704H169.701a112.519 112.519 0 0 1 16.941-16.704zm-27.296 31.665h193.306a111.188 111.188 0 0 1 7.781 16.457H151.566a111.13 111.13 0 0 1 7.78-16.457zm-12.232 31.419h217.771a111.128 111.128 0 0 1 2.396 16.721H144.718c.379-5.7 1.188-11.284 2.396-16.721zM256 472.53c-18.515 0-35.988-4.54-51.372-12.558h102.744C291.987 467.99 274.515 472.53 256 472.53zm73.276-27.519H182.723a112.528 112.528 0 0 1-13.446-13.964h173.445a112.458 112.458 0 0 1-13.446 13.964zm23.676-28.925H159.047a111.16 111.16 0 0 1-7.868-16.956h209.64a111.06 111.06 0 0 1-7.867 16.956zm12.158-31.917H146.89a111.05 111.05 0 0 1-2.171-15.695h222.562a110.904 110.904 0 0 1-2.171 15.695z"/></svg>