<svg xmlns="http://www.w3.org/2000/svg" viewBox="0 0 512 512"><path d="M493.807 115.709h-35.499a7.3 7.3 0 0 0-7.3 7.3 7.3 7.3 0 0 0 7.3 7.3h35.499a3.596 3.596 0 0 1 3.594 3.59v76.577H384.122v-19.329a7.402 7.402 0 0 0-4.506-6.819 7.399 7.399 0 0 0-8.041 1.473l-220.57 211.947H63.87v-37.616c0-4.032-3.268-7.3-7.3-7.3s-7.3 3.268-7.3 7.3v38.853c0 7.368 5.995 13.362 13.363 13.362h88.869c3.47 0 6.759-1.324 9.259-3.728l208.761-200.6v2.582c0 7.98 6.493 14.472 14.474 14.472h113.53c7.981 0 14.474-6.492 14.474-14.472v-76.704c0-10.028-8.162-18.188-18.193-18.188zM423.552 115.707h-43.501a18.185 18.185 0 0 0-9.948 2.96l-208.956 137.54v-50.362c0-15.938-12.97-28.905-28.911-28.905h-1.808v-16.863h.736c5.718 0 10.432-4.371 10.982-9.947l41.003 4.449c.899.098 1.811.147 2.71.147 13.692 0 24.831-11.154 24.831-24.862 0-13.709-11.139-24.861-24.831-24.861-.899 0-1.811.049-2.71.147l-41.003 4.449c-.549-5.576-5.264-9.947-10.982-9.947H79.525c-5.718 0-10.433 4.371-10.982 9.947L27.54 105.15a25.109 25.109 0 0 0-2.71-.147C11.139 105.003 0 116.157 0 129.865s11.139 24.861 24.83 24.861c.899 0 1.811-.049 2.71-.147l41.003-4.449c.55 5.575 5.265 9.947 10.982 9.947h.736v16.863h-2.079c-15.942 0-28.912 12.966-28.912 28.905v119.481c0 4.032 3.268 7.3 7.3 7.3s7.3-3.268 7.3-7.3V205.844c0-7.888 6.42-14.305 14.313-14.305h54.053c7.892 0 14.312 6.418 14.312 14.305v63.905a7.3 7.3 0 0 0 11.313 6.097l220.232-144.96a3.591 3.591 0 0 1 1.958-.579h43.501a7.3 7.3 0 0 0 7.3-7.3 7.3 7.3 0 0 0-7.3-7.3zm-238.829 3.956c.378-.041.76-.062 1.136-.062 5.642 0 10.232 4.604 10.232 10.263 0 5.658-4.59 10.262-10.232 10.262-.375 0-.758-.021-1.135-.062l-42.522-4.615v-11.171h-.001l42.522-4.615zM25.966 140.066c-.378.041-.76.062-1.136.062-5.641 0-10.231-4.604-10.231-10.263 0-5.658 4.59-10.262 10.231-10.262.375 0 .758.021 1.135.062l42.522 4.615v11.171h.001l-42.522 4.615zm89.863 36.753H94.861v-16.742h20.968v16.742zm11.773-59.091v27.75H83.087v-31.226h44.515v3.476z"/><path d="M471.491 288.976c-5.878-10.18-11.959-20.706-15.577-29.491a11.426 11.426 0 0 0-10.596-7.094c-4.66 0-8.819 2.785-10.595 7.096-3.619 8.784-9.699 19.311-15.578 29.49-10.425 18.048-20.271 35.096-20.271 47.759 0 25.608 20.834 46.443 46.444 46.443s46.444-20.834 46.444-46.443c0-12.663-9.846-29.711-20.271-47.76zm-26.173 79.603c-17.559 0-31.844-14.285-31.844-31.843 0-8.749 9.729-25.595 18.314-40.457 4.789-8.293 9.707-16.808 13.531-24.761 3.824 7.953 8.741 16.467 13.531 24.76 8.585 14.863 18.314 31.708 18.314 40.458-.001 17.559-14.287 31.843-31.846 31.843z"/></svg>