<svg xmlns="http://www.w3.org/2000/svg" viewBox="0 0 512 512"><path d="M492.777 115.799h-35.429a7.285 7.285 0 1 0 0 14.57h35.429a3.59 3.59 0 0 1 3.587 3.587v76.45H383.309v-19.298a7.383 7.383 0 0 0-4.509-6.81 7.374 7.374 0 0 0-8.015 1.477L150.65 397.365H63.688V359.81a7.285 7.285 0 1 0-14.57 0v38.788c0 7.354 5.983 13.337 13.336 13.337h88.694c3.465 0 6.748-1.322 9.242-3.722l208.348-200.261v2.579c0 7.965 6.48 14.445 14.445 14.445h113.306c7.965 0 14.445-6.48 14.445-14.445v-76.575c0-10.011-8.145-18.157-18.157-18.157z"/><path d="M500.109 288.34c-4.89-5.816-4.036-8.889-3.715-10.046.584-2.103 1.93-3.735 2.156-3.998 7.684-7.845 7.722-20.564.051-28.457-3.869-3.979-9.057-6.171-14.608-6.171a20.262 20.262 0 0 0-14.2 5.765c-8.945 8.695-20.049 28.547-11.563 51.285-1.59-2.808-3.527-5.607-5.858-8.379-4.889-5.815-4.036-8.888-3.715-10.045.584-2.103 1.93-3.735 2.156-3.998 7.684-7.845 7.722-20.564.051-28.456-3.868-3.98-9.057-6.172-14.608-6.172a20.263 20.263 0 0 0-14.199 5.765c-8.508 8.271-18.965 26.635-12.664 47.975a57.667 57.667 0 0 0-3.811-5.07c-4.89-5.815-4.036-8.888-3.715-10.046.584-2.103 1.931-3.735 2.156-3.997 7.684-7.846 7.723-20.566.051-28.456-3.868-3.98-9.057-6.172-14.608-6.172a20.26 20.26 0 0 0-14.199 5.765c-11.229 10.915-25.861 39.41-.87 69.129 6.756 8.035-6.161 20.353-6.257 20.444-8.232 7.642-8.712 20.558-1.07 28.792a20.437 20.437 0 0 0 14.933 6.511 20.307 20.307 0 0 0 13.859-5.442c4.094-3.801 8.685-9.208 12.581-15.689-.194 5.214 1.596 10.502 5.418 14.62a20.437 20.437 0 0 0 14.933 6.511 20.307 20.307 0 0 0 13.859-5.442c4.489-4.167 9.577-10.265 13.688-17.593-.761 5.81.968 11.904 5.257 16.523a20.437 20.437 0 0 0 14.933 6.511 20.307 20.307 0 0 0 13.859-5.442c14.387-13.355 34.936-46.54 9.719-76.525zm-114.16 65.849a5.784 5.784 0 0 1-3.947 1.55 5.817 5.817 0 0 1-4.254-1.854c-2.177-2.345-2.04-6.025.339-8.234 8.604-8.093 19.857-25.724 7.461-40.467-22.609-26.887-1.055-48.401-.126-49.304a5.69 5.69 0 0 1 4.043-1.642c1.605 0 3.044.608 4.162 1.758 2.199 2.261 2.173 5.916-.056 8.146-.061.062-.12.123-.179.186-.659.708-4.023 4.518-5.564 10.065-2.143 7.718.078 15.564 6.602 23.323 18.154 21.589 2.39 46.38-8.481 56.473zm28.981-19.182l-.006.007c2.726-8.564 3.593-18.027.942-27.654a69.187 69.187 0 0 0 5.321 7.203c6.757 8.036-6.16 20.353-6.257 20.444zm17.81 19.182a5.784 5.784 0 0 1-3.947 1.55 5.817 5.817 0 0 1-4.254-1.854c-2.177-2.345-2.04-6.025.339-8.234 8.604-8.093 19.857-25.724 7.461-40.467-22.61-26.886-1.055-48.401-.126-49.304a5.772 5.772 0 0 1 4.044-1.642c1.605 0 3.044.608 4.161 1.757 2.199 2.262 2.174 5.917-.056 8.147a7.941 7.941 0 0 0-.18.187c-.658.707-4.022 4.517-5.563 10.065-2.143 7.716.078 15.563 6.602 23.322 18.154 21.588 2.39 46.38-8.481 56.473zm29.926-19.182c-.51.473-.989.968-1.44 1.479 3.449-9.937 4.467-21.174.357-32.518 1.93 3.495 4.349 7.036 7.341 10.594 6.757 8.037-6.161 20.354-6.258 20.445zm17.81 19.182a5.784 5.784 0 0 1-3.947 1.55 5.817 5.817 0 0 1-4.254-1.854c-2.177-2.345-2.04-6.025.339-8.234 8.604-8.093 19.858-25.724 7.462-40.467-22.61-26.886-1.055-48.402-.126-49.304a5.77 5.77 0 0 1 4.044-1.642c1.605 0 3.044.608 4.161 1.757 2.199 2.262 2.174 5.917-.055 8.147a7.941 7.941 0 0 0-.18.187c-.658.707-4.022 4.517-5.564 10.065-2.143 7.716.077 15.563 6.601 23.322 18.155 21.588 2.391 46.38-8.481 56.473zM422.661 115.799h-43.415c-3.519 0-6.94 1.013-9.93 2.955L160.774 256.06v-50.278c0-15.911-12.944-28.854-28.854-28.854h-1.974v-16.649h.719c5.697 0 10.397-4.351 10.952-9.905l40.828 4.429c.896.098 1.805.147 2.701.147 13.645 0 24.747-11.116 24.747-24.778 0-13.663-11.102-24.779-24.748-24.779-.896 0-1.805.049-2.701.147l-40.827 4.43c-.555-5.554-5.255-9.906-10.952-9.906H79.228c-5.698 0-10.398 4.352-10.953 9.906l-40.828-4.43a24.943 24.943 0 0 0-2.701-.147C11.101 105.392 0 116.508 0 130.171c0 13.662 11.101 24.776 24.746 24.778h.001c.895 0 1.804-.049 2.701-.147l40.827-4.429c.556 5.554 5.255 9.906 10.953 9.906h.719v16.649h-1.974c-15.911 0-28.855 12.944-28.855 28.854v119.279a7.285 7.285 0 1 0 14.57 0V205.783c0-7.876 6.408-14.284 14.284-14.284H131.919c7.876 0 14.284 6.408 14.284 14.284v63.797a7.286 7.286 0 0 0 11.292 6.084L377.29 130.949a3.585 3.585 0 0 1 1.956-.58h43.415a7.285 7.285 0 1 0 0-14.57zm-280.989 8.82l42.343-4.595c.376-.041.757-.062 1.13-.062 5.612 0 10.177 4.58 10.177 10.209 0 5.628-4.566 10.208-10.177 10.208-.374 0-.754-.021-1.13-.062l-42.343-4.594v-11.104zM25.877 140.317c-.377.041-.756.062-1.129.062h-.001c-5.611-.001-10.177-4.58-10.177-10.208 0-5.629 4.565-10.209 10.177-10.209.373 0 .754.021 1.129.062l42.343 4.595v11.104h.001l-42.343 4.594zm89.498 36.61H94.517v-16.648h20.858v16.648zm11.726-58.846v27.627H82.79v-31.075h44.311v3.448z"/></svg>