<svg xmlns="http://www.w3.org/2000/svg" viewBox="0 0 512 512"><path d="M363.101 380.58l-12.524-12.525a7.561 7.561 0 0 0-10.692 10.692l12.524 12.525a7.561 7.561 0 0 0 10.692-10.692zM172.125 189.602L159.6 177.078a7.561 7.561 0 0 0-10.692 10.692l12.525 12.524a7.561 7.561 0 0 0 10.692-10.692zM172.125 368.055a7.56 7.56 0 0 0-10.692 0l-12.525 12.525a7.561 7.561 0 0 0 10.692 10.692l12.525-12.525a7.561 7.561 0 0 0 0-10.692zM256.005 402.799a7.56 7.56 0 0 0-7.56 7.56v17.712a7.56 7.56 0 0 0 15.12 0v-17.712a7.56 7.56 0 0 0-7.56-7.56zM129.82 276.614h-17.712a7.56 7.56 0 0 0 0 15.12h17.712a7.56 7.56 0 0 0 0-15.12z"/><path d="M256.005 107.355c-97.499 0-176.82 79.321-176.82 176.82s79.321 176.82 176.82 176.82 176.82-79.321 176.82-176.82-79.322-176.82-176.82-176.82zm0 339.066c-89.463 0-162.247-72.784-162.247-162.247s72.784-162.247 162.247-162.247 162.247 72.784 162.247 162.247-72.784 162.247-162.247 162.247z"/><path d="M483.398 270.063c-6.533-106.885-86.697-193.11-189.222-210.504V47.736h11.812c6.228 0 11.296-5.067 11.296-11.295V11.295C317.283 5.067 312.216 0 305.987 0h-99.965c-6.228 0-11.296 5.067-11.296 11.295v25.146c0 6.228 5.067 11.295 11.296 11.295h11.812v11.822C115.253 76.954 35.082 163.234 28.602 270.188a7.287 7.287 0 1 0 14.546.881c6.238-102.947 85.426-185.423 185.356-198.366 1.176-.152 2.353-.293 3.532-.425.655-.074 1.309-.148 1.965-.216a228.12 228.12 0 0 1 2.598-.25c.627-.057 1.255-.109 1.883-.161.838-.069 1.676-.139 2.515-.198 1.315-.092 2.633-.173 3.954-.241.619-.032 1.237-.055 1.855-.081a213.047 213.047 0 0 1 4.601-.152 212.87 212.87 0 0 1 4.596-.056c1.536 0 3.066.023 4.595.056.532.012 1.065.027 1.598.042 1.005.029 2.007.067 3.009.11.614.027 1.227.049 1.841.081 1.327.068 2.651.15 3.973.242.818.058 1.635.126 2.453.193a215.145 215.145 0 0 1 4.491.411c.721.074 1.441.156 2.16.237 1.04.117 2.079.241 3.117.374 100 12.83 179.317 95.31 185.613 198.284.245 4.016 3.718 7.055 7.717 6.828a7.286 7.286 0 0 0 6.828-7.718zM274.103 57.076c-.168-.013-.335-.03-.502-.043a229.19 229.19 0 0 0-5.465-.354c-.134-.007-.269-.018-.403-.025a232.66 232.66 0 0 0-5.306-.207c-.197-.006-.395-.017-.592-.022a230.53 230.53 0 0 0-5.829-.076c-1.949 0-3.893.027-5.831.076-.189.005-.379.015-.569.021-1.783.05-3.562.117-5.336.208-.115.006-.229.015-.344.021a229.51 229.51 0 0 0-5.535.358c-.135.01-.27.024-.405.035a232.06 232.06 0 0 0-5.374.486l-.205.019v-9.837h47.195v9.837l-.236-.021a228.505 228.505 0 0 0-5.263-.476zm-48.982-23.913H209.3v-18.59h93.41v18.59h-77.589zM476.234 298.06c-4.011-.37-7.562 2.559-7.944 6.565-10.454 109.915-101.716 192.802-212.285 192.802-110.699 0-201.972-82.994-212.308-193.051a7.286 7.286 0 1 0-14.51 1.362c5.279 56.211 31.214 108.248 73.027 146.524C144.295 490.785 198.913 512 256.005 512c57.046 0 111.629-21.185 153.697-59.653 41.796-38.219 67.755-90.192 73.095-146.343a7.286 7.286 0 0 0-6.563-7.944z"/><path d="M256.005 254.543c-16.339 0-29.632 13.293-29.632 29.632s13.293 29.632 29.632 29.632c16.339 0 29.632-13.293 29.632-29.632s-13.293-29.632-29.632-29.632zm0 44.69c-8.304 0-15.059-6.755-15.059-15.059 0-8.304 6.755-15.059 15.059-15.059 8.304 0 15.059 6.755 15.059 15.059 0 8.304-6.756 15.059-15.059 15.059z"/><path d="M362.756 177.424c-27.623-27.623-64.321-43.314-103.338-44.181a17.563 17.563 0 0 0-.231-.003c-5.772 0-10.469 4.687-10.469 10.447v88.482a7.286 7.286 0 0 0 7.287 7.287c24.658 0 44.719 20.061 44.719 44.719a7.286 7.286 0 0 0 7.287 7.287h88.482c2.831 0 5.481-1.115 7.46-3.139a10.54 10.54 0 0 0 2.983-7.564c-.867-39.013-16.557-75.712-44.18-103.335zm-47.904 99.463v.001c-3.308-26.881-24.679-48.251-51.56-51.561v-77.359c69.741 3.651 125.268 59.176 128.919 128.919h-77.359z"/></svg>