<svg xmlns="http://www.w3.org/2000/svg" viewBox="0 0 512 512"><path d="M66.105 353.04c0-4.667 1.84-6.736 5.669-10.611 4.168-4.218 9.875-9.995 9.875-20.855a7.287 7.287 0 1 0-14.574 0c0 4.667-1.841 6.737-5.669 10.612-4.167 4.218-9.875 9.995-9.875 20.854 0 10.86 5.708 16.637 9.875 20.855 3.829 3.877 5.669 5.947 5.669 10.615s-1.841 6.738-5.669 10.613c-4.167 4.219-9.875 9.997-9.875 20.857a7.286 7.286 0 0 0 7.287 7.287 7.286 7.286 0 0 0 7.287-7.287c0-4.668 1.841-6.738 5.669-10.615 4.167-4.218 9.875-9.995 9.875-20.855s-5.708-16.638-9.875-20.857c-3.829-3.875-5.669-5.945-5.669-10.613zM156.196 353.04c0-4.667 1.84-6.736 5.669-10.611 4.167-4.218 9.875-9.995 9.875-20.855a7.287 7.287 0 1 0-14.574 0c0 4.667-1.841 6.737-5.669 10.612-4.167 4.218-9.875 9.995-9.875 20.854 0 10.86 5.708 16.637 9.875 20.855 3.829 3.877 5.669 5.947 5.669 10.615s-1.841 6.738-5.669 10.613c-4.167 4.219-9.875 9.997-9.875 20.857a7.287 7.287 0 1 0 14.574 0c0-4.668 1.841-6.738 5.669-10.615 4.167-4.218 9.875-9.995 9.875-20.855s-5.708-16.638-9.875-20.857c-3.829-3.875-5.669-5.945-5.669-10.613zM426.465 353.044c0-4.668 1.841-6.738 5.669-10.613 4.167-4.219 9.875-9.997 9.875-20.857a7.287 7.287 0 1 0-14.574 0c0 4.668-1.841 6.738-5.669 10.615-4.167 4.218-9.875 9.995-9.875 20.855 0 10.86 5.708 16.638 9.875 20.856 3.829 3.877 5.669 5.947 5.669 10.615 0 4.667-1.84 6.736-5.669 10.611-4.168 4.218-9.876 9.995-9.876 20.854a7.286 7.286 0 0 0 7.287 7.287 7.286 7.286 0 0 0 7.287-7.287c0-4.667 1.84-6.736 5.669-10.611 4.168-4.218 9.876-9.995 9.876-20.854 0-10.86-5.708-16.638-9.875-20.856-3.829-3.877-5.669-5.947-5.669-10.615zM336.375 353.044c0-4.668 1.841-6.738 5.669-10.613 4.167-4.219 9.875-9.997 9.875-20.857a7.286 7.286 0 0 0-7.287-7.287 7.286 7.286 0 0 0-7.287 7.287c0 4.668-1.841 6.738-5.669 10.615-4.167 4.218-9.875 9.995-9.875 20.855 0 10.86 5.708 16.638 9.875 20.856 3.829 3.877 5.669 5.947 5.669 10.615 0 4.667-1.84 6.736-5.669 10.611-4.168 4.218-9.876 9.995-9.876 20.854a7.286 7.286 0 0 0 7.287 7.287 7.286 7.286 0 0 0 7.287-7.287c0-4.667 1.84-6.736 5.669-10.611 4.168-4.218 9.876-9.995 9.876-20.854 0-10.86-5.708-16.638-9.875-20.856-3.829-3.877-5.669-5.947-5.669-10.615zM246.285 353.04c0-4.667 1.84-6.736 5.669-10.611 4.167-4.218 9.875-9.995 9.875-20.855a7.286 7.286 0 0 0-7.287-7.287 7.286 7.286 0 0 0-7.287 7.287c0 4.667-1.841 6.737-5.669 10.612-4.167 4.218-9.875 9.995-9.875 20.854 0 10.86 5.708 16.637 9.875 20.855 3.829 3.877 5.669 5.947 5.669 10.615s-1.841 6.738-5.669 10.613c-4.167 4.219-9.875 9.997-9.875 20.857a7.287 7.287 0 1 0 14.574 0c0-4.668 1.841-6.738 5.669-10.615 4.167-4.218 9.875-9.995 9.875-20.855s-5.708-16.638-9.875-20.857c-3.829-3.875-5.669-5.945-5.669-10.613zM491.112 88.734h-33.154a7.287 7.287 0 1 0 0 14.574h33.154a6.322 6.322 0 0 1 6.315 6.315v171.954a6.322 6.322 0 0 1-6.315 6.315h-10.647v-46.057c0-12.064-9.815-21.879-21.878-21.879H123.422a7.287 7.287 0 1 0 0 14.574h335.166c4.028 0 7.305 3.277 7.305 7.306v1.532H46.108v-1.532c0-4.028 3.277-7.306 7.305-7.306h35.483a7.287 7.287 0 1 0 0-14.574H53.413c-12.064 0-21.878 9.815-21.878 21.879v46.057H20.888a6.322 6.322 0 0 1-6.315-6.315V109.622a6.322 6.322 0 0 1 6.315-6.315h402.357a7.286 7.286 0 0 0 7.286-7.287 7.286 7.286 0 0 0-7.286-7.287H20.888C9.37 88.734 0 98.104 0 109.622v171.954c0 11.518 9.37 20.888 20.888 20.888h470.224c11.518 0 20.888-9.37 20.888-20.888V109.622c0-11.518-9.37-20.888-20.888-20.888zM465.893 287.89H46.108v-8.901h419.785v8.901zm0-23.474H46.108v-6.477h419.785v6.477z"/><path d="M355.178 161.51h-201.27c-9.911 0-17.973 8.063-17.973 17.973 0 9.91 8.063 17.973 17.973 17.973h201.27c9.911 0 17.973-8.063 17.973-17.973 0-9.91-8.063-17.973-17.973-17.973zm0 21.373h-201.27a3.404 3.404 0 0 1-3.4-3.4c0-1.875 1.526-3.4 3.4-3.4h201.27c1.875 0 3.4 1.526 3.4 3.4 0 1.875-1.526 3.4-3.4 3.4z"/></svg>