<svg xmlns="http://www.w3.org/2000/svg" viewBox="0 0 512.001 512.001"><path d="M498.821 434.743h-7.177v-19.518c0-6.764-5.503-12.267-12.267-12.267h-19.171V93.051h36.589c7.338 0 13.308-5.97 13.308-13.308V42.638c0-7.338-5.97-13.308-13.308-13.308H393.982a7.228 7.228 0 1 0 0 14.456h101.665v34.807H16.353V43.787h343.283a7.228 7.228 0 1 0 0-14.456H15.204c-7.338 0-13.308 5.97-13.308 13.308v37.105c0 7.338 5.97 13.308 13.308 13.308h36.589v137.952a7.228 7.228 0 1 0 14.456 0V93.051H445.75v309.908h-29.015V279.893c0-88.629-72.105-160.735-160.735-160.735S95.265 191.263 95.265 279.893v123.066H66.25v-137.14a7.228 7.228 0 1 0-14.456 0v137.14H32.622c-6.764 0-12.267 5.503-12.267 12.267v19.518h-7.177C5.912 434.743 0 440.655 0 447.922v21.57c0 7.267 5.912 13.179 13.179 13.179h485.643c7.266 0 13.179-5.912 13.179-13.179v-21.57c-.001-7.267-5.913-13.179-13.18-13.179zm-389.1-154.85h.001c0-80.658 65.62-146.278 146.278-146.278s146.278 65.62 146.278 146.278v123.066h-18.256v-2.386c0-19.132-15.565-34.696-34.696-34.696h-30.212c14.484-22.306 11.091-48.593 10.907-49.915a7.229 7.229 0 0 0-13.441-2.583c-.052.091-5.266 9.213-12.152 18.254-9.892 12.988-15.375 15.572-17.22 16.085 1.154-1.891 3.38-4.733 5.264-7.138 7.688-9.814 19.307-24.645 25.568-49.017 5.181-20.171-.494-39.275-16.413-55.247-11.532-11.571-24.444-17.389-24.988-17.631a7.228 7.228 0 0 0-8.238 1.696 7.235 7.235 0 0 0-1.057 8.35c3.083 5.714 5.202 13.147 4.442 15.419-.202.06-.586.142-1.223.166a17.72 17.72 0 0 1-.647.013h-.001c-4.294 0-6.177-1.741-7.337-3.258-7.151-9.347-3.619-35.679.287-50.077a7.228 7.228 0 0 0-12.087-7.009c-3.934 3.935-38.316 39.211-34.343 65.696 1.94 12.934 11.019 21.827 18.314 28.973 3.576 3.503 8.474 8.301 8.485 10.512.003.648-.721 1.76-1.937 2.977-1.363 1.363-2.438 1.547-3.309 1.547h-.001c-7.636 0-20.796-14.798-27.282-24.796a7.23 7.23 0 0 0-11.224-1.14c-.771.785-18.877 19.702-17.932 61.581.014.604.034 1.204.062 1.8.585 12.562 4.801 24.482 12.129 34.743h-31.067c-19.132 0-34.696 15.565-34.696 34.696v2.386h-18.256V279.893zm135.146-11.569c-6.348-6.218-12.913-12.648-14.134-20.79-1.319-8.794 5.303-21.714 13.588-33.409-.942 12.675-.002 26.859 6.768 35.718 4.47 5.85 11.021 8.969 18.83 8.94.393 0 .796-.008 1.201-.023 8.023-.309 11.682-4.681 13.149-7.259 1.655-2.909 2.185-6.28 2.048-9.703 11.15 9.142 23.27 24.566 17.721 46.166-5.507 21.439-15.586 34.305-22.945 43.699-3.57 4.557-6.39 8.157-7.896 11.803-2.381 5.768-1.056 11.337 3.636 15.279 2.769 2.326 6.111 3.555 9.668 3.555h.006c8.049-.003 16.662-5.974 26.933-18.728-2.167 7.578-6.048 15.628-12.883 22.304h-87.661c-10.265-9.583-16.222-22.066-16.843-35.414a52.97 52.97 0 0 1-.05-1.453c-.484-21.464 4.681-35.686 8.828-43.563 7.518 9.523 20.251 22.699 33.158 22.698h.005c5.069-.001 9.747-2.001 13.528-5.782 4.119-4.119 6.195-8.585 6.171-13.274-.043-8.242-6.252-14.324-12.826-20.764zM210.14 380.333h139.186c11.16 0 20.239 9.079 20.239 20.239v2.386H142.434v-2.386c0-11.16 9.079-20.239 20.239-20.239h47.467zM34.812 417.415H477.186v17.328H34.812v-17.328zm462.732 50.8H14.457V449.2H497.544v19.015z"/></svg>