<svg xmlns="http://www.w3.org/2000/svg" viewBox="0 0 512 512"><path d="M366.933 0a127.995 127.995 0 0 0-99.413 47.787 42.662 42.662 0 0 0-20.053-5.12H59.733c-23.564 0-42.667 19.102-42.667 42.667V435.2c-.004 20.278 14.265 37.758 34.133 41.813v9.387c0 14.138 11.461 25.6 25.6 25.6h8.533c14.138 0 25.6-11.461 25.6-25.6v-8.533h85.333v8.533c0 14.138 11.462 25.6 25.6 25.6h8.533c14.138 0 25.6-11.461 25.6-25.6v-9.387c19.868-4.056 34.137-21.535 34.133-41.813V230.4c56.554 42.415 136.785 30.954 179.2-25.6a128.002 128.002 0 0 0 25.6-76.8c.002-70.692-57.305-128-127.998-128zM51.2 110.933c0-4.713 3.82-8.533 8.533-8.533s8.533 3.82 8.533 8.533v51.2c0 4.713-3.82 8.533-8.533 8.533s-8.533-3.82-8.533-8.533v-51.2zm8.533 179.2A8.533 8.533 0 0 1 51.2 281.6v-51.2c0-4.713 3.82-8.533 8.533-8.533s8.533 3.82 8.533 8.533v51.2a8.532 8.532 0 0 1-8.533 8.533zM93.867 486.4a8.533 8.533 0 0 1-8.533 8.533H76.8a8.533 8.533 0 0 1-8.533-8.533v-8.533h25.6v8.533zm145.066 0a8.533 8.533 0 0 1-8.533 8.533h-8.533a8.533 8.533 0 0 1-8.533-8.533v-8.533h25.6v8.533zm213.334-349.867h-9.643l8.533 12.373a8.533 8.533 0 0 1-2.389 11.776 8.029 8.029 0 0 1-5.035 1.451 8.534 8.534 0 0 1-7.083-3.84l-14.592-21.76h-34.56l28.16 28.075a8.533 8.533 0 0 1 .049 12.068l-.049.049a8.533 8.533 0 0 1-12.068.049l-.049-.049-28.075-28.16v34.56l21.76 14.592a8.533 8.533 0 0 1-4.693 15.616 8.017 8.017 0 0 1-4.693-1.451l-12.373-8.533v9.984a8.533 8.533 0 0 1-17.066 0v-9.643l-12.373 8.533a8.02 8.02 0 0 1-4.693 1.109 8.532 8.532 0 0 1-4.693-15.616l21.76-14.592v-34.56l-28.075 28.16a8.533 8.533 0 0 1-12.068.049l-.049-.049a8.533 8.533 0 0 1-.049-12.068l.049-.049 28.16-28.075h-34.56l-14.592 21.76a8.534 8.534 0 0 1-7.083 3.84 8.017 8.017 0 0 1-4.693-1.451 8.532 8.532 0 0 1-2.389-11.776l8.533-12.373H281.6c-4.713 0-8.533-3.82-8.533-8.533s3.82-8.533 8.533-8.533h9.643l-8.533-12.373a8.534 8.534 0 1 1 14.166-9.387l14.933 21.76h34.56l-28.16-28.075a8.568 8.568 0 0 1 12.117-12.117l28.075 28.16V73.301l-21.76-15.019a8.533 8.533 0 0 1-3.486-11.553 8.533 8.533 0 0 1 12.872-2.612L358.4 52.65v-9.984c0-4.713 3.82-8.533 8.533-8.533s8.533 3.82 8.533 8.533v9.643l12.373-8.533a8.534 8.534 0 1 1 9.388 14.165l-21.76 14.933v34.133l28.075-28.16a8.568 8.568 0 0 1 12.117 12.117l-28.16 28.501h34.56l14.592-21.76a8.533 8.533 0 0 1 11.553-3.486 8.533 8.533 0 0 1 2.612 12.872l-8.533 12.373h9.984c4.713 0 8.533 3.82 8.533 8.533s-3.821 8.536-8.533 8.536z"/></svg>