<svg xmlns="http://www.w3.org/2000/svg" viewBox="0 0 512 512"><path d="M371.456 187.733h-9.046a4.011 4.011 0 0 0-4.011 4.011v9.045a4.011 4.011 0 0 0 4.011 4.011h9.045a4.011 4.011 0 0 0 4.011-4.011v-9.045a4.01 4.01 0 0 0-4.01-4.011z"/><path d="M366.933 0a127.995 127.995 0 0 0-99.413 47.787 42.662 42.662 0 0 0-20.053-5.12H59.733c-23.564 0-42.667 19.102-42.667 42.667V435.2c-.004 20.278 14.265 37.758 34.133 41.813v9.387c0 14.138 11.461 25.6 25.6 25.6h8.533c14.138 0 25.6-11.461 25.6-25.6v-8.533h85.333v8.533c0 14.138 11.462 25.6 25.6 25.6h8.533c14.138 0 25.6-11.461 25.6-25.6v-9.387c19.868-4.056 34.137-21.535 34.133-41.813V230.4c56.554 42.415 136.785 30.954 179.2-25.6a128.002 128.002 0 0 0 25.6-76.8c.002-70.692-57.305-128-127.998-128zM51.2 110.933c0-4.713 3.82-8.533 8.533-8.533s8.533 3.82 8.533 8.533v51.2c0 4.713-3.82 8.533-8.533 8.533s-8.533-3.82-8.533-8.533v-51.2zm8.533 179.2A8.533 8.533 0 0 1 51.2 281.6v-51.2c0-4.713 3.82-8.533 8.533-8.533s8.533 3.82 8.533 8.533v51.2a8.532 8.532 0 0 1-8.533 8.533zM93.867 486.4a8.533 8.533 0 0 1-8.533 8.533H76.8a8.533 8.533 0 0 1-8.533-8.533v-8.533h25.6v8.533zm145.066 0a8.533 8.533 0 0 1-8.533 8.533h-8.533a8.533 8.533 0 0 1-8.533-8.533v-8.533h25.6v8.533zm153.6-285.611c0 11.641-9.437 21.077-21.077 21.077h-9.045c-11.621-.047-21.031-9.456-21.077-21.077v-9.045c.047-11.621 9.456-21.031 21.077-21.077h9.045c11.641 0 21.077 9.437 21.077 21.077v9.045zm8.534-141.056l-6.4 79.616c-.799 8.18-7.74 14.378-15.957 14.251h-23.552c-8.231.121-15.157-6.136-15.872-14.336L332.8 59.733a14.762 14.762 0 0 1 3.925-11.52 16.3 16.3 0 0 1 12.117-5.547h36.181a16.303 16.303 0 0 1 12.032 5.205 15.103 15.103 0 0 1 4.012 11.862z"/><path d="M356.011 136.533H377.6l6.4-76.8h-34.133z"/></svg>