<svg xmlns="http://www.w3.org/2000/svg" viewBox="0 0 512.768 512.768"><path d="M384.768.384c-63.554.241-117.4 46.871-126.72 109.739a132.808 132.808 0 0 0-1.28 18.261 120.668 120.668 0 0 0 1.365 18.261 128 128 0 0 0 71.765 97.28 125.779 125.779 0 0 0 36.523 11.093 120.636 120.636 0 0 0 18.347 1.365c70.692 0 128-57.308 128-128S455.46.384 384.768.384zm-9.301 68.267c0-4.713 3.82-8.533 8.533-8.533s8.533 3.82 8.533 8.533v34.133c0 4.713-3.82 8.533-8.533 8.533s-8.533-3.82-8.533-8.533V68.651zm50.346 102.4a45.219 45.219 0 0 1-4.608 4.096c-1.792 1.365-3.328 2.475-5.035 3.584l-2.816 1.621a58.967 58.967 0 0 1-58.88 0l-2.304-1.28a59.675 59.675 0 0 1-5.205-3.669 45.988 45.988 0 0 1-4.352-3.84 59.223 59.223 0 0 1-18.347-43.179 58.464 58.464 0 0 1 5.717-25.6 59.74 59.74 0 0 1 24.149-26.027 8.533 8.533 0 0 1 11.779 2.624 8.533 8.533 0 0 1-3.246 12.139 43.093 43.093 0 0 0-17.067 18.773 41.555 41.555 0 0 0-4.267 18.091 42.667 42.667 0 0 0 13.397 30.976 29.24 29.24 0 0 0 2.901 2.475c1.109.853 2.133 1.621 3.499 2.475l1.963 1.109a41.982 41.982 0 0 0 41.728 0l2.475-1.451 3.413-2.475a30.846 30.846 0 0 0 3.072-2.731c12.891-12.753 16.314-32.261 8.533-48.64a42.668 42.668 0 0 0-17.067-18.688 8.532 8.532 0 0 1-2.623-11.779 8.533 8.533 0 0 1 11.157-2.983 59.74 59.74 0 0 1 24.235 26.112c10.912 23.029 6.012 50.444-12.201 68.267zM264.533 192.469a108.29 108.29 0 0 0-51.968-47.019c.09-1.478.09-2.96 0-4.437.001-20.595-16.694-37.291-37.289-37.292-20.595-.001-37.291 16.694-37.292 37.289V142.378a108.54 108.54 0 0 0-59.733 50.005 8.533 8.533 0 0 0 7.85 12.8h170.667a8.533 8.533 0 0 0 7.765-12.714zM299.695 461.18c-.087 0-.173.001-.26.004h-68.267v-8.533h58.965c9.426 0 17.067-7.641 17.067-17.067v-14.421c31.317-40.533 49.835-68.267 40.789-114.944-8.533-43.435-59.733-62.379-70.315-65.707-.939-2.816-1.877-5.205-2.56-7.083a17.067 17.067 0 0 0-16.299-11.179H8.533A8.533 8.533 0 0 0 0 230.783a78.422 78.422 0 0 0 45.056 68.267 592.936 592.936 0 0 0-10.923 137.131c.322 9.192 7.869 16.475 17.067 16.469h60.757v8.533H43.691a8.533 8.533 0 0 0-8.533 8.533v25.6c0 9.426 7.641 17.067 17.067 17.067h238.933c9.426 0 17.067-7.641 17.067-17.067v-25.6a8.535 8.535 0 0 0-8.53-8.536zm31.228-151.975c6.229 32.171-2.56 53.419-25.6 84.821a630.181 630.181 0 0 0-21.76-132.864c16.64 7.425 42.496 22.87 47.36 48.043zM49.237 281.984a60.244 60.244 0 0 1-31.061-42.667h45.483a302.294 302.294 0 0 0-14.422 42.667zm164.864 179.2h-85.333v-8.533h85.333v8.533zm-42.666-51.2c-24.32 0-42.667-34.816-42.667-81.067 0-46.251 18.347-81.067 42.667-81.067s42.667 34.816 42.667 81.067c-.001 46.251-18.347 81.067-42.667 81.067z"/><path d="M171.435 264.917c-10.667 0-25.6 24.32-25.6 64s14.933 64 25.6 64c10.667 0 25.6-24.32 25.6-64s-14.848-64-25.6-64z"/></svg>