<svg xmlns="http://www.w3.org/2000/svg" viewBox="0 0 512 512"><path d="M422.315 109.739A42.666 42.666 0 0 0 384 85.334a43.093 43.093 0 0 0-38.656 24.576 41.57 41.57 0 0 0-4.011 18.091 42.667 42.667 0 0 0 13.397 30.976 32.109 32.109 0 0 0 2.901 2.475l3.499 2.475 1.963 1.109a41.982 41.982 0 0 0 41.728 0l2.475-1.451 3.413-2.475a30.846 30.846 0 0 0 3.072-2.731c12.892-12.753 16.314-32.261 8.534-48.64zm-29.782 35.328a8.533 8.533 0 0 1-17.066 0v-34.133c0-4.713 3.82-8.533 8.533-8.533s8.533 3.82 8.533 8.533v34.133z"/><path d="M384 0c-63.554.241-117.4 46.871-126.72 109.739A133.45 133.45 0 0 0 256 128a120.41 120.41 0 0 0 1.365 18.261 128 128 0 0 0 71.765 97.28 125.84 125.84 0 0 0 36.523 11.093A120.636 120.636 0 0 0 384 255.999c70.692 0 128-57.308 128-128S454.692 0 384 0zm41.813 170.667a45.219 45.219 0 0 1-4.608 4.096c-1.792 1.365-3.328 2.475-5.035 3.584l-2.816 1.621a58.967 58.967 0 0 1-58.88 0l-2.304-1.28a61.473 61.473 0 0 1-5.12-3.584 46.135 46.135 0 0 1-4.352-3.755A59.734 59.734 0 0 1 324.266 128a58.464 58.464 0 0 1 5.717-25.6c14.084-29.832 49.686-42.598 79.518-28.514a59.733 59.733 0 0 1 28.514 28.514c10.911 23.029 6.011 50.444-12.202 68.267zM264.533 192.085a108.377 108.377 0 0 0-52.053-47.019 35.7 35.7 0 0 0 0-4.437c.001-20.595-16.694-37.291-37.289-37.292-20.595-.001-37.291 16.694-37.292 37.289V141.994A108.634 108.634 0 0 0 78.165 192a8.533 8.533 0 0 0 7.85 12.8h170.667a8.533 8.533 0 0 0 7.851-12.715zM171.349 264.533c-10.667 0-25.6 24.32-25.6 64s14.933 64 25.6 64c10.667 0 25.6-24.32 25.6-64s-14.848-64-25.6-64z"/><path d="M299.698 460.793a8.08 8.08 0 0 0-.348.007h-68.267v-8.533h59.051c9.426 0 17.067-7.641 17.067-17.067v-14.421c31.317-40.533 49.835-68.267 40.789-114.944-8.533-43.435-59.733-62.379-70.315-65.707-.939-2.816-1.877-5.205-2.56-7.083a17.067 17.067 0 0 0-16.384-11.179H8.533A8.534 8.534 0 0 0 0 230.4a78.422 78.422 0 0 0 45.056 68.267 592.218 592.218 0 0 0-10.923 137.131c.322 9.192 7.869 16.475 17.067 16.469h60.757v8.533H43.691a8.533 8.533 0 0 0-8.533 8.533v25.6c0 9.426 7.641 17.067 17.067 17.067h238.933c9.426 0 17.067-7.641 17.067-17.067v-25.6a8.535 8.535 0 0 0-8.527-8.54zm31.139-151.972c6.229 32.171-2.56 53.419-25.6 84.821a630.181 630.181 0 0 0-21.76-132.864c16.64 7.425 42.496 22.87 47.36 48.043zM49.152 281.6a60.244 60.244 0 0 1-31.061-42.667h45.483A302.422 302.422 0 0 0 49.152 281.6zm164.864 179.2h-85.333v-8.533h85.333v8.533zm-42.667-51.2c-24.32 0-42.667-34.816-42.667-81.067 0-46.251 18.347-81.067 42.667-81.067s42.667 34.816 42.667 81.067c0 46.251-18.347 81.067-42.667 81.067z"/></svg>