<svg xmlns="http://www.w3.org/2000/svg" viewBox="0 0 512 512"><path d="M384 0a126.533 126.533 0 0 0-59.733 15.019C323.225 6.401 315.881-.062 307.2 0h-256c-9.426 0-17.067 7.641-17.067 17.067v409.6c-9.426 0-17.067 7.641-17.067 17.067v17.067C7.641 460.801 0 468.441 0 477.867v25.6A8.533 8.533 0 0 0 8.534 512h341.333a8.533 8.533 0 0 0 8.533-8.533v-25.6c0-9.426-7.641-17.067-17.067-17.067v-17.067c0-9.426-7.641-17.067-17.067-17.067V240.982l4.864 2.56a127.14 127.14 0 0 0 36.523 11.093c6.07.934 12.205 1.39 18.347 1.365 70.692 0 128-57.308 128-128S454.693 0 384 0zM221.867 145.067c0-4.713 3.82-8.533 8.533-8.533s8.533 3.82 8.533 8.533v8.533a8.533 8.533 0 0 1-17.066 0v-8.533zm0 42.667c0-4.713 3.82-8.533 8.533-8.533s8.533 3.82 8.533 8.533v8.533c0 4.713-3.82 8.533-8.533 8.533s-8.533-3.82-8.533-8.533v-8.533zm0 42.666c0-4.713 3.82-8.533 8.533-8.533s8.533 3.82 8.533 8.533v8.533c0 4.713-3.82 8.533-8.533 8.533s-8.533-3.82-8.533-8.533V230.4zm0 42.667a8.533 8.533 0 0 1 17.066 0v8.533c0 4.713-3.82 8.533-8.533 8.533s-8.533-3.82-8.533-8.533v-8.533zM179.2 59.734c21.077 0 38.656 18.517 42.069 42.667H137.13c3.414-24.15 20.993-42.667 42.07-42.667zm17.067 187.733a8.533 8.533 0 0 1-8.533-8.533V230.4c0-4.713 3.82-8.533 8.533-8.533s8.533 3.82 8.533 8.533v8.533a8.533 8.533 0 0 1-8.533 8.534zm8.533 25.6v8.533c0 4.713-3.82 8.533-8.533 8.533s-8.533-3.82-8.533-8.533v-8.533c0-4.713 3.82-8.533 8.533-8.533s8.533 3.82 8.533 8.533zm-8.533-68.267a8.533 8.533 0 0 1-8.533-8.533v-8.533c0-4.713 3.82-8.533 8.533-8.533s8.533 3.82 8.533 8.533v8.533a8.533 8.533 0 0 1-8.533 8.533zm0-42.666a8.533 8.533 0 0 1-8.533-8.533v-8.533c0-4.713 3.82-8.533 8.533-8.533s8.533 3.82 8.533 8.533v8.533a8.533 8.533 0 0 1-8.533 8.533zm-34.133 85.333a8.533 8.533 0 0 1-8.533-8.533V230.4c0-4.713 3.82-8.533 8.533-8.533s8.533 3.82 8.533 8.533v8.533a8.533 8.533 0 0 1-8.533 8.534zm8.533 25.6v8.533c0 4.713-3.82 8.533-8.533 8.533s-8.533-3.82-8.533-8.533v-8.533c0-4.713 3.82-8.533 8.533-8.533s8.533 3.82 8.533 8.533zm-8.533-68.267a8.533 8.533 0 0 1-8.533-8.533v-8.533c0-4.713 3.82-8.533 8.533-8.533s8.533 3.82 8.533 8.533v8.533a8.533 8.533 0 0 1-8.533 8.533zm0-42.666a8.533 8.533 0 0 1-8.533-8.533v-8.533c0-4.713 3.82-8.533 8.533-8.533s8.533 3.82 8.533 8.533v8.533a8.534 8.534 0 0 1-8.533 8.533zm-42.667-17.067c0-4.713 3.82-8.533 8.533-8.533s8.533 3.82 8.533 8.533v8.533a8.533 8.533 0 0 1-17.066 0v-8.533zm0 42.667c0-4.713 3.82-8.533 8.533-8.533s8.533 3.82 8.533 8.533v8.533c0 4.713-3.82 8.533-8.533 8.533s-8.533-3.82-8.533-8.533v-8.533zm0 42.666c0-4.713 3.82-8.533 8.533-8.533s8.533 3.82 8.533 8.533v8.533c0 4.713-3.82 8.533-8.533 8.533s-8.533-3.82-8.533-8.533V230.4zm0 42.667a8.533 8.533 0 0 1 17.066 0v8.533c0 4.713-3.82 8.533-8.533 8.533s-8.533-3.82-8.533-8.533v-8.533zm-68.267-51.2h17.067v25.6H51.2v-25.6zM34.134 443.734h290.133v17.067H34.134v-17.067zm307.2 34.133v17.067H17.067v-17.067h324.267zm84.48-307.2a37.959 37.959 0 0 1-4.608 4.096c-1.792 1.365-3.328 2.475-5.035 3.584l-2.731 1.621a57.338 57.338 0 0 1-29.44 7.765 56.662 56.662 0 0 1-29.44-7.936l-2.304-1.28a61.307 61.307 0 0 1-5.12-3.584 38.788 38.788 0 0 1-4.437-3.84A59.736 59.736 0 0 1 324.267 128a57.524 57.524 0 0 1 5.717-25.6c14.084-29.832 49.686-42.598 79.518-28.514a59.733 59.733 0 0 1 28.514 28.514c10.911 23.029 6.01 50.444-12.202 68.267z"/><path d="M421.275 107.311c-.09-.162-.182-.322-.273-.483-10.912-19.161-34.9-27.006-55.195-17.466a42.664 42.664 0 0 0-20.462 20.462A41.891 41.891 0 0 0 341.334 128a42.667 42.667 0 0 0 13.397 30.976c.921.877 1.89 1.704 2.901 2.475 1.024.853 2.133 1.621 3.499 2.56l1.963 1.024a41.898 41.898 0 0 0 41.728 0l2.475-1.451a31.514 31.514 0 0 0 3.413-2.475 22.073 22.073 0 0 0 3.072-2.731 42.066 42.066 0 0 0 12.885-30.379 41.389 41.389 0 0 0-4.096-18.176 44.003 44.003 0 0 0-1.296-2.512zm-28.741 37.756a8.533 8.533 0 0 1-17.066 0v-34.133c0-4.713 3.82-8.533 8.533-8.533s8.533 3.82 8.533 8.533v34.133z"/></svg>