<svg xmlns="http://www.w3.org/2000/svg" viewBox="0 0 477.999 477.999"><path d="M131.48 180.356a130.25 130.25 0 0 1-6.912-11.861 124.309 124.309 0 0 1-5.461-12.8c0-.512-.512-1.024-.683-1.536-8.828.573-15.755 7.796-15.957 16.64 0 9.426 7.641 17.067 17.067 17.067a17.065 17.065 0 0 0 12.885-5.888l-.939-1.622zM102.466 85.807a8.533 8.533 0 0 0-8.533 8.533v8.533H111v-.341-3.157c0-1.109 0-3.84.597-5.803s0-2.389.597-3.584c.597-1.195 0-2.816.683-4.181h-10.411z"/><path d="M171.757 219.951a132.406 132.406 0 0 1-11.861-8.533 126.462 126.462 0 0 1-17.067-16.128c-13.585 13.069-35.193 12.651-48.263-.934-13.069-13.585-12.651-35.193.934-48.263a34.13 34.13 0 0 1 18.144-9.085v-1.621l-.512-2.901a127.328 127.328 0 0 1-2.133-12.885H76.866a8.533 8.533 0 0 0-8.533 8.533v93.867h107.008l-3.584-2.05zM68.333 443.866v25.6a8.533 8.533 0 0 0 8.533 8.533h324.267a8.533 8.533 0 0 0 8.533-8.533v-25.6H68.333zM270.914 114.65a54.618 54.618 0 0 0-11.093-13.909 68.27 68.27 0 0 1-19.968-45.995 52.488 52.488 0 0 0-3.925 5.632 51.97 51.97 0 0 0 1.024 55.552 8.534 8.534 0 0 1-11.691 12.203 46.418 46.418 0 0 1-19.285-21.931c-13.998 16.554-11.926 41.321 4.628 55.319a39.258 39.258 0 0 0 24.983 9.278 39.251 39.251 0 0 0 36.949-26.112 39.254 39.254 0 0 0-1.622-30.037zM374.85 85.466h-10.41c0 1.365.427 2.731.683 4.181.256 1.451.427 2.304.597 3.584 0 1.963.427 3.84.597 5.803.171 1.963 0 2.048 0 3.157h17.067v-8.192a8.533 8.533 0 0 0-8.534-8.533zM359.661 153.733c0 .512-.427 1.024-.683 1.536a124.515 124.515 0 0 1-5.461 12.885 129.921 129.921 0 0 1-6.997 12.032l-.939 1.792a17.065 17.065 0 0 0 12.885 5.888c9.426.33 17.334-7.044 17.664-16.469s-7.043-17.335-16.469-17.664z"/><path d="M345.837 79.322C328.362 20.6 266.593-12.837 207.871 4.637a110.933 110.933 0 0 0-74.685 74.685c0 .853 0 1.707-.683 2.475a109.77 109.77 0 0 0-4.437 21.163v8.107a110.931 110.931 0 0 0 21.504 65.621 112.633 112.633 0 0 0 21.163 21.504 114.5 114.5 0 0 0 10.325 7.253c49.228 30.363 113.522 17.808 147.712-28.843a110.932 110.932 0 0 0 17.067-97.28zm-57.429 70.741c-10.282 29.356-42.416 44.818-71.772 34.536-29.356-10.282-44.818-42.416-34.536-71.772a56.325 56.325 0 0 1 24.302-29.751l.171.256a7.683 7.683 0 0 1 4.693-1.195 68.255 68.255 0 0 1 9.899-30.805 69.202 69.202 0 0 1 25.6-24.405 8.534 8.534 0 0 1 12.288 9.984 51.805 51.805 0 0 0-2.219 13.312V52.1a51.2 51.2 0 0 0 15.189 36.608 68.277 68.277 0 0 1 14.08 18.261 56.319 56.319 0 0 1 2.305 43.094zM102.466 273.199v119.467h273.067V273.199H102.466zm118.102 51.712a42.198 42.198 0 0 1-4.437 10.667l-1.28 2.048a30.705 30.705 0 0 0-2.475 4.437 24.92 24.92 0 0 0 3.072 20.651 8.533 8.533 0 0 1-3.157 11.605 8.523 8.523 0 0 1-4.181 1.109 8.533 8.533 0 0 1-7.424-4.267 40.703 40.703 0 0 1-4.352-35.328 44.76 44.76 0 0 1 3.84-7.168l1.109-1.792a24.744 24.744 0 0 0 2.645-6.4 20.904 20.904 0 0 0 0-10.411 13.482 13.482 0 0 0-2.645-5.632 8.547 8.547 0 1 1 12.63-11.52 30.473 30.473 0 0 1 6.571 12.971 38.001 38.001 0 0 1 .084 19.03zm34.133 0a42.198 42.198 0 0 1-4.437 10.667l-1.28 2.048a30.705 30.705 0 0 0-2.475 4.437 24.92 24.92 0 0 0 3.072 20.651 8.533 8.533 0 0 1-3.157 11.605 8.523 8.523 0 0 1-4.181 1.109 8.533 8.533 0 0 1-7.424-4.267 40.703 40.703 0 0 1-4.352-35.328 44.76 44.76 0 0 1 3.84-7.168l1.109-1.792a24.744 24.744 0 0 0 2.645-6.4 20.904 20.904 0 0 0 0-10.411 13.482 13.482 0 0 0-2.645-5.632 8.547 8.547 0 1 1 12.63-11.52 30.473 30.473 0 0 1 6.571 12.971 37.99 37.99 0 0 1 .084 19.03zm34.133 0a42.198 42.198 0 0 1-4.437 10.667l-1.28 2.048a30.705 30.705 0 0 0-2.475 4.437 24.92 24.92 0 0 0 3.072 20.651 8.533 8.533 0 0 1-3.157 11.605 8.523 8.523 0 0 1-4.181 1.109 8.533 8.533 0 0 1-7.424-4.267 40.703 40.703 0 0 1-4.352-35.328 44.76 44.76 0 0 1 3.84-7.168l1.109-1.792a24.744 24.744 0 0 0 2.645-6.4 20.904 20.904 0 0 0 0-10.411 13.482 13.482 0 0 0-2.645-5.632 8.547 8.547 0 1 1 12.63-11.52 30.473 30.473 0 0 1 6.571 12.971 37.99 37.99 0 0 1 .084 19.03z"/><path d="M68.333 239.066v187.733h341.333V239.066H68.333zm324.267 153.6c0 9.426-7.641 17.067-17.067 17.067H102.466c-9.426 0-17.067-7.641-17.067-17.067V273.199c0-9.426 7.641-17.067 17.067-17.067h273.067c9.426 0 17.067 7.641 17.067 17.067v119.467zM401.133 119.599H367a127.815 127.815 0 0 1-1.536 12.715l-.512 2.987v1.621c18.603 3.049 31.213 20.601 28.164 39.204-3.049 18.603-20.601 31.213-39.204 28.164a34.137 34.137 0 0 1-18.144-9.085 126.403 126.403 0 0 1-17.067 16.128 130.939 130.939 0 0 1-11.861 8.533l-3.584 2.048h106.411v-93.781a8.535 8.535 0 0 0-8.534-8.534z"/></svg>