<svg xmlns="http://www.w3.org/2000/svg" viewBox="0 0 469.333 469.333"><path d="M303.36 301.781a54.46 54.46 0 0 0-11.093-13.995 68.27 68.27 0 0 1-20.139-46.165 52.488 52.488 0 0 0-3.925 5.632 51.97 51.97 0 0 0 1.024 55.552 8.533 8.533 0 0 1-11.52 12.374 46.418 46.418 0 0 1-19.285-21.931c-14.207 16.375-12.449 41.167 3.926 55.374s41.167 12.449 55.374-3.926a39.257 39.257 0 0 0 5.638-42.915z"/><path d="M452.267 221.312h-76.8a128 128 0 0 0-59.733-43.776v-33.024a8.533 8.533 0 0 0-8.533-8.533h-8.533v-17.067h25.6a63.658 63.658 0 0 0 42.667 17.067c23.564 0 42.667-19.103 42.667-42.667S390.5 50.645 366.935 50.645a63.66 63.66 0 0 0-42.667 17.067h-25.6v-3.157c0-16.495-13.372-29.867-29.867-29.867s-29.867 13.372-29.867 29.867v3.157h-25.6a63.658 63.658 0 0 0-42.667-17.067C147.103 50.645 128 69.748 128 93.312s19.103 42.667 42.667 42.667a63.66 63.66 0 0 0 42.667-17.067h25.6v17.067H230.4a8.533 8.533 0 0 0-8.533 8.533v36.523a128.004 128.004 0 0 0-51.2 40.277H128c-70.571 0-128 53.589-128 119.467v25.6c0 9.426 7.641 17.067 17.067 17.067h51.2c9.426 0 17.067-7.641 17.067-17.067v-25.6c0-18.859 19.115-34.133 42.667-34.133h17.067c0 70.693 57.308 128 128 128s128-57.308 128-128h51.2c9.426 0 17.067-7.641 17.067-17.067v-51.2c-.002-9.426-7.643-17.067-17.068-17.067zm-213.334-68.267h59.733v19.883a121.162 121.162 0 0 0-59.733 2.048v-21.931zm82.262 184.406l-.171-.085c-10.318 29.343-42.47 44.766-71.814 34.448s-44.767-42.47-34.448-71.814a56.32 56.32 0 0 1 24.171-29.621 7.851 7.851 0 0 1 4.693-1.195 68.256 68.256 0 0 1 9.984-30.805 69.202 69.202 0 0 1 25.6-24.405 8.534 8.534 0 0 1 12.288 9.984 51.805 51.805 0 0 0-2.219 13.312v1.877a51.2 51.2 0 0 0 15.189 36.608 69.614 69.614 0 0 1 14.421 18.603 56.398 56.398 0 0 1 2.306 43.093z"/></svg>