<svg xmlns="http://www.w3.org/2000/svg" viewBox="0 0 477.999 477.999"><path d="M68.333 443.866v25.6a8.533 8.533 0 0 0 8.533 8.533h324.267a8.533 8.533 0 0 0 8.533-8.533v-25.6H68.333zM171.757 219.951a131.33 131.33 0 0 1-11.861-8.533 126.403 126.403 0 0 1-17.067-16.128c-13.585 13.069-35.193 12.651-48.263-.934-13.069-13.585-12.651-35.193.934-48.263a34.13 34.13 0 0 1 18.144-9.085v-1.621l-.512-2.901a127.892 127.892 0 0 1-2.133-12.885H76.866a8.533 8.533 0 0 0-8.533 8.533v93.867h107.008l-3.584-2.05z"/><circle cx="239" cy="111.066" r="25.6"/><path d="M131.48 180.356a130.366 130.366 0 0 1-6.827-11.776v-.427a124.557 124.557 0 0 1-5.376-12.715c0-.512-.512-1.109-.683-1.621-9.024.497-16.096 7.943-16.128 16.981 0 9.426 7.641 17.067 17.067 17.067a17.065 17.065 0 0 0 12.885-5.888l-.938-1.621zM112.962 85.466h-10.496a8.533 8.533 0 0 0-8.533 8.533v8.533H111v-.512-2.816c0-.939 0-4.011.683-5.973s0-2.475.597-3.669c.597-1.195 0-2.731.682-4.096zM345.837 79.322C328.362 20.6 266.593-12.837 207.871 4.637a110.933 110.933 0 0 0-74.685 74.685 109.328 109.328 0 0 0-4.267 23.552v8.107a110.931 110.931 0 0 0 21.504 65.621l-.853.085a112.545 112.545 0 0 0 21.163 21.504 115.601 115.601 0 0 0 10.325 7.253c49.228 30.363 113.522 17.808 147.712-28.843a110.929 110.929 0 0 0 17.067-97.279zm-51.635 85.931a8.533 8.533 0 0 1-12.963 0l-18.688-18.688c-19.593 13.091-46.089 7.82-59.18-11.774-13.091-19.593-7.82-46.089 11.774-59.18a42.659 42.659 0 0 1 15.321-6.358V27.269a8.533 8.533 0 0 1 17.066 0v41.984c23.084 4.734 37.959 27.285 33.225 50.369a42.666 42.666 0 0 1-6.174 14.911l18.688 18.688a8.532 8.532 0 0 1 .931 12.032zM401.133 119.599H367c-.297 4.29-.809 8.562-1.536 12.8l-.512 2.987v1.621c18.603 3.049 31.213 20.601 28.164 39.204s-20.601 31.213-39.204 28.164a34.137 34.137 0 0 1-18.144-9.085 126.28 126.28 0 0 1-17.067 16.128 128.58 128.58 0 0 1-11.861 8.533l-3.584 2.048h106.411v-93.867a8.535 8.535 0 0 0-8.534-8.533zM68.333 239.066v187.733h341.333V239.066H68.333zm324.267 153.6c0 9.426-7.641 17.067-17.067 17.067H102.466c-9.426 0-17.067-7.641-17.067-17.067V273.199c0-9.426 7.641-17.067 17.067-17.067h273.067c9.426 0 17.067 7.641 17.067 17.067v119.467zM374.936 85.466H364.44c0 1.365.427 2.731.683 4.096a64.65 64.65 0 0 1 .597 3.669c0 1.963.427 4.011.683 6.059.256 2.048 0 1.877 0 2.816v.427h17.067V94a8.535 8.535 0 0 0-8.534-8.534z"/><path d="M359.661 153.733c0 .512-.512 1.024-.683 1.536a124.844 124.844 0 0 1-5.461 12.8 130.131 130.131 0 0 1-6.912 11.947l-1.024 1.963a17.065 17.065 0 0 0 12.885 5.888c9.426.33 17.334-7.044 17.664-16.469s-7.043-17.336-16.469-17.665zM102.466 273.199v119.467h273.067V273.199H102.466zm118.102 51.797a41.813 41.813 0 0 1-4.437 10.667l-1.28 2.133a30.042 30.042 0 0 0-2.475 4.437 25.002 25.002 0 0 0 3.072 20.736 8.533 8.533 0 0 1-3.157 11.605 8.533 8.533 0 0 1-11.605-3.157 40.618 40.618 0 0 1-4.352-35.584c1.061-2.5 2.346-4.9 3.84-7.168l1.109-1.792a24.38 24.38 0 0 0 2.645-6.315 20.654 20.654 0 0 0 0-10.411 13.666 13.666 0 0 0-2.645-5.632 8.534 8.534 0 0 1 12.629-11.435 30.473 30.473 0 0 1 6.571 12.971 37.736 37.736 0 0 1 .085 18.945zm34.133 0a41.813 41.813 0 0 1-4.437 10.667l-1.28 2.133a30.042 30.042 0 0 0-2.475 4.437 25.002 25.002 0 0 0 3.072 20.736 8.533 8.533 0 0 1-3.157 11.605 8.533 8.533 0 0 1-11.605-3.157 40.618 40.618 0 0 1-4.352-35.584c1.061-2.5 2.346-4.9 3.84-7.168l1.109-1.792a24.38 24.38 0 0 0 2.645-6.315 20.654 20.654 0 0 0 0-10.411 13.666 13.666 0 0 0-2.645-5.632 8.534 8.534 0 0 1 12.629-11.435 30.473 30.473 0 0 1 6.571 12.971 37.725 37.725 0 0 1 .085 18.945zm34.133 0a41.813 41.813 0 0 1-4.437 10.667l-1.28 2.133a30.042 30.042 0 0 0-2.475 4.437 25.002 25.002 0 0 0 3.072 20.736 8.533 8.533 0 0 1-3.157 11.605 8.533 8.533 0 0 1-11.605-3.157 40.618 40.618 0 0 1-4.352-35.584c1.061-2.5 2.346-4.9 3.84-7.168l1.109-1.792a24.38 24.38 0 0 0 2.645-6.315 20.654 20.654 0 0 0 0-10.411 13.666 13.666 0 0 0-2.645-5.632 8.533 8.533 0 1 1 12.629-11.435 30.473 30.473 0 0 1 6.571 12.971 37.713 37.713 0 0 1 .085 18.945z"/></svg>