<svg xmlns="http://www.w3.org/2000/svg" viewBox="0 0 469.333 469.333"><path d="M452.267 221.312h-76.8a128 128 0 0 0-59.733-43.776v-33.024a8.533 8.533 0 0 0-8.533-8.533h-8.533v-17.067h25.6a63.658 63.658 0 0 0 42.667 17.067c23.564 0 42.667-19.103 42.667-42.667S390.5 50.645 366.935 50.645a63.66 63.66 0 0 0-42.667 17.067h-25.6v-3.157c0-16.495-13.372-29.867-29.867-29.867s-29.867 13.372-29.867 29.867v3.157h-25.6a63.658 63.658 0 0 0-42.667-17.067C147.103 50.645 128 69.748 128 93.312s19.103 42.667 42.667 42.667a63.66 63.66 0 0 0 42.667-17.067h25.6v17.067H230.4a8.533 8.533 0 0 0-8.533 8.533v36.523a128.004 128.004 0 0 0-51.2 40.277H128c-70.571 0-128 53.589-128 119.467v25.6c0 9.426 7.641 17.067 17.067 17.067h51.2c9.426 0 17.067-7.641 17.067-17.067v-25.6c0-18.859 19.115-34.133 42.667-34.133h17.067c0 70.693 57.308 128 128 128s128-57.308 128-128h51.2c9.426 0 17.067-7.641 17.067-17.067v-51.2c-.002-9.426-7.643-17.067-17.068-17.067zm-213.334-68.267h59.733v19.883a121.162 121.162 0 0 0-59.733 2.048v-21.931zM358.4 306.731v-.085h-9.643l8.533 12.373a8.534 8.534 0 1 1-14.165 9.472l-14.933-21.845h-34.56l28.075 28.075a8.533 8.533 0 1 1-12.032 12.032L281.6 318.677v34.56l21.76 14.507a8.533 8.533 0 1 1-9.472 14.165l-12.373-8.533v10.069c0 4.713-3.82 8.533-8.533 8.533s-8.533-3.82-8.533-8.533v-9.643l-12.373 8.533a8.534 8.534 0 1 1-9.472-14.165l21.931-14.933v-34.56l-28.075 28.075a8.533 8.533 0 0 1-12.032-12.032l28.075-28.075h-34.56l-14.507 21.76a8.534 8.534 0 0 1-14.165-9.472l8.533-12.373h-10.069c-4.713 0-8.533-3.82-8.533-8.533s3.82-8.533 8.533-8.533h9.643l-8.533-12.373a8.534 8.534 0 1 1 14.165-9.472l14.933 21.931h34.56l-28.075-28.075a8.533 8.533 0 0 1 12.032-12.032l28.075 28.075v-34.56l-21.76-14.507a8.533 8.533 0 1 1 9.472-14.165l12.373 8.533V212.78a8.533 8.533 0 0 1 17.066 0v9.643l12.373-8.533a8.534 8.534 0 1 1 9.472 14.165L281.6 242.987v34.56l28.075-28.075a8.533 8.533 0 0 1 12.032 12.032l-28.075 28.075h34.56l14.507-21.76a8.533 8.533 0 1 1 14.165 9.472l-8.533 12.373H358.4c4.713 0 8.533 3.82 8.533 8.533s-3.82 8.534-8.533 8.534z"/></svg>