<svg xmlns="http://www.w3.org/2000/svg" viewBox="0 0 512.379 512.379"><path d="M507.948 391.01l-.036-.02a8.533 8.533 0 0 0-11.586 3.377l-.02.036a276.664 276.664 0 0 1-83.2 93.867 8.534 8.534 0 0 0 9.813 13.91 293.8 293.8 0 0 0 88.405-99.584 8.532 8.532 0 0 0-3.376-11.586zM481.16 367.822a8.547 8.547 0 0 0-11.477 3.797 240.808 240.808 0 0 1-89.771 97.707 8.533 8.533 0 0 0 8.534 14.592 257.968 257.968 0 0 0 96.512-104.619 8.549 8.549 0 0 0-3.798-11.477zM100.507 488.72a8.514 8.514 0 0 0-1.001-.706 276.65 276.65 0 0 1-83.115-93.525 8.638 8.638 0 0 0-15.019 8.533 293.802 293.802 0 0 0 88.32 98.901c3.646 2.986 9.022 2.451 12.009-1.195s2.452-9.022-1.194-12.008zM132.445 468.899l.341.427a240.805 240.805 0 0 1-90.112-97.707 8.548 8.548 0 0 0-11.477-3.797 8.548 8.548 0 0 0-3.797 11.477 257.88 257.88 0 0 0 96.512 104.192 8.533 8.533 0 0 0 8.533-14.592z"/><path d="M256.008 8.526C117.866 7.903 4.353 117.405.008 255.481a17.068 17.068 0 0 0 4.693 12.288 17.066 17.066 0 0 0 12.885 5.291h17.067c4.58 118.991 102.276 213.147 221.355 213.333h13.397a223.64 223.64 0 0 0 39.68-5.973c96.109-23.904 164.887-108.4 168.789-207.36h17.067a17.065 17.065 0 0 0 12.288-5.205 17.068 17.068 0 0 0 4.779-12.373c-4.344-138.077-117.857-247.579-256-246.956zm39.339 456.96l-4.523.853-7.339 1.109-4.181.512-8.533.768H264.542v-16.469a8.533 8.533 0 0 0-17.066 0v17.067H240.82l-8.107-.683-4.352-.597-6.485-1.707-4.693-.853-2.987-.597c2.577-23.423 23.655-40.321 47.078-37.744 19.869 2.186 35.557 17.874 37.744 37.744l-3.671.597zm88.661-191.659a125.192 125.192 0 0 1-8.021 36.437 128.003 128.003 0 0 1-30.037 45.739 110.42 110.42 0 0 1-10.496 9.216 131.7 131.7 0 0 1-11.776 8.533c-1.109.683-2.389 1.451-3.669 2.048-39.556 23.042-88.444 23.042-128 0l-3.243-1.877a131.557 131.557 0 0 1-11.776-8.533 110.158 110.158 0 0 1-10.496-9.216 127.48 127.48 0 0 1-29.952-45.909 125.618 125.618 0 0 1-8.021-36.608v-9.045a126.296 126.296 0 0 1 12.373-54.869c30.323-63.859 106.672-91.045 170.531-60.722a127.999 127.999 0 0 1 60.722 60.722 126.206 126.206 0 0 1 11.861 54.784v9.3zm72.875-85.418v.085a17.066 17.066 0 0 1-14.336 7.851h-19.029a17.068 17.068 0 0 1-15.104-9.301c-42.839-83.959-145.629-117.293-229.588-74.454a170.665 170.665 0 0 0-74.454 74.454 17.068 17.068 0 0 1-15.104 9.216H70.237c-9.426.028-17.089-7.591-17.116-17.017a17.064 17.064 0 0 1 1.5-7.047l1.195-2.645C108.243 58.799 240.525 11.517 351.277 63.944A221.869 221.869 0 0 1 456.883 169.55l1.195 2.645a17.07 17.07 0 0 1-1.195 16.214z"/><path d="M441.437 176.718C407.238 105.334 335.162 59.859 256.008 59.726c-78.926.41-150.679 45.881-184.747 117.077l-1.109 2.389h19.115c47.183-92.324 160.276-128.919 252.6-81.736a187.735 187.735 0 0 1 81.736 81.736h18.944l-1.11-2.474z"/><path d="M356.275 216.995c-18.479-38.631-57.444-63.27-100.267-63.403-42.823.133-81.788 24.772-100.267 63.403a109.316 109.316 0 0 0-10.667 47.531v7.765a108.833 108.833 0 0 0 6.997 31.915 110.941 110.941 0 0 0 26.112 39.595 91.181 91.181 0 0 0 8.96 7.851 113.618 113.618 0 0 0 10.411 7.253l2.304 1.365a111.613 111.613 0 0 0 110.933 0l2.731-1.536a113.818 113.818 0 0 0 10.325-7.253 93.862 93.862 0 0 0 8.96-7.851 110.93 110.93 0 0 0 26.112-39.68 108.207 108.207 0 0 0 8.021-31.403v-8.021a109.215 109.215 0 0 0-10.665-47.531zm-33.886 9.91a8.914 8.914 0 0 1-.333.416v-.085l-68.267 85.333a8.533 8.533 0 0 1-11.986 1.402l-.046-.036-42.667-34.133a8.533 8.533 0 0 1 10.667-13.312l36.011 28.843 62.976-78.677a8.533 8.533 0 0 1 11.948-1.697 8.53 8.53 0 0 1 1.697 11.946z"/></svg>