<svg xmlns="http://www.w3.org/2000/svg" viewBox="0 0 512.284 512.284"><path d="M507.704 390.962l-.036-.02a8.533 8.533 0 0 0-11.586 3.377l-.02.036a276.664 276.664 0 0 1-83.2 93.867 8.534 8.534 0 0 0 9.813 13.91 293.8 293.8 0 0 0 88.405-99.584 8.532 8.532 0 0 0-3.376-11.586zM480.916 367.774a8.547 8.547 0 0 0-11.477 3.797 240.808 240.808 0 0 1-89.771 97.707 8.533 8.533 0 0 0 8.534 14.592 257.968 257.968 0 0 0 96.512-104.619 8.55 8.55 0 0 0-3.798-11.477zM100.263 488.672a8.514 8.514 0 0 0-1.001-.706 276.65 276.65 0 0 1-83.115-93.525 8.638 8.638 0 0 0-15.019 8.533 293.802 293.802 0 0 0 88.32 98.901c3.646 2.986 9.022 2.451 12.009-1.195s2.452-9.021-1.194-12.008zM132.201 468.852l.341.427a240.803 240.803 0 0 1-89.6-97.707 8.548 8.548 0 0 0-11.477-3.797 8.548 8.548 0 0 0-3.797 11.477 257.879 257.879 0 0 0 96 104.192 8.533 8.533 0 0 0 8.533-14.592zM228.201 213.279v6.4a42.668 42.668 0 0 0 25.003 36.267h6.229a42.665 42.665 0 0 0 24.917-36.267v-6.4h-56.149zM259.348 273.012h-6.229a42.665 42.665 0 0 0-24.917 36.267v6.4h56.064v-6.4a42.67 42.67 0 0 0-24.918-36.267z"/><path d="M355.945 216.863c-18.409-38.404-57.082-62.972-99.669-63.317-42.823.133-81.788 24.772-100.267 63.403a109.316 109.316 0 0 0-10.667 47.531v7.765a108.66 108.66 0 0 0 6.997 31.829 110.941 110.941 0 0 0 26.112 39.595 91.181 91.181 0 0 0 8.96 7.851 113.618 113.618 0 0 0 10.411 7.253l2.304 1.365a111.613 111.613 0 0 0 110.933 0l2.731-1.536a113.556 113.556 0 0 0 10.752-6.997 91.546 91.546 0 0 0 8.96-7.851 110.93 110.93 0 0 0 26.112-39.68 108.2 108.2 0 0 0 6.997-31.659v-8.021a109.224 109.224 0 0 0-10.666-47.531zm-54.528 92.416h.171v6.4h5.888a8.533 8.533 0 0 1 0 17.066h-102.4a8.533 8.533 0 0 1 0-17.066h6.059v-6.4a58.624 58.624 0 0 1 23.552-44.8 58.624 58.624 0 0 1-23.552-44.8v-6.4h-6.059a8.533 8.533 0 0 1 0-17.066h102.4a8.533 8.533 0 0 1 0 17.066h-6.059v6.4a58.624 58.624 0 0 1-23.552 44.8 58.622 58.622 0 0 1 23.552 44.8z"/><path d="M256.276 8.478C118.133 7.855 4.62 117.358.276 255.433a17.068 17.068 0 0 0 4.693 12.288 17.068 17.068 0 0 0 12.373 5.291h17.067c4.588 119.189 102.59 213.422 221.867 213.333h13.397a223.64 223.64 0 0 0 39.68-5.973c96.109-23.904 164.887-108.4 168.789-207.36h17.067a17.065 17.065 0 0 0 12.288-5.205 17.068 17.068 0 0 0 4.779-12.373c-4.345-138.076-117.858-247.579-256-246.956zm39.253 456.96l-4.352.768-7.595 1.109-3.84.512-8.533.768h-6.4v-16.384a8.533 8.533 0 0 0-17.066 0v17.067h-6.314l-8.533-.768-4.011-.512-7.424-1.109-4.523-.853-3.328-1.28c2.577-23.423 23.655-40.321 47.078-37.744 19.869 2.186 35.557 17.874 37.744 37.744l-2.903.682zm88.235-191.658a125.192 125.192 0 0 1-8.021 36.437 128.003 128.003 0 0 1-30.037 45.739 110.42 110.42 0 0 1-10.496 9.216 131.7 131.7 0 0 1-11.776 8.533c-1.109.683-2.389 1.451-3.669 2.048-39.556 23.042-88.444 23.042-128 0l-3.243-1.877a131.866 131.866 0 0 1-11.861-8.533 110.158 110.158 0 0 1-10.496-9.216 127.495 127.495 0 0 1-29.355-45.909 125.588 125.588 0 0 1-8.533-36.693v-9.045a126.296 126.296 0 0 1 12.373-54.869c30.323-63.859 106.672-91.045 170.531-60.722a127.999 127.999 0 0 1 60.722 60.722 126.208 126.208 0 0 1 12.373 54.869c0 3.156 0 6.228-.512 9.3zm72.874-85.419v.085a17.066 17.066 0 0 1-14.336 7.851h-19.029a17.067 17.067 0 0 1-15.104-9.301C365.33 103.037 262.54 69.702 178.581 112.541a170.665 170.665 0 0 0-74.454 74.454 17.068 17.068 0 0 1-15.104 9.216h-19.03c-9.426.028-17.089-7.591-17.116-17.017a17.064 17.064 0 0 1 1.5-7.047l1.195-2.645C107.999 58.751 240.281 11.47 351.032 63.896a221.869 221.869 0 0 1 105.606 105.606l1.195 2.645a17.067 17.067 0 0 1-1.195 16.214z"/><path d="M441.193 176.67C407.074 105.452 335.244 60.008 256.276 59.678c-79.111.214-151.111 45.715-185.259 117.077l-1.109 2.389h19.115c47.183-92.324 160.276-128.919 252.6-81.736a187.735 187.735 0 0 1 81.736 81.736h18.944l-1.11-2.474z"/></svg>