<svg xmlns="http://www.w3.org/2000/svg" viewBox="0 0 512.134 512.134"><path d="M507.704 390.888l-.036-.02a8.533 8.533 0 0 0-11.586 3.377l-.02.036a276.664 276.664 0 0 1-83.2 93.867 8.534 8.534 0 0 0 9.813 13.91 293.87 293.87 0 0 0 88.405-99.584 8.532 8.532 0 0 0-3.376-11.586zM480.916 367.7a8.547 8.547 0 0 0-11.477 3.797 240.735 240.735 0 0 1-89.771 97.707 8.533 8.533 0 0 0 8.534 14.592 257.797 257.797 0 0 0 96.512-104.619 8.549 8.549 0 0 0-3.798-11.477zM100.263 488.598a8.514 8.514 0 0 0-1.001-.706 276.65 276.65 0 0 1-83.115-93.525A8.638 8.638 0 0 0 1.128 402.9a293.873 293.873 0 0 0 88.32 98.901c3.646 2.986 9.022 2.451 12.009-1.195s2.452-9.022-1.194-12.008zM132.201 468.777l.341.427a240.723 240.723 0 0 1-89.771-97.707c-2.121-4.218-7.259-5.918-11.477-3.797s-5.918 7.259-3.797 11.477a257.798 257.798 0 0 0 96.171 104.192 8.533 8.533 0 0 0 8.533-14.592z"/><circle cx="256.105" cy="264.404" r="25.6"/><path d="M356.372 216.873c-18.479-38.631-57.444-63.27-100.267-63.403-42.823.133-81.788 24.772-100.267 63.403a109.394 109.394 0 0 0-10.667 47.531v7.765a108.897 108.897 0 0 0 6.997 31.915 110.941 110.941 0 0 0 26.112 39.595 93.066 93.066 0 0 0 8.96 7.851 116.48 116.48 0 0 0 10.411 7.253l2.304 1.365a111.613 111.613 0 0 0 110.933 0l2.731-1.536a114.657 114.657 0 0 0 10.752-7.083 93.203 93.203 0 0 0 8.96-7.851 110.93 110.93 0 0 0 26.112-39.68 108.388 108.388 0 0 0 7.595-31.573v-8.021a109.407 109.407 0 0 0-10.666-47.531zm-46.08 100.267a8.533 8.533 0 0 1-12.032 0l-17.749-17.749c-19.327 13.481-45.923 8.742-59.404-10.585-13.481-19.327-8.742-45.923 10.585-59.404a42.657 42.657 0 0 1 15.881-6.811v-43.52a8.533 8.533 0 0 1 8.533-8.533 8.533 8.533 0 0 1 8.533 8.533v43.52c19.868 4.056 34.138 21.535 34.133 41.813a42.67 42.67 0 0 1-6.571 22.528l18.176 18.176a8.534 8.534 0 0 1-.085 12.032z"/><path d="M256.105 8.404C117.962 7.781 4.449 117.283.105 255.359a17.067 17.067 0 0 0 4.779 12.288 17.07 17.07 0 0 0 12.288 5.291h17.067c4.588 119.189 102.59 213.422 221.867 213.333 4.779 0 9.472 0 14.251-.512a223.526 223.526 0 0 0 38.912-5.888c95.928-23.892 164.627-108.159 168.704-206.933h17.067a17.065 17.065 0 0 0 12.288-5.205 17.068 17.068 0 0 0 4.779-12.373C507.761 117.283 394.247 7.781 256.105 8.404zm39.253 456.96l-4.352.768-7.595 1.109-3.84.512-8.533.768h-6.4v-16.384a8.533 8.533 0 0 0-17.066 0v17.067H241.343l-8.533-.768-4.011-.512-7.509-1.109-4.437-.853-3.413-1.28c2.577-23.423 23.655-40.321 47.078-37.744 19.869 2.186 35.557 17.874 37.744 37.744l-2.904.682zm88.747-191.659a125.02 125.02 0 0 1-8.533 36.437 128.003 128.003 0 0 1-30.037 45.739 110.951 110.951 0 0 1-10.496 9.216 127.983 127.983 0 0 1-11.776 8.533c-1.109.683-2.389 1.451-3.669 2.048-39.556 23.042-88.444 23.042-128 0l-3.243-1.877a129.815 129.815 0 0 1-11.776-8.533 111.093 111.093 0 0 1-10.496-9.216 128.006 128.006 0 0 1-29.44-45.909 125.517 125.517 0 0 1-8.533-36.693v-9.045a126.385 126.385 0 0 1 12.373-54.869c30.273-63.882 106.601-91.128 170.484-60.855a127.997 127.997 0 0 1 60.855 60.855 126.39 126.39 0 0 1 12.288 54.869l-.001 9.3zm72.875-85.333a17.066 17.066 0 0 1-14.336 7.851h-19.371a17.065 17.065 0 0 1-15.104-9.301c-42.839-83.96-145.629-117.294-229.588-74.455a170.665 170.665 0 0 0-74.454 74.454 17.068 17.068 0 0 1-15.104 9.216h-19.03c-9.426.028-17.089-7.591-17.116-17.017a17.064 17.064 0 0 1 1.5-7.047l1.195-2.56C107.999 58.762 240.281 11.48 351.032 63.907a221.869 221.869 0 0 1 105.606 105.606l1.195 2.645a17.066 17.066 0 0 1-1.195 16.128l.342.086z"/><path d="M441.193 176.596c-34.13-71.288-106.052-116.749-185.088-116.992-79.05.28-150.967 45.771-185.088 117.077l-1.109 2.389h19.115c47.183-92.324 160.276-128.919 252.6-81.736a187.735 187.735 0 0 1 81.736 81.736h18.944l-1.11-2.474z"/></svg>