<svg xmlns="http://www.w3.org/2000/svg" viewBox="0 0 512 512"><path d="M358.4 260.267a8.533 8.533 0 0 0-8.533 8.533V320a8.533 8.533 0 0 0 8.533 8.533h34.133v-68.267H358.4z"/><circle cx="132.267" cy="64" r="12.8"/><path d="M332.8 320v-51.2c-.039-13.406 10.271-24.572 23.637-25.6-25.82-55.56-91.792-79.669-147.353-53.848-55.56 25.82-79.669 91.792-53.848 147.353 25.82 55.56 91.792 79.669 147.352 53.848a110.933 110.933 0 0 0 49.752-45.891A25.6 25.6 0 0 1 332.8 320zm-85.333-89.6c0-4.713 3.82-8.533 8.533-8.533s8.533 3.82 8.533 8.533v34.133c0 4.713-3.82 8.533-8.533 8.533s-8.533-3.82-8.533-8.533V230.4zm50.346 102.4a46.73 46.73 0 0 1-4.608 4.011c-1.792 1.365-3.413 2.56-5.035 3.584l-2.731 1.621a58.967 58.967 0 0 1-58.88 0l-2.304-1.28a61.951 61.951 0 0 1-5.12-3.584 46.135 46.135 0 0 1-4.352-3.755 59.221 59.221 0 0 1-18.517-43.264 58.464 58.464 0 0 1 5.717-25.6 59.729 59.729 0 0 1 24.149-26.197 8.534 8.534 0 0 1 8.534 14.763 42.669 42.669 0 0 0-17.067 18.773 41.657 41.657 0 0 0-4.267 18.261 42.667 42.667 0 0 0 13.397 30.976 30.806 30.806 0 0 0 2.901 2.475c1.109.853 2.133 1.621 3.499 2.475l1.963 1.109a41.982 41.982 0 0 0 41.728 0l2.475-1.365 3.413-2.475a30.846 30.846 0 0 0 3.072-2.731c12.891-12.753 16.314-32.261 8.533-48.64a42.668 42.668 0 0 0-17.067-18.688 8.534 8.534 0 1 1 8.534-14.763 59.74 59.74 0 0 1 24.235 26.027c10.911 23.029 6.011 50.444-12.202 68.267z"/><path d="M409.6 0H102.4C83.549 0 68.267 15.282 68.267 34.133v409.6c0 18.851 15.282 34.133 34.133 34.133v8.533c0 14.138 11.461 25.6 25.6 25.6h34.133c14.138 0 25.6-11.461 25.6-25.6v-8.533h136.533v8.533c0 14.138 11.462 25.6 25.6 25.6H384c14.138 0 25.6-11.461 25.6-25.6v-8.533c18.851 0 34.133-15.282 34.133-34.133v-409.6C443.733 15.282 428.451 0 409.6 0zM226.133 51.2h59.733c4.713 0 8.533 3.82 8.533 8.533s-3.82 8.533-8.533 8.533h-59.733a8.533 8.533 0 0 1 0-17.066zm-93.866-17.067c16.495 0 29.867 13.372 29.867 29.867s-13.372 29.867-29.867 29.867S102.4 80.495 102.4 64s13.372-29.867 29.867-29.867zM102.4 435.2a8.533 8.533 0 0 1 8.533-8.533h8.533c4.713 0 8.533 3.82 8.533 8.533s-3.82 8.533-8.533 8.533h-8.533a8.533 8.533 0 0 1-8.533-8.533zm68.267 51.2a8.533 8.533 0 0 1-8.533 8.533H128a8.533 8.533 0 0 1-8.533-8.533v-8.533h51.2v8.533zm25.6-42.667H153.6a8.533 8.533 0 0 1 0-17.066h42.667a8.533 8.533 0 0 1 0 17.066zM392.533 486.4a8.533 8.533 0 0 1-8.533 8.533h-34.133a8.533 8.533 0 0 1-8.533-8.533v-8.533h51.2v8.533zM409.6 328.533c0 9.426-7.641 17.067-17.067 17.067H371.2c-30.597 63.728-107.062 90.586-170.79 59.989s-90.586-107.062-59.989-170.79c30.597-63.728 107.062-90.586 170.79-59.989a128.004 128.004 0 0 1 63.659 68.39h17.664c9.426 0 17.067 7.641 17.067 17.067v68.266zM379.733 93.867c-16.495 0-29.867-13.372-29.867-29.867s13.372-29.867 29.867-29.867S409.6 47.505 409.6 64s-13.372 29.867-29.867 29.867z"/><circle cx="379.733" cy="64" r="12.8"/></svg>