<svg xmlns="http://www.w3.org/2000/svg" viewBox="0 0 477.87 477.87"><path d="M187.735 281.603h51.2v25.6h-51.2zM300.289 204.803l-.853.768a130.634 130.634 0 0 1-7.083 6.059c-2.56 2.048-6.997 5.12-10.752 7.509v36.864c0 14.138-11.461 25.6-25.6 25.6v8.533h35.669v-1.28c0-.427.683-1.28 1.024-1.877.408-.85.863-1.676 1.365-2.475.427-.683 1.024-1.195 1.536-1.877a25.35 25.35 0 0 1 1.621-1.963 24.654 24.654 0 0 1 12.971-6.997 25.551 25.551 0 0 1 5.547-.597h17.067v-68.267h-32.512zM264.023 228.184a123.544 123.544 0 0 1-11.776 4.437 126.725 126.725 0 0 1-76.8 0h-1.109a153.168 153.168 0 0 1-11.093-4.181h-.768v27.563a8.533 8.533 0 0 0 8.533 8.533h84.992a8.533 8.533 0 0 0 8.533-8.533v-27.819h-.512z"/><path d="M315.735 324.27a25.6 25.6 0 0 1-24.064-17.067h-35.669v8.533a8.533 8.533 0 0 1-8.533 8.533h-68.267a8.533 8.533 0 0 1-8.533-8.533v-34.133c-14.139 0-25.6-11.462-25.6-25.6v-36.949a131.26 131.26 0 0 1-10.837-7.595 121.888 121.888 0 0 1-6.997-5.973l-.853-.768H93.868v204.885h68.267v-9.301a72.11 72.11 0 0 1-31.147-36.011c-3.252-8.847 1.284-18.655 10.13-21.907a17.067 17.067 0 0 1 5.998-1.048h132.437c9.426-.013 17.077 7.617 17.09 17.043a17.06 17.06 0 0 1-1.048 5.912 72.109 72.109 0 0 1-31.061 36.011v9.301h68.267V324.27h-17.066zM349.868 68.27h-15.787v.512c0 .683.427 1.451.683 2.219a167.095 167.095 0 0 1 2.901 10.069c0 1.28.597 2.645.853 4.011a122.018 122.018 0 0 1 1.536 9.131c0 1.28 0 2.56.512 3.84 0 4.267.683 8.533.683 12.885s0 7.936-.597 11.861c0 1.195 0 2.475-.427 3.669 0 2.731-.683 5.376-1.195 8.021 0 1.365-.512 2.731-.853 4.096-.341 1.365-1.195 5.12-1.963 7.68 0 1.28-.683 2.475-1.109 3.669a88.6 88.6 0 0 1-3.328 9.045l-.683 1.792c-1.536 3.584-3.157 6.997-5.035 10.411l-1.792 2.901a91.583 91.583 0 0 1-4.437 7.253l-1.963 3.243c-.768 1.024-1.365 2.133-2.133 3.157h34.133c9.426 0 17.067-7.641 17.067-17.067V85.336c.001-9.425-7.64-17.066-17.066-17.066z"/><path d="M147.116 358.403a57.092 57.092 0 0 0 27.733 29.525 8.53 8.53 0 0 1 4.352 7.424v14.251h68.267v-14.251a8.532 8.532 0 0 1 4.352-7.424 57.263 57.263 0 0 0 27.819-29.525H147.116zM313.601 63.406c-26.263-55.352-92.425-78.934-147.778-52.67a110.936 110.936 0 0 0-52.67 52.67 104.531 104.531 0 0 0-9.472 32.085 112.366 112.366 0 0 0-1.28 15.445 109.906 109.906 0 0 0 33.365 79.189 93.874 93.874 0 0 0 9.301 7.936 115.375 115.375 0 0 0 10.411 7.253l2.304 1.28a108.739 108.739 0 0 0 27.221 11.264 112.13 112.13 0 0 0 84.139-11.008l2.731-1.536a116.107 116.107 0 0 0 9.728-7.253 93.862 93.862 0 0 0 8.96-7.851 109.906 109.906 0 0 0 32.853-68.267c.569-3.584.853-7.253.853-11.008a109.282 109.282 0 0 0-10.666-47.529zm-33.45 10.154l-68.267 85.333a8.533 8.533 0 0 1-11.986 1.402l-.046-.036-42.667-34.133a8.535 8.535 0 0 1-1.707-11.947h.341a8.533 8.533 0 0 1 11.986-1.402l.046.036 36.011 28.757 62.976-78.677a8.534 8.534 0 1 1 13.313 10.667zM409.601 290.136h-93.867a8.535 8.535 0 0 0-5.888 2.475 8.534 8.534 0 0 0-2.645 6.059 8.533 8.533 0 0 0 8.533 8.533h93.867a8.535 8.535 0 0 0 5.888-2.475 8.534 8.534 0 0 0 2.645-6.059 8.533 8.533 0 0 0-8.533-8.533zM108.887 184.75l-2.475-3.584c-1.451-2.219-2.816-4.523-4.181-6.827l-1.792-3.157c-1.792-3.328-3.499-6.827-4.949-10.325l-.853-2.133c-1.195-2.901-2.219-5.803-3.157-8.533 0-1.28-.768-2.56-1.109-3.84-.341-1.28-1.365-5.035-1.877-7.595s-.597-2.731-.853-4.096c-.256-1.365-.853-5.376-1.195-8.021 0-1.195 0-2.475-.427-3.669 0-3.925-.597-7.851-.597-11.861s0-8.533.683-12.885c0-1.28 0-2.56.512-3.84.398-3.072.91-6.116 1.536-9.131 0-1.365.512-2.645.853-3.925a108.376 108.376 0 0 1 2.901-10.155c0-.683 0-1.451.683-2.133v-.512H76.801c-9.426 0-17.067 7.641-17.067 17.067v85.077c0 9.426 7.641 17.067 17.067 17.067h34.133c-.767-.941-1.365-1.965-2.047-2.989zM349.868 426.67H76.801c-9.426 0-17.067 7.641-17.067 17.067v17.067c0 9.426 7.641 17.067 17.067 17.067h273.067c9.426 0 17.067-7.641 17.067-17.067v-17.067c0-9.426-7.641-17.067-17.067-17.067zm-256 34.133h-8.533c-4.713 0-8.533-3.82-8.533-8.533s3.82-8.533 8.533-8.533h8.533c4.713 0 8.533 3.82 8.533 8.533s-3.82 8.533-8.533 8.533zm136.534 0h-102.4c-4.713 0-8.533-3.82-8.533-8.533s3.82-8.533 8.533-8.533h102.4a8.533 8.533 0 0 1 0 17.066z"/></svg>