<svg xmlns="http://www.w3.org/2000/svg" viewBox="0 0 512 512"><circle cx="379.733" cy="64" r="12.8"/><path d="M239.104 221.867l6.144 76.8h21.589l4.864-60.416 1.28-16.726z"/><circle cx="132.267" cy="64" r="12.8"/><path d="M358.4 260.267a8.533 8.533 0 0 0-8.533 8.533V320a8.533 8.533 0 0 0 8.533 8.533h34.133v-68.267H358.4z"/><path d="M409.6 0H102.4C83.549 0 68.267 15.282 68.267 34.133v409.6c0 18.851 15.282 34.133 34.133 34.133v8.533c0 14.138 11.461 25.6 25.6 25.6h34.133c14.138 0 25.6-11.461 25.6-25.6v-8.533h136.533v8.533c0 14.138 11.462 25.6 25.6 25.6H384c14.138 0 25.6-11.461 25.6-25.6v-8.533c18.851 0 34.133-15.282 34.133-34.133v-409.6C443.733 15.282 428.451 0 409.6 0zM226.133 51.2h59.733c4.713 0 8.533 3.82 8.533 8.533s-3.82 8.533-8.533 8.533h-59.733a8.533 8.533 0 0 1 0-17.066zm-93.866-17.067c16.495 0 29.867 13.372 29.867 29.867s-13.372 29.867-29.867 29.867S102.4 80.495 102.4 64s13.372-29.867 29.867-29.867zM102.4 435.2a8.533 8.533 0 0 1 8.533-8.533h8.533c4.713 0 8.533 3.82 8.533 8.533s-3.82 8.533-8.533 8.533h-8.533a8.533 8.533 0 0 1-8.533-8.533zm68.267 51.2a8.533 8.533 0 0 1-8.533 8.533H128a8.533 8.533 0 0 1-8.533-8.533v-8.533h51.2v8.533zm25.6-42.667H153.6a8.533 8.533 0 0 1 0-17.066h42.667a8.533 8.533 0 0 1 0 17.066zM392.533 486.4a8.533 8.533 0 0 1-8.533 8.533h-34.133a8.533 8.533 0 0 1-8.533-8.533v-8.533h51.2v8.533zM409.6 328.533c0 9.426-7.641 17.067-17.067 17.067H371.2c-30.597 63.728-107.062 90.586-170.79 59.989s-90.586-107.062-59.989-170.79c30.597-63.728 107.062-90.586 170.79-59.989a128.004 128.004 0 0 1 63.659 68.39h17.664c9.426 0 17.067 7.641 17.067 17.067v68.266zM379.733 93.867c-16.495 0-29.867-13.372-29.867-29.867s13.372-29.867 29.867-29.867S409.6 47.505 409.6 64s-13.372 29.867-29.867 29.867z"/><path d="M260.523 349.867h-9.045a4.011 4.011 0 0 0-4.011 4.011v9.045a4.011 4.011 0 0 0 4.011 4.011h9.045a4.011 4.011 0 0 0 4.011-4.011v-9.045a4.011 4.011 0 0 0-4.011-4.011z"/><path d="M332.8 320v-51.2c-.039-13.406 10.271-24.572 23.637-25.6-25.82-55.56-91.792-79.669-147.353-53.848-55.56 25.82-79.669 91.792-53.848 147.353 25.82 55.56 91.792 79.669 147.352 53.848a110.933 110.933 0 0 0 49.752-45.891A25.6 25.6 0 0 1 332.8 320zm-51.2 33.877v8.789c.141 11.64-9.18 21.19-20.82 21.332-.086.002-.171.002-.257.002h-9.045c-11.641 0-21.077-9.437-21.077-21.077v-9.045c0-11.641 9.437-21.077 21.077-21.077h9.045c11.64-.001 21.077 9.436 21.077 21.076zm8.533-132.01l-6.4 79.36c-.673 8.281-7.649 14.624-15.957 14.507h-23.552c-8.247.124-15.2-6.122-15.957-14.336l-6.4-79.531a15.017 15.017 0 0 1 4.011-11.52 16.387 16.387 0 0 1 12.032-5.547h36.181a16.383 16.383 0 0 1 12.032 5.205c3 3.182 4.464 7.513 4.01 11.862z"/></svg>