<svg xmlns="http://www.w3.org/2000/svg" viewBox="0 0 477.64 477.64"><path d="M187.62 281.374h51.2v25.6h-51.2zM315.62 272.84h17.067v-68.267h-32.512l-.853.768c-2.219 1.963-4.523 4.011-7.083 5.973-2.56 1.963-6.997 5.12-10.752 7.509v36.949c0 14.138-11.461 25.6-25.6 25.6v8.533h35.669v-1.28c.308-.671.649-1.326 1.024-1.963.427-.768.853-1.707 1.365-2.475s1.024-1.195 1.536-1.792a19.03 19.03 0 0 1 1.621-2.048 25.006 25.006 0 0 1 12.971-6.912 24.762 24.762 0 0 1 5.547-.595zM264.42 255.774v-27.819h-.512a106.477 106.477 0 0 1-11.691 4.437 128.67 128.67 0 0 1-38.997 6.315 126.572 126.572 0 0 1-38.315-5.973h-1.024c-3.755-1.28-7.509-2.645-11.093-4.181h-.768v27.221a8.533 8.533 0 0 0 8.533 8.533h85.333a8.533 8.533 0 0 0 8.534-8.533zM318.18 184.35c-.853 1.109-1.365 2.133-2.133 3.157h34.133c9.426 0 17.067-7.641 17.067-17.067V85.107c.003-9.426-7.636-17.069-17.061-17.072-.144 0-.288.002-.432.005h-15.787a1.195 1.195 0 0 0 0 .512c0 .683 0 1.451.597 2.219a104.15 104.15 0 0 1 2.901 10.069c0 1.365.597 2.645.853 4.011a167.602 167.602 0 0 1 1.536 9.045l.512 3.925c.499 4.278.784 8.579.853 12.885 0 4.011 0 7.936-.597 11.861v3.669c0 2.731-.683 5.376-1.195 8.021 0 1.365-.512 2.731-.853 4.096s-1.195 5.12-1.963 7.68l-1.024 3.669c-1.024 3.072-2.133 6.144-3.328 9.045 0 .683-.427 1.28-.683 1.877-1.536 3.499-3.157 6.997-5.035 10.411-.512.939-1.024 1.877-1.621 2.816-1.365 2.389-2.816 4.864-4.352 7.168-1.534 2.307-1.534 2.221-2.388 3.331zM247.353 409.374v-14.251a8.532 8.532 0 0 1 4.352-7.424 57.431 57.431 0 0 0 27.819-29.525H147.001a56.83 56.83 0 0 0 27.733 29.525 8.53 8.53 0 0 1 4.352 7.424v14.251h68.267z"/><path d="M332.687 324.04H315.62a25.6 25.6 0 0 1-24.064-17.067h-35.669v8.533a8.533 8.533 0 0 1-8.533 8.533h-68.267a8.533 8.533 0 0 1-8.533-8.533v-34.133c-14.139 0-25.6-11.462-25.6-25.6v-36.949c-3.755-2.389-7.339-4.779-10.837-7.509s-4.779-4.011-6.997-5.973l-.853-.768H93.753v204.8h68.267v-9.301a72.535 72.535 0 0 1-31.147-36.011 17.066 17.066 0 0 1 2.048-15.616 17.07 17.07 0 0 1 14.08-7.339h132.437a17.064 17.064 0 0 1 14.08 7.339 17.066 17.066 0 0 1 2.048 15.616 72.534 72.534 0 0 1-31.147 36.011v9.301h68.267V324.04zM223.972 119.24l4.779-60.416 1.536-16.384h-34.134l6.144 76.8zM76.687 187.507h34.133c-.768-.939-1.365-1.963-2.048-2.987l-2.56-3.584c-1.451-2.219-2.816-4.523-4.181-6.827l-1.792-3.157c-1.792-3.328-3.413-6.827-4.949-10.325a22.148 22.148 0 0 0-.853-2.133 586.918 586.918 0 0 1-1.643-4.331 175.51 175.51 0 0 1-1.515-4.203c0-.8-.267-1.6-.571-2.4-.182-.48-.378-.96-.539-1.44-.027-.08-.055-.17-.086-.268-.304-.984-.786-2.846-1.215-4.689l-.127-.551a93.475 93.475 0 0 1-.449-2.087c-.512-2.56-.597-2.731-.853-4.096-.512-2.645-.853-5.291-1.195-8.021v-3.669c0-3.925-.597-7.851-.597-11.861.013-4.304.24-8.604.683-12.885l.512-3.925c0-3.072.939-6.059 1.536-9.045 0-1.365.512-2.731.853-4.011.576-2.56 1.296-5.12 2.088-7.644.264-.841.536-1.679.813-2.511a20.041 20.041 0 0 1 .682-2.133v-.512H76.687c-9.426 0-17.067 7.641-17.067 17.067v85.163c0 9.424 7.641 17.065 17.067 17.065z"/><path d="M135.652 189.896a89.864 89.864 0 0 0 8.96 7.936 112.953 112.953 0 0 0 10.411 7.253l2.304 1.365a114.053 114.053 0 0 0 27.136 11.264 110.089 110.089 0 0 0 34.133 3.499c.937.084 1.879.084 2.816 0h2.304a104.7 104.7 0 0 0 45.141-13.995l2.731-1.536a107.333 107.333 0 0 0 9.899-7.851 81.92 81.92 0 0 0 8.533-7.851 109.483 109.483 0 0 0 32.939-68.267c0-3.669.512-7.424.512-11.179a109.399 109.399 0 0 0-9.984-47.36h-.256a111.788 111.788 0 0 0-69.717-59.051l-1.707-.427h-.512c-51.657-13.658-105.711 11.45-128.597 59.733a98.853 98.853 0 0 0-4.608 11.349 101.238 101.238 0 0 0-4.864 20.821 114.178 114.178 0 0 0-.939 15.104 109.911 109.911 0 0 0 33.365 79.193zm103.168-6.4c.152 10.227-7.032 19.099-17.067 21.077H208.697c-11.621-.047-21.031-9.456-21.077-21.077v-9.045c.047-11.621 9.456-21.031 21.077-21.077h9.045c11.621.047 21.031 9.456 21.077 21.077v9.045zM183.097 30.92a16.3 16.3 0 0 1 12.032-5.547h36.181c1.707.003 3.404.262 5.035.768l1.536.597a16.292 16.292 0 0 1 5.461 3.84 15.103 15.103 0 0 1 4.011 11.861l-6.4 79.616c-.837 8.16-7.755 14.338-15.957 14.251h-23.552c-8.232.083-15.161-6.142-15.957-14.336l-6.4-79.531a15.104 15.104 0 0 1 4.01-11.519z"/><path d="M217.743 170.44H208.698a4.011 4.011 0 0 0-4.011 4.011v9.045a4.011 4.011 0 0 0 4.011 4.011h9.045a4.011 4.011 0 0 0 4.011-4.011v-9.045a4.012 4.012 0 0 0-4.011-4.011zM349.753 426.44H76.687c-9.426 0-17.067 7.641-17.067 17.067v17.067c0 9.426 7.641 17.067 17.067 17.067h273.067c9.426 0 17.067-7.641 17.067-17.067v-17.067c-.001-9.426-7.642-17.067-17.068-17.067zm-256 34.134H85.22c-4.713 0-8.533-3.82-8.533-8.533s3.82-8.533 8.533-8.533h8.533c4.713 0 8.533 3.82 8.533 8.533s-3.82 8.533-8.533 8.533zm136.534 0h-102.4c-4.713 0-8.533-3.82-8.533-8.533s3.82-8.533 8.533-8.533h102.4c4.713 0 8.533 3.82 8.533 8.533s-3.82 8.533-8.533 8.533zM409.487 289.907H315.62a7.936 7.936 0 0 0-5.888 2.475 8.534 8.534 0 0 0-2.645 6.059 8.533 8.533 0 0 0 8.533 8.533h93.867a7.936 7.936 0 0 0 5.888-2.475 8.534 8.534 0 0 0 2.645-6.059 8.533 8.533 0 0 0-8.533-8.533z"/></svg>