<svg xmlns="http://www.w3.org/2000/svg" viewBox="0 0 512 512"><path d="M170.733 366.933c-23.564 0-42.667 19.103-42.667 42.667s19.103 42.667 42.667 42.667S213.4 433.165 213.4 409.6s-19.103-42.667-42.667-42.667zm17.066 51.2c-4.713 0-8.533-3.82-8.533-8.533s-3.82-8.533-8.533-8.533a8.533 8.533 0 0 1 0-17.066c14.138 0 25.6 11.462 25.6 25.6a8.533 8.533 0 0 1-8.534 8.532zM315.97 59.733l6.059 76.8h21.674l6.144-77.141zM337.389 187.733h-9.045a4.011 4.011 0 0 0-4.011 4.011v9.045a4.011 4.011 0 0 0 4.011 4.011h9.045a4.011 4.011 0 0 0 4.011-4.011v-9.045a4.012 4.012 0 0 0-4.011-4.011z"/><path d="M433.251 48.759A127.999 127.999 0 0 0 332.866 0c-60.72.258-112.985 42.953-125.355 102.4H76.866c-14.138 0-25.6 11.461-25.6 25.6v358.4c0 14.138 11.461 25.6 25.6 25.6h187.733c14.138 0 25.6-11.461 25.6-25.6V248.576a127.316 127.316 0 0 0 121.771-20.053c55.517-43.764 65.045-124.247 21.281-179.764zM206.487 213.333a5.215 5.215 0 0 1 1.621.512c.524.17 1.015.43 1.451.768l1.365 1.024a8.533 8.533 0 0 1 .049 12.068l-.049.049-1.365 1.024a4.761 4.761 0 0 1-1.451.768 5.286 5.286 0 0 1-1.621.512l-1.621.341a8.534 8.534 0 0 1-6.059-14.592 8.535 8.535 0 0 1 7.68-2.474zM196.333 256a8.533 8.533 0 0 1-8.533 8.533h-1.707l-1.536-.512a6.494 6.494 0 0 1-1.536-.768l-1.28-1.024a8.539 8.539 0 0 1-1.792-2.816 8.02 8.02 0 0 1 0-6.485 9.8 9.8 0 0 1 1.792-2.816l1.28-1.024a6.494 6.494 0 0 1 1.536-.768 5.37 5.37 0 0 1 1.536-.853 8.531 8.531 0 0 1 7.765 2.304 9.8 9.8 0 0 1 1.792 2.816 7.266 7.266 0 0 1 .683 3.413zm-14.642-74.105l.049-.049v-.341l1.28-1.024a6.494 6.494 0 0 1 1.536-.768 5.375 5.375 0 0 1 1.536-.512 8.531 8.531 0 0 1 7.765 2.304 8.533 8.533 0 0 1 .049 12.068l-.049.049a8.534 8.534 0 0 1-6.059 2.645h-1.707l-1.536-.512a6.494 6.494 0 0 1-1.536-.768l-1.28-1.024a8.535 8.535 0 0 1-.048-12.068zm-17.017 33.913c.405-.368.832-.71 1.28-1.024a6.494 6.494 0 0 1 1.536-.768 5.374 5.374 0 0 1 1.536-.683 8.527 8.527 0 0 1 4.949.512 9.914 9.914 0 0 1 2.816 1.792 8.533 8.533 0 0 1-6.058 14.762h-1.707l-1.536-.512a6.494 6.494 0 0 1-1.536-.768l-1.28-1.024a8.534 8.534 0 0 1-2.475-6.229 8.513 8.513 0 0 1 .683-3.243 7.945 7.945 0 0 1 1.792-2.815zm-18.859-31.317a9.8 9.8 0 0 1 1.792-2.816 8.533 8.533 0 0 1 12.068-.049l.049.049a9.8 9.8 0 0 1 1.792 2.816 8.55 8.55 0 0 1 .683 3.243 8.533 8.533 0 0 1-17.066 0 8.527 8.527 0 0 1 .682-3.243zM162.199 256a8.958 8.958 0 0 1-2.475 6.059 8.533 8.533 0 0 1-12.068.049l-.049-.049A8.533 8.533 0 1 1 162.199 256zm-33.45-37.376a9.8 9.8 0 0 1 1.792-2.816 8.533 8.533 0 0 1 12.068-.049l.049.049a9.8 9.8 0 0 1 1.792 2.816 8.55 8.55 0 0 1 .683 3.243c0 4.713-3.82 8.533-8.533 8.533s-8.533-3.82-8.533-8.533a7.068 7.068 0 0 1 .682-3.243zm41.984 250.709c-32.99 0-59.733-26.744-59.733-59.733s26.744-59.733 59.733-59.733 59.733 26.744 59.733 59.733-26.744 59.733-59.733 59.733zm76.8-145.066h-153.6c-4.713 0-8.533-3.82-8.533-8.533s3.82-8.533 8.533-8.533h153.6a8.533 8.533 0 0 1 0 17.066zm110.933-123.478c-.047 11.621-9.456 21.031-21.077 21.077h-9.045c-11.621-.047-21.031-9.456-21.077-21.077v-9.045c.047-11.621 9.456-21.031 21.077-21.077h8.96c11.655 0 21.116 9.423 21.163 21.077v9.045zm8.533-141.056l-6.4 79.616c-.837 8.16-7.755 14.338-15.957 14.251H321.09c-8.202.087-15.12-6.091-15.957-14.251l-6.4-79.616a15.274 15.274 0 0 1 4.011-11.52 16.3 16.3 0 0 1 12.032-5.547h36.267a16.296 16.296 0 0 1 11.947 5.205 15.28 15.28 0 0 1 4.009 11.862z"/></svg>