<svg xmlns="http://www.w3.org/2000/svg" viewBox="0 0 512 512"><path d="M347.287 93.44a63.568 63.568 0 0 0-28.843 0c-4.949 8.022-2.457 18.537 5.565 23.486a17.064 17.064 0 0 0 8.856 2.541c9.426-.057 17.02-7.745 16.962-17.17a17.055 17.055 0 0 0-2.54-8.857zM170.733 366.933c-23.564 0-42.667 19.103-42.667 42.667s19.103 42.667 42.667 42.667S213.4 433.165 213.4 409.6s-19.103-42.667-42.667-42.667zm17.066 51.2c-4.713 0-8.533-3.82-8.533-8.533s-3.82-8.533-8.533-8.533a8.533 8.533 0 0 1 0-17.066c14.138 0 25.6 11.462 25.6 25.6a8.533 8.533 0 0 1-8.534 8.532z"/><path d="M366.999 100.437v1.963c0 18.851-15.282 34.133-34.133 34.133-18.851 0-34.133-15.282-34.133-34.133v-1.963A101.704 101.704 0 0 0 266.392 128c18.176 27.477 40.875 42.667 65.451 42.667h.512c24.491 0 48.043-14.933 66.901-42.667a101.728 101.728 0 0 0-32.257-27.563z"/><path d="M433.251 48.759A127.999 127.999 0 0 0 332.866 0c-60.72.258-112.985 42.953-125.355 102.4H76.866c-14.138 0-25.6 11.461-25.6 25.6v358.4c0 14.138 11.461 25.6 25.6 25.6h187.733c14.138 0 25.6-11.461 25.6-25.6V248.576a127.316 127.316 0 0 0 121.771-20.053c55.517-43.764 65.045-124.247 21.281-179.764zM206.487 213.333a5.215 5.215 0 0 1 1.621.512c.524.17 1.015.43 1.451.768l1.365 1.024a8.96 8.96 0 0 1 2.475 6.229 8.533 8.533 0 0 1-2.475 6.059l-1.365 1.024a4.761 4.761 0 0 1-1.451.768 5.286 5.286 0 0 1-1.621.512l-1.621.171a8.958 8.958 0 0 1-6.059-2.475 14.494 14.494 0 0 1-1.024-1.28 6.31 6.31 0 0 1-.768-1.536 5.57 5.57 0 0 1-.683-1.536 11.86 11.86 0 0 1 0-1.707 8.533 8.533 0 0 1 2.475-6.059 8.535 8.535 0 0 1 7.68-2.474zM196.333 256a8.513 8.513 0 0 1-.683 3.243 9.8 9.8 0 0 1-1.792 2.816 8.533 8.533 0 0 1-12.068.049l-.049-.049a9.8 9.8 0 0 1-1.792-2.816 7.082 7.082 0 0 1-.683-3.243 11.86 11.86 0 0 1 0-1.707 5.556 5.556 0 0 1 .512-1.536 4.707 4.707 0 0 1 .768-1.451 8.52 8.52 0 0 1 1.024-1.365 8.533 8.533 0 0 1 12.068-.049l.049.049 1.024 1.365c.336.437.596.927.768 1.451.248.483.421 1.001.512 1.536.16.559.274 1.13.342 1.707zm-16.384-71.68a8.539 8.539 0 0 1 1.792-2.816 8.533 8.533 0 0 1 12.068-.049l.049.049a8.528 8.528 0 0 1 1.792 2.816 8.02 8.02 0 0 1 0 6.485 8.539 8.539 0 0 1-1.792 2.816 8.533 8.533 0 0 1-12.068.049l-.049-.049a8.528 8.528 0 0 1-1.792-2.816 8.02 8.02 0 0 1 0-6.485zm-15.275 31.488a8.534 8.534 0 0 1 9.301-1.792 7.68 7.68 0 0 1 4.608 4.608 8.02 8.02 0 0 1 0 6.485 8.539 8.539 0 0 1-1.792 2.816 9.972 9.972 0 0 1-2.816 1.792 8.55 8.55 0 0 1-3.243.683 8.958 8.958 0 0 1-6.059-2.475 8.539 8.539 0 0 1-1.792-2.816 8.02 8.02 0 0 1 0-6.485 9.825 9.825 0 0 1 1.793-2.816zm-2.475 41.899a5.314 5.314 0 0 1-.512 1.536 4.773 4.773 0 0 1-.768 1.451l-1.024 1.365a9.972 9.972 0 0 1-2.816 1.792 8.536 8.536 0 0 1-3.413.683 8.958 8.958 0 0 1-6.059-2.475 8.565 8.565 0 0 1-1.024-1.365 4.601 4.601 0 0 1-.768-1.451 5.57 5.57 0 0 1-.683-1.536 11.86 11.86 0 0 1 0-1.707 8.533 8.533 0 0 1 2.475-6.059 8.534 8.534 0 0 1 9.301-1.792 9.914 9.914 0 0 1 2.816 1.792 8.964 8.964 0 0 1 2.475 6.059c.046.568.046 1.139 0 1.707zm-17.066-69.974a8.533 8.533 0 0 1 2.475-6.059 8.534 8.534 0 0 1 9.301-1.792 9.914 9.914 0 0 1 2.816 1.792 8.964 8.964 0 0 1 2.475 6.059c.045.568.045 1.139 0 1.707a5.314 5.314 0 0 1-.512 1.536 6.689 6.689 0 0 1-.768 1.536l-1.024 1.28a9.972 9.972 0 0 1-2.816 1.792 8.536 8.536 0 0 1-3.413.683 8.958 8.958 0 0 1-6.059-2.475 14.494 14.494 0 0 1-1.024-1.28 6.31 6.31 0 0 1-.768-1.536 5.57 5.57 0 0 1-.683-1.536 11.579 11.579 0 0 1 0-1.707zm-17.067 32.427a5.556 5.556 0 0 1 .512-1.536 6.31 6.31 0 0 1 .768-1.536c.315-.447.657-.875 1.024-1.28a8.533 8.533 0 0 1 12.068-.049l.049.049a8.96 8.96 0 0 1 2.645 6.059c.045.568.045 1.139 0 1.707a5.314 5.314 0 0 1-.512 1.536 4.773 4.773 0 0 1-.768 1.451l-1.024 1.365a8.534 8.534 0 0 1-6.229 2.475 8.513 8.513 0 0 1-3.243-.683 8.539 8.539 0 0 1-2.816-1.792 8.565 8.565 0 0 1-1.024-1.365 4.601 4.601 0 0 1-.768-1.451 5.57 5.57 0 0 1-.683-1.536 5.882 5.882 0 0 1 0-1.707 6.295 6.295 0 0 1 .001-1.707zm42.667 249.173c-32.99 0-59.733-26.744-59.733-59.733s26.744-59.733 59.733-59.733 59.733 26.744 59.733 59.733-26.744 59.733-59.733 59.733zm76.8-145.066h-153.6c-4.713 0-8.533-3.82-8.533-8.533s3.82-8.533 8.533-8.533h153.6a8.533 8.533 0 0 1 0 17.066zm169.301-191.659c-22.613 35.584-52.565 55.125-84.48 55.125h-.597c-31.744 0-61.184-19.883-82.944-55.296a8.536 8.536 0 0 1 0-9.387 112.131 112.131 0 0 1 60.928-45.312 8.546 8.546 0 0 1 4.352-.939 80.042 80.042 0 0 1 37.547 0 8.53 8.53 0 0 1 4.096.853 112.131 112.131 0 0 1 60.928 45.312 8.537 8.537 0 0 1 .17 9.644z"/></svg>