<svg viewBox="0 0 32 32" xmlns="http://www.w3.org/2000/svg"><path d="M19.503 26a1.5 1.5 0 1 1-.001-3.002 1.5 1.5 0 0 1 0 3.002m-5.504-10a2.002 2.002 0 0 1 4.004 0 2.001 2.001 0 0 1-4.004 0m-1.001 9a3 3 0 1 1 0-6A3.002 3.002 0 0 1 16 22c0 1.657-1.345 3-3.003 3m14.837 1.451L19.167 13.25a1 1 0 0 1-.164-.549V8h2c1.103 0 2.003-.9 2.003-2s-.9-2-2.002-2H10.996c-1.101 0-2.002.9-2.002 2s.9 2 2.002 2h2v4.701a.993.993 0 0 1-.163.549L4.166 26.451A1 1 0 0 0 5.003 28h21.994a1 1 0 0 0 .837-1.549" fill-rule="evenodd"/></svg>