<svg viewBox="0 0 32 32" xmlns="http://www.w3.org/2000/svg"><path d="M22.906 15.414a1.003 1.003 0 0 1-1.416-.041A7.5 7.5 0 0 0 15.985 13a7.503 7.503 0 0 0-5.504 2.371 1.001 1.001 0 0 1-1.457-1.373A9.621 9.621 0 0 1 15.985 11a9.616 9.616 0 0 1 6.962 3c.38.402.36 1.035-.04 1.414m-2.389 3.245a1 1 0 0 1-1.41-.135 4.127 4.127 0 0 0-.825-.763c-1.373-.963-3.295-.998-4.7-.083a4.216 4.216 0 0 0-.766.637.999.999 0 0 1-1.415.038.999.999 0 0 1-.038-1.413 6.26 6.26 0 0 1 1.127-.939c2.075-1.35 4.91-1.304 6.945.124a6.23 6.23 0 0 1 1.217 1.126.998.998 0 0 1-.135 1.408m-2.237 2.914a1 1 0 0 1-1.409-.133 1.288 1.288 0 0 0-.242-.223 1.243 1.243 0 0 0-1.352-.023 1.28 1.28 0 0 0-.222.186 1.003 1.003 0 0 1-1.416.04.998.998 0 0 1-.039-1.415c.174-.183.37-.346.582-.485 1.076-.703 2.55-.677 3.602.064.238.168.448.363.63.581a1 1 0 0 1-.134 1.408M15.986 25a1 1 0 1 1-.002-2 1 1 0 0 1 .002 2m11.677-10.809L16.708 4.278a1.044 1.044 0 0 0-1.416-.003L4.34 14.188c-.702.644-.246 1.812.707 1.812h1.966L7 27a1 1 0 0 0 1.001 1h15.984a1 1 0 0 0 1.001-1L25 16h1.953c.95 0 1.407-1.164.71-1.809" fill-rule="evenodd"/></svg>