<svg xmlns="http://www.w3.org/2000/svg" viewBox="0 0 512.284 512.284"><path d="M436.196 297.842l-112.64-75.008a8.531 8.531 0 0 0-9.216 0c-35.781 21.637-80.613 21.637-116.395 0a8.535 8.535 0 0 0-9.216 0L76.003 297.842a17.067 17.067 0 0 0-7.595 14.251v12.459c0 9.426 7.641 17.067 17.067 17.067v153.6c0 9.426 7.641 17.067 17.067 17.067h17.067c9.426 0 17.067-7.641 17.067-17.067v-102.4h59.733v102.4c0 9.426 7.641 17.067 17.067 17.067h196.267c9.426 0 17.067-7.641 17.067-17.067v-153.6c9.426 0 17.067-7.641 17.067-17.067v-12.459a17.07 17.07 0 0 0-7.681-14.251zm-9.387 26.709c-9.426 0-17.067 7.641-17.067 17.067v153.6H213.475v-102.4c0-9.426-7.641-17.067-17.067-17.067h-59.733c-9.426 0-17.067 7.641-17.067 17.067v102.4h-17.067v-153.6c0-9.426-7.641-17.067-17.067-17.067v-12.544l108.203-72.021a129.793 129.793 0 0 0 124.928 0l108.203 72.107v12.458z"/><path d="M134.201 326.855a8.532 8.532 0 0 0-7.765-2.304 5.512 5.512 0 0 0-1.536.683 6.31 6.31 0 0 0-1.536.768l-1.28 1.024a8.964 8.964 0 0 0-2.475 6.059 8.533 8.533 0 0 0 2.475 6.059 9.8 9.8 0 0 0 2.816 1.792 8.55 8.55 0 0 0 3.243.683 8.533 8.533 0 0 0 6.059-2.475 9.972 9.972 0 0 0 1.792-2.816 7.163 7.163 0 0 0 .683-3.243 8.966 8.966 0 0 0-2.476-6.23zM367.075 324.551H153.742a8.533 8.533 0 0 0 0 17.066h213.333a8.533 8.533 0 0 0 8.533-8.533 8.532 8.532 0 0 0-8.533-8.533zM335.246 27.375c-55.577-43.688-136.047-34.05-179.735 21.527-43.688 55.577-34.05 136.047 21.527 179.735a132.35 132.35 0 0 0 11.861 8.533 127.231 127.231 0 0 0 67.243 19.115 127.145 127.145 0 0 0 67.243-19.115 131.134 131.134 0 0 0 11.861-8.533 128.019 128.019 0 0 0 21.527-21.527c43.688-55.577 34.05-136.047-21.527-179.735zM324.409 215.41c-36.442 28.496-86.741 31.387-126.208 7.253a114.703 114.703 0 0 1-10.325-7.253 110.932 110.932 0 0 1-42.265-86.725c-.221-61.266 49.265-111.112 110.532-111.334a110.932 110.932 0 0 1 86.725 42.265c37.923 48.118 29.659 117.869-18.459 155.794z"/><path d="M307.342 94.151h-102.4c-14.138 0-25.6 11.461-25.6 25.6v51.2c0 14.138 11.461 25.6 25.6 25.6h102.4c14.138 0 25.6-11.461 25.6-25.6v-51.2c0-14.139-11.461-25.6-25.6-25.6zm8.533 76.8a8.533 8.533 0 0 1-8.533 8.533h-102.4a8.533 8.533 0 0 1-8.533-8.533v-51.2a8.533 8.533 0 0 1 8.533-8.533h102.4a8.533 8.533 0 0 1 8.533 8.533v51.2z"/><path d="M256.142 42.951c-23.564 0-42.667 19.102-42.667 42.667v17.067a8.533 8.533 0 0 0 8.533 8.533h68.267v-.171a8.533 8.533 0 0 0 8.533-8.533V85.618c.001-23.565-19.102-42.667-42.666-42.667zm25.6 51.2h-51.2v-8.533c0-14.138 11.461-25.6 25.6-25.6s25.6 11.461 25.6 25.6v8.533zM256.142 128.284a8.533 8.533 0 0 0-8.533 8.533v17.067a8.533 8.533 0 0 0 17.066 0v-17.067a8.533 8.533 0 0 0-8.533-8.533z"/><path d="M264.675 128.284h-17.067c-4.713 0-8.533 3.82-8.533 8.533s3.82 8.533 8.533 8.533h17.067c4.713 0 8.533-3.82 8.533-8.533s-3.82-8.533-8.533-8.533z"/></svg>