<svg xmlns="http://www.w3.org/2000/svg" viewBox="0 0 512.284 512.284"><path d="M436.196 297.842l-112.64-75.008a8.531 8.531 0 0 0-9.216 0c-35.781 21.637-80.613 21.637-116.395 0a8.535 8.535 0 0 0-9.216 0L76.003 297.842a17.067 17.067 0 0 0-7.595 14.251v12.459c0 9.426 7.641 17.067 17.067 17.067v153.6c0 9.426 7.641 17.067 17.067 17.067h17.067c9.426 0 17.067-7.641 17.067-17.067v-102.4h59.733v102.4c0 9.426 7.641 17.067 17.067 17.067h196.267c9.426 0 17.067-7.641 17.067-17.067v-153.6c9.426 0 17.067-7.641 17.067-17.067v-12.459a17.07 17.07 0 0 0-7.681-14.251zm-9.387 26.709c-9.426 0-17.067 7.641-17.067 17.067v153.6H213.475v-102.4c0-9.426-7.641-17.067-17.067-17.067h-59.733c-9.426 0-17.067 7.641-17.067 17.067v102.4h-17.067v-153.6c0-9.426-7.641-17.067-17.067-17.067v-12.544l108.203-72.021a129.793 129.793 0 0 0 124.928 0l108.203 72.107v12.458z"/><path d="M134.201 327.026a9.8 9.8 0 0 0-2.816-1.792 8.537 8.537 0 0 0-6.485 0 9.8 9.8 0 0 0-2.816 1.792 8.964 8.964 0 0 0-2.475 6.059 8.533 8.533 0 0 0 17.066 0 8.958 8.958 0 0 0-2.474-6.059zM367.075 324.551H153.742a8.533 8.533 0 0 0 0 17.066h213.333a8.533 8.533 0 0 0 8.533-8.533 8.532 8.532 0 0 0-8.533-8.533zM335.246 27.375c-55.577-43.688-136.047-34.05-179.735 21.527-43.688 55.577-34.05 136.047 21.527 179.735a132.35 132.35 0 0 0 11.861 8.533 127.231 127.231 0 0 0 67.243 19.115 127.145 127.145 0 0 0 67.243-19.115 131.134 131.134 0 0 0 11.861-8.533 128.019 128.019 0 0 0 21.527-21.527c43.688-55.577 34.05-136.047-21.527-179.735zM324.409 215.41c-36.442 28.496-86.741 31.387-126.208 7.253a114.703 114.703 0 0 1-10.325-7.253 110.932 110.932 0 0 1-42.265-86.725c-.221-61.266 49.265-111.112 110.532-111.334a110.932 110.932 0 0 1 86.725 42.265c37.923 48.118 29.659 117.869-18.459 155.794z"/><path d="M225.166 177.18l.03.001.055-.001h-.085z"/><path d="M325.177 106.183a7.425 7.425 0 0 1-4.181-10.155 24.488 24.488 0 0 0 0-20.893c-5.769-12.234-20.364-17.474-32.597-11.705a7.423 7.423 0 0 1-10.154-4.181 24.492 24.492 0 0 0-14.736-14.736c-12.725-4.586-26.758 2.012-31.344 14.736a7.425 7.425 0 0 1-10.155 4.181 24.488 24.488 0 0 0-21.219-.055c-12.206 5.828-17.377 20.447-11.549 32.653l2.389 5.12a3.072 3.072 0 0 1 0 3.157 3.326 3.326 0 0 1-2.901 1.365 8.539 8.539 0 0 0-3.669.512 23.127 23.127 0 0 0-14.251 21.589 25.599 25.599 0 0 0 13.653 24.149 8.536 8.536 0 0 0 6.144.427 1.962 1.962 0 0 1 2.304 2.73l-3.499 7.339a24.491 24.491 0 0 0 .081 20.733c5.773 12.232 20.369 17.467 32.601 11.694a7.252 7.252 0 0 1 5.973 0 8.02 8.02 0 0 1 4.437 5.12 24.574 24.574 0 0 0 22.784 13.653h.853a24.064 24.064 0 0 0 22.101-14.421 7.425 7.425 0 0 1 10.155-4.181 24.488 24.488 0 0 0 20.893 0c12.234-5.769 17.474-20.364 11.705-32.597a7.423 7.423 0 0 1 4.181-10.154 24.492 24.492 0 0 0 14.736-14.736c4.587-12.725-2.011-26.758-14.735-31.344zm-5.717 30.379a24.69 24.69 0 0 0-2.239.926c-12.228 5.782-17.452 20.382-11.67 32.61a7.424 7.424 0 0 1-9.813 9.898 24.407 24.407 0 0 0-19.883-.512 24.152 24.152 0 0 0-13.483 13.483 7.51 7.51 0 0 1-6.912 3.584 8.533 8.533 0 0 1-7.253-3.072 24.49 24.49 0 0 0-23.01-16.297 24.395 24.395 0 0 0-10.44 2.303 7.425 7.425 0 0 1-9.899-9.728l3.499-7.339a19.03 19.03 0 0 0 1.874-9.548c-.68-10.488-9.733-18.438-20.221-17.758a9.811 9.811 0 0 1-2.133-6.827 7.851 7.851 0 0 1 2.389-5.632 20.32 20.32 0 0 0 7.357-1.897c10.146-4.783 14.493-16.885 9.71-27.031l-2.389-5.035a7.424 7.424 0 0 1 9.813-9.386c.731.346 1.478.655 2.239.926 12.739 4.546 26.751-2.096 31.297-14.836a7.423 7.423 0 0 1 13.909 0c.272.761.581 1.509.926 2.239 5.782 12.228 20.382 17.452 32.61 11.67a7.423 7.423 0 0 1 9.813 9.813 24.242 24.242 0 0 0-.926 2.239c-4.546 12.739 2.096 26.751 14.836 31.297a7.426 7.426 0 0 1-.001 13.91z"/><path d="M255.917 94.151c-18.851.062-34.083 15.395-34.02 34.246.062 18.851 15.395 34.083 34.246 34.02a35.173 35.173 0 0 0 6.485-.597 34.133 34.133 0 0 0 26.88-26.88c.443-2.229.663-4.496.655-6.769-.063-18.851-15.395-34.082-34.246-34.02zm17.292 37.547a17.068 17.068 0 0 1-12.772 12.772c-9.182 2.129-18.351-3.589-20.48-12.772-2.129-9.182 3.589-18.351 12.772-20.48a18.355 18.355 0 0 1 3.413 0 17.028 17.028 0 0 1 3.762.342c9.235 1.887 15.192 10.903 13.305 20.138z"/></svg>