<svg xmlns="http://www.w3.org/2000/svg" viewBox="0 0 512.284 512.284"><path d="M436.196 297.842l-112.64-75.008a8.531 8.531 0 0 0-9.216 0c-35.781 21.637-80.613 21.637-116.395 0a8.535 8.535 0 0 0-9.216 0L76.003 297.842a17.067 17.067 0 0 0-7.595 14.251v12.459c0 9.426 7.641 17.067 17.067 17.067v153.6c0 9.426 7.641 17.067 17.067 17.067h17.067c9.426 0 17.067-7.641 17.067-17.067v-102.4h59.733v102.4c0 9.426 7.641 17.067 17.067 17.067h196.267c9.426 0 17.067-7.641 17.067-17.067v-153.6c9.426 0 17.067-7.641 17.067-17.067v-12.459a17.07 17.07 0 0 0-7.681-14.251zm-9.387 26.709c-9.426 0-17.067 7.641-17.067 17.067v153.6H213.475v-102.4c0-9.426-7.641-17.067-17.067-17.067h-59.733c-9.426 0-17.067 7.641-17.067 17.067v102.4h-17.067v-153.6c0-9.426-7.641-17.067-17.067-17.067v-12.544l108.203-72.021a129.708 129.708 0 0 0 124.928 0l108.203 72.107v12.458z"/><path d="M134.201 326.855a9.914 9.914 0 0 0-2.816-1.792 8.527 8.527 0 0 0-4.949-.512 5.374 5.374 0 0 0-1.536.683l-1.536.768-1.28 1.024a8.964 8.964 0 0 0-2.475 6.059 8.529 8.529 0 0 0 .683 3.413 9.914 9.914 0 0 0 1.792 2.816l1.28 1.024 1.536.768 1.536.512h1.707a8.513 8.513 0 0 0 3.243-.683 7.68 7.68 0 0 0 4.608-4.608 7.163 7.163 0 0 0 .683-3.243 8.965 8.965 0 0 0-2.476-6.229zM367.075 324.551H153.742a8.533 8.533 0 0 0 0 17.066h213.333a8.533 8.533 0 0 0 8.533-8.533 8.532 8.532 0 0 0-8.533-8.533zM335.246 27.375c-55.577-43.688-136.047-34.05-179.735 21.527-43.688 55.577-34.05 136.047 21.527 179.735a131.471 131.471 0 0 0 11.861 8.533 127.231 127.231 0 0 0 67.243 19.115 127.234 127.234 0 0 0 67.243-19.115 131.866 131.866 0 0 0 11.861-8.533 128.019 128.019 0 0 0 21.527-21.527c43.688-55.577 34.05-136.047-21.527-179.735zM324.409 215.41a115.557 115.557 0 0 1-9.813 7.253c-35.781 21.637-80.613 21.637-116.395 0a115.601 115.601 0 0 1-10.325-7.253 110.932 110.932 0 0 1-42.265-86.725c-.221-61.266 49.265-111.112 110.532-111.334a110.932 110.932 0 0 1 86.725 42.265c37.923 48.118 29.659 117.869-18.459 155.794z"/><path d="M260.665 170.951h-9.045c-11.641 0-21.077 9.437-21.077 21.077v9.045c0 11.641 9.437 21.077 21.077 21.077h9.045c11.641 0 21.077-9.437 21.077-21.077v-9.045c0-11.64-9.437-21.077-21.077-21.077zm4.01 30.123a4.011 4.011 0 0 1-4.011 4.011h-9.045a4.011 4.011 0 0 1-4.011-4.011v-9.045a4.011 4.011 0 0 1 4.011-4.011h9.045a4.011 4.011 0 0 1 4.011 4.011v9.045zM286.265 48.156a16.383 16.383 0 0 0-12.032-5.205h-36.181a16.383 16.383 0 0 0-12.032 5.547 15.02 15.02 0 0 0-4.011 11.52l6.4 79.531c.757 8.214 7.71 14.46 15.957 14.336h23.552c8.129.14 15.036-5.917 15.957-13.995l6.4-79.872c.454-4.35-1.01-8.68-4.01-11.862zm-19.2 88.662h-21.589l-6.4-76.8h34.133l-6.144 76.8z"/></svg>