<svg xmlns="http://www.w3.org/2000/svg" viewBox="0 0 512 512"><path d="M503.979 263.339l-137.984-86.528a8.533 8.533 0 0 0-12.032 3.243 111.622 111.622 0 0 1-39.765 42.667 110.85 110.85 0 0 1-6.243 3.563c-54.165 28.632-121.285 7.935-149.917-46.23a8.533 8.533 0 0 0-12.032-3.242L8.021 263.339A17.068 17.068 0 0 0 0 277.76v20.907c0 9.426 7.641 17.067 17.067 17.067H25.6v179.2c0 9.426 7.641 17.067 17.067 17.067h17.067c9.426 0 17.067-7.641 17.067-17.067v-204.8h358.4v204.8c0 9.426 7.641 17.067 17.067 17.067h17.067c9.426 0 17.067-7.641 17.067-17.067v-179.2h8.533c9.426 0 17.067-7.641 17.067-17.067V277.76a17.075 17.075 0 0 0-8.023-14.421zm-9.046 35.328H486.4c-9.426 0-17.067 7.641-17.067 17.067v179.2h-17.067v-204.8c0-9.426-7.641-17.067-17.067-17.067H76.8c-9.426 0-17.067 7.641-17.067 17.067v204.8H42.667v-179.2c0-9.426-7.641-17.067-17.067-17.067h-8.533v-20.821l130.56-81.579a128.52 128.52 0 0 0 41.045 40.875c41.217 25.447 93.268 25.447 134.485 0a128.509 128.509 0 0 0 41.216-40.875l130.56 81.579v20.821z"/><path d="M256 0c-70.692 0-128 57.308-128 128a125.95 125.95 0 0 0 15.019 59.733 128.677 128.677 0 0 0 45.739 49.152A127.228 127.228 0 0 0 256 256a127.23 127.23 0 0 0 67.243-19.456 128.687 128.687 0 0 0 45.739-48.811A125.96 125.96 0 0 0 384 128C384 57.308 326.692 0 256 0zm97.963 180.053a111.622 111.622 0 0 1-39.765 42.667 110.85 110.85 0 0 1-6.243 3.563c-54.165 28.632-121.285 7.935-149.917-46.23A108.971 108.971 0 0 1 145.067 128c0-61.267 49.667-110.933 110.933-110.933S366.933 66.733 366.933 128a109.056 109.056 0 0 1-12.97 52.053zM443.733 307.2H145.067c-4.713 0-8.533 3.82-8.533 8.533s3.82 8.533 8.533 8.533h298.667a8.533 8.533 0 0 0-.001-17.066zM110.933 307.2H68.267c-4.713 0-8.533 3.82-8.533 8.533s3.82 8.533 8.533 8.533h42.667a8.533 8.533 0 0 0-.001-17.066zM443.733 341.333H145.067c-4.713 0-8.533 3.82-8.533 8.533s3.82 8.533 8.533 8.533h298.667a8.533 8.533 0 0 0-.001-17.066zM110.933 341.333H68.267c-4.713 0-8.533 3.82-8.533 8.533s3.82 8.533 8.533 8.533h42.667a8.533 8.533 0 0 0-.001-17.066z"/><path d="M307.2 128h-17.067V59.733c0-9.426-7.641-17.067-17.067-17.067h-34.133c-9.426 0-17.067 7.641-17.067 17.067V128H204.8a17.067 17.067 0 0 0-12.131 5.048c-6.638 6.692-6.593 17.498.099 24.136l51.2 51.2A17.063 17.063 0 0 0 256 213.333a17.067 17.067 0 0 0 12.032-5.035l51.2-51.2a17.07 17.07 0 0 0 4.963-11.961c.039-9.424-7.569-17.097-16.995-17.137zM256 196.267l-51.2-51.2h17.067c9.426 0 17.067-7.641 17.067-17.067V59.733h34.133V128c0 9.426 7.641 17.067 17.067 17.067H307.2l-51.2 51.2z"/></svg>