<svg xmlns="http://www.w3.org/2000/svg" viewBox="0 0 512.284 512.284"><path d="M436.196 297.842l-112.64-75.008a8.531 8.531 0 0 0-9.216 0c-35.781 21.637-80.613 21.637-116.395 0a8.535 8.535 0 0 0-9.216 0L76.003 297.842a17.067 17.067 0 0 0-7.595 14.251v12.459c0 9.426 7.641 17.067 17.067 17.067v153.6c0 9.426 7.641 17.067 17.067 17.067h17.067c9.426 0 17.067-7.641 17.067-17.067v-102.4h59.733v102.4c0 9.426 7.641 17.067 17.067 17.067h196.267c9.426 0 17.067-7.641 17.067-17.067v-153.6c9.426 0 17.067-7.641 17.067-17.067v-12.459a17.07 17.07 0 0 0-7.681-14.251zm-9.387 26.709c-9.426 0-17.067 7.641-17.067 17.067v153.6H213.475v-102.4c0-9.426-7.641-17.067-17.067-17.067h-59.733c-9.426 0-17.067 7.641-17.067 17.067v102.4h-17.067v-153.6c0-9.426-7.641-17.067-17.067-17.067v-12.544l108.203-72.021a129.708 129.708 0 0 0 124.928 0l108.203 72.107v12.458z"/><path d="M136.675 333.084a8.533 8.533 0 0 0-14.592-6.058 9.8 9.8 0 0 0-1.792 2.816 8.55 8.55 0 0 0-.683 3.243 8.533 8.533 0 0 0 8.533 8.533 8.96 8.96 0 0 0 6.229-2.475c.367-.406.709-.833 1.024-1.28.323-.476.581-.992.768-1.536a5.556 5.556 0 0 0 .512-1.536c.043-.568.043-1.139.001-1.707zM367.075 324.551H153.742a8.533 8.533 0 0 0 0 17.066h213.333a8.533 8.533 0 0 0 8.533-8.533 8.532 8.532 0 0 0-8.533-8.533zM335.246 27.375c-55.577-43.688-136.047-34.05-179.735 21.527-43.688 55.577-34.05 136.047 21.527 179.735a131.471 131.471 0 0 0 11.861 8.533 127.231 127.231 0 0 0 67.243 19.115 127.234 127.234 0 0 0 67.243-19.115 131.866 131.866 0 0 0 11.861-8.533 128.019 128.019 0 0 0 21.527-21.527c43.688-55.577 34.05-136.047-21.527-179.735zM324.409 215.41a115.557 115.557 0 0 1-9.813 7.253c-35.781 21.637-80.613 21.637-116.395 0a115.601 115.601 0 0 1-10.325-7.253 110.932 110.932 0 0 1-42.265-86.725c-.221-61.266 49.265-111.112 110.532-111.334a110.932 110.932 0 0 1 86.725 42.265c37.923 48.118 29.659 117.869-18.459 155.794z"/><path d="M339.513 120.178c-22.272-31.317-52.053-48.384-83.712-48.384s-61.44 17.152-83.712 48.384a8.536 8.536 0 0 0 0 9.387c21.76 35.413 51.2 55.296 82.944 55.296h.597c31.915 0 61.867-19.627 83.883-55.125a8.536 8.536 0 0 0 0-9.558zm-83.798 47.616h-.512c-24.282-.596-47.287-15.485-65.364-42.54 18.491-23.586 41.973-36.734 66.388-36.734 24.491 0 47.872 12.971 66.389 36.608-18.858 27.732-42.41 42.666-66.901 42.666z"/><path d="M281.742 77.084a8.585 8.585 0 0 0-12.885 11.349c5.689 6.451 5.689 16.126 0 22.577-6.234 7.069-17.019 7.746-24.089 1.511-7.069-6.234-7.746-17.019-1.511-24.089a8.533 8.533 0 0 0-12.715-11.349 34.133 34.133 0 0 0-8.341 22.166c-.106 18.851 15.09 34.219 33.941 34.324V134a34.131 34.131 0 0 0 22.969-8.717c14.037-12.582 15.215-34.162 2.631-48.199z"/></svg>