<svg xmlns="http://www.w3.org/2000/svg" viewBox="0 0 512.222 512.222"><path d="M402.167 1.296c-69.986-9.972-134.804 38.679-144.776 108.665a132.495 132.495 0 0 0-1.28 18.261 127.148 127.148 0 0 0 48.896 100.523 128.6 128.6 0 0 0 79.104 27.477c70.692 0 128-57.308 128-128 .103-63.795-46.787-117.927-109.944-126.926zm-18.056 237.859c-61.267 0-110.933-49.667-110.933-110.933.006-5.31.377-10.613 1.109-15.872 8.095-54.468 54.758-94.858 109.824-95.061 61.267 0 110.933 49.667 110.933 110.933s-49.666 110.933-110.933 110.933z"/><path d="M332.911 227.55a8.533 8.533 0 0 0-8.533 8.533v250.539a8.533 8.533 0 0 1-8.533 8.533H128.111a8.533 8.533 0 0 1-8.533-8.533V298.889c0-4.713-3.82-8.533-8.533-8.533s-8.533 3.82-8.533 8.533v187.733c0 14.138 11.461 25.6 25.6 25.6h187.733c14.138 0 25.6-11.462 25.6-25.6V236.083a8.535 8.535 0 0 0-8.534-8.533zM265.839 102.622H128.111c-14.138 0-25.6 11.461-25.6 25.6v136.533c0 4.713 3.82 8.533 8.533 8.533s8.533-3.82 8.533-8.533V128.222a8.533 8.533 0 0 1 8.533-8.533h137.728c4.713 0 8.533-3.82 8.533-8.533s-3.819-8.534-8.532-8.534z"/><path d="M241.418 216.387c-36.139-10.745-74.146 9.84-84.891 45.979a8.546 8.546 0 0 0 16.384 4.864 51.2 51.2 0 0 1 34.429-34.429c27.097-8.083 55.616 7.332 63.699 34.429 8.083 27.097-7.332 55.616-34.429 63.699-27.097 8.083-55.616-7.332-63.699-34.429a8.546 8.546 0 0 0-16.384 4.864c8.642 28.928 35.26 48.743 65.451 48.725 30.203-.007 56.812-19.86 65.42-48.811 10.745-36.139-9.841-74.146-45.98-84.891z"/><path d="M230.938 263.561a27.306 27.306 0 0 0-18.944-7.339H27.162C12.63 255.84.53 267.291.111 281.822a24.32 24.32 0 0 0 8.533 18.261 27.311 27.311 0 0 0 18.517 7.339h184.832c14.532.382 26.632-11.069 27.051-25.6a24.318 24.318 0 0 0-8.106-18.261zm-18.944 26.794H27.162a10.496 10.496 0 0 1-7.339-2.816 7.591 7.591 0 0 1-2.645-5.717 9.47 9.47 0 0 1 9.984-8.533h184.832c2.72-.056 5.354.954 7.339 2.816a7.591 7.591 0 0 1 2.645 5.717 9.471 9.471 0 0 1-9.984 8.533zM221.978 367.155c-18.851 0-34.133 15.282-34.133 34.133 0 18.851 15.282 34.133 34.133 34.133s34.133-15.282 34.133-34.133c0-18.851-15.282-34.133-34.133-34.133zm0 51.2c-9.426 0-17.067-7.641-17.067-17.067s7.641-17.067 17.067-17.067 17.067 7.641 17.067 17.067c-.001 9.426-7.642 17.067-17.067 17.067z"/><path d="M221.978 418.355a8.533 8.533 0 0 0-8.533 8.533v42.667c0 4.713 3.82 8.533 8.533 8.533s8.533-3.82 8.533-8.533v-42.667a8.533 8.533 0 0 0-8.533-8.533zM151.236 139.401a9.914 9.914 0 0 0-2.816-1.792 8.534 8.534 0 0 0-9.301 1.792l-.049.049a8.533 8.533 0 0 0 .049 12.068c.404.369.831.711 1.28 1.024l1.536.768 1.536.512h1.707a7.18 7.18 0 0 0 3.243-.512 9.914 9.914 0 0 0 2.816-1.792l.049-.049a8.533 8.533 0 0 0-.05-12.068zM230.511 136.755h-59.733c-4.713 0-8.533 3.82-8.533 8.533s3.82 8.533 8.533 8.533h59.733a8.533 8.533 0 0 0 0-17.066zM435.311 94.089h-102.4c-14.138 0-25.6 11.461-25.6 25.6v51.2c0 14.138 11.462 25.6 25.6 25.6h102.4c14.138 0 25.6-11.461 25.6-25.6v-51.2c0-14.139-11.462-25.6-25.6-25.6zm8.533 76.8a8.533 8.533 0 0 1-8.533 8.533h-102.4a8.533 8.533 0 0 1-8.533-8.533v-51.2a8.533 8.533 0 0 1 8.533-8.533h102.4a8.533 8.533 0 0 1 8.533 8.533v51.2z"/><path d="M424.73 96.99l-.683-.683a8.534 8.534 0 0 0-4.437-2.219h-61.099v-8.533a25.6 25.6 0 0 1 6.519-17.186c9.426-10.538 25.61-11.44 36.148-2.014a8.533 8.533 0 1 0 11.178-12.8 42.667 42.667 0 0 0-28.267-10.688c-23.564.012-42.657 19.124-42.645 42.688v17.067a8.533 8.533 0 0 0 8.533 8.533h68.267a8.536 8.536 0 0 0 4.523-1.536 8.535 8.535 0 0 0 1.963-1.707 8.533 8.533 0 0 0 0-10.922zM384.111 128.222a8.533 8.533 0 0 0-8.533 8.533v17.067a8.533 8.533 0 0 0 17.066 0v-17.067a8.533 8.533 0 0 0-8.533-8.533z"/><path d="M392.644 128.222h-17.067c-4.713 0-8.533 3.82-8.533 8.533s3.82 8.533 8.533 8.533h17.067c4.713 0 8.533-3.82 8.533-8.533s-3.82-8.533-8.533-8.533z"/></svg>