<svg xmlns="http://www.w3.org/2000/svg" viewBox="0 0 512.002 512.002"><path d="M174.035 425.048l-5.17-17.813a11.957 11.957 0 0 0-8.419-8.198l-31.648-8.274a11.979 11.979 0 0 0-3.025-.391 11.898 11.898 0 0 0-8.959 4.085 11.892 11.892 0 0 0-2.82 9.427l2.399 17.598a11.833 11.833 0 0 0 8.943 9.948l34.42 8.491c.943.233 1.91.351 2.872.351 3.708 0 7.26-1.782 9.502-4.768 2.265-3.016 2.96-6.827 1.905-10.456zm-43.445-7.333l-1.614-11.84 26.314 6.88 3.457 11.907-28.157-6.947zM395.251 394.457a11.889 11.889 0 0 0-8.957-4.085c-1.016 0-2.034.132-3.025.391l-31.648 8.274a11.956 11.956 0 0 0-8.418 8.197l-5.172 17.814c-1.054 3.629-.36 7.439 1.905 10.456 2.241 2.985 5.794 4.768 9.501 4.768h.001c.962 0 1.929-.118 2.872-.351l34.418-8.49a11.836 11.836 0 0 0 8.944-9.948l2.398-17.598a11.89 11.89 0 0 0-2.819-9.428zm-13.773 23.258l-28.157 6.946 3.457-11.907 26.314-6.88-1.614 11.841z"/><path d="M427.503 301.184h-18.692c-7.592 0-13.77 6.177-13.77 13.77v3.147l-20.494-64.578c-4.183-13.181-16.284-22.037-30.115-22.037H167.635c-13.828 0-25.931 8.856-30.115 22.037l-23.023 72.546-.483-.616a13.73 13.73 0 0 0 .975-5.083v-5.416c0-7.592-6.177-13.77-13.77-13.77H82.528c-7.592 0-13.77 6.177-13.77 13.77v5.416c0 7.592 6.177 13.77 13.77 13.77h18.692c.351 0 .698-.025 1.045-.051l4.046 5.162c-9.415 8.869-15.31 21.435-15.31 35.36v59.458c0 11.559 7.524 21.388 17.93 24.864v19.019c0 12.19 9.917 22.107 22.106 22.107h21.966c12.19 0 22.107-9.917 22.107-22.107v-17.671h161.849v17.671c0 12.19 9.917 22.107 22.106 22.107h21.965c12.19 0 22.107-9.917 22.107-22.107v-19.019c10.405-3.476 17.93-13.304 17.93-24.864v-59.458c0-14.501-6.392-27.531-16.497-36.443l3.197-4.079c.346.026.693.051 1.044.051h18.692c7.592 0 13.77-6.177 13.77-13.77v-5.416c-.001-7.592-6.178-13.77-13.77-13.77zm-327.089 18.381h-17.08v-3.805h17.08v3.805zm50.998-61.632a16.96 16.96 0 0 1 16.223-11.872h176.798c7.45 0 13.969 4.77 16.223 11.871l21.943 69.142-.069-.013-.132-.028c-.201-.042-.404-.077-.605-.116l-.009-.002c-.293-.057-.586-.117-.881-.169-.209-.037-.42-.067-.63-.101-.224-.036-.447-.074-.673-.107-.114-.017-.227-.035-.342-.051-.255-.036-.511-.064-.766-.096-.296-.037-.592-.077-.89-.108l-.106-.013c-.113-.012-.227-.019-.34-.029l-.325-.028c-.26-.023-.518-.052-.778-.071l-20.871-66.465a11.23 11.23 0 0 0-10.749-7.871H167.636a11.244 11.244 0 0 0-10.754 7.882l-20.921 66.459c-.063.005-.125.015-.188.02-.29.023-.579.047-.868.075-.11.011-.221.017-.331.029-.608.063-1.214.139-1.819.225-.067.009-.132.021-.199.031l-.029.005a49.59 49.59 0 0 0-2.266.389c-.196.038-.393.072-.588.113l-.161.034-.045.008 21.945-69.143zm209.322 68.076H151.285l18.771-59.629h171.953l18.725 59.629zm-232.843 16.658l.123-.047c.125-.046.253-.085.379-.129a33.886 33.886 0 0 1 2.114-.662l.108-.03a34.024 34.024 0 0 1 1.645-.406c.16-.035.319-.074.479-.107a33.26 33.26 0 0 1 1.991-.348c.163-.023.327-.041.49-.063.554-.072 1.11-.129 1.669-.174.094-.007.187-.015.281-.021.107-.008.214-.017.321-.023a34.406 34.406 0 0 1 2.108-.073h232.866c.706 0 1.409.03 2.111.073.114.007.227.017.34.025l.26.02a34.54 34.54 0 0 1 1.675.174c.161.021.324.039.484.062.668.096 1.333.213 1.993.348.16.033.319.071.479.107.552.122 1.1.257 1.645.406l.123.034a34.468 34.468 0 0 1 2.109.66c.121.043.245.08.366.124l.127.049c.403.148.799.316 1.197.479a56.515 56.515 0 0 1-53.271 37.444H179.965a56.515 56.515 0 0 1-53.271-37.444c.397-.163.793-.33 1.197-.478zm32.643 135.284c0 4.152-3.379 7.531-7.531 7.531h-21.966c-4.152 0-7.531-3.379-7.531-7.531v-17.67h37.028v17.67zm29.63-32.272v-6.921c0-4.924 4.006-8.929 8.93-8.929h113.879c4.924 0 8.93 4.005 8.93 8.929v6.921H190.164zm198.397 32.272c0 4.152-3.379 7.531-7.531 7.531h-21.965c-4.152 0-7.531-3.379-7.531-7.531v-17.67h37.027v17.67zm17.93-103.34v59.458c0 6.145-4.792 11.181-10.834 11.597-.061.002-.122-.003-.184 0l-.439.028-50.787.013h-7.768v-6.948c0-12.96-10.544-23.504-23.505-23.504h-113.88c-12.961 0-23.505 10.544-23.505 23.504v6.948h-58.344l-.652-.041c-.062-.003-.123.002-.184 0-6.041-.416-10.833-5.452-10.833-11.597v-59.458c0-8.793 3.353-16.818 8.847-22.863a71.057 71.057 0 0 0 65.542 43.417h152.137a71.06 71.06 0 0 0 65.542-43.417c5.494 6.045 8.847 14.07 8.847 22.863zm20.206-55.046h-17.08v-3.805h17.08v3.805z"/><path d="M506.449 128.103L257.32 13.215a13.728 13.728 0 0 0-5.792-1.272 13.91 13.91 0 0 0-5.967 1.354L5.43 128.138A9.596 9.596 0 0 0 0 136.753v24.061c0 4.054 2.543 7.517 6.115 8.901v319.622c0 5.912 4.809 10.722 10.721 10.722h38.542c5.912 0 10.722-4.81 10.722-10.722V199.324h379.802v290.013c0 5.912 4.81 10.722 10.722 10.722h38.542c5.912 0 10.721-4.81 10.721-10.722V169.714c3.571-1.384 6.115-4.847 6.115-8.901v-24.038a9.585 9.585 0 0 0-5.553-8.672zM51.524 192.036v293.447H20.69V170.364h30.834v21.672zm394.377-7.288H66.099v-14.384h379.802v14.384zm45.409 300.735h-30.834V170.364h30.834v315.119zm6.115-329.694H14.575V139.92L251.533 26.597l245.892 113.394v15.798z"/></svg>