<svg xmlns="http://www.w3.org/2000/svg" viewBox="0 0 512.001 512.001"><path d="M237.781 59.959h-57.105c-6.836 0-12.398 5.562-12.398 12.398v98.139c0 6.837 5.562 12.399 12.398 12.399h57.105c6.836 0 12.398-5.562 12.398-12.399V72.357c.001-6.836-5.562-12.398-12.398-12.398zm-2.174 108.363h-52.756v-93.79h52.756v93.79zM331.325 59.959h-57.104c-6.837 0-12.398 5.562-12.398 12.398v98.139c0 6.837 5.562 12.399 12.398 12.399h57.104c6.837 0 12.398-5.562 12.398-12.399V72.357c-.001-6.836-5.562-12.398-12.398-12.398zm-2.176 108.363h-52.755v-93.79h52.755v93.79zM237.781 195.77h-57.105c-6.836 0-12.398 5.562-12.398 12.398v98.139c0 6.836 5.562 12.398 12.398 12.398h57.105c6.836 0 12.398-5.562 12.398-12.398v-98.139c.001-6.835-5.562-12.398-12.398-12.398zm-2.174 108.363h-52.756v-93.789h52.756v93.789zM331.325 195.77h-57.104c-6.837 0-12.398 5.562-12.398 12.398v98.139c0 6.836 5.562 12.398 12.398 12.398h57.104c6.837 0 12.398-5.562 12.398-12.398v-98.139c-.001-6.835-5.562-12.398-12.398-12.398zm-2.176 108.363h-52.755v-93.789h52.755v93.789zM237.781 331.582h-57.105c-6.836 0-12.398 5.562-12.398 12.398v98.139c0 6.836 5.562 12.398 12.398 12.398h57.105c6.836 0 12.398-5.562 12.398-12.398V343.98c.001-6.836-5.562-12.398-12.398-12.398zm-2.174 108.362h-52.756v-93.789h52.756v93.789zM331.325 331.582h-57.104c-6.837 0-12.398 5.562-12.398 12.398v98.139c0 6.836 5.562 12.398 12.398 12.398h57.104c6.837 0 12.398-5.562 12.398-12.398V343.98c-.001-6.836-5.562-12.398-12.398-12.398zm-2.176 108.362h-52.755v-93.789h52.755v93.789z"/><path d="M427.835 465.108h-21.622V245.192a7.287 7.287 0 1 0-14.574 0v219.917h-19.643V46.528c0-8.657-7.043-15.701-15.7-15.701h-200.59c-8.658 0-15.701 7.043-15.701 15.701v418.58h-19.643V245.122a7.287 7.287 0 1 0-14.574 0v219.986H84.166c-5.885 0-10.673 4.788-10.673 10.673v25.547c0 5.885 4.788 10.673 10.673 10.673h343.668c5.885 0 10.673-4.788 10.673-10.673v-25.547c.001-5.885-4.788-10.673-10.672-10.673zM154.577 46.528a1.13 1.13 0 0 1 1.128-1.128h200.591c.621 0 1.127.506 1.127 1.128v418.58H154.577V46.528zM88.066 497.427v-17.746h335.867v17.746H88.066z"/><path d="M391.456 0h-270.91c-8.137 0-14.757 6.62-14.757 14.757v195.094a7.286 7.286 0 1 0 14.573 0V14.757c0-.102.083-.184.184-.184h270.91c.102 0 .184.083.184.184v195.702a7.287 7.287 0 1 0 14.574 0V14.757C406.213 6.62 399.593 0 391.456 0z"/></svg>