<svg xmlns="http://www.w3.org/2000/svg" viewBox="0 0 512 512"><path d="M452.711 107.336c-95.867-5.957-319.064-19.812-321.078-19.812-28.923 0-52.453 23.53-52.453 52.454 0 28.923 23.53 52.453 52.453 52.453 2.015 0 225.211-13.855 321.074-19.812 17.211-1.06 30.692-15.398 30.692-32.641-.001-17.243-13.482-31.581-30.688-32.642zm-.904 50.738c-108.266 6.727-313.645 19.463-320.309 19.784-20.826-.073-37.746-17.037-37.746-37.88 0-20.843 16.92-37.808 37.746-37.88 6.664.32 212.044 13.056 320.312 19.784 9.542.588 17.015 8.537 17.015 18.096s-7.473 17.508-17.018 18.096zM203.639 208.071a7.287 7.287 0 0 0-7.287 7.287v254.704c0 15.089-12.276 27.365-27.364 27.365H70.539c-15.089 0-27.364-12.276-27.364-27.365v-65.175a7.287 7.287 0 1 0-14.574 0v65.175c0 23.125 18.813 41.938 41.937 41.938h98.449c23.124 0 41.937-18.813 41.937-41.938V215.358a7.284 7.284 0 0 0-7.285-7.287z"/><path d="M168.988 0H70.539C47.415 0 28.602 18.813 28.602 41.937v328.381a7.287 7.287 0 1 0 14.573 0V41.937c0-15.089 12.276-27.364 27.364-27.364h98.449c15.089 0 27.364 12.276 27.364 27.364v23.561a7.287 7.287 0 1 0 14.574 0V41.937C210.926 18.813 192.112 0 168.988 0zM119.762 321.739c-7.434 0-14.875 2.675-21.519 7.735a7.28 7.28 0 0 0-1.383 1.384c-6.273 8.244-8.856 17.768-7.271 26.818 1.223 6.991 4.883 13.343 10.236 17.942v42.864a7.294 7.294 0 0 0 1.815 4.81c5.126 5.833 11.562 9.046 18.123 9.046a19.807 19.807 0 0 0 14.097-5.839 19.805 19.805 0 0 0 5.839-14.098v-36.776a30.506 30.506 0 0 0 10.695-23.254c0-16.891-13.741-30.632-30.632-30.632zm8.696 44.129a7.287 7.287 0 0 0-3.332 6.12v40.413c0 1.433-.558 2.78-1.571 3.793s-2.36 1.571-3.792 1.571c-1.72 0-3.572-.806-5.364-2.308v-43.469a7.286 7.286 0 0 0-3.332-6.12c-3.761-2.431-6.358-6.332-7.123-10.704-.841-4.812.516-9.87 3.928-14.682 3.854-2.731 7.948-4.17 11.891-4.17 8.855 0 16.059 7.204 16.059 16.059 0 5.472-2.753 10.517-7.364 13.497z"/></svg>