<svg xmlns="http://www.w3.org/2000/svg" viewBox="0 0 511.998 511.998"><path d="M454.748 63.564C418.9 27.716 374.602 6.314 336.251 6.314c-49.685 0-87.484 56.09-110.444 103.143-17.896 36.673-20.368 79.226-6.866 116.992l-84.412 84.412a7.286 7.286 0 1 0 10.305 10.305l82.836-82.836 52.099 52.1-13.782 13.977a3.662 3.662 0 0 1-5.165.042l-3.867-3.798a7.286 7.286 0 0 0-10.272.06l-13.558 13.632-22.162 3.095a7.285 7.285 0 0 0-6.208 6.208l-3.435 24.592a7.242 7.242 0 0 0-.05.462l-13.111 13.111a7.195 7.195 0 0 0-.463.05l-24.591 3.435a7.285 7.285 0 0 0-6.208 6.208l-3.435 24.592a7.195 7.195 0 0 0-.05.463l-13.111 13.111a7.242 7.242 0 0 0-.462.05l-24.591 3.435a7.285 7.285 0 0 0-6.208 6.208l-3.435 24.592a7.242 7.242 0 0 0-.05.462l-13.111 13.111a7.165 7.165 0 0 0-.462.05l-24.592 3.435a7.285 7.285 0 0 0-6.19 6.087l-3.406 21.7-39.262 2.244a6.81 6.81 0 0 0-.473.043 3.086 3.086 0 0 1-2.444-.762 3.08 3.08 0 0 1-1.029-2.031l4.949-39.754a7.24 7.24 0 0 0 .056-.857 3.09 3.09 0 0 1 .91-2.18l99.438-99.438a7.286 7.286 0 1 0-10.305-10.305l-99.438 99.438a17.565 17.565 0 0 0-5.169 11.914L.056 487.043a7.259 7.259 0 0 0-.056.859 17.683 17.683 0 0 0 19.57 17.681l40.428-2.314c.158-.009.315-.023.472-.043 6.455-.793 11.417-6.146 11.784-12.582l2.503-15.948 18.859-2.634a13.353 13.353 0 0 0 8.821-3.921l13.733-13.732a13.368 13.368 0 0 0 3.92-8.819l2.621-18.765 18.764-2.62a13.355 13.355 0 0 0 8.82-3.921l13.731-13.731a13.365 13.365 0 0 0 3.921-8.821l2.621-18.764 18.764-2.621a13.36 13.36 0 0 0 8.821-3.921l13.731-13.731a13.365 13.365 0 0 0 3.921-8.821l2.621-18.764 19.144-2.674a7.285 7.285 0 0 0 4.158-2.078l10.246-10.301c7.193 5.781 17.779 5.288 24.39-1.418l15.168-15.383c16.172 5.826 33.223 8.724 50.325 8.723 22.925 0 45.934-5.194 66.999-15.474 10.663-5.203 20.725-10.651 29.908-16.192a7.287 7.287 0 0 0-7.529-12.477c-8.814 5.318-18.494 10.557-28.77 15.572-33.559 16.376-72.532 18.492-106.924 5.806l-.598-.222-30.811-30.811-30.81-30.811a55.67 55.67 0 0 1-.222-.598c-12.686-34.392-10.57-73.365 5.806-106.925 13.096-26.837 27.082-48.516 41.57-64.436 18.434-20.255 37.2-30.525 55.778-30.525 34.571 0 75.017 19.806 108.193 52.981s52.982 73.621 52.982 108.193c0 20.93-12.967 42.004-38.541 62.636a7.286 7.286 0 1 0 9.15 11.342c29.168-23.533 43.96-48.423 43.96-73.977 0-38.351-21.402-82.649-57.25-118.497z"/><path d="M434.115 84.197c-17.25-17.249-45.317-17.249-62.566 0-17.249 17.25-17.249 45.316 0 62.565 8.625 8.625 19.954 12.937 31.283 12.937s22.658-4.313 31.283-12.937c17.25-17.25 17.25-45.316 0-62.565zm-10.304 52.261c-5.603 5.603-13.054 8.69-20.979 8.69-7.924 0-15.374-3.086-20.978-8.69-11.567-11.567-11.567-30.389 0-41.956 5.784-5.784 13.381-8.676 20.978-8.676 7.598 0 15.195 2.892 20.979 8.676 11.567 11.567 11.567 30.389 0 41.956z"/></svg>