<svg xmlns="http://www.w3.org/2000/svg" viewBox="0 0 512.001 512.001"><path d="M508.124 234.926l-105.491-91.808a7.285 7.285 0 0 0-10.276.713 7.283 7.283 0 0 0 .713 10.276l98.788 85.974h-44.894L263.327 80.263c-4.178-3.636-10.477-3.635-14.653 0L65.036 240.08H20.142l68.367-59.499.002-.002 64.487-56.122.002-.002 103-89.64 110.986 96.591a7.284 7.284 0 0 0 9.563-10.989L263.327 21.881c-4.178-3.636-10.477-3.635-14.653 0l-79.795 69.445V70.712c0-6.284-5.113-11.397-11.397-11.397H71.889c-6.284 0-11.397 5.113-11.397 11.397v21.44c0 6.284 5.113 11.397 11.397 11.397h4.556v68.22l-72.57 63.157c-3.572 3.109-4.808 7.984-3.148 12.42 1.66 4.436 5.793 7.302 10.529 7.302h49.203v129.535a7.284 7.284 0 1 0 14.568 0V250.698l45.13-39.276L256 93.198l135.844 118.224 45.13 39.276v223.761a3.825 3.825 0 0 1-3.82 3.82h-64.671V299.646h6.912c4.876 0 8.843-3.967 8.843-8.843v-34.488c0-4.876-3.967-8.843-8.843-8.843h-238.79c-4.876 0-8.843 3.967-8.843 8.843v34.488c0 4.876 3.967 8.843 8.843 8.843h6.912v178.633H78.846a3.825 3.825 0 0 1-3.82-3.82v-55.802a7.284 7.284 0 1 0-14.568 0v55.802c0 10.139 8.248 18.387 18.387 18.387h354.309c10.139 0 18.387-8.249 18.387-18.387V254.647h49.203c4.736 0 8.869-2.866 10.529-7.302 1.66-4.436.423-9.311-3.149-12.419zm-367.192-119.28l-49.92 43.445v-55.542h49.92v12.097zM75.059 88.982v-15.1h79.252v15.1H75.059zm278.858 389.297H158.084v-24.073h195.833v24.073zm0-38.64H158.084v-24.073h195.833v24.073zm0-38.64H158.084v-24.073h195.833v24.073zm0-38.64H158.084v-24.073h195.833v24.073zm-195.833-38.64v-24.073h195.832v24.073H158.084zm203.116-38.64H142.329V262.04h227.342v23.039H361.2z"/></svg>