<svg xmlns="http://www.w3.org/2000/svg" viewBox="0 0 512 512"><path d="M256 59.733l-51.2 51.2h17.067c9.426 0 17.067 7.641 17.067 17.067v68.267h34.133V128c0-9.426 7.641-17.067 17.067-17.067H307.2l-51.2-51.2z"/><path d="M503.979 263.339L372.31 180.822A125.876 125.876 0 0 0 384 128C384 57.308 326.692 0 256 0S128 57.308 128 128a125.854 125.854 0 0 0 11.691 52.821L8.021 263.339A17.068 17.068 0 0 0 0 277.76v20.907c0 9.426 7.641 17.067 17.067 17.067H25.6v179.2c0 9.426 7.641 17.067 17.067 17.067h17.067c9.426 0 17.067-7.641 17.067-17.067V460.8h34.133a8.533 8.533 0 0 0 0-17.066H76.8v-17.067h34.133c4.713 0 8.533-3.82 8.533-8.533s-3.82-8.533-8.533-8.533H76.8v-17.067h34.133c4.713 0 8.533-3.82 8.533-8.533s-3.82-8.533-8.533-8.533H76.8V358.4h34.133c4.713 0 8.533-3.82 8.533-8.533s-3.82-8.533-8.533-8.533H76.8v-17.067h34.133c4.713 0 8.533-3.82 8.533-8.533s-3.82-8.533-8.533-8.533H76.8v-17.067h358.4V307.2H145.067c-4.713 0-8.533 3.82-8.533 8.533s3.82 8.533 8.533 8.533H435.2v17.067H145.067c-4.713 0-8.533 3.82-8.533 8.533s3.82 8.533 8.533 8.533H435.2v17.067H145.067c-4.713 0-8.533 3.82-8.533 8.533s3.82 8.533 8.533 8.533H435.2V409.6H145.067c-4.713 0-8.533 3.82-8.533 8.533s3.82 8.533 8.533 8.533H435.2v17.067H145.067a8.533 8.533 0 0 0 0 17.066H435.2v34.133c0 9.426 7.641 17.067 17.067 17.067h17.067c9.426 0 17.067-7.641 17.067-17.067v-179.2h8.533c9.426 0 17.067-7.641 17.067-17.067V277.76a17.071 17.071 0 0 0-8.022-14.421zM322.987 117.504A17.069 17.069 0 0 1 307.2 128h-17.067v68.267c0 9.426-7.641 17.067-17.067 17.067h-34.133c-9.426 0-17.067-7.641-17.067-17.067V128H204.8c-9.426-.04-17.034-7.713-16.995-17.138a17.067 17.067 0 0 1 4.963-11.96l51.2-51.2c6.661-6.669 17.467-6.675 24.136-.013l.013.013 51.2 51.2a17.066 17.066 0 0 1 3.67 18.602z"/></svg>