<svg xmlns="http://www.w3.org/2000/svg" viewBox="0 0 512 512"><path d="M307.2 110.933H204.8a8.533 8.533 0 0 0-8.533 8.533v51.2a8.533 8.533 0 0 0 8.533 8.533h102.4a8.533 8.533 0 0 0 8.533-8.533v-51.2a8.533 8.533 0 0 0-8.533-8.533zm-42.667 34.134v8.533a8.533 8.533 0 0 1-17.066 0v-8.533c-4.713 0-8.533-3.82-8.533-8.533s3.82-8.533 8.533-8.533h17.067a8.533 8.533 0 0 1-.001 17.066z"/><path d="M503.979 263.339L372.31 180.822A125.876 125.876 0 0 0 384 128C384 57.308 326.692 0 256 0S128 57.308 128 128a125.854 125.854 0 0 0 11.691 52.821L8.021 263.339A17.068 17.068 0 0 0 0 277.76v20.907c0 9.426 7.641 17.067 17.067 17.067H25.6v179.2c0 9.426 7.641 17.067 17.067 17.067h17.067c9.426 0 17.067-7.641 17.067-17.067V460.8h34.133a8.533 8.533 0 0 0 0-17.066H76.8v-17.067h34.133c4.713 0 8.533-3.82 8.533-8.533s-3.82-8.533-8.533-8.533H76.8v-17.067h34.133c4.713 0 8.533-3.82 8.533-8.533s-3.82-8.533-8.533-8.533H76.8V358.4h34.133c4.713 0 8.533-3.82 8.533-8.533s-3.82-8.533-8.533-8.533H76.8v-17.067h34.133c4.713 0 8.533-3.82 8.533-8.533s-3.82-8.533-8.533-8.533H76.8v-17.067h358.4V307.2H145.067c-4.713 0-8.533 3.82-8.533 8.533s3.82 8.533 8.533 8.533H435.2v17.067H145.067c-4.713 0-8.533 3.82-8.533 8.533s3.82 8.533 8.533 8.533H435.2v17.067H145.067c-4.713 0-8.533 3.82-8.533 8.533s3.82 8.533 8.533 8.533H435.2V409.6H145.067c-4.713 0-8.533 3.82-8.533 8.533s3.82 8.533 8.533 8.533H435.2v17.067H145.067a8.533 8.533 0 0 0 0 17.066H435.2v34.133c0 9.426 7.641 17.067 17.067 17.067h17.067c9.426 0 17.067-7.641 17.067-17.067v-179.2h8.533c9.426 0 17.067-7.641 17.067-17.067V277.76a17.071 17.071 0 0 0-8.022-14.421zM332.8 170.667c0 14.138-11.461 25.6-25.6 25.6H204.8c-14.138 0-25.6-11.461-25.6-25.6v-51.2c0-14.138 11.461-25.6 25.6-25.6h8.533v-8.533c-.012-23.564 19.081-42.676 42.645-42.688a42.667 42.667 0 0 1 28.267 10.688 8.533 8.533 0 1 1-11.178 12.8c-10.538-9.426-26.722-8.524-36.148 2.014a25.6 25.6 0 0 0-6.519 17.186v8.533h76.8c14.138 0 25.6 11.461 25.6 25.6v51.2z"/></svg>