<svg xmlns="http://www.w3.org/2000/svg" viewBox="0 0 512 512"><path d="M290.133 145.067c-9.426 0-17.067-7.641-17.067-17.067V59.733h-34.133V128c0 9.426-7.641 17.067-17.067 17.067H204.8l51.2 51.2 51.2-51.2h-17.067z"/><path d="M503.979 263.339L372.31 180.822A125.876 125.876 0 0 0 384 128C384 57.308 326.692 0 256 0S128 57.308 128 128a125.854 125.854 0 0 0 11.691 52.821L8.021 263.339A17.068 17.068 0 0 0 0 277.76v20.907c0 9.426 7.641 17.067 17.067 17.067H25.6v179.2c0 9.426 7.641 17.067 17.067 17.067h17.067c9.426 0 17.067-7.641 17.067-17.067V358.4h34.133c4.713 0 8.533-3.82 8.533-8.533s-3.82-8.533-8.533-8.533H76.8v-17.067h34.133c4.713 0 8.533-3.82 8.533-8.533s-3.82-8.533-8.533-8.533H76.8v-17.067h358.4V307.2H145.067c-4.713 0-8.533 3.82-8.533 8.533s3.82 8.533 8.533 8.533H435.2v17.067H145.067c-4.713 0-8.533 3.82-8.533 8.533s3.82 8.533 8.533 8.533H435.2v136.533c0 9.426 7.641 17.067 17.067 17.067h17.067c9.426 0 17.067-7.641 17.067-17.067v-179.2h8.533c9.426 0 17.067-7.641 17.067-17.067V277.76a17.071 17.071 0 0 0-8.022-14.421zm-184.747-106.24l-51.2 51.2c-6.661 6.669-17.467 6.675-24.136.013l-.013-.013-51.2-51.2c-6.645-6.685-6.613-17.491.072-24.136A17.07 17.07 0 0 1 204.801 128h17.067V59.733c0-9.426 7.641-17.067 17.067-17.067h34.133c9.426 0 17.067 7.641 17.067 17.067V128H307.2c9.426.04 17.034 7.713 16.995 17.138a17.07 17.07 0 0 1-4.963 11.961z"/></svg>