<svg xmlns="http://www.w3.org/2000/svg" viewBox="0 0 512 512"><path d="M384.066 59.733c-14.138 0-25.6 11.461-25.6 25.6v8.533h51.2v-8.534c0-14.137-11.462-25.599-25.6-25.599z"/><path d="M484.451 48.759A127.999 127.999 0 0 0 384.066 0c-60.732.225-113.015 42.935-125.355 102.4H128.066c-14.138 0-25.6 11.461-25.6 25.6v128H27.117C12.585 255.618.485 267.069.066 281.6a24.32 24.32 0 0 0 8.533 18.261 27.311 27.311 0 0 0 18.517 7.339h75.349v179.2c0 14.138 11.461 25.6 25.6 25.6h187.733c14.138 0 25.6-11.461 25.6-25.6V248.576a127.404 127.404 0 0 0 121.771-20.053c55.518-43.764 65.046-124.247 21.282-179.764zm-313.718 87.774h59.733c4.713 0 8.533 3.82 8.533 8.533s-3.82 8.533-8.533 8.533h-59.733a8.533 8.533 0 0 1 0-17.066zm-34.134 8.534a8.513 8.513 0 0 1 .683-3.243 7.767 7.767 0 0 1 4.608-4.608 8.534 8.534 0 0 1 9.301 1.792 9.914 9.914 0 0 1 1.792 2.816 8.55 8.55 0 0 1 .683 3.243 11.86 11.86 0 0 1 0 1.707 5.556 5.556 0 0 1-.512 1.536 6.494 6.494 0 0 1-.768 1.536c-.315.447-.657.874-1.024 1.28l-1.28 1.024a6.494 6.494 0 0 1-1.536.768l-1.707.683h-1.707a8.513 8.513 0 0 1-3.243-.683 9.914 9.914 0 0 1-2.816-1.792 13.538 13.538 0 0 1-1.024-1.28 6.494 6.494 0 0 1-.768-1.536 5.374 5.374 0 0 1-.683-1.536 11.443 11.443 0 0 1 .001-1.707zM27.117 290.133a10.496 10.496 0 0 1-7.339-2.816 7.591 7.591 0 0 1-2.645-5.717 9.47 9.47 0 0 1 9.984-8.533h184.832c2.72-.056 5.354.954 7.339 2.816a7.591 7.591 0 0 1 2.645 5.717 9.47 9.47 0 0 1-9.984 8.533H27.117zm227.865 119.356a34.132 34.132 0 0 1-24.516 24.516v35.328c0 4.713-3.82 8.533-8.533 8.533s-8.533-3.82-8.533-8.533v-35.328c-18.253-4.713-29.229-23.33-24.516-41.583 4.713-18.253 23.33-29.229 41.583-24.516 18.252 4.713 29.228 23.331 24.515 41.583zM221.933 332.8a50.691 50.691 0 0 1-44.203-25.6h34.133c14.556.43 26.705-11.021 27.135-25.578l.001-.022a24.32 24.32 0 0 0-8.533-18.261A27.311 27.311 0 0 0 211.949 256h-34.133a50.689 50.689 0 0 1 44.117-25.6c28.277 0 51.2 22.923 51.2 51.2 0 28.277-22.923 51.2-51.2 51.2zm238.933-162.133c0 14.138-11.462 25.6-25.6 25.6h-102.4c-14.138 0-25.6-11.461-25.6-25.6v-51.2c0-14.138 11.462-25.6 25.6-25.6h8.533v-8.533c0-23.564 19.102-42.667 42.667-42.667 23.564 0 42.667 19.102 42.667 42.667v8.533h8.533c14.138 0 25.6 11.461 25.6 25.6v51.2z"/><path d="M435.266 110.933h-102.4a8.533 8.533 0 0 0-8.533 8.533v51.2a8.533 8.533 0 0 0 8.533 8.533h102.4a8.533 8.533 0 0 0 8.533-8.533v-51.2a8.533 8.533 0 0 0-8.533-8.533zm-42.667 34.134v8.533a8.533 8.533 0 0 1-17.066 0v-8.533c-4.713 0-8.533-3.82-8.533-8.533s3.82-8.533 8.533-8.533H392.6a8.533 8.533 0 0 1-.001 17.066z"/><circle cx="221.933" cy="401.067" r="17.067"/></svg>