<?xml version="1.0" encoding="UTF-8" standalone="no"?>
<!DOCTYPE svg PUBLIC "-//W3C//DTD SVG 1.1//EN" "http://www.w3.org/Graphics/SVG/1.1/DTD/svg11.dtd">
<svg width="100%" height="100%" viewBox="0 0 256 256" version="1.1" xmlns="http://www.w3.org/2000/svg" xmlns:xlink="http://www.w3.org/1999/xlink" xml:space="preserve" xmlns:serif="http://www.serif.com/" style="fill-rule:evenodd;clip-rule:evenodd;stroke-linejoin:round;stroke-miterlimit:1.41421;">
    <g transform="matrix(3.01176,0,0,2.48544,-75.2941,-17.3981)">
        <rect x="25" y="7" width="85" height="103" style="fill:rgb(202,202,202);"/>
    </g>
    <g transform="matrix(4.58333,0,0,4.58333,125,120)">
        <g transform="matrix(1,0,0,1,-12,-12)">
            <clipPath id="_clip1">
                <rect x="0" y="0" width="24" height="24"/>
            </clipPath>
            <g clip-path="url(#_clip1)">
                <rect x="0" y="0" width="24" height="24" style="fill:none;"/>
                <path d="M2,6L0,6L0,11L0.01,11L0,20C0,21.1 0.9,22 2,22L20,22L20,20L2,20L2,6ZM22,4L14,4L12,2L6,2C4.9,2 4.01,2.9 4.01,4L4,16C4,17.1 4.9,18 6,18L22,18C23.1,18 24,17.1 24,16L24,6C24,4.9 23.1,4 22,4ZM7,15L11.5,9L15,13.51L17.5,10.5L21,15L7,15Z" style="fill:rgb(134,134,134);fill-rule:nonzero;stroke:rgb(136,136,136);stroke-width:1px;"/>
            </g>
        </g>
    </g>
    <path d="M60,180L190,60" style="fill:none;stroke:rgb(126,120,120);stroke-width:5px;stroke-linecap:round;stroke-miterlimit:1.5;"/>
</svg>
