<svg xmlns="http://www.w3.org/2000/svg" viewBox="0 0 512.284 512.284"><path d="M436.196 297.842l-112.64-75.008a8.531 8.531 0 0 0-9.216 0c-35.781 21.637-80.613 21.637-116.395 0a8.535 8.535 0 0 0-9.216 0L76.003 297.842a17.067 17.067 0 0 0-7.595 14.251v12.459c0 9.426 7.641 17.067 17.067 17.067v153.6c0 9.426 7.641 17.067 17.067 17.067h17.067c9.426 0 17.067-7.641 17.067-17.067v-102.4h59.733v102.4c0 9.426 7.641 17.067 17.067 17.067h196.267c9.426 0 17.067-7.641 17.067-17.067v-153.6c9.426 0 17.067-7.641 17.067-17.067v-12.459a17.07 17.07 0 0 0-7.681-14.251zm-9.387 26.709c-9.426 0-17.067 7.641-17.067 17.067v153.6H213.475v-102.4c0-9.426-7.641-17.067-17.067-17.067h-59.733c-9.426 0-17.067 7.641-17.067 17.067v102.4h-17.067v-153.6c0-9.426-7.641-17.067-17.067-17.067v-12.544l108.203-72.021a129.793 129.793 0 0 0 124.928 0l108.203 72.107v12.458z"/><path d="M134.201 327.026a9.8 9.8 0 0 0-2.816-1.792 8.534 8.534 0 0 0-9.301 1.792 8.534 8.534 0 0 0-2.475 6.059 8.533 8.533 0 0 0 2.475 6.059 9.8 9.8 0 0 0 2.816 1.792 8.55 8.55 0 0 0 3.243.683 8.533 8.533 0 0 0 6.059-2.475 9.972 9.972 0 0 0 1.792-2.816 7.163 7.163 0 0 0 .683-3.243 8.97 8.97 0 0 0-2.476-6.059zM367.075 324.551H153.742a8.533 8.533 0 0 0 0 17.066h213.333a8.533 8.533 0 0 0 8.533-8.533 8.532 8.532 0 0 0-8.533-8.533zM335.246 27.375c-55.577-43.688-136.047-34.05-179.735 21.527-43.688 55.577-34.05 136.047 21.527 179.735a132.35 132.35 0 0 0 11.861 8.533 127.231 127.231 0 0 0 67.243 19.115 127.145 127.145 0 0 0 67.243-19.115 131.134 131.134 0 0 0 11.861-8.533 128.019 128.019 0 0 0 21.527-21.527c43.688-55.577 34.05-136.047-21.527-179.735zM324.409 215.41c-36.442 28.496-86.741 31.387-126.208 7.253a114.703 114.703 0 0 1-10.325-7.253 110.932 110.932 0 0 1-42.265-86.725c-.221-61.266 49.265-111.112 110.532-111.334a110.932 110.932 0 0 1 86.725 42.265c37.923 48.118 29.659 117.869-18.459 155.794z"/><path d="M337.892 89.628a48.382 48.382 0 0 0-25.6-25.6 48.13 48.13 0 0 0-37.376 0 46.587 46.587 0 0 0-15.275 10.325 40.37 40.37 0 0 0-3.413 3.84 40.605 40.605 0 0 0-3.328-3.755 46.587 46.587 0 0 0-15.275-10.325 48.13 48.13 0 0 0-37.376 0 46.69 46.69 0 0 0-15.275 10.325 48.3 48.3 0 0 0-10.325 52.907l.427.939 1.28 1.792a9.065 9.065 0 0 0 1.024 1.451l69.12 77.739a12.885 12.885 0 0 0 9.643 4.352 12.972 12.972 0 0 0 9.643-3.925l69.12-77.739a9.065 9.065 0 0 0 1.024-1.451l1.28-2.219.683-1.109a48.39 48.39 0 0 0-.001-37.547zm-15.702 30.123l-66.048 74.667-65.451-73.557-.597-1.109a31.051 31.051 0 0 1-2.219-11.52 30.63 30.63 0 0 1 2.133-12.117 30.056 30.056 0 0 1 6.656-9.899 29.777 29.777 0 0 1 9.813-6.656 30.637 30.637 0 0 1 24.064 0 29.69 29.69 0 0 1 10.24 6.656 41.905 41.905 0 0 1 7.509 11.691 8.534 8.534 0 0 0 15.787 0 41.897 41.897 0 0 1 7.595-11.776 29.685 29.685 0 0 1 9.813-6.656 30.637 30.637 0 0 1 24.064 0 29.79 29.79 0 0 1 9.813 6.741 30.128 30.128 0 0 1 6.656 9.899 30.548 30.548 0 0 1 2.389 12.117 31.008 31.008 0 0 1-2.217 11.519z"/></svg>