<svg xmlns="http://www.w3.org/2000/svg" viewBox="0 0 510.809 510.809"><path d="M435.458 296.367l-170.667-113.75a17.065 17.065 0 0 0-18.859 0L75.266 296.367a17.067 17.067 0 0 0-7.595 14.251v12.459c0 9.426 7.641 17.067 17.067 17.067v153.6c0 9.426 7.641 17.067 17.067 17.067h17.067c9.426 0 17.067-7.641 17.067-17.067v-102.4h59.733v102.4c0 9.426 7.641 17.067 17.067 17.067h196.267c9.426 0 17.067-7.641 17.067-17.067v-153.6c9.426 0 17.067-7.641 17.067-17.067v-12.459a17.073 17.073 0 0 0-7.682-14.251zm-9.387 26.709c-9.426 0-17.067 7.641-17.067 17.067v153.6H212.738v-102.4c0-9.426-7.641-17.067-17.067-17.067h-59.733c-9.426 0-17.067 7.641-17.067 17.067v102.4h-17.067v-153.6c0-9.426-7.641-17.067-17.067-17.067v-12.544l158.379-105.216 12.288-8.533 170.667 113.835v12.458z"/><path d="M135.255 328.196a9.914 9.914 0 0 0-1.792-2.816l-1.28-1.024a6.494 6.494 0 0 0-1.536-.768 5.375 5.375 0 0 0-1.536-.512 7.593 7.593 0 0 0-3.413 0 5.374 5.374 0 0 0-1.536.683l-1.536.768-1.28 1.024a8.534 8.534 0 0 0 6.059 14.592h1.707l1.536-.853a6.494 6.494 0 0 0 1.536-.768l1.28-1.024a8.539 8.539 0 0 0 1.792-2.816 8.026 8.026 0 0 0-.001-6.486zM366.338 323.076H153.005a8.533 8.533 0 0 0 0 17.066h213.333a8.533 8.533 0 0 0 0-17.066zM281.005 71.599c-18.851-14.138-45.595-10.318-59.733 8.533s-10.318 45.595 8.533 59.733v58.112a8.534 8.534 0 0 0 13.312 7.339l12.288-8.533 12.288 8.277a8.544 8.544 0 0 0 4.779 1.451 8.533 8.533 0 0 0 8.533-8.533v-58.112a42.668 42.668 0 0 0 8.533-8.533c14.139-18.852 10.318-45.596-8.533-59.734zm-12.8 56.405a8.535 8.535 0 0 0-4.267 7.339v46.677a17.066 17.066 0 0 0-17.067 0v-46.677a8.533 8.533 0 0 0-4.267-7.424 25.6 25.6 0 0 1-12.8-22.016c0-14.138 11.461-25.6 25.6-25.6s25.6 11.461 25.6 25.6a25.599 25.599 0 0 1-12.799 22.101zM133.378 189.103c-48.249-48.364-48.249-126.655 0-175.019a8.533 8.533 0 0 0-12.032-12.032c-54.866 55.02-54.866 144.062 0 199.083a8.534 8.534 0 0 0 6.059 2.475 8.533 8.533 0 0 0 5.973-14.507zM151.81 179.46l-.044-.002-.042.002h.086z"/><path d="M157.783 164.868c-34.948-35.011-34.948-91.709 0-126.72a8.533 8.533 0 0 0-12.032-12.032c-41.622 41.678-41.622 109.192 0 150.869a8.535 8.535 0 0 0 6.015 2.473 8.533 8.533 0 0 0 6.017-14.59z"/><path d="M182.018 62.297a8.569 8.569 0 1 0-12.075-12.16c-28.371 28.348-28.39 74.327-.042 102.698a8.534 8.534 0 0 0 6.059 2.475 8.533 8.533 0 0 0 6.058-14.592c-21.6-21.677-21.6-56.742 0-78.421zM389.122 1.967a8.535 8.535 0 0 0-11.776 12.032c48.249 48.364 48.249 126.655 0 175.019a8.534 8.534 0 0 0 6.059 14.592 8.536 8.536 0 0 0 5.717-2.56c54.866-55.021 54.866-144.063 0-199.083z"/><path d="M365.058 26.116a8.54 8.54 0 0 0-12.118 12.032c34.948 35.011 34.948 91.709 0 126.72a8.534 8.534 0 0 0 6.059 14.592 8.533 8.533 0 0 0 6.059-2.475c41.622-41.677 41.622-109.191 0-150.869z"/><path d="M340.738 50.009a8.568 8.568 0 0 0-12.117.171 8.568 8.568 0 0 0 .171 12.117c21.601 21.678 21.601 56.743 0 78.421a8.534 8.534 0 0 0 6.059 14.592 8.533 8.533 0 0 0 5.888-2.901c28.16-28.325 28.16-74.075-.001-102.4z"/></svg>