<svg xmlns="http://www.w3.org/2000/svg" viewBox="0 0 512.002 512.002"><path d="M467.9 170.741L366.427 87.477a7.286 7.286 0 1 0-9.245 11.265l92.415 75.832h-35.834a7.285 7.285 0 0 0-7.286 7.286v190.955c0 .703-.829 1.487-2.019 1.487h-84.782V232.058c0-10.286-8.368-18.655-18.654-18.655h-83.81c-10.286 0-18.654 8.368-18.654 18.655v142.243h-91.014c-1.19 0-2.019-.784-2.019-1.487V181.86a7.285 7.285 0 0 0-7.286-7.286H62.405l53.854-44.19a7.285 7.285 0 0 0 2.664-5.633V61.923h39.468v18.485a7.287 7.287 0 0 0 11.909 5.633l85.701-70.325 74.217 60.9a7.286 7.286 0 1 0 9.245-11.265L262.754 2.407c-3.913-3.209-9.594-3.209-13.508.002l-67.015 54.99a10.568 10.568 0 0 0 1.944-6.109V34.543c0-5.863-4.77-10.634-10.634-10.634h-71.927c-5.863 0-10.634 4.77-10.634 10.634V51.29c0 5.863 4.77 10.634 10.634 10.634h2.735v59.381l-60.247 49.436c-3.428 2.813-4.685 7.305-3.205 11.443 1.514 4.23 5.441 6.963 10.006 6.963h40.049v183.668c0 8.856 7.443 16.06 16.592 16.06h125.955v18.652h-7.496c-13.222 0-23.979 10.757-23.979 23.98v6.255h-66.25a7.285 7.285 0 0 0-7.286 7.286 7.285 7.285 0 0 0 7.286 7.286h66.25v23.303H69.3a.142.142 0 0 1-.142-.142v-23.019c0-.078.064-.141.142-.141h31.772a7.285 7.285 0 0 0 7.286-7.286 7.285 7.285 0 0 0-7.286-7.286H69.3c-8.114 0-14.715 6.601-14.715 14.714v23.019c0 8.114 6.601 14.715 14.715 14.715h132.829c1.11 12.2 11.391 21.79 23.875 21.79h67.441c12.483 0 22.765-9.59 23.875-21.79h131.615c8.114 0 14.714-6.602 14.714-14.715v-23.019c0-8.114-6.601-14.714-14.714-14.714H317.423v-6.255c0-13.223-10.757-23.98-23.979-23.98h-7.496v-18.652h118.51c9.149 0 16.592-7.204 16.592-16.06V189.147h40.049c4.565 0 8.491-2.733 10.006-6.963 1.48-4.139.222-8.629-3.205-11.443zM172.963 61.923h.578c1.523 0 2.97-.328 4.281-.907l-4.859 3.987v-3.08zm-67.41-23.441h64.049v8.868H105.553v-8.868zm211.871 413.852h131.51c.078 0 .141.064.141.141v23.019a.142.142 0 0 1-.141.142h-131.51v-23.302zm-23.98-30.235c5.187.001 9.406 4.221 9.406 9.408v56.514c0 5.187-4.219 9.407-9.406 9.407h-67.441c-5.187 0-9.406-4.22-9.406-9.407v-56.515c0-5.187 4.219-9.407 9.406-9.407h67.441zm-45.372-14.573v-18.652h23.303v18.652h-23.303zm57.031-33.225h-91.972V232.058c0-2.25 1.83-4.082 4.081-4.082h83.81a4.086 4.086 0 0 1 4.081 4.082v142.243z"/></svg>