<svg xmlns="http://www.w3.org/2000/svg" viewBox="0 0 511.999 511.999"><path d="M147.448 300.379l11.257-11.258a7.287 7.287 0 0 0-10.305-10.304l-11.257 11.257-11.257-11.257a7.286 7.286 0 1 0-10.305 10.304l11.257 11.258-11.257 11.258a7.285 7.285 0 0 0 5.151 12.438c1.865 0 3.73-.712 5.153-2.134l11.257-11.257 11.257 11.257a7.262 7.262 0 0 0 5.153 2.134 7.287 7.287 0 0 0 5.153-12.438l-11.257-11.258zM224.571 300.379l11.258-11.258a7.287 7.287 0 0 0-10.305-10.304l-11.257 11.257-11.257-11.257a7.287 7.287 0 0 0-10.305 10.304l11.258 11.258-11.258 11.258a7.285 7.285 0 0 0 5.151 12.438 7.27 7.27 0 0 0 5.153-2.134l11.257-11.257 11.257 11.257c1.423 1.423 3.288 2.134 5.153 2.134s3.73-.712 5.153-2.134a7.287 7.287 0 0 0 0-10.304l-11.258-11.258z"/><path d="M508.123 227.632L384.202 119.785a7.286 7.286 0 1 0-9.567 10.993l117.213 102.009h-47.593a7.285 7.285 0 0 0-7.286 7.286v241.674a3.821 3.821 0 0 1-3.818 3.817H78.848a3.822 3.822 0 0 1-3.818-3.817V359.944a7.286 7.286 0 1 0-14.572 0v121.803c0 10.14 8.25 18.389 18.39 18.389h354.304c10.14 0 18.39-8.249 18.39-18.389V247.36h49.199c4.737 0 8.871-2.867 10.531-7.303 1.66-4.436.425-9.314-3.149-12.425z"/><path d="M151.987 364.219h-29.691c-6.955 0-12.614 5.658-12.614 12.613v29.691c0 6.955 5.658 12.613 12.614 12.613h29.691c6.955 0 12.614-5.658 12.614-12.613v-29.691c0-6.955-5.658-12.613-12.614-12.613zm-1.959 40.345h-25.773v-25.772h25.773v25.772zM383.36 364.219h-29.691c-6.955 0-12.614 5.658-12.614 12.613v29.691c0 6.955 5.658 12.613 12.614 12.613h29.691c6.955 0 12.614-5.658 12.614-12.613v-29.691c0-6.955-5.658-12.613-12.614-12.613zm-1.959 40.345h-25.773v-25.772h25.773v25.772zM306.236 364.219h-29.691c-6.955 0-12.614 5.658-12.614 12.613v29.691c0 6.955 5.658 12.613 12.614 12.613h29.691c6.955 0 12.614-5.658 12.614-12.613v-29.691c0-6.955-5.658-12.613-12.614-12.613zm-1.96 40.345h-25.773v-25.772h25.773v25.772zM229.111 364.219H199.42c-6.955 0-12.614 5.658-12.614 12.613v29.691c0 6.955 5.658 12.613 12.614 12.613h29.691c6.955 0 12.614-5.658 12.614-12.613v-29.691c0-6.955-5.658-12.613-12.614-12.613zm-1.959 40.345h-25.773v-25.772h25.773v25.772zM410.588 252.983H95.068c-5.417 0-9.825 4.408-9.825 9.826v75.139c0 5.418 4.408 9.826 9.825 9.826h315.52c5.417 0 9.825-4.408 9.825-9.826v-75.139c0-5.418-4.408-9.826-9.825-9.826zm-4.748 80.218H99.815v-65.645H405.84v65.645z"/><path d="M358.039 97.014l-94.71-82.424c-4.179-3.637-10.48-3.635-14.657 0l-80.675 70.211c.569-1.355.886-2.842.886-4.402v-21.44c0-6.286-5.114-11.4-11.4-11.4H71.891c-6.286 0-11.4 5.114-11.4 11.4v21.44c0 6.286 5.114 11.4 11.4 11.4h4.553v72.679L3.877 227.632c-3.574 3.11-4.809 7.987-3.149 12.424 1.66 4.437 5.794 7.303 10.531 7.303h49.199v77.934a7.286 7.286 0 1 0 14.572 0v-85.22a7.286 7.286 0 0 0-7.286-7.286H20.151l68.363-59.495a7.287 7.287 0 0 0 2.503-5.497V91.798h49.914v19.875A7.287 7.287 0 0 0 153 117.169L256 27.53l92.471 80.477a7.287 7.287 0 0 0 9.568-10.993zM154.31 77.226H75.064V62.132h79.246v15.094zM388.687 309.503h-35.433a7.286 7.286 0 1 0 0 14.572h35.433a7.286 7.286 0 1 0 0-14.572zM309.107 309.503h-35.433a7.285 7.285 0 0 0-7.286 7.286 7.285 7.285 0 0 0 7.286 7.286h35.433a7.286 7.286 0 1 0 0-14.572z"/></svg>