<svg xmlns="http://www.w3.org/2000/svg" viewBox="0 0 511.999 511.999"><path d="M358.039 97.015l-94.71-82.425c-4.177-3.635-10.479-3.637-14.658 0l-93.168 81.083V84.598h1.979c6.286 0 11.4-5.114 11.4-11.4v-21.44c0-6.286-5.114-11.4-11.4-11.4H71.891c-6.286 0-11.4 5.114-11.4 11.4v21.44c0 6.286 5.114 11.4 11.4 11.4h4.553v79.88L3.876 227.633c-3.573 3.11-4.809 7.987-3.148 12.424 1.66 4.437 5.794 7.303 10.532 7.303h49.199v77.933h-.001a7.286 7.286 0 1 0 14.572 0v-85.22a7.286 7.286 0 0 0-7.286-7.286H20.152l68.363-59.495a7.287 7.287 0 0 0 2.503-5.497V84.598h49.913v27.076A7.287 7.287 0 0 0 153 117.17l103-89.639 92.471 80.477a7.285 7.285 0 0 0 10.28-.713 7.287 7.287 0 0 0-.712-10.28zm-203.73-26.99H75.064V54.93h79.245v15.095zM508.123 227.632l-123.92-107.847a7.286 7.286 0 1 0-9.567 10.993l117.212 102.009h-47.593a7.285 7.285 0 0 0-7.286 7.286v241.674a3.82 3.82 0 0 1-3.817 3.817H78.848a3.82 3.82 0 0 1-3.817-3.817V359.944a7.286 7.286 0 1 0-14.572 0v121.803c0 10.14 8.249 18.389 18.389 18.389h354.304c10.14 0 18.389-8.249 18.389-18.389V247.36h49.199c4.738 0 8.872-2.867 10.532-7.304 1.66-4.437.424-9.314-3.149-12.424z"/><path d="M341.652 182.983c-.759 0-1.524.073-2.273.215l-154.454 29.447a12.097 12.097 0 0 0-9.823 11.872v165.636a61.187 61.187 0 0 0-3.563-.104c-24.209 0-43.173 13.842-43.173 31.513s18.964 31.513 43.173 31.513 43.173-13.842 43.173-31.513c0-1.074-.079-2.176-.234-3.285V268.024l99.874-19.232v87.604a59.94 59.94 0 0 0-3.797-.12c-24.209 0-43.174 13.842-43.174 31.513 0 17.67 18.964 31.513 43.174 31.513s43.173-13.842 43.173-31.513V195.07c0-6.664-5.417-12.087-12.076-12.087zm-2.496 184.807c0 9.024-13.364 16.94-28.6 16.94s-28.601-7.916-28.601-16.94 13.365-16.94 28.601-16.94c3.248 0 6.451.342 9.523 1.015a7.286 7.286 0 0 0 8.846-7.118V245.78c-.001-6.665-5.418-12.087-12.075-12.087-.768 0-1.54.074-2.296.22l-104.849 20.19a12.102 12.102 0 0 0-9.8 11.867v152.857c0 .401.033.801.099 1.196.091.546.135 1.049.135 1.538 0 9.024-13.364 16.94-28.6 16.94s-28.6-7.916-28.6-16.94c0-9.024 13.364-16.94 28.6-16.94 3.184 0 6.321.326 9.326.969a7.287 7.287 0 0 0 8.811-7.125V226.576l149.48-28.499V367.79z"/></svg>