<svg xmlns="http://www.w3.org/2000/svg" viewBox="0 0 512 512"><path d="M256 163.102c-12.862 0-23.325 10.464-23.325 23.325v134.206c0 12.861 10.464 23.325 23.325 23.325 12.862 0 23.325-10.463 23.325-23.325V186.427c0-12.861-10.464-23.325-23.325-23.325zm8.753 157.531c0 4.826-3.926 8.752-8.753 8.752-4.826 0-8.753-3.926-8.753-8.752V186.427c0-4.826 3.926-8.752 8.753-8.752 4.826 0 8.753 3.926 8.753 8.752v134.206z"/><path d="M363.414 256.837c-10.297-18.003-25.088-33.26-42.774-44.121a23.291 23.291 0 0 0-12.19-3.45c-8.179 0-15.615 4.157-19.892 11.121a23.174 23.174 0 0 0-2.809 17.63 23.174 23.174 0 0 0 10.48 14.452c23.038 14.147 36.792 38.703 36.792 65.687 0 42.468-34.55 77.018-77.018 77.018s-77.018-34.55-77.018-77.018c-.003-26.984 13.751-51.54 36.789-65.687 10.959-6.73 14.4-21.122 7.671-32.083-4.277-6.964-11.713-11.121-19.892-11.121a23.29 23.29 0 0 0-12.19 3.451 124.426 124.426 0 0 0-42.774 44.121c-10.635 18.593-16.256 39.797-16.256 61.319 0 68.191 55.478 123.668 123.669 123.668s123.669-55.477 123.669-123.668c0-21.524-5.621-42.728-16.257-61.319zM256.001 427.251c-60.156 0-109.096-48.94-109.096-109.095 0-18.989 4.956-37.69 14.333-54.084a109.804 109.804 0 0 1 37.75-38.938 8.723 8.723 0 0 1 4.564-1.296 8.71 8.71 0 0 1 7.474 4.174c2.525 4.113 1.234 9.514-2.878 12.039-27.388 16.818-43.739 46.016-43.739 78.105 0 50.503 41.087 91.59 91.591 91.59 50.504 0 91.591-41.087 91.591-91.59 0-32.089-16.351-61.287-43.739-78.105-1.992-1.223-3.388-3.149-3.932-5.423s-.169-4.623 1.054-6.616a8.708 8.708 0 0 1 7.474-4.174c1.605 0 3.184.448 4.565 1.296 15.609 9.586 28.663 23.05 37.75 38.938 9.377 16.392 14.334 35.094 14.334 54.084 0 60.156-48.94 109.095-109.096 109.095z"/><path d="M358.038 97.015l-94.71-82.425c-4.178-3.636-10.479-3.636-14.657 0l-93.168 81.083V84.597h1.979c6.286 0 11.4-5.114 11.4-11.4v-21.44c0-6.286-5.114-11.4-11.4-11.4H71.891c-6.286 0-11.4 5.114-11.4 11.4v21.44c0 6.286 5.114 11.4 11.4 11.4h4.553v79.88L3.876 227.632c-3.573 3.11-4.809 7.987-3.148 12.424 1.66 4.437 5.794 7.303 10.532 7.303h49.199v77.934h-.001a7.286 7.286 0 1 0 14.572 0v-85.22a7.286 7.286 0 0 0-7.286-7.286H20.152l68.363-59.495a7.287 7.287 0 0 0 2.503-5.497V84.597h49.913v27.076A7.287 7.287 0 0 0 153 117.169l103-89.638 92.471 80.477a7.286 7.286 0 0 0 10.28-.713 7.286 7.286 0 0 0-.713-10.28zm-203.729-26.99H75.064V54.93h79.245v15.095zM508.123 227.632l-123.92-107.847a7.286 7.286 0 1 0-9.567 10.993l117.213 102.009h-47.593a7.286 7.286 0 0 0-7.286 7.286v241.674a3.82 3.82 0 0 1-3.817 3.817H78.848a3.82 3.82 0 0 1-3.817-3.817V359.944a7.286 7.286 0 1 0-14.572 0v121.803c0 10.14 8.249 18.389 18.389 18.389h354.304c10.14 0 18.389-8.249 18.389-18.389V247.36h49.199c4.738 0 8.872-2.867 10.532-7.304 1.66-4.437.425-9.314-3.149-12.424z"/></svg>