<svg xmlns="http://www.w3.org/2000/svg" viewBox="0 0 512 512"><path d="M358.038 97.016l-94.709-82.425c-4.178-3.636-10.48-3.636-14.658 0l-93.168 81.083V84.597h1.979c6.286 0 11.4-5.114 11.4-11.4v-21.44c0-6.286-5.114-11.4-11.4-11.4h-85.59c-6.286 0-11.4 5.114-11.4 11.4v21.44c0 6.286 5.114 11.4 11.4 11.4h4.553v79.88L3.878 227.633c-3.574 3.109-4.811 7.986-3.151 12.423 1.66 4.437 5.794 7.304 10.532 7.304h49.199v77.934a7.286 7.286 0 1 0 14.572 0v-85.22a7.286 7.286 0 0 0-7.286-7.286H20.152l68.363-59.495a7.287 7.287 0 0 0 2.503-5.497V84.597h49.913v27.076a7.286 7.286 0 0 0 12.07 5.496L256 27.531l92.471 80.478a7.285 7.285 0 0 0 10.28-.713 7.286 7.286 0 0 0-.713-10.28zM154.31 70.026H75.064V54.93h79.246v15.096zM508.123 227.633l-123.92-107.847a7.288 7.288 0 0 0-9.568 10.993l117.212 102.009h-47.593a7.285 7.285 0 0 0-7.286 7.286v241.674a3.82 3.82 0 0 1-3.817 3.817H78.848a3.822 3.822 0 0 1-3.817-3.817V359.944a7.286 7.286 0 1 0-14.572 0v121.803c0 10.14 8.249 18.389 18.389 18.389h354.304c10.14 0 18.389-8.249 18.389-18.389V247.36h49.199c4.738 0 8.872-2.867 10.532-7.304 1.661-4.438.424-9.315-3.149-12.423z"/><path d="M254.416 308.147c-12.136.767-21.991 10.486-22.923 22.606-.565 7.346 2.222 14.534 7.413 19.58v26.532c0 9.426 7.668 17.094 17.094 17.094 9.426 0 17.094-7.668 17.094-17.094v-26.526a24.584 24.584 0 0 0 7.487-17.661c-.001-14.078-11.899-25.438-26.165-24.531zm7.254 32.777a7.287 7.287 0 0 0-3.149 5.997v29.943a2.524 2.524 0 0 1-2.521 2.521 2.524 2.524 0 0 1-2.521-2.521v-29.943a7.288 7.288 0 0 0-3.149-5.998c-2.975-2.052-4.586-5.437-4.308-9.053.373-4.841 4.463-8.873 9.314-9.18.223-.014.444-.021.664-.021 5.519 0 10.008 4.49 10.008 10.009 0 3.289-1.622 6.372-4.338 8.246z"/><path d="M340.9 275.799h-.018v-36.201c0-46.804-38.078-84.882-84.882-84.882s-84.882 38.078-84.882 84.882v36.201h-.018c-8.688 0-15.755 7.068-15.755 15.755v118.947c0 8.688 7.067 15.755 15.755 15.755h169.8c8.688 0 15.755-7.068 15.755-15.755V291.554c0-8.688-7.067-15.755-15.755-15.755zm-155.211-36.2h.002c0-38.769 31.541-70.309 70.309-70.309s70.309 31.54 70.309 70.309V275.8h-4.537v-36.201c0-36.267-29.506-65.773-65.773-65.773-36.267 0-65.773 29.505-65.773 65.773V275.8h-4.537v-36.201zm121.511 0V275.8H204.8v-36.201c0-28.232 22.968-51.2 51.2-51.2s51.2 22.967 51.2 51.2zm34.882 170.904c0 .652-.53 1.183-1.182 1.183H171.1c-.652 0-1.182-.53-1.182-1.183V291.554c0-.652.53-1.183 1.182-1.183H340.9v.001c.652 0 1.182.53 1.182 1.183v118.948z"/></svg>