<svg xmlns="http://www.w3.org/2000/svg" viewBox="0 0 512 512"><path d="M358.038 97.015l-94.71-82.425c-4.178-3.636-10.479-3.636-14.657 0l-93.168 81.083V84.597h1.979c6.286 0 11.4-5.114 11.4-11.4v-21.44c0-6.286-5.114-11.4-11.4-11.4H71.891c-6.286 0-11.4 5.114-11.4 11.4v21.44c0 6.286 5.114 11.4 11.4 11.4h4.553v79.88L3.876 227.632c-3.573 3.11-4.809 7.987-3.148 12.424 1.66 4.437 5.794 7.303 10.532 7.303h49.199v77.934h-.001a7.286 7.286 0 1 0 14.572 0v-85.22a7.286 7.286 0 0 0-7.286-7.286H20.152l68.363-59.495a7.287 7.287 0 0 0 2.503-5.497V84.597h49.913v27.076A7.287 7.287 0 0 0 153 117.169l103-89.638 92.471 80.477a7.286 7.286 0 1 0 9.567-10.993zm-203.729-26.99H75.064V54.93h79.245v15.095zM508.123 227.632l-123.92-107.847a7.286 7.286 0 1 0-9.567 10.993l117.213 102.009h-47.593a7.286 7.286 0 0 0-7.286 7.286v241.674a3.82 3.82 0 0 1-3.817 3.817H78.848a3.82 3.82 0 0 1-3.817-3.817V359.944a7.286 7.286 0 1 0-14.572 0v121.803c0 10.14 8.249 18.389 18.389 18.389h354.304c10.14 0 18.389-8.249 18.389-18.389V247.36h49.199c4.738 0 8.872-2.867 10.532-7.304 1.66-4.437.425-9.314-3.149-12.424z"/><path d="M350.713 297.919c-25.298-25.299-58.934-39.231-94.713-39.231-35.779 0-69.415 13.933-94.713 39.231-8.701 8.701-8.701 22.859 0 31.559a22.17 22.17 0 0 0 15.779 6.536c5.96 0 11.565-2.321 15.78-6.536 16.869-16.869 39.297-26.159 63.154-26.159 23.856 0 46.285 9.29 63.154 26.158 4.214 4.215 9.819 6.537 15.78 6.537s11.565-2.321 15.779-6.536c8.701-8.701 8.701-22.859 0-31.559zm-10.304 21.256a7.691 7.691 0 0 1-5.475 2.267 7.688 7.688 0 0 1-5.475-2.268c-19.622-19.622-45.71-30.427-73.459-30.427-27.749 0-53.837 10.806-73.458 30.427a7.69 7.69 0 0 1-5.476 2.268 7.69 7.69 0 0 1-5.475-2.268 7.694 7.694 0 0 1-2.268-5.475c0-2.069.805-4.013 2.268-5.476 22.546-22.546 52.523-34.963 84.409-34.963s61.863 12.417 84.409 34.963a7.694 7.694 0 0 1 2.268 5.476 7.694 7.694 0 0 1-2.268 5.476z"/><path d="M387.674 253.655C352.503 218.484 305.74 199.114 256 199.114s-96.503 19.37-131.674 54.541c-8.701 8.701-8.701 22.859 0 31.559a22.17 22.17 0 0 0 15.779 6.536 22.174 22.174 0 0 0 15.78-6.536c26.742-26.741 62.296-41.469 100.115-41.469s73.373 14.727 100.115 41.469a22.17 22.17 0 0 0 15.78 6.536 22.162 22.162 0 0 0 15.779-6.536c8.701-8.701 8.701-22.859 0-31.559zM377.37 274.91a7.691 7.691 0 0 1-5.475 2.267 7.692 7.692 0 0 1-5.476-2.268c-29.494-29.493-68.708-45.736-110.419-45.736s-80.925 16.243-110.419 45.737a7.694 7.694 0 0 1-5.476 2.268 7.69 7.69 0 0 1-5.475-2.268c-3.019-3.019-3.019-7.931 0-10.951 32.419-32.419 75.522-50.273 121.37-50.273s88.951 17.854 121.37 50.273c3.019 3.019 3.019 7.932 0 10.951zM315.703 342.058c-15.924-15.924-37.127-24.693-59.703-24.693s-43.779 8.77-59.703 24.693c-8.7 8.701-8.7 22.859 0 31.56 4.215 4.215 9.819 6.536 15.78 6.536s11.565-2.322 15.78-6.536c7.503-7.503 17.498-11.635 28.143-11.635s20.64 4.132 28.143 11.635c4.215 4.215 9.819 6.536 15.78 6.536s11.565-2.321 15.78-6.537c8.7-8.701 8.7-22.859 0-31.559zm-10.304 21.255a7.694 7.694 0 0 1-5.476 2.268 7.694 7.694 0 0 1-5.476-2.268C284.192 353.058 270.538 347.41 256 347.41c-14.538 0-28.192 5.648-38.447 15.903a7.694 7.694 0 0 1-5.476 2.268 7.69 7.69 0 0 1-5.475-2.268c-3.019-3.019-3.019-7.932 0-10.951 13.172-13.171 30.716-20.425 49.399-20.425 18.684 0 36.227 7.254 49.398 20.425 3.019 3.019 3.019 7.932 0 10.951z"/><path d="M256 377.085c-15.714 0-28.498 12.784-28.498 28.498s12.784 28.498 28.498 28.498 28.498-12.784 28.498-28.498-12.784-28.498-28.498-28.498zm0 42.423c-7.679 0-13.926-6.247-13.926-13.925 0-7.679 6.247-13.926 13.926-13.926s13.926 6.247 13.926 13.926c0 7.678-6.247 13.925-13.926 13.925z"/></svg>