<svg xmlns="http://www.w3.org/2000/svg" viewBox="0 0 512.001 512.001"><path d="M508.125 234.926l-105.724-92.01a7.285 7.285 0 0 0-10.276.713 7.283 7.283 0 0 0 .713 10.276l99.021 86.177h-44.894L263.328 80.264c-4.177-3.635-10.476-3.636-14.654 0L65.037 240.081H20.143l68.365-59.498.003-.003 64.487-56.122.004-.004 102.999-89.638 110.573 96.231a7.283 7.283 0 0 0 10.276-.713 7.283 7.283 0 0 0-.713-10.276l-112.81-98.177c-4.177-3.635-10.476-3.636-14.654 0l-79.795 69.445V70.713c0-6.284-5.113-11.397-11.397-11.397H71.89c-6.284 0-11.397 5.113-11.397 11.397v21.44c0 6.284 5.113 11.397 11.397 11.397h4.556v68.22l-72.57 63.157c-3.573 3.109-4.808 7.984-3.149 12.42 1.66 4.436 5.793 7.302 10.529 7.302h49.203v129.412a7.284 7.284 0 1 0 14.568 0V250.699l180.974-157.5L436.975 250.7v223.761a3.825 3.825 0 0 1-3.82 3.82H324.646V294.372c0-9.679-7.874-17.553-17.553-17.553h-93.124c-9.679 0-17.553 7.874-17.553 17.553v183.907H78.847a3.825 3.825 0 0 1-3.82-3.82v-55.315a7.284 7.284 0 1 0-14.568 0v55.315c0 10.139 8.248 18.387 18.387 18.387h354.308c10.139 0 18.387-8.248 18.387-18.387V254.648h49.203c4.736 0 8.869-2.866 10.529-7.302 1.661-4.435.425-9.31-3.148-12.42zM140.933 115.647l-49.92 43.445V103.55h49.92v12.097zM75.06 88.983v-15.1h79.252v15.1H75.06zM310.079 478.28h-99.096V294.372a2.99 2.99 0 0 1 2.986-2.985h93.124a2.99 2.99 0 0 1 2.986 2.985V478.28z"/></svg>