<svg xmlns="http://www.w3.org/2000/svg" viewBox="0 0 512.199 512.199"><path d="M436.153 297.756l-102.4-68.267 1.28-.853c55.577-43.688 65.215-124.158 21.527-179.735S232.402-16.313 176.825 27.375 111.61 151.533 155.298 207.11a128.019 128.019 0 0 0 21.527 21.527l1.195.939-102.4 68.267a17.065 17.065 0 0 0-7.253 14.165v12.459c0 9.426 7.641 17.067 17.067 17.067v153.6c0 9.426 7.641 17.067 17.067 17.067h17.067c9.426 0 17.067-7.641 17.067-17.067v-102.4h59.733v102.4c0 9.426 7.641 17.067 17.067 17.067H409.7c9.426 0 17.067-7.641 17.067-17.067v-153.6c9.426 0 17.067-7.641 17.067-17.067v-12.459a17.07 17.07 0 0 0-7.681-14.252zM179.3 119.666c0-14.138 11.461-25.6 25.6-25.6h8.533v-8.533c0-23.564 19.102-42.667 42.667-42.667s42.667 19.102 42.667 42.667v8.533h8.533c14.138 0 25.6 11.461 25.6 25.6v51.2c0 14.138-11.461 25.6-25.6 25.6H204.9c-14.138 0-25.6-11.461-25.6-25.6v-51.2zm-43.349 216.576a9.972 9.972 0 0 1-1.792 2.816 8.534 8.534 0 0 1-9.301 1.792 9.8 9.8 0 0 1-2.816-1.792 8.534 8.534 0 0 1-2.475-6.059 8.958 8.958 0 0 1 2.475-6.059l1.28-1.024a6.31 6.31 0 0 1 1.536-.768 5.57 5.57 0 0 1 1.536-.683 8.531 8.531 0 0 1 7.765 2.304 8.96 8.96 0 0 1 2.475 6.229 7.193 7.193 0 0 1-.683 3.244zm231.082 5.29H153.7a8.533 8.533 0 0 1 0-17.066h213.333a8.533 8.533 0 0 1 8.533 8.533 8.532 8.532 0 0 1-8.533 8.533z"/><path d="M256.1 59.932c-14.138 0-25.6 11.461-25.6 25.6v8.533h51.2v-8.534c0-14.137-11.461-25.599-25.6-25.599zM307.3 111.132H204.9a8.533 8.533 0 0 0-8.533 8.533v51.2a8.533 8.533 0 0 0 8.533 8.533h102.4a8.533 8.533 0 0 0 8.533-8.533v-51.2a8.533 8.533 0 0 0-8.533-8.533zm-42.667 34.134v8.533a8.533 8.533 0 0 1-17.066 0v-8.533c-4.713 0-8.533-3.82-8.533-8.533s3.82-8.533 8.533-8.533h17.067a8.533 8.533 0 0 1-.001 17.066z"/></svg>