<svg xmlns="http://www.w3.org/2000/svg" viewBox="0 0 512.199 512.199"><path d="M272.668 125.03a17.069 17.069 0 0 0-4.621-8.521 17.064 17.064 0 0 0-11.947-5.376 18.355 18.355 0 0 0-3.413 0c-9.426 1.885-15.538 11.054-13.653 20.48s11.054 15.538 20.48 13.653c9.22-1.956 15.11-11.016 13.154-20.236z"/><path d="M323.774 126.924a7.426 7.426 0 0 0-4.357-4.357c-12.739-4.546-19.381-18.558-14.836-31.297a24.69 24.69 0 0 1 .926-2.239 7.424 7.424 0 0 0-9.813-9.813c-12.228 5.782-26.827.557-32.61-11.67a24.242 24.242 0 0 1-.926-2.239 7.423 7.423 0 0 0-13.909 0c-4.546 12.739-18.558 19.381-31.297 14.836a24.69 24.69 0 0 1-2.239-.926 7.423 7.423 0 0 0-9.813 9.386l2.389 5.035c4.783 10.146.436 22.248-9.71 27.031a20.299 20.299 0 0 1-7.357 1.897 7.851 7.851 0 0 0-2.389 5.632 9.816 9.816 0 0 0 2.133 6.827 18.777 18.777 0 0 1 15.531 6.741 18.773 18.773 0 0 1 2.816 20.565l-3.499 7.339a7.424 7.424 0 0 0 9.899 9.728c12.228-5.782 26.827-.557 32.61 11.67.346.731.655 1.478.926 2.239a8.533 8.533 0 0 0 7.253 3.072 7.51 7.51 0 0 0 6.912-3.584 24.148 24.148 0 0 1 13.397-13.397 24.407 24.407 0 0 1 19.883.512 7.423 7.423 0 0 0 9.813-9.898c-5.782-12.228-.557-26.827 11.67-32.61a24.242 24.242 0 0 1 2.239-.926 7.426 7.426 0 0 0 4.358-9.554zm-61.103 34.811a35.074 35.074 0 0 1-6.571.597c-18.851.023-34.152-15.241-34.174-34.092a34.132 34.132 0 0 1 .638-6.612 34.133 34.133 0 0 1 26.88-26.88c18.498-3.652 36.454 8.382 40.107 26.88 3.652 18.498-8.382 36.454-26.88 40.107z"/><path d="M436.153 297.756l-102.4-68.267 1.28-.853c55.577-43.688 65.215-124.158 21.527-179.735S232.402-16.313 176.825 27.375 111.61 151.533 155.298 207.11a128.019 128.019 0 0 0 21.527 21.527l1.195.939-102.4 68.267a17.065 17.065 0 0 0-7.253 14.165v12.459c0 9.426 7.641 17.067 17.067 17.067v153.6c0 9.426 7.641 17.067 17.067 17.067h17.067c9.426 0 17.067-7.641 17.067-17.067v-102.4h59.733v102.4c0 9.426 7.641 17.067 17.067 17.067H409.7c9.426 0 17.067-7.641 17.067-17.067v-153.6c9.426 0 17.067-7.641 17.067-17.067v-12.459a17.07 17.07 0 0 0-7.681-14.252zM170.767 127.687a23.123 23.123 0 0 1 14.251-21.589 8.539 8.539 0 0 1 3.669-.512 3.327 3.327 0 0 0 2.901-1.365 3.072 3.072 0 0 0 0-3.157l-2.389-5.12c-5.828-12.206-.657-26.825 11.549-32.653a24.492 24.492 0 0 1 21.219.055 7.425 7.425 0 0 0 10.155-4.181c4.586-12.725 18.619-19.322 31.344-14.736a24.492 24.492 0 0 1 14.736 14.736 7.423 7.423 0 0 0 10.154 4.181c12.234-5.769 26.828-.529 32.597 11.705a24.488 24.488 0 0 1 0 20.893 7.425 7.425 0 0 0 4.181 10.155c12.725 4.586 19.322 18.619 14.736 31.344a24.492 24.492 0 0 1-14.736 14.736 7.423 7.423 0 0 0-4.181 10.154c5.769 12.234.529 26.828-11.705 32.597a24.488 24.488 0 0 1-20.893 0 7.425 7.425 0 0 0-10.155 4.181 24.063 24.063 0 0 1-22.101 14.421h-.853a24.577 24.577 0 0 1-22.784-13.653 8.023 8.023 0 0 0-4.437-5.12 7.252 7.252 0 0 0-5.973 0c-12.232 5.773-26.828.538-32.601-11.694a24.491 24.491 0 0 1-.081-20.733l3.499-7.339a1.962 1.962 0 0 0-2.304-2.73 8.531 8.531 0 0 1-6.144-.427 25.598 25.598 0 0 1-13.654-24.149zm-36.608 211.371A8.534 8.534 0 0 1 119.567 333a8.958 8.958 0 0 1 2.475-6.059 9.8 9.8 0 0 1 2.816-1.792 8.537 8.537 0 0 1 6.485 0 9.8 9.8 0 0 1 2.816 1.792 8.964 8.964 0 0 1 2.475 6.059 8.541 8.541 0 0 1-2.475 6.058zm232.874 2.474H153.7a8.533 8.533 0 0 1 0-17.066h213.333a8.533 8.533 0 0 1 8.533 8.533 8.532 8.532 0 0 1-8.533 8.533z"/></svg>