<svg xmlns="http://www.w3.org/2000/svg" viewBox="0 0 512.199 512.199"><path d="M321.977 96.028a30.138 30.138 0 0 0-6.656-9.899 29.77 29.77 0 0 0-9.813-6.741 30.637 30.637 0 0 0-24.064 0 29.685 29.685 0 0 0-9.813 6.656 41.897 41.897 0 0 0-7.595 11.776 8.534 8.534 0 0 1-15.787 0 41.905 41.905 0 0 0-7.509-11.691 29.69 29.69 0 0 0-10.24-6.656 30.637 30.637 0 0 0-24.064 0 29.777 29.777 0 0 0-9.813 6.656 30.035 30.035 0 0 0-6.656 9.899 30.633 30.633 0 0 0-2.133 12.117 31.051 31.051 0 0 0 2.219 11.52l.597 1.024 65.451 73.643 66.048-74.667a31.051 31.051 0 0 0 2.219-11.52 30.554 30.554 0 0 0-2.391-12.117z"/><path d="M436.153 297.756l-102.4-68.267 1.28-.853c55.577-43.688 65.215-124.158 21.527-179.735S232.402-16.313 176.825 27.375 111.61 151.533 155.298 207.11a128.019 128.019 0 0 0 21.527 21.527l1.195.939-102.4 68.267a17.065 17.065 0 0 0-7.253 14.165v12.459c0 9.426 7.641 17.067 17.067 17.067v153.6c0 9.426 7.641 17.067 17.067 17.067h17.067c9.426 0 17.067-7.641 17.067-17.067v-102.4h59.733v102.4c0 9.426 7.641 17.067 17.067 17.067H409.7c9.426 0 17.067-7.641 17.067-17.067v-153.6c9.426 0 17.067-7.641 17.067-17.067v-12.459a17.07 17.07 0 0 0-7.681-14.252zM177.337 131.527a9.065 9.065 0 0 1-1.024-1.451l-1.28-1.877-.427-.939a48.3 48.3 0 0 1 10.325-52.907 46.67 46.67 0 0 1 15.275-10.325 48.13 48.13 0 0 1 37.376 0 46.587 46.587 0 0 1 15.275 10.325 40.605 40.605 0 0 1 3.328 3.755 40.37 40.37 0 0 1 3.413-3.84 46.587 46.587 0 0 1 15.275-10.325 48.13 48.13 0 0 1 37.376 0 48.382 48.382 0 0 1 25.6 25.6 48.386 48.386 0 0 1 0 37.547l-.683 1.109-1.28 2.219a9.065 9.065 0 0 1-1.024 1.451l-69.12 77.739c-4.72 5.326-12.864 5.816-18.19 1.096a12.881 12.881 0 0 1-1.096-1.096l-69.119-78.081zm-41.386 204.715v.085a9.972 9.972 0 0 1-1.792 2.816 8.534 8.534 0 0 1-9.301 1.792 9.8 9.8 0 0 1-2.816-1.792 8.53 8.53 0 0 1-2.475-6.144 8.533 8.533 0 0 1 2.475-6.059 8.534 8.534 0 0 1 9.301-1.792 9.8 9.8 0 0 1 2.816 1.792 8.964 8.964 0 0 1 2.475 6.059 7.192 7.192 0 0 1-.683 3.243zm231.082 5.29H153.7a8.533 8.533 0 0 1 0-17.066h213.333a8.533 8.533 0 0 1 8.533 8.533 8.532 8.532 0 0 1-8.533 8.533z"/></svg>