<svg xmlns="http://www.w3.org/2000/svg" viewBox="0 0 512.199 512.199"><path d="M290.233 97.394v1.963c0 18.851-15.282 34.133-34.133 34.133-18.851 0-34.133-15.282-34.133-34.133v-1.963a101.717 101.717 0 0 0-32.512 27.904c18.347 27.221 41.045 42.155 65.621 42.411h.512c24.491 0 48.043-14.933 66.901-42.667a101.61 101.61 0 0 0-32.256-27.648z"/><path d="M270.521 90.396a63.568 63.568 0 0 0-28.843 0c-4.949 8.022-2.457 18.537 5.565 23.486a17.064 17.064 0 0 0 8.856 2.541c9.425-.057 17.02-7.745 16.962-17.17a17.057 17.057 0 0 0-2.54-8.857z"/><path d="M436.153 297.756l-102.4-68.267 1.28-.853c55.577-43.688 65.215-124.158 21.527-179.735S232.402-16.313 176.825 27.375 111.61 151.533 155.298 207.11a128.019 128.019 0 0 0 21.527 21.527l1.195.939-102.4 68.267a17.065 17.065 0 0 0-7.253 14.165v12.459c0 9.426 7.641 17.067 17.067 17.067v153.6c0 9.426 7.641 17.067 17.067 17.067h17.067c9.426 0 17.067-7.641 17.067-17.067v-102.4h59.733v102.4c0 9.426 7.641 17.067 17.067 17.067H409.7c9.426 0 17.067-7.641 17.067-17.067v-153.6c9.426 0 17.067-7.641 17.067-17.067v-12.459a17.07 17.07 0 0 0-7.681-14.252zM172.047 129.479h-.427a8.536 8.536 0 0 1 0-9.387 112.131 112.131 0 0 1 60.928-45.312 8.53 8.53 0 0 1 4.096-.853 80.042 80.042 0 0 1 37.547 0 8.53 8.53 0 0 1 4.096.853 112.13 112.13 0 0 1 61.525 44.885 8.534 8.534 0 0 1 0 9.557c-22.613 35.584-52.651 55.125-84.565 55.125h-.597c-31.489.172-60.929-19.455-82.603-54.868zm-35.414 205.227a5.556 5.556 0 0 1-.512 1.536 6.494 6.494 0 0 1-.768 1.536c-.315.447-.657.874-1.024 1.28A8.533 8.533 0 0 1 119.567 333a8.513 8.513 0 0 1 .683-3.243 9.8 9.8 0 0 1 1.792-2.816 8.534 8.534 0 0 1 14.592 6.058c.041.568.041 1.138-.001 1.707zm230.4 6.826H153.7a8.533 8.533 0 0 1 0-17.066h213.333a8.533 8.533 0 0 1 8.533 8.533 8.532 8.532 0 0 1-8.533 8.533z"/></svg>