<svg xmlns="http://www.w3.org/2000/svg" viewBox="0 0 512.199 512.199"><path d="M260.623 187.932h-9.045a4.011 4.011 0 0 0-4.011 4.011v9.045a4.011 4.011 0 0 0 4.011 4.011h9.045a4.011 4.011 0 0 0 4.011-4.011v-9.045a4.012 4.012 0 0 0-4.011-4.011zM239.119 59.932l6.144 76.8h21.674l6.144-77.141z"/><path d="M436.153 297.756l-102.4-68.267 1.28-.853c55.577-43.688 65.215-124.158 21.527-179.735S232.402-16.313 176.825 27.375 111.61 151.533 155.298 207.11a128.019 128.019 0 0 0 21.527 21.527l1.195.939-102.4 68.267a17.065 17.065 0 0 0-7.253 14.165v12.459c0 9.426 7.641 17.067 17.067 17.067v153.6c0 9.426 7.641 17.067 17.067 17.067h17.067c9.426 0 17.067-7.641 17.067-17.067v-102.4h59.733v102.4c0 9.426 7.641 17.067 17.067 17.067H409.7c9.426 0 17.067-7.641 17.067-17.067v-153.6c9.426 0 17.067-7.641 17.067-17.067v-12.459a17.07 17.07 0 0 0-7.681-14.252zM225.977 48.071a16.383 16.383 0 0 1 12.032-5.205h36.181a16.383 16.383 0 0 1 12.032 5.205 15.02 15.02 0 0 1 4.011 11.861l-6.4 79.872c-.922 8.078-7.828 14.135-15.957 13.995h-23.552c-8.247.124-15.2-6.122-15.957-14.336l-6.4-79.531a15.019 15.019 0 0 1 4.01-11.861zM281.7 191.943v9.045c0 11.641-9.437 21.077-21.077 21.077h-9.045c-11.641 0-21.077-9.437-21.077-21.077v-9.045c0-11.641 9.437-21.077 21.077-21.077h9.045c11.64 0 21.077 9.436 21.077 21.077zM135.951 336.242a7.68 7.68 0 0 1-4.608 4.608 8.55 8.55 0 0 1-3.243.683h-1.707l-1.536-.512-1.536-.768-1.28-1.024a9.928 9.928 0 0 1-1.792-2.816 8.536 8.536 0 0 1-.683-3.413 8.958 8.958 0 0 1 2.475-6.059l1.28-1.024 1.536-.768a5.374 5.374 0 0 1 1.536-.683 8.527 8.527 0 0 1 4.949.512 9.914 9.914 0 0 1 2.816 1.792 8.96 8.96 0 0 1 2.475 6.229 7.178 7.178 0 0 1-.682 3.243zm231.082 5.29H153.7a8.533 8.533 0 0 1 0-17.066h213.333a8.533 8.533 0 0 1 8.533 8.533 8.532 8.532 0 0 1-8.533 8.533z"/></svg>