<svg xmlns="http://www.w3.org/2000/svg" viewBox="0 0 510.895 510.895"><path d="M435.501 296.452L281.047 193.455v-53.504c18.851-14.138 22.672-40.882 8.533-59.733s-40.882-22.672-59.733-8.533-22.672 40.882-8.533 59.733a42.668 42.668 0 0 0 8.533 8.533v53.504L75.309 296.452a17.067 17.067 0 0 0-7.595 14.251v12.459c0 9.426 7.641 17.067 17.067 17.067v153.6c0 9.426 7.641 17.067 17.067 17.067h17.067c9.426 0 17.067-7.641 17.067-17.067v-102.4h59.733v102.4c0 9.426 7.641 17.067 17.067 17.067h196.267c9.426 0 17.067-7.641 17.067-17.067v-153.6c9.426 0 17.067-7.641 17.067-17.067v-12.459a17.075 17.075 0 0 0-7.682-14.251zm-300.203 38.315v.171a8.518 8.518 0 0 1-1.792 2.816l-1.28 1.024a6.494 6.494 0 0 1-1.536.768l-1.536.683h-1.707a8.534 8.534 0 0 1-6.059-14.592l1.28-1.024 1.536-.768a5.374 5.374 0 0 1 1.536-.683 7.593 7.593 0 0 1 3.413 0 5.375 5.375 0 0 1 1.536.512c.544.187 1.06.445 1.536.768l1.28 1.024a9.928 9.928 0 0 1 1.792 2.816 8.015 8.015 0 0 1 .001 6.485zm231.083 5.461H153.047a8.533 8.533 0 0 1 0-17.066H366.38a8.533 8.533 0 0 1 8.533 8.533 8.531 8.531 0 0 1-8.532 8.533zM133.506 189.103c-48.249-48.364-48.249-126.655 0-175.019A8.533 8.533 0 0 0 121.73 2.052c-54.866 55.02-54.866 144.062 0 199.083a8.536 8.536 0 0 0 5.717 2.56 8.534 8.534 0 0 0 6.059-14.592z"/><path d="M157.826 38.319a8.54 8.54 0 0 0-12.032-12.118c-41.622 41.678-41.622 109.192 0 150.869a8.533 8.533 0 0 0 12.032-12.032c-34.948-35.01-34.948-91.708 0-126.719z"/><path d="M182.146 62.468a8.63 8.63 0 0 0-12.032-12.374c-28.395 28.324-28.452 74.303-.128 102.698l.128.128a8.533 8.533 0 0 0 12.032-12.032c-21.6-21.677-21.6-56.742 0-78.42zM389.165 2.052a8.533 8.533 0 0 0-12.032 12.032c48.249 48.364 48.249 126.655 0 175.019a8.533 8.533 0 1 0 12.032 12.032c54.866-55.021 54.866-144.063 0-199.083z"/><path d="M365.015 25.775a8.533 8.533 0 0 0-12.032 12.032 89 89 0 0 1 26.197 63.488 89.003 89.003 0 0 1-26.197 63.317 8.533 8.533 0 1 0 12.032 12.032c41.623-41.678 41.623-109.192 0-150.869z"/><path d="M340.909 50.223a8.568 8.568 0 0 0-12.246.043 8.568 8.568 0 0 0 .171 12.117c21.601 21.678 21.601 56.743 0 78.421a8.533 8.533 0 0 0-.049 12.068l.049.049a8.533 8.533 0 0 0 12.032 0c28.371-28.347 28.391-74.327.043-102.698z"/></svg>